<?xml version="1.0" encoding="UTF-8" standalone="no"?>
<!-- (c) ammap.com | SVG map of Spain High -->

<svg
   xmlns:amcharts="http://amcharts.com/ammap"
   xmlns:dc="http://purl.org/dc/elements/1.1/"
   xmlns:cc="http://creativecommons.org/ns#"
   xmlns:rdf="http://www.w3.org/1999/02/22-rdf-syntax-ns#"
   xmlns:svg="http://www.w3.org/2000/svg"
   xmlns="http://www.w3.org/2000/svg"
   xmlns:sodipodi="http://sodipodi.sourceforge.net/DTD/sodipodi-0.dtd"
   xmlns:inkscape="http://www.inkscape.org/namespaces/inkscape"
   version="1.1"
   id="svg30"
   sodipodi:docname="CAS.svg"
   width="129.48921"
   height="55.338169"
   inkscape:version="0.92.4 (5da689c313, 2019-01-14)">
  <metadata
     id="metadata34">
    <rdf:RDF>
      <cc:Work
         rdf:about="">
        <dc:format>image/svg+xml</dc:format>
        <dc:type
           rdf:resource="http://purl.org/dc/dcmitype/StillImage" />
        <dc:title></dc:title>
      </cc:Work>
    </rdf:RDF>
  </metadata>
  <sodipodi:namedview
     pagecolor="#ffffff"
     bordercolor="#666666"
     borderopacity="1"
     objecttolerance="10"
     gridtolerance="10"
     guidetolerance="10"
     inkscape:pageopacity="0"
     inkscape:pageshadow="2"
     inkscape:window-width="1920"
     inkscape:window-height="1017"
     id="namedview32"
     showgrid="false"
     fit-margin-top="0"
     fit-margin-left="0"
     fit-margin-right="0"
     fit-margin-bottom="0"
     inkscape:zoom="4.24"
     inkscape:cx="95.848075"
     inkscape:cy="21.095032"
     inkscape:window-x="-8"
     inkscape:window-y="-8"
     inkscape:window-maximized="1"
     inkscape:current-layer="svg30" />
  <defs
     id="defs25">
    <style
       type="text/css"
       id="style23">
			.land
			{
				fill: #CCCCCC;
				fill-opacity: 1;
				stroke:white;
				stroke-opacity: 1;
				stroke-width:0.5;
			}
		</style>
    <amcharts:ammap
       projection="mercator"
       leftLongitude="-18.161674"
       topLatitude="43.794381"
       rightLongitude="4.332045"
       bottomLatitude="27.636889" />
    <!-- All areas are listed in the line below. You can use this list in your script. -->
    <!--{id:"ES-AN"},{id:"ES-AR"},{id:"ES-AS"},{id:"ES-CB"},{id:"ES-CL"},{id:"ES-CM"},{id:"ES-CN"},{id:"ES-CT"},{id:"ES-EX"},{id:"ES-GA"},{id:"ES-RI"},{id:"ES-MD"},{id:"ES-MC"},{id:"ES-NC"},{id:"ES-IB"},{id:"ES-PV"},{id:"ES-VC"}-->
  </defs>
  <g
     id="g28"
     transform="translate(0.23514207,-487.68229)">
    <path
       id="ES-CN"
       title="Canary Islands"
       class="land"
       d="m 6.42,536.26 0.61,0.25 0.53,1.12 -0.85,1.06 -0.34,1.18 -0.81,0.38 -0.57,2.44 -0.86,-0.31 -1.11,-1.31 -2.58,-0.33 -0.41,-0.35 0.16,-1.25 0.54,-0.45 1.46,0.52 1.2,-0.28 1.3,-1.17 -0.12,-0.67 z m 68.19,-10.15 0.5,0.46 -0.17,1.01 v -0.83 l -0.28,0.94 v -0.53 l -0.32,0.23 0.5,1.22 -0.24,1.23 1.26,1.53 0.16,0.56 -0.45,0.74 0.69,1 -0.71,0.26 -0.25,1.09 0.24,0.99 -0.8,0.37 -0.36,1.24 -3.34,1.19 -0.56,0.92 -0.78,0.08 -1.62,-0.69 -0.4,0.23 -3.06,-2.6 -1.26,-2.32 0.27,-3.19 0.99,-0.23 1.79,-1.49 0.64,-2.48 -0.33,-0.48 0.71,-0.13 0.43,0.36 0.8,-0.42 0.99,0.85 2.03,-0.33 1.64,0.88 0.79,-0.35 -0.12,-0.87 z m -50.46,-1.06 0.38,-0.08 0.45,0.53 1.31,0.02 0.33,0.62 1.75,0.84 0.42,0.74 0.06,1.11 -1.86,1.76 -0.82,0.34 -1.94,-0.06 -1.34,-1.03 -0.04,-0.54 -0.75,-0.68 0.1,-1.66 0.65,-1.39 z m 13.91,-4.94 0.97,-0.02 1.43,-0.79 1.92,0.24 1.43,-0.78 1.09,-0.02 2.2,-2.07 0.52,-1.21 0.76,-0.61 1.27,-0.28 0.36,-0.69 2.72,0.4 1.77,-0.7 0.7,0.22 0.34,0.67 -0.15,0.85 -2.99,1.39 -0.46,0.97 -2.95,2.32 v 2.24 l -1.75,3.15 -0.04,1.71 -3.27,3.78 -1.33,-0.13 -1.31,0.78 -1.56,-0.02 -0.27,-1.3 -0.72,-0.29 0.02,-0.91 -1.15,-1.06 -1.58,-2.66 -0.11,-1.77 -1.52,-2.08 -0.76,-0.29 0.2,-0.6 2.3,-0.98 0.66,0.5 z m 78.07,-11.75 1.55,1.36 0.38,3.71 -0.57,2.73 -0.66,0.72 0.41,2.69 -1.16,2.14 -0.04,1.12 -0.55,1.08 -0.74,0.7 -1.15,0.03 -0.69,0.64 -5.63,1.31 -3.08,3.71 -3.91,-1.02 -0.9,0.36 0.45,-1.38 0.27,0.31 1.1,-0.02 2,-0.53 3.93,-2.88 0.57,-3.52 1.12,-1.29 0.42,-2.17 1.44,-1.43 1.6,-3.26 -0.12,-0.75 0.82,-1.85 -0.22,-1.22 z m 2.27,-0.29 -0.1,0.77 -0.43,0.06 -0.19,-0.47 z m -111.58,-2.79 1.43,0.75 1.33,-0.4 0.86,0.16 0.74,2.1 0.72,0.92 -1.26,2.04 0.56,1.61 -0.26,1.65 -2.22,3.63 -0.74,-0.63 -0.33,-2.07 -1.24,-1.73 -1.49,-4.01 -0.72,-0.97 0.05,-0.83 1.04,-1.33 z m 120.94,-11.46 1.14,0.57 0.1,0.75 -0.23,0.93 -0.98,0.82 0.45,1.25 -0.5,0.99 0.03,1.16 -0.57,0.79 -1.39,0.73 -0.29,0.53 -1.34,0.11 -1.25,0.92 -2.52,0.38 -1.4,2.11 -0.38,-0.62 -1.95,0.11 -0.24,-0.97 1.42,-1.31 -0.11,-1.88 0.5,-1.37 1.65,-1.38 1.27,-0.04 1.54,-1.34 0.49,0.23 0.86,-0.62 1.47,0.53 0.62,-0.72 0.77,-2.4 0.7,-0.61 z m -1.14,-1.97 0.95,0.83 -0.87,1.21 -1.07,0.17 z m 0.08,-3.89 0.47,0.41 -0.52,0.56 -0.61,0.01 0.17,-0.84 z"
       inkscape:connector-curvature="0"
       style="fill:#cccccc;fill-opacity:1;stroke:#ffffff;stroke-width:0.5;stroke-opacity:1" />
  </g>
</svg>
