<?xml version="1.0" encoding="UTF-8" standalone="no"?>
<!-- (c) ammap.com | SVG map of USA -->

<svg
   xmlns:dc="http://purl.org/dc/elements/1.1/"
   xmlns:cc="http://creativecommons.org/ns#"
   xmlns:rdf="http://www.w3.org/1999/02/22-rdf-syntax-ns#"
   xmlns:svg="http://www.w3.org/2000/svg"
   xmlns="http://www.w3.org/2000/svg"
   xmlns:sodipodi="http://sodipodi.sourceforge.net/DTD/sodipodi-0.dtd"
   xmlns:inkscape="http://www.inkscape.org/namespaces/inkscape"
   version="1.1"
   id="svg58"
   sodipodi:docname="KODAK.svg"
   width="415.99533"
   height="272.14584"
   inkscape:version="0.92.4 (5da689c313, 2019-01-14)">
  <metadata
     id="metadata62">
    <rdf:RDF>
      <cc:Work
         rdf:about="">
        <dc:format>image/svg+xml</dc:format>
        <dc:type
           rdf:resource="http://purl.org/dc/dcmitype/StillImage" />
        <dc:title></dc:title>
      </cc:Work>
    </rdf:RDF>
  </metadata>
  <sodipodi:namedview
     pagecolor="#ffffff"
     bordercolor="#666666"
     borderopacity="1"
     objecttolerance="10"
     gridtolerance="10"
     guidetolerance="10"
     inkscape:pageopacity="0"
     inkscape:pageshadow="2"
     inkscape:window-width="640"
     inkscape:window-height="480"
     id="namedview60"
     showgrid="false"
     fit-margin-top="0"
     fit-margin-left="0"
     fit-margin-right="0"
     fit-margin-bottom="0"
     inkscape:zoom="2.36"
     inkscape:cx="-85.365908"
     inkscape:cy="704.25819"
     inkscape:window-x="0"
     inkscape:window-y="0"
     inkscape:window-maximized="0"
     inkscape:current-layer="svg58" />
  <defs
     id="defs53">
    <style
       type="text/css"
       id="style51">
			.land
			{
				fill: #CCCCCC;
				fill-opacity: 1;
				stroke:white;
				stroke-opacity: 1;
				stroke-width:0.5;
			}
		</style>
    <!--{id:"US-AK"},{id:"US-AL"},{id:"US-AR"},{id:"US-AZ"},{id:"US-CA"},{id:"US-CO"},{id:"US-CT"},{id:"US-DC"},{id:"US-DE"},{id:"US-FL"},{id:"US-GA"},{id:"US-HI"},{id:"US-IA"},{id:"US-ID"},{id:"US-IL"},{id:"US-IN"},{id:"US-KS"},{id:"US-KY"},{id:"US-LA"},{id:"US-MA"},{id:"US-MD"},{id:"US-ME"},{id:"US-MI"},{id:"US-MN"},{id:"US-MO"},{id:"US-MS"},{id:"US-MT"},{id:"US-NC"},{id:"US-ND"},{id:"US-NE"},{id:"US-NH"},{id:"US-NJ"},{id:"US-NM"},{id:"US-NV"},{id:"US-NY"},{id:"US-OH"},{id:"US-OK"},{id:"US-OR"},{id:"US-PA"},{id:"US-RI"},{id:"US-SC"},{id:"US-SD"},{id:"US-TN"},{id:"US-TX"},{id:"US-UT"},{id:"US-VA"},{id:"US-VT"},{id:"US-WA"},{id:"US-WI"},{id:"US-WV"},{id:"US-WY"}-->
  </defs>
  <g
     id="g56"
     transform="translate(-127.95065,-482.11235)">
    <path
       id="US-AK"
       title="Alaska"
       class="land"
       d="m 456.18,521.82 -0.1,4.96 -0.1,4.94 -0.1,4.92 -0.1,4.9 -0.1,4.88 -0.1,4.86 -0.1,4.84 -0.1,4.82 -0.1,4.8 -0.1,4.78 -0.1,4.77 -0.09,4.75 -0.1,4.73 -0.09,4.71 -0.09,4.7 -0.09,4.68 -0.09,4.66 -0.09,4.65 -0.09,4.64 -0.09,4.62 -0.09,4.61 -0.09,4.59 -0.09,4.58 -0.09,4.56 -0.09,4.55 -0.09,4.54 -0.09,4.53 -0.09,4.51 -0.09,4.5 -0.09,4.49 -0.09,4.48 -0.09,4.47 1.8,0.66 1.79,0.65 0.57,-1.23 1.93,0.97 1.69,0.85 1.09,-1.06 1.18,-1.14 1.58,-0.07 1.77,-0.09 1.18,-0.06 v 0.98 l -0.44,1.63 -0.37,1.36 0.98,1.25 0.1,0.13 1.34,0.72 1.25,0.67 0.57,1.87 1.38,1.43 1.05,1.09 1.01,1.04 1.45,1.48 1.02,1.04 1.37,1.38 0.82,0.82 0.41,1.61 0.5,1.93 -0.27,1.15 0.65,0.17 1.23,-1.31 1.16,-0.82 1.43,-1.02 0.96,-0.69 1.82,-0.08 0.81,-1.96 -0.08,-2.71 0.92,0.02 0.53,-0.38 0.21,-0.8 -0.61,-1.07 1.71,-0.57 1.24,-0.41 1.74,-1.07 1.7,-1.05 0.86,0.73 0.85,0.7 1.69,1.69 0.13,0.42 -0.07,0.83 -0.12,0.83 1.09,2.27 0.3,0.25 0.83,0.28 1.01,0.72 0.46,0.64 1.46,0.99 0.26,0.43 0.17,0.7 0.26,0.6 0.29,0.42 0.29,0.61 0.65,0.7 1.21,0.75 0.84,0.52 1.18,0.73 1.25,1.55 1.09,1.35 1.23,1.32 -0.1,1.12 1.27,1.64 1.37,2.09 1.07,1.86 0.75,1.03 0.92,1.5 1.13,1.83 1.29,2.08 0.97,1.32 1.28,1.86 0.65,1.11 -0.32,0.82 -0.4,1.01 1.5,0.35 1.04,0.24 -0.17,1.11 -0.22,1.46 1.2,0.47 0.81,0.32 -0.1,0.77 0.5,0.81 0.19,1.4 1.4,-0.21 0.62,-0.09 0.9,0.55 1.18,0.72 1.18,0.67 1.01,0.57 1.29,0.27 1.6,0.42 0.87,1.07 1.46,0.35 0.68,1.54 1.69,0.42 0.92,-0.48 0.41,0.61 0.35,0.72 0.17,0.93 v 0.92 l -0.33,0.81 -0.23,0.86 -0.12,0.91 0.02,0.96 0.15,1.01 0.25,0.87 0.67,1.59 0.27,0.99 0.09,0.67 -0.9,2.47 -0.28,1.16 0.09,0.5 -0.71,1.25 -1.37,1.78 -0.6,1.01 -0.37,-0.28 -2,-0.06 -0.91,-2.02 -0.53,-1.59 -0.7,-1.36 -0.01,-0.32 0.43,-0.99 1.88,-0.96 -0.01,-0.31 -0.75,-0.14 -0.21,-0.32 -0.34,-1.51 -0.07,-1.35 -0.13,-0.89 -0.49,-1.79 -0.59,-1.07 -1.44,-2.07 -0.15,-0.54 0.49,-0.74 0.28,-0.67 -2,1.3 -2.77,1.42 -1.17,0.92 -0.23,0.35 -0.07,0.28 0.29,0.75 -0.01,0.25 -0.21,0.48 -0.19,1.32 -0.52,1.42 -0.3,0.31 -1.17,-0.42 -0.34,-0.42 -0.7,-1.74 0.1,-0.49 0.38,-0.43 0.49,-0.91 0.6,-1.39 1.06,-3.5 0.87,-0.09 1.48,-0.8 -2.44,-0.14 -0.37,-0.15 -0.36,-0.44 -0.35,-0.73 -0.55,-0.79 -0.94,-0.22 -0.42,-0.28 -0.68,-0.97 -0.44,-0.42 -0.26,-0.55 -0.09,-0.67 -0.2,-0.32 -0.64,-0.07 -0.36,-0.21 -0.22,-1.72 -1.27,-0.35 -0.54,-0.35 -0.89,-1.02 -0.26,-0.51 -0.1,-0.43 0.11,-1.21 -0.1,-0.22 -0.71,0.17 -4.59,-1.56 0.08,-2.47 -1.02,-3.19 -0.96,-1.26 0.14,-0.52 0.17,-0.28 0.39,-0.03 1.76,0.85 1.67,1.03 0.2,-0.18 -2.71,-2.23 -0.68,-0.68 -0.21,-0.85 -0.04,-0.46 0.19,-0.26 2.4,0.06 0.13,-0.19 -2.46,-0.55 -0.49,0.03 -0.47,1.04 -0.24,0.25 -0.52,-0.02 -0.18,-0.14 -0.69,-1.19 -0.63,-0.82 -1.15,-1.12 -0.25,-0.83 -0.12,-1.24 0.08,-1.18 0.73,-2.73 0.33,-0.49 0.08,-0.3 -0.27,0.06 -0.24,0.27 -0.66,1.29 -0.64,2.08 -0.58,0.73 -0.39,-0.15 -0.63,-0.8 -1.27,-0.95 -1.42,-0.19 -0.94,-1 -1.45,-2.83 -0.24,-1.44 -0.18,-0.35 -0.73,-0.44 -0.46,-0.68 -0.82,-3.5 -0.98,-2.42 -0.27,-1.29 0.02,-1.29 -0.12,-0.14 -0.26,1.02 -0.06,0.53 -0.55,0.17 0.56,1 0.15,0.5 -0.26,-0.03 -0.53,0.15 0.97,1.7 0.52,2.67 0.69,1.96 0.46,1.59 0.23,1.21 0.31,1.16 0.82,2.54 0.12,0.51 -0.07,0.42 -0.21,0.51 -0.4,0.21 -1.29,-0.28 -0.51,-0.62 -0.73,-1.14 -0.98,-0.5 -2.37,0.36 -0.19,-0.08 -0.02,-0.96 0.21,-1.71 -0.24,-0.68 -1.31,-2.46 v -0.49 l 1.65,-1.21 -0.83,-0.06 -0.65,0.47 -0.27,-0.28 -0.45,-1.6 -0.28,-0.59 -0.13,-0.12 -0.02,1.53 0.31,0.79 0.06,0.46 -0.02,0.65 -0.16,0.47 -0.3,0.29 -0.31,0.08 -0.58,-0.31 -0.65,-0.59 -0.56,-0.27 -0.21,-0.24 -0.28,-0.67 -0.44,-0.5 -2.08,-0.59 -1.25,-0.73 -0.1,0.2 0.4,0.81 0.05,0.48 -0.31,0.15 -0.54,0.79 0.16,0.1 0.58,-0.27 0.66,0.01 1.1,0.44 1,0.59 0.37,0.33 0.16,0.51 0.13,0.18 0.99,0.57 0.06,0.31 -0.6,0.95 1.28,-0.14 0.76,0.31 1,1.41 0.35,0.79 0.08,1.03 -0.19,0.31 -0.37,0.22 -2.62,0.42 -0.91,1.27 -0.2,0.02 -0.73,-0.32 -1.34,-0.96 -1.66,-0.9 -3.78,-2.72 -0.1,-0.13 -0.07,-0.54 -0.26,-0.27 -0.51,-0.23 -0.71,-0.7 -0.91,-1.17 -0.56,-0.92 -0.22,-0.66 -0.53,-0.76 -1.68,-1.57 -0.88,-0.6 -0.77,-0.34 -0.67,-0.07 -0.18,-0.21 0.31,-0.35 0.04,-0.21 -1.47,-0.32 -1.4,-0.74 -3.54,-2.1 -1.82,-1.32 -1.06,-0.63 -0.45,-0.36 -0.2,-0.29 0.26,-0.3 0.71,-0.31 0.48,-0.35 0.76,-1.33 0.06,-0.43 -0.4,-0.97 -0.18,-0.88 0.01,-0.49 0.09,-0.48 0.12,-0.32 0.32,-0.31 0.22,-0.15 0.28,0.11 0.88,1.22 0.12,0.44 -0.04,1.66 0.25,1.94 0.08,-0.14 0.08,-0.64 0.05,-1.23 0.1,-0.59 0.19,-0.57 0.32,-0.3 1,0.18 0.46,-0.1 -1.95,-0.88 -1.22,-1.65 -0.22,-0.17 -0.67,-0.08 -0.71,0.66 -1.84,2.16 -0.51,0.38 -2.31,1.18 -1.56,0.22 -1.75,-0.22 -1.49,-0.42 -3.7,-1.98 -0.57,-0.46 0.9,-1.15 0.04,-0.37 -0.27,-1.21 -0.24,-0.35 -0.35,-0.2 -0.1,0.13 -0.01,0.36 0.08,0.66 -0.29,0.34 -0.64,0.36 -1.08,0.35 -3.28,-1.07 -3.36,-0.92 -3.01,-0.28 -4.29,0.45 -2.31,0.53 -1.33,-0.01 -1.27,-0.18 -0.08,-0.45 0.6,-0.23 -0.02,-0.33 -0.68,-1.05 -1.08,-0.68 -1.48,-0.3 -0.84,-0.35 -0.19,-0.39 -0.51,-0.39 -0.82,-0.39 -0.33,-0.63 0.41,-1.87 0.36,-1.12 0.33,-0.76 0.8,-1.25 -0.26,0.08 -1.1,0.88 -0.97,0.92 -0.93,1.22 -0.54,0.55 -0.68,0.49 -1,-0.2 -1.31,-0.89 -1.14,-0.49 -0.97,-0.1 -0.38,-0.17 0.72,-0.66 0.42,-0.54 0.59,-0.88 0.15,-0.44 -3.54,-0.41 -0.09,-0.49 0.02,-0.36 -0.09,-0.3 -0.5,-0.26 -0.73,0.11 -1.21,0.48 -0.47,-0.47 0.2,-0.23 0.4,-0.15 0.84,-0.76 -1.01,-0.51 -0.49,-0.53 -0.23,-0.42 0.14,-1.46 0.35,-0.91 2.4,-0.72 -0.71,-0.41 h -1.48 l -1.05,0.69 -1.27,1.01 -0.82,0.35 -0.38,-0.32 -0.52,-0.14 -0.67,0.03 -0.47,0.24 -0.27,0.46 -0.29,0.3 -0.31,0.14 -0.21,-0.07 -0.27,-0.52 -0.64,-0.37 -0.29,-0.41 -0.21,0.22 -0.29,0.69 -0.27,0.34 -1.17,0.26 -0.61,-0.13 -0.65,-0.96 -0.08,-0.32 0.33,-0.75 1.92,-2.9 h -0.16 l -0.57,0.43 -1.17,1.12 -0.5,0.32 -0.81,-0.03 -0.36,-0.17 -0.46,0.05 -0.57,0.27 -0.38,0.32 -0.2,0.37 0.1,0.08 0.85,-0.36 0.47,-0.07 0.11,0.23 -0.77,1.32 -0.51,1.28 -0.4,0.29 -0.57,-0.11 -0.65,0.06 -0.05,0.37 1.08,1.17 0.41,0.19 0.51,0.43 0.05,0.38 -0.31,0.99 -0.2,0.38 -0.27,0.18 -0.97,-0.13 -0.32,0.07 -0.72,0.56 -0.38,0.49 0.11,0.06 0.61,-0.37 0.84,-0.15 1.08,0.08 0.82,-0.15 0.57,-0.38 0.5,0.17 0.44,0.72 0.09,0.6 -0.25,0.48 -0.45,0.32 -0.65,0.15 -0.43,0.28 -0.21,0.41 -0.16,0.63 -0.11,0.84 0.01,1.53 -0.14,0.19 -0.25,0.09 -0.35,-0.01 -0.35,0.32 -0.94,1.94 -0.28,0.19 -0.29,-0.25 -0.28,-0.01 -0.27,0.24 -0.55,0.15 -0.83,0.05 -0.69,-0.13 -1.18,-0.57 -0.47,-0.36 -0.33,-0.55 -1.16,0.41 -0.26,-0.26 -0.53,-1.47 -0.16,0.07 -0.3,1.49 -0.27,0.5 -0.8,1.01 -0.59,1.83 -0.12,0.04 -0.1,-0.28 -0.22,-1.72 -0.18,-0.39 -0.73,0.89 -0.11,0.34 0.02,1.26 -0.17,0.17 -1.17,-0.82 -0.3,-0.07 -0.09,0.1 0.31,1.02 -0.09,0.34 -1.99,1.65 -0.45,-0.12 -0.27,-0.22 -0.32,-0.01 -1.21,0.55 -0.31,-0.07 -0.37,-0.46 -0.2,-0.01 -0.16,0.41 -0.12,0.83 -0.52,0.74 -1.51,1.11 -0.43,0.54 -0.38,0.77 -0.21,0.05 -0.72,-0.62 -0.87,-0.46 -0.15,0.15 0.21,0.53 -0.1,0.29 -0.41,0.06 -0.5,-0.11 -0.58,-0.28 -0.88,0.11 -1.18,0.5 -0.91,-0.15 -1.12,-1.25 -0.34,-0.13 -0.07,-0.32 0.37,-0.83 0.45,-0.6 0.31,-0.26 1.32,-0.67 1.42,-0.12 0.93,-0.39 1.19,-0.9 0.66,-0.71 1.36,-1.88 -0.06,-0.17 -0.23,-0.14 -2.65,1.59 -0.38,0.13 -0.47,-0.08 -1.81,-1 -0.36,-0.37 -0.15,-0.96 0.82,-2.02 0.51,-0.96 1.14,-1.44 1.44,-1.51 0.56,-1.03 1.02,-2.82 0.14,-1.33 -0.06,-1.65 0.12,-0.96 0.3,-0.27 2.93,-1.13 1.44,-0.95 2.71,-1.34 0.68,0.1 0.43,0.63 0.53,0.53 0.62,0.42 0.86,0.07 1.1,-0.29 1.64,0.35 3.29,1.48 0.72,0.14 0.04,-0.14 -0.44,-0.82 -2.3,-0.71 -0.94,-0.56 -2.55,-2.28 -0.54,-0.83 0.3,-0.32 0.71,-0.21 0.27,-0.25 0.16,-0.48 0.47,-0.62 0.78,-0.78 1.13,-0.71 2.1,-1.01 -0.76,-0.14 -1.43,0.07 -0.54,0.17 -1.04,0.77 -0.44,0.57 -0.67,1.14 -0.25,0.2 -1,0.06 -2.69,-0.21 -0.37,-0.67 -0.24,-0.13 -0.34,0.04 -2.65,1.26 -0.98,0.69 -0.75,0.83 -1.06,0.54 -1.37,0.25 -1.06,0.39 -1.18,0.9 -0.46,0.75 -0.07,0.37 0.09,1.22 -0.29,0.19 -0.62,0.01 -1.08,0.65 -2.38,2.04 -0.39,0.81 -0.03,0.29 0.24,0.71 -0.3,0.39 -0.68,0.59 -1.45,0.88 -0.91,0.28 -0.55,-0.06 -0.51,-0.23 -0.84,-0.83 -0.75,-0.16 -0.06,0.09 0.92,0.9 0.91,1.11 0.54,0.89 0.17,0.66 -0.08,0.65 -0.34,0.63 -0.92,1.04 -0.79,0.23 -1.94,0.06 -0.65,0.18 -0.22,0.18 1.22,0.68 0.08,0.27 -0.33,0.93 -0.39,0.26 -1.17,0.41 -1,0.01 -0.13,-0.13 0.3,-0.73 -0.02,-0.19 -0.34,-0.21 -0.56,0.21 -1.47,0.9 -0.17,0.16 0.42,0.37 -0.14,0.23 -0.83,0.68 -0.38,0.48 -0.56,0.47 -2.36,1.31 0.09,0.43 -0.78,1.35 -0.51,1.21 0.28,0.59 1.66,0.91 0.83,0.29 0.94,0.6 1.65,1.47 0.49,0.86 0.04,0.38 -0.12,0.38 -0.3,0.5 -0.74,0.91 -1.63,1.27 -0.7,0.32 -1.01,0.18 -0.35,0.19 -1.46,1.21 -0.46,0.71 -0.06,0.67 -0.31,0.43 -1.74,0.65 0.03,0.17 0.56,0.17 -0.35,0.77 -0.28,1.1 -0.31,0.14 -0.99,-0.17 -1.34,0.22 -0.11,0.11 -0.16,0.8 -3.41,0.01 -0.99,1.39 -0.46,0.4 -1.5,0.87 -0.88,0.3 -0.96,0.1 -0.54,0.29 -0.13,0.47 -0.33,0.37 -0.92,0.54 -0.54,0.79 -0.31,0.08 -1.51,-0.07 -0.34,0.21 -0.36,1.13 -0.28,-0.02 -0.47,-0.37 -0.72,0.08 -1.78,1.02 -0.43,0.41 -0.01,0.26 0.19,0.3 0.21,0.85 -0.12,0.52 -0.87,1.34 -0.25,0.18 -0.79,0.22 -0.45,0.75 -0.65,-0.22 -0.57,0.05 -0.46,0.47 -0.44,0.24 h -0.43 l -0.6,0.32 -0.78,0.65 -0.68,0.38 -0.57,0.1 -0.53,-0.05 -0.48,-0.21 h -0.47 l -0.46,0.2 -0.48,0.37 -0.57,1.2 -0.51,0.48 -0.27,0.05 -0.5,-0.19 -0.72,-0.43 -0.81,-0.07 -1.43,0.5 -0.53,0.5 0.78,0.3 0.36,0.25 -0.04,0.16 -0.45,0.07 -0.71,-0.16 -0.46,0.04 -0.59,0.22 -1.39,0.08 -0.55,0.15 -1.3,1.24 -0.19,0.3 0.11,0.1 0.59,-0.03 0.6,0.38 0.27,0.38 0.14,0.43 0.05,0.77 0.1,0.13 -1.52,0.96 -0.47,0.44 -0.27,0.14 -0.12,-0.18 0.14,-1.4 -0.05,-0.25 -0.29,-0.09 -0.38,0.37 -0.98,1.48 -0.87,0.66 -5.65,0.93 -0.87,0.3 -0.35,0.85 -0.39,0.72 -0.48,0.53 -0.49,0.29 -0.02,-0.29 0.53,-2.15 -0.01,-0.45 -0.46,-0.4 -0.24,-0.01 -0.34,0.05 -0.63,0.35 -0.34,0.04 -0.39,-0.13 -0.78,0.3 -1.95,1.09 -1.14,0.12 -0.35,0.24 -0.64,0.7 -0.37,0.22 -0.45,-0.08 -0.53,-0.38 -0.51,0.06 -0.5,0.5 -0.42,0.14 -0.92,-0.68 -0.52,0.19 -0.77,0.61 -0.73,0.35 -0.7,0.08 -1.72,-0.16 -0.63,-0.33 -0.08,-0.25 0.27,-0.95 0.44,-0.63 0.33,-0.26 0.4,-0.21 0.49,0.09 0.85,0.44 -0.04,-0.26 -0.26,-0.36 -0.71,-0.68 -0.76,-0.45 -0.51,0.04 -0.75,0.2 -0.56,0.31 -0.36,0.42 -0.69,1.49 -0.28,0.38 -2.64,2.25 -0.98,0.65 -0.74,-0.26 -0.5,0.31 -0.69,0.55 -0.56,0.2 -0.43,-0.14 -0.31,-0.22 -0.18,-0.29 0.1,-0.2 0.38,-0.12 0.03,-0.58 -0.32,-1.04 -0.25,-0.59 -0.71,-0.25 -0.22,0.38 -0.31,2.15 -0.16,0.46 -0.61,0.47 -1.36,0.35 -0.35,-0.16 -0.72,-1.59 -0.94,-0.53 -0.18,0.41 -0.01,0.93 -0.47,0.74 -0.94,0.56 -0.66,0.21 -0.38,-0.13 0.12,-0.53 0.62,-0.94 0.32,-0.84 0.02,-0.73 0.16,-0.52 0.3,-0.31 1.61,-0.66 h 0.6 l 0.23,0.33 0.36,0.14 0.5,-0.05 0.37,-0.25 0.25,-0.46 0.74,-0.47 1.23,-0.49 1.55,-1.1 1.87,-1.72 2.01,-1.38 2.16,-1.04 2.23,-0.7 4.28,-0.67 0.27,0.17 -0.49,0.44 0.16,0.39 0.37,0.14 1.49,0.09 0.65,-0.21 0.09,0.37 -0.3,0.37 -0.96,0.22 -0.06,0.36 0.84,1.96 0.33,0.35 0.33,0.05 0.19,-0.18 0.18,-1.22 0.48,-0.13 0.88,0.15 0.52,0.29 0.17,0.43 0.42,0.42 0.67,0.41 0.47,0.03 0.27,-0.35 -0.2,-0.54 -1.14,-1.35 -0.28,-0.52 0.05,-0.62 0.38,-0.71 0.7,-1.02 1.03,-1.34 0.85,-0.9 1.5,-0.9 0.96,-0.39 2.51,-1.32 4.43,-0.93 1.25,-0.96 1.63,-1.01 0.65,-0.19 -0.11,0.5 0.08,0.49 0.83,0.5 0.56,0.23 0.29,-0.03 0.18,-0.46 0.07,-0.9 0.15,-0.83 0.23,-0.76 0.26,-0.58 0.83,-0.96 1.15,-1.05 1.52,-1.18 0.9,-0.49 0.79,-0.19 0.83,-0.48 1.5,-1.24 0.43,-0.17 0.92,-0.12 0.29,0.19 0.11,0.41 0.18,0.28 0.83,0.39 0.65,-0.21 -0.06,-0.19 -0.45,-0.21 -0.26,-0.28 -0.1,-0.95 -0.46,-0.66 v -0.63 l 0.3,-0.92 0.95,-2.12 0.55,-2.27 0.7,-1.22 0.97,-0.29 2,0.07 -1.01,-0.82 -0.42,-0.09 -0.68,-0.43 0.01,-1.49 0.22,-1.04 0.73,-1.1 2.2,-1.67 2.24,-1.02 -0.24,-0.17 -0.16,-0.47 1.46,-2.65 1.37,-2.36 -1.6,1.92 -1.7,1.38 -4.4,1.09 -3.07,1.03 -1.38,0.11 -0.77,-0.59 -0.34,-1.67 -0.26,-0.63 -0.27,-1.1 0.49,-1.25 0.58,-0.82 0.88,0.03 0.86,0.64 0.82,0.21 -0.88,-1.11 -1.37,-1.1 -0.75,0.1 -0.81,1.14 -0.9,0.71 -0.56,-0.44 -0.3,-0.43 0.03,1.11 -0.83,1.5 -0.42,1.07 0.04,3.07 -0.38,1.14 -1.37,0.26 -0.8,-1.18 -1.28,-4.17 -0.5,-1.22 -1.25,-2.11 -0.6,0.12 -0.89,0.7 -0.73,0.08 -1.47,-1.68 -0.59,-1.16 -0.5,-1.35 -1.34,0.36 -1.22,0.52 -1.51,0.93 -0.81,-0.21 -2.47,0.5 -0.24,-0.04 -0.45,0.49 -0.37,0.18 -0.52,1.02 -3.21,0.08 -2.84,-1.23 1.19,-0.33 1.28,-0.17 1.29,-0.87 -0.04,-1.62 0.12,-0.79 0.26,-0.97 1.43,-1.09 -1.13,-0.28 -0.85,0.3 -0.42,-1.2 0.2,-2.1 1.08,-1 0.59,-0.83 0.63,-1.19 0.3,-1.08 -0.12,-2 -0.7,-4.35 -0.01,-3.13 -0.91,-1.9 1.64,-2.3 1.69,-2.05 1.67,-0.69 -0.07,-0.18 -0.77,-0.19 -0.54,0.01 -0.65,0.64 -0.62,0.46 -2.26,2.58 -1.34,1.19 -0.73,0.25 0.86,0.82 0.03,0.51 -0.09,1.12 -0.6,1.23 -0.45,0.65 -1.18,-0.37 -1.35,0.76 -2.83,0.46 -3.58,-0.29 -1.65,-0.54 -1.37,-1.81 0.23,-0.76 0.26,-0.64 -1.84,-2.98 -0.75,-2.67 -0.99,-0.34 -0.7,-0.86 -0.75,-1.24 0.31,-0.73 0.32,-0.49 -0.52,-0.56 -0.82,-0.2 -0.86,-0.54 3.3,-2.2 1.41,-1.72 0.76,-0.08 0.79,0.56 1,1.13 0.93,0.63 0.27,0.47 0.19,0.8 -0.73,1.04 -0.6,0.7 0.52,-0.09 1.64,-0.89 1.26,-0.83 0.43,0.24 0.24,0.28 0.22,1.28 0.34,1.34 1.76,-0.7 1.16,-1.16 -0.49,-0.78 -0.7,-0.58 -1.92,-1.04 0.61,-0.25 1.3,0.41 0.6,-0.24 -0.38,-0.67 -0.52,-0.65 -2.2,1.06 -3.2,-0.99 -1.98,-1.55 -2.28,-0.49 -0.3,-0.28 -0.29,-0.61 1.59,-0.78 1.07,-0.38 0.15,-0.36 -0.5,-0.2 -1.06,0.02 -0.28,-0.66 0.34,-0.9 -0.18,0.04 -0.53,0.39 -0.47,-0.41 -0.34,-0.55 0.37,-0.37 0.66,-0.47 -0.19,-0.15 h -0.46 l -0.65,0.67 -0.1,0.67 -0.28,0.92 -0.76,-0.04 -0.58,-0.29 -0.16,-1.06 0.14,-2.12 -1.06,-0.9 v -1.1 l 1.16,-1.06 -0.14,-0.77 -0.75,-0.46 -1.13,0.37 -0.24,-0.71 0.12,-0.66 0.25,-0.92 0.29,-0.02 0.16,0.25 2.02,0.06 0.25,-0.19 -1.25,-1.22 -0.17,-0.94 0.75,-0.27 1.11,0.3 1.69,-0.02 -0.39,-1.06 0.01,-0.51 0.1,-0.82 0.65,-1.24 2.71,-2.49 2.5,-2.01 0.72,-0.43 0.89,-0.08 0.67,0.46 0.62,0.77 0.22,-0.19 -0.2,-0.3 -0.03,-1.14 1.2,-0.1 0.97,-0.99 0.14,-0.33 -0.83,0.29 -0.95,0.6 0.05,-0.86 0.35,-1.91 0.82,-1.67 0.47,-0.72 0.81,-0.58 1.79,0.19 0.26,0.24 0.16,-0.34 -0.71,-1.4 0.67,-0.75 0.5,-0.35 2.25,-0.12 1.06,0.53 1.18,1.21 0.54,1.25 -0.26,0.49 -0.29,0.25 -0.52,0.22 -0.23,0.22 0.02,0.23 0.78,-0.44 1.2,-0.47 0.47,0.47 0.28,0.71 0.49,0.12 1.68,-0.08 0.93,-0.32 1.33,-1.13 1.51,-0.56 2.53,-2.37 0.83,-1.03 0.66,-0.02 0.52,0.25 0.14,1.06 0.49,0.42 3.25,0.58 1.74,-0.03 1.36,-0.65 1.56,-1.28 0.94,-0.89 0.66,-1.3 0.01,-1.88 -0.07,-1.58 0.27,-3.53 -1,-2.62 -0.94,-0.94 -0.72,-0.08 0.86,-1.3 1.44,0.52 1.03,-0.04 0.95,-0.5 0.38,-0.46 0.64,-0.98 0.15,-1.17 -0.06,-0.67 -0.37,-0.81 -0.39,-1.16 -0.36,-0.44 -0.38,-0.07 -2.34,1.54 -1.12,-0.24 -0.73,-0.58 -1.01,0.96 -2.26,0.48 -1.33,0.73 -2.65,1.97 -0.8,0.99 -0.65,-0.12 0.12,-2.31 -1.6,-2.67 -0.84,0.53 0.18,0.75 0.36,0.6 0.75,0.42 -0.52,0.54 -0.49,0.77 -0.6,-1.01 -1.14,-1.54 -1.34,-1 -3.91,-1.02 -2.89,0.44 -0.16,-0.31 -0.22,-0.17 -0.51,0.16 -0.32,0.42 -0.37,0.22 -0.55,-0.05 -1,-0.48 -1.81,-1.33 -4.25,-2.44 -0.99,-1.02 -0.54,-1.87 0.35,-1.05 0.59,-0.31 0.43,-1.53 -0.75,-0.68 -1.1,-2.74 -0.36,-1.14 0.17,-0.06 0.24,0.35 0.55,0.38 1.58,0.16 0.95,-1.26 1.23,-0.06 0.96,0.51 -0.11,-0.46 -0.17,-0.38 -2.42,-1.54 -0.43,0.11 -4.31,-2.78 -2.98,-3.43 -0.16,-0.53 -0.02,-1.06 0.81,-0.78 0.65,-0.28 -0.15,0.53 -0.09,0.53 2.5,-0.5 1.6,-1.2 2.17,0.39 0.62,-0.28 0.91,-0.63 1.37,-1.14 1.54,-0.35 1.1,-0.4 1.28,-0.04 0.78,0.97 0.28,0.18 1.75,0.68 0.68,-0.11 0.32,-0.14 0.29,-0.29 -1.39,-1.74 0.38,-0.62 0.37,-0.41 2.47,-0.8 h 1.71 l 0.83,0.28 2.97,-1.12 1.48,-0.14 2.61,0.36 2.09,0.49 0.38,0.81 -1.07,-0.45 -0.52,-0.02 0.29,0.32 0.26,0.59 -0.28,0.57 -1.18,1.6 -0.34,1.45 -0.58,0.34 -0.62,0.53 1.57,2.65 3.29,1.04 1.91,0.11 0.88,0.9 0.82,0.37 2.46,0.3 1.67,0.9 0.79,0.02 2.43,-2.68 0.77,-0.33 0.57,0.71 0.81,0.67 0.66,-0.17 0.28,0.92 0.19,-1.72 -0.17,-0.71 -2.4,-1.82 -1.94,0.12 -0.4,-0.79 0.51,-1.23 -1.09,-3.65 -0.63,-0.85 -0.93,-0.27 -0.19,-1.22 -0.02,-1.52 0.95,-0.37 0.79,-0.07 0.55,0.63 0.28,2.05 0.64,0.46 -0.68,1.79 0.45,1.93 1.61,2.09 1.76,-0.18 1.13,0.3 0.6,0.5 1.32,1.83 0.81,0.38 2.83,-0.11 0.36,-1.39 0.02,-1.07 -0.47,-0.78 -1.81,-0.31 -1.13,-1.38 h -1.25 l -2.58,1.06 -0.94,-0.9 -0.47,-1.03 -0.88,-1.15 0.28,-1.68 1.4,-1.65 0.91,-0.73 -0.44,-0.81 -1.41,-0.85 -2.77,-0.21 0.04,-0.67 0.19,-0.69 -1.43,1.07 -1.03,-0.58 -1.53,-0.25 -2.95,-2.08 -0.76,-1.79 -0.15,-1.33 0.04,-3.52 -0.53,-2.36 -5.56,-9.18 -2.89,-2.78 -1.04,-2.45 -0.87,-0.79 -0.91,-0.5 -1.05,-1.02 1.08,-0.51 0.66,-0.08 -0.85,0.62 0.39,0.35 0.87,-0.24 0.56,-0.44 1.3,-2.19 1.69,-3.41 0.28,-1.47 3.98,1.52 2.78,0.56 0.99,-0.06 3.58,0.43 1,-0.15 1.99,-0.76 2.53,-1.64 2.43,-2.41 0.47,-0.7 0.05,0.23 0.18,-0.08 0.47,-1.04 0.91,-2.51 1.46,-2.21 4.89,-4.65 2.15,-1.8 0.78,-0.87 0.73,-0.6 0.21,0.8 0.13,0.25 0.02,0.36 -0.36,0.07 -0.71,0.58 -0.86,0.29 -0.24,0.2 0.45,0.06 1.43,-0.19 0.89,-0.45 3.91,-0.27 2.43,-1.46 0.18,-0.41 3.48,-1.74 0.38,0.19 0.39,0.4 -1.18,1.42 0.47,0.55 -0.95,1.8 1.05,0.28 0.03,0.94 0.23,-0.75 0.24,-1.09 0.33,-1.05 0.33,-0.7 0.66,0.5 1.85,-0.42 -2,-0.56 -0.8,-2.02 -0.67,-0.17 2.83,-2.04 2.39,-1.09 0.45,0.13 0.16,0.34 -0.06,0.48 -0.51,0.21 -0.56,0.45 0.09,0.53 0.28,0.14 1.07,-0.18 0.55,-0.4 2.08,0.5 0.69,-0.22 0.23,-0.32 2.72,0.5 0.55,-0.15 1.98,-1.03 1.9,-1.36 0.9,-0.77 1.69,-2.1 1.35,-1.32 2.02,-1.19 0.38,0.27 -0.62,0.2 -0.51,0.57 0.37,0.96 3.31,2.46 0.9,0.27 0.17,1.13 -0.49,0.96 -1.15,0.96 -2.13,0.8 0.5,0.55 0.19,1.1 0.54,0.23 0.99,-0.22 0.84,-0.5 1.86,-1.8 0.67,-1.07 0.4,-0.23 1.19,0.5 0.6,0.72 0.62,1.19 -0.47,0.96 -0.43,0.52 0.91,0.97 1.13,0.36 1,0.82 1.77,-1.05 1.26,-0.08 1.14,0.23 1.6,-0.48 2.37,1.36 0.68,-0.16 0.99,0.32 0.99,0.74 0.29,0.68 -1.35,1.15 -0.39,1.34 0.32,0.63 0.72,0.21 -0.02,0.81 0.43,0.26 2.31,0.27 -0.23,0.35 -0.18,0.44 -0.86,0.91 4.04,1.14 0.63,-0.49 0.88,-0.11 1.91,-0.54 0.64,0.42 0.7,0.89 0.72,0.26 0.71,-0.08 1.75,-0.94 1.87,0.16 0.72,0.46 0.83,-0.07 2.3,1.56 0.88,0.25 1.03,1.81 0.62,0.11 0.78,-0.64 0.61,0.08 0.53,0.74 0.96,0.31 0.35,1.12 0.46,0.44 3.65,1.14 1.88,-0.21 2.68,0.31 1.26,0.61 1.37,0.04 2.1,2.03 1.17,0.37 0.2,0.45 3.35,0.67 1.24,-0.9 2.08,-0.14 1.9,-0.72 1.05,0.06 1.21,0.26 0.47,-0.08 0.35,-0.34 2.92,1.54 1.61,1.68 0.69,1.21 3.47,1.81 1,0.98 0.67,1.06 0.41,0.12 0.3,-0.3 1.24,0.12 z m -163.06,31.02 -0.27,0.01 0.09,-0.23 0.91,-0.41 1.55,-0.38 -0.1,0.16 -0.89,0.39 z m -47.62,27.57 -0.03,0.4 0.71,0.2 0.91,0.51 0.94,0.74 1.1,0.26 1.73,-0.63 h 0.9 l 0.86,0.13 0.77,0.58 0.64,0.89 0.2,0.46 0.05,0.7 -0.09,0.8 0.07,0.62 1.36,1.21 0.93,0.62 0.12,0.44 0.05,0.57 0.72,0.67 0.93,0.17 0.45,0.3 1.5,0.53 1.69,1.18 -0.79,1.34 -0.82,0.43 -1.65,-0.79 -1.78,-0.38 -0.97,0.49 -0.92,0.73 -0.4,0.88 -0.49,0.3 -0.42,0.06 -0.12,-0.6 0.15,-1.67 -0.13,-0.52 -0.21,-0.37 -0.67,-0.78 -0.74,-0.61 -0.48,-0.21 -0.17,-0.66 0.08,-0.84 -0.2,-0.52 -0.47,-0.8 -0.52,-0.69 -1.78,-1.73 -0.65,-0.38 -0.75,-0.16 -0.92,0.16 -0.98,0.38 -0.93,0.21 -0.82,-0.18 -0.64,-0.56 -0.46,-0.9 -0.18,-0.58 0.1,-0.84 0.3,-0.77 0.38,-0.71 1.05,-1.67 0.79,-0.11 z m 156.05,80.34 -0.96,0.03 -0.41,-0.24 -0.04,-0.22 0.26,-0.75 0.02,-0.33 0.49,-0.08 0.51,0.42 0.12,0.39 z m -182.25,-37.47 1.16,1.52 1.01,0.28 0.48,1.08 0.08,0.76 -1,-0.9 -1.7,-0.62 -1.53,-2.79 -0.64,-0.75 0.6,-1 1.08,-0.21 -0.11,1.62 z m 150.84,40.88 h -0.37 l 0.59,-0.68 0.54,-1.41 0.42,0.27 0.05,0.28 -0.96,1.39 z m 32.91,2.51 -0.04,0.4 -0.27,0.36 0.16,0.73 -0.51,1.17 -0.22,0.76 -0.26,0.46 -0.23,0.17 -0.2,-0.13 -0.02,-0.27 0.16,-0.41 -0.5,-0.03 -0.05,-1.07 0.31,-0.31 0.14,-0.44 0.06,-0.3 0.45,-1.32 0.13,-0.08 0.01,0.32 0.1,0.1 0.19,-0.11 0.31,-0.58 0.11,-0.06 z m 9.51,0.84 0.13,0.43 1.45,0.01 0.41,0.11 0.15,0.21 -0.22,0.27 -0.59,0.33 -1.69,0.53 -1.4,0.75 -0.17,-0.09 -0.17,-0.96 -0.21,-0.4 -0.11,-0.54 0.02,-0.2 0.27,-0.35 0.53,-0.5 0.36,-0.17 z m 9.49,2.41 -0.27,0.36 -0.65,-0.17 -0.34,-0.26 1.24,-0.9 0.18,0.21 z m -155.95,-29.26 0.44,0.93 0.34,0.15 1.18,0.12 0.36,0.28 0.3,0.43 0.1,0.55 -0.21,0.85 -0.41,0.69 -0.26,1.07 -0.18,0.44 0.42,0.78 -0.06,0.87 -0.16,0.9 -1.39,-0.1 -1.31,-0.35 -1.3,0.25 -0.36,0.36 -0.02,0.7 -0.36,0.07 -0.24,-0.23 -0.36,-0.76 -0.51,-0.47 -1.94,-1.08 -2.06,-2.55 -1,-0.71 -0.73,-1.63 -0.51,-1.94 0.75,-0.05 0.71,0.08 2.93,1.19 0.74,-1.04 0.48,-0.17 1.06,-0.03 1.09,-0.37 0.39,0.14 0.33,0.37 0.96,-0.13 0.47,0.05 z m 135.45,35.63 -0.86,0.14 -0.16,-0.47 0.55,-1.07 0.41,-0.6 0.28,-0.13 1.08,-1.17 1.15,-0.82 1.1,-1.25 1.16,-1.83 0.25,-0.7 0.47,-0.03 0.71,0.54 0.41,0.7 -0.26,0.51 -2.75,2.5 -0.24,0.34 -0.31,0.9 -0.24,0.3 -0.35,0.12 -0.28,0.38 -0.21,0.65 -0.34,0.32 -0.47,-0.02 -0.34,0.15 -0.21,0.32 z m -1.81,-4.03 -0.44,0.43 -1.47,-0.43 0.4,-0.88 1.2,-0.46 1.16,1.02 z m 26.02,5.81 -0.37,0.07 0.61,-0.96 0.8,-1.06 0.73,-0.65 0.92,-0.24 -0.13,0.5 -1.23,0.86 z m -128.11,-0.35 -0.62,0.1 -0.57,-0.26 -0.11,-1.56 0.37,0.04 0.98,-0.77 1.84,-0.37 0.43,0.01 z m 64.86,14.08 -0.24,0.06 -0.5,-0.54 -0.3,-0.54 0.3,-0.33 1.22,-0.61 0.53,0.06 0.2,0.16 0.05,0.25 -0.09,0.35 -0.3,0.41 z m 0.26,1.93 0.27,0.16 0.42,-0.84 h 0.21 l 0.82,0.88 0.59,-0.08 0.23,0.97 0.32,0.13 0.32,-0.07 0.17,0.09 -0.2,0.96 -0.82,0.89 -0.35,0.2 -0.41,-0.32 -0.15,-0.12 -0.23,-0.48 -0.14,-0.58 -0.13,-0.03 -0.61,0.57 -0.03,0.32 0.15,0.51 -0.08,0.29 -0.58,0.06 -0.54,-0.16 -0.74,0.32 -0.12,-0.29 0.01,-0.75 -0.22,0.05 -0.45,0.85 -0.43,0.52 -0.71,0.38 -0.17,0.21 -0.47,-0.04 -0.73,0.19 -0.42,-0.11 -2.39,-1.37 -0.54,-0.45 2.43,-1.92 1.23,-0.7 0.62,0.14 0.59,0.37 0.34,0.01 0.18,-0.99 -0.48,-0.83 0.07,-0.31 1.38,-0.31 0.47,0.14 0.5,0.34 0.45,0.5 z m 139.89,9.71 2.03,0.24 1.47,-0.16 1.47,2.16 0.94,1.76 0.56,1.24 0.35,1.2 0.44,1.16 -0.02,0.17 -0.83,-0.75 -0.66,-1.58 -0.32,-0.61 -0.3,-0.27 -0.33,-0.58 -0.66,-1.51 -0.05,-0.43 -0.28,-0.39 -0.31,-0.15 -0.33,0.09 -0.11,0.16 0.11,1.06 0.33,1.17 1.61,2.5 1.06,1.41 0.22,0.47 0.21,1.33 -0.39,0.63 0.59,1.2 v 0.24 l -0.1,0.24 -1.38,0.63 -1.17,2.35 -1.35,1.41 -0.64,0.25 -0.33,-0.21 -0.32,-0.5 -0.21,-0.68 -0.1,-0.85 0.33,-0.56 0.56,-2.84 -0.03,-0.92 -0.93,-1.24 -0.57,-1.02 -0.35,-1.45 -0.66,-3.85 -0.28,-1.23 -0.36,-1.02 -0.43,-0.81 -0.34,-0.9 -0.25,-0.98 0.06,-0.39 0.71,0.49 0.89,1.39 z m 2.86,-1.16 -0.04,0.38 -1.08,0.02 -1.12,-0.49 -0.57,-0.69 0.09,-0.33 1,-0.35 0.99,0.63 z m -11.23,0.28 1.19,1.42 0.02,0.34 -0.19,1.01 -0.61,0.31 0.19,0.39 0.47,0.28 0.32,-0.26 1.14,-1.46 0.36,-0.31 0.22,-0.04 1.48,0.36 1.31,0.61 0.4,0.52 0.26,0.93 -0.25,2.04 -1.04,0.4 -0.5,-0.01 -0.54,-0.27 -0.83,0.74 0.73,0.51 2.17,0.03 0.71,1.11 0.23,0.87 -0.39,1.63 -1.25,-0.39 -1.13,-0.89 -2.28,-1.23 -0.53,-0.04 -0.35,0.25 -0.07,0.81 0.09,1.74 -0.56,0.92 -1.78,-0.33 -0.74,-1.29 -0.71,-2.07 -2.49,-2.39 -0.67,-0.48 -0.91,-1.46 0.31,-1.19 0.08,-0.68 0.45,-0.19 0.66,-0.54 0.34,-1.15 0.63,0.9 0.84,0.86 -0.02,-0.83 0.36,-0.68 h 0.79 l 0.37,-0.15 0.5,-0.64 0.74,-0.35 z m -136.48,-1.43 -0.07,0.82 0.34,-0.05 1.34,-0.65 0.67,-0.15 0.83,0.08 0.6,0.48 0.09,0.31 -0.11,0.34 -0.63,0.63 -0.05,0.46 0.44,0.93 1.32,0.66 0.13,0.28 -0.05,0.3 -1.16,1.26 -0.4,0.28 -0.26,0.04 -1.7,-0.51 -1.52,-0.7 -0.63,-0.18 -0.25,0.11 -0.52,0.36 0.3,0.18 1.38,0.32 0.4,0.7 0.15,0.49 0.03,0.52 -0.31,0.17 -0.62,0.06 -0.72,-0.11 -0.98,0.44 -0.59,0.58 -1.81,-0.11 -1.49,0.66 -0.55,0.35 -0.25,0.49 -0.57,0.29 -1.22,0.19 0.64,0.45 0.06,0.3 -0.05,0.39 -0.15,0.32 -1.16,1.36 -1.94,0.95 -0.43,-0.13 -0.16,-0.18 -0.12,-0.26 0.03,-0.24 2.64,-2.11 -0.07,-0.14 -0.59,-0.18 -0.85,-0.84 -0.75,0.33 -0.15,-0.04 0.28,-0.55 0.56,-0.62 -0.04,-0.21 -0.21,-0.21 -0.54,-0.2 -0.87,-0.18 -0.67,0.06 -0.48,0.29 -0.06,0.15 0.9,0.11 0.21,0.23 0.18,0.39 0.08,0.42 -0.02,0.46 -0.29,0.58 -0.55,0.69 -0.6,-0.24 -0.99,-1.91 -0.14,-2.58 -0.76,-2.09 0.03,-0.46 0.51,-1.12 1.38,-1.48 1.25,-0.26 0.95,-0.56 0.84,-0.08 0.5,0.1 0.63,0.42 0.17,0.69 -0.21,0.27 0.04,0.17 0.42,0.46 0.3,1.43 0.41,1.29 0.33,0.55 0.48,0.38 -0.4,-1 -0.14,-1.18 0.2,-2.27 -0.06,-0.62 0.33,-0.11 0.85,0.23 0.03,-0.34 -0.79,-0.91 -0.46,-0.72 -0.13,-0.53 0.08,-0.43 0.6,-0.55 0.31,-0.13 0.3,-0.03 0.56,0.23 0.23,0.24 0.51,1.55 0.28,0.5 0.29,0.05 0.31,-0.19 0.32,-0.44 0.3,-0.25 0.28,-0.05 0.79,0.34 0.29,-0.03 0.19,-0.34 0.09,-0.64 0.24,-0.2 0.12,-0.46 -0.34,-0.77 0.55,-0.13 1.63,0.79 0.64,0.69 z m -2.65,-0.81 -0.28,0.38 -0.19,-0.14 -0.36,-0.55 -0.79,-0.84 -0.33,-0.55 0.01,-0.21 0.34,-0.18 0.97,0.73 0.37,0.59 z m 145.77,15.34 0.76,1.6 0.56,1.24 0.52,1.5 0.9,3.11 0.41,1.17 0.14,0.65 0.17,1.7 -0.09,0.37 -0.21,0.35 -0.02,0.49 0.27,1.29 0.11,1.97 -0.14,1.12 -0.22,0.18 -0.58,-0.34 -0.49,-0.58 -0.37,-0.61 -0.93,-1.94 -0.29,-0.91 -0.05,-0.66 0.11,-0.49 0.26,-0.31 0.44,-0.82 -0.07,-0.13 -0.35,0.2 -0.73,0.14 -0.68,-0.61 -0.52,-0.31 0.05,-1.15 -0.15,-0.32 -0.98,0.4 -0.39,-0.3 -0.1,-0.43 -0.01,-0.64 0.17,-0.57 0.88,-1.46 -0.11,-0.26 -0.46,-0.04 -0.62,-0.46 -0.34,-1.58 -0.68,-0.88 -0.38,0.1 -0.76,2.6 -0.41,0.58 -1.21,0.41 0.22,-0.72 0.09,-0.64 -0.5,-1.92 -0.04,-0.75 0.27,-0.56 0.85,-0.26 0.44,-0.34 0.33,-0.55 0.07,-0.52 0.61,-1.4 0.3,-0.28 0.82,-0.02 1.8,1.44 0.54,0.2 z m -279.87,-39.05 -1.02,0.38 -0.63,-0.5 -0.04,-0.56 0.07,-0.21 2.25,0.19 z m 134.3,34.7 -1.09,0.32 -0.18,-0.05 -0.78,0.86 -0.55,0.34 -0.52,-0.86 0.35,-1.15 0.68,-0.7 2.76,0.69 0.18,0.25 -0.02,0.19 -0.23,0.12 z m 158.81,8.81 0.57,0.43 0.26,-0.51 0.55,-0.01 1.04,0.37 0.65,0.61 0.39,0.72 0.06,0.44 -0.03,1.01 0.15,1.03 -0.01,0.54 -0.11,0.45 -0.21,0.37 -0.25,0.06 -0.86,-0.87 -1.02,-1.61 -0.72,-0.46 -0.02,0.17 0.22,0.47 0.62,0.86 0.14,0.53 0.44,0.63 0.21,0.49 0.15,0.65 0.03,0.57 -0.08,0.5 -0.16,0.33 -0.25,0.16 -1.4,-0.05 -0.81,0.38 -0.98,-0.12 -0.25,-0.28 -0.18,-0.48 -0.15,-1.17 -0.35,-1.67 -0.02,-1.3 -0.69,-1.14 -0.58,-0.68 -0.8,-0.59 -0.54,-0.6 0.11,-0.51 0.76,-0.42 1.29,0.01 z m -4.92,2.66 0.59,1 0.76,-0.13 0.48,0.75 0.39,1.14 -0.19,0.76 -0.35,-0.15 -0.35,0.45 -0.15,1.45 0.19,1.43 -0.03,1.43 -0.36,1.48 -0.04,0.98 -0.16,0.3 -0.19,0.11 -0.26,-0.25 -0.37,-0.19 -0.41,0.85 -0.55,0.04 -0.56,-1.84 0.24,-3.13 0.88,-0.68 -0.59,-0.82 -1.2,-0.92 0.07,-0.56 -0.95,-1.54 -0.07,-0.38 0.07,-1.33 0.74,-1.22 1.05,-0.27 0.77,0.46 0.44,0.41 z m 10.44,4.09 -0.07,0.22 -1.04,0.05 -0.39,-0.15 -0.18,-0.62 0.06,-0.59 0.21,-0.47 0.23,-0.89 0.13,-1.47 1.64,1.52 0.52,0.69 0.32,0.87 -0.52,0.37 -0.64,0.21 z m -298.24,-41.46 0.92,0.63 0.63,0.02 0.45,0.32 -0.03,0.36 -1.12,0.42 -0.34,-0.17 -0.73,-1.23 z m 122.8,33.31 -0.4,-0.03 -0.54,-0.49 0.16,-0.45 0.95,-0.42 0.84,0.23 0.01,0.32 -0.1,0.34 -0.1,0.19 -0.31,0.17 z m -4.03,0.51 -0.61,0.25 -0.16,-0.15 0.02,-0.29 0.21,-0.43 0.33,-0.41 1,-0.72 0.96,-0.43 0.43,0.11 0.09,0.39 -0.66,0.67 z m 185.14,13.4 0.02,2.46 -0.34,-0.11 -0.31,0.02 -0.61,0.4 -0.68,-0.1 -0.33,-0.25 -0.14,-0.31 0.07,-0.74 -0.4,-0.38 -1.26,-0.06 -0.48,-0.14 -0.31,-0.75 -0.13,-1 0.17,-0.39 0.61,-0.31 0.4,-1.26 0.26,-0.18 0.85,-2.5 0.53,0.13 1.02,1.4 1.3,2.04 z m -5.65,-1.63 -0.42,0.08 -0.51,-0.19 -1.26,-1.12 -0.05,-0.35 0.14,-0.41 0.62,-0.78 0.26,-0.2 1.61,-0.03 0.53,0.16 0.14,0.33 v 0.35 l -0.14,0.37 -0.01,0.37 0.12,0.38 -0.16,0.4 z m -6.55,-0.93 1.58,0.22 1.43,-0.12 0.53,0.58 0.37,0.62 0.23,0.59 0.09,0.56 -0.01,0.4 -0.15,0.44 0.05,0.14 2.9,1.21 1.43,1.38 0.59,0.74 0.35,0.63 0.68,1.59 1.32,1.81 0.66,0.53 0.39,0.54 -0.2,0.04 -0.86,-0.35 -1.89,-1.14 -0.14,0.06 -0.11,0.7 -0.23,0.62 -0.38,0.46 0.34,0.1 1.43,-0.38 1.31,1.15 0.49,0.19 0.53,0.85 0.04,0.34 -0.22,0.68 -0.18,0.28 0.08,0.18 0.35,0.07 1.33,-0.29 0.27,0.3 v 2.58 l 0.27,0.93 0.03,0.43 -0.11,0.58 0.03,0.48 0.16,0.48 0.05,0.44 -0.25,1.17 -0.35,0.22 -0.59,0.05 -0.49,-0.29 -0.73,-0.94 -0.75,-1.49 -0.26,-0.2 -0.85,-0.17 -0.16,-0.17 -0.53,0.01 -0.42,-0.6 -0.02,-0.83 -0.38,-0.82 0.01,-0.38 -0.37,-0.13 -0.29,0.26 0.22,0.82 -0.13,0.66 -0.68,-0.22 -1.24,-1.98 -1.35,-1.57 -0.51,-0.36 0.1,-0.49 0.59,-0.3 0.5,-0.01 0.08,-0.29 -1.14,-1.53 v -0.46 l 0.32,-0.83 -0.49,-0.31 -1.27,0.34 -0.46,-0.14 -0.41,-0.62 -0.25,-0.55 -1.12,-0.03 -0.42,0.1 -0.78,-0.8 -0.36,-0.52 0.11,-0.28 0.64,-0.52 0.39,0.04 0.78,0.47 0.29,-0.04 0.7,-0.73 0.07,-0.62 0.52,-0.54 -0.12,-0.53 -0.37,-0.89 -0.69,-0.21 -1.35,0.63 -1.15,0.91 -0.5,-0.3 -0.14,-0.51 1.21,-1.47 0.52,-0.8 -0.14,-0.45 -0.45,-0.56 -0.13,-1.47 z m 22.37,10.9 -0.15,1.64 -0.43,1.7 -0.8,0.96 -0.64,-0.14 -0.52,-0.67 -0.42,0.08 -0.46,-0.11 -0.3,-0.57 0.17,-0.79 -0.26,-0.58 -0.18,0.54 -0.36,0.51 -0.95,0.7 -0.59,1.24 -0.26,0.8 -0.47,-0.81 -0.42,-1.97 -0.1,-0.84 0.62,-1.33 0.83,-1.29 -0.11,-3.64 2.79,-2.07 0.28,0.07 1.08,1.27 1.19,1.81 0.34,0.83 0.14,1.49 z m -204.09,-14.06 -0.4,0.4 -0.61,-0.15 -0.32,-0.21 -0.04,-0.42 1.18,-1.04 0.25,-0.12 0.16,0.08 -0.02,0.51 z m 184.62,14.76 0.21,0.4 0.03,0.26 -1.15,1.05 -0.01,0.2 -0.25,0.62 -0.24,0.24 -0.41,0.68 -0.82,0.76 v -2.13 l -0.93,-1.18 0.82,-0.67 0.57,0.14 0.94,0.01 0.88,-0.6 z m -228.01,-16.31 0.12,0.04 0.28,-0.05 0.72,-0.68 h 0.18 l -0.06,0.25 -0.44,0.74 0.17,1.17 0.27,0.61 -0.08,0.17 -1.08,0.13 -0.7,-0.45 h -0.42 l -0.45,0.28 -0.15,-0.47 0.31,-2.01 0.14,-0.33 0.58,-0.58 0.61,-0.18 0.21,0.15 0.13,0.32 -0.02,0.3 z m 2.98,0.36 -0.38,1.1 -0.95,-0.99 -0.21,-0.43 0.26,-0.22 1.08,0.19 z m 229.39,25.24 0.22,0.18 0.2,-0.15 0.31,-0.55 0.61,0.06 0.45,0.14 0.28,0.2 -0.09,0.77 -0.02,1.24 -0.22,0.46 -0.2,0.63 -0.89,-0.3 -0.75,-0.74 -1.1,-1.28 -0.63,-0.94 -0.07,-0.41 -0.38,-0.28 -0.8,-1.64 -0.48,-1.3 -0.63,-0.11 -0.81,-0.32 -0.35,-0.71 0.17,-0.65 1.09,-0.39 1.78,1.54 0.3,0.68 0.66,0.78 0.19,1.13 0.34,0.43 z m -226.35,-21.37 -0.57,0.2 -0.25,0.36 -0.42,0.08 -0.4,0.25 -1.43,1.22 -0.54,0.16 0.82,-1.13 0.18,-0.38 0.07,-0.26 0.06,-0.99 0.3,0.12 0.31,-0.14 0.72,-0.72 0.49,0.03 0.73,-0.88 0.29,-0.02 0.1,0.17 -0.36,0.55 0.35,0.67 -0.25,0.51 z m 238.97,17.65 1.03,1.83 0.1,0.67 -0.8,0.31 -0.65,-0.04 -0.35,-0.19 -0.11,-0.3 0.13,-0.98 -0.49,-0.54 -0.51,-0.15 -0.41,0.37 -0.1,-0.95 0.27,-0.71 -0.26,-0.92 -0.06,-0.7 0.09,-0.23 0.44,-0.02 0.97,0.65 z m -235.96,-17.3 -0.3,1.13 -0.16,0.15 -0.15,-0.36 -0.54,0.23 -0.2,-0.31 0.2,-0.37 0.04,-0.32 0.35,0.05 0.21,-0.55 v -0.25 l 0.29,-0.47 0.27,-0.06 z m 0.68,2.86 -0.28,0.01 -0.19,-0.21 -0.12,-0.88 0.05,-0.35 0.53,0.39 0.09,0.64 z m -33.71,-8.55 0.15,2.56 0.22,0.55 0.44,0.39 0.65,0.45 0.33,0.46 0.23,0.63 -0.02,0.25 -2,-1.55 -1.79,0.99 -0.48,0.06 -4.04,-1.05 -0.87,0.03 -0.65,0.3 -1.27,0.99 -0.6,0.35 -0.58,0.15 -1.14,0.02 -1.24,-0.41 -0.61,-0.35 -0.18,-0.7 0.03,-1.26 0.1,-0.33 0.29,-0.52 1.34,-0.45 0.49,-0.3 2.2,-2.25 0.52,-0.25 0.47,0.04 1.17,0.53 1.27,-0.48 2.59,-0.56 h 0.53 l 1.63,0.42 0.39,0.31 0.25,0.43 z m 9.12,4.47 -0.21,0.02 -0.45,-0.58 -0.12,-0.38 -0.02,-0.54 1.34,-0.43 0.24,0.05 0.11,0.46 -0.05,0.33 -0.56,0.84 z m -3.76,5.77 -0.8,0.12 -0.67,-0.52 -0.49,-0.77 0.12,-0.73 1.32,0.84 0.25,0.3 z m -25.85,-3.23 h -0.39 l -0.04,-0.17 0.14,-0.63 0.02,-1.06 0.63,-0.2 0.35,0.01 0.09,0.19 0.16,0.84 0.32,0.31 0.23,0.24 -0.56,0.08 z m -2.58,0.23 -0.39,0.15 -0.27,-0.02 -0.15,-0.2 -0.9,-0.09 -0.14,-0.15 -0.13,-0.95 0.11,-0.44 0.25,-0.29 0.48,-0.19 0.7,-0.09 0.59,0.24 0.82,1.09 0.36,0.6 0.01,0.31 -0.45,0.15 z m -7.1,0.42 0.15,0.77 0.75,-0.23 0.63,-0.44 0.58,-0.63 0.32,-0.22 0.18,0.49 0.7,0.8 -0.98,0.6 -1.78,0.8 -0.73,0.68 -0.14,0.35 1.44,0.15 0.37,0.16 0.16,0.36 -0.48,0.22 -0.83,0.07 -0.83,0.39 -1.81,0.55 -0.83,0.67 -0.77,0.11 -0.93,-0.21 -1.77,0.04 -1.14,0.21 -0.33,0.2 -0.35,0.03 -0.36,-0.13 -0.47,0.1 -0.57,0.33 -0.42,0.1 -0.59,-0.14 -0.36,0.09 -0.34,-0.12 -0.74,-0.86 -0.13,-0.4 1.03,-0.39 0.66,-0.03 0.93,0.19 1.08,-0.32 2.07,-0.22 0.7,-0.26 0.85,-1.41 0.5,-0.13 0.41,-0.54 1,0.33 0.25,0.83 0.13,0.14 0.1,-0.04 0.22,-0.53 0.64,-0.22 -0.21,-0.37 -0.82,-0.65 -0.63,-0.38 -0.45,-0.12 -0.3,-0.31 -0.15,-0.51 v -0.45 l 0.15,-0.4 0.37,-0.39 0.59,-0.37 0.58,-0.13 1.13,0.13 1.05,-0.04 0.52,0.1 0.33,0.26 z m 2.58,3.51 h -0.13 l -0.11,-0.41 0.09,-0.32 0.21,-0.19 0.55,-0.42 0.33,-0.11 0.37,0.01 0.05,0.17 -0.49,0.54 -0.5,0.31 z m -16.19,0.65 -3.03,0.64 -1.18,0.81 -0.98,0.83 -0.69,0.4 -0.39,-0.02 -0.5,0.14 -1.08,0.44 -0.38,-0.03 -3.28,0.77 -0.2,-0.04 0.28,-0.4 1.04,-0.34 0.73,-0.39 0.93,-0.74 0.45,-0.23 0.27,-0.44 0.37,-0.94 0.27,-0.31 0.82,-0.53 0.55,-0.25 0.6,0.05 1.08,0.5 0.59,-0.21 0.24,-0.23 -0.2,-0.35 0.08,-0.46 0.33,-0.74 0.55,-0.57 0.77,-0.4 0.93,-0.2 h 1.1 l 0.73,0.22 1.07,1.12 0.09,0.38 -0.55,0.59 -0.4,0.59 z m -16.65,2.01 -0.33,0.51 -0.19,0.16 -1.18,-0.74 -0.89,-0.2 0.02,-0.36 0.18,-0.26 1.5,0.03 0.55,0.19 0.28,0.36 z m -9.94,0.56 -0.69,0.24 -0.1,-0.22 0.1,-0.57 0.45,-0.31 1.23,-0.58 0.55,0.39 0.11,0.31 -0.14,0.34 -0.39,0.37 -0.37,0.12 -0.36,-0.13 z m -35.53,-5.25 -4.65,-1.29 -0.51,-0.66 0.76,0.07 0.84,0.21 1.92,0.06 2.27,0.3 h 1.86 l 1.56,0.13 0.68,-0.55 -1.07,-0.86 -0.12,-0.38 0.71,-0.1 0.68,-0.29 1.36,-0.11 0.73,1.12 0.03,0.57 -0.32,0.53 -0.44,0.51 -1.02,-0.06 -0.26,0.25 0.13,1.07 -2.15,0.02 z m 19.58,4.09 -0.69,-0.04 -0.59,-0.46 0.59,-0.59 0.47,-0.26 0.78,-0.23 0.64,0.48 0.35,0.81 z m -9.74,-1.69 1.41,1.19 2.05,0.73 0.69,0.42 -0.05,0.16 -1.38,-0.28 -0.41,-0.25 -1.25,-0.14 -0.79,-0.25 -1.64,-0.98 -1.43,-0.35 -0.33,-0.22 -0.33,-0.42 -0.32,-0.62 0.08,-0.28 0.49,0.07 1.05,0.84 0.2,-0.14 1.15,0.06 z m -21.08,-6.62 -0.36,0.31 -0.62,-0.76 -0.14,-0.46 0.09,-0.37 0.48,-0.47 0.64,0.27 0.28,0.4 0.17,0.59 -0.01,0.32 z m -5.47,-0.23 -0.15,0.46 0.97,0.35 0.2,0.36 -0.38,0.87 -0.23,0.19 h -0.17 l -0.26,-0.34 -0.58,0.28 -2.23,0.32 -0.28,-0.85 -1.45,0.5 1.81,-2.15 0.99,-0.01 0.43,-0.15 0.25,-0.76 0.91,-1.04 0.81,0.42 0.17,0.67 -0.16,0.32 z m -5.43,-0.02 -0.31,0.07 -0.49,-0.06 -1.18,-0.71 -0.78,-0.29 -0.89,-0.29 -0.74,-0.05 0.02,-0.38 0.14,-0.25 3.05,0.5 0.8,-0.1 0.6,-0.31 0.76,-0.74 0.41,-0.14 0.17,0.09 0.23,0.53 -0.34,0.41 -0.52,0.25 -0.28,0.33 z m -6.39,-1.8 -0.38,0.36 -0.19,-0.1 -0.76,-1.22 -0.05,-0.32 0.8,-0.05 0.31,-0.18 0.08,-0.38 -0.26,-0.7 -0.6,-1.02 -0.13,-0.6 0.34,-0.18 0.5,0.02 1.34,0.57 0.37,1.09 0.42,0.51 1.19,0.75 -0.8,0.03 -0.51,0.15 -1.01,1 z m 16.31,4.62 -0.82,-0.01 -0.66,-0.98 0.38,-0.65 0.76,1 z m -2.41,-0.71 -0.85,0.55 -0.23,-0.52 0.32,-1.13 0.41,-0.15 0.47,1.12 z"
       inkscape:connector-curvature="0"
       style="fill:#cccccc;fill-opacity:1;stroke:#ffffff;stroke-width:0.5;stroke-opacity:1" />
  </g>
</svg>
