<?xml version="1.0" standalone="no"?>
<!DOCTYPE svg PUBLIC "-//W3C//DTD SVG 1.1//EN" "http://www.w3.org/Graphics/SVG/1.1/DTD/svg11.dtd" >
<svg>
<metadata>
Created by FontForge 20120731 at Fri Aug 21 21:44:00 2020
 By www
(c) 2011 Klim Type Foundry. All rights reserved.
</metadata>
<defs>
<font id="UntitledSans-Bold" horiz-adv-x="564" >
  <font-face 
    font-family="Copyright Klim Type Foundry"
    font-weight="700"
    font-stretch="normal"
    units-per-em="1000"
    panose-1="2 11 8 3 3 2 2 6 2 3"
    ascent="800"
    descent="-200"
    x-height="512"
    cap-height="714"
    bbox="-216 -240 1084 991"
    underline-thickness="100"
    underline-position="-50"
    unicode-range="U+000D-F6C3"
  />
<missing-glyph horiz-adv-x="1178" 
d="M959 469q8 0 15.5 1t17.5 3v-55q-13 -4 -24.5 -6t-28.5 -2q-42 0 -63 21t-21 63v125h-36v52h36v65h74v-65h57v-52h-57v-116q0 -17 7.5 -25.5t22.5 -8.5zM245 671h75v-40q10 22 31 34.5t48 12.5q45 0 70 -26t25 -73v-165h-75v148q0 29 -12 44t-35 15q-25 0 -38.5 -17.5
t-13.5 -50.5v-139h-75v257zM667 409q-61 0 -97.5 36.5t-36.5 98.5q0 61 36.5 97.5t97.5 36.5q60 0 96.5 -36.5t36.5 -97.5t-36.5 -98t-96.5 -37zM667 624q-29 0 -44.5 -20.5t-15.5 -59.5q0 -40 15.5 -61t44.5 -21q27 0 42.5 21.5t15.5 60.5q0 38 -15 59t-43 21zM185 414h-85
v85h85v-85zM992 358v-55q-10 2 -17.5 3t-15.5 1q-15 0 -22.5 -8.5t-7.5 -25.5v-15h57v-52h-57v-206h-74v206h-36v52h36v24q0 42 21 63t63 21q17 0 28.5 -2t24.5 -6zM494 0h-74v41q-10 -21 -31.5 -34t-48.5 -13q-51 0 -82 37t-31 98q0 60 31 97.5t82 37.5q25 0 46.5 -12.5
t32.5 -33.5v145h75v-363zM722 81h72q-12 -42 -44 -64.5t-81 -22.5q-61 0 -98.5 36.5t-37.5 97.5q0 60 38.5 97.5t97.5 37.5t94 -36t35 -94v-23h-193q4 -31 20 -47t44 -16q21 0 34 8.5t19 25.5zM669 211q-25 0 -41 -14.5t-21 -41.5h118q-1 25 -16 40.5t-40 15.5zM361 47
q28 0 44 20.5t16 56.5v9q0 36 -16 56.5t-44 20.5t-44 -21.5t-16 -59.5t16 -60t44 -22z" />
    <glyph glyph-name="f_idieresis" unicode="f&#xef;" horiz-adv-x="671" 
d="M84 0v395h-67v117h67v30q0 89 63.5 143.5t164.5 54.5q27 0 54.5 -3t51.5 -9v-127q-15 5 -37.5 8t-43.5 3q-41 0 -63.5 -19t-22.5 -55v-26h100v-117h-100v-395h-167zM687 583h-147v145h147v-145zM435 0v512h168v-512h-168z" />
    <glyph glyph-name=".notdef" horiz-adv-x="1178" 
d="M959 469q8 0 15.5 1t17.5 3v-55q-13 -4 -24.5 -6t-28.5 -2q-42 0 -63 21t-21 63v125h-36v52h36v65h74v-65h57v-52h-57v-116q0 -17 7.5 -25.5t22.5 -8.5zM245 671h75v-40q10 22 31 34.5t48 12.5q45 0 70 -26t25 -73v-165h-75v148q0 29 -12 44t-35 15q-25 0 -38.5 -17.5
t-13.5 -50.5v-139h-75v257zM667 409q-61 0 -97.5 36.5t-36.5 98.5q0 61 36.5 97.5t97.5 36.5q60 0 96.5 -36.5t36.5 -97.5t-36.5 -98t-96.5 -37zM667 624q-29 0 -44.5 -20.5t-15.5 -59.5q0 -40 15.5 -61t44.5 -21q27 0 42.5 21.5t15.5 60.5q0 38 -15 59t-43 21zM185 414h-85
v85h85v-85zM992 358v-55q-10 2 -17.5 3t-15.5 1q-15 0 -22.5 -8.5t-7.5 -25.5v-15h57v-52h-57v-206h-74v206h-36v52h36v24q0 42 21 63t63 21q17 0 28.5 -2t24.5 -6zM494 0h-74v41q-10 -21 -31.5 -34t-48.5 -13q-51 0 -82 37t-31 98q0 60 31 97.5t82 37.5q25 0 46.5 -12.5
t32.5 -33.5v145h75v-363zM722 81h72q-12 -42 -44 -64.5t-81 -22.5q-61 0 -98.5 36.5t-37.5 97.5q0 60 38.5 97.5t97.5 37.5t94 -36t35 -94v-23h-193q4 -31 20 -47t44 -16q21 0 34 8.5t19 25.5zM669 211q-25 0 -41 -14.5t-21 -41.5h118q-1 25 -16 40.5t-40 15.5zM361 47
q28 0 44 20.5t16 56.5v9q0 36 -16 56.5t-44 20.5t-44 -21.5t-16 -59.5t16 -60t44 -22z" />
    <glyph glyph-name=".null" horiz-adv-x="0" 
 />
    <glyph glyph-name="nonmarkingreturn" unicode="&#xd;" horiz-adv-x="221" 
 />
    <glyph glyph-name="NULL" horiz-adv-x="0" 
 />
    <glyph glyph-name="NULL" horiz-adv-x="0" 
 />
    <glyph glyph-name="space" unicode=" " horiz-adv-x="205" 
 />
    <glyph glyph-name="exclam" unicode="!" horiz-adv-x="344" 
d="M104 250l-28 464h192l-28 -464h-136zM264 0h-184v177h184v-177z" />
    <glyph glyph-name="quotedbl" unicode="&#x22;" horiz-adv-x="506" 
d="M417 426h-105l-26 310h158zM195 426h-106l-27 310h160z" />
    <glyph glyph-name="numbersign" unicode="#" horiz-adv-x="747" 
d="M468 40h-112l42 168h-127l-42 -168h-113l42 168h-109l23 101h112l27 108h-114l23 102h117l42 168h113l-42 -168h127l42 168h112l-42 -168h109l-22 -102h-113l-27 -108h115l-23 -101h-118zM324 417l-27 -108h127l27 108h-127z" />
    <glyph glyph-name="dollar" unicode="$" horiz-adv-x="683" 
d="M647 210q0 -93 -71.5 -152.5t-188.5 -67.5v-100h-85v101q-121 12 -193 71.5t-81 156.5h159q3 -43 32.5 -69.5t82.5 -35.5v180l-55 9q-98 17 -147.5 67t-49.5 133q0 92 69 151.5t183 68.5v95h85v-97q109 -10 173.5 -65.5t74.5 -147.5h-154q-4 35 -28 57.5t-66 30.5v-172
l69 -12q96 -17 143.5 -67.5t47.5 -134.5zM205 517q0 -33 20 -50t77 -27v159q-47 -6 -72 -27.5t-25 -54.5zM492 198q0 36 -23.5 54t-81.5 27v-166q51 5 78 27t27 58z" />
    <glyph glyph-name="percent" unicode="%" horiz-adv-x="859" 
d="M223 383q-71 0 -121.5 50.5t-50.5 121.5q0 70 50.5 120.5t121.5 50.5t121 -50t50 -121t-50 -121.5t-121 -50.5zM135 0l486 714h104l-486 -714h-104zM223 638q-33 0 -56.5 -24.5t-23.5 -58.5q0 -35 23.5 -59t56.5 -24t56.5 24t23.5 59q0 34 -23.5 58.5t-56.5 24.5z
M636 -12q-70 0 -120.5 50.5t-50.5 120.5q0 71 50.5 121.5t120.5 50.5q71 0 121 -50.5t50 -121.5t-50 -121t-121 -50zM636 242q-33 0 -56.5 -24t-23.5 -59q0 -34 23.5 -58.5t56.5 -24.5t57 24.5t24 58.5q0 35 -23.5 59t-57.5 24z" />
    <glyph glyph-name="ampersand" unicode="&#x26;" horiz-adv-x="783" 
d="M780 0h-204l-53 52q-49 -32 -104.5 -48t-114.5 -16q-118 0 -190.5 55t-72.5 146q0 59 33.5 106t106.5 87q-39 41 -55.5 76t-16.5 74q0 85 65.5 139.5t167.5 54.5q97 0 159 -49.5t62 -125.5q0 -59 -35.5 -101t-122.5 -85l131 -127q20 32 33.5 68.5t18.5 76.5h146
q-8 -62 -35.5 -123.5t-69.5 -112.5zM341 617q-34 0 -56.5 -21.5t-22.5 -53.5q0 -21 11.5 -41t47.5 -55q58 26 77 46t19 54q0 30 -21.5 50.5t-54.5 20.5zM203 206q0 -42 31.5 -68.5t81.5 -26.5q31 0 60 7.5t56 21.5l-166 160q-33 -19 -48 -41.5t-15 -52.5z" />
    <glyph glyph-name="quotesingle" unicode="'" horiz-adv-x="287" 
d="M198 426h-109l-27 310h163z" />
    <glyph glyph-name="parenleft" unicode="(" horiz-adv-x="454" 
d="M252 314q0 -106 41.5 -214t119.5 -208h-156q-84 97 -126.5 203.5t-42.5 218.5t43 219t126 203h156q-79 -109 -120 -216t-41 -206z" />
    <glyph glyph-name="parenright" unicode=")" horiz-adv-x="454" 
d="M202 314q0 99 -41 206t-120 216h156q83 -96 126 -203t43 -219t-42.5 -218.5t-126.5 -203.5h-156q78 100 119.5 208t41.5 214z" />
    <glyph glyph-name="asterisk" unicode="*" horiz-adv-x="441" 
d="M175 605v121h91v-119l113 36l29 -87l-113 -38l69 -95l-73 -55l-71 96l-69 -96l-74 54l69 96l-113 37l28 88z" />
    <glyph glyph-name="plus" unicode="+" horiz-adv-x="660" 
d="M597 392v-119h-208v-208h-118v208h-209v119h209v208h118v-208h208z" />
    <glyph glyph-name="comma" unicode="," horiz-adv-x="345" 
d="M166 6h-86v179h185v-189q0 -82 -51.5 -127t-145.5 -45v85q53 1 75.5 21.5t22.5 64.5v11z" />
    <glyph glyph-name="hyphen" unicode="-" horiz-adv-x="457" 
d="M370 220h-283v137h283v-137z" />
    <glyph glyph-name="period" unicode="." horiz-adv-x="345" 
d="M265 0h-185v185h185v-185z" />
    <glyph glyph-name="slash" unicode="/" horiz-adv-x="557" 
d="M194 -108h-156l326 844h156z" />
    <glyph glyph-name="zero" unicode="0" horiz-adv-x="720" 
d="M360 -12q-145 0 -233 102t-88 267t88 267t233 102q144 0 232.5 -102t88.5 -267t-88.5 -267t-232.5 -102zM360 596q-71 0 -108 -61t-37 -178t37 -178t108 -61t108 61t37 178t-37 178t-108 61z" />
    <glyph glyph-name="one" unicode="1" horiz-adv-x="441" 
d="M175 495h-142v114q89 0 133.5 24.5t57.5 81.5h124v-715h-173v495z" />
    <glyph glyph-name="two" unicode="2" horiz-adv-x="617" 
d="M319 726q116 0 188 -62t72 -161q0 -76 -45 -131.5t-171 -119.5q-74 -38 -105 -64.5t-34 -53.5h356v-134h-548v61q0 83 51 152.5t178 143.5q106 61 130.5 88t24.5 61q0 42 -25.5 65.5t-72.5 23.5q-48 0 -78.5 -32.5t-33.5 -84.5h-167q9 112 84.5 180t195.5 68z" />
    <glyph glyph-name="three" unicode="3" horiz-adv-x="629" 
d="M450 359q67 -11 105.5 -55t38.5 -109q0 -91 -76.5 -149t-201.5 -58t-204 62.5t-88 166.5h165q4 -46 39 -73.5t88 -27.5q55 0 86.5 25t31.5 68t-30 65t-87 22h-71v122h69q50 0 77.5 23t27.5 66q0 41 -27 65.5t-73 24.5q-49 0 -80 -28t-34 -74h-159q7 103 82 167t193 64
q117 0 186.5 -59t69.5 -152q0 -60 -35 -102.5t-93 -53.5z" />
    <glyph glyph-name="four" unicode="4" horiz-adv-x="703" 
d="M359 714h186v-420h133v-131h-133v-163h-166v163h-352v132zM379 294v266l-206 -266h206z" />
    <glyph glyph-name="five" unicode="5" horiz-adv-x="638" 
d="M434 236q0 56 -30 89.5t-83 33.5q-34 0 -61.5 -14t-42.5 -38h-156l42 407h451v-134h-326l-15 -141q23 21 61 34t81 13q109 0 176.5 -69t67.5 -179t-76 -180t-200 -70q-128 0 -205 62.5t-86 170.5h173q4 -48 35.5 -77t80.5 -29q52 0 82.5 33.5t30.5 87.5z" />
    <glyph glyph-name="six" unicode="6" horiz-adv-x="652" 
d="M344 597q-66 0 -106.5 -58t-40.5 -150q27 43 70 65.5t98 22.5q108 0 179 -68.5t71 -172.5q0 -109 -77 -178.5t-199 -69.5q-136 0 -218 97t-82 260q0 171 86 276t225 105q104 0 174 -57t83 -150h-157q-11 39 -37.5 58.5t-68.5 19.5zM216 235q0 -55 34 -90t88 -35
q53 0 86 34.5t33 90.5q0 55 -33 89t-86 34q-54 0 -88 -34t-34 -89z" />
    <glyph glyph-name="seven" unicode="7" horiz-adv-x="597" 
d="M397 580h-371v134h541v-136q-113 -138 -161.5 -267.5t-50.5 -310.5h-178q2 153 55.5 295t164.5 285z" />
    <glyph glyph-name="eight" unicode="8" horiz-adv-x="662" 
d="M68 521q0 94 72 149.5t191 55.5t191 -55.5t72 -149.5q0 -51 -28 -93.5t-76 -65.5q54 -12 95 -59.5t41 -104.5q0 -96 -80 -153t-215 -57q-134 0 -214 57t-80 153q0 57 40.5 104.5t95.5 59.5q-48 23 -76.5 65.5t-28.5 93.5zM219 515q0 -43 30 -68t82 -25t82 25t30 68
t-30 68t-82 25t-82 -25t-30 -68zM200 207q0 -46 34.5 -72t96.5 -26t97 26t35 72t-35 72t-97 26t-96.5 -26t-34.5 -72z" />
    <glyph glyph-name="nine" unicode="9" horiz-adv-x="652" 
d="M308 117q66 0 106.5 58t40.5 150q-27 -43 -70 -65.5t-98 -22.5q-108 0 -179 68.5t-71 172.5q0 109 77 178.5t199 69.5q136 0 218 -97t82 -260q0 -171 -86 -276t-225 -105q-104 0 -174 57t-83 150h157q11 -39 37.5 -58.5t68.5 -19.5zM436 479q0 55 -34 90t-88 35
q-53 0 -86 -34.5t-33 -90.5q0 -55 33 -89t86 -34q54 0 88 34t34 89z" />
    <glyph glyph-name="colon" unicode=":" horiz-adv-x="345" 
d="M265 311h-185v185h185v-185zM265 0h-185v185h185v-185z" />
    <glyph glyph-name="semicolon" unicode=";" horiz-adv-x="345" 
d="M166 6h-86v179h185v-189q0 -82 -51.5 -127t-145.5 -45v85q53 1 75.5 21.5t22.5 64.5v11zM265 311h-185v185h185v-185z" />
    <glyph glyph-name="less" unicode="&#x3c;" horiz-adv-x="660" 
d="M564 64l-474 188v156l474 187v-134l-349 -131l349 -131v-135z" />
    <glyph glyph-name="equal" unicode="=" horiz-adv-x="660" 
d="M595 378h-530v108h530v-108zM595 167h-530v108h530v-108z" />
    <glyph glyph-name="greater" unicode="&#x3e;" horiz-adv-x="660" 
d="M570 408v-156l-475 -188v135l350 131l-350 131v134z" />
    <glyph glyph-name="question" unicode="?" horiz-adv-x="607" 
d="M314 726q117 0 188.5 -60t71.5 -159q0 -60 -31.5 -107.5t-104.5 -94.5q-32 -20 -45 -37t-15 -37h-163q1 42 28 81t85 80q47 33 65 58.5t18 55.5q0 42 -26 66t-71 24q-49 0 -80 -32.5t-33 -84.5h-168q9 111 85.5 179t195.5 68zM389 0h-185v169h185v-169z" />
    <glyph glyph-name="at" unicode="@" horiz-adv-x="917" 
d="M563 457h126l-51 -289q-5 -27 4 -40.5t32 -13.5q56 0 88.5 55.5t32.5 151.5q0 122 -83.5 194t-222.5 72q-158 0 -259 -101.5t-101 -261.5q0 -155 97.5 -239.5t263.5 -84.5q62 0 117.5 11t110.5 34l31 -69q-52 -26 -120.5 -41t-138.5 -15q-203 0 -328 108t-125 296
q0 92 34 174.5t96 143.5q63 61 145.5 93.5t176.5 32.5q172 0 282 -98t110 -249q0 -132 -66.5 -210t-173.5 -78q-40 0 -73 16.5t-51 46.5q-18 -26 -52 -42.5t-70 -16.5q-72 0 -115.5 49t-43.5 129q0 105 62 178t155 73q33 0 61 -15t40 -38zM436 145q31 0 54.5 22t30.5 60
l5 33q7 43 -9 69.5t-48 26.5q-42 0 -68.5 -31.5t-29.5 -82.5q-4 -45 13 -71t52 -26z" />
    <glyph glyph-name="A" unicode="A" horiz-adv-x="777" 
d="M771 0h-177l-57 153h-302l-59 -153h-169l284 714h195zM389 549h-3l-101 -264h203z" />
    <glyph glyph-name="B" unicode="B" horiz-adv-x="716" 
d="M679 206q0 -100 -69 -153t-200 -53h-339v714h319q130 0 197 -50t67 -148q0 -46 -32 -90t-74 -58q58 -17 94.5 -61t36.5 -101zM240 591v-168h143q52 0 79 21.5t27 62.5t-27 62.5t-78 21.5h-144zM395 303h-155v-180h155q55 0 84.5 23.5t29.5 67.5q0 43 -29.5 66t-84.5 23z
" />
    <glyph glyph-name="C" unicode="C" horiz-adv-x="724" 
d="M385 593q-83 0 -128.5 -61.5t-45.5 -174.5t45.5 -174.5t128.5 -61.5q59 0 95 30t47 88h168q-23 -121 -103 -186t-207 -65q-158 0 -254 101.5t-96 267.5q0 165 96 267t254 102q128 0 207.5 -65t102.5 -186h-168q-11 58 -47 88t-95 30z" />
    <glyph glyph-name="D" unicode="D" horiz-adv-x="764" 
d="M71 714h293q166 0 265.5 -97t99.5 -259t-99.5 -260t-265.5 -98h-293v714zM553 358q0 109 -48.5 166t-140.5 57h-124v-447h124q92 0 140.5 57.5t48.5 166.5z" />
    <glyph glyph-name="E" unicode="E" horiz-adv-x="671" 
d="M618 134v-134h-547v714h540v-133h-371v-156h327v-133h-327v-158h378z" />
    <glyph glyph-name="F" unicode="F" horiz-adv-x="645" 
d="M244 0h-173v714h525v-133h-352v-182h311v-133h-311v-266z" />
    <glyph glyph-name="G" unicode="G" horiz-adv-x="778" 
d="M379 -12q-156 0 -250 102t-94 268q0 165 98.5 266.5t259.5 101.5q129 0 209.5 -63.5t106.5 -183.5h-172q-12 57 -48 85.5t-96 28.5q-87 0 -134.5 -61.5t-47.5 -173.5q0 -113 47.5 -175t134.5 -62q66 0 107 32.5t41 83.5v13h-111v122h286v-372h-134l-10 86
q-18 -42 -74 -70t-119 -28z" />
    <glyph glyph-name="H" unicode="H" horiz-adv-x="808" 
d="M244 0h-173v714h173v-286h320v286h174v-714h-174v296h-320v-296z" />
    <glyph glyph-name="I" unicode="I" horiz-adv-x="315" 
d="M244 0h-173v714h173v-714z" />
    <glyph glyph-name="J" unicode="J" horiz-adv-x="637" 
d="M287 113q56 0 84.5 35.5t28.5 106.5v459h174v-453q0 -126 -77 -199.5t-210 -73.5q-125 0 -198.5 66.5t-74.5 180.5h164q1 -58 29.5 -90t79.5 -32z" />
    <glyph glyph-name="K" unicode="K" horiz-adv-x="765" 
d="M764 0h-209l-221 284l-90 -97v-187h-173v714h173v-335l291 335h195l-282 -306z" />
    <glyph glyph-name="L" unicode="L" horiz-adv-x="644" 
d="M599 0h-528v714h173v-580h355v-134z" />
    <glyph glyph-name="M" unicode="M" horiz-adv-x="944" 
d="M706 504l-178 -504h-120l-178 504h-2v-504h-157v713h236l167 -479h2l167 479h231v-713h-166v504h-2z" />
    <glyph glyph-name="N" unicode="N" horiz-adv-x="802" 
d="M71 714h198l295 -450h2v450h165v-714h-161l-332 504h-2v-504h-165v714z" />
    <glyph glyph-name="O" unicode="O" horiz-adv-x="779" 
d="M390 726q160 0 257.5 -102t97.5 -267t-97.5 -267t-257.5 -102q-161 0 -258 101.5t-97 267.5t97 267.5t258 101.5zM390 121q86 0 132.5 61.5t46.5 174.5t-46.5 174.5t-132.5 61.5t-132.5 -61.5t-46.5 -174.5t46.5 -174.5t132.5 -61.5z" />
    <glyph glyph-name="P" unicode="P" horiz-adv-x="697" 
d="M673 477q0 -115 -72 -175.5t-207 -60.5h-154v-241h-169v714h321q136 0 208.5 -61t72.5 -176zM240 581v-207h134q65 0 97 25.5t32 77.5q0 53 -31.5 78.5t-97.5 25.5h-134z" />
    <glyph glyph-name="Q" unicode="Q" horiz-adv-x="779" 
d="M638 80l60 -66l-86 -74l-70 77q-33 -14 -71.5 -21.5t-80.5 -7.5q-161 0 -258 101.5t-97 267.5t97 267.5t258 101.5q160 0 257.5 -102t97.5 -267q0 -85 -27.5 -156t-79.5 -121zM390 593q-86 0 -132.5 -61.5t-46.5 -174.5t46.5 -174.5t132.5 -61.5q15 0 28 1.5t24 5.5
l-63 69l86 75l68 -75q18 30 27 70t9 90q0 113 -46.5 174.5t-132.5 61.5z" />
    <glyph glyph-name="R" unicode="R" horiz-adv-x="727" 
d="M240 247v-247h-169v714h332q134 0 206 -60.5t72 -173.5q0 -72 -37 -125.5t-104 -80.5l164 -274h-186l-144 247h-134zM240 581v-201h141q66 0 98 24.5t32 75.5t-32 76t-98 25h-141z" />
    <glyph glyph-name="S" unicode="S" horiz-adv-x="676" 
d="M353 -12q-146 0 -232.5 60.5t-97.5 171.5h167q5 -52 46 -80t111 -28q58 0 93.5 23.5t35.5 63.5q0 34 -24 51.5t-83 27.5l-126 23q-99 18 -148.5 68.5t-49.5 133.5q0 99 80 161t205 62q135 0 213.5 -57t89.5 -162h-163q-4 45 -40.5 70t-97.5 25q-53 0 -85.5 -23.5
t-32.5 -62.5q0 -31 20 -47.5t83 -28.5l136 -26q97 -17 145 -67.5t48 -135.5q0 -100 -82 -161.5t-211 -61.5z" />
    <glyph glyph-name="T" unicode="T" horiz-adv-x="740" 
d="M456 0h-173v581h-247v133h668v-133h-248v-581z" />
    <glyph glyph-name="U" unicode="U" horiz-adv-x="765" 
d="M701 714v-428q0 -144 -82.5 -221t-236.5 -77q-153 0 -236 77.5t-83 221.5v427h174v-422q0 -85 36 -127t109 -42t109.5 42t36.5 127v422h173z" />
    <glyph glyph-name="V" unicode="V" horiz-adv-x="759" 
d="M475 0h-192l-276 714h184l191 -525h2l190 525h178z" />
    <glyph glyph-name="W" unicode="W" horiz-adv-x="1027" 
d="M823 0h-187l-122 509h-2l-121 -509h-188l-194 714h178l123 -506h3l120 506h170l120 -506h2l124 506h169z" />
    <glyph glyph-name="X" unicode="X" horiz-adv-x="757" 
d="M750 0h-195l-182 250l-185 -250h-181l276 368l-254 346h196l157 -217l160 217h182l-252 -336z" />
    <glyph glyph-name="Y" unicode="Y" horiz-adv-x="743" 
d="M458 291v-291h-174v291l-279 423h193l176 -273h2l174 273h188z" />
    <glyph glyph-name="Z" unicode="Z" horiz-adv-x="689" 
d="M640 714v-128l-387 -452h395v-134h-607v122l389 459h-377v133h587z" />
    <glyph glyph-name="bracketleft" unicode="[" horiz-adv-x="427" 
d="M375 622h-122v-616h122v-114h-282v844h282v-114z" />
    <glyph glyph-name="backslash" unicode="\" horiz-adv-x="557" 
d="M364 -108l-326 844h156l326 -844h-156z" />
    <glyph glyph-name="bracketright" unicode="]" horiz-adv-x="427" 
d="M52 736h282v-844h-282v114h122v616h-122v114z" />
    <glyph glyph-name="asciicircum" unicode="^" horiz-adv-x="503" 
d="M32 447l144 279h152l144 -279h-142l-78 159l-79 -159h-141z" />
    <glyph glyph-name="underscore" unicode="_" horiz-adv-x="435" 
d="M402 -141h-370v114h370v-114z" />
    <glyph glyph-name="grave" unicode="`" 
d="M348 736l51 -161h-112l-122 161h183z" />
    <glyph glyph-name="a" unicode="a" horiz-adv-x="593" 
d="M539 0h-159q-3 27 -4 43.5t-1 31.5q-19 -42 -61.5 -64.5t-102.5 -22.5q-82 0 -130 41t-48 110t47 108t143 49l144 14v21q0 35 -20 54.5t-57 19.5q-33 0 -53 -17.5t-22 -47.5h-160q8 87 72 135.5t169 48.5q116 0 175 -53.5t59 -158.5v-166q0 -46 2 -79.5t7 -66.5zM198 150
q0 -26 17 -40.5t47 -14.5q46 0 75.5 27t29.5 72v25l-92 -11q-42 -5 -59.5 -18.5t-17.5 -39.5z" />
    <glyph glyph-name="b" unicode="b" horiz-adv-x="650" 
d="M391 -12q-51 0 -94 24t-63 64v-76h-165v736h167v-300q20 40 61.5 64t93.5 24q101 0 162.5 -74t61.5 -194t-61.5 -194t-162.5 -74zM339 405q-50 0 -78 -36.5t-28 -101.5v-22q0 -64 28 -100.5t78 -36.5q52 0 80 38.5t28 109.5t-28.5 110t-79.5 39z" />
    <glyph glyph-name="c" unicode="c" horiz-adv-x="573" 
d="M306 -12q-122 0 -196.5 73.5t-74.5 194.5t74.5 194.5t196.5 73.5q100 0 163.5 -53t74.5 -145h-158q-5 36 -26.5 56.5t-55.5 20.5q-48 0 -74.5 -39t-26.5 -108t26.5 -107.5t74.5 -38.5q34 0 55.5 20.5t26.5 56.5h158q-11 -92 -74.5 -145.5t-163.5 -53.5z" />
    <glyph glyph-name="d" unicode="d" horiz-adv-x="650" 
d="M259 -12q-101 0 -162.5 74t-61.5 194t61.5 194t162.5 74q52 0 93.5 -24t61.5 -64v300h167v-736h-165v76q-20 -40 -63 -64t-94 -24zM311 405q-51 0 -79.5 -39t-28.5 -110t28 -109.5t80 -38.5q50 0 78 36.5t28 100.5v22q0 65 -28 101.5t-78 36.5z" />
    <glyph glyph-name="e" unicode="e" horiz-adv-x="591" 
d="M399 167h154q-17 -83 -82.5 -131t-164.5 -48q-120 0 -195.5 73.5t-75.5 194.5t75 194.5t194 73.5q115 0 183 -72t68 -188v-45h-359q7 -56 35 -84.5t75 -28.5q35 0 59 15.5t34 45.5zM304 407q-42 0 -69 -25t-36 -74h201q0 44 -26 71.5t-70 27.5z" />
    <glyph glyph-name="f" unicode="f" horiz-adv-x="364" 
d="M84 0v395h-67v117h67v52q0 86 47 131t136 45q32 0 52.5 -1.5t37.5 -4.5v-124q-14 2 -25 2.5t-24 0.5q-29 0 -43 -14t-14 -43v-44h100v-117h-100v-395h-167z" />
    <glyph glyph-name="g" unicode="g" horiz-adv-x="653" 
d="M308 -77q53 0 81 28.5t28 84.5v71q-21 -41 -62.5 -65.5t-92.5 -24.5q-102 0 -164 70t-62 184q0 113 62 183t164 70q51 0 94 -24.5t63 -64.5v77h165v-451q0 -121 -72 -186t-203 -65q-111 0 -180.5 44.5t-83.5 123.5h165q8 -28 32.5 -41.5t65.5 -13.5zM312 135
q50 0 79.5 34.5t29.5 92.5v19q0 57 -30 91t-79 34q-51 0 -79.5 -35.5t-28.5 -99.5t28.5 -100t79.5 -36z" />
    <glyph glyph-name="h" unicode="h" horiz-adv-x="645" 
d="M236 736v-303q21 43 61.5 67t94.5 24q89 0 139.5 -52t50.5 -144v-328h-168v288q0 54 -21 80.5t-64 26.5q-44 0 -68.5 -31t-24.5 -90v-274h-167v736h167z" />
    <glyph glyph-name="i" unicode="i" horiz-adv-x="305" 
d="M239 583h-173v145h173v-145zM236 0h-167v512h167v-512z" />
    <glyph glyph-name="j" unicode="j" horiz-adv-x="305" 
d="M239 583h-173v145h173v-145zM51 -185q-19 0 -35.5 1.5t-36.5 4.5v121q8 -1 17 -2t17 -1q30 0 43 12.5t13 42.5v518h167v-525q0 -85 -47 -128.5t-138 -43.5z" />
    <glyph glyph-name="k" unicode="k" horiz-adv-x="634" 
d="M624 0h-188l-147 196l-53 -53v-143h-167v736h167v-422l189 198h187l-208 -210z" />
    <glyph glyph-name="l" unicode="l" horiz-adv-x="305" 
d="M236 736v-736h-167v736h167z" />
    <glyph glyph-name="m" unicode="m" horiz-adv-x="968" 
d="M388 524q58 0 97.5 -22.5t63.5 -69.5q27 43 72.5 67.5t99.5 24.5q88 0 136 -51.5t48 -144.5v-328h-168v290q0 52 -20 78.5t-59 26.5q-42 0 -64.5 -30.5t-22.5 -88.5v-276h-168v290q0 52 -20 78.5t-59 26.5q-42 0 -65 -30.5t-23 -88.5v-276h-167v512h165v-79
q20 42 61 66.5t93 24.5z" />
    <glyph glyph-name="n" unicode="n" horiz-adv-x="645" 
d="M69 512h165v-79q20 42 62 66.5t96 24.5q89 0 139.5 -52t50.5 -144v-328h-168v288q0 54 -21 80.5t-64 26.5q-44 0 -68.5 -31t-24.5 -90v-274h-167v512z" />
    <glyph glyph-name="o" unicode="o" horiz-adv-x="616" 
d="M308 524q123 0 197.5 -73t74.5 -195t-74.5 -195t-197.5 -73q-124 0 -198.5 73t-74.5 195t74.5 195t198.5 73zM308 404q-51 0 -78 -38.5t-27 -109.5t27 -109.5t78 -38.5q50 0 77 38t27 110t-27 110t-77 38z" />
    <glyph glyph-name="p" unicode="p" horiz-adv-x="650" 
d="M391 -12q-51 0 -93 24t-62 64v-254h-167v690h165v-77q20 40 62.5 64.5t94.5 24.5q101 0 162.5 -74t61.5 -194t-61.5 -194t-162.5 -74zM339 405q-50 0 -78 -36.5t-28 -101.5v-22q0 -64 28 -100.5t78 -36.5q52 0 80 38.5t28 109.5t-28.5 110t-79.5 39z" />
    <glyph glyph-name="q" unicode="q" horiz-adv-x="650" 
d="M259 -12q-101 0 -162.5 74t-61.5 194t61.5 194t162.5 74q52 0 94.5 -24.5t62.5 -64.5v77h165v-690h-167v254q-20 -40 -62 -64t-93 -24zM311 405q-51 0 -79.5 -39t-28.5 -110t28 -109.5t80 -38.5q50 0 78 36.5t28 100.5v22q0 65 -28 101.5t-78 36.5z" />
    <glyph glyph-name="r" unicode="r" horiz-adv-x="447" 
d="M387 520q13 0 22 -1t15 -4v-154q-12 2 -25 3t-29 1q-62 0 -98 -37t-36 -104v-224h-167v512h165v-109q19 57 59 87t94 30z" />
    <glyph glyph-name="s" unicode="s" horiz-adv-x="552" 
d="M284 -12q-112 0 -179 44.5t-76 126.5h156q4 -29 30 -45.5t66 -16.5q35 0 56 12.5t21 34.5q0 18 -14.5 27.5t-56.5 17.5l-91 15q-77 13 -114 50t-37 98q0 76 63.5 124t160.5 48q104 0 165 -43.5t70 -121.5h-148q-4 26 -27.5 41.5t-57.5 15.5q-32 0 -51.5 -12.5
t-19.5 -33.5q0 -18 14 -27.5t54 -16.5l99 -17q72 -11 109.5 -49.5t37.5 -101.5q0 -76 -64.5 -123t-165.5 -47z" />
    <glyph glyph-name="t" unicode="t" horiz-adv-x="407" 
d="M306 125q18 0 32.5 1.5t30.5 5.5v-124q-31 -9 -57 -12.5t-56 -3.5q-90 0 -132 37.5t-42 117.5v248h-68v117h68v127h165v-127h111v-117h-112v-214q0 -30 13.5 -43t46.5 -13z" />
    <glyph glyph-name="u" unicode="u" horiz-adv-x="637" 
d="M569 512v-512h-166v79q-19 -42 -61 -66.5t-94 -24.5q-87 0 -136 51.5t-49 144.5v328h169v-290q0 -53 19.5 -79t60.5 -26q42 0 65 31.5t23 89.5v274h169z" />
    <glyph glyph-name="v" unicode="v" horiz-adv-x="603" 
d="M394 0h-182l-199 512h168l123 -350h2l121 350h164z" />
    <glyph glyph-name="w" unicode="w" horiz-adv-x="855" 
d="M354 512h150l84 -344h2l90 344h162l-159 -512h-168l-86 332h-2l-87 -332h-168l-159 512h166l90 -344h3z" />
    <glyph glyph-name="x" unicode="x" horiz-adv-x="610" 
d="M301 149l-110 -149h-178l197 262l-184 250h189l93 -132l96 132h179l-184 -243l198 -269h-189z" />
    <glyph glyph-name="y" unicode="y" horiz-adv-x="603" 
d="M111 -61q45 0 64 14t33 52l-195 507h168l124 -358h2l119 358h164l-194 -515q-37 -97 -94.5 -140t-151.5 -43q-20 0 -37.5 1.5t-31.5 3.5v122q8 -1 13.5 -1.5t16.5 -0.5z" />
    <glyph glyph-name="z" unicode="z" horiz-adv-x="548" 
d="M496 512v-113l-250 -278h260v-121h-463v109l250 283h-244v120h447z" />
    <glyph glyph-name="braceleft" unicode="{" horiz-adv-x="441" 
d="M72 256h-39v116h39q26 0 41.5 16t15.5 42v182q0 61 37.5 92.5t108.5 31.5h115v-113h-65q-26 0 -36.5 -9.5t-10.5 -31.5v-173q0 -40 -26.5 -65.5t-72.5 -29.5q46 -4 72.5 -29t26.5 -66v-172q0 -22 11 -32t36 -10h65v-113h-115q-71 0 -108.5 31.5t-37.5 92.5v182
q0 26 -15.5 42t-41.5 16z" />
    <glyph glyph-name="bar" unicode="|" horiz-adv-x="351" 
d="M104 -108v844h144v-844h-144z" />
    <glyph glyph-name="braceright" unicode="}" horiz-adv-x="441" 
d="M369 256q-26 0 -41.5 -16t-15.5 -42v-182q0 -61 -37.5 -92.5t-108.5 -31.5h-115v113h65q25 0 36 10t11 32v172q0 41 26.5 66t72.5 29q-46 4 -72.5 29.5t-26.5 65.5v173q0 22 -10.5 31.5t-36.5 9.5h-65v113h115q71 0 108.5 -31.5t37.5 -92.5v-182q0 -26 15.5 -42t41.5 -16
h39v-116h-39v0z" />
    <glyph glyph-name="asciitilde" unicode="~" horiz-adv-x="586" 
d="M287 255q-27 16 -39.5 21t-22.5 5q-17 0 -28.5 -16.5t-12.5 -44.5h-97q0 84 31 135t83 51q19 0 40.5 -7.5t58.5 -29.5q27 -17 39 -21.5t21 -4.5q17 0 28 15.5t14 44.5h97q0 -84 -31.5 -135t-82.5 -51q-20 0 -40.5 7.5t-57.5 30.5z" />
    <glyph glyph-name="twosuperior" horiz-adv-x="381" 
d="M197 721q66 0 107.5 -34.5t41.5 -90.5q0 -40 -23.5 -68.5t-97.5 -65.5q-38 -19 -55 -33t-19 -27h196v-80h-313v37q0 46 29 84.5t97 77.5q57 31 70 45t13 32q0 19 -12.5 30.5t-34.5 11.5q-24 0 -39 -16t-16 -41h-105q5 62 48.5 100t112.5 38z" />
    <glyph glyph-name="threesuperior" horiz-adv-x="384" 
d="M273 518q37 -7 57.5 -30.5t20.5 -58.5q0 -50 -43.5 -82t-113.5 -32q-71 0 -116 34.5t-50 92.5h104q1 -21 18.5 -33.5t43.5 -12.5q25 0 40 11.5t15 30.5q0 21 -14 31t-44 10h-37v77h36q25 0 38.5 11t13.5 31q0 19 -13 31t-34 12q-22 0 -37 -13t-17 -35h-101q4 56 47 92
t110 36q66 0 105.5 -33t39.5 -85q0 -32 -19 -55t-50 -30z" />
    <glyph glyph-name="onesuperior" horiz-adv-x="350" 
d="M236 394h89v-72h-285v72h93v194h-94v68q59 0 83.5 11.5t32.5 46.5h81v-320z" />
    <glyph glyph-name="uni00A0" unicode="&#xa0;" horiz-adv-x="205" 
 />
    <glyph glyph-name="exclamdown" unicode="&#xa1;" horiz-adv-x="344" 
d="M240 464l28 -464h-192l28 464h136zM264 537h-184v177h184v-177z" />
    <glyph glyph-name="cent" unicode="&#xa2;" horiz-adv-x="585" 
d="M421 194h132q-10 -81 -64.5 -135t-138.5 -65v-100h-85v100q-104 14 -166.5 87.5t-62.5 183.5q0 109 62.5 182.5t166.5 87.5v111h85v-111q84 -11 138.5 -65t64.5 -135h-132q-4 31 -22.5 52.5t-48.5 30.5v-307q30 9 48.5 30.5t22.5 52.5zM180 265q0 -58 22 -97t63 -54v301
q-41 -15 -63 -54t-22 -96z" />
    <glyph glyph-name="sterling" unicode="&#xa3;" horiz-adv-x="656" 
d="M241 134h378v-134h-574v134h15q39 0 60 35.5t21 101.5h-90v115h61q-14 40 -19 66t-5 51q0 96 73.5 159.5t186.5 63.5q119 0 189.5 -66t78.5 -181h-162q-3 56 -30 86.5t-76 30.5q-43 0 -70 -27t-27 -69q0 -13 2.5 -27t7.5 -30q3 -10 10 -28.5t10 -28.5h154v-115h-135
q-2 -41 -17 -75.5t-42 -61.5z" />
    <glyph glyph-name="yen" unicode="&#xa5;" horiz-adv-x="745" 
d="M658 262v-92h-198v-170h-174v170h-199v92h199v60h-199v92h139l-209 300h189l169 -259h2l167 259h184l-208 -300h139v-92h-199v-60h198z" />
    <glyph glyph-name="section" unicode="&#xa7;" horiz-adv-x="639" 
d="M507 117q12 -18 17.5 -39t5.5 -44q0 -77 -62.5 -125t-161.5 -48q-103 0 -164.5 45t-70.5 124h148q4 -28 28 -45.5t59 -17.5q32 0 51 16t19 42q0 18 -12.5 31.5t-45.5 29.5l-134 65q-76 37 -108 79t-32 104q0 43 22 78t65 59q-12 17 -17.5 37.5t-5.5 45.5q0 77 62 124.5
t160 47.5q103 0 164 -43.5t71 -122.5h-147q-5 27 -28.5 43.5t-58.5 16.5q-31 0 -50 -15.5t-19 -41.5q0 -19 12.5 -33t44.5 -29l134 -65q77 -38 109 -79.5t32 -103.5q0 -43 -22.5 -77.5t-64.5 -58.5zM257 270l133 -66l12 -6l12 -6q14 9 22.5 23.5t8.5 29.5q0 23 -13.5 38.5
t-51.5 35.5l-132 65l-12 6l-12 6q-15 -11 -23.5 -25t-8.5 -29q0 -23 14 -38t51 -34z" />
    <glyph glyph-name="dieresis" unicode="&#xa8;" 
d="M463 583h-147v145h147v-145zM248 583h-147v145h147v-145z" />
    <glyph glyph-name="copyright" unicode="&#xa9;" horiz-adv-x="871" 
d="M436 726q153 0 261 -108t108 -262q0 -152 -108 -260t-261 -108q-74 0 -141.5 28t-119.5 80t-80.5 119.5t-28.5 140.5q0 153 108.5 261.5t261.5 108.5zM436 683q-135 0 -230.5 -95.5t-95.5 -231.5q0 -134 95.5 -229.5t230.5 -95.5t230.5 95.5t95.5 229.5
q0 136 -95.5 231.5t-230.5 95.5zM440 490q-45 0 -70 -35t-25 -97q0 -61 25 -96.5t70 -36.5q31 1 50.5 18t24.5 48h116q-13 -73 -61.5 -113t-127.5 -41q-95 1 -153.5 62.5t-58.5 159.5t58.5 158.5t153.5 60.5q79 0 127.5 -39.5t61.5 -113.5h-116q-5 31 -24.5 48t-50.5 17z
" />
    <glyph glyph-name="ordfeminine" unicode="&#xaa;" horiz-adv-x="419" 
d="M257 427q-13 -28 -40.5 -42.5t-66.5 -14.5q-54 0 -86.5 27.5t-32.5 73.5q0 45 30.5 69.5t97.5 31.5l92 9v16q0 21 -12 32t-33 11q-20 0 -32 -11t-14 -29h-115q5 59 48.5 92.5t115.5 33.5q79 0 119.5 -36.5t40.5 -108.5v-101q0 -35 1.5 -57.5t4.5 -44.5h-115
q-2 16 -2.5 27t-0.5 22zM188 445q27 0 45 17t18 45v18l-55 -8q-23 -3 -35 -12.5t-12 -25.5t10.5 -25t28.5 -9zM363 228h-311v86h311v-86z" />
    <glyph glyph-name="guillemotleft" unicode="&#xab;" horiz-adv-x="578" 
d="M419 254l110 -211h-112l-141 211l141 211h112zM194 254l109 -211h-111l-143 211l143 211h111z" />
    <glyph glyph-name="registered" unicode="&#xae;" horiz-adv-x="571" 
d="M55 495q0 98 67 164.5t164 66.5t163.5 -66t66.5 -165t-66.5 -165.5t-163.5 -66.5t-164 66.5t-67 165.5zM88 495q0 -87 57 -144.5t141 -57.5t141 57.5t57 144.5q0 86 -57 143.5t-141 57.5t-141 -57.5t-57 -143.5zM249 457v-81h-64v245h118q46 0 71 -21t25 -61
q0 -25 -11.5 -43t-33.5 -28l53 -92h-70l-47 81h-41zM249 570v-62h45q22 0 32 7.5t10 23.5t-10 23.5t-32 7.5h-45z" />
    <glyph glyph-name="macron" unicode="&#xaf;" 
d="M444 583h-325v105h325v-105z" />
    <glyph glyph-name="degree" unicode="&#xb0;" horiz-adv-x="375" 
d="M338 579q0 -63 -43 -105t-108 -42q-64 0 -106.5 42t-42.5 105q0 64 42.5 105.5t106.5 41.5q65 0 108 -41.5t43 -105.5zM260 579q0 30 -21 50t-52 20t-51 -20t-20 -50t20.5 -49.5t50.5 -19.5q31 0 52 19.5t21 49.5z" />
    <glyph glyph-name="acute" unicode="&#xb4;" 
d="M399 736l-122 -161h-112l51 161h183z" />
    <glyph glyph-name="paragraph" unicode="&#xb6;" horiz-adv-x="713" 
d="M417 -127h-116v428q-122 0 -190.5 55t-68.5 152t68 151.5t191 54.5h331v-841h-116v735h-99v-735z" />
    <glyph glyph-name="periodcentered" unicode="&#xb7;" horiz-adv-x="358" 
d="M272 200h-185v185h185v-185z" />
    <glyph glyph-name="cedilla" unicode="&#xb8;" horiz-adv-x="835" 
d="M541 -113q0 -42 -37.5 -67.5t-95.5 -25.5q-25 0 -51 5t-46 13v67q32 -12 52.5 -16.5t42.5 -4.5q21 0 34 7t13 20q0 20 -25.5 26t-53.5 -3l-26 24l51 82h60l-32 -51q49 4 81.5 -17t32.5 -59z" />
    <glyph glyph-name="ordmasculine" unicode="&#xba;" horiz-adv-x="433" 
d="M217 370q-85 0 -135 48t-50 130t50.5 130t134.5 48t134 -48.5t50 -129.5q0 -82 -50 -130t-134 -48zM217 639q-31 0 -47 -23.5t-16 -67.5q0 -45 16 -68.5t47 -23.5t47 23.5t16 68.5q0 44 -16.5 67.5t-46.5 23.5zM372 228h-311v86h311v-86z" />
    <glyph glyph-name="guillemotright" unicode="&#xbb;" horiz-adv-x="578" 
d="M49 464h112l141 -211l-141 -211h-112l110 211zM275 464h111l143 -211l-143 -211h-111l109 211z" />
    <glyph glyph-name="onequarter" unicode="&#xbc;" horiz-adv-x="913" 
d="M762 727l-516 -739h-100l515 739h101zM244 394h89v-72h-285v72h93v194h-94v68q59 0 83.5 11.5t32.5 46.5h81v-320zM685 391h113v-238h73v-74h-73v-79h-101v79h-194v74zM697 153v141l-105 -141h105z" />
    <glyph glyph-name="onehalf" unicode="&#xbd;" horiz-adv-x="924" 
d="M244 394h89v-72h-285v72h93v194h-94v68q59 0 83.5 11.5t32.5 46.5h81v-320zM765 727l-516 -739h-100l515 739h101zM726 399q66 0 107.5 -34.5t41.5 -90.5q0 -40 -23.5 -68.5t-97.5 -65.5q-38 -19 -55 -33t-19 -27h196v-80h-313v37q0 46 29 84.5t97 77.5q57 31 70 45
t13 32q0 19 -12.5 30.5t-34.5 11.5q-24 0 -39 -16t-16 -41h-105q5 62 48.5 100t112.5 38z" />
    <glyph glyph-name="threequarters" unicode="&#xbe;" horiz-adv-x="932" 
d="M706 391h113v-238h73v-74h-73v-79h-101v79h-194v74zM718 153v141l-105 -141h105zM776 727l-516 -739h-100l515 739h101zM281 518q37 -7 57.5 -30.5t20.5 -58.5q0 -50 -43.5 -82t-113.5 -32q-71 0 -116 34.5t-50 92.5h104q1 -21 18.5 -33.5t43.5 -12.5q25 0 40 11.5
t15 30.5q0 21 -14 31t-44 10h-37v77h36q25 0 38.5 11t13.5 31q0 19 -13 31t-34 12q-22 0 -37 -13t-17 -35h-101q4 56 47 92t110 36q66 0 105.5 -33t39.5 -85q0 -32 -19 -55t-50 -30z" />
    <glyph glyph-name="questiondown" unicode="&#xbf;" horiz-adv-x="607" 
d="M293 -12q-117 0 -188.5 60t-71.5 159q0 60 31.5 107.5t104.5 94.5q32 20 45 37t15 37h163q-1 -42 -28 -81t-85 -80q-47 -33 -65 -58.5t-18 -55.5q0 -42 26 -66t71 -24q49 0 80 32.5t33 84.5h168q-9 -111 -85.5 -179t-195.5 -68zM218 714h185v-169h-185v169z" />
    <glyph glyph-name="Agrave" unicode="&#xc0;" horiz-adv-x="777" 
d="M771 0h-177l-57 153h-302l-59 -153h-169l284 714h195zM389 549h-3l-101 -264h203zM392 920l50 -159h-104l-123 159h177z" />
    <glyph glyph-name="Aacute" unicode="&#xc1;" horiz-adv-x="777" 
d="M771 0h-177l-57 153h-302l-59 -153h-169l284 714h195zM389 549h-3l-101 -264h203zM561 920l-123 -159h-104l50 159h177z" />
    <glyph glyph-name="Acircumflex" unicode="&#xc2;" horiz-adv-x="777" 
d="M771 0h-177l-57 153h-302l-59 -153h-169l284 714h195zM389 549h-3l-101 -264h203zM217 760l101 160h142l101 -160h-93l-79 69l-79 -69h-93z" />
    <glyph glyph-name="Atilde" unicode="&#xc3;" horiz-adv-x="777" 
d="M771 0h-177l-57 153h-302l-59 -153h-169l284 714h195zM389 549h-3l-101 -264h203zM387 798q-25 15 -36 19.5t-20 4.5q-16 0 -26 -14.5t-11 -41.5h-88q0 77 28 123.5t75 46.5q18 0 37 -7t53 -28q25 -15 36 -19.5t20 -4.5q16 0 26 15t11 41h88q0 -77 -28 -123.5t-75 -46.5
q-18 0 -37 7t-53 28z" />
    <glyph glyph-name="Adieresis" unicode="&#xc4;" horiz-adv-x="777" 
d="M771 0h-177l-57 153h-302l-59 -153h-169l284 714h195zM389 549h-3l-101 -264h203zM570 766h-147v145h147v-145zM355 766h-147v145h147v-145z" />
    <glyph glyph-name="Aring" unicode="&#xc5;" horiz-adv-x="777" 
d="M537 153h-302l-59 -153h-169l278 700q-15 18 -23 40t-8 45q0 56 39.5 96t94.5 40q56 0 95.5 -40t39.5 -96q0 -23 -8 -45t-23 -40l279 -700h-177zM449 785q0 26 -17.5 43.5t-43.5 17.5q-25 0 -42.5 -18t-17.5 -43q0 -24 18 -42t42 -18q25 0 43 18t18 42zM389 549h-3
l-101 -264h203z" />
    <glyph glyph-name="AE" unicode="&#xc6;" horiz-adv-x="1137" 
d="M1084 0h-547v161h-262l-96 -161h-174l428 714h644v-133h-370v-156h326v-133h-326v-158h377v-134zM537 294v306l-183 -306h183z" />
    <glyph glyph-name="Ccedilla" unicode="&#xc7;" horiz-adv-x="724" 
d="M497 -113q0 -42 -37.5 -67.5t-95.5 -25.5q-25 0 -51 5t-46 13v67q32 -12 52.5 -16.5t42.5 -4.5q21 0 34 7t13 20q0 20 -25.5 26t-53.5 -3l-26 24l36 58q-139 15 -222 114.5t-83 252.5q0 165 96 267t254 102q128 0 207.5 -65t102.5 -186h-168q-11 58 -47 88t-95 30
q-83 0 -128.5 -61.5t-45.5 -174.5t45.5 -174.5t128.5 -61.5q59 0 95 30t47 88h168q-22 -117 -98.5 -182.5t-197.5 -68.5l-16 -25q49 4 81.5 -17t32.5 -59z" />
    <glyph glyph-name="Egrave" unicode="&#xc8;" horiz-adv-x="671" 
d="M618 134v-134h-547v714h540v-133h-371v-156h327v-133h-327v-158h378zM360 920l50 -159h-104l-123 159h177z" />
    <glyph glyph-name="Eacute" unicode="&#xc9;" horiz-adv-x="671" 
d="M618 134v-134h-547v714h540v-133h-371v-156h327v-133h-327v-158h378zM504 920l-123 -159h-104l50 159h177z" />
    <glyph glyph-name="Ecircumflex" unicode="&#xca;" horiz-adv-x="671" 
d="M618 134v-134h-547v714h540v-133h-371v-156h327v-133h-327v-158h378zM171 760l101 160h142l101 -160h-93l-79 69l-79 -69h-93z" />
    <glyph glyph-name="Edieresis" unicode="&#xcb;" horiz-adv-x="671" 
d="M618 134v-134h-547v714h540v-133h-371v-156h327v-133h-327v-158h378zM524 766h-147v145h147v-145zM309 766h-147v145h147v-145z" />
    <glyph glyph-name="Igrave" unicode="&#xcc;" horiz-adv-x="315" 
d="M244 0h-173v714h173v-714zM168 920l50 -159h-104l-123 159h177z" />
    <glyph glyph-name="Iacute" unicode="&#xcd;" horiz-adv-x="315" 
d="M244 0h-173v714h173v-714zM330 920l-123 -159h-104l50 159h177z" />
    <glyph glyph-name="Icircumflex" unicode="&#xce;" horiz-adv-x="315" 
d="M244 0h-173v714h173v-714zM-14 760l101 160h142l101 -160h-93l-79 69l-79 -69h-93z" />
    <glyph glyph-name="Idieresis" unicode="&#xcf;" horiz-adv-x="315" 
d="M244 0h-173v714h173v-714zM339 766h-147v145h147v-145zM124 766h-147v145h147v-145z" />
    <glyph glyph-name="Eth" unicode="&#xd0;" horiz-adv-x="789" 
d="M754 358q0 -162 -99.5 -260t-265.5 -98h-293v299h-66v126h66v289h293q166 0 265.5 -97t99.5 -259zM265 299v-165h124q92 0 140.5 57.5t48.5 166.5t-48.5 166t-140.5 57h-124v-156h102v-126h-102z" />
    <glyph glyph-name="Ntilde" unicode="&#xd1;" horiz-adv-x="802" 
d="M71 714h198l295 -450h2v450h165v-714h-161l-332 504h-2v-504h-165v714zM390 798q-25 15 -36 19.5t-20 4.5q-16 0 -26 -14.5t-11 -41.5h-88q0 77 28 123.5t75 46.5q18 0 37 -7t53 -28q25 -15 36 -19.5t20 -4.5q16 0 26 15t11 41h88q0 -77 -28 -123.5t-75 -46.5
q-18 0 -37 7t-53 28z" />
    <glyph glyph-name="Ograve" unicode="&#xd2;" horiz-adv-x="779" 
d="M390 726q160 0 257.5 -102t97.5 -267t-97.5 -267t-257.5 -102q-161 0 -258 101.5t-97 267.5t97 267.5t258 101.5zM390 121q86 0 132.5 61.5t46.5 174.5t-46.5 174.5t-132.5 61.5t-132.5 -61.5t-46.5 -174.5t46.5 -174.5t132.5 -61.5zM400 920l50 -159h-104l-123 159h177z
" />
    <glyph glyph-name="Oacute" unicode="&#xd3;" horiz-adv-x="779" 
d="M390 726q160 0 257.5 -102t97.5 -267t-97.5 -267t-257.5 -102q-161 0 -258 101.5t-97 267.5t97 267.5t258 101.5zM390 121q86 0 132.5 61.5t46.5 174.5t-46.5 174.5t-132.5 61.5t-132.5 -61.5t-46.5 -174.5t46.5 -174.5t132.5 -61.5zM560 920l-123 -159h-104l50 159h177z
" />
    <glyph glyph-name="Ocircumflex" unicode="&#xd4;" horiz-adv-x="779" 
d="M390 726q160 0 257.5 -102t97.5 -267t-97.5 -267t-257.5 -102q-161 0 -258 101.5t-97 267.5t97 267.5t258 101.5zM390 121q86 0 132.5 61.5t46.5 174.5t-46.5 174.5t-132.5 61.5t-132.5 -61.5t-46.5 -174.5t46.5 -174.5t132.5 -61.5zM218 760l101 160h142l101 -160h-93
l-79 69l-79 -69h-93z" />
    <glyph glyph-name="Otilde" unicode="&#xd5;" horiz-adv-x="779" 
d="M390 726q160 0 257.5 -102t97.5 -267t-97.5 -267t-257.5 -102q-161 0 -258 101.5t-97 267.5t97 267.5t258 101.5zM390 121q86 0 132.5 61.5t46.5 174.5t-46.5 174.5t-132.5 61.5t-132.5 -61.5t-46.5 -174.5t46.5 -174.5t132.5 -61.5zM384 798q-25 15 -36 19.5t-20 4.5
q-16 0 -26 -14.5t-11 -41.5h-88q0 77 28 123.5t75 46.5q18 0 37 -7t53 -28q25 -15 36 -19.5t20 -4.5q16 0 26 15t11 41h88q0 -77 -28 -123.5t-75 -46.5q-18 0 -37 7t-53 28z" />
    <glyph glyph-name="Odieresis" unicode="&#xd6;" horiz-adv-x="779" 
d="M390 726q160 0 257.5 -102t97.5 -267t-97.5 -267t-257.5 -102q-161 0 -258 101.5t-97 267.5t97 267.5t258 101.5zM390 121q86 0 132.5 61.5t46.5 174.5t-46.5 174.5t-132.5 61.5t-132.5 -61.5t-46.5 -174.5t46.5 -174.5t132.5 -61.5zM571 766h-147v145h147v-145zM356 766
h-147v145h147v-145z" />
    <glyph glyph-name="multiply" unicode="&#xd7;" horiz-adv-x="660" 
d="M576 168l-82 -81l-164 164l-165 -165l-81 82l165 165l-165 164l81 82l165 -165l164 164l83 -81l-165 -165z" />
    <glyph glyph-name="Oslash" unicode="&#xd8;" horiz-adv-x="779" 
d="M745 357q0 -165 -97.5 -267t-257.5 -102q-57 0 -108 14t-93 41l-62 -73l-71 56l64 77q-42 48 -63.5 113t-21.5 141q0 166 97 267.5t258 101.5q59 0 111.5 -14.5t94.5 -43.5l56 66l72 -55l-61 -72q40 -48 61 -112t21 -138zM390 593q-86 0 -132.5 -61.5t-46.5 -174.5
q0 -37 5 -68t14 -56l271 322q-21 19 -49 28.5t-62 9.5zM390 121q86 0 132.5 61.5t46.5 174.5q0 33 -4 62.5t-13 55.5l-269 -320q22 -17 48.5 -25.5t58.5 -8.5z" />
    <glyph glyph-name="Ugrave" unicode="&#xd9;" horiz-adv-x="765" 
d="M701 714v-428q0 -144 -82.5 -221t-236.5 -77q-153 0 -236 77.5t-83 221.5v427h174v-422q0 -85 36 -127t109 -42t109.5 42t36.5 127v422h173zM405 920l50 -159h-104l-123 159h177z" />
    <glyph glyph-name="Uacute" unicode="&#xda;" horiz-adv-x="765" 
d="M701 714v-428q0 -144 -82.5 -221t-236.5 -77q-153 0 -236 77.5t-83 221.5v427h174v-422q0 -85 36 -127t109 -42t109.5 42t36.5 127v422h173zM545 920l-123 -159h-104l50 159h177z" />
    <glyph glyph-name="Ucircumflex" unicode="&#xdb;" horiz-adv-x="765" 
d="M701 714v-428q0 -144 -82.5 -221t-236.5 -77q-153 0 -236 77.5t-83 221.5v427h174v-422q0 -85 36 -127t109 -42t109.5 42t36.5 127v422h173zM211 760l101 160h142l101 -160h-93l-79 69l-79 -69h-93z" />
    <glyph glyph-name="Udieresis" unicode="&#xdc;" horiz-adv-x="765" 
d="M701 714v-428q0 -144 -82.5 -221t-236.5 -77q-153 0 -236 77.5t-83 221.5v427h174v-422q0 -85 36 -127t109 -42t109.5 42t36.5 127v422h173zM564 766h-147v145h147v-145zM349 766h-147v145h147v-145z" />
    <glyph glyph-name="Yacute" unicode="&#xdd;" horiz-adv-x="743" 
d="M458 291v-291h-174v291l-279 423h193l176 -273h2l174 273h188zM549 920l-123 -159h-104l50 159h177z" />
    <glyph glyph-name="Thorn" unicode="&#xde;" horiz-adv-x="697" 
d="M673 364q0 -114 -72 -174.5t-207 -60.5h-154v-129h-169v714h169v-112h152q137 0 209 -61t72 -177zM240 468v-207h134q65 0 97 25.5t32 77.5q0 53 -31.5 78.5t-97.5 25.5h-134z" />
    <glyph glyph-name="germandbls" unicode="&#xdf;" horiz-adv-x="652" 
d="M564 558q0 -49 -24 -90t-61 -58q63 -20 100.5 -71t37.5 -119q0 -104 -67.5 -165t-178.5 -61q-18 0 -33.5 2t-36.5 6v126q11 -2 22 -2.5t23 -0.5q55 0 87 27.5t32 77.5q0 49 -34 76t-95 27h-27v125h17q41 0 64.5 22t23.5 62q0 36 -22 58t-59 22q-46 0 -71.5 -31.5
t-25.5 -86.5v-504h-167v495q0 116 71.5 184.5t192.5 68.5q106 0 168.5 -52t62.5 -138z" />
    <glyph glyph-name="agrave" unicode="&#xe0;" horiz-adv-x="593" 
d="M539 0h-159q-3 27 -4 43.5t-1 31.5q-19 -42 -61.5 -64.5t-102.5 -22.5q-82 0 -130 41t-48 110t47 108t143 49l144 14v21q0 35 -20 54.5t-57 19.5q-33 0 -53 -17.5t-22 -47.5h-160q8 87 72 135.5t169 48.5q116 0 175 -53.5t59 -158.5v-166q0 -46 2 -79.5t7 -66.5zM198 150
q0 -26 17 -40.5t47 -14.5q46 0 75.5 27t29.5 72v25l-92 -11q-42 -5 -59.5 -18.5t-17.5 -39.5zM313 736l51 -161h-112l-122 161h183z" />
    <glyph glyph-name="aacute" unicode="&#xe1;" horiz-adv-x="593" 
d="M539 0h-159q-3 27 -4 43.5t-1 31.5q-19 -42 -61.5 -64.5t-102.5 -22.5q-82 0 -130 41t-48 110t47 108t143 49l144 14v21q0 35 -20 54.5t-57 19.5q-33 0 -53 -17.5t-22 -47.5h-160q8 87 72 135.5t169 48.5q116 0 175 -53.5t59 -158.5v-166q0 -46 2 -79.5t7 -66.5zM198 150
q0 -26 17 -40.5t47 -14.5q46 0 75.5 27t29.5 72v25l-92 -11q-42 -5 -59.5 -18.5t-17.5 -39.5zM457 736l-122 -161h-112l51 161h183z" />
    <glyph glyph-name="acircumflex" unicode="&#xe2;" horiz-adv-x="593" 
d="M539 0h-159q-3 27 -4 43.5t-1 31.5q-19 -42 -61.5 -64.5t-102.5 -22.5q-82 0 -130 41t-48 110t47 108t143 49l144 14v21q0 35 -20 54.5t-57 19.5q-33 0 -53 -17.5t-22 -47.5h-160q8 87 72 135.5t169 48.5q116 0 175 -53.5t59 -158.5v-166q0 -46 2 -79.5t7 -66.5zM198 150
q0 -26 17 -40.5t47 -14.5q46 0 75.5 27t29.5 72v25l-92 -11q-42 -5 -59.5 -18.5t-17.5 -39.5zM121 574l101 162h142l101 -162h-93l-79 73l-79 -73h-93z" />
    <glyph glyph-name="atilde" unicode="&#xe3;" horiz-adv-x="593" 
d="M539 0h-159q-3 27 -4 43.5t-1 31.5q-19 -42 -61.5 -64.5t-102.5 -22.5q-82 0 -130 41t-48 110t47 108t143 49l144 14v21q0 35 -20 54.5t-57 19.5q-33 0 -53 -17.5t-22 -47.5h-160q8 87 72 135.5t169 48.5q116 0 175 -53.5t59 -158.5v-166q0 -46 2 -79.5t7 -66.5zM198 150
q0 -26 17 -40.5t47 -14.5q46 0 75.5 27t29.5 72v25l-92 -11q-42 -5 -59.5 -18.5t-17.5 -39.5zM291 599q-25 16 -36 20.5t-20 4.5q-16 0 -26 -15t-11 -42h-88q0 77 28 123t75 46q18 0 37 -7t53 -28q25 -15 36 -19.5t20 -4.5q16 0 26 15.5t11 41.5h88q0 -77 -28 -123.5
t-75 -46.5q-18 0 -37 7t-53 28z" />
    <glyph glyph-name="adieresis" unicode="&#xe4;" horiz-adv-x="593" 
d="M539 0h-159q-3 27 -4 43.5t-1 31.5q-19 -42 -61.5 -64.5t-102.5 -22.5q-82 0 -130 41t-48 110t47 108t143 49l144 14v21q0 35 -20 54.5t-57 19.5q-33 0 -53 -17.5t-22 -47.5h-160q8 87 72 135.5t169 48.5q116 0 175 -53.5t59 -158.5v-166q0 -46 2 -79.5t7 -66.5zM198 150
q0 -26 17 -40.5t47 -14.5q46 0 75.5 27t29.5 72v25l-92 -11q-42 -5 -59.5 -18.5t-17.5 -39.5zM476 583h-147v145h147v-145zM261 583h-147v145h147v-145z" />
    <glyph glyph-name="aring" unicode="&#xe5;" horiz-adv-x="593" 
d="M539 0h-159q-3 27 -4 43.5t-1 31.5q-19 -42 -61.5 -64.5t-102.5 -22.5q-82 0 -130 41t-48 110t47 108t143 49l144 14v21q0 35 -20 54.5t-57 19.5q-33 0 -53 -17.5t-22 -47.5h-160q8 87 72 135.5t169 48.5q116 0 175 -53.5t59 -158.5v-166q0 -46 2 -79.5t7 -66.5zM198 150
q0 -26 17 -40.5t47 -14.5q46 0 75.5 27t29.5 72v25l-92 -11q-42 -5 -59.5 -18.5t-17.5 -39.5zM297 562q-49 0 -84.5 35t-35.5 84q0 50 35.5 85t84.5 35t84 -35t35 -85q0 -49 -35 -84t-84 -35zM297 629q21 0 36.5 15.5t15.5 36.5t-15.5 36.5t-36.5 15.5q-22 0 -37.5 -15
t-15.5 -37q0 -21 15.5 -36.5t37.5 -15.5z" />
    <glyph glyph-name="ae" unicode="&#xe6;" horiz-adv-x="913" 
d="M721 168h154q-16 -84 -82.5 -132t-165.5 -48q-57 0 -108.5 22t-88.5 61q-38 -42 -86.5 -62.5t-108.5 -20.5q-93 0 -147.5 41.5t-54.5 114.5q0 80 64 120t192 40h78v28q0 35 -20 54t-56 19q-33 0 -53.5 -17.5t-22.5 -47.5h-160q8 86 71 135t165 49q54 0 96.5 -15t70.5 -44
q35 29 78 44t89 15q116 0 184 -72t68 -188v-43h-359q6 -56 33.5 -85t75.5 -29q36 0 59.5 15.5t34.5 45.5zM625 408q-43 0 -69.5 -26.5t-35.5 -77.5h202q0 46 -26.5 75t-70.5 29zM197 159q0 -27 18.5 -42.5t50.5 -15.5q46 0 73.5 25t27.5 69v26h-86q-40 0 -62 -16t-22 -46z
" />
    <glyph glyph-name="ccedilla" unicode="&#xe7;" horiz-adv-x="573" 
d="M418 -113q0 -42 -37.5 -67.5t-95.5 -25.5q-25 0 -51 5t-46 13v67q32 -12 52.5 -16.5t42.5 -4.5q21 0 34 7t13 20q0 20 -25.5 26t-53.5 -3l-26 24l37 59q-104 13 -165.5 84.5t-61.5 180.5q0 121 74.5 194.5t196.5 73.5q100 0 163.5 -53t74.5 -145h-158q-5 36 -26.5 56.5
t-55.5 20.5q-48 0 -74.5 -39t-26.5 -108t26.5 -107.5t74.5 -38.5q34 0 55.5 20.5t26.5 56.5h158q-11 -89 -70.5 -142t-153.5 -57l-16 -25q49 4 81.5 -17t32.5 -59z" />
    <glyph glyph-name="egrave" unicode="&#xe8;" horiz-adv-x="591" 
d="M399 167h154q-17 -83 -82.5 -131t-164.5 -48q-120 0 -195.5 73.5t-75.5 194.5t75 194.5t194 73.5q115 0 183 -72t68 -188v-45h-359q7 -56 35 -84.5t75 -28.5q35 0 59 15.5t34 45.5zM304 407q-42 0 -69 -25t-36 -74h201q0 44 -26 71.5t-70 27.5zM320 736l51 -161h-112
l-122 161h183z" />
    <glyph glyph-name="eacute" unicode="&#xe9;" horiz-adv-x="591" 
d="M399 167h154q-17 -83 -82.5 -131t-164.5 -48q-120 0 -195.5 73.5t-75.5 194.5t75 194.5t194 73.5q115 0 183 -72t68 -188v-45h-359q7 -56 35 -84.5t75 -28.5q35 0 59 15.5t34 45.5zM304 407q-42 0 -69 -25t-36 -74h201q0 44 -26 71.5t-70 27.5zM477 736l-122 -161h-112
l51 161h183z" />
    <glyph glyph-name="ecircumflex" unicode="&#xea;" horiz-adv-x="591" 
d="M399 167h154q-17 -83 -82.5 -131t-164.5 -48q-120 0 -195.5 73.5t-75.5 194.5t75 194.5t194 73.5q115 0 183 -72t68 -188v-45h-359q7 -56 35 -84.5t75 -28.5q35 0 59 15.5t34 45.5zM304 407q-42 0 -69 -25t-36 -74h201q0 44 -26 71.5t-70 27.5zM135 574l101 162h142
l101 -162h-93l-79 73l-79 -73h-93z" />
    <glyph glyph-name="edieresis" unicode="&#xeb;" horiz-adv-x="591" 
d="M399 167h154q-17 -83 -82.5 -131t-164.5 -48q-120 0 -195.5 73.5t-75.5 194.5t75 194.5t194 73.5q115 0 183 -72t68 -188v-45h-359q7 -56 35 -84.5t75 -28.5q35 0 59 15.5t34 45.5zM304 407q-42 0 -69 -25t-36 -74h201q0 44 -26 71.5t-70 27.5zM487 583h-147v145h147
v-145zM272 583h-147v145h147v-145z" />
    <glyph glyph-name="igrave" unicode="&#xec;" horiz-adv-x="305" 
d="M69 0v512h167v-512h-167zM164 736l51 -161h-112l-122 161h183z" />
    <glyph glyph-name="iacute" unicode="&#xed;" horiz-adv-x="305" 
d="M69 0v512h167v-512h-167zM333 736l-122 -161h-112l51 161h183z" />
    <glyph glyph-name="icircumflex" unicode="&#xee;" horiz-adv-x="305" 
d="M69 0v512h167v-512h-167zM-19 574l101 162h142l101 -162h-93l-79 73l-79 -73h-93z" />
    <glyph glyph-name="idieresis" unicode="&#xef;" horiz-adv-x="305" 
d="M69 0v512h167v-512h-167zM334 583h-147v145h147v-145zM119 583h-147v145h147v-145z" />
    <glyph glyph-name="eth" unicode="&#xf0;" horiz-adv-x="616" 
d="M580 276q0 -132 -74.5 -210t-197.5 -78q-124 0 -198.5 73t-74.5 196q0 113 76 186t191 73q22 0 41 -5t29 -14q-16 25 -35.5 48.5t-42.5 46.5l-134 -44l-30 58l110 36q-25 22 -55.5 44t-66.5 44v6h188q20 -12 37 -24t32 -25l93 31l31 -58l-70 -23q73 -76 112 -169t39 -192
zM308 399q-51 0 -78 -37.5t-27 -107.5t27 -108t78 -38q50 0 77 38t27 108t-27 107.5t-77 37.5z" />
    <glyph glyph-name="ntilde" unicode="&#xf1;" horiz-adv-x="645" 
d="M69 512h165v-79q20 42 62 66.5t96 24.5q89 0 139.5 -52t50.5 -144v-328h-168v288q0 54 -21 80.5t-64 26.5q-44 0 -68.5 -31t-24.5 -90v-274h-167v512zM318 599q-25 16 -36 20.5t-20 4.5q-16 0 -26 -15t-11 -42h-88q0 77 28 123t75 46q18 0 37 -7t53 -28q25 -15 36 -19.5
t20 -4.5q16 0 26 15.5t11 41.5h88q0 -77 -28 -123.5t-75 -46.5q-18 0 -37 7t-53 28z" />
    <glyph glyph-name="ograve" unicode="&#xf2;" horiz-adv-x="616" 
d="M308 524q123 0 197.5 -73t74.5 -195t-74.5 -195t-197.5 -73q-124 0 -198.5 73t-74.5 195t74.5 195t198.5 73zM308 404q-51 0 -78 -38.5t-27 -109.5t27 -109.5t78 -38.5q50 0 77 38t27 110t-27 110t-77 38zM325 736l51 -161h-112l-122 161h183z" />
    <glyph glyph-name="oacute" unicode="&#xf3;" horiz-adv-x="616" 
d="M308 524q123 0 197.5 -73t74.5 -195t-74.5 -195t-197.5 -73q-124 0 -198.5 73t-74.5 195t74.5 195t198.5 73zM308 404q-51 0 -78 -38.5t-27 -109.5t27 -109.5t78 -38.5q50 0 77 38t27 110t-27 110t-77 38zM476 736l-122 -161h-112l51 161h183z" />
    <glyph glyph-name="ocircumflex" unicode="&#xf4;" horiz-adv-x="616" 
d="M308 524q123 0 197.5 -73t74.5 -195t-74.5 -195t-197.5 -73q-124 0 -198.5 73t-74.5 195t74.5 195t198.5 73zM308 404q-51 0 -78 -38.5t-27 -109.5t27 -109.5t78 -38.5q50 0 77 38t27 110t-27 110t-77 38zM137 574l101 162h142l101 -162h-93l-79 73l-79 -73h-93z" />
    <glyph glyph-name="otilde" unicode="&#xf5;" horiz-adv-x="616" 
d="M308 524q123 0 197.5 -73t74.5 -195t-74.5 -195t-197.5 -73q-124 0 -198.5 73t-74.5 195t74.5 195t198.5 73zM308 404q-51 0 -78 -38.5t-27 -109.5t27 -109.5t78 -38.5q50 0 77 38t27 110t-27 110t-77 38zM302 599q-25 16 -36 20.5t-20 4.5q-16 0 -26 -15t-11 -42h-88
q0 77 28 123t75 46q18 0 37 -7t53 -28q25 -15 36 -19.5t20 -4.5q16 0 26 15.5t11 41.5h88q0 -77 -28 -123.5t-75 -46.5q-18 0 -37 7t-53 28z" />
    <glyph glyph-name="odieresis" unicode="&#xf6;" horiz-adv-x="616" 
d="M308 524q123 0 197.5 -73t74.5 -195t-74.5 -195t-197.5 -73q-124 0 -198.5 73t-74.5 195t74.5 195t198.5 73zM308 404q-51 0 -78 -38.5t-27 -109.5t27 -109.5t78 -38.5q50 0 77 38t27 110t-27 110t-77 38zM490 583h-147v145h147v-145zM275 583h-147v145h147v-145z" />
    <glyph glyph-name="divide" unicode="&#xf7;" horiz-adv-x="660" 
d="M402 483h-144v138h144v-138zM597 273h-535v119h535v-119zM402 43h-144v139h144v-139z" />
    <glyph glyph-name="oslash" unicode="&#xf8;" horiz-adv-x="616" 
d="M580 256q0 -122 -74.5 -195t-197.5 -73q-44 0 -83.5 10t-72.5 30l-57 -61l-56 56l53 57q-28 34 -42.5 79t-14.5 97q0 122 74.5 195t198.5 73q46 0 86.5 -11t73.5 -32l52 56l56 -57l-49 -53q26 -34 39.5 -77t13.5 -94zM308 411q-53 0 -82.5 -41t-29.5 -114
q0 -16 1.5 -30.5t4.5 -28.5l176 188q-14 13 -31.5 19.5t-38.5 6.5zM308 101q53 0 82.5 41t29.5 114q0 13 -1.5 26.5t-3.5 26.5l-173 -185q13 -11 29.5 -17t36.5 -6z" />
    <glyph glyph-name="ugrave" unicode="&#xf9;" horiz-adv-x="637" 
d="M569 512v-512h-166v79q-19 -42 -61 -66.5t-94 -24.5q-87 0 -136 51.5t-49 144.5v328h169v-290q0 -53 19.5 -79t60.5 -26q42 0 65 31.5t23 89.5v274h169zM332 736l51 -161h-112l-122 161h183z" />
    <glyph glyph-name="uacute" unicode="&#xfa;" horiz-adv-x="637" 
d="M569 512v-512h-166v79q-19 -42 -61 -66.5t-94 -24.5q-87 0 -136 51.5t-49 144.5v328h169v-290q0 -53 19.5 -79t60.5 -26q42 0 65 31.5t23 89.5v274h169zM485 736l-122 -161h-112l51 161h183z" />
    <glyph glyph-name="ucircumflex" unicode="&#xfb;" horiz-adv-x="637" 
d="M569 512v-512h-166v79q-19 -42 -61 -66.5t-94 -24.5q-87 0 -136 51.5t-49 144.5v328h169v-290q0 -53 19.5 -79t60.5 -26q42 0 65 31.5t23 89.5v274h169zM146 574l101 162h142l101 -162h-93l-79 73l-79 -73h-93z" />
    <glyph glyph-name="udieresis" unicode="&#xfc;" horiz-adv-x="637" 
d="M569 512v-512h-166v79q-19 -42 -61 -66.5t-94 -24.5q-87 0 -136 51.5t-49 144.5v328h169v-290q0 -53 19.5 -79t60.5 -26q42 0 65 31.5t23 89.5v274h169zM499 583h-147v145h147v-145zM284 583h-147v145h147v-145z" />
    <glyph glyph-name="yacute" unicode="&#xfd;" horiz-adv-x="603" 
d="M111 -61q45 0 64 14t33 52l-195 507h168l124 -358h2l119 358h164l-194 -515q-37 -97 -94.5 -140t-151.5 -43q-20 0 -37.5 1.5t-31.5 3.5v122q8 -1 13.5 -1.5t16.5 -0.5zM483 736l-122 -161h-112l51 161h183z" />
    <glyph glyph-name="thorn" unicode="&#xfe;" horiz-adv-x="650" 
d="M391 -12q-51 0 -93 24t-62 64v-254h-167v914h166v-300q20 40 62 64t94 24q101 0 162.5 -74t61.5 -194t-61.5 -194t-162.5 -74zM339 405q-50 0 -78 -36.5t-28 -101.5v-22q0 -64 28 -100.5t78 -36.5q52 0 80 38.5t28 109.5t-28.5 110t-79.5 39z" />
    <glyph glyph-name="ydieresis" unicode="&#xff;" horiz-adv-x="603" 
d="M111 -61q45 0 64 14t33 52l-195 507h168l124 -358h2l119 358h164l-194 -515q-37 -97 -94.5 -140t-151.5 -43q-20 0 -37.5 1.5t-31.5 3.5v122q8 -1 13.5 -1.5t16.5 -0.5zM493 583h-147v145h147v-145zM278 583h-147v145h147v-145z" />
    <glyph glyph-name="Amacron" unicode="&#x100;" horiz-adv-x="777" 
d="M771 0h-177l-57 153h-302l-59 -153h-169l284 714h195zM389 549h-3l-101 -264h203zM566 774h-355v105h355v-105z" />
    <glyph glyph-name="amacron" unicode="&#x101;" horiz-adv-x="593" 
d="M539 0h-159q-3 27 -4 43.5t-1 31.5q-19 -42 -61.5 -64.5t-102.5 -22.5q-82 0 -130 41t-48 110t47 108t143 49l144 14v21q0 35 -20 54.5t-57 19.5q-33 0 -53 -17.5t-22 -47.5h-160q8 87 72 135.5t169 48.5q116 0 175 -53.5t59 -158.5v-166q0 -46 2 -79.5t7 -66.5zM198 150
q0 -26 17 -40.5t47 -14.5q46 0 75.5 27t29.5 72v25l-92 -11q-42 -5 -59.5 -18.5t-17.5 -39.5zM456 583h-325v105h325v-105z" />
    <glyph glyph-name="Abreve" unicode="&#x102;" horiz-adv-x="777" 
d="M771 0h-177l-57 153h-302l-59 -153h-169l284 714h195zM389 549h-3l-101 -264h203zM389 758q-71 0 -113 45.5t-42 122.5h97q0 -33 15.5 -51.5t42.5 -18.5t42 18.5t15 51.5h98q0 -76 -42 -122t-113 -46z" />
    <glyph glyph-name="abreve" unicode="&#x103;" horiz-adv-x="593" 
d="M539 0h-159q-3 27 -4 43.5t-1 31.5q-19 -42 -61.5 -64.5t-102.5 -22.5q-82 0 -130 41t-48 110t47 108t143 49l144 14v21q0 35 -20 54.5t-57 19.5q-33 0 -53 -17.5t-22 -47.5h-160q8 87 72 135.5t169 48.5q116 0 175 -53.5t59 -158.5v-166q0 -46 2 -79.5t7 -66.5zM198 150
q0 -26 17 -40.5t47 -14.5q46 0 75.5 27t29.5 72v25l-92 -11q-42 -5 -59.5 -18.5t-17.5 -39.5zM293 569q-71 0 -113 45t-42 122h96q1 -34 16.5 -52.5t42.5 -18.5t42.5 19t15.5 52h97q0 -76 -42 -121.5t-113 -45.5z" />
    <glyph glyph-name="Aogonek" unicode="&#x104;" horiz-adv-x="777" 
d="M708 -98v-80q-19 -7 -35.5 -9.5t-37.5 -2.5q-46 0 -74 23.5t-28 62.5q0 23 12 48t45 66l-53 143h-302l-59 -153h-169l284 714h195l285 -714h-101q-27 -36 -34 -49.5t-7 -26.5t9 -20.5t24 -7.5q12 0 21.5 1.5t24.5 4.5zM389 549h-3l-101 -264h203z" />
    <glyph glyph-name="aogonek" unicode="&#x105;" horiz-adv-x="593" 
d="M502 -98v-80q-19 -7 -35.5 -9.5t-37.5 -2.5q-46 0 -74 23.5t-28 62.5q0 23 11.5 47.5t41.5 60.5q-3 25 -4 40.5t-1 30.5q-19 -42 -61.5 -64.5t-102.5 -22.5q-82 0 -130 41t-48 110t47 108t143 49l144 14v21q0 35 -20 54.5t-57 19.5q-33 0 -53 -17.5t-22 -47.5h-160
q8 87 72 135.5t169 48.5q116 0 175 -53.5t59 -158.5v-166q0 -46 2 -79.5t7 -66.5h-75q-27 -36 -34 -49.5t-7 -26.5t9 -20.5t24 -7.5q12 0 21.5 1.5t24.5 4.5zM198 150q0 -26 17 -40.5t47 -14.5q46 0 75.5 27t29.5 72v25l-92 -11q-42 -5 -59.5 -18.5t-17.5 -39.5z" />
    <glyph glyph-name="Cacute" unicode="&#x106;" horiz-adv-x="724" 
d="M385 593q-83 0 -128.5 -61.5t-45.5 -174.5t45.5 -174.5t128.5 -61.5q59 0 95 30t47 88h168q-23 -121 -103 -186t-207 -65q-158 0 -254 101.5t-96 267.5q0 165 96 267t254 102q128 0 207.5 -65t102.5 -186h-168q-11 58 -47 88t-95 30zM555 920l-123 -159h-104l50 159h177z
" />
    <glyph glyph-name="cacute" unicode="&#x107;" horiz-adv-x="573" 
d="M306 -12q-122 0 -196.5 73.5t-74.5 194.5t74.5 194.5t196.5 73.5q100 0 163.5 -53t74.5 -145h-158q-5 36 -26.5 56.5t-55.5 20.5q-48 0 -74.5 -39t-26.5 -108t26.5 -107.5t74.5 -38.5q34 0 55.5 20.5t26.5 56.5h158q-11 -92 -74.5 -145.5t-163.5 -53.5zM477 736
l-122 -161h-112l51 161h183z" />
    <glyph glyph-name="Ccircumflex" unicode="&#x108;" horiz-adv-x="724" 
d="M385 593q-83 0 -128.5 -61.5t-45.5 -174.5t45.5 -174.5t128.5 -61.5q59 0 95 30t47 88h168q-23 -121 -103 -186t-207 -65q-158 0 -254 101.5t-96 267.5q0 165 96 267t254 102q128 0 207.5 -65t102.5 -186h-168q-11 58 -47 88t-95 30zM215 760l101 160h142l101 -160h-93
l-79 69l-79 -69h-93z" />
    <glyph glyph-name="ccircumflex" unicode="&#x109;" horiz-adv-x="573" 
d="M306 -12q-122 0 -196.5 73.5t-74.5 194.5t74.5 194.5t196.5 73.5q100 0 163.5 -53t74.5 -145h-158q-5 36 -26.5 56.5t-55.5 20.5q-48 0 -74.5 -39t-26.5 -108t26.5 -107.5t74.5 -38.5q34 0 55.5 20.5t26.5 56.5h158q-11 -92 -74.5 -145.5t-163.5 -53.5zM133 574l101 162
h142l101 -162h-93l-79 73l-79 -73h-93z" />
    <glyph glyph-name="Cdotaccent" unicode="&#x10a;" horiz-adv-x="724" 
d="M385 593q-83 0 -128.5 -61.5t-45.5 -174.5t45.5 -174.5t128.5 -61.5q59 0 95 30t47 88h168q-23 -121 -103 -186t-207 -65q-158 0 -254 101.5t-96 267.5q0 165 96 267t254 102q128 0 207.5 -65t102.5 -186h-168q-11 58 -47 88t-95 30zM471 766h-172v145h172v-145z" />
    <glyph glyph-name="cdotaccent" unicode="&#x10b;" horiz-adv-x="573" 
d="M306 -12q-122 0 -196.5 73.5t-74.5 194.5t74.5 194.5t196.5 73.5q100 0 163.5 -53t74.5 -145h-158q-5 36 -26.5 56.5t-55.5 20.5q-48 0 -74.5 -39t-26.5 -108t26.5 -107.5t74.5 -38.5q34 0 55.5 20.5t26.5 56.5h158q-11 -92 -74.5 -145.5t-163.5 -53.5zM391 583h-172v145
h172v-145z" />
    <glyph glyph-name="Ccaron" unicode="&#x10c;" horiz-adv-x="724" 
d="M385 593q-83 0 -128.5 -61.5t-45.5 -174.5t45.5 -174.5t128.5 -61.5q59 0 95 30t47 88h168q-23 -121 -103 -186t-207 -65q-158 0 -254 101.5t-96 267.5q0 165 96 267t254 102q128 0 207.5 -65t102.5 -186h-168q-11 58 -47 88t-95 30zM308 920l79 -69l79 69h93l-101 -160
h-142l-101 160h93z" />
    <glyph glyph-name="ccaron" unicode="&#x10d;" horiz-adv-x="573" 
d="M306 -12q-122 0 -196.5 73.5t-74.5 194.5t74.5 194.5t196.5 73.5q100 0 163.5 -53t74.5 -145h-158q-5 36 -26.5 56.5t-55.5 20.5q-48 0 -74.5 -39t-26.5 -108t26.5 -107.5t74.5 -38.5q34 0 55.5 20.5t26.5 56.5h158q-11 -92 -74.5 -145.5t-163.5 -53.5zM226 736l79 -73
l79 73h93l-101 -162h-142l-101 162h93z" />
    <glyph glyph-name="Dcaron" unicode="&#x10e;" horiz-adv-x="764" 
d="M71 714h293q166 0 265.5 -97t99.5 -259t-99.5 -260t-265.5 -98h-293v714zM553 358q0 109 -48.5 166t-140.5 57h-124v-447h124q92 0 140.5 57.5t48.5 166.5zM281 920l79 -69l79 69h93l-101 -160h-142l-101 160h93z" />
    <glyph glyph-name="dcaron" unicode="&#x10f;" horiz-adv-x="673" 
d="M259 -12q-101 0 -162.5 74t-61.5 194t61.5 194t162.5 74q52 0 93.5 -24t61.5 -64v300h167v-736h-165v76q-20 -40 -63 -64t-94 -24zM311 405q-51 0 -79.5 -39t-28.5 -110t28 -109.5t80 -38.5q50 0 78 36.5t28 100.5v22q0 65 -28 101.5t-78 36.5zM844 736l-110 -199h-80
l22 199h168z" />
    <glyph glyph-name="Dcroat" unicode="&#x110;" horiz-adv-x="789" 
d="M754 358q0 -162 -99.5 -260t-265.5 -98h-293v299h-66v126h66v289h293q166 0 265.5 -97t99.5 -259zM265 299v-165h124q92 0 140.5 57.5t48.5 166.5t-48.5 166t-140.5 57h-124v-156h102v-126h-102z" />
    <glyph glyph-name="dcroat" unicode="&#x111;" horiz-adv-x="668" 
d="M416 0v76q-20 -40 -63 -64t-94 -24q-101 0 -162.5 74t-61.5 194t61.5 194t162.5 74q52 0 93.5 -24t61.5 -64v133h-109v94h109v73h167v-73h66v-94h-66v-569h-165zM311 108q50 0 78 36.5t28 100.5v22q0 65 -28 101.5t-78 36.5q-51 0 -79.5 -39t-28.5 -110t28 -109.5
t80 -38.5z" />
    <glyph glyph-name="Emacron" unicode="&#x112;" horiz-adv-x="671" 
d="M618 134v-134h-547v714h540v-133h-371v-156h327v-133h-327v-158h378zM521 774h-355v105h355v-105z" />
    <glyph glyph-name="emacron" unicode="&#x113;" horiz-adv-x="591" 
d="M399 167h154q-17 -83 -82.5 -131t-164.5 -48q-120 0 -195.5 73.5t-75.5 194.5t75 194.5t194 73.5q115 0 183 -72t68 -188v-45h-359q7 -56 35 -84.5t75 -28.5q35 0 59 15.5t34 45.5zM304 407q-42 0 -69 -25t-36 -74h201q0 44 -26 71.5t-70 27.5zM467 583h-325v105h325
v-105z" />
    <glyph glyph-name="Ebreve" unicode="&#x114;" horiz-adv-x="671" 
d="M618 134v-134h-547v714h540v-133h-371v-156h327v-133h-327v-158h378zM343 758q-71 0 -113 45.5t-42 122.5h97q0 -33 15.5 -51.5t42.5 -18.5t42 18.5t15 51.5h98q0 -76 -42 -122t-113 -46z" />
    <glyph glyph-name="ebreve" unicode="&#x115;" horiz-adv-x="591" 
d="M399 167h154q-17 -83 -82.5 -131t-164.5 -48q-120 0 -195.5 73.5t-75.5 194.5t75 194.5t194 73.5q115 0 183 -72t68 -188v-45h-359q7 -56 35 -84.5t75 -28.5q35 0 59 15.5t34 45.5zM304 407q-42 0 -69 -25t-36 -74h201q0 44 -26 71.5t-70 27.5zM301 569q-71 0 -113 45
t-42 122h96q1 -34 16.5 -52.5t42.5 -18.5t42.5 19t15.5 52h97q0 -76 -42 -121.5t-113 -45.5z" />
    <glyph glyph-name="Edotaccent" unicode="&#x116;" horiz-adv-x="671" 
d="M618 134v-134h-547v714h540v-133h-371v-156h327v-133h-327v-158h378zM429 766h-172v145h172v-145z" />
    <glyph glyph-name="edotaccent" unicode="&#x117;" horiz-adv-x="591" 
d="M399 167h154q-17 -83 -82.5 -131t-164.5 -48q-120 0 -195.5 73.5t-75.5 194.5t75 194.5t194 73.5q115 0 183 -72t68 -188v-45h-359q7 -56 35 -84.5t75 -28.5q35 0 59 15.5t34 45.5zM304 407q-42 0 -69 -25t-36 -74h201q0 44 -26 71.5t-70 27.5zM391 583h-172v145h172
v-145z" />
    <glyph glyph-name="Eogonek" unicode="&#x118;" horiz-adv-x="671" 
d="M583 -98v-80q-19 -7 -35.5 -9.5t-37.5 -2.5q-46 0 -74 23.5t-28 62.5q0 22 11.5 46.5t37.5 57.5h-386v714h540v-133h-371v-156h327v-133h-327v-158h378v-134h-73q-27 -36 -34 -49.5t-7 -26.5t9 -20.5t24 -7.5q12 0 21.5 1.5t24.5 4.5z" />
    <glyph glyph-name="eogonek" unicode="&#x119;" horiz-adv-x="591" 
d="M468 -98v-80q-18 -7 -34.5 -9.5t-37.5 -2.5q-46 0 -74.5 23.5t-28.5 62.5q0 21 9.5 43t31.5 50q-5 -1 -10.5 -1h-17.5q-120 0 -195.5 73.5t-75.5 194.5t75 194.5t194 73.5q115 0 183 -72t68 -188v-45h-359q7 -56 35 -84.5t75 -28.5q35 0 59 15.5t34 45.5h154
q-7 -39 -31.5 -74t-73.5 -73q-29 -23 -44 -46.5t-15 -46.5q0 -15 9.5 -23t25.5 -8q11 0 20 1.5t24 4.5zM304 407q-42 0 -69 -25t-36 -74h201q0 44 -26 71.5t-70 27.5z" />
    <glyph glyph-name="Ecaron" unicode="&#x11a;" horiz-adv-x="671" 
d="M618 134v-134h-547v714h540v-133h-371v-156h327v-133h-327v-158h378zM264 920l79 -69l79 69h93l-101 -160h-142l-101 160h93z" />
    <glyph glyph-name="ecaron" unicode="&#x11b;" horiz-adv-x="591" 
d="M399 167h154q-17 -83 -82.5 -131t-164.5 -48q-120 0 -195.5 73.5t-75.5 194.5t75 194.5t194 73.5q115 0 183 -72t68 -188v-45h-359q7 -56 35 -84.5t75 -28.5q35 0 59 15.5t34 45.5zM304 407q-42 0 -69 -25t-36 -74h201q0 44 -26 71.5t-70 27.5zM228 736l79 -73l79 73h93
l-101 -162h-142l-101 162h93z" />
    <glyph glyph-name="Gcircumflex" unicode="&#x11c;" horiz-adv-x="778" 
d="M379 -12q-156 0 -250 102t-94 268q0 165 98.5 266.5t259.5 101.5q129 0 209.5 -63.5t106.5 -183.5h-172q-12 57 -48 85.5t-96 28.5q-87 0 -134.5 -61.5t-47.5 -173.5q0 -113 47.5 -175t134.5 -62q66 0 107 32.5t41 83.5v13h-111v122h286v-372h-134l-10 86
q-18 -42 -74 -70t-119 -28zM225 760l101 160h142l101 -160h-93l-79 69l-79 -69h-93z" />
    <glyph glyph-name="gcircumflex" unicode="&#x11d;" horiz-adv-x="653" 
d="M308 -77q53 0 81 28.5t28 84.5v71q-21 -41 -62.5 -65.5t-92.5 -24.5q-102 0 -164 70t-62 184q0 113 62 183t164 70q51 0 94 -24.5t63 -64.5v77h165v-451q0 -121 -72 -186t-203 -65q-111 0 -180.5 44.5t-83.5 123.5h165q8 -28 32.5 -41.5t65.5 -13.5zM312 135
q50 0 79.5 34.5t29.5 92.5v19q0 57 -30 91t-79 34q-51 0 -79.5 -35.5t-28.5 -99.5t28.5 -100t79.5 -36zM160 574l101 162h142l101 -162h-93l-79 73l-79 -73h-93z" />
    <glyph glyph-name="Gbreve" unicode="&#x11e;" horiz-adv-x="778" 
d="M379 -12q-156 0 -250 102t-94 268q0 165 98.5 266.5t259.5 101.5q129 0 209.5 -63.5t106.5 -183.5h-172q-12 57 -48 85.5t-96 28.5q-87 0 -134.5 -61.5t-47.5 -173.5q0 -113 47.5 -175t134.5 -62q66 0 107 32.5t41 83.5v13h-111v122h286v-372h-134l-10 86
q-18 -42 -74 -70t-119 -28zM397 758q-71 0 -113 45.5t-42 122.5h97q0 -33 15.5 -51.5t42.5 -18.5t42 18.5t15 51.5h98q0 -76 -42 -122t-113 -46z" />
    <glyph glyph-name="gbreve" unicode="&#x11f;" horiz-adv-x="653" 
d="M308 -77q53 0 81 28.5t28 84.5v71q-21 -41 -62.5 -65.5t-92.5 -24.5q-102 0 -164 70t-62 184q0 113 62 183t164 70q51 0 94 -24.5t63 -64.5v77h165v-451q0 -121 -72 -186t-203 -65q-111 0 -180.5 44.5t-83.5 123.5h165q8 -28 32.5 -41.5t65.5 -13.5zM312 135
q50 0 79.5 34.5t29.5 92.5v19q0 57 -30 91t-79 34q-51 0 -79.5 -35.5t-28.5 -99.5t28.5 -100t79.5 -36zM332 569q-71 0 -113 45t-42 122h96q1 -34 16.5 -52.5t42.5 -18.5t42.5 19t15.5 52h97q0 -76 -42 -121.5t-113 -45.5z" />
    <glyph glyph-name="Gdotaccent" unicode="&#x120;" horiz-adv-x="778" 
d="M379 -12q-156 0 -250 102t-94 268q0 165 98.5 266.5t259.5 101.5q129 0 209.5 -63.5t106.5 -183.5h-172q-12 57 -48 85.5t-96 28.5q-87 0 -134.5 -61.5t-47.5 -173.5q0 -113 47.5 -175t134.5 -62q66 0 107 32.5t41 83.5v13h-111v122h286v-372h-134l-10 86
q-18 -42 -74 -70t-119 -28zM483 766h-172v145h172v-145z" />
    <glyph glyph-name="gdotaccent" unicode="&#x121;" horiz-adv-x="653" 
d="M308 -77q53 0 81 28.5t28 84.5v71q-21 -41 -62.5 -65.5t-92.5 -24.5q-102 0 -164 70t-62 184q0 113 62 183t164 70q51 0 94 -24.5t63 -64.5v77h165v-451q0 -121 -72 -186t-203 -65q-111 0 -180.5 44.5t-83.5 123.5h165q8 -28 32.5 -41.5t65.5 -13.5zM312 135
q50 0 79.5 34.5t29.5 92.5v19q0 57 -30 91t-79 34q-51 0 -79.5 -35.5t-28.5 -99.5t28.5 -100t79.5 -36zM410 583h-172v145h172v-145z" />
    <glyph glyph-name="Gcommaaccent" unicode="&#x122;" horiz-adv-x="778" 
d="M379 -12q-156 0 -250 102t-94 268q0 165 98.5 266.5t259.5 101.5q129 0 209.5 -63.5t106.5 -183.5h-172q-12 57 -48 85.5t-96 28.5q-87 0 -134.5 -61.5t-47.5 -173.5q0 -113 47.5 -175t134.5 -62q66 0 107 32.5t41 83.5v13h-111v122h286v-372h-134l-10 86
q-18 -42 -74 -70t-119 -28zM376 -138h-55v93h154v-54q0 -72 -38 -106.5t-117 -34.5v56q29 0 42.5 11t13.5 35z" />
    <glyph glyph-name="gcommaaccent" unicode="&#x123;" horiz-adv-x="653" 
d="M308 -77q53 0 81 28.5t28 84.5v71q-21 -41 -62.5 -65.5t-92.5 -24.5q-102 0 -164 70t-62 184q0 113 62 183t164 70q51 0 94 -24.5t63 -64.5v77h165v-451q0 -121 -72 -186t-203 -65q-111 0 -180.5 44.5t-83.5 123.5h165q8 -28 32.5 -41.5t65.5 -13.5zM312 135
q50 0 79.5 34.5t29.5 92.5v19q0 57 -30 91t-79 34q-51 0 -79.5 -35.5t-28.5 -99.5t28.5 -100t79.5 -36zM345 669h55v-93h-154v54q0 72 38 106.5t117 34.5v-56q-29 0 -42.5 -11t-13.5 -35z" />
    <glyph glyph-name="Hcircumflex" unicode="&#x124;" horiz-adv-x="808" 
d="M244 0h-173v714h173v-286h320v286h174v-714h-174v296h-320v-296zM233 760l101 160h142l101 -160h-93l-79 69l-79 -69h-93z" />
    <glyph glyph-name="hcircumflex" unicode="&#x125;" horiz-adv-x="645" 
d="M236 736v-303q21 43 61.5 67t94.5 24q89 0 139.5 -52t50.5 -144v-328h-168v288q0 54 -21 80.5t-64 26.5q-44 0 -68.5 -31t-24.5 -90v-274h-167v736h167zM151 775l101 160h142l101 -160h-93l-79 69l-79 -69h-93z" />
    <glyph glyph-name="Hbar" unicode="&#x126;" horiz-adv-x="858" 
d="M589 218h-320v-218h-173v461h-66v127h66v126h173v-126h320v126h174v-126h66v-127h-66v-461h-174v218zM269 461v-110h320v110h-320z" />
    <glyph glyph-name="hbar" unicode="&#x127;" horiz-adv-x="662" 
d="M347 395q-44 0 -68.5 -31t-24.5 -90v-274h-167v569h-67v94h67v73h167v-73h109v-94h-109v-136q21 43 61.5 67t94.5 24q89 0 139.5 -52t50.5 -144v-328h-168v288q0 54 -21 80.5t-64 26.5z" />
    <glyph glyph-name="Itilde" unicode="&#x128;" horiz-adv-x="315" 
d="M244 0h-173v714h173v-714zM151 798q-25 15 -36 19.5t-20 4.5q-16 0 -26 -14.5t-11 -41.5h-88q0 77 28 123.5t75 46.5q18 0 37 -7t53 -28q25 -15 36 -19.5t20 -4.5q16 0 26 15t11 41h88q0 -77 -28 -123.5t-75 -46.5q-18 0 -37 7t-53 28z" />
    <glyph glyph-name="itilde" unicode="&#x129;" horiz-adv-x="305" 
d="M150 600q-15 15 -23 19.5t-17 4.5q-16 0 -26.5 -15t-11.5 -42h-88q0 77 28 123t75 46q18 0 33 -7t36 -28q15 -15 23 -19.5t17 -4.5q16 0 26.5 15t11.5 42h88q0 -77 -28 -123.5t-75 -46.5q-18 0 -33 7t-36 29zM69 0v512h167v-512h-167z" />
    <glyph glyph-name="Imacron" unicode="&#x12a;" horiz-adv-x="315" 
d="M244 0h-173v714h173v-714zM334 774h-355v105h355v-105z" />
    <glyph glyph-name="imacron" unicode="&#x12b;" horiz-adv-x="305" 
d="M297 583h-285v105h285v-105zM69 0v512h167v-512h-167z" />
    <glyph glyph-name="Ibreve" unicode="&#x12c;" horiz-adv-x="315" 
d="M244 0h-173v714h173v-714zM157 758q-71 0 -113 45.5t-42 122.5h97q0 -33 15.5 -51.5t42.5 -18.5t42 18.5t15 51.5h98q0 -76 -42 -122t-113 -46z" />
    <glyph glyph-name="ibreve" unicode="&#x12d;" horiz-adv-x="305" 
d="M69 0v512h167v-512h-167zM153 569q-71 0 -113 45t-42 122h96q1 -34 16.5 -52.5t42.5 -18.5t42.5 19t15.5 52h97q0 -76 -42 -121.5t-113 -45.5z" />
    <glyph glyph-name="Iogonek" unicode="&#x12e;" horiz-adv-x="315" 
d="M243 -98v-80q-19 -7 -35.5 -9.5t-37.5 -2.5q-46 0 -74 23.5t-28 62.5q0 24 12.5 48.5t40.5 55.5h-50v714h173v-714q-39 -11 -59.5 -30t-20.5 -44q0 -13 9.5 -21.5t24.5 -8.5q11 0 20.5 1.5t24.5 4.5z" />
    <glyph glyph-name="iogonek" unicode="&#x12f;" horiz-adv-x="305" 
d="M239 583h-173v145h173v-145zM164 -190q-46 0 -74.5 23.5t-28.5 62.5q0 24 12.5 48.5t40.5 55.5h-45v512h167v-512q-38 -11 -58 -30t-20 -44q0 -14 9 -22t25 -8q11 0 20 1.5t24 4.5v-80q-18 -7 -34.5 -9.5t-37.5 -2.5z" />
    <glyph glyph-name="Idotaccent" unicode="&#x130;" horiz-adv-x="315" 
d="M244 0h-173v714h173v-714zM243 766h-172v145h172v-145z" />
    <glyph glyph-name="dotlessi" unicode="&#x131;" horiz-adv-x="305" 
d="M69 0v512h167v-512h-167z" />
    <glyph glyph-name="Jcircumflex" unicode="&#x134;" horiz-adv-x="637" 
d="M287 113q56 0 84.5 35.5t28.5 106.5v459h174v-453q0 -126 -77 -199.5t-210 -73.5q-125 0 -198.5 66.5t-74.5 180.5h164q1 -58 29.5 -90t79.5 -32zM313 760l101 160h142l101 -160h-93l-79 69l-79 -69h-93z" />
    <glyph glyph-name="jcircumflex" unicode="&#x135;" horiz-adv-x="305" 
d="M51 -185q-19 0 -35.5 1.5t-36.5 4.5v121q8 -1 17 -2t17 -1q30 0 43 12.5t13 42.5v518h167v-525q0 -85 -47 -128.5t-138 -43.5zM-22 574l101 162h142l101 -162h-93l-79 73l-79 -73h-93z" />
    <glyph glyph-name="Kcommaaccent" unicode="&#x136;" horiz-adv-x="765" 
d="M764 0h-209l-221 284l-90 -97v-187h-173v714h173v-335l291 335h195l-282 -306zM369 -138h-55v93h154v-54q0 -72 -38 -106.5t-117 -34.5v56q29 0 42.5 11t13.5 35z" />
    <glyph glyph-name="kcommaaccent" unicode="&#x137;" horiz-adv-x="634" 
d="M624 0h-188l-147 196l-53 -53v-143h-167v736h167v-422l189 198h187l-208 -210zM324 -138h-55v93h154v-54q0 -72 -38 -106.5t-117 -34.5v56q29 0 42.5 11t13.5 35z" />
    <glyph glyph-name="kgreenlandic" unicode="&#x138;" horiz-adv-x="634" 
d="M624 0h-188l-147 196l-53 -53v-143h-167v512h167v-198l189 198h187l-208 -210z" />
    <glyph glyph-name="Lacute" unicode="&#x139;" horiz-adv-x="644" 
d="M599 0h-528v714h173v-580h355v-134zM330 920l-123 -159h-104l50 159h177z" />
    <glyph glyph-name="lacute" unicode="&#x13a;" horiz-adv-x="305" 
d="M236 736v-736h-167v736h167zM325 935l-123 -159h-104l50 159h177z" />
    <glyph glyph-name="Lcommaaccent" unicode="&#x13b;" horiz-adv-x="644" 
d="M599 0h-528v714h173v-580h355v-134zM318 -138h-55v93h154v-54q0 -72 -38 -106.5t-117 -34.5v56q29 0 42.5 11t13.5 35z" />
    <glyph glyph-name="lcommaaccent" unicode="&#x13c;" horiz-adv-x="305" 
d="M236 736v-736h-167v736h167zM132 -138h-55v93h154v-54q0 -72 -38 -106.5t-117 -34.5v56q29 0 42.5 11t13.5 35z" />
    <glyph glyph-name="Lcaron" unicode="&#x13d;" horiz-adv-x="644" 
d="M599 0h-528v714h173v-580h355v-134zM540 714l-110 -199h-80l22 199h168z" />
    <glyph glyph-name="lcaron" unicode="&#x13e;" horiz-adv-x="328" 
d="M236 736v-736h-167v736h167zM499 736l-110 -199h-80l22 199h168z" />
    <glyph glyph-name="Ldot" unicode="&#x13f;" horiz-adv-x="644" 
d="M599 0h-528v714h173v-580h355v-134zM560 312h-172v145h172v-145z" />
    <glyph glyph-name="ldot" unicode="&#x140;" horiz-adv-x="536" 
d="M236 736v-736h-167v736h167zM504 284h-172v145h172v-145z" />
    <glyph glyph-name="Lslash" unicode="&#x141;" horiz-adv-x="630" 
d="M269 134h355v-134h-528v259l-66 -24v125l66 24v330h173v-274l158 57v-125l-158 -57v-181z" />
    <glyph glyph-name="lslash" unicode="&#x142;" horiz-adv-x="369" 
d="M354 523v-115l-86 -36v-372h-167v308l-86 -36v114l86 36v314h167v-250z" />
    <glyph glyph-name="Nacute" unicode="&#x143;" horiz-adv-x="802" 
d="M71 714h198l295 -450h2v450h165v-714h-161l-332 504h-2v-504h-165v714zM556 920l-123 -159h-104l50 159h177z" />
    <glyph glyph-name="nacute" unicode="&#x144;" horiz-adv-x="645" 
d="M69 512h165v-79q20 42 62 66.5t96 24.5q89 0 139.5 -52t50.5 -144v-328h-168v288q0 54 -21 80.5t-64 26.5q-44 0 -68.5 -31t-24.5 -90v-274h-167v512zM495 736l-122 -161h-112l51 161h183z" />
    <glyph glyph-name="Ncommaaccent" unicode="&#x145;" horiz-adv-x="802" 
d="M71 714h198l295 -450h2v450h165v-714h-161l-332 504h-2v-504h-165v714zM379 -138h-55v93h154v-54q0 -72 -38 -106.5t-117 -34.5v56q29 0 42.5 11t13.5 35z" />
    <glyph glyph-name="ncommaaccent" unicode="&#x146;" horiz-adv-x="645" 
d="M69 512h165v-79q20 42 62 66.5t96 24.5q89 0 139.5 -52t50.5 -144v-328h-168v288q0 54 -21 80.5t-64 26.5q-44 0 -68.5 -31t-24.5 -90v-274h-167v512zM307 -138h-55v93h154v-54q0 -72 -38 -106.5t-117 -34.5v56q29 0 42.5 11t13.5 35z" />
    <glyph glyph-name="Ncaron" unicode="&#x147;" horiz-adv-x="802" 
d="M71 714h198l295 -450h2v450h165v-714h-161l-332 504h-2v-504h-165v714zM316 920l79 -69l79 69h93l-101 -160h-142l-101 160h93z" />
    <glyph glyph-name="ncaron" unicode="&#x148;" horiz-adv-x="645" 
d="M69 512h165v-79q20 42 62 66.5t96 24.5q89 0 139.5 -52t50.5 -144v-328h-168v288q0 54 -21 80.5t-64 26.5q-44 0 -68.5 -31t-24.5 -90v-274h-167v512zM244 736l79 -73l79 73h93l-101 -162h-142l-101 162h93z" />
    <glyph glyph-name="Eng" unicode="&#x14a;" horiz-adv-x="802" 
d="M546 -185q-20 0 -36.5 1.5t-36.5 4.5v121q9 -1 17.5 -2t16.5 -1q31 0 45 13t14 42v20l-328 490h-2v-504h-165v714h198l295 -450h2v450h165v-727q0 -85 -47 -128.5t-138 -43.5z" />
    <glyph glyph-name="eng" unicode="&#x14b;" horiz-adv-x="645" 
d="M396 -185q-19 0 -35.5 1.5t-36.5 4.5v121q9 -2 17.5 -2.5t16.5 -0.5q30 0 43 12.5t13 42.5v294q0 54 -21 80.5t-64 26.5q-44 0 -68.5 -31t-24.5 -90v-274h-167v512h165v-79q20 42 62 66.5t96 24.5q89 0 139.5 -52t50.5 -144v-341q0 -85 -47 -128.5t-139 -43.5z" />
    <glyph glyph-name="Omacron" unicode="&#x14c;" horiz-adv-x="779" 
d="M390 726q160 0 257.5 -102t97.5 -267t-97.5 -267t-257.5 -102q-161 0 -258 101.5t-97 267.5t97 267.5t258 101.5zM390 121q86 0 132.5 61.5t46.5 174.5t-46.5 174.5t-132.5 61.5t-132.5 -61.5t-46.5 -174.5t46.5 -174.5t132.5 -61.5zM567 774h-355v105h355v-105z" />
    <glyph glyph-name="omacron" unicode="&#x14d;" horiz-adv-x="616" 
d="M308 524q123 0 197.5 -73t74.5 -195t-74.5 -195t-197.5 -73q-124 0 -198.5 73t-74.5 195t74.5 195t198.5 73zM308 404q-51 0 -78 -38.5t-27 -109.5t27 -109.5t78 -38.5q50 0 77 38t27 110t-27 110t-77 38zM470 583h-325v105h325v-105z" />
    <glyph glyph-name="Obreve" unicode="&#x14e;" horiz-adv-x="779" 
d="M390 726q160 0 257.5 -102t97.5 -267t-97.5 -267t-257.5 -102q-161 0 -258 101.5t-97 267.5t97 267.5t258 101.5zM390 121q86 0 132.5 61.5t46.5 174.5t-46.5 174.5t-132.5 61.5t-132.5 -61.5t-46.5 -174.5t46.5 -174.5t132.5 -61.5zM390 758q-71 0 -113 45.5t-42 122.5
h97q0 -33 15.5 -51.5t42.5 -18.5t42 18.5t15 51.5h98q0 -76 -42 -122t-113 -46z" />
    <glyph glyph-name="obreve" unicode="&#x14f;" horiz-adv-x="616" 
d="M308 524q123 0 197.5 -73t74.5 -195t-74.5 -195t-197.5 -73q-124 0 -198.5 73t-74.5 195t74.5 195t198.5 73zM308 404q-51 0 -78 -38.5t-27 -109.5t27 -109.5t78 -38.5q50 0 77 38t27 110t-27 110t-77 38zM308 569q-71 0 -113 45t-42 122h96q1 -34 16.5 -52.5t42.5 -18.5
t42.5 19t15.5 52h97q0 -76 -42 -121.5t-113 -45.5z" />
    <glyph glyph-name="Ohungarumlaut" unicode="&#x150;" horiz-adv-x="779" 
d="M390 726q160 0 257.5 -102t97.5 -267t-97.5 -267t-257.5 -102q-161 0 -258 101.5t-97 267.5t97 267.5t258 101.5zM390 121q86 0 132.5 61.5t46.5 174.5t-46.5 174.5t-132.5 61.5t-132.5 -61.5t-46.5 -174.5t46.5 -174.5t132.5 -61.5zM531 761h-95l52 159h158zM333 761
h-96l52 159h158z" />
    <glyph glyph-name="ohungarumlaut" unicode="&#x151;" horiz-adv-x="616" 
d="M308 524q123 0 197.5 -73t74.5 -195t-74.5 -195t-197.5 -73q-124 0 -198.5 73t-74.5 195t74.5 195t198.5 73zM308 404q-51 0 -78 -38.5t-27 -109.5t27 -109.5t78 -38.5q50 0 77 38t27 110t-27 110t-77 38zM445 575h-95l52 161h158zM247 575h-96l52 161h158z" />
    <glyph glyph-name="OE" unicode="&#x152;" horiz-adv-x="1123" 
d="M1070 0h-671q-165 0 -264.5 97t-99.5 259t99.5 260t264.5 98h664v-133h-370v-156h326v-133h-326v-158h377v-134zM211 356q0 -109 48 -165.5t140 -56.5h124v447h-124q-92 0 -140 -57.5t-48 -167.5z" />
    <glyph glyph-name="oe" unicode="&#x153;" horiz-adv-x="970" 
d="M778 168h155q-17 -84 -82.5 -132t-165.5 -48q-56 0 -103.5 22t-83.5 65q-37 -43 -85 -65t-105 -22q-124 0 -198.5 73t-74.5 195t74.5 195t198.5 73q57 0 105.5 -22t84.5 -65q36 43 83 65t103 22q115 0 183 -72t68 -188v-43h-360q6 -56 34 -85t76 -29q36 0 59.5 15.5
t33.5 45.5zM684 408q-44 0 -71 -26.5t-36 -77.5h203q-1 46 -27 75t-69 29zM308 404q-51 0 -78 -38.5t-27 -109.5t27 -109.5t78 -38.5q50 0 77 38.5t27 109.5t-27 109.5t-77 38.5z" />
    <glyph glyph-name="Racute" unicode="&#x154;" horiz-adv-x="727" 
d="M240 247v-247h-169v714h332q134 0 206 -60.5t72 -173.5q0 -72 -37 -125.5t-104 -80.5l164 -274h-186l-144 247h-134zM240 581v-201h141q66 0 98 24.5t32 75.5t-32 76t-98 25h-141zM509 920l-123 -159h-104l50 159h177z" />
    <glyph glyph-name="racute" unicode="&#x155;" horiz-adv-x="447" 
d="M387 520q13 0 22 -1t15 -4v-154q-12 2 -25 3t-29 1q-62 0 -98 -37t-36 -104v-224h-167v512h165v-109q19 57 59 87t94 30zM420 736l-122 -161h-112l51 161h183z" />
    <glyph glyph-name="Rcommaaccent" unicode="&#x156;" horiz-adv-x="727" 
d="M240 247v-247h-169v714h332q134 0 206 -60.5t72 -173.5q0 -72 -37 -125.5t-104 -80.5l164 -274h-186l-144 247h-134zM240 581v-201h141q66 0 98 24.5t32 75.5t-32 76t-98 25h-141zM354 -138h-55v93h154v-54q0 -72 -38 -106.5t-117 -34.5v56q29 0 42.5 11t13.5 35z" />
    <glyph glyph-name="rcommaaccent" unicode="&#x157;" horiz-adv-x="447" 
d="M387 520q13 0 22 -1t15 -4v-154q-12 2 -25 3t-29 1q-62 0 -98 -37t-36 -104v-224h-167v512h165v-109q19 57 59 87t94 30zM131 -138h-55v93h154v-54q0 -72 -38 -106.5t-117 -34.5v56q29 0 42.5 11t13.5 35z" />
    <glyph glyph-name="Rcaron" unicode="&#x158;" horiz-adv-x="727" 
d="M240 247v-247h-169v714h332q134 0 206 -60.5t72 -173.5q0 -72 -37 -125.5t-104 -80.5l164 -274h-186l-144 247h-134zM240 581v-201h141q66 0 98 24.5t32 75.5t-32 76t-98 25h-141zM269 920l79 -69l79 69h93l-101 -160h-142l-101 160h93z" />
    <glyph glyph-name="rcaron" unicode="&#x159;" horiz-adv-x="447" 
d="M387 520q13 0 22 -1t15 -4v-154q-12 2 -25 3t-29 1q-62 0 -98 -37t-36 -104v-224h-167v512h165v-109q19 57 59 87t94 30zM177 736l79 -73l79 73h93l-101 -162h-142l-101 162h93z" />
    <glyph glyph-name="Sacute" unicode="&#x15a;" horiz-adv-x="676" 
d="M353 -12q-146 0 -232.5 60.5t-97.5 171.5h167q5 -52 46 -80t111 -28q58 0 93.5 23.5t35.5 63.5q0 34 -24 51.5t-83 27.5l-126 23q-99 18 -148.5 68.5t-49.5 133.5q0 99 80 161t205 62q135 0 213.5 -57t89.5 -162h-163q-4 45 -40.5 70t-97.5 25q-53 0 -85.5 -23.5
t-32.5 -62.5q0 -31 20 -47.5t83 -28.5l136 -26q97 -17 145 -67.5t48 -135.5q0 -100 -82 -161.5t-211 -61.5zM515 920l-123 -159h-104l50 159h177z" />
    <glyph glyph-name="sacute" unicode="&#x15b;" horiz-adv-x="552" 
d="M284 -12q-112 0 -179 44.5t-76 126.5h156q4 -29 30 -45.5t66 -16.5q35 0 56 12.5t21 34.5q0 18 -14.5 27.5t-56.5 17.5l-91 15q-77 13 -114 50t-37 98q0 76 63.5 124t160.5 48q104 0 165 -43.5t70 -121.5h-148q-4 26 -27.5 41.5t-57.5 15.5q-32 0 -51.5 -12.5
t-19.5 -33.5q0 -18 14 -27.5t54 -16.5l99 -17q72 -11 109.5 -49.5t37.5 -101.5q0 -76 -64.5 -123t-165.5 -47zM447 736l-122 -161h-112l51 161h183z" />
    <glyph glyph-name="Scircumflex" unicode="&#x15c;" horiz-adv-x="676" 
d="M353 -12q-146 0 -232.5 60.5t-97.5 171.5h167q5 -52 46 -80t111 -28q58 0 93.5 23.5t35.5 63.5q0 34 -24 51.5t-83 27.5l-126 23q-99 18 -148.5 68.5t-49.5 133.5q0 99 80 161t205 62q135 0 213.5 -57t89.5 -162h-163q-4 45 -40.5 70t-97.5 25q-53 0 -85.5 -23.5
t-32.5 -62.5q0 -31 20 -47.5t83 -28.5l136 -26q97 -17 145 -67.5t48 -135.5q0 -100 -82 -161.5t-211 -61.5zM177 760l101 160h142l101 -160h-93l-79 69l-79 -69h-93z" />
    <glyph glyph-name="scircumflex" unicode="&#x15d;" horiz-adv-x="552" 
d="M284 -12q-112 0 -179 44.5t-76 126.5h156q4 -29 30 -45.5t66 -16.5q35 0 56 12.5t21 34.5q0 18 -14.5 27.5t-56.5 17.5l-91 15q-77 13 -114 50t-37 98q0 76 63.5 124t160.5 48q104 0 165 -43.5t70 -121.5h-148q-4 26 -27.5 41.5t-57.5 15.5q-32 0 -51.5 -12.5
t-19.5 -33.5q0 -18 14 -27.5t54 -16.5l99 -17q72 -11 109.5 -49.5t37.5 -101.5q0 -76 -64.5 -123t-165.5 -47zM107 574l101 162h142l101 -162h-93l-79 73l-79 -73h-93z" />
    <glyph glyph-name="Scedilla" unicode="&#x15e;" horiz-adv-x="676" 
d="M465 -113q0 -42 -37.5 -67.5t-95.5 -25.5q-25 0 -51 5t-46 13v67q32 -12 52.5 -16.5t42.5 -4.5q21 0 34 7t13 20q0 20 -25.5 26t-53.5 -3l-26 24l36 58q-127 9 -201 68.5t-84 161.5h167q5 -52 46 -80t111 -28q58 0 93.5 23.5t35.5 63.5q0 34 -24 51.5t-83 27.5l-126 23
q-99 18 -148.5 68.5t-49.5 133.5q0 99 80 161t205 62q135 0 213.5 -57t89.5 -162h-163q-4 45 -40.5 70t-97.5 25q-53 0 -85.5 -23.5t-32.5 -62.5q0 -31 20 -47.5t83 -28.5l136 -26q97 -17 145 -67.5t48 -135.5q0 -96 -77.5 -157.5t-201.5 -65.5l-16 -25q49 4 81.5 -17
t32.5 -59z" />
    <glyph glyph-name="scedilla" unicode="&#x15f;" horiz-adv-x="552" 
d="M397 -113q0 -42 -37.5 -67.5t-95.5 -25.5q-25 0 -51 5t-46 13v67q32 -12 52.5 -16.5t42.5 -4.5q21 0 34 7t13 20q0 20 -25.5 26t-53.5 -3l-26 24l36 58q-93 9 -147.5 52.5t-63.5 116.5h156q4 -29 30 -45.5t66 -16.5q35 0 56 12.5t21 34.5q0 18 -14.5 27.5t-56.5 17.5
l-91 15q-77 13 -114 50t-37 98q0 76 63.5 124t160.5 48q104 0 165 -43.5t70 -121.5h-148q-4 26 -27.5 41.5t-57.5 15.5q-32 0 -51.5 -12.5t-19.5 -33.5q0 -18 14 -27.5t54 -16.5l99 -17q72 -11 109.5 -49.5t37.5 -101.5q0 -73 -59.5 -119.5t-155.5 -50.5l-16 -25
q49 4 81.5 -17t32.5 -59z" />
    <glyph glyph-name="Scaron" unicode="&#x160;" horiz-adv-x="676" 
d="M353 -12q-146 0 -232.5 60.5t-97.5 171.5h167q5 -52 46 -80t111 -28q58 0 93.5 23.5t35.5 63.5q0 34 -24 51.5t-83 27.5l-126 23q-99 18 -148.5 68.5t-49.5 133.5q0 99 80 161t205 62q135 0 213.5 -57t89.5 -162h-163q-4 45 -40.5 70t-97.5 25q-53 0 -85.5 -23.5
t-32.5 -62.5q0 -31 20 -47.5t83 -28.5l136 -26q97 -17 145 -67.5t48 -135.5q0 -100 -82 -161.5t-211 -61.5zM270 920l79 -69l79 69h93l-101 -160h-142l-101 160h93z" />
    <glyph glyph-name="scaron" unicode="&#x161;" horiz-adv-x="552" 
d="M284 -12q-112 0 -179 44.5t-76 126.5h156q4 -29 30 -45.5t66 -16.5q35 0 56 12.5t21 34.5q0 18 -14.5 27.5t-56.5 17.5l-91 15q-77 13 -114 50t-37 98q0 76 63.5 124t160.5 48q104 0 165 -43.5t70 -121.5h-148q-4 26 -27.5 41.5t-57.5 15.5q-32 0 -51.5 -12.5
t-19.5 -33.5q0 -18 14 -27.5t54 -16.5l99 -17q72 -11 109.5 -49.5t37.5 -101.5q0 -76 -64.5 -123t-165.5 -47zM198 736l79 -73l79 73h93l-101 -162h-142l-101 162h93z" />
    <glyph glyph-name="Tcommaaccent" unicode="&#x162;" horiz-adv-x="740" 
d="M479 -113q0 -42 -37.5 -67.5t-95.5 -25.5q-25 0 -51 5t-46 13v67q32 -12 52.5 -16.5t42.5 -4.5q21 0 34 7t13 20q0 20 -25.5 26t-53.5 -3l-26 24l42 68h-45v581h-247v133h668v-133h-248v-581h-68l-23 -37q49 4 81.5 -17t32.5 -59z" />
    <glyph glyph-name="tcommaaccent" unicode="&#x163;" horiz-adv-x="407" 
d="M329 -113q0 -42 -37.5 -67.5t-95.5 -25.5q-25 0 -51 5t-46 13v67q32 -12 52.5 -16.5t42.5 -4.5q21 0 34 7t13 20q0 20 -25.5 26t-53.5 -3l-26 24l43 69q-50 14 -73.5 49.5t-23.5 96.5v248h-68v117h68v127h165v-127h111v-117h-112v-214q0 -30 13.5 -43t46.5 -13
q18 0 32.5 1.5t30.5 5.5v-124q-31 -9 -57 -12.5t-56 -3.5h-13.5t-8.5 1l-19 -30q49 4 81.5 -17t32.5 -59z" />
    <glyph glyph-name="Tcaron" unicode="&#x164;" horiz-adv-x="740" 
d="M456 0h-173v581h-247v133h668v-133h-248v-581zM291 920l79 -69l79 69h93l-101 -160h-142l-101 160h93z" />
    <glyph glyph-name="tcaron" unicode="&#x165;" horiz-adv-x="407" 
d="M306 125q18 0 32.5 1.5t30.5 5.5v-124q-31 -9 -57 -12.5t-56 -3.5q-90 0 -132 37.5t-42 117.5v248h-68v117h68v127h165v-127h111v-117h-112v-214q0 -30 13.5 -43t46.5 -13zM473 761l-110 -199h-80l22 199h168z" />
    <glyph glyph-name="Tbar" unicode="&#x166;" horiz-adv-x="740" 
d="M560 425v-126h-104v-299h-173v299h-104v126h104v156h-247v133h668v-133h-248v-156h104z" />
    <glyph glyph-name="tbar" unicode="&#x167;" horiz-adv-x="439" 
d="M387 132v-124q-30 -9 -55.5 -12.5t-56.5 -3.5q-91 0 -133 37.5t-42 117.5v83h-67v105h67v69h-67v108h67v127h166v-127h111v-108h-112v-69h112v-105h-112v-49q0 -30 13.5 -43t46.5 -13q18 0 32.5 1.5t29.5 5.5z" />
    <glyph glyph-name="Utilde" unicode="&#x168;" horiz-adv-x="765" 
d="M701 714v-428q0 -144 -82.5 -221t-236.5 -77q-153 0 -236 77.5t-83 221.5v427h174v-422q0 -85 36 -127t109 -42t109.5 42t36.5 127v422h173zM377 798q-25 15 -36 19.5t-20 4.5q-16 0 -26 -14.5t-11 -41.5h-88q0 77 28 123.5t75 46.5q18 0 37 -7t53 -28q25 -15 36 -19.5
t20 -4.5q16 0 26 15t11 41h88q0 -77 -28 -123.5t-75 -46.5q-18 0 -37 7t-53 28z" />
    <glyph glyph-name="utilde" unicode="&#x169;" horiz-adv-x="637" 
d="M569 512v-512h-166v79q-19 -42 -61 -66.5t-94 -24.5q-87 0 -136 51.5t-49 144.5v328h169v-290q0 -53 19.5 -79t60.5 -26q42 0 65 31.5t23 89.5v274h169zM312 599q-25 16 -36 20.5t-20 4.5q-16 0 -26 -15t-11 -42h-88q0 77 28 123t75 46q18 0 37 -7t53 -28
q25 -15 36 -19.5t20 -4.5q16 0 26 15.5t11 41.5h88q0 -77 -28 -123.5t-75 -46.5q-18 0 -37 7t-53 28z" />
    <glyph glyph-name="Umacron" unicode="&#x16a;" horiz-adv-x="765" 
d="M701 714v-428q0 -144 -82.5 -221t-236.5 -77q-153 0 -236 77.5t-83 221.5v427h174v-422q0 -85 36 -127t109 -42t109.5 42t36.5 127v422h173zM560 774h-355v105h355v-105z" />
    <glyph glyph-name="umacron" unicode="&#x16b;" horiz-adv-x="637" 
d="M569 512v-512h-166v79q-19 -42 -61 -66.5t-94 -24.5q-87 0 -136 51.5t-49 144.5v328h169v-290q0 -53 19.5 -79t60.5 -26q42 0 65 31.5t23 89.5v274h169zM483 583h-325v105h325v-105z" />
    <glyph glyph-name="Ubreve" unicode="&#x16c;" horiz-adv-x="765" 
d="M701 714v-428q0 -144 -82.5 -221t-236.5 -77q-153 0 -236 77.5t-83 221.5v427h174v-422q0 -85 36 -127t109 -42t109.5 42t36.5 127v422h173zM383 758q-71 0 -113 45.5t-42 122.5h97q0 -33 15.5 -51.5t42.5 -18.5t42 18.5t15 51.5h98q0 -76 -42 -122t-113 -46z" />
    <glyph glyph-name="ubreve" unicode="&#x16d;" horiz-adv-x="637" 
d="M569 512v-512h-166v79q-19 -42 -61 -66.5t-94 -24.5q-87 0 -136 51.5t-49 144.5v328h169v-290q0 -53 19.5 -79t60.5 -26q42 0 65 31.5t23 89.5v274h169zM321 569q-71 0 -113 45t-42 122h96q1 -34 16.5 -52.5t42.5 -18.5t42.5 19t15.5 52h97q0 -76 -42 -121.5t-113 -45.5z
" />
    <glyph glyph-name="Uring" unicode="&#x16e;" horiz-adv-x="765" 
d="M701 714v-428q0 -144 -82.5 -221t-236.5 -77q-153 0 -236 77.5t-83 221.5v427h174v-422q0 -85 36 -127t109 -42t109.5 42t36.5 127v422h173zM517 855q0 -55 -39.5 -94.5t-95.5 -39.5q-55 0 -94.5 39.5t-39.5 94.5q0 56 39.5 96t94.5 40q56 0 95.5 -40t39.5 -96zM443 855
q0 26 -17.5 43.5t-43.5 17.5q-25 0 -42.5 -18t-17.5 -43q0 -24 18 -42t42 -18q25 0 43 18t18 42z" />
    <glyph glyph-name="uring" unicode="&#x16f;" horiz-adv-x="637" 
d="M569 512v-512h-166v79q-19 -42 -61 -66.5t-94 -24.5q-87 0 -136 51.5t-49 144.5v328h169v-290q0 -53 19.5 -79t60.5 -26q42 0 65 31.5t23 89.5v274h169zM319 562q-49 0 -84.5 35t-35.5 84q0 50 35.5 85t84.5 35t84 -35t35 -85q0 -49 -35 -84t-84 -35zM319 629
q21 0 36.5 15.5t15.5 36.5t-15.5 36.5t-36.5 15.5q-22 0 -37.5 -15t-15.5 -37q0 -21 15.5 -36.5t37.5 -15.5z" />
    <glyph glyph-name="Uhungarumlaut" unicode="&#x170;" horiz-adv-x="765" 
d="M701 714v-428q0 -144 -82.5 -221t-236.5 -77q-153 0 -236 77.5t-83 221.5v427h174v-422q0 -85 36 -127t109 -42t109.5 42t36.5 127v422h173zM518 761h-95l52 159h158zM320 761h-96l52 159h158z" />
    <glyph glyph-name="uhungarumlaut" unicode="&#x171;" horiz-adv-x="637" 
d="M569 512v-512h-166v79q-19 -42 -61 -66.5t-94 -24.5q-87 0 -136 51.5t-49 144.5v328h169v-290q0 -53 19.5 -79t60.5 -26q42 0 65 31.5t23 89.5v274h169zM447 575h-95l52 161h158zM249 575h-96l52 161h158z" />
    <glyph glyph-name="Uogonek" unicode="&#x172;" horiz-adv-x="765" 
d="M576 -98v-80q-19 -7 -35.5 -9.5t-37.5 -2.5q-46 0 -74 23.5t-28 62.5q0 22 9.5 44.5t31.5 50.5q-14 -2 -29 -2.5t-31 -0.5q-153 0 -236 77.5t-83 221.5v427h174v-422q0 -85 36 -127t109 -42t109.5 42t36.5 127v422h173v-428q0 -96 -37.5 -163t-109.5 -101
q-27 -22 -42 -47t-15 -49q0 -14 9 -22t24 -8q11 0 20.5 1t25.5 5z" />
    <glyph glyph-name="uogonek" unicode="&#x173;" horiz-adv-x="637" 
d="M522 -98v-80q-19 -7 -35.5 -9.5t-37.5 -2.5q-46 0 -74 23.5t-28 62.5q0 22 11.5 46.5t44.5 65.5v71q-19 -42 -61 -66.5t-94 -24.5q-87 0 -136 51.5t-49 144.5v328h169v-290q0 -53 19.5 -79t60.5 -26q42 0 65 31.5t23 89.5v274h169v-512h-85q-27 -36 -34 -49.5t-7 -26.5
t9 -20.5t24 -7.5q12 0 21.5 1.5t24.5 4.5z" />
    <glyph glyph-name="Wcircumflex" unicode="&#x174;" horiz-adv-x="1027" 
d="M823 0h-187l-122 509h-2l-121 -509h-188l-194 714h178l123 -506h3l120 506h170l120 -506h2l124 506h169zM342 760l101 160h142l101 -160h-93l-79 69l-79 -69h-93z" />
    <glyph glyph-name="wcircumflex" unicode="&#x175;" horiz-adv-x="855" 
d="M354 512h150l84 -344h2l90 344h162l-159 -512h-168l-86 332h-2l-87 -332h-168l-159 512h166l90 -344h3zM256 574l101 162h142l101 -162h-93l-79 73l-79 -73h-93z" />
    <glyph glyph-name="Ycircumflex" unicode="&#x176;" horiz-adv-x="743" 
d="M458 291v-291h-174v291l-279 423h193l176 -273h2l174 273h188zM200 760l101 160h142l101 -160h-93l-79 69l-79 -69h-93z" />
    <glyph glyph-name="ycircumflex" unicode="&#x177;" horiz-adv-x="603" 
d="M111 -61q45 0 64 14t33 52l-195 507h168l124 -358h2l119 358h164l-194 -515q-37 -97 -94.5 -140t-151.5 -43q-20 0 -37.5 1.5t-31.5 3.5v122q8 -1 13.5 -1.5t16.5 -0.5zM142 574l101 162h142l101 -162h-93l-79 73l-79 -73h-93z" />
    <glyph glyph-name="Ydieresis" unicode="&#x178;" horiz-adv-x="743" 
d="M458 291v-291h-174v291l-279 423h193l176 -273h2l174 273h188zM553 766h-147v145h147v-145zM338 766h-147v145h147v-145z" />
    <glyph glyph-name="Zacute" unicode="&#x179;" horiz-adv-x="689" 
d="M640 714v-128l-387 -452h395v-134h-607v122l389 459h-377v133h587zM505 920l-123 -159h-104l50 159h177z" />
    <glyph glyph-name="zacute" unicode="&#x17a;" horiz-adv-x="548" 
d="M496 512v-113l-250 -278h260v-121h-463v109l250 283h-244v120h447zM440 736l-122 -161h-112l51 161h183z" />
    <glyph glyph-name="Zdotaccent" unicode="&#x17b;" horiz-adv-x="689" 
d="M640 714v-128l-387 -452h395v-134h-607v122l389 459h-377v133h587zM430 766h-172v145h172v-145z" />
    <glyph glyph-name="zdotaccent" unicode="&#x17c;" horiz-adv-x="548" 
d="M496 512v-113l-250 -278h260v-121h-463v109l250 283h-244v120h447zM362 583h-172v145h172v-145z" />
    <glyph glyph-name="Zcaron" unicode="&#x17d;" horiz-adv-x="689" 
d="M640 714v-128l-387 -452h395v-134h-607v122l389 459h-377v133h587zM272 920l79 -69l79 69h93l-101 -160h-142l-101 160h93z" />
    <glyph glyph-name="zcaron" unicode="&#x17e;" horiz-adv-x="548" 
d="M496 512v-113l-250 -278h260v-121h-463v109l250 283h-244v120h447zM197 736l79 -73l79 73h93l-101 -162h-142l-101 162h93z" />
    <glyph glyph-name="florin" unicode="&#x192;" horiz-adv-x="513" 
d="M415 405v-127h-120l-68 -387h-161l69 387h-76v127h99l27 151q17 93 73.5 142.5t145.5 49.5q22 0 43 -3t35 -9v-150q-14 5 -25.5 7t-30.5 2q-40 0 -61 -21t-30 -67l-18 -102h98z" />
    <glyph glyph-name="AEacute" unicode="&#x1fc;" horiz-adv-x="1137" 
d="M1084 0h-547v161h-262l-96 -161h-174l428 714h644v-133h-370v-156h326v-133h-326v-158h377v-134zM537 294v306l-183 -306h183zM929 920l-123 -159h-104l50 159h177z" />
    <glyph glyph-name="aeacute" unicode="&#x1fd;" horiz-adv-x="913" 
d="M721 168h154q-16 -84 -82.5 -132t-165.5 -48q-57 0 -108.5 22t-88.5 61q-38 -42 -86.5 -62.5t-108.5 -20.5q-93 0 -147.5 41.5t-54.5 114.5q0 80 64 120t192 40h78v28q0 35 -20 54t-56 19q-33 0 -53.5 -17.5t-22.5 -47.5h-160q8 86 71 135t165 49q54 0 96.5 -15t70.5 -44
q35 29 78 44t89 15q116 0 184 -72t68 -188v-43h-359q6 -56 33.5 -85t75.5 -29q36 0 59.5 15.5t34.5 45.5zM625 408q-43 0 -69.5 -26.5t-35.5 -77.5h202q0 46 -26.5 75t-70.5 29zM197 159q0 -27 18.5 -42.5t50.5 -15.5q46 0 73.5 25t27.5 69v26h-86q-40 0 -62 -16t-22 -46z
M629 736l-122 -161h-112l51 161h183z" />
    <glyph glyph-name="Oslashacute" unicode="&#x1fe;" horiz-adv-x="779" 
d="M745 357q0 -165 -97.5 -267t-257.5 -102q-57 0 -108 14t-93 41l-62 -73l-71 56l64 77q-42 48 -63.5 113t-21.5 141q0 166 97 267.5t258 101.5q59 0 111.5 -14.5t94.5 -43.5l56 66l72 -55l-61 -72q40 -48 61 -112t21 -138zM390 593q-86 0 -132.5 -61.5t-46.5 -174.5
q0 -37 5 -68t14 -56l271 322q-21 19 -49 28.5t-62 9.5zM390 121q86 0 132.5 61.5t46.5 174.5q0 33 -4 62.5t-13 55.5l-269 -320q22 -17 48.5 -25.5t58.5 -8.5zM562 920l-123 -159h-104l50 159h177z" />
    <glyph glyph-name="oslashacute" unicode="&#x1ff;" horiz-adv-x="616" 
d="M580 256q0 -122 -74.5 -195t-197.5 -73q-44 0 -83.5 10t-72.5 30l-57 -61l-56 56l53 57q-28 34 -42.5 79t-14.5 97q0 122 74.5 195t198.5 73q46 0 86.5 -11t73.5 -32l52 56l56 -57l-49 -53q26 -34 39.5 -77t13.5 -94zM308 411q-53 0 -82.5 -41t-29.5 -114
q0 -16 1.5 -30.5t4.5 -28.5l176 188q-14 13 -31.5 19.5t-38.5 6.5zM308 101q53 0 82.5 41t29.5 114q0 13 -1.5 26.5t-3.5 26.5l-173 -185q13 -11 29.5 -17t36.5 -6zM479 736l-122 -161h-112l51 161h183z" />
    <glyph glyph-name="Scommaaccent" unicode="&#x218;" horiz-adv-x="676" 
d="M353 -12q-146 0 -232.5 60.5t-97.5 171.5h167q5 -52 46 -80t111 -28q58 0 93.5 23.5t35.5 63.5q0 34 -24 51.5t-83 27.5l-126 23q-99 18 -148.5 68.5t-49.5 133.5q0 99 80 161t205 62q135 0 213.5 -57t89.5 -162h-163q-4 45 -40.5 70t-97.5 25q-53 0 -85.5 -23.5
t-32.5 -62.5q0 -31 20 -47.5t83 -28.5l136 -26q97 -17 145 -67.5t48 -135.5q0 -100 -82 -161.5t-211 -61.5zM326 -138h-55v93h154v-54q0 -72 -38 -106.5t-117 -34.5v56q29 0 42.5 11t13.5 35z" />
    <glyph glyph-name="scommaaccent" unicode="&#x219;" horiz-adv-x="552" 
d="M284 -12q-112 0 -179 44.5t-76 126.5h156q4 -29 30 -45.5t66 -16.5q35 0 56 12.5t21 34.5q0 18 -14.5 27.5t-56.5 17.5l-91 15q-77 13 -114 50t-37 98q0 76 63.5 124t160.5 48q104 0 165 -43.5t70 -121.5h-148q-4 26 -27.5 41.5t-57.5 15.5q-32 0 -51.5 -12.5
t-19.5 -33.5q0 -18 14 -27.5t54 -16.5l99 -17q72 -11 109.5 -49.5t37.5 -101.5q0 -76 -64.5 -123t-165.5 -47zM269 -138h-55v93h154v-54q0 -72 -38 -106.5t-117 -34.5v56q29 0 42.5 11t13.5 35z" />
    <glyph glyph-name="uni021A" unicode="&#x21a;" horiz-adv-x="740" 
d="M456 0h-173v581h-247v133h668v-133h-248v-581zM354 -138h-55v93h154v-54q0 -72 -38 -106.5t-117 -34.5v56q29 0 42.5 11t13.5 35z" />
    <glyph glyph-name="uni021B" unicode="&#x21b;" horiz-adv-x="407" 
d="M306 125q18 0 32.5 1.5t30.5 5.5v-124q-31 -9 -57 -12.5t-56 -3.5q-90 0 -132 37.5t-42 117.5v248h-68v117h68v127h165v-127h111v-117h-112v-214q0 -30 13.5 -43t46.5 -13zM202 -138h-55v93h154v-54q0 -72 -38 -106.5t-117 -34.5v56q29 0 42.5 11t13.5 35z" />
    <glyph glyph-name="uni0237" unicode="&#x237;" horiz-adv-x="305" 
d="M51 -185q-19 0 -35.5 1.5t-36.5 4.5v121q8 -1 17 -2t17 -1q30 0 43 12.5t13 42.5v518h167v-525q0 -85 -47 -128.5t-138 -43.5z" />
    <glyph glyph-name="circumflex" unicode="&#x2c6;" 
d="M110 574l101 162h142l101 -162h-93l-79 73l-79 -73h-93z" />
    <glyph glyph-name="caron" unicode="&#x2c7;" 
d="M203 736l79 -73l79 73h93l-101 -162h-142l-101 162h93z" />
    <glyph glyph-name="breve" unicode="&#x2d8;" 
d="M275 569q-71 0 -113 45t-42 122h96q1 -34 16.5 -52.5t42.5 -18.5t42.5 19t15.5 52h97q0 -76 -42 -121.5t-113 -45.5z" />
    <glyph glyph-name="dotaccent" unicode="&#x2d9;" 
d="M368 583h-172v145h172v-145z" />
    <glyph glyph-name="ring" unicode="&#x2da;" 
d="M283 562q-49 0 -84.5 35t-35.5 84q0 50 35.5 85t84.5 35t84 -35t35 -85q0 -49 -35 -84t-84 -35zM283 629q21 0 36.5 15.5t15.5 36.5t-15.5 36.5t-36.5 15.5q-22 0 -37.5 -15t-15.5 -37q0 -21 15.5 -36.5t37.5 -15.5z" />
    <glyph glyph-name="ogonek" unicode="&#x2db;" 
d="M315 -190q-46 0 -74 23.5t-28 62.5q0 24 13 50.5t56 77.5h87q-43 -55 -51.5 -70.5t-8.5 -29.5q0 -13 9 -20.5t24 -7.5q12 0 21.5 1.5t24.5 4.5v-80q-19 -7 -35.5 -9.5t-37.5 -2.5z" />
    <glyph glyph-name="tilde" unicode="&#x2dc;" 
d="M284 599q-25 16 -36 20.5t-20 4.5q-16 0 -26 -15t-11 -42h-88q0 77 28 123t75 46q18 0 37 -7t53 -28q25 -15 36 -19.5t20 -4.5q16 0 26 15.5t11 41.5h88q0 -77 -28 -123.5t-75 -46.5q-18 0 -37 7t-53 28z" />
    <glyph glyph-name="hungarumlaut" unicode="&#x2dd;" 
d="M371 575h-95l52 161h158zM173 575h-96l52 161h158z" />
    <glyph glyph-name="Wgrave" unicode="&#x1e80;" horiz-adv-x="1027" 
d="M823 0h-187l-122 509h-2l-121 -509h-188l-194 714h178l123 -506h3l120 506h170l120 -506h2l124 506h169zM522 920l50 -159h-104l-123 159h177z" />
    <glyph glyph-name="wgrave" unicode="&#x1e81;" horiz-adv-x="855" 
d="M354 512h150l84 -344h2l90 344h162l-159 -512h-168l-86 332h-2l-87 -332h-168l-159 512h166l90 -344h3zM439 736l51 -161h-112l-122 161h183z" />
    <glyph glyph-name="Wacute" unicode="&#x1e82;" horiz-adv-x="1027" 
d="M823 0h-187l-122 509h-2l-121 -509h-188l-194 714h178l123 -506h3l120 506h170l120 -506h2l124 506h169zM700 920l-123 -159h-104l50 159h177z" />
    <glyph glyph-name="wacute" unicode="&#x1e83;" horiz-adv-x="855" 
d="M354 512h150l84 -344h2l90 344h162l-159 -512h-168l-86 332h-2l-87 -332h-168l-159 512h166l90 -344h3zM606 736l-122 -161h-112l51 161h183z" />
    <glyph glyph-name="Wdieresis" unicode="&#x1e84;" horiz-adv-x="1027" 
d="M823 0h-187l-122 509h-2l-121 -509h-188l-194 714h178l123 -506h3l120 506h170l120 -506h2l124 506h169zM695 766h-147v145h147v-145zM480 766h-147v145h147v-145z" />
    <glyph glyph-name="wdieresis" unicode="&#x1e85;" horiz-adv-x="855" 
d="M354 512h150l84 -344h2l90 344h162l-159 -512h-168l-86 332h-2l-87 -332h-168l-159 512h166l90 -344h3zM609 583h-147v145h147v-145zM394 583h-147v145h147v-145z" />
    <glyph glyph-name="Ygrave" unicode="&#x1ef2;" horiz-adv-x="743" 
d="M458 291v-291h-174v291l-279 423h193l176 -273h2l174 273h188zM388 920l50 -159h-104l-123 159h177z" />
    <glyph glyph-name="ygrave" unicode="&#x1ef3;" horiz-adv-x="603" 
d="M111 -61q45 0 64 14t33 52l-195 507h168l124 -358h2l119 358h164l-194 -515q-37 -97 -94.5 -140t-151.5 -43q-20 0 -37.5 1.5t-31.5 3.5v122q8 -1 13.5 -1.5t16.5 -0.5zM323 736l51 -161h-112l-122 161h183z" />
    <glyph glyph-name="endash" unicode="&#x2013;" horiz-adv-x="677" 
d="M590 228h-503v119h503v-119z" />
    <glyph glyph-name="emdash" unicode="&#x2014;" horiz-adv-x="1003" 
d="M916 228h-829v119h829v-119z" />
    <glyph glyph-name="quoteleft" unicode="&#x2018;" horiz-adv-x="347" 
d="M178 565h87v-160h-185v168q0 83 51 127.5t145 44.5v-85q-53 -1 -75.5 -21t-22.5 -64v-10z" />
    <glyph glyph-name="quoteright" unicode="&#x2019;" horiz-adv-x="347" 
d="M169 576h-87v160h185v-168q0 -83 -51 -127.5t-145 -44.5v85q53 1 75.5 21t22.5 64v10z" />
    <glyph glyph-name="quotesinglbase" unicode="&#x201a;" horiz-adv-x="347" 
d="M169 19h-87v160h185v-168q0 -83 -51 -127.5t-145 -44.5v85q53 1 75.5 21t22.5 64v10z" />
    <glyph glyph-name="quotedblleft" unicode="&#x201c;" horiz-adv-x="602" 
d="M433 565h87v-160h-185v168q0 83 51 127.5t145 44.5v-85q-53 -1 -75.5 -21t-22.5 -64v-10zM178 565h87v-160h-185v168q0 83 51 127.5t145 44.5v-85q-53 -1 -75.5 -21t-22.5 -64v-10z" />
    <glyph glyph-name="quotedblright" unicode="&#x201d;" horiz-adv-x="602" 
d="M169 576h-87v160h185v-168q0 -83 -51 -127.5t-145 -44.5v85q53 1 75.5 21t22.5 64v10zM424 576h-87v160h185v-168q0 -83 -51 -127.5t-145 -44.5v85q53 1 75.5 21t22.5 64v10z" />
    <glyph glyph-name="quotedblbase" unicode="&#x201e;" horiz-adv-x="602" 
d="M169 19h-87v160h185v-168q0 -83 -51 -127.5t-145 -44.5v85q53 1 75.5 21t22.5 64v10zM424 19h-87v160h185v-168q0 -83 -51 -127.5t-145 -44.5v85q53 1 75.5 21t22.5 64v10z" />
    <glyph glyph-name="dagger" unicode="&#x2020;" horiz-adv-x="403" 
d="M369 620v-90h-121v-214h-94v214h-120v90h120v106h94v-106h121z" />
    <glyph glyph-name="daggerdbl" unicode="&#x2021;" horiz-adv-x="403" 
d="M369 485v-86h-121v-83h-94v83h-120v86h120v73h-120v87h120v81h94v-81h121v-87h-121v-73h121z" />
    <glyph glyph-name="bullet" unicode="&#x2022;" horiz-adv-x="520" 
d="M261 136q-71 0 -122.5 51t-51.5 122q0 70 51.5 120.5t122.5 50.5t121.5 -50t50.5 -121t-50.5 -122t-121.5 -51z" />
    <glyph glyph-name="ellipsis" unicode="&#x2026;" horiz-adv-x="885" 
d="M805 0h-185v185h185v-185zM535 0h-185v185h185v-185zM265 0h-185v185h185v-185z" />
    <glyph glyph-name="guilsinglleft" unicode="&#x2039;" horiz-adv-x="356" 
d="M198 254l109 -211h-115l-143 211l143 211h115z" />
    <glyph glyph-name="guilsinglright" unicode="&#x203a;" horiz-adv-x="356" 
d="M49 464h115l143 -211l-143 -211h-115l109 211z" />
    <glyph glyph-name="fraction" unicode="&#x2044;" horiz-adv-x="184" 
d="M400 727l-516 -739h-100l515 739h101z" />
    <glyph glyph-name="uni2070" unicode="&#x2070;" horiz-adv-x="439" 
d="M402 518q0 -90 -50 -146.5t-132 -56.5t-132.5 56.5t-50.5 146.5q0 91 50.5 147.5t132.5 56.5t132 -56.5t50 -147.5zM149 518q0 -61 18 -91.5t53 -30.5t52.5 30.5t17.5 91.5t-17.5 92t-52.5 31q-36 0 -53.5 -31t-17.5 -92z" />
    <glyph glyph-name="uni2074" unicode="&#x2074;" horiz-adv-x="428" 
d="M212 714h113v-238h73v-74h-73v-79h-101v79h-194v74zM224 476v141l-105 -141h105z" />
    <glyph glyph-name="uni2075" unicode="&#x2075;" horiz-adv-x="394" 
d="M250 453q0 28 -13.5 43.5t-38.5 15.5q-17 0 -29.5 -6.5t-19.5 -18.5h-100l22 227h259v-84h-182l-8 -71q15 13 36.5 20.5t45.5 7.5q61 0 98 -36.5t37 -96.5q0 -61 -43.5 -100t-114.5 -39q-73 0 -117 34.5t-50 95.5h112q2 -22 16.5 -36t36.5 -14q24 0 38.5 16t14.5 42z" />
    <glyph glyph-name="uni2076" unicode="&#x2076;" horiz-adv-x="399" 
d="M209 640q-31 0 -51 -26.5t-20 -67.5q15 19 36.5 28t48.5 9q61 0 101 -37t40 -94q0 -60 -44 -98.5t-113 -38.5q-78 0 -124.5 53.5t-46.5 142.5q0 95 49 153t127 58q59 0 99 -32t47 -84h-99q-5 17 -17.5 25.5t-32.5 8.5zM147 451q0 -26 16.5 -42.5t42.5 -16.5q25 0 41 16.5
t16 42.5t-16 42.5t-41 16.5q-26 0 -42.5 -16.5t-16.5 -42.5z" />
    <glyph glyph-name="uni2077" unicode="&#x2077;" horiz-adv-x="367" 
d="M229 631h-197v83h302v-87q-61 -75 -85.5 -141.5t-25.5 -162.5h-114q1 80 30 154.5t90 153.5z" />
    <glyph glyph-name="uni2078" unicode="&#x2078;" horiz-adv-x="402" 
d="M367 431q0 -53 -45 -84.5t-121 -31.5t-121 31.5t-45 84.5q0 32 21.5 58t50.5 33q-25 13 -40 35.5t-15 49.5q0 52 41 83.5t108 31.5t108.5 -31.5t41.5 -83.5q0 -27 -15 -49.5t-40 -35.5q28 -7 49.5 -33.5t21.5 -57.5zM255 603q0 21 -14.5 33t-39.5 12t-39 -12t-14 -33
t14 -33t39 -12t39.5 12t14.5 33zM265 438q0 23 -16.5 35.5t-47.5 12.5q-30 0 -46.5 -12.5t-16.5 -35.5q0 -22 16.5 -34.5t46.5 -12.5q31 0 47.5 12.5t16.5 34.5z" />
    <glyph glyph-name="uni2079" unicode="&#x2079;" horiz-adv-x="399" 
d="M191 396q31 0 51.5 27.5t20.5 67.5q-17 -19 -38.5 -28.5t-48.5 -9.5q-60 0 -100 38t-40 95q0 59 44.5 97.5t113.5 38.5q77 0 123.5 -53.5t46.5 -142.5q0 -94 -49 -152.5t-128 -58.5q-58 0 -97.5 32t-48.5 84h100q5 -17 18 -26t32 -9zM253 586q0 26 -16 42t-43 16
q-25 0 -41 -16t-16 -42t16 -42.5t41 -16.5q27 0 43 16t16 43z" />
    <glyph glyph-name="uni2080" unicode="&#x2080;" horiz-adv-x="439" 
d="M402 56q0 -90 -50 -146.5t-132 -56.5t-132.5 56.5t-50.5 146.5q0 91 50.5 147.5t132.5 56.5t132 -56.5t50 -147.5zM149 56q0 -61 18 -91.5t53 -30.5t52.5 30.5t17.5 91.5t-17.5 92t-52.5 31q-36 0 -53.5 -31t-17.5 -92z" />
    <glyph glyph-name="uni2081" unicode="&#x2081;" horiz-adv-x="357" 
d="M236 -68h89v-72h-285v72h93v194h-94v68q59 0 83.5 11.5t32.5 46.5h81v-320z" />
    <glyph glyph-name="uni2082" unicode="&#x2082;" horiz-adv-x="381" 
d="M197 259q66 0 107.5 -34.5t41.5 -90.5q0 -40 -23.5 -68.5t-97.5 -65.5q-38 -19 -55 -33t-19 -27h196v-80h-313v37q0 46 29 84.5t97 77.5q57 31 70 45t13 32q0 19 -12.5 30.5t-34.5 11.5q-24 0 -39 -16t-16 -41h-105q5 62 48.5 100t112.5 38z" />
    <glyph glyph-name="uni2083" unicode="&#x2083;" horiz-adv-x="384" 
d="M273 56q37 -7 57.5 -30.5t20.5 -58.5q0 -50 -43.5 -82t-113.5 -32q-71 0 -116 34.5t-50 92.5h104q1 -21 18.5 -33.5t43.5 -12.5q25 0 40 11.5t15 30.5q0 21 -14 31t-44 10h-37v77h36q25 0 38.5 11t13.5 31q0 19 -13 31t-34 12q-22 0 -37 -13t-17 -35h-101q4 56 47 92
t110 36q66 0 105.5 -33t39.5 -85q0 -32 -19 -55t-50 -30z" />
    <glyph glyph-name="uni2084" unicode="&#x2084;" horiz-adv-x="428" 
d="M212 251h113v-238h73v-74h-73v-79h-101v79h-194v74zM224 13v141l-105 -141h105z" />
    <glyph glyph-name="uni2085" unicode="&#x2085;" horiz-adv-x="394" 
d="M250 -9q0 28 -13.5 43.5t-38.5 15.5q-17 0 -29.5 -6.5t-19.5 -18.5h-100l22 227h259v-84h-182l-8 -71q15 13 36.5 20.5t45.5 7.5q61 0 98 -36.5t37 -96.5q0 -61 -43.5 -100t-114.5 -39q-73 0 -117 34.5t-50 95.5h112q2 -22 16.5 -36t36.5 -14q24 0 38.5 16t14.5 42z" />
    <glyph glyph-name="uni2086" unicode="&#x2086;" horiz-adv-x="399" 
d="M209 178q-31 0 -51 -26.5t-20 -67.5q15 19 36.5 28t48.5 9q61 0 101 -37t40 -94q0 -60 -44 -98.5t-113 -38.5q-78 0 -124.5 53.5t-46.5 142.5q0 95 49 153t127 58q59 0 99 -32t47 -84h-99q-5 17 -17.5 25.5t-32.5 8.5zM147 -11q0 -26 16.5 -42.5t42.5 -16.5q25 0 41 16.5
t16 42.5t-16 42.5t-41 16.5q-26 0 -42.5 -16.5t-16.5 -42.5z" />
    <glyph glyph-name="uni2087" unicode="&#x2087;" horiz-adv-x="367" 
d="M229 168h-197v83h302v-87q-61 -75 -85.5 -141.5t-25.5 -162.5h-114q1 80 30 154.5t90 153.5z" />
    <glyph glyph-name="uni2088" unicode="&#x2088;" horiz-adv-x="402" 
d="M367 -31q0 -53 -45 -84.5t-121 -31.5t-121 31.5t-45 84.5q0 32 21.5 58t50.5 33q-25 13 -40 35.5t-15 49.5q0 52 41 83.5t108 31.5t108.5 -31.5t41.5 -83.5q0 -27 -15 -49.5t-40 -35.5q28 -7 49.5 -33.5t21.5 -57.5zM255 141q0 21 -14.5 33t-39.5 12t-39 -12t-14 -33
t14 -33t39 -12t39.5 12t14.5 33zM265 -24q0 23 -16.5 35.5t-47.5 12.5q-30 0 -46.5 -12.5t-16.5 -35.5q0 -22 16.5 -34.5t46.5 -12.5q31 0 47.5 12.5t16.5 34.5z" />
    <glyph glyph-name="uni2089" unicode="&#x2089;" horiz-adv-x="399" 
d="M191 -66q31 0 51.5 27.5t20.5 67.5q-17 -19 -38.5 -28.5t-48.5 -9.5q-60 0 -100 38t-40 95q0 59 44.5 97.5t113.5 38.5q77 0 123.5 -53.5t46.5 -142.5q0 -94 -49 -152.5t-128 -58.5q-58 0 -97.5 32t-48.5 84h100q5 -17 18 -26t32 -9zM253 124q0 26 -16 42t-43 16
q-25 0 -41 -16t-16 -42t16 -42.5t41 -16.5q27 0 43 16t16 43z" />
    <glyph glyph-name="Euro" unicode="&#x20ac;" horiz-adv-x="723" 
d="M535 239h156q-20 -120 -92 -185.5t-186 -65.5q-112 0 -190.5 66t-107.5 184h-77v92h65q-1 5 -1 10.5v17.5v18.5t1 11.5h-65v91h78q29 116 107.5 181.5t189.5 65.5q114 0 186 -65t92 -185h-156q-10 59 -39.5 88t-80.5 29q-48 0 -83 -29.5t-52 -84.5h170l-11 -91h-174
q-1 -5 -1 -11.5v-18.5v-17.5t1 -10.5h165l-11 -92h-139q17 -57 51.5 -87t83.5 -30q51 0 81 29.5t39 88.5z" />
    <glyph glyph-name="trademark" unicode="&#x2122;" horiz-adv-x="919" 
d="M251 629v-247h-97v247h-110v85h319v-85h-112zM709 617l-65 -235h-68l-66 235h-2v-235h-90v332h145l51 -211h3l58 211h132v-332h-96v235h-2z" />
    <glyph glyph-name="uni2153" unicode="&#x2153;" horiz-adv-x="916" 
d="M765 727l-516 -739h-100l515 739h101zM244 394h89v-72h-285v72h93v194h-94v68q59 0 83.5 11.5t32.5 46.5h81v-320zM799 196q37 -7 57.5 -30.5t20.5 -58.5q0 -50 -43.5 -82t-113.5 -32q-71 0 -116 34.5t-50 92.5h104q1 -21 18.5 -33.5t43.5 -12.5q25 0 40 11.5t15 30.5
q0 21 -14 31t-44 10h-37v77h36q25 0 38.5 11t13.5 31q0 19 -13 31t-34 12q-22 0 -37 -13t-17 -35h-101q4 56 47 92t110 36q66 0 105.5 -33t39.5 -85q0 -32 -19 -55t-50 -30z" />
    <glyph glyph-name="uni2154" unicode="&#x2154;" horiz-adv-x="942" 
d="M791 727l-516 -739h-100l515 739h101zM825 196q37 -7 57.5 -30.5t20.5 -58.5q0 -50 -43.5 -82t-113.5 -32q-71 0 -116 34.5t-50 92.5h104q1 -21 18.5 -33.5t43.5 -12.5q25 0 40 11.5t15 30.5q0 21 -14 31t-44 10h-37v77h36q25 0 38.5 11t13.5 31q0 19 -13 31t-34 12
q-22 0 -37 -13t-17 -35h-101q4 56 47 92t110 36q66 0 105.5 -33t39.5 -85q0 -32 -19 -55t-50 -30zM205 721q66 0 107.5 -34.5t41.5 -90.5q0 -40 -23.5 -68.5t-97.5 -65.5q-38 -19 -55 -33t-19 -27h196v-80h-313v37q0 46 29 84.5t97 77.5q57 31 70 45t13 32q0 19 -12.5 30.5
t-34.5 11.5q-24 0 -39 -16t-16 -41h-105q5 62 48.5 100t112.5 38z" />
    <glyph glyph-name="uni215B" unicode="&#x215b;" horiz-adv-x="931" 
d="M893 109q0 -53 -45 -84.5t-121 -31.5t-121 31.5t-45 84.5q0 32 21.5 58t50.5 33q-25 13 -40 35.5t-15 49.5q0 52 41 83.5t108 31.5t108.5 -31.5t41.5 -83.5q0 -27 -15 -49.5t-40 -35.5q28 -7 49.5 -33.5t21.5 -57.5zM781 281q0 21 -14.5 33t-39.5 12t-39 -12t-14 -33
t14 -33t39 -12t39.5 12t14.5 33zM791 116q0 23 -16.5 35.5t-47.5 12.5q-30 0 -46.5 -12.5t-16.5 -35.5q0 -22 16.5 -34.5t46.5 -12.5q31 0 47.5 12.5t16.5 34.5zM765 727l-516 -739h-100l515 739h101zM244 394h89v-72h-285v72h93v194h-94v68q59 0 83.5 11.5t32.5 46.5h81
v-320z" />
    <glyph glyph-name="uni215C" unicode="&#x215c;" horiz-adv-x="943" 
d="M904 109q0 -53 -45 -84.5t-121 -31.5t-121 31.5t-45 84.5q0 32 21.5 58t50.5 33q-25 13 -40 35.5t-15 49.5q0 52 41 83.5t108 31.5t108.5 -31.5t41.5 -83.5q0 -27 -15 -49.5t-40 -35.5q28 -7 49.5 -33.5t21.5 -57.5zM792 281q0 21 -14.5 33t-39.5 12t-39 -12t-14 -33
t14 -33t39 -12t39.5 12t14.5 33zM802 116q0 23 -16.5 35.5t-47.5 12.5q-30 0 -46.5 -12.5t-16.5 -35.5q0 -22 16.5 -34.5t46.5 -12.5q31 0 47.5 12.5t16.5 34.5zM776 727l-516 -739h-100l515 739h101zM281 518q37 -7 57.5 -30.5t20.5 -58.5q0 -50 -43.5 -82t-113.5 -32
q-71 0 -116 34.5t-50 92.5h104q1 -21 18.5 -33.5t43.5 -12.5q25 0 40 11.5t15 30.5q0 21 -14 31t-44 10h-37v77h36q25 0 38.5 11t13.5 31q0 19 -13 31t-34 12q-22 0 -37 -13t-17 -35h-101q4 56 47 92t110 36q66 0 105.5 -33t39.5 -85q0 -32 -19 -55t-50 -30z" />
    <glyph glyph-name="uni215D" unicode="&#x215d;" horiz-adv-x="936" 
d="M770 727l-516 -739h-100l515 739h101zM898 109q0 -53 -45 -84.5t-121 -31.5t-121 31.5t-45 84.5q0 32 21.5 58t50.5 33q-25 13 -40 35.5t-15 49.5q0 52 41 83.5t108 31.5t108.5 -31.5t41.5 -83.5q0 -27 -15 -49.5t-40 -35.5q28 -7 49.5 -33.5t21.5 -57.5zM786 281
q0 21 -14.5 33t-39.5 12t-39 -12t-14 -33t14 -33t39 -12t39.5 12t14.5 33zM796 116q0 23 -16.5 35.5t-47.5 12.5q-30 0 -46.5 -12.5t-16.5 -35.5q0 -22 16.5 -34.5t46.5 -12.5q31 0 47.5 12.5t16.5 34.5zM258 453q0 28 -13.5 43.5t-38.5 15.5q-17 0 -29.5 -6.5t-19.5 -18.5
h-100l22 227h259v-84h-182l-8 -71q15 13 36.5 20.5t45.5 7.5q61 0 98 -36.5t37 -96.5q0 -61 -43.5 -100t-114.5 -39q-73 0 -117 34.5t-50 95.5h112q2 -22 16.5 -36t36.5 -14q24 0 38.5 16t14.5 42z" />
    <glyph glyph-name="uni215E" unicode="&#x215e;" horiz-adv-x="871" 
d="M833 109q0 -53 -45 -84.5t-121 -31.5t-121 31.5t-45 84.5q0 32 21.5 58t50.5 33q-25 13 -40 35.5t-15 49.5q0 52 41 83.5t108 31.5t108.5 -31.5t41.5 -83.5q0 -27 -15 -49.5t-40 -35.5q28 -7 49.5 -33.5t21.5 -57.5zM721 281q0 21 -14.5 33t-39.5 12t-39 -12t-14 -33
t14 -33t39 -12t39.5 12t14.5 33zM731 116q0 23 -16.5 35.5t-47.5 12.5q-30 0 -46.5 -12.5t-16.5 -35.5q0 -22 16.5 -34.5t46.5 -12.5q31 0 47.5 12.5t16.5 34.5zM705 727l-516 -739h-100l515 739h101zM237 631h-197v83h302v-87q-61 -75 -85.5 -141.5t-25.5 -162.5h-114
q1 80 30 154.5t90 153.5z" />
    <glyph glyph-name="minus" unicode="&#x2212;" horiz-adv-x="660" 
d="M597 273h-535v119h535v-119z" />
    <glyph glyph-name="commaaccent" unicode="&#xf6c3;" 
d="M266 -138h-55v93h154v-54q0 -72 -38 -106.5t-117 -34.5v56q29 0 42.5 11t13.5 35z" />
    <glyph glyph-name="idotaccent" horiz-adv-x="305" 
d="M69 0v512h167v-512h-167zM239 583h-172v145h172v-145z" />
    <glyph glyph-name="a.ord" horiz-adv-x="419" 
d="M257 365q-13 -28 -40.5 -42.5t-66.5 -14.5q-54 0 -86.5 27.5t-32.5 73.5q0 45 30.5 69.5t97.5 31.5l92 9v16q0 21 -12 32t-33 11q-20 0 -32 -11t-14 -29h-115q5 59 48.5 92.5t115.5 33.5q79 0 119.5 -36.5t40.5 -108.5v-101q0 -35 1.5 -57.5t4.5 -44.5h-115
q-2 16 -2.5 27t-0.5 22zM188 383q27 0 45 17t18 45v18l-55 -8q-23 -3 -35 -12.5t-12 -25.5t10.5 -25t28.5 -9z" />
    <glyph glyph-name="b.ord" horiz-adv-x="456" 
d="M276 307q-33 0 -61 16t-41 43v-50h-120v485h121v-194q13 26 40.5 41.5t60.5 15.5q66 0 106.5 -49t40.5 -129t-40 -129.5t-107 -49.5zM237 578q-30 0 -47 -23t-17 -62v-15q0 -40 17 -62.5t47 -22.5q31 0 48 24.5t17 68.5t-17 68t-48 24z" />
    <glyph glyph-name="c.ord" horiz-adv-x="406" 
d="M214 308q-81 0 -131.5 49t-50.5 129t50.5 129t131.5 49q70 0 113.5 -36t49.5 -99h-115q-2 21 -15 34.5t-33 13.5q-29 0 -44.5 -24t-15.5 -67t15.5 -67t44.5 -24q20 0 33 13.5t15 34.5h115q-6 -63 -49.5 -99t-113.5 -36z" />
    <glyph glyph-name="d.ord" horiz-adv-x="456" 
d="M180 307q-67 0 -107 49.5t-40 129.5t40.5 129t106.5 49q33 0 60.5 -15.5t40.5 -41.5v194h121v-485h-120v50q-13 -27 -41 -43t-61 -16zM219 578q-31 0 -48 -24t-17 -68t17 -68.5t48 -24.5q30 0 47 22.5t17 62.5v15q0 39 -17 62t-47 23z" />
    <glyph glyph-name="e.ord" horiz-adv-x="416" 
d="M271 429h112q-11 -56 -55.5 -88.5t-112.5 -32.5q-81 0 -132 49t-51 129t51 129t131 49q78 0 124 -48t46 -126v-24h-236q3 -36 20 -54.5t47 -18.5q22 0 36.5 9t19.5 27zM214 580q-27 0 -43 -16t-21 -47h122q-1 28 -16.5 45.5t-41.5 17.5z" />
    <glyph glyph-name="f.ord" horiz-adv-x="270" 
d="M64 316v255h-44v85h44v29q0 59 32.5 90t94.5 31q15 0 29 -1t33 -4v-89q-16 1 -21.5 1.5t-10.5 0.5q-19 0 -27.5 -8.5t-8.5 -26.5v-23h65v-85h-65v-255h-121z" />
    <glyph glyph-name="g.ord" horiz-adv-x="457" 
d="M217 270q32 0 49 17.5t17 51.5v49q-13 -27 -40 -43t-61 -16q-67 0 -108 46.5t-41 121.5t41 121t108 46q35 0 62 -16t41 -43v50h120v-297q0 -81 -49 -124.5t-139 -43.5q-75 0 -122.5 30t-55.5 83h119q5 -16 20.5 -24.5t38.5 -8.5zM220 413q30 0 47.5 20.5t17.5 56.5v13
q0 35 -17.5 55.5t-47.5 20.5q-31 0 -48 -21.5t-17 -60.5q0 -40 17 -62t48 -22z" />
    <glyph glyph-name="h.ord" horiz-adv-x="454" 
d="M175 800v-195q14 28 40.5 43.5t61.5 15.5q60 0 93.5 -34.5t33.5 -96.5v-217h-122v188q0 33 -13 49.5t-38 16.5q-27 0 -41.5 -19t-14.5 -55v-180h-121v484h121z" />
    <glyph glyph-name="i.ord" horiz-adv-x="229" 
d="M176 696h-123v101h123v-101zM54 316v339h121v-339h-121z" />
    <glyph glyph-name="j.ord" horiz-adv-x="229" 
d="M176 696h-123v101h123v-101zM46 194q-13 0 -24.5 0.5t-26.5 2.5v87q13 -1 16.5 -1.5t6.5 -0.5q19 0 27.5 8t8.5 26v339h121v-344q0 -57 -33 -87t-96 -30z" />
    <glyph glyph-name="k.ord" horiz-adv-x="449" 
d="M435 316h-134l-92 125l-34 -34v-91h-121v484h121v-271l117 126h134l-135 -137z" />
    <glyph glyph-name="l.ord" horiz-adv-x="229" 
d="M175 800v-484h-121v484h121z" />
    <glyph glyph-name="m.ord" horiz-adv-x="669" 
d="M275 664q37 0 63.5 -14t43.5 -44q19 27 49 42.5t65 15.5q58 0 90 -34.5t32 -96.5v-217h-121v190q0 32 -12 48t-37 16q-24 0 -37.5 -18.5t-13.5 -52.5v-183h-121v190q0 32 -12 48t-36 16q-25 0 -39 -18.5t-14 -52.5v-183h-121v339h120v-50q13 27 40 43t61 16z" />
    <glyph glyph-name="n.ord" horiz-adv-x="454" 
d="M54 655h120v-50q14 28 41 43.5t62 15.5q60 0 93.5 -34.5t33.5 -96.5v-217h-122v189q0 32 -13 48.5t-38 16.5q-27 0 -41.5 -19t-14.5 -55v-180h-121v339z" />
    <glyph glyph-name="o.ord" horiz-adv-x="433" 
d="M217 308q-85 0 -135 48t-50 130t50.5 130t134.5 48t134 -48.5t50 -129.5q0 -82 -50 -130t-134 -48zM217 577q-31 0 -47 -23.5t-16 -67.5q0 -45 16 -68.5t47 -23.5t47 23.5t16 68.5q0 44 -16.5 67.5t-46.5 23.5z" />
    <glyph glyph-name="p.ord" horiz-adv-x="456" 
d="M276 307q-33 0 -60.5 15.5t-40.5 41.5v-166h-121v457h120v-50q13 27 41 43t61 16q66 0 106.5 -49.5t40.5 -129.5t-40.5 -129t-106.5 -49zM237 577q-30 0 -47 -22.5t-17 -61.5v-15q0 -39 17 -62t47 -23q31 0 48 24t17 68t-17 68t-48 24z" />
    <glyph glyph-name="q.ord" horiz-adv-x="456" 
d="M180 307q-66 0 -106.5 49t-40.5 129t40.5 129.5t106.5 49.5q33 0 61 -16t41 -43v50h120v-457h-121v166q-13 -26 -40.5 -41.5t-60.5 -15.5zM219 577q-31 0 -48 -24t-17 -68t17 -68t48 -24q30 0 47 23t17 62v15q0 39 -17 61.5t-47 22.5z" />
    <glyph glyph-name="r.ord" horiz-adv-x="325" 
d="M273 660q7 0 14 -0.5t11 -1.5v-112l-22.5 1.5t-14.5 0.5q-40 0 -63 -23t-23 -64v-145h-121v339h120v-71q12 37 38 56.5t61 19.5z" />
    <glyph glyph-name="s.ord" horiz-adv-x="391" 
d="M201 308q-76 0 -121 29t-52 83h111q3 -19 19 -29.5t41 -10.5q21 0 34 8.5t13 23.5q0 11 -9.5 17t-36.5 11l-60 11q-50 8 -75.5 33t-25.5 66q0 51 42.5 82.5t109.5 31.5q71 0 113 -29t47 -81h-106q-2 17 -17 27.5t-36 10.5q-20 0 -31.5 -8.5t-11.5 -23.5q0 -11 10 -17.5
t34 -10.5l64 -11q50 -9 74 -34t24 -68q0 -51 -42 -81t-112 -30z" />
    <glyph glyph-name="t.ord" horiz-adv-x="296" 
d="M221 406q14 0 22.5 1t17.5 3v-89q-23 -6 -40.5 -8.5t-37.5 -2.5q-63 0 -91 25t-28 80v156h-44v84h44v83h119v-83h71v-84h-72v-130q0 -19 8.5 -27t30.5 -8z" />
    <glyph glyph-name="u.ord" horiz-adv-x="449" 
d="M394 316h-119v49q-14 -27 -41 -42.5t-60 -15.5q-58 0 -90.5 34.5t-32.5 96.5v217h121v-191q0 -32 12 -48t36 -16q25 0 39 19t14 55v181h121v-339z" />
    <glyph glyph-name="v.ord" horiz-adv-x="434" 
d="M283 316h-131l-132 340h122l76 -223h2l76 223h118z" />
    <glyph glyph-name="w.ord" horiz-adv-x="603" 
d="M249 656h108l51 -219h1l56 219h118l-106 -340h-120l-55 209h-1l-54 -209h-121l-106 340h122l56 -219h1z" />
    <glyph glyph-name="x.ord" horiz-adv-x="442" 
d="M218 409l-68 -93h-128l130 173l-121 167h136l57 -81l58 81h129l-121 -162l130 -178h-137z" />
    <glyph glyph-name="y.ord" horiz-adv-x="434" 
d="M148 321l-128 335h125l75 -228h1l75 228h118l-129 -340q-24 -64 -64 -93t-106 -29q-12 0 -24.5 1t-23.5 2v87h19q31 0 42.5 8t19.5 29z" />
    <glyph glyph-name="z.ord" horiz-adv-x="387" 
d="M343 656v-82l-158 -170h165v-88h-311v79l158 173h-155v88h301z" />
    <glyph glyph-name="caron.Slovak" 
d="M388 736l-110 -199h-80l22 199h168z" />
    <glyph glyph-name="commaturn" 
d="M303 669h55v-93h-154v54q0 72 38 106.5t117 34.5v-56q-29 0 -42.5 -11t-13.5 -35z" />
    <glyph glyph-name="grave.cap" 
d="M345 920l50 -159h-104l-123 159h177z" />
    <glyph glyph-name="acute.cap" 
d="M396 920l-123 -159h-104l50 159h177z" />
    <glyph glyph-name="circumflex.cap" 
d="M110 760l101 160h142l101 -160h-93l-79 69l-79 -69h-93z" />
    <glyph glyph-name="caron.cap" 
d="M203 920l79 -69l79 69h93l-101 -160h-142l-101 160h93z" />
    <glyph glyph-name="tilde.cap" 
d="M284 798q-25 15 -36 19.5t-20 4.5q-16 0 -26 -14.5t-11 -41.5h-88q0 77 28 123.5t75 46.5q18 0 37 -7t53 -28q25 -15 36 -19.5t20 -4.5q16 0 26 15t11 41h88q0 -77 -28 -123.5t-75 -46.5q-18 0 -37 7t-53 28z" />
    <glyph glyph-name="macron.cap" 
d="M459 774h-355v105h355v-105z" />
    <glyph glyph-name="breve.cap" 
d="M275 758q-71 0 -113 45.5t-42 122.5h97q0 -33 15.5 -51.5t42.5 -18.5t42 18.5t15 51.5h98q0 -76 -42 -122t-113 -46z" />
    <glyph glyph-name="dotaccent.cap" 
d="M368 766h-172v145h172v-145z" />
    <glyph glyph-name="dieresis.cap" 
d="M463 766h-147v145h147v-145zM248 766h-147v145h147v-145z" />
    <glyph glyph-name="ring.cap" 
d="M417 847q0 -55 -39.5 -94.5t-95.5 -39.5q-55 0 -94.5 39.5t-39.5 94.5q0 56 39.5 96t94.5 40q56 0 95.5 -40t39.5 -96zM343 847q0 26 -17.5 43.5t-43.5 17.5q-25 0 -42.5 -18t-17.5 -43q0 -24 18 -42t42 -18q25 0 43 18t18 42z" />
    <glyph glyph-name="hungarumlaut.cap" 
d="M371 761h-95l52 159h158zM173 761h-96l52 159h158z" />
    <glyph glyph-name="guilsinglleft.cap" horiz-adv-x="356" 
d="M198 333l109 -211h-115l-143 211l143 211h115z" />
    <glyph glyph-name="guilsinglright.cap" horiz-adv-x="356" 
d="M49 544h115l143 -211l-143 -211h-115l109 211z" />
    <glyph glyph-name="guillemotleft.cap" horiz-adv-x="578" 
d="M419 333l110 -211h-112l-141 211l141 211h112zM194 333l109 -211h-111l-143 211l143 211h111z" />
    <glyph glyph-name="guillemotright.cap" horiz-adv-x="578" 
d="M49 544h112l141 -211l-141 -211h-112l110 211zM275 544h111l143 -211l-143 -211h-111l109 211z" />
    <glyph glyph-name="slash.cap" horiz-adv-x="557" 
d="M194 -75h-156l326 844h156z" />
    <glyph glyph-name="backslash.cap" horiz-adv-x="557" 
d="M364 -75l-326 844h156l326 -844h-156z" />
    <glyph glyph-name="bar.cap" horiz-adv-x="351" 
d="M104 -75v844h144v-844h-144z" />
    <glyph glyph-name="periodcentered.cap" horiz-adv-x="358" 
d="M272 260h-185v185h185v-185z" />
    <glyph glyph-name="bullet.cap" horiz-adv-x="520" 
d="M261 196q-71 0 -122.5 51t-51.5 122q0 70 51.5 120.5t122.5 50.5t121.5 -50t50.5 -121t-50.5 -122t-121.5 -51z" />
    <glyph glyph-name="hyphen.cap" horiz-adv-x="457" 
d="M370 280h-283v137h283v-137z" />
    <glyph glyph-name="endash.cap" horiz-adv-x="677" 
d="M590 288h-503v119h503v-119z" />
    <glyph glyph-name="emdash.cap" horiz-adv-x="1003" 
d="M916 288h-829v119h829v-119z" />
    <glyph glyph-name="parenleft.cap" horiz-adv-x="454" 
d="M252 347q0 -106 41.5 -214t119.5 -208h-156q-84 97 -126.5 203.5t-42.5 218.5t43 219t126 203h156q-79 -109 -120 -216t-41 -206z" />
    <glyph glyph-name="parenright.cap" horiz-adv-x="454" 
d="M202 346q0 99 -41 206t-120 216h156q83 -96 126 -203t43 -219t-42.5 -218.5t-126.5 -203.5h-156q78 100 119.5 208t41.5 214z" />
    <glyph glyph-name="bracketleft.cap" horiz-adv-x="427" 
d="M375 655h-122v-616h122v-114h-282v844h282v-114z" />
    <glyph glyph-name="bracketright.cap" horiz-adv-x="427" 
d="M52 767h282v-844h-282v114h122v616h-122v114z" />
    <glyph glyph-name="braceleft.cap" horiz-adv-x="441" 
d="M72 289h-39v116h39q26 0 41.5 16t15.5 42v182q0 61 37.5 92.5t108.5 31.5h115v-113h-65q-26 0 -36.5 -9.5t-10.5 -31.5v-173q0 -40 -26.5 -65.5t-72.5 -29.5q46 -4 72.5 -29t26.5 -66v-172q0 -22 11 -32t36 -10h65v-113h-115q-71 0 -108.5 31.5t-37.5 92.5v182
q0 26 -15.5 42t-41.5 16z" />
    <glyph glyph-name="braceright.cap" horiz-adv-x="441" 
d="M369 289q-26 0 -41.5 -16t-15.5 -42v-182q0 -61 -37.5 -92.5t-108.5 -31.5h-115v113h65q25 0 36 10t11 32v172q0 41 26.5 66t72.5 29q-46 4 -72.5 29.5t-26.5 65.5v173q0 22 -10.5 31.5t-36.5 9.5h-65v113h115q71 0 108.5 -31.5t37.5 -92.5v-182q0 -26 15.5 -42t41.5 -16
h39v-116h-39v0z" />
    <glyph glyph-name="at.cap" horiz-adv-x="917" 
d="M563 556h126l-51 -289q-5 -27 4 -40.5t32 -13.5q56 0 88.5 55.5t32.5 151.5q0 122 -83.5 194t-222.5 72q-158 0 -259 -101.5t-101 -261.5q0 -155 97.5 -239.5t263.5 -84.5q62 0 117.5 11t110.5 34l31 -69q-52 -26 -120.5 -41t-138.5 -15q-203 0 -328 108t-125 296
q0 92 34 174.5t96 143.5q63 61 145.5 93.5t176.5 32.5q172 0 282 -98t110 -249q0 -132 -66.5 -210t-173.5 -78q-40 0 -73 16.5t-51 46.5q-18 -26 -52 -42.5t-70 -16.5q-72 0 -115.5 49t-43.5 129q0 105 62 178t155 73q33 0 61 -15t40 -38zM436 244q31 0 54.5 22t30.5 60
l5 33q7 43 -9 69.5t-48 26.5q-42 0 -68.5 -31.5t-29.5 -82.5q-4 -45 13 -71t52 -26z" />
    <glyph glyph-name="Euro.lt" horiz-adv-x="660" 
d="M493 239h149q-19 -120 -88.5 -185.5t-179.5 -65.5q-107 0 -181 66t-100 184h-71v92h59q-1 5 -1 10.5v17.5v18.5t1 11.5h-59v91h71q26 116 100 181.5t181 65.5q111 0 180.5 -65t87.5 -185h-149q-10 59 -38.5 88t-77.5 29q-47 0 -79.5 -29t-47.5 -85h160l-11 -91h-162
q-1 -5 -1 -11.5v-18.5v-17.5t1 -10.5h154l-10 -92h-131q15 -58 47.5 -87.5t79.5 -29.5q49 0 77.5 29t38.5 89z" />
    <glyph glyph-name="dollar.lt" horiz-adv-x="660" 
d="M626 210q0 -92 -68.5 -151.5t-181.5 -68.5v-100h-85v101q-117 12 -186 71t-78 157h151q4 -43 33 -69.5t80 -34.5v179l-52 9q-95 17 -143.5 67t-48.5 133q0 92 67 151.5t177 68.5v95h85v-97q105 -11 166.5 -66t71.5 -147h-148q-4 35 -26.5 57.5t-63.5 30.5v-172l65 -12
q92 -17 138.5 -67.5t46.5 -134.5zM197 517q0 -33 19.5 -50t74.5 -27v159q-45 -6 -69.5 -27t-24.5 -55zM476 198q0 36 -22.5 53.5t-77.5 26.5v-165q49 6 74.5 27.5t25.5 57.5z" />
    <glyph glyph-name="cent.lt" horiz-adv-x="660" 
d="M460 194h132q-10 -81 -64.5 -135t-138.5 -65v-100h-85v100q-104 14 -166.5 87.5t-62.5 183.5q0 109 62.5 182.5t166.5 87.5v111h85v-111q84 -11 138.5 -65t64.5 -135h-132q-4 31 -22.5 52.5t-48.5 30.5v-307q30 9 48.5 30.5t22.5 52.5zM219 265q0 -58 22 -97t63 -54v301
q-41 -15 -63 -54t-22 -96z" />
    <glyph glyph-name="sterling.lt" horiz-adv-x="660" 
d="M239 134h378v-134h-574v134h15q39 0 60 35.5t21 101.5h-90v115h61q-14 40 -19 66t-5 51q0 96 73.5 159.5t186.5 63.5q119 0 189.5 -66t78.5 -181h-162q-3 56 -30 86.5t-76 30.5q-43 0 -70 -27t-27 -69q0 -13 2.5 -27t7.5 -30q3 -10 10 -28.5t10 -28.5h154v-115h-135
q-2 -41 -17 -75.5t-42 -61.5z" />
    <glyph glyph-name="yen.lt" horiz-adv-x="660" 
d="M586 262v-92h-173v-170h-164v170h-173v92h173v60h-173v92h122l-179 300h177l137 -252h1l136 252h172l-178 -300h122v-92h-173v-60h173z" />
    <glyph glyph-name="florin.lt" horiz-adv-x="660" 
d="M513 405v-127h-120l-68 -387h-161l69 387h-76v127h99l27 151q17 93 73.5 142.5t145.5 49.5q22 0 43 -3t35 -9v-150q-14 5 -25.5 7t-30.5 2q-40 0 -61 -21t-30 -67l-18 -102h98z" />
    <glyph glyph-name="zero.slash" horiz-adv-x="720" 
d="M360 -12q-145 0 -233 102t-88 267t88 267t233 102q144 0 232.5 -102t88.5 -267t-88.5 -267t-232.5 -102zM361 605q-72 0 -113 -66t-41 -182q0 -54 9 -98t27 -76l163 414q-10 4 -21.5 6t-23.5 2zM361 109q71 0 111.5 66t40.5 182q0 53 -9 97t-26 76l-163 -413
q11 -4 22.5 -6t23.5 -2z" />
    <glyph glyph-name="zero.lt" horiz-adv-x="660" 
d="M626 357q0 -164 -81.5 -266.5t-214.5 -102.5t-214.5 102.5t-81.5 266.5t81.5 266.5t214.5 102.5t214.5 -102.5t81.5 -266.5zM203 357q0 -118 32 -178.5t95 -60.5t95 60.5t32 178.5t-32 178.5t-95 60.5t-95 -60.5t-32 -178.5z" />
    <glyph glyph-name="zero.slash.lt" horiz-adv-x="660" 
d="M626 357q0 -164 -81.5 -266.5t-214.5 -102.5t-214.5 102.5t-81.5 266.5t81.5 266.5t214.5 102.5t214.5 -102.5t81.5 -266.5zM330 605q-67 0 -101 -63t-34 -185q0 -49 5 -87t16 -67l174 386q-14 8 -29 12t-31 4zM330 110q67 0 101 62t34 185q0 48 -5 86t-15 67l-175 -384
q14 -8 29 -12t31 -4z" />
    <glyph glyph-name="one.lt" horiz-adv-x="660" 
d="M438 132h173v-132h-547v132h200v363h-180v114q115 0 165 21.5t65 84.5h124v-583z" />
    <glyph glyph-name="two.lt" horiz-adv-x="660" 
d="M342 726q116 0 188 -62t72 -161q0 -76 -45 -131.5t-171 -119.5q-74 -38 -105 -64.5t-34 -53.5h356v-134h-548v61q0 83 51 152.5t178 143.5q106 61 130.5 88t24.5 61q0 42 -25.5 65.5t-72.5 23.5q-48 0 -78.5 -32.5t-33.5 -84.5h-167q9 112 84.5 180t195.5 68z" />
    <glyph glyph-name="three.lt" horiz-adv-x="660" 
d="M464 359q67 -11 105.5 -55t38.5 -109q0 -91 -76.5 -149t-201.5 -58t-204 62.5t-88 166.5h165q4 -46 39 -73.5t88 -27.5q55 0 86.5 25t31.5 68t-30 65t-87 22h-71v122h69q50 0 77.5 23t27.5 66q0 41 -27 65.5t-73 24.5q-49 0 -80 -28t-34 -74h-159q7 103 82 167t193 64
q117 0 186.5 -59t69.5 -152q0 -60 -35 -102.5t-93 -53.5z" />
    <glyph glyph-name="four.lt" horiz-adv-x="660" 
d="M334 714h186v-420h117v-131h-117v-163h-166v163h-331v132zM354 294v266l-190 -266h190z" />
    <glyph glyph-name="five.lt" horiz-adv-x="660" 
d="M444 236q0 56 -30 89.5t-83 33.5q-34 0 -61.5 -14t-42.5 -38h-156l42 407h451v-134h-326l-15 -141q23 21 61 34t81 13q109 0 176.5 -69t67.5 -179t-76 -180t-200 -70q-128 0 -205 62.5t-86 170.5h173q4 -48 35.5 -77t80.5 -29q52 0 82.5 33.5t30.5 87.5z" />
    <glyph glyph-name="six.lt" horiz-adv-x="660" 
d="M348 597q-66 0 -106.5 -58t-40.5 -150q27 43 70 65.5t98 22.5q108 0 179 -68.5t71 -172.5q0 -109 -77 -178.5t-199 -69.5q-136 0 -218 97t-82 260q0 171 86 276t225 105q104 0 174 -57t83 -150h-157q-11 39 -37.5 58.5t-68.5 19.5zM220 235q0 -55 34 -90t88 -35
q53 0 86 34.5t33 90.5q0 55 -33 89t-86 34q-54 0 -88 -34t-34 -89z" />
    <glyph glyph-name="seven.lt" horiz-adv-x="660" 
d="M444 581h-394v133h564v-136q-128 -156 -181.5 -288t-54.5 -291h-177q2 140 58 277.5t185 304.5z" />
    <glyph glyph-name="eight.lt" horiz-adv-x="660" 
d="M67 521q0 94 72 149.5t191 55.5t191 -55.5t72 -149.5q0 -51 -28 -93.5t-76 -65.5q54 -12 95 -59.5t41 -104.5q0 -96 -80 -153t-215 -57q-134 0 -214 57t-80 153q0 57 40.5 104.5t95.5 59.5q-48 23 -76.5 65.5t-28.5 93.5zM218 515q0 -43 30 -68t82 -25t82 25t30 68
t-30 68t-82 25t-82 -25t-30 -68zM199 207q0 -46 34.5 -72t96.5 -26t97 26t35 72t-35 72t-97 26t-96.5 -26t-34.5 -72z" />
    <glyph glyph-name="nine.lt" horiz-adv-x="660" 
d="M312 117q66 0 106.5 58t40.5 150q-27 -43 -70 -65.5t-98 -22.5q-108 0 -179 68.5t-71 172.5q0 109 77 178.5t199 69.5q136 0 218 -97t82 -260q0 -171 -86 -276t-225 -105q-104 0 -174 57t-83 150h157q11 -39 37.5 -58.5t68.5 -19.5zM440 479q0 55 -34 90t-88 35
q-53 0 -86 -34.5t-33 -90.5q0 -55 33 -89t86 -34q54 0 88 34t34 89z" />
    <glyph glyph-name="period.tab" horiz-adv-x="330" 
d="M258 0h-185v185h185v-185z" />
    <glyph glyph-name="comma.tab" horiz-adv-x="330" 
d="M161 6h-86v179h185v-189q0 -82 -51.5 -127t-145.5 -45v85q53 1 75.5 21.5t22.5 64.5v11z" />
    <glyph glyph-name="colon.tab" horiz-adv-x="330" 
d="M258 311h-185v185h185v-185zM258 0h-185v185h185v-185z" />
    <glyph glyph-name="semicolon.tab" horiz-adv-x="330" 
d="M161 6h-86v179h185v-189q0 -82 -51.5 -127t-145.5 -45v85q53 1 75.5 21.5t22.5 64.5v11zM260 311h-185v185h185v-185z" />
    <glyph glyph-name="space.tab" horiz-adv-x="330" 
 />
    <glyph glyph-name="zero.dnom" horiz-adv-x="439" 
d="M402 196q0 -90 -50 -146.5t-132 -56.5t-132.5 56.5t-50.5 146.5q0 91 50.5 147.5t132.5 56.5t132 -56.5t50 -147.5zM149 196q0 -61 18 -91.5t53 -30.5t52.5 30.5t17.5 91.5t-17.5 92t-52.5 31q-36 0 -53.5 -31t-17.5 -92z" />
    <glyph glyph-name="one.dnom" horiz-adv-x="357" 
d="M236 72h89v-72h-285v72h93v194h-94v68q59 0 83.5 11.5t32.5 46.5h81v-320z" />
    <glyph glyph-name="two.dnom" horiz-adv-x="381" 
d="M197 399q66 0 107.5 -34.5t41.5 -90.5q0 -40 -23.5 -68.5t-97.5 -65.5q-38 -19 -55 -33t-19 -27h196v-80h-313v37q0 46 29 84.5t97 77.5q57 31 70 45t13 32q0 19 -12.5 30.5t-34.5 11.5q-24 0 -39 -16t-16 -41h-105q5 62 48.5 100t112.5 38z" />
    <glyph glyph-name="three.dnom" horiz-adv-x="384" 
d="M273 196q37 -7 57.5 -30.5t20.5 -58.5q0 -50 -43.5 -82t-113.5 -32q-71 0 -116 34.5t-50 92.5h104q1 -21 18.5 -33.5t43.5 -12.5q25 0 40 11.5t15 30.5q0 21 -14 31t-44 10h-37v77h36q25 0 38.5 11t13.5 31q0 19 -13 31t-34 12q-22 0 -37 -13t-17 -35h-101q4 56 47 92
t110 36q66 0 105.5 -33t39.5 -85q0 -32 -19 -55t-50 -30z" />
    <glyph glyph-name="four.dnom" horiz-adv-x="428" 
d="M212 391h113v-238h73v-74h-73v-79h-101v79h-194v74zM224 153v141l-105 -141h105z" />
    <glyph glyph-name="five.dnom" horiz-adv-x="394" 
d="M250 131q0 28 -13.5 43.5t-38.5 15.5q-17 0 -29.5 -6.5t-19.5 -18.5h-100l22 227h259v-84h-182l-8 -71q15 13 36.5 20.5t45.5 7.5q61 0 98 -36.5t37 -96.5q0 -61 -43.5 -100t-114.5 -39q-73 0 -117 34.5t-50 95.5h112q2 -22 16.5 -36t36.5 -14q24 0 38.5 16t14.5 42z" />
    <glyph glyph-name="six.dnom" horiz-adv-x="399" 
d="M209 318q-31 0 -51 -26.5t-20 -67.5q15 19 36.5 28t48.5 9q61 0 101 -37t40 -94q0 -60 -44 -98.5t-113 -38.5q-78 0 -124.5 53.5t-46.5 142.5q0 95 49 153t127 58q59 0 99 -32t47 -84h-99q-5 17 -17.5 25.5t-32.5 8.5zM147 129q0 -26 16.5 -42.5t42.5 -16.5q25 0 41 16.5
t16 42.5t-16 42.5t-41 16.5q-26 0 -42.5 -16.5t-16.5 -42.5z" />
    <glyph glyph-name="seven.dnom" horiz-adv-x="367" 
d="M229 308h-197v83h302v-87q-61 -75 -85.5 -141.5t-25.5 -162.5h-114q1 80 30 154.5t90 153.5z" />
    <glyph glyph-name="eight.dnom" horiz-adv-x="402" 
d="M367 109q0 -53 -45 -84.5t-121 -31.5t-121 31.5t-45 84.5q0 32 21.5 58t50.5 33q-25 13 -40 35.5t-15 49.5q0 52 41 83.5t108 31.5t108.5 -31.5t41.5 -83.5q0 -27 -15 -49.5t-40 -35.5q28 -7 49.5 -33.5t21.5 -57.5zM255 281q0 21 -14.5 33t-39.5 12t-39 -12t-14 -33
t14 -33t39 -12t39.5 12t14.5 33zM265 116q0 23 -16.5 35.5t-47.5 12.5q-30 0 -46.5 -12.5t-16.5 -35.5q0 -22 16.5 -34.5t46.5 -12.5q31 0 47.5 12.5t16.5 34.5z" />
    <glyph glyph-name="nine.dnom" horiz-adv-x="399" 
d="M191 74q31 0 51.5 27.5t20.5 67.5q-17 -19 -38.5 -28.5t-48.5 -9.5q-60 0 -100 38t-40 95q0 59 44.5 97.5t113.5 38.5q77 0 123.5 -53.5t46.5 -142.5q0 -94 -49 -152.5t-128 -58.5q-58 0 -97.5 32t-48.5 84h100q5 -17 18 -26t32 -9zM253 264q0 26 -16 42t-43 16
q-25 0 -41 -16t-16 -42t16 -42.5t41 -16.5q27 0 43 16t16 43z" />
    <glyph glyph-name="percent.lt" horiz-adv-x="660" 
d="M167 406q-66 0 -112.5 47.5t-46.5 113.5t46.5 112.5t112.5 46.5t113 -47t47 -112q0 -66 -47 -113.5t-113 -47.5zM23 0l506 714h104l-505 -714h-105zM167 639q-28 0 -49 -21.5t-21 -50.5q0 -30 21 -52t49 -22q29 0 49.5 21.5t20.5 52.5q0 30 -20.5 51t-49.5 21zM493 -12
q-65 0 -112 47t-47 113q0 65 47 112.5t112 47.5q66 0 113 -47t47 -113t-47 -113t-113 -47zM493 221q-29 0 -49.5 -21.5t-20.5 -51.5t20.5 -51t49.5 -21t50 21t21 51t-21 51.5t-50 21.5z" />
    <glyph glyph-name="thinspace" horiz-adv-x="61" 
 />
    </font>
</defs>
</svg>
