<?xml version="1.0" encoding="UTF-8" standalone="no"?>
<svg
   xmlns:dc="http://purl.org/dc/elements/1.1/"
   xmlns:cc="http://creativecommons.org/ns#"
   xmlns:rdf="http://www.w3.org/1999/02/22-rdf-syntax-ns#"
   xmlns:svg="http://www.w3.org/2000/svg"
   xmlns="http://www.w3.org/2000/svg"
   xmlns:sodipodi="http://sodipodi.sourceforge.net/DTD/sodipodi-0.dtd"
   xmlns:inkscape="http://www.inkscape.org/namespaces/inkscape"
   width="163.832"
   height="140.427"
   version="1.1"
   id="svg4"
   sodipodi:docname="AFETR.svg"
   inkscape:version="0.92.4 (5da689c313, 2019-01-14)">
  <metadata
     id="metadata10">
    <rdf:RDF>
      <cc:Work
         rdf:about="">
        <dc:format>image/svg+xml</dc:format>
        <dc:type
           rdf:resource="http://purl.org/dc/dcmitype/StillImage" />
      </cc:Work>
    </rdf:RDF>
  </metadata>
  <defs
     id="defs8" />
  <sodipodi:namedview
     pagecolor="#ffffff"
     bordercolor="#666666"
     borderopacity="1"
     objecttolerance="10"
     gridtolerance="10"
     guidetolerance="10"
     inkscape:pageopacity="0"
     inkscape:pageshadow="2"
     inkscape:window-width="1920"
     inkscape:window-height="1017"
     id="namedview6"
     showgrid="false"
     inkscape:zoom="3.3611769"
     inkscape:cx="31.396256"
     inkscape:cy="116.73219"
     inkscape:window-x="-8"
     inkscape:window-y="-8"
     inkscape:window-maximized="1"
     inkscape:current-layer="svg4" />
  <path
     d="m 117.54573,0.61948517 1.22,1.86000003 2.7,7.9899998 1.4,2.7 2.95,7.43 4.04,7.01 5.48,8.37 8.43,9.85 1.06,1.43 -0.63,1.47 -0.03,1.42 0.28,2.08 0.59,1.98 1.21,2.33 2.16,3.51 -0.97,-0.61 -3.11,-5.04 -0.8,-3.13 -0.46,-4.56 -0.49,0.2 -0.16,1.53 0.07,1.76 -0.44,0.76 -1.2,-2.5 -0.15,-1.19 0.56,-1.52 -0.32,-0.46 -1.41,-0.49 -0.46,-1.07 -0.01,-1.13 -0.84,-0.46 -0.57,0.13 0.84,2.65 0.89,1.56 1.43,3.87 1.64,2.21 1.06,1.91 12.16,20.24 2.49,2.41 1.09,1.86 1.51,4.02 1.12,5.31 0.33,10.02 0.86,6.730005 -0.24,-0.17 -0.26,-0.68 -0.34,-0.04 -0.68,3.27 -1.18,3.05 0.2,4.39 -0.42,2.29 -2.01,2.69 -1.5,0.2 -3.37,2.33 -2.65,-0.01 -2.9,1.48 -2.04,0.23 -1.5,-1.84 0.03,-0.94 0.31,-0.99 0.75,-0.34 3.06,1.68 0.36,-0.98 -1,-0.93 -1.66,-0.33 -1.26,-0.46 -3.12,-4.48 -2.95,-2.94 -0.76,-2.16 -4.35,-0.69 -3.32,-1.58 -2.52,-3.35 -2.13,-6.310005 -1.42,-0.52 -0.63,-0.42 0.9,-2.6 1.03,-2.22 -0.99,0.67 -0.67,0.87 -0.72,1.94 -0.69,0.39 -0.71,-0.17 -1.3,-3.29 -0.43,-4.23 0.83,-1.73 -1.66,0.21 -1.62,0.86 0.47,1.36 -0.12,0.81 -1.28,-0.01 -1.02,-0.35 -1.51,-1.26 -2.17,-2.51 -4.72,-7.11 -0.86,-0.98 -1.35,-0.95 0.51,-0.43 0.98,-0.36 1.78,-3.78 1.48,-2.35 0.38,-1.52 -0.2,-0.6 -0.93,-0.77 -0.92,0.94 -0.48,-0.16 -1.44,-1.63 -1.19,-0.34 -0.72,0.5 1.04,1.35 0.82,0.44 0.03,2.19 -0.2,0.74 -0.6,0.72 -1.13,-0.17 -0.47,0.61 -0.73,-0.47 -0.78,-0.85 -0.94,-1.45 0.6,-9.01 0.92,-5.81 -0.74,-6.36 -0.01,-0.96 -0.4,-1.66 -2.850002,-3.32 -11.46,-7.45 -9.32,-9.47 -7.31,-3.05 -5.03,1.54 -0.79,0.91 -0.25,1.09 0.48,1.14 -0.41,0.55 -1.39,0.12 -1.83,0.51 -4.52,3.39 -1.73,0.11 -1.47,0.91 -1.11,0.68 -3.02,0.66 -2.52,0.93 -1.16,-0.2 -0.92,-1.53 -0.2,-1.67 0.74,1.21 1.03,0.89 0.37,-0.45 0.05,-0.91 -1.11,-1.63 -3.19,-1.89 -3.71,-2.88 1.03,-0.01 0.18,-0.73 -1.14,-0.8 0.31,-1.11 0.6,-1.2 -1.38,0.33 -1.17,0.92 0.07,0.97 -0.16,0.79 -0.69,-0.04 -1.36,-0.8 -6.48,-1.95 -5.56,-0.91 4.07,-1.11 2.3,0.28 -0.36,-0.77 -0.6,-0.45 -1.84,-0.45 -2.23,0.49 -1.46,-0.15 -1.39,0.79 -1.5,1.11 -1.37,0.63 -5.5,1.25 -4.4500003,1.19 0.65,-0.85 0.7200003,-0.58 2.59,-1.03 0.24,-1.63 -0.78,-1.46 -0.66,0.44 -0.62,1.27 -0.99,-0.77 -1.0000003,0.1 -0.09,1.93 -1.16,1.4 -0.46,1.34 -3.68,1.36 -0.52,-0.29 0.99,-1.32 -0.15,-0.67 -0.76,0.44 0.11,-0.78 0.62,-0.75 0.22,-0.82 -0.23,-1.51 0.29,-2.18 -0.32,-0.65 -3.04999995,-2.51 -0.81,-1.39 -0.27,-1.52 0.12,-1.6199998 6.20999995,-0.59 6.2100003,-0.61 6.21,-0.63 6.21,-0.66 6.21,-0.68 6.2,-0.7 6.2,-0.72 6.18,-0.75 1,1.66 1.97,3.45 0.16,0.8399998 1.82,-0.09 3.09,-0.17 3.09,-0.18 3.09,-0.19 3.09,-0.19 3.09,-0.2 3.09,-0.2 3.09,-0.21 3.09,-0.21 3.09,-0.22 3.09,-0.22 3.09,-0.23 3.09,-0.24 3.09,-0.24 3.09,-0.25 3.090002,-0.25 3.09,-0.26 0.13,0.73 0.68,1.07 0.33,1.29 0.33,0.5899998 0.67,0.3 0.98,-0.05 0.86,-0.8899998 0.36,-1.72 -0.13,-1.84 -0.69,-2.01 -0.21,-1.75 0.32,-1.1 0.53,-0.34000003 0.41,-0.63 0.39,-0.18 1.1,0.13 4.19,0.84 z M 55.255728,34.129485 l -1.86,1.04 -2.19,-0.33 1.3,-0.27 0.98,0.12 2.27,-1.44 1.15,-1.02 1.42,-0.51 z m 100.910002,38.84 0.61,1.58 -2.5,-3.49 -3.3,-5.58 -2,-4.4 1.03,1.1 1.25,2.44 z m -35.34,22.51 0.17,1.32 -1.36,-2.05 -1.05,-2.33 1.09,0.64 z m 1.28,2.07 -0.63,0.7 -1.52,-0.21 -0.91,-0.65 -0.57,-1.45 1.51,1.4 0.51,0.29 z m 38.48,23.910005 -3.34,4.93 0.27,-1.14 1.2,-2.54 0.33,-1.15 0.95,-0.86 0.79,-1.39 -0.17,-1.43 1.27,-1.25 0.45,-0.23 z m -4.33,6.28 -0.53,0.2 0.65,-1.1 0.24,0.03 z m -3.55,2.91 -0.39,0.06 0.14,-0.35 0.7,-0.78 0.33,0.2 0.02,0.33 z m -4.09,2.7 -0.85,0.69 -1.04,-0.23 0.98,-0.71 3.09,-1.1 -1.08,0.91 z m -5.74,2.47 -0.54,0.56 -0.32,-0.09 -0.11,-0.68 -1.12,-1.35 -0.03,-0.4 2.25,1.14 0.12,0.39 z m -4.6,1.92 -1.3,0.44 0.94,-1.06 0.13,-1.41 0.8,0.95 0.09,0.64 z m -4.28,1.96 -0.52,0.13 -0.1,-0.34 0.84,-0.57 0.6,-0.06 0.05,0.48 z"
     style="fill:#cccccc;fill-opacity:1;stroke:#ffffff;stroke-width:0.5;stroke-opacity:1"
     id="path2"
     inkscape:connector-curvature="0" />
  <g
     id="layer1"
     inkscape:label="Vrstva 1"
     transform="matrix(0.07532373,0,0,0.07770385,137.42997,42.225233)">
    <circle
       transform="matrix(0.994318,0,0,0.994318,-275.5681,-427.0646)"
       id="path1306"
       style="fill:#ff1414;fill-opacity:0.78448277;stroke-width:10.19400024;stroke-miterlimit:4;stroke-dasharray:none"
       cx="340"
       cy="492.36218"
       r="62.857143" />
  </g>
</svg>
