<?xml version="1.0" encoding="UTF-8" standalone="no"?>
<svg
   xmlns:dc="http://purl.org/dc/elements/1.1/"
   xmlns:cc="http://creativecommons.org/ns#"
   xmlns:rdf="http://www.w3.org/1999/02/22-rdf-syntax-ns#"
   xmlns:svg="http://www.w3.org/2000/svg"
   xmlns="http://www.w3.org/2000/svg"
   xmlns:sodipodi="http://sodipodi.sourceforge.net/DTD/sodipodi-0.dtd"
   xmlns:inkscape="http://www.inkscape.org/namespaces/inkscape"
   width="129.489"
   height="55.338"
   version="1.1"
   id="svg4"
   sodipodi:docname="CAS.svg"
   inkscape:version="0.92.4 (5da689c313, 2019-01-14)">
  <metadata
     id="metadata10">
    <rdf:RDF>
      <cc:Work
         rdf:about="">
        <dc:format>image/svg+xml</dc:format>
        <dc:type
           rdf:resource="http://purl.org/dc/dcmitype/StillImage" />
      </cc:Work>
    </rdf:RDF>
  </metadata>
  <defs
     id="defs8" />
  <sodipodi:namedview
     pagecolor="#ffffff"
     bordercolor="#666666"
     borderopacity="1"
     objecttolerance="10"
     gridtolerance="10"
     guidetolerance="10"
     inkscape:pageopacity="0"
     inkscape:pageshadow="2"
     inkscape:window-width="1920"
     inkscape:window-height="1017"
     id="namedview6"
     showgrid="false"
     inkscape:zoom="12.406819"
     inkscape:cx="107.72212"
     inkscape:cy="23.487214"
     inkscape:window-x="-8"
     inkscape:window-y="-8"
     inkscape:window-maximized="1"
     inkscape:current-layer="svg4" />
  <path
     d="m6.42 536.26.61.25.53 1.12-.85 1.06-.34 1.18-.81.38-.57 2.44-.86-.31-1.11-1.31-2.58-.33-.41-.35.16-1.25.54-.45 1.46.52 1.2-.28 1.3-1.17-.12-.67zm68.19-10.15.5.46-.17 1.01v-.83l-.28.94v-.53l-.32.23.5 1.22-.24 1.23 1.26 1.53.16.56-.45.74.69 1-.71.26-.25 1.09.24.99-.8.37-.36 1.24-3.34 1.19-.56.92-.78.08-1.62-.69-.4.23-3.06-2.6-1.26-2.32.27-3.19.99-.23 1.79-1.49.64-2.48-.33-.48.71-.13.43.36.8-.42.99.85 2.03-.33 1.64.88.79-.35-.12-.87zm-50.46-1.06.38-.08.45.53 1.31.02.33.62 1.75.84.42.74.06 1.11-1.86 1.76-.82.34-1.94-.06-1.34-1.03-.04-.54-.75-.68.1-1.66.65-1.39zm13.91-4.94.97-.02 1.43-.79 1.92.24 1.43-.78 1.09-.02 2.2-2.07.52-1.21.76-.61 1.27-.28.36-.69 2.72.4 1.77-.7.7.22.34.67-.15.85-2.99 1.39-.46.97-2.95 2.32v2.24l-1.75 3.15-.04 1.71-3.27 3.78-1.33-.13-1.31.78-1.56-.02-.27-1.3-.72-.29.02-.91-1.15-1.06-1.58-2.66-.11-1.77-1.52-2.08-.76-.29.2-.6 2.3-.98.66.5zm78.07-11.75 1.55 1.36.38 3.71-.57 2.73-.66.72.41 2.69-1.16 2.14-.04 1.12-.55 1.08-.74.7-1.15.03-.69.64-5.63 1.31-3.08 3.71-3.91-1.02-.9.36.45-1.38.27.31 1.1-.02 2-.53 3.93-2.88.57-3.52 1.12-1.29.42-2.17 1.44-1.43 1.6-3.26-.12-.75.82-1.85-.22-1.22zm2.27-.29-.1.77-.43.06-.19-.47zM6.82 505.28l1.43.75 1.33-.4.86.16.74 2.1.72.92-1.26 2.04.56 1.61-.26 1.65-2.22 3.63-.74-.63-.33-2.07-1.24-1.73-1.49-4.01-.72-.97.05-.83 1.04-1.33zm120.94-11.46 1.14.57.1.75-.23.93-.98.82.45 1.25-.5.99.03 1.16-.57.79-1.39.73-.29.53-1.34.11-1.25.92-2.52.38-1.4 2.11-.38-.62-1.95.11-.24-.97 1.42-1.31-.11-1.88.5-1.37 1.65-1.38 1.27-.04 1.54-1.34.49.23.86-.62 1.47.53.62-.72.77-2.4.7-.61zm-1.14-1.97.95.83-.87 1.21-1.07.17zm.08-3.89.47.41-.52.56-.61.01.17-.84z"
     style="fill:#ccc;fill-opacity:1;stroke:#fff;stroke-width:.5;stroke-opacity:1"
     transform="translate(.235 -487.682)"
     id="path2" />
  <g
     id="layer1"
     inkscape:label="Vrstva 1"
     transform="matrix(0.02889973,0,0,0.02996727,119.30898,19.167055)">
    <circle
       transform="matrix(0.994318,0,0,0.994318,-275.5681,-427.0646)"
       id="path1306"
       style="fill:#ff1414;fill-opacity:0.78448277;stroke-width:10.19400024;stroke-miterlimit:4;stroke-dasharray:none"
       cx="340"
       cy="492.36218"
       r="62.857143" />
  </g>
</svg>
