<?xml version="1.0" encoding="UTF-8" standalone="no"?>
<svg
   xmlns:dc="http://purl.org/dc/elements/1.1/"
   xmlns:cc="http://creativecommons.org/ns#"
   xmlns:rdf="http://www.w3.org/1999/02/22-rdf-syntax-ns#"
   xmlns:svg="http://www.w3.org/2000/svg"
   xmlns="http://www.w3.org/2000/svg"
   xmlns:sodipodi="http://sodipodi.sourceforge.net/DTD/sodipodi-0.dtd"
   xmlns:inkscape="http://www.inkscape.org/namespaces/inkscape"
   width="163.832"
   height="140.427"
   version="1.1"
   id="svg4"
   sodipodi:docname="ERAS.svg"
   inkscape:version="0.92.4 (5da689c313, 2019-01-14)">
  <metadata
     id="metadata10">
    <rdf:RDF>
      <cc:Work
         rdf:about="">
        <dc:format>image/svg+xml</dc:format>
        <dc:type
           rdf:resource="http://purl.org/dc/dcmitype/StillImage" />
      </cc:Work>
    </rdf:RDF>
  </metadata>
  <defs
     id="defs8" />
  <sodipodi:namedview
     pagecolor="#ffffff"
     bordercolor="#666666"
     borderopacity="1"
     objecttolerance="10"
     gridtolerance="10"
     guidetolerance="10"
     inkscape:pageopacity="0"
     inkscape:pageshadow="2"
     inkscape:window-width="1920"
     inkscape:window-height="1017"
     id="namedview6"
     showgrid="false"
     inkscape:zoom="9.506844"
     inkscape:cx="132.45767"
     inkscape:cy="88.833959"
     inkscape:window-x="-8"
     inkscape:window-y="-8"
     inkscape:window-maximized="1"
     inkscape:current-layer="svg4" />
  <path
     d="m1045.28 455.26 1.22 1.86 2.7 7.99 1.4 2.7 2.95 7.43 4.04 7.01 5.48 8.37 8.43 9.85 1.06 1.43-.63 1.47-.03 1.42.28 2.08.59 1.98 1.21 2.33 2.16 3.51-.97-.61-3.11-5.04-.8-3.13-.46-4.56-.49.2-.16 1.53.07 1.76-.44.76-1.2-2.5-.15-1.19.56-1.52-.32-.46-1.41-.49-.46-1.07-.01-1.13-.84-.46-.57.13.84 2.65.89 1.56 1.43 3.87 1.64 2.21 1.06 1.91 12.16 20.24 2.49 2.41 1.09 1.86 1.51 4.02 1.12 5.31.33 10.02.86 6.73-.24-.17-.26-.68-.34-.04-.68 3.27-1.18 3.05.2 4.39-.42 2.29-2.01 2.69-1.5.2-3.37 2.33-2.65-.01-2.9 1.48-2.04.23-1.5-1.84.03-.94.31-.99.75-.34 3.06 1.68.36-.98-1-.93-1.66-.33-1.26-.46-3.12-4.48-2.95-2.94-.76-2.16-4.35-.69-3.32-1.58-2.52-3.35-2.13-6.31-1.42-.52-.63-.42.9-2.6 1.03-2.22-.99.67-.67.87-.72 1.94-.69.39-.71-.17-1.3-3.29-.43-4.23.83-1.73-1.66.21-1.62.86.47 1.36-.12.81-1.28-.01-1.02-.35-1.51-1.26-2.17-2.51-4.72-7.11-.86-.98-1.35-.95.51-.43.98-.36 1.78-3.78 1.48-2.35.38-1.52-.2-.6-.93-.77-.92.94-.48-.16-1.44-1.63-1.19-.34-.72.5 1.04 1.35.82.44.03 2.19-.2.74-.6.72-1.13-.17-.47.61-.73-.47-.78-.85-.94-1.45.6-9.01.92-5.81-.74-6.36-.01-.96-.4-1.66-2.85-3.32-11.46-7.45-9.32-9.47-7.31-3.05-5.03 1.54-.79.91-.25 1.09.48 1.14-.41.55-1.39.12-1.83.51-4.52 3.39-1.73.11-1.47.91-1.11.68-3.02.66-2.52.93-1.16-.2-.92-1.53-.2-1.67.74 1.21 1.03.89.37-.45.05-.91-1.11-1.63-3.19-1.89-3.71-2.88 1.03-.01.18-.73-1.14-.8.31-1.11.6-1.2-1.38.33-1.17.92.07.97-.16.79-.69-.04-1.36-.8-6.48-1.95-5.56-.91 4.07-1.11 2.3.28-.36-.77-.6-.45-1.84-.45-2.23.49-1.46-.15-1.39.79-1.5 1.11-1.37.63-5.5 1.25-4.45 1.19.65-.85.72-.58 2.59-1.03.24-1.63-.78-1.46-.66.44-.62 1.27-.99-.77-1 .1-.09 1.93-1.16 1.4-.46 1.34-3.68 1.36-.52-.29.99-1.32-.15-.67-.76.44.11-.78.62-.75.22-.82-.23-1.51.29-2.18-.32-.65-3.05-2.51-.81-1.39-.27-1.52.12-1.62 6.21-.59 6.21-.61 6.21-.63 6.21-.66 6.21-.68 6.2-.7 6.2-.72 6.18-.75 1 1.66 1.97 3.45.16.84 1.82-.09 3.09-.17 3.09-.18 3.09-.19 3.09-.19 3.09-.2 3.09-.2 3.09-.21 3.09-.21 3.09-.22 3.09-.22 3.09-.23 3.09-.24 3.09-.24 3.09-.25 3.09-.25 3.09-.26.13.73.68 1.07.33 1.29.33.59.67.3.98-.05.86-.89.36-1.72-.13-1.84-.69-2.01-.21-1.75.32-1.1.53-.34.41-.63.39-.18 1.1.13 4.19.84zm-62.29 33.51-1.86 1.04-2.19-.33 1.3-.27.98.12 2.27-1.44 1.15-1.02 1.42-.51zm100.91 38.84.61 1.58-2.5-3.49-3.3-5.58-2-4.4 1.03 1.1 1.25 2.44zm-35.34 22.51.17 1.32-1.36-2.05-1.05-2.33 1.09.64zm1.28 2.07-.63.7-1.52-.21-.91-.65-.57-1.45 1.51 1.4.51.29zm38.48 23.91-3.34 4.93.27-1.14 1.2-2.54.33-1.15.95-.86.79-1.39-.17-1.43 1.27-1.25.45-.23zm-4.33 6.28-.53.2.65-1.1.24.03zm-3.55 2.91-.39.06.14-.35.7-.78.33.2.02.33zm-4.09 2.7-.85.69-1.04-.23.98-.71 3.09-1.1-1.08.91zm-5.74 2.47-.54.56-.32-.09-.11-.68-1.12-1.35-.03-.4 2.25 1.14.12.39zm-4.6 1.92-1.3.44.94-1.06.13-1.41.8.95.09.64zm-4.28 1.96-.52.13-.1-.34.84-.57.6-.06.05.48z"
     style="fill:#ccc;fill-opacity:1;stroke:#fff;stroke-width:.5;stroke-opacity:1"
     transform="translate(-927.288 -454.343)"
     id="path2" />
  <g
     id="layer1"
     inkscape:label="Vrstva 1"
     transform="matrix(0.05309958,0,0,0.05363177,139.81736,44.720636)">
    <circle
       transform="matrix(0.994318,0,0,0.994318,-275.5681,-427.0646)"
       id="path1306"
       style="fill:#ff1414;fill-opacity:0.78448277;stroke-width:10.19400024;stroke-miterlimit:4;stroke-dasharray:none"
       cx="340"
       cy="492.36218"
       r="62.857143" />
  </g>
</svg>
