<?xml version="1.0" encoding="UTF-8" standalone="no"?>
<svg
   xmlns:dc="http://purl.org/dc/elements/1.1/"
   xmlns:cc="http://creativecommons.org/ns#"
   xmlns:rdf="http://www.w3.org/1999/02/22-rdf-syntax-ns#"
   xmlns:svg="http://www.w3.org/2000/svg"
   xmlns="http://www.w3.org/2000/svg"
   xmlns:sodipodi="http://sodipodi.sourceforge.net/DTD/sodipodi-0.dtd"
   xmlns:inkscape="http://www.inkscape.org/namespaces/inkscape"
   height="752.62817"
   width="612.55902"
   version="1.1"
   id="svg8"
   sodipodi:docname="FRGUI.svg"
   inkscape:version="0.92.4 (5da689c313, 2019-01-14)">
  <metadata
     id="metadata12">
    <rdf:RDF>
      <cc:Work
         rdf:about="">
        <dc:format>image/svg+xml</dc:format>
        <dc:type
           rdf:resource="http://purl.org/dc/dcmitype/StillImage" />
        <dc:title />
      </cc:Work>
    </rdf:RDF>
  </metadata>
  <sodipodi:namedview
     pagecolor="#ffffff"
     bordercolor="#666666"
     borderopacity="1"
     objecttolerance="10"
     gridtolerance="10"
     guidetolerance="10"
     inkscape:pageopacity="0"
     inkscape:pageshadow="2"
     inkscape:window-width="1920"
     inkscape:window-height="1017"
     id="namedview10"
     showgrid="false"
     fit-margin-top="0"
     fit-margin-left="0"
     fit-margin-right="0"
     fit-margin-bottom="0"
     inkscape:zoom="1.668772"
     inkscape:cx="382.04028"
     inkscape:cy="479.64031"
     inkscape:window-x="-8"
     inkscape:window-y="-8"
     inkscape:window-maximized="1"
     inkscape:current-layer="svg8" />
  <defs
     id="defs4">
    <style
       id="style2">.land{fill:#ccc;fill-opacity:1;stroke:#fff;stroke-opacity:1;stroke-width:.5}</style>
  </defs>
  <path
     id="GF-CY"
     class="land"
     d="m 568.59391,233.59293 1.51,1.1 -0.41,0.06 -1.04,-0.84 -0.46,0.03 v -0.29 z m -302.2,-194.270004 0.12,0.29 3.82,1.45 2.95,1.68 1.27,0.29 3.53,1.97 2.14,0.75 0.52,-0.06 3.07,1.5 2.9,0.64 0.06,0.46 0.93,0.52 0.75,-0.23 1.04,0.69 1.33,0.17 0.29,0.52 0.46,-0.12 0.46,0.46 h 0.64 l 0.75,0.64 h 0.93 l 0.12,0.52 0.52,0.06 0.46,1.62 1.04,0.46 0.35,0.87 0.87,0.4 1.16,0.06 0.58,0.98 1.22,1.16 3.07,1.33 1.04,1.04 0.93,0.46 0.52,-0.06 4.23,1.96 5.15,-0.64 2.2,0.23 3.76,2.14 4.17,0.98 4.23,1.85 0.7,0.81 5.39,2.77 2.43,1.62 0.58,0.69 0.64,-0.06 1.1,0.98 2.49,1.27 0.35,-0.06 -0.06,0.46 0.4,-0.06 0.81,0.52 1.91,1.68 1.45,-0.29 2.09,2.48 0.29,-0.17 -0.58,-0.92 0.35,-0.64 0.81,-0.46 0.23,0.46 1.27,0.64 1.33,1.21 0.52,0.87 -0.4,0.92 0.4,-0.35 0.81,0.23 1.62,1.21 1.68,1.96 0.17,0.75 -0.35,0.64 -0.58,0.52 -1.04,-0.23 0.35,0.4 1.27,0.29 0.29,0.35 0.52,-0.35 0.64,0.06 0.64,0.75 1.91,0.35 3.13,2.31 0.12,1.27 0.29,-0.12 0.06,-1.62 1.45,0.41 0.23,0.92 1.04,1.04 -0.11,0.69 0.23,0.29 0.7,-0.17 1.22,1.73 0.17,1.44 0.52,0.98 0.58,0.58 0.7,-0.35 0.75,1.16 0.69,0.23 0.75,2.250004 -0.06,1.85 0.98,1.04 1.16,0.06 0.7,0.4 2.03,3.18 1.39,0.64 0.81,1.04 1.16,0.52 2.2,1.85 2.03,0.81 1.27,1.33 1.04,0.29 0.81,0.87 1.51,-0.12 1.33,3.29 3.82,4.16 0.93,0.64 0.64,-0.06 0.93,0.81 -0.11,0.46 -0.52,-0.35 -0.64,0.17 -0.17,0.52 -0.81,0.69 0.23,0.35 1.04,0.4 1.51,1.34 1.45,0.51 0.87,0.69 0.7,0.06 2.61,1.96 3.76,4.74 0.75,0.35 0.69,1.1 2.2,1.5 1.16,1.39 2.72,1.1 0.98,0.06 2.03,0.98 0.81,0.81 0.23,0.81 1.45,1.44 1.8,0.58 1.39,1.33 0.41,-0.11 0.29,0.64 2.37,1.44 0.46,-0.52 1.62,1.67 -0.12,0.29 -0.29,-0.06 0.12,0.35 0.93,0.06 0.41,0.52 0.4,0.06 v 0.69 l 1.56,0.75 0.41,0.4 0.35,1.16 2.09,1.39 0.87,1.16 0.87,0.35 0.29,-0.4 0.23,0.46 0.64,0.29 0.06,0.87 1.91,-0.12 -0.23,1.33 1.22,0.69 1.04,-0.29 0.75,1.44 -0.29,0.92 0.75,0.69 0.98,0.35 0.17,0.64 0.29,-0.17 0.46,0.4 1.62,2.37 0.93,2.31 1.1,1.21 0.06,0.46 h 0.29 l 3.13,2.94 2.14,0.98 3.19,0.06 0.81,-0.92 0.41,-1.33 -0.06,-1.1 -0.69,-0.69 -0.11,-0.52 0.48,-0.23 0.05,-0.75 h 1.68 l 0.41,-0.17 -0.06,-0.46 0.29,0.35 0.41,0.06 0.41,-0.35 0.35,0.35 2.09,-1.5 1.8,0.06 0.29,1.16 1.22,0.98 0.93,0.23 0.58,-0.52 0.35,0.12 0.46,0.64 -0.35,0.75 0.35,0.81 1.85,1.1 1.8,1.85 1.56,0.98 v 0.75 l -0.81,-0.23 -0.29,0.4 0.06,1.79 1.91,1.67 1.51,0.75 0.52,1.96 4.69,4.45 3.01,0.46 0.46,0.69 1.33,0.52 0.98,1.79 0.87,0.75 0.17,1.73 0.64,0.12 0.7,0.87 0.81,0.35 v -0.87 h 0.23 l 0.81,1.21 1.39,-0.06 0.35,-0.35 0.23,0.58 0.46,0.12 0.35,0.52 1.1,0.4 0.81,1.67 v 1.33 l 0.41,0.81 0.7,0.75 1.91,0.92 0.58,1.79 0.12,-0.81 -0.46,-0.75 -0.11,-0.92 -0.81,-0.63 -0.23,-0.98 2.14,1.1 0.87,1.16 0.87,0.23 0.06,0.98 -0.4,0.35 0.64,0.69 0.23,-0.06 v -0.52 l 0.52,-0.23 0.18,0.4 1.1,0.52 0.17,0.52 0.8,0.64 h -0.4 l 0.35,0.92 0.81,-0.11 0.23,0.87 1.04,1.15 0.46,0.17 -0.46,-1.04 -0.64,-0.46 0.35,-0.35 2.84,2.19 1.91,0.92 0.35,0.63 0.46,-0.06 1.04,0.98 1.56,0.23 0.17,0.52 1.51,0.98 h 0.64 l 2.2,1.15 0.23,0.58 h 0.29 l 0.12,-0.35 0.87,0.17 0.06,0.52 0.35,0.12 -0.4,0.23 0.64,0.35 0.58,1.21 -0.46,0.35 -0.52,-0.4 0.52,0.81 2.08,0.64 1.04,1.33 0.23,-0.46 0.29,0.17 0.06,0.98 0.52,0.23 0.17,0.81 0.35,0.23 0.29,2.02 0.52,0.52 v 0.4 l 0.87,0.06 -0.87,0.42 0.09,0.2 2.36,1.68 3.99,2.58 7.02,0.43 4.97,-3.12 1.04,-1.62 2.26,-0.17 0.12,0.4 2.2,0.17 1.22,0.4 1.22,0.87 h 0.58 l 0.52,0.4 -0.06,0.4 1.56,0.35 0.29,0.75 0.93,0.17 1.91,1.39 0.98,0.23 0.64,0.87 1.51,0.98 0.87,1.33 1.51,0.81 -0.4,0.75 1.33,0.98 h 0.69 l 0.81,0.46 -0.11,0.64 2.37,3.12 0.17,-0.29 -0.4,-1.04 0.52,0.52 1.33,3.17 -0.23,0.17 -0.58,-0.63 0.17,0.87 0.81,0.69 0.12,1.1 0.75,0.23 0.35,0.58 -0.52,2.37 0.99,2.31 0.58,3.98 0.29,0.17 v 1.1 l 0.64,1.44 -0.06,1.04 0.29,0.23 -0.29,0.81 0.35,3.12 -0.35,1.56 0.75,1.33 -0.29,0.92 0.46,1.33 1.62,2.37 1.1,0.92 0.58,1.1 1.45,0.75 -0.52,0.81 0.12,0.98 -0.98,0.52 0.29,1.15 -0.46,0.75 0.23,1.56 0.98,-0.17 -0.17,0.58 0.7,0.17 1.62,2.31 0.58,0.17 2.72,2.19 1.16,0.23 0.81,1.04 1.8,-0.35 0.64,-1.27 0.98,0.29 0.35,-0.17 0.52,0.46 -0.4,1.56 0.17,0.75 -1.04,-0.29 -1.74,1.1 -0.58,0.75 -0.58,2.08 -0.46,0.17 0.29,0.46 -0.81,0.06 -0.75,2.13 0.17,2.42 0.87,3.12 1.45,3.81 0.81,1.1 0.52,1.44 0.52,0.87 0.75,0.46 1.8,2.94 0.81,0.87 0.81,0.06 0.17,0.46 -0.4,0.23 v 0.92 l 0.7,1.33 1.45,1.27 1.1,0.23 0.69,0.75 0.29,1.44 0.46,0.58 10.45,-0.59 -1.38,8.77 -0.38,0.38 0.23,3.75 -0.92,3.05 -3.27,6.15 -1.21,3.05 -1.08,6.68 -2.8,6.72 -1.58,2 -1.63,0.85 -4.59,1.17 -3.59,1.66 -3.49,2.47 -4.98,2.89 -3.75,5.43 -1.55,3.01 -0.62,1.57 -0.06,3.73 -1.17,5.3 -1.69,3.41 -4.41,3.94 -1.92,2.76 -2.3,2.23 -0.76,0.28 -7.19,7.85 -3.83,1.8 -3.69,2.9 -1.82,0.77 -0.29,1.49 1.27,5.69 -0.25,2.42 -0.43,0.72 -3.11,1.37 -3.58,0.41 -1.67,0.95 -2.23,2.21 -2.86,7.5 -1.13,6.22 -1.04,3.85 -4.1,4.68 -2.93,2.58 -6.05,12.5 -0.02,0.96 -0.64,0.82 -1.42,0.77 -1.12,1.97 -2.2,6.6 -1.03,1.55 -3.52,3.1 -2.57,3.61 -8.5,14.15 -1.49,3.62 -3.92,4.52 -0.83,2 0.14,2.06 -1.25,2.37 -1.2,1.09 -6.28,8.28 -1.48,0.66 h -0.76 l -2.38,-1.44 -0.81,0.14 -5.31,3.56 -3.65,7.01 0.22,4.58 -2.53,-0.01 -1.53,0.47 -2.1,1.38 -1.44,3.37 -1.62,2 1.35,1.14 -0.51,0.52 -1.5,0.13 -0.64,0.39 -0.26,1.63 1.89,0.47 0.47,0.99 -1.1,2.33 0.12,1.2 0.56,1.07 2.41,1.97 -0.08,2.83 -0.61,2.35 -3.47,5.41 -0.73,1.63 -1.43,1.79 -0.35,2.18 -1.76,2.97 -2.01,8.01 -3.34,2.64 -0.38,2.79 0.39,2.23 0.47,0.26 0.69,-0.3 0.82,0.09 0.56,1.42 -0.86,1.42 -2.19,1.81 -0.69,0.26 -2.32,-0.04 -0.69,0.9 -1.29,0.17 -1.77,1.53 -3.95,7 -7.16,14.32 0.76,1.93 -0.27,0.93 -1.28,1.73 0.56,1.29 -2.14,3.69 -2.06,2.71 -1.51,4.02 -2.38,3.89 -1.97,5.7 -0.73,0.73 -2.49,-0.17 -1.29,0.6 -0.6,0.86 -0.34,1.42 0.22,0.81 2.23,1.63 0.04,0.99 -0.94,1.12 -0.13,0.69 0.69,1.12 1.46,0.73 1.42,1.46 0.48,1.93 -0.7,1.83 -1.45,2.1 -0.47,1.98 -1.93,-0.68 -1.25,1.95 -0.23,2.87 0.3,0.7 0.82,0.07 0.35,1.33 -0.53,1.62 -5.31,4.73 -1.93,2.06 -0.9,1.85 -1.5,1.59 -2.27,-0.25 -2.09,1.42 -0.13,0.44 0.82,0.69 0.77,0.13 0.13,0.99 -0.48,1.66 -2.83,0.73 -0.51,0.6 -1.03,-0.43 -0.51,0.13 -1.72,2.82 0.32,1.05 -2.01,2.88 -0.51,1.55 0.13,1.76 -0.77,2.19 -2.14,2.11 -3.34,0.52 -2.4,0.78 -3,1.64 -0.86,1.16 -0.43,1.29 -1.76,0.77 -1.11,0.95 -0.64,-0.21 -5.65,2.75 -1.11,0.22 -0.9,0.9 -1.46,0.47 -2.05,2.28 -1.41,0.39 -1.58,1.03 -2.49,0.69 -1.63,0.13 -0.73,0.56 -1.84,0.22 -0.48,1.15 0.06,0.69 -2.83,0.01 -0.43,0.52 0.6,2.1 -0.67,1.55 -3.1,1.5 -1.04,3 -0.64,0.82 -1.34,0.75 -0.19,2.22 -0.51,1.2 -1.84,2.53 -0.94,3.09 -0.73,0.52 -1.11,-0.04 -1.93,-0.77 -1.28,0.43 -2.1,-0.72 -0.6,0.94 0.52,1.16 -1.45,1.07 -1.41,0.43 -2.23,0.05 -5.48,1.55 -2.92,-1.75 -1.71,-0.13 -2.77,-1.08 -4.3,-0.62 -0.99,-0.47 -2.15,-1.67 -3.23,-5.04 -1.95,-0.54 -2.53,-0.1 -1.52,-0.67 -4.19,0.7 -1.38,-0.34 -2.14,0.38 -1.38,0.71 -1.95,-0.43 -0.95,0.62 -3.33,-0.01 -2.48,-0.58 -2.09,-1.05 -1.28,-1.72 -3.61,-6.25 -0.95,-1.1 -2.33,-1.29 -3.86,-0.87 -3.62,-2.06 -3.05,-0.34 -3.67,0.37 -6.2,1.92 4.83,-11.21 2.21,-1.57 1.9,-2.6 -0.41,-3.06 0.42,-1.63 0.71,-0.89 3.42,-2.47 2.05,-2.48 1.16,-5.2 0.94,-0.68 1.58,-0.31 2.48,0.18 0.34,-0.21 -0.58,-0.89 -1.28,-0.73 -1.19,-0.28 h -3.32 l -2.8,-1.09 -0.85,-0.85 -1.23,-2.59 -1.58,-1.97 -2.41,-1.92 -2.87,-0.63 -0.52,-0.34 -0.46,-5.24 -1.01,-1.04 -1.44,-0.65 0.15,-1.52 0.67,-0.94 1.36,-0.95 2.05,-0.81 0.3,-0.4 0.71,-2.77 v -0.93 l -0.45,-1.15 -0.06,-2.62 -1,-0.35 -2.36,-0.15 -0.35,-0.27 -1.12,-2.21 -1.26,-1.31 -0.29,-0.98 0.55,-1.18 1.85,-1.39 4.01,-0.7 1.21,-0.5 1.24,-2.02 -0.2,-0.67 -2.51,-1.1 -0.52,-1.58 -0.01,-0.76 0.52,-0.94 -0.56,-0.68 0.02,-0.74 2.1,-1.93 0.34,-1.11 0.05,-1.38 -1.4,-2.6 0.34,-4.18 0.15,-0.4 0.36,-0.06 5.35,0.04 0.81,-1.3 0.01,-0.95 -0.29,-1.22 -2.03,-1.91 0.7,-1.82 6.02,-7.36 0.92,-2.42 0.78,-0.99 4.43,-1.93 1.38,-1.03 0.78,-0.99 -0.14,-1.76 -1.66,-3.72 0.18,-3.71 1.27,-1.89 2.05,-1.84 0.37,-1.61 0.89,-1.34 3.54,-3.18 0.93,-5.36 0.99,-1.65 1.68,-1.15 6.84,-2.52 1.48,-1.02 0.65,-1.08 0.93,-3 1.49,-1.56 3.45,-1.28 1.46,0.84 0.55,-0.01 0.47,-4.25 -1.08,-1.9 -0.46,-1.91 0.32,-3.54 -0.19,-3.29 0.27,-1.35 0.55,-2.39 1.36,-3.11 3.53,-6.21 0.96,-1.15 1.13,-4.67 -0.56,-3.04 -1.46,-2.2 -2.39,-2.41 -1.97,-0.91 -0.53,1.33 -1.04,0.76 -0.93,0.05 -0.95,-0.47 -0.58,-1.87 -0.29,-4.46 -1.73,-2.94 -0.2,-2.98 -0.45,-0.25 -0.91,0.29 -0.79,-0.14 -4.38,-1.74 -4.17,-6.02 -1.78,-1.85 -0.13,-0.57 0.36,-0.92 2.39,-3.42 1.13,-3.5 -1.58,-7.4 0.28,-3.09 0.94,-1.5 2.23,-1.36 1.54,-1.44 2.66,-1.3 0.42,-0.59 v -1 l -0.91,-2.02 0.34,-2.28 -0.53,-0.77 -2.49,-1.98 -0.59,-1.23 0.11,-0.76 2.33,-3.9 0.63,-3.8 0.56,-0.7 3.66,-2.4 1.35,-1.81 0.59,-1.89 0.13,-1.66 -0.17,-2.08 -0.97,-2.52 -0.03,-0.91 0.84,-1.24 2.36,-1.9 0.2,-1.38 -1.41,-1.17 -2.55,-0.41 -1.08,0.33 -1.32,1.54 -0.82,0.41 -1.67,-0.06 -1.37,-0.7 -0.18,-1.5 1.58,-2.49 0.32,-1.37 -0.74,-3.52 -0.3,-6.08 -0.58,-3.13 -3.55,-4.79 -1.74,-1.3 -2,-2.22 -0.88,-1.51 -1.2,-4.15 -4.1,-0.44 -2.99,-4.16 -2.72,-2.25 -0.73,-1.4 0.12,-1.28 0.93,-0.81 4.44,0.1 1.28,-0.47 1.46,-3.16 5.69,-5.69 1.47,-0.68 3.63,-0.92 0.63,-0.58 0.68,-1.75 0.21,-2.86 -1.03,-1.14 -1.52,-0.29 -0.65,-0.66 -1.02,-0.33 -2.61,-2.92 -1.73,-4.16 -1.71,-5.97 -3.4,-6.22 0.05,-3.17 -2,-2.69 -0.23,-2.41 -0.44,-0.49 -2.21,-0.62 -0.82,-0.61 -1.68,-1.87 -0.89,-2.04 -0.68,-2.73 0.02,-4.24 0.82,-1.63 1.4,-1.47 2.37,-1.04 1.25,-1.19 1.14,-4.22 -0.03,-0.91 -2.7,-2.35 -0.42,-0.68 -1.07,-5.62 -0.51,-0.92 -1.2,-0.81 -2.13,0.17 -0.52,-0.27 -0.81,-3.24 0.42,-1.71 -0.11,-1.43 -0.57,-1.18 -5.09,-1.33 -0.6,-0.78 -0.77,-2.16 -0.4,-0.29 -1.86,-0.11 -3.27,0.74 -0.98,-0.21 0.09,-0.81 1.89,-1.32 0.28,-0.85 -1.97,-1.5 -0.75,-1.88 0.05,-1 2.72,-1.85 0.38,-1.11 -0.04,-1.26 -1.54,-1.63 -0.62,-2.16 -0.71,-0.52 -4.07,0.51 -1.46,-0.96 -0.51,-4.14 -1.45,-2.12 0.85,-1.58 0.96,-3.14 0.01,-1.67 -0.54,-1.78 0.7,-3.66 -0.01,-4.13 0.84,-1.1 2.51,-0.21 2.92,-5.78 -0.46,-1.92 0.19,-3.02 0.73,-2.97 -0.75,-2.69 0.3,-0.66 1.47,-0.68 0.27,-0.47 1.02,-4.06 -1.73,-1.68 -0.28,-1.46 -1.53,-2.2 -1.26,-0.43 -2.62,0.44 -1.36,-0.22 -5.17,-5.48 -3.52,-2.08 -0.63,-1.68 -2.5,-1.41 -1.89,-2.31 -0.55,-2.3 0.75,-3.59 -0.17,-2.29 0.71,-2.06 -0.35,-0.41 -2.71,-0.58 -0.68,-0.47 -0.64,-1.54 0.33,-1.78 2.94,-4.42 -0.45,-1.3 -1.34,-1.08 0.16,-2.83 -0.36,-2.04 0.14,-0.86 1.85,-1.44 2.63,-1.25 0.2,-0.33 -0.2,-0.48 -1.62,-1.35 -0.43,-1.06 -1.48,-1.32 -0.2,-0.7 1.77,-2.37 2.14,-0.55 1.77,-0.96 0.39,-2.43 0.68,-1.46 2.81,-1.44 3.7,-3.12 v -0.93 l -1.4,-2.75 0.35,-0.92 1.66,-1.47 v -0.93 l -0.81,-1.31 -2.38,-1.75 -4.89,-1.66 -4.86,-3.1 -4.09,1.25 -2.2,1.15 -1.27,0.04 -0.33,-1.2 0.21,-0.76 2.33,-2.84 0.23,-2.98 1.24,-2.17 -0.22,-0.98 -1.01,-0.98 0.98,-2.15 -0.36,-1.06 -2.49,-0.91 -1.76,-0.3 -1.37,0.21 -1.23,-0.46 -2.49,-2.92 -1.2,-1.86 -0.28,-1.49 0.19,-2.22 -0.75,-0.54 -2.87,-1.23 -2.25,1.26 -1.06,0.26 -2.06,0.03 -1.15,-0.88 1.79,-0.87 0.18,-0.43 0.11,-2.86 1.03,-3.25 -0.17,-1.94 4.24,-3.63 0.38,-1.04 -0.39,-3.18 -0.49,-0.65 -1.9,-0.47 -1.04,0.69 -0.41,-0.06 -0.84,-0.9 -1.75,0.37 -0.68,-0.61 -0.33,-2.32 0.04,-0.62 0.98,-1.08 0.59,-1.51 1.66,-1.88 -0.68,-0.75 -1.55,-0.27 -1.15,-0.79 -0.22,-0.77 0.1,-2.31 0.66,-1.59 3.35,-1.26 0.34,-1.19 -0.21,-1.25 0.94,-2.58 -0.02,-1.36 -1.07,-1.38 -0.56,-1.49 -1.02,-0.59 -1.81,-0.49 -0.4,-0.53 0.2,-1.380004 0.8,-1.73 0.26,-5.44 0.79,-1.1 0.36,-2.45 -0.19,-1.27 -0.98,-0.88 0.76,-3.25 -0.84,-0.78 -0.58,-2.93 0.11,-0.59 1.01,-0.36 0.07,-3.1 0.68,-1.58 0.16,-3.15 2.19,-1.84 0.7,-0.27 0.42,-0.71 0.28,-1.88 -0.51,-0.61 0.03,-2.34 1.66,-1.42 1.42,-0.47 1.65,0.23 3.14,-0.31 5.96,1.94 1.25,-0.3 1.41,-1.28 -0.3,-4 0.47,-5.01 -1.42,-1.87 -0.94,-3.12 -1.03,-0.86 -1.54,-0.51 -0.85,-1.67 -2.04,-0.9 0.36,-1.33 0.01,-1.79 2.74,0.35 1.51,-0.23 2.2,0.17 3.07,-0.4 1.85,0.06 0.35,-0.35 1.68,0.12 3.53,1.21 0.58,-0.17 1.74,0.52 0.69,0.58 2.03,0.58 5.27,0.87 2.95,1.44 3.71,0.64 4.34,-1.33 0.17,-1.1 -1.56,-0.87 0.46,-1.04 1.16,-0.4 0.06,-0.29 0.93,-0.06 0.41,-0.58 1.51,0.23 z"
     inkscape:connector-curvature="0"
     style="fill:#cccccc;fill-opacity:1;stroke:#ffffff;stroke-width:0.5;stroke-opacity:1" />
  <path
     id="GF-SL"
     class="land"
     d="m 126.03391,1.2329256 4.23,0.93 4.86,2.02 8.92,0.29 2.72,-0.64 2.49,0.75 2.2,0.12 3.3,0.93 5.33,2.78 1.22,1.04 2.43,1.0400004 1.74,1.33 4.23,2.25 2.2,1.68 4.05,1.85 3.53,2.31 4.81,1.91 1.62,0.23 1.16,0.87 1.97,0.29 8.16,3.99 1.16,0.06 4,1.5 1.33,0.75 1.16,1.1 1.16,0.23 1.33,1.21 h 0.41 l 0.98,0.87 0.81,0.12 0.29,0.64 0.52,-0.12 0.64,0.69 2.08,1.21 2.78,1.33 1.51,0.23 7.51,2.83 -0.01,1.8 -0.36,1.33 2.04,0.9 0.85,1.67 1.54,0.51 1.03,0.86 0.94,3.13 1.42,1.87 -0.47,5.01 0.3,4 -1.41,1.28 -1.25,0.3 -5.96,-1.93 -3.14,0.31 -1.64,-0.23 -1.42,0.47 -1.66,1.42 -0.03,2.34 0.51,0.61 -0.28,1.88 -0.42,0.71 -0.7,0.27 -2.19,1.84 -0.16,3.15 -0.68,1.59 -0.07,3.1 -1.01,0.36 -0.11,0.59 0.58,2.93 0.84,0.78 -0.76,3.26 0.99,0.88 0.19,1.27 -0.36,2.45 -0.79,1.11 -0.26,5.44 -0.8,1.73 -0.2,1.380004 0.4,0.53 1.81,0.49 1.02,0.6 0.56,1.49 1.07,1.38 0.02,1.36 -0.94,2.58 0.21,1.25 -0.34,1.19 -3.35,1.26 -0.66,1.59 -0.1,2.31 0.22,0.77 1.16,0.79 1.55,0.27 0.68,0.76 -1.66,1.88 -0.59,1.51 -0.98,1.08 -0.04,0.62 0.33,2.32 0.68,0.61 1.75,-0.37 0.84,0.9 0.41,0.06 1.04,-0.69 1.9,0.47 0.49,0.66 0.39,3.18 -0.38,1.04 -4.24,3.63 0.17,1.94 -1.03,3.25 -0.11,2.86 -0.18,0.43 -1.79,0.87 1.15,0.88 2.06,-0.03 1.06,-0.26 2.25,-1.26 2.87,1.23 0.75,0.54 -0.19,2.22 0.28,1.49 1.2,1.86 2.5,2.92 1.23,0.46 1.37,-0.21 1.76,0.3 2.49,0.91 0.36,1.06 -0.98,2.15 1.01,0.98 0.22,0.98 -1.24,2.17 -0.23,2.98 -2.33,2.84 -0.21,0.76 0.33,1.2 1.27,-0.04 2.2,-1.15 4.09,-1.25 4.86,3.11 4.89,1.66 2.38,1.75 0.81,1.31 v 0.93 l -1.66,1.47 -0.35,0.92 1.4,2.75 v 0.93 l -3.7,3.12 -2.8,1.44 -0.68,1.46 -0.39,2.43 -1.77,0.96 -2.14,0.55 -1.77,2.37 0.2,0.7 1.48,1.32 0.43,1.06 1.62,1.35 0.21,0.48 -0.2,0.33 -2.63,1.25 -1.85,1.44 -0.14,0.86 0.36,2.04 -0.16,2.84 1.34,1.08 0.45,1.3 -2.94,4.42 -0.32,1.78 0.64,1.54 0.68,0.47 2.71,0.58 0.35,0.41 -0.71,2.06 0.17,2.29 -0.75,3.59 0.55,2.3 1.89,2.31 2.5,1.41 0.63,1.68 3.52,2.08 5.17,5.48 1.36,0.22 2.62,-0.44 1.26,0.43 1.53,2.2 0.28,1.46 1.73,1.68 -1.02,4.06 -0.27,0.47 -1.47,0.68 -0.3,0.66 0.76,2.69 -0.73,2.97 -0.18,3.02 0.46,1.92 -2.92,5.78 -2.51,0.21 -0.84,1.1 0.01,4.13 -0.7,3.66 0.54,1.78 -0.01,1.67 -0.96,3.14 -0.85,1.58 1.45,2.12 0.51,4.14 1.46,0.96 4.08,-0.51 0.71,0.52 0.62,2.16 1.54,1.63 0.04,1.26 -0.38,1.11 -2.72,1.85 -0.04,1 0.75,1.88 1.98,1.5 -0.28,0.85 -1.89,1.32 -0.09,0.81 0.98,0.21 3.27,-0.74 1.86,0.11 0.4,0.29 0.77,2.16 0.6,0.78 5.09,1.33 0.57,1.18 0.11,1.43 -0.42,1.71 0.81,3.24 0.52,0.27 2.13,-0.17 1.2,0.81 0.51,0.92 1.07,5.63 0.42,0.68 2.7,2.35 0.03,0.91 -1.14,4.22 -1.25,1.19 -2.37,1.05 -1.39,1.47 -0.82,1.63 -0.02,4.24 0.68,2.73 0.89,2.05 1.68,1.87 0.82,0.61 2.21,0.62 0.44,0.49 0.24,2.41 2,2.69 -0.04,3.17 3.4,6.22 1.71,5.97 1.73,4.16 2.62,2.92 1.02,0.33 0.66,0.66 1.52,0.3 1.03,1.14 -0.21,2.86 -0.68,1.75 -0.63,0.58 -3.63,0.92 -1.47,0.68 -5.69,5.69 -1.45,3.16 -1.28,0.47 -4.44,-0.1 -0.93,0.81 -0.12,1.28 0.74,1.4 2.72,2.25 2.99,4.16 4.1,0.45 1.2,4.15 0.88,1.51 2,2.22 1.74,1.3 3.55,4.79 0.58,3.13 0.3,6.08 0.74,3.52 -0.32,1.38 -1.58,2.49 0.18,1.51 1.37,0.7 1.67,0.06 0.82,-0.41 1.33,-1.54 1.08,-0.33 2.55,0.41 1.41,1.17 -0.2,1.38 -2.36,1.9 -0.84,1.24 0.03,0.91 0.97,2.52 0.17,2.08 -0.13,1.67 -0.59,1.89 -1.35,1.81 -3.66,2.4 -0.56,0.7 -0.63,3.8 -2.33,3.9 -0.11,0.76 0.6,1.23 2.49,1.98 0.53,0.77 -0.34,2.28 0.91,2.02 v 1 l -0.42,0.59 -2.66,1.3 -1.54,1.44 -2.23,1.36 -0.94,1.5 -0.28,3.09 1.58,7.4 -1.12,3.5 -2.39,3.43 -0.35,0.92 0.13,0.57 1.78,1.85 4.17,6.02 4.39,1.74 0.79,0.14 0.92,-0.29 0.45,0.25 0.2,2.98 1.73,2.94 0.29,4.46 0.58,1.87 0.95,0.47 0.93,-0.05 1.04,-0.76 0.53,-1.33 1.97,0.91 2.39,2.41 1.46,2.2 0.56,3.04 -1.13,4.67 -0.96,1.15 -3.53,6.21 -1.36,3.11 -0.55,2.39 -0.27,1.35 0.19,3.29 -0.31,3.54 0.46,1.91 1.08,1.9 -0.47,4.25 -0.55,0.01 -1.46,-0.84 -3.45,1.28 -1.49,1.56 -0.92,3 -0.64,1.08 -1.48,1.02 -6.84,2.52 -1.67,1.15 -0.99,1.65 -0.93,5.36 -3.54,3.19 -0.89,1.34 -0.37,1.61 -2.05,1.84 -1.27,1.89 -0.18,3.71 1.67,3.72 0.14,1.77 -0.78,0.99 -1.38,1.03 -4.43,1.93 -0.78,0.99 -0.92,2.42 -6.02,7.36 -0.7,1.82 2.03,1.91 0.29,1.22 -0.01,0.95 -0.81,1.3 -5.35,-0.04 -0.36,0.07 -0.15,0.4 -0.34,4.18 1.4,2.6 -0.05,1.38 -0.33,1.11 -2.1,1.93 -0.02,0.74 0.56,0.68 -0.52,0.94 0.01,0.76 0.52,1.58 2.51,1.1 0.2,0.67 -1.24,2.02 -1.21,0.5 -4.01,0.7 -1.85,1.39 -0.55,1.18 0.29,0.98 1.26,1.31 1.12,2.21 0.35,0.27 2.36,0.15 1,0.36 0.06,2.62 0.45,1.15 v 0.93 l -0.71,2.77 -0.29,0.4 -2.05,0.81 -1.36,0.95 -0.67,0.94 -0.15,1.52 1.44,0.65 1.01,1.05 0.46,5.25 0.52,0.35 2.87,0.63 2.41,1.92 1.58,1.97 1.23,2.59 0.85,0.85 2.8,1.09 h 3.32 l 1.19,0.28 1.28,0.73 0.58,0.89 -0.34,0.21 -2.48,-0.18 -1.58,0.31 -0.94,0.68 -1.16,5.2 -2.05,2.48 -3.42,2.47 -0.71,0.89 -0.42,1.63 0.41,3.06 -1.9,2.6 -2.21,1.57 -4.83,11.21 -5.48,1.91 -2.95,0.47 -4.48,-0.2 -1.95,-0.72 -3.28,-1.82 -4.85,-6.92 -3.19,-2.49 -2.24,-0.43 -2.81,0.33 -3,1.14 -4.58,2.8 -4.58,1.42 -4.96,0.66 -2.8,1.15 -4.59,1.22 -7.86,-0.02 -8.05,1.17 -3.14,-0.48 -1.81,-0.62 -3.71,-2.06 -5.57,-4.25 -1.19,-1.91 -1.75,-4.48 -0.67,-0.81 -2.38,-1.67 -2.81,-0.1 -1.67,0.9 -2.58,2.9 -0.67,3.29 -0.18,1.47 -1.1,1.14 -2.38,0.61 -6.1,-0.11 -3.62,1.04 -6.96,5.32 -0.9,-0.38 -1.66,-2.53 -1.67,0.14 -1.38,0.47 -1.34,1.43 -0.33,1.19 0.14,4.67 -0.53,1.81 -2.77,3.05 -3.24,1.57 -2.57,0.57 -3.71,1.61 -2.59,2.62 -2.79,1.35 -0.88,0.17 -1.19,-0.38 -2.24,-1.34 h -1.81 l -1.760003,0.57 -1.8,1.27 -1.53,1.49 -1.48,4.43 -0.67,3.14 -1.28,3 -1.82,2.33 -0.84,0.05 -2.28,-1.81 -2.19,-0.43 -3.81,-0.15 -2.47,-2.72 -1.66,-4.1 -1.57,-1.24 -1.62,-0.29 -2.72,0.33 -14.68,4.55 -3.38,0.14 -5.24,-0.63 -3.86,-0.91 -1.33,-1.15 -1.38,-3 -2.76,-1.48 -0.33,-0.81 -0.14,-2.34 -2.43,-2.15 -7.67,0.42 -3.33,-0.86 -6.53,-0.87 -2.76,-1 -4.86,-6.06 -1.8100005,-1.19 -2.33,-0.43 -0.62,-0.48 -3.59,-0.58 -1.61999996,-1.38 -0.23,-1.1 0.90999996,-1.62 4.15,-0.23 0.24,-0.48 -0.33,-1 -1.6,-1.16 0.61,-0.74 6.7700005,-0.47 2.62,-1.52 1,-1.14 1,-0.47 h 2.38 l 1.38,-0.43 3.58,-2.85 0.38,-1.1 -0.52,-1.62 -2.28,-3.05 -0.23,-4.15 0.25,-7.2 0.57,-2.48 0.76,-0.76 2.67,0.57 1.81,-0.9 3.81,-5.6 2.24,-1.26 0.17,-1.59 0.81,-0.86 1.58,-0.73 2.61,-2.24 1.15,-1.81 2.8,-7.48 -0.4,-3.09 0.26,-0.64 2.14,-1.34 0.85,-1.25 1.44,-4.98 0.85,-2.02 1.16,-1.28 -0.83,-2.49 0.21,-0.47 3.72,-4.73 2.99,-2.71 0.9,-1.16 1.45,-2.75 1.52,-5.63 0.81,-1.5 1.2,-0.9 0.81,-1.33 1.67,-0.69 1.92,-2.88 0.73,-0.43 0.56,-0.82 1.71,-0.82 -0.22,-0.9 0.26,-0.86 0.77,0.26 0.56,-0.22 1.49,-2.54 0.08,-2.02 0.51,-1.29 1.24,-1.59 -0.04,-0.86 -0.65,-1.5 0.42,-1.59 -0.31,-1.59 0.3,-0.94 0.64,-0.52 1.33,-0.09 1.24,-0.56 0.51,-0.86 0.29,-1.8 0.68,-1.25 v -0.6 l -0.78,-1.03 -1.42,-0.17 -0.86,-0.6 -0.31,-1.54 0.21,-1.5 1.62,-4.47 -0.05,-1.67 -0.48,-1.29 0.43,-0.6 1.07,-0.26 0.94,-1.08 0.6,-1.59 -0.05,-1.46 0.55,-1.25 -0.48,-1.24 0.94,-1.16 1.72,-0.01 0.3,-0.64 -0.82,-1.16 -1.25,-0.25 -2.19,-1.8 -0.95,-2.36 0.47,-1.42 1.76,-0.95 0.6,-1.2 -1.13,-3 -0.87,-3.78 -2.03,-3.21 0.3,-1.42 3.04,-2.33 -0.05,-1.07 -0.74,-2.02 1.15,-1.89 -0.91,-3.52 -1.04,-2.06 -1.46,-1.15 -1.33,0.18 -1.07,1.25 -0.86,0.26 -1.12,-0.68 -0.39,-0.81 0.64,-0.9 1.71,-1.08 -0.95,-0.86 -1.12,-0.17 -0.35,-0.73 0.51,-0.82 1.2,-0.69 1.14,-4.68 1.49,-2.92 -0.69,-1.46 0.34,-0.52 0.69,-0.35 3.09,-0.05 0.56,-0.43 1.15,-2.37 0.86,-0.72 0.36,-1.06 1.87,-3 1,-2.57 3.3,-2.9 2.44,-3.43 3.58,-2.14 3.15,-0.42 1.91,-0.95 2.01,-2.1 0.960003,-2.24 2.11,-8.3 0.29,-3.86 0.67,-1.34 3.27,-3.1 1.86,-2.29 1.86,-2.98 0.47,-2.06 -0.2,-3.68 1.89,-6.88 0.78,-13.1 0.95,-4.82 0.93,-1.6 1.85,-1.83 0.94,-2.52 -0.22,-1.61 -1.59,-2.54 -1.12,-3.69 -2.06,-2.08 -1.9,-0.45 -3.25,3.54 -2.1,-0.19 -1.67,-1.24 -1.09,-3.44 -3.150003,-2.2 -2.71,-4.21 0.39,-5.49 -2.76,-4.68 -2.28,-5.16 -4.81,-7.6 -0.95,-0.86 -2,-0.19 -9.26,-0.02 -2.34,-1.1 -0.52,-1.53 0.29,-1.77 1.44,-2.77 -0.14,-1.91 -1.96,-1.39 -6.35,-1.92 -2.96,-2.3 -1.71,-2.96 -0.67,-1.96 -1.38,-2.1 -2.48,-1.87 -2.24,-2.39 -1.57,-2.44 -1.52,-3.49 h 0.19 l -1,-5.69 -3.29,-5.59 -2.1,-2.01 -2.77,-0.91 -2.05,-1.05 -1.72,-1.77 -0.86,-1.34 -0.04,-2.34 2.87,-4.15 1.1,-2.2 1.01,-5.35 2.96,-3.67 0.72,-2.39 -0.48,-1.19 -2.1,-1.63 -2.86,-0.96 -3.24,-2.44 -4.34,-1.87 -1.14,-1.63 0.1,-3.2 1.53,-4.58 0.24,-2.82 -0.33,-4.54 -1.71,-4.97 -0.04,-5.78 0.24,-1.67 -0.36,-2.17 -2.63,-5.62 -2.1,-0.99 -1.11,-1.69 -0.1,-3.05 -2.15,-4.88 -0.57,-2.72 -0.28,-4.54 0.62,-1.72 v -2.77 l -3.29,-11.23 1.35,-2.06 3.81,-3.06 1,-2.1 1.15,-4.34 0.02,-3.23 -0.4,-3.65 -1.11,-1.83 -3.12,-3.63 0.82,-3.92 1.05,-2.1 -0.57,-2.1 -0.23,-5.16 0.77,-2.01 -0.19,-0.76 -2.86,-2.63 -0.76,-0.33 -2.01,0.33 -1.58,-0.43 -1.29,-2.1 1.2,-6.69 0.19,-2.58 -1.19,-5.31 -0.38,-7.41 0.15,-4.35 -1.76,-6.31 0.14,-1.53 1.48,-1.91 1.53,-3.11 2.44,-2.2 0.91,-2.06 0.39,-2.82 -0.24,-3.73 0.43,-3.39 1.01,-3.68 2.44,-5.64 1.87,-5.26 2.59,-4.2 3.59,-2.29 2.39,-3.25 1.15,-3.73 1.2,-1.48 1.96,-1.15 1.1,-2.72 4.74,-8.6 5.17,-8.6 5.65,-5.49 8.23,-5.680004 3.88,-1.95 2.49,-1.86 4.84,-5.49 1.05,-0.76 4.69,-1.43 2.54,-1.81 0.96,-1.72 0.73,-5.83 1.25,-2.44 6.23,-7.55 4.17,-5.88 8.330003,-8.21 2.64,-3.34 2.01,-3.82 0.89,-5.84 -0.29,-10.3 1.63,-0.75 -0.09,-0.65 0.98,-4.44 0.9,-2.85 1.37,-2.46 2.02,-2.5 0.82,-0.35 0.34,0.24 0.44,-1.1 -0.36,-0.95 0.12,-2.6700004 0.47,-1.12 2.27,-2.46 1.2,-3.23 0.51,-0.52 z m 10.83,-0.98000002 4.63,1.33000002 4.23,1.68 0.46,0.46 -4.63,-1.44 -6.14,0.29 -2.03,-0.69 -0.12,-0.69 0.58,-0.69000002 z"
     inkscape:connector-curvature="0"
     style="fill:#cccccc;fill-opacity:1;stroke:#ffffff;stroke-width:0.5;stroke-opacity:1" />
  <g
     id="layer1"
     inkscape:label="Vrstva 1"
     transform="matrix(0.32556495,0,0,0.34552797,383.84162,109.61765)">
    <circle
       transform="matrix(0.994318,0,0,0.994318,-275.5681,-427.0646)"
       id="path1306"
       style="fill:#ff1414;fill-opacity:0.78448277;stroke-width:10.19400024;stroke-miterlimit:4;stroke-dasharray:none"
       cx="340"
       cy="492.36218"
       r="62.857143" />
  </g>
</svg>
