<?xml version="1.0" encoding="UTF-8" standalone="no"?>
<svg
   xmlns:dc="http://purl.org/dc/elements/1.1/"
   xmlns:cc="http://creativecommons.org/ns#"
   xmlns:rdf="http://www.w3.org/1999/02/22-rdf-syntax-ns#"
   xmlns:svg="http://www.w3.org/2000/svg"
   xmlns="http://www.w3.org/2000/svg"
   xmlns:sodipodi="http://sodipodi.sourceforge.net/DTD/sodipodi-0.dtd"
   xmlns:inkscape="http://www.inkscape.org/namespaces/inkscape"
   width="415.995"
   height="272.146"
   version="1.1"
   id="svg4"
   sodipodi:docname="KODAK.svg"
   inkscape:version="0.92.4 (5da689c313, 2019-01-14)">
  <metadata
     id="metadata10">
    <rdf:RDF>
      <cc:Work
         rdf:about="">
        <dc:format>image/svg+xml</dc:format>
        <dc:type
           rdf:resource="http://purl.org/dc/dcmitype/StillImage" />
      </cc:Work>
    </rdf:RDF>
  </metadata>
  <defs
     id="defs8" />
  <sodipodi:namedview
     pagecolor="#ffffff"
     bordercolor="#666666"
     borderopacity="1"
     objecttolerance="10"
     gridtolerance="10"
     guidetolerance="10"
     inkscape:pageopacity="0"
     inkscape:pageshadow="2"
     inkscape:window-width="958"
     inkscape:window-height="1008"
     id="namedview6"
     showgrid="false"
     inkscape:zoom="7.7238747"
     inkscape:cx="226.44666"
     inkscape:cy="47.314288"
     inkscape:window-x="953"
     inkscape:window-y="0"
     inkscape:window-maximized="0"
     inkscape:current-layer="svg4" />
  <path
     d="m456.18 521.82-.1 4.96-.1 4.94-.1 4.92-.1 4.9-.1 4.88-.1 4.86-.1 4.84-.1 4.82-.1 4.8-.1 4.78-.1 4.77-.09 4.75-.1 4.73-.09 4.71-.09 4.7-.09 4.68-.09 4.66-.09 4.65-.09 4.64-.09 4.62-.09 4.61-.09 4.59-.09 4.58-.09 4.56-.09 4.55-.09 4.54-.09 4.53-.09 4.51-.09 4.5-.09 4.49-.09 4.48-.09 4.47 1.8.66 1.79.65.57-1.23 1.93.97 1.69.85 1.09-1.06 1.18-1.14 1.58-.07 1.77-.09 1.18-.06v.98l-.44 1.63-.37 1.36.98 1.25.1.13 1.34.72 1.25.67.57 1.87 1.38 1.43 1.05 1.09 1.01 1.04 1.45 1.48 1.02 1.04 1.37 1.38.82.82.41 1.61.5 1.93-.27 1.15.65.17 1.23-1.31 1.16-.82 1.43-1.02.96-.69 1.82-.08.81-1.96-.08-2.71.92.02.53-.38.21-.8-.61-1.07 1.71-.57 1.24-.41 1.74-1.07 1.7-1.05.86.73.85.7 1.69 1.69.13.42-.07.83-.12.83 1.09 2.27.3.25.83.28 1.01.72.46.64 1.46.99.26.43.17.7.26.6.29.42.29.61.65.7 1.21.75.84.52 1.18.73 1.25 1.55 1.09 1.35 1.23 1.32-.1 1.12 1.27 1.64 1.37 2.09 1.07 1.86.75 1.03.92 1.5 1.13 1.83 1.29 2.08.97 1.32 1.28 1.86.65 1.11-.32.82-.4 1.01 1.5.35 1.04.24-.17 1.11-.22 1.46 1.2.47.81.32-.1.77.5.81.19 1.4 1.4-.21.62-.09.9.55 1.18.72 1.18.67 1.01.57 1.29.27 1.6.42.87 1.07 1.46.35.68 1.54 1.69.42.92-.48.41.61.35.72.17.93v.92l-.33.81-.23.86-.12.91.02.96.15 1.01.25.87.67 1.59.27.99.09.67-.9 2.47-.28 1.16.09.5-.71 1.25-1.37 1.78-.6 1.01-.37-.28-2-.06-.91-2.02-.53-1.59-.7-1.36-.01-.32.43-.99 1.88-.96-.01-.31-.75-.14-.21-.32-.34-1.51-.07-1.35-.13-.89-.49-1.79-.59-1.07-1.44-2.07-.15-.54.49-.74.28-.67-2 1.3-2.77 1.42-1.17.92-.23.35-.07.28.29.75-.01.25-.21.48-.19 1.32-.52 1.42-.3.31-1.17-.42-.34-.42-.7-1.74.1-.49.38-.43.49-.91.6-1.39 1.06-3.5.87-.09 1.48-.8-2.44-.14-.37-.15-.36-.44-.35-.73-.55-.79-.94-.22-.42-.28-.68-.97-.44-.42-.26-.55-.09-.67-.2-.32-.64-.07-.36-.21-.22-1.72-1.27-.35-.54-.35-.89-1.02-.26-.51-.1-.43.11-1.21-.1-.22-.71.17-4.59-1.56.08-2.47-1.02-3.19-.96-1.26.14-.52.17-.28.39-.03 1.76.85 1.67 1.03.2-.18-2.71-2.23-.68-.68-.21-.85-.04-.46.19-.26 2.4.06.13-.19-2.46-.55-.49.03-.47 1.04-.24.25-.52-.02-.18-.14-.69-1.19-.63-.82-1.15-1.12-.25-.83-.12-1.24.08-1.18.73-2.73.33-.49.08-.3-.27.06-.24.27-.66 1.29-.64 2.08-.58.73-.39-.15-.63-.8-1.27-.95-1.42-.19-.94-1-1.45-2.83-.24-1.44-.18-.35-.73-.44-.46-.68-.82-3.5-.98-2.42-.27-1.29.02-1.29-.12-.14-.26 1.02-.06.53-.55.17.56 1 .15.5-.26-.03-.53.15.97 1.7.52 2.67.69 1.96.46 1.59.23 1.21.31 1.16.82 2.54.12.51-.07.42-.21.51-.4.21-1.29-.28-.51-.62-.73-1.14-.98-.5-2.37.36-.19-.08-.02-.96.21-1.71-.24-.68-1.31-2.46v-.49l1.65-1.21-.83-.06-.65.47-.27-.28-.45-1.6-.28-.59-.13-.12-.02 1.53.31.79.06.46-.02.65-.16.47-.3.29-.31.08-.58-.31-.65-.59-.56-.27-.21-.24-.28-.67-.44-.5-2.08-.59-1.25-.73-.1.2.4.81.05.48-.31.15-.54.79.16.1.58-.27.66.01 1.1.44 1 .59.37.33.16.51.13.18.99.57.06.31-.6.95 1.28-.14.76.31 1 1.41.35.79.08 1.03-.19.31-.37.22-2.62.42-.91 1.27-.2.02-.73-.32-1.34-.96-1.66-.9-3.78-2.72-.1-.13-.07-.54-.26-.27-.51-.23-.71-.7-.91-1.17-.56-.92-.22-.66-.53-.76-1.68-1.57-.88-.6-.77-.34-.67-.07-.18-.21.31-.35.04-.21-1.47-.32-1.4-.74-3.54-2.1-1.82-1.32-1.06-.63-.45-.36-.2-.29.26-.3.71-.31.48-.35.76-1.33.06-.43-.4-.97-.18-.88.01-.49.09-.48.12-.32.32-.31.22-.15.28.11.88 1.22.12.44-.04 1.66.25 1.94.08-.14.08-.64.05-1.23.1-.59.19-.57.32-.3 1 .18.46-.1-1.95-.88-1.22-1.65-.22-.17-.67-.08-.71.66-1.84 2.16-.51.38-2.31 1.18-1.56.22-1.75-.22-1.49-.42-3.7-1.98-.57-.46.9-1.15.04-.37-.27-1.21-.24-.35-.35-.2-.1.13-.01.36.08.66-.29.34-.64.36-1.08.35-3.28-1.07-3.36-.92-3.01-.28-4.29.45-2.31.53-1.33-.01-1.27-.18-.08-.45.6-.23-.02-.33-.68-1.05-1.08-.68-1.48-.3-.84-.35-.19-.39-.51-.39-.82-.39-.33-.63.41-1.87.36-1.12.33-.76.8-1.25-.26.08-1.1.88-.97.92-.93 1.22-.54.55-.68.49-1-.2-1.31-.89-1.14-.49-.97-.1-.38-.17.72-.66.42-.54.59-.88.15-.44-3.54-.41-.09-.49.02-.36-.09-.3-.5-.26-.73.11-1.21.48-.47-.47.2-.23.4-.15.84-.76-1.01-.51-.49-.53-.23-.42.14-1.46.35-.91 2.4-.72-.71-.41h-1.48l-1.05.69-1.27 1.01-.82.35-.38-.32-.52-.14-.67.03-.47.24-.27.46-.29.3-.31.14-.21-.07-.27-.52-.64-.37-.29-.41-.21.22-.29.69-.27.34-1.17.26-.61-.13-.65-.96-.08-.32.33-.75 1.92-2.9h-.16l-.57.43-1.17 1.12-.5.32-.81-.03-.36-.17-.46.05-.57.27-.38.32-.2.37.1.08.85-.36.47-.07.11.23-.77 1.32-.51 1.28-.4.29-.57-.11-.65.06-.05.37 1.08 1.17.41.19.51.43.05.38-.31.99-.2.38-.27.18-.97-.13-.32.07-.72.56-.38.49.11.06.61-.37.84-.15 1.08.08.82-.15.57-.38.5.17.44.72.09.6-.25.48-.45.32-.65.15-.43.28-.21.41-.16.63-.11.84.01 1.53-.14.19-.25.09-.35-.01-.35.32-.94 1.94-.28.19-.29-.25-.28-.01-.27.24-.55.15-.83.05-.69-.13-1.18-.57-.47-.36-.33-.55-1.16.41-.26-.26-.53-1.47-.16.07-.3 1.49-.27.5-.8 1.01-.59 1.83-.12.04-.1-.28-.22-1.72-.18-.39-.73.89-.11.34.02 1.26-.17.17-1.17-.82-.3-.07-.09.1.31 1.02-.09.34-1.99 1.65-.45-.12-.27-.22-.32-.01-1.21.55-.31-.07-.37-.46-.2-.01-.16.41-.12.83-.52.74-1.51 1.11-.43.54-.38.77-.21.05-.72-.62-.87-.46-.15.15.21.53-.1.29-.41.06-.5-.11-.58-.28-.88.11-1.18.5-.91-.15-1.12-1.25-.34-.13-.07-.32.37-.83.45-.6.31-.26 1.32-.67 1.42-.12.93-.39 1.19-.9.66-.71 1.36-1.88-.06-.17-.23-.14-2.65 1.59-.38.13-.47-.08-1.81-1-.36-.37-.15-.96.82-2.02.51-.96 1.14-1.44 1.44-1.51.56-1.03 1.02-2.82.14-1.33-.06-1.65.12-.96.3-.27 2.93-1.13 1.44-.95 2.71-1.34.68.1.43.63.53.53.62.42.86.07 1.1-.29 1.64.35 3.29 1.48.72.14.04-.14-.44-.82-2.3-.71-.94-.56-2.55-2.28-.54-.83.3-.32.71-.21.27-.25.16-.48.47-.62.78-.78 1.13-.71 2.1-1.01-.76-.14-1.43.07-.54.17-1.04.77-.44.57-.67 1.14-.25.2-1 .06-2.69-.21-.37-.67-.24-.13-.34.04-2.65 1.26-.98.69-.75.83-1.06.54-1.37.25-1.06.39-1.18.9-.46.75-.07.37.09 1.22-.29.19-.62.01-1.08.65-2.38 2.04-.39.81-.03.29.24.71-.3.39-.68.59-1.45.88-.91.28-.55-.06-.51-.23-.84-.83-.75-.16-.06.09.92.9.91 1.11.54.89.17.66-.08.65-.34.63-.92 1.04-.79.23-1.94.06-.65.18-.22.18 1.22.68.08.27-.33.93-.39.26-1.17.41-1 .01-.13-.13.3-.73-.02-.19-.34-.21-.56.21-1.47.9-.17.16.42.37-.14.23-.83.68-.38.48-.56.47-2.36 1.31.09.43-.78 1.35-.51 1.21.28.59 1.66.91.83.29.94.6 1.65 1.47.49.86.04.38-.12.38-.3.5-.74.91-1.63 1.27-.7.32-1.01.18-.35.19-1.46 1.21-.46.71-.06.67-.31.43-1.74.65.03.17.56.17-.35.77-.28 1.1-.31.14-.99-.17-1.34.22-.11.11-.16.8-3.41.01-.99 1.39-.46.4-1.5.87-.88.3-.96.1-.54.29-.13.47-.33.37-.92.54-.54.79-.31.08-1.51-.07-.34.21-.36 1.13-.28-.02-.47-.37-.72.08-1.78 1.02-.43.41-.01.26.19.3.21.85-.12.52-.87 1.34-.25.18-.79.22-.45.75-.65-.22-.57.05-.46.47-.44.24h-.43l-.6.32-.78.65-.68.38-.57.1-.53-.05-.48-.21h-.47l-.46.2-.48.37-.57 1.2-.51.48-.27.05-.5-.19-.72-.43-.81-.07-1.43.5-.53.5.78.3.36.25-.04.16-.45.07-.71-.16-.46.04-.59.22-1.39.08-.55.15-1.3 1.24-.19.3.11.1.59-.03.6.38.27.38.14.43.05.77.1.13-1.52.96-.47.44-.27.14-.12-.18.14-1.4-.05-.25-.29-.09-.38.37-.98 1.48-.87.66-5.65.93-.87.3-.35.85-.39.72-.48.53-.49.29-.02-.29.53-2.15-.01-.45-.46-.4-.24-.01-.34.05-.63.35-.34.04-.39-.13-.78.3-1.95 1.09-1.14.12-.35.24-.64.7-.37.22-.45-.08-.53-.38-.51.06-.5.5-.42.14-.92-.68-.52.19-.77.61-.73.35-.7.08-1.72-.16-.63-.33-.08-.25.27-.95.44-.63.33-.26.4-.21.49.09.85.44-.04-.26-.26-.36-.71-.68-.76-.45-.51.04-.75.2-.56.31-.36.42-.69 1.49-.28.38-2.64 2.25-.98.65-.74-.26-.5.31-.69.55-.56.2-.43-.14-.31-.22-.18-.29.1-.2.38-.12.03-.58-.32-1.04-.25-.59-.71-.25-.22.38-.31 2.15-.16.46-.61.47-1.36.35-.35-.16-.72-1.59-.94-.53-.18.41-.01.93-.47.74-.94.56-.66.21-.38-.13.12-.53.62-.94.32-.84.02-.73.16-.52.3-.31 1.61-.66h.6l.23.33.36.14.5-.05.37-.25.25-.46.74-.47 1.23-.49 1.55-1.1 1.87-1.72 2.01-1.38 2.16-1.04 2.23-.7 4.28-.67.27.17-.49.44.16.39.37.14 1.49.09.65-.21.09.37-.3.37-.96.22-.06.36.84 1.96.33.35.33.05.19-.18.18-1.22.48-.13.88.15.52.29.17.43.42.42.67.41.47.03.27-.35-.2-.54-1.14-1.35-.28-.52.05-.62.38-.71.7-1.02 1.03-1.34.85-.9 1.5-.9.96-.39 2.51-1.32 4.43-.93 1.25-.96 1.63-1.01.65-.19-.11.5.08.49.83.5.56.23.29-.03.18-.46.07-.9.15-.83.23-.76.26-.58.83-.96 1.15-1.05 1.52-1.18.9-.49.79-.19.83-.48 1.5-1.24.43-.17.92-.12.29.19.11.41.18.28.83.39.65-.21-.06-.19-.45-.21-.26-.28-.1-.95-.46-.66v-.63l.3-.92.95-2.12.55-2.27.7-1.22.97-.29 2 .07-1.01-.82-.42-.09-.68-.43.01-1.49.22-1.04.73-1.1 2.2-1.67 2.24-1.02-.24-.17-.16-.47 1.46-2.65 1.37-2.36-1.6 1.92-1.7 1.38-4.4 1.09-3.07 1.03-1.38.11-.77-.59-.34-1.67-.26-.63-.27-1.1.49-1.25.58-.82.88.03.86.64.82.21-.88-1.11-1.37-1.1-.75.1-.81 1.14-.9.71-.56-.44-.3-.43.03 1.11-.83 1.5-.42 1.07.04 3.07-.38 1.14-1.37.26-.8-1.18-1.28-4.17-.5-1.22-1.25-2.11-.6.12-.89.7-.73.08-1.47-1.68-.59-1.16-.5-1.35-1.34.36-1.22.52-1.51.93-.81-.21-2.47.5-.24-.04-.45.49-.37.18-.52 1.02-3.21.08-2.84-1.23 1.19-.33 1.28-.17 1.29-.87-.04-1.62.12-.79.26-.97 1.43-1.09-1.13-.28-.85.3-.42-1.2.2-2.1 1.08-1 .59-.83.63-1.19.3-1.08-.12-2-.7-4.35-.01-3.13-.91-1.9 1.64-2.3 1.69-2.05 1.67-.69-.07-.18-.77-.19-.54.01-.65.64-.62.46-2.26 2.58-1.34 1.19-.73.25.86.82.03.51-.09 1.12-.6 1.23-.45.65-1.18-.37-1.35.76-2.83.46-3.58-.29-1.65-.54-1.37-1.81.23-.76.26-.64-1.84-2.98-.75-2.67-.99-.34-.7-.86-.75-1.24.31-.73.32-.49-.52-.56-.82-.2-.86-.54 3.3-2.2 1.41-1.72.76-.08.79.56 1 1.13.93.63.27.47.19.8-.73 1.04-.6.7.52-.09 1.64-.89 1.26-.83.43.24.24.28.22 1.28.34 1.34 1.76-.7 1.16-1.16-.49-.78-.7-.58-1.92-1.04.61-.25 1.3.41.6-.24-.38-.67-.52-.65-2.2 1.06-3.2-.99-1.98-1.55-2.28-.49-.3-.28-.29-.61 1.59-.78 1.07-.38.15-.36-.5-.2-1.06.02-.28-.66.34-.9-.18.04-.53.39-.47-.41-.34-.55.37-.37.66-.47-.19-.15h-.46l-.65.67-.1.67-.28.92-.76-.04-.58-.29-.16-1.06.14-2.12-1.06-.9v-1.1l1.16-1.06-.14-.77-.75-.46-1.13.37-.24-.71.12-.66.25-.92.29-.02.16.25 2.02.06.25-.19-1.25-1.22-.17-.94.75-.27 1.11.3 1.69-.02-.39-1.06.01-.51.1-.82.65-1.24 2.71-2.49 2.5-2.01.72-.43.89-.08.67.46.62.77.22-.19-.2-.3-.03-1.14 1.2-.1.97-.99.14-.33-.83.29-.95.6.05-.86.35-1.91.82-1.67.47-.72.81-.58 1.79.19.26.24.16-.34-.71-1.4.67-.75.5-.35 2.25-.12 1.06.53 1.18 1.21.54 1.25-.26.49-.29.25-.52.22-.23.22.02.23.78-.44 1.2-.47.47.47.28.71.49.12 1.68-.08.93-.32 1.33-1.13 1.51-.56 2.53-2.37.83-1.03.66-.02.52.25.14 1.06.49.42 3.25.58 1.74-.03 1.36-.65 1.56-1.28.94-.89.66-1.3.01-1.88-.07-1.58.27-3.53-1-2.62-.94-.94-.72-.08.86-1.3 1.44.52 1.03-.04.95-.5.38-.46.64-.98.15-1.17-.06-.67-.37-.81-.39-1.16-.36-.44-.38-.07-2.34 1.54-1.12-.24-.73-.58-1.01.96-2.26.48-1.33.73-2.65 1.97-.8.99-.65-.12.12-2.31-1.6-2.67-.84.53.18.75.36.6.75.42-.52.54-.49.77-.6-1.01-1.14-1.54-1.34-1-3.91-1.02-2.89.44-.16-.31-.22-.17-.51.16-.32.42-.37.22-.55-.05-1-.48-1.81-1.33-4.25-2.44-.99-1.02-.54-1.87.35-1.05.59-.31.43-1.53-.75-.68-1.1-2.74-.36-1.14.17-.06.24.35.55.38 1.58.16.95-1.26 1.23-.06.96.51-.11-.46-.17-.38-2.42-1.54-.43.11-4.31-2.78-2.98-3.43-.16-.53-.02-1.06.81-.78.65-.28-.15.53-.09.53 2.5-.5 1.6-1.2 2.17.39.62-.28.91-.63 1.37-1.14 1.54-.35 1.1-.4 1.28-.04.78.97.28.18 1.75.68.68-.11.32-.14.29-.29-1.39-1.74.38-.62.37-.41 2.47-.8h1.71l.83.28 2.97-1.12 1.48-.14 2.61.36 2.09.49.38.81-1.07-.45-.52-.02.29.32.26.59-.28.57-1.18 1.6-.34 1.45-.58.34-.62.53 1.57 2.65 3.29 1.04 1.91.11.88.9.82.37 2.46.3 1.67.9.79.02 2.43-2.68.77-.33.57.71.81.67.66-.17.28.92.19-1.72-.17-.71-2.4-1.82-1.94.12-.4-.79.51-1.23-1.09-3.65-.63-.85-.93-.27-.19-1.22-.02-1.52.95-.37.79-.07.55.63.28 2.05.64.46-.68 1.79.45 1.93 1.61 2.09 1.76-.18 1.13.3.6.5 1.32 1.83.81.38 2.83-.11.36-1.39.02-1.07-.47-.78-1.81-.31-1.13-1.38h-1.25l-2.58 1.06-.94-.9-.47-1.03-.88-1.15.28-1.68 1.4-1.65.91-.73-.44-.81-1.41-.85-2.77-.21.04-.67.19-.69-1.43 1.07-1.03-.58-1.53-.25-2.95-2.08-.76-1.79-.15-1.33.04-3.52-.53-2.36-5.56-9.18-2.89-2.78-1.04-2.45-.87-.79-.91-.5-1.05-1.02 1.08-.51.66-.08-.85.62.39.35.87-.24.56-.44 1.3-2.19 1.69-3.41.28-1.47 3.98 1.52 2.78.56.99-.06 3.58.43 1-.15 1.99-.76 2.53-1.64 2.43-2.41.47-.7.05.23.18-.08.47-1.04.91-2.51 1.46-2.21 4.89-4.65 2.15-1.8.78-.87.73-.6.21.8.13.25.02.36-.36.07-.71.58-.86.29-.24.2.45.06 1.43-.19.89-.45 3.91-.27 2.43-1.46.18-.41 3.48-1.74.38.19.39.4-1.18 1.42.47.55-.95 1.8 1.05.28.03.94.23-.75.24-1.09.33-1.05.33-.7.66.5 1.85-.42-2-.56-.8-2.02-.67-.17 2.83-2.04 2.39-1.09.45.13.16.34-.06.48-.51.21-.56.45.09.53.28.14 1.07-.18.55-.4 2.08.5.69-.22.23-.32 2.72.5.55-.15 1.98-1.03 1.9-1.36.9-.77 1.69-2.1 1.35-1.32 2.02-1.19.38.27-.62.2-.51.57.37.96 3.31 2.46.9.27.17 1.13-.49.96-1.15.96-2.13.8.5.55.19 1.1.54.23.99-.22.84-.5 1.86-1.8.67-1.07.4-.23 1.19.5.6.72.62 1.19-.47.96-.43.52.91.97 1.13.36 1 .82 1.77-1.05 1.26-.08 1.14.23 1.6-.48 2.37 1.36.68-.16.99.32.99.74.29.68-1.35 1.15-.39 1.34.32.63.72.21-.02.81.43.26 2.31.27-.23.35-.18.44-.86.91 4.04 1.14.63-.49.88-.11 1.91-.54.64.42.7.89.72.26.71-.08 1.75-.94 1.87.16.72.46.83-.07 2.3 1.56.88.25 1.03 1.81.62.11.78-.64.61.08.53.74.96.31.35 1.12.46.44 3.65 1.14 1.88-.21 2.68.31 1.26.61 1.37.04 2.1 2.03 1.17.37.2.45 3.35.67 1.24-.9 2.08-.14 1.9-.72 1.05.06 1.21.26.47-.08.35-.34 2.92 1.54 1.61 1.68.69 1.21 3.47 1.81 1 .98.67 1.06.41.12.3-.3 1.24.12zm-163.06 31.02-.27.01.09-.23.91-.41 1.55-.38-.1.16-.89.39zm-47.62 27.57-.03.4.71.2.91.51.94.74 1.1.26 1.73-.63h.9l.86.13.77.58.64.89.2.46.05.7-.09.8.07.62 1.36 1.21.93.62.12.44.05.57.72.67.93.17.45.3 1.5.53 1.69 1.18-.79 1.34-.82.43-1.65-.79-1.78-.38-.97.49-.92.73-.4.88-.49.3-.42.06-.12-.6.15-1.67-.13-.52-.21-.37-.67-.78-.74-.61-.48-.21-.17-.66.08-.84-.2-.52-.47-.8-.52-.69-1.78-1.73-.65-.38-.75-.16-.92.16-.98.38-.93.21-.82-.18-.64-.56-.46-.9-.18-.58.1-.84.3-.77.38-.71 1.05-1.67.79-.11zm156.05 80.34-.96.03-.41-.24-.04-.22.26-.75.02-.33.49-.08.51.42.12.39zM219.3 623.28l1.16 1.52 1.01.28.48 1.08.08.76-1-.9-1.7-.62-1.53-2.79-.64-.75.6-1 1.08-.21-.11 1.62zm150.84 40.88h-.37l.59-.68.54-1.41.42.27.05.28-.96 1.39zm32.91 2.51-.04.4-.27.36.16.73-.51 1.17-.22.76-.26.46-.23.17-.2-.13-.02-.27.16-.41-.5-.03-.05-1.07.31-.31.14-.44.06-.3.45-1.32.13-.08.01.32.1.1.19-.11.31-.58.11-.06zm9.51.84.13.43 1.45.01.41.11.15.21-.22.27-.59.33-1.69.53-1.4.75-.17-.09-.17-.96-.21-.4-.11-.54.02-.2.27-.35.53-.5.36-.17zm9.49 2.41-.27.36-.65-.17-.34-.26 1.24-.9.18.21zM266.1 640.66l.44.93.34.15 1.18.12.36.28.3.43.1.55-.21.85-.41.69-.26 1.07-.18.44.42.78-.06.87-.16.9-1.39-.1-1.31-.35-1.3.25-.36.36-.02.7-.36.07-.24-.23-.36-.76-.51-.47-1.94-1.08-2.06-2.55-1-.71-.73-1.63-.51-1.94.75-.05.71.08 2.93 1.19.74-1.04.48-.17 1.06-.03 1.09-.37.39.14.33.37.96-.13.47.05zm135.45 35.63-.86.14-.16-.47.55-1.07.41-.6.28-.13 1.08-1.17 1.15-.82 1.1-1.25 1.16-1.83.25-.7.47-.03.71.54.41.7-.26.51-2.75 2.5-.24.34-.31.9-.24.3-.35.12-.28.38-.21.65-.34.32-.47-.02-.34.15-.21.32zm-1.81-4.03-.44.43-1.47-.43.4-.88 1.2-.46 1.16 1.02zm26.02 5.81-.37.07.61-.96.8-1.06.73-.65.92-.24-.13.5-1.23.86zm-128.11-.35-.62.1-.57-.26-.11-1.56.37.04.98-.77 1.84-.37.43.01zm64.86 14.08-.24.06-.5-.54-.3-.54.3-.33 1.22-.61.53.06.2.16.05.25-.09.35-.3.41zm.26 1.93.27.16.42-.84h.21l.82.88.59-.08.23.97.32.13.32-.07.17.09-.2.96-.82.89-.35.2-.41-.32-.15-.12-.23-.48-.14-.58-.13-.03-.61.57-.03.32.15.51-.08.29-.58.06-.54-.16-.74.32-.12-.29.01-.75-.22.05-.45.85-.43.52-.71.38-.17.21-.47-.04-.73.19-.42-.11-2.39-1.37-.54-.45 2.43-1.92 1.23-.7.62.14.59.37.34.01.18-.99-.48-.83.07-.31 1.38-.31.47.14.5.34.45.5zm139.89 9.71 2.03.24 1.47-.16 1.47 2.16.94 1.76.56 1.24.35 1.2.44 1.16-.02.17-.83-.75-.66-1.58-.32-.61-.3-.27-.33-.58-.66-1.51-.05-.43-.28-.39-.31-.15-.33.09-.11.16.11 1.06.33 1.17 1.61 2.5 1.06 1.41.22.47.21 1.33-.39.63.59 1.2v.24l-.1.24-1.38.63-1.17 2.35-1.35 1.41-.64.25-.33-.21-.32-.5-.21-.68-.1-.85.33-.56.56-2.84-.03-.92-.93-1.24-.57-1.02-.35-1.45-.66-3.85-.28-1.23-.36-1.02-.43-.81-.34-.9-.25-.98.06-.39.71.49.89 1.39zm2.86-1.16-.04.38-1.08.02-1.12-.49-.57-.69.09-.33 1-.35.99.63zm-11.23.28 1.19 1.42.02.34-.19 1.01-.61.31.19.39.47.28.32-.26 1.14-1.46.36-.31.22-.04 1.48.36 1.31.61.4.52.26.93-.25 2.04-1.04.4-.5-.01-.54-.27-.83.74.73.51 2.17.03.71 1.11.23.87-.39 1.63-1.25-.39-1.13-.89-2.28-1.23-.53-.04-.35.25-.07.81.09 1.74-.56.92-1.78-.33-.74-1.29-.71-2.07-2.49-2.39-.67-.48-.91-1.46.31-1.19.08-.68.45-.19.66-.54.34-1.15.63.9.84.86-.02-.83.36-.68h.79l.37-.15.5-.64.74-.35zm-136.48-1.43-.07.82.34-.05 1.34-.65.67-.15.83.08.6.48.09.31-.11.34-.63.63-.05.46.44.93 1.32.66.13.28-.05.3-1.16 1.26-.4.28-.26.04-1.7-.51-1.52-.7-.63-.18-.25.11-.52.36.3.18 1.38.32.4.7.15.49.03.52-.31.17-.62.06-.72-.11-.98.44-.59.58-1.81-.11-1.49.66-.55.35-.25.49-.57.29-1.22.19.64.45.06.3-.05.39-.15.32-1.16 1.36-1.94.95-.43-.13-.16-.18-.12-.26.03-.24 2.64-2.11-.07-.14-.59-.18-.85-.84-.75.33-.15-.04.28-.55.56-.62-.04-.21-.21-.21-.54-.2-.87-.18-.67.06-.48.29-.06.15.9.11.21.23.18.39.08.42-.02.46-.29.58-.55.69-.6-.24-.99-1.91-.14-2.58-.76-2.09.03-.46.51-1.12 1.38-1.48 1.25-.26.95-.56.84-.08.5.1.63.42.17.69-.21.27.04.17.42.46.3 1.43.41 1.29.33.55.48.38-.4-1-.14-1.18.2-2.27-.06-.62.33-.11.85.23.03-.34-.79-.91-.46-.72-.13-.53.08-.43.6-.55.31-.13.3-.03.56.23.23.24.51 1.55.28.5.29.05.31-.19.32-.44.3-.25.28-.05.79.34.29-.03.19-.34.09-.64.24-.2.12-.46-.34-.77.55-.13 1.63.79.64.69zm-2.65-.81-.28.38-.19-.14-.36-.55-.79-.84-.33-.55.01-.21.34-.18.97.73.37.59zm145.77 15.34.76 1.6.56 1.24.52 1.5.9 3.11.41 1.17.14.65.17 1.7-.09.37-.21.35-.02.49.27 1.29.11 1.97-.14 1.12-.22.18-.58-.34-.49-.58-.37-.61-.93-1.94-.29-.91-.05-.66.11-.49.26-.31.44-.82-.07-.13-.35.2-.73.14-.68-.61-.52-.31.05-1.15-.15-.32-.98.4-.39-.3-.1-.43-.01-.64.17-.57.88-1.46-.11-.26-.46-.04-.62-.46-.34-1.58-.68-.88-.38.1-.76 2.6-.41.58-1.21.41.22-.72.09-.64-.5-1.92-.04-.75.27-.56.85-.26.44-.34.33-.55.07-.52.61-1.4.3-.28.82-.02 1.8 1.44.54.2zm-279.87-39.05-1.02.38-.63-.5-.04-.56.07-.21 2.25.19zm134.3 34.7-1.09.32-.18-.05-.78.86-.55.34-.52-.86.35-1.15.68-.7 2.76.69.18.25-.02.19-.23.12zm158.81 8.81.57.43.26-.51.55-.01 1.04.37.65.61.39.72.06.44-.03 1.01.15 1.03-.01.54-.11.45-.21.37-.25.06-.86-.87-1.02-1.61-.72-.46-.02.17.22.47.62.86.14.53.44.63.21.49.15.65.03.57-.08.5-.16.33-.25.16-1.4-.05-.81.38-.98-.12-.25-.28-.18-.48-.15-1.17-.35-1.67-.02-1.3-.69-1.14-.58-.68-.8-.59-.54-.6.11-.51.76-.42 1.29.01zm-4.92 2.66.59 1 .76-.13.48.75.39 1.14-.19.76-.35-.15-.35.45-.15 1.45.19 1.43-.03 1.43-.36 1.48-.04.98-.16.3-.19.11-.26-.25-.37-.19-.41.85-.55.04-.56-1.84.24-3.13.88-.68-.59-.82-1.2-.92.07-.56-.95-1.54-.07-.38.07-1.33.74-1.22 1.05-.27.77.46.44.41zm10.44 4.09-.07.22-1.04.05-.39-.15-.18-.62.06-.59.21-.47.23-.89.13-1.47 1.64 1.52.52.69.32.87-.52.37-.64.21zm-298.24-41.46.92.63.63.02.45.32-.03.36-1.12.42-.34-.17-.73-1.23zm122.8 33.31-.4-.03-.54-.49.16-.45.95-.42.84.23.01.32-.1.34-.1.19-.31.17zm-4.03.51-.61.25-.16-.15.02-.29.21-.43.33-.41 1-.72.96-.43.43.11.09.39-.66.67zm185.14 13.4.02 2.46-.34-.11-.31.02-.61.4-.68-.1-.33-.25-.14-.31.07-.74-.4-.38-1.26-.06-.48-.14-.31-.75-.13-1 .17-.39.61-.31.4-1.26.26-.18.85-2.5.53.13 1.02 1.4 1.3 2.04zm-5.65-1.63-.42.08-.51-.19-1.26-1.12-.05-.35.14-.41.62-.78.26-.2 1.61-.03.53.16.14.33v.35l-.14.37-.01.37.12.38-.16.4zm-6.55-.93 1.58.22 1.43-.12.53.58.37.62.23.59.09.56-.01.4-.15.44.05.14 2.9 1.21 1.43 1.38.59.74.35.63.68 1.59 1.32 1.81.66.53.39.54-.2.04-.86-.35-1.89-1.14-.14.06-.11.7-.23.62-.38.46.34.1 1.43-.38 1.31 1.15.49.19.53.85.04.34-.22.68-.18.28.08.18.35.07 1.33-.29.27.3v2.58l.27.93.03.43-.11.58.03.48.16.48.05.44-.25 1.17-.35.22-.59.05-.49-.29-.73-.94-.75-1.49-.26-.2-.85-.17-.16-.17-.53.01-.42-.6-.02-.83-.38-.82.01-.38-.37-.13-.29.26.22.82-.13.66-.68-.22-1.24-1.98-1.35-1.57-.51-.36.1-.49.59-.3.5-.01.08-.29-1.14-1.53v-.46l.32-.83-.49-.31-1.27.34-.46-.14-.41-.62-.25-.55-1.12-.03-.42.1-.78-.8-.36-.52.11-.28.64-.52.39.04.78.47.29-.04.7-.73.07-.62.52-.54-.12-.53-.37-.89-.69-.21-1.35.63-1.15.91-.5-.3-.14-.51 1.21-1.47.52-.8-.14-.45-.45-.56-.13-1.47zm22.37 10.9-.15 1.64-.43 1.7-.8.96-.64-.14-.52-.67-.42.08-.46-.11-.3-.57.17-.79-.26-.58-.18.54-.36.51-.95.7-.59 1.24-.26.8-.47-.81-.42-1.97-.1-.84.62-1.33.83-1.29-.11-3.64 2.79-2.07.28.07 1.08 1.27 1.19 1.81.34.83.14 1.49zm-204.09-14.06-.4.4-.61-.15-.32-.21-.04-.42 1.18-1.04.25-.12.16.08-.02.51zm184.62 14.76.21.4.03.26-1.15 1.05-.01.2-.25.62-.24.24-.41.68-.82.76v-2.13l-.93-1.18.82-.67.57.14.94.01.88-.6zm-228.01-16.31.12.04.28-.05.72-.68h.18l-.06.25-.44.74.17 1.17.27.61-.08.17-1.08.13-.7-.45h-.42l-.45.28-.15-.47.31-2.01.14-.33.58-.58.61-.18.21.15.13.32-.02.3zm2.98.36-.38 1.1-.95-.99-.21-.43.26-.22 1.08.19zm229.39 25.24.22.18.2-.15.31-.55.61.06.45.14.28.2-.09.77-.02 1.24-.22.46-.2.63-.89-.3-.75-.74-1.1-1.28-.63-.94-.07-.41-.38-.28-.8-1.64-.48-1.3-.63-.11-.81-.32-.35-.71.17-.65 1.09-.39 1.78 1.54.3.68.66.78.19 1.13.34.43zm-226.35-21.37-.57.2-.25.36-.42.08-.4.25-1.43 1.22-.54.16.82-1.13.18-.38.07-.26.06-.99.3.12.31-.14.72-.72.49.03.73-.88.29-.02.1.17-.36.55.35.67-.25.51zm238.97 17.65 1.03 1.83.1.67-.8.31-.65-.04-.35-.19-.11-.3.13-.98-.49-.54-.51-.15-.41.37-.1-.95.27-.71-.26-.92-.06-.7.09-.23.44-.02.97.65zm-235.96-17.3-.3 1.13-.16.15-.15-.36-.54.23-.2-.31.2-.37.04-.32.35.05.21-.55v-.25l.29-.47.27-.06zm.68 2.86-.28.01-.19-.21-.12-.88.05-.35.53.39.09.64zm-33.71-8.55.15 2.56.22.55.44.39.65.45.33.46.23.63-.02.25-2-1.55-1.79.99-.48.06-4.04-1.05-.87.03-.65.3-1.27.99-.6.35-.58.15-1.14.02-1.24-.41-.61-.35-.18-.7.03-1.26.1-.33.29-.52 1.34-.45.49-.3 2.2-2.25.52-.25.47.04 1.17.53 1.27-.48 2.59-.56h.53l1.63.42.39.31.25.43zm9.12 4.47-.21.02-.45-.58-.12-.38-.02-.54 1.34-.43.24.05.11.46-.05.33-.56.84zm-3.76 5.77-.8.12-.67-.52-.49-.77.12-.73 1.32.84.25.3zm-25.85-3.23h-.39l-.04-.17.14-.63.02-1.06.63-.2.35.01.09.19.16.84.32.31.23.24-.56.08zm-2.58.23-.39.15-.27-.02-.15-.2-.9-.09-.14-.15-.13-.95.11-.44.25-.29.48-.19.7-.09.59.24.82 1.09.36.6.01.31-.45.15zm-7.1.42.15.77.75-.23.63-.44.58-.63.32-.22.18.49.7.8-.98.6-1.78.8-.73.68-.14.35 1.44.15.37.16.16.36-.48.22-.83.07-.83.39-1.81.55-.83.67-.77.11-.93-.21-1.77.04-1.14.21-.33.2-.35.03-.36-.13-.47.1-.57.33-.42.1-.59-.14-.36.09-.34-.12-.74-.86-.13-.4 1.03-.39.66-.03.93.19 1.08-.32 2.07-.22.7-.26.85-1.41.5-.13.41-.54 1 .33.25.83.13.14.1-.04.22-.53.64-.22-.21-.37-.82-.65-.63-.38-.45-.12-.3-.31-.15-.51v-.45l.15-.4.37-.39.59-.37.58-.13 1.13.13 1.05-.04.52.1.33.26zm2.58 3.51h-.13l-.11-.41.09-.32.21-.19.55-.42.33-.11.37.01.05.17-.49.54-.5.31zm-16.19.65-3.03.64-1.18.81-.98.83-.69.4-.39-.02-.5.14-1.08.44-.38-.03-3.28.77-.2-.04.28-.4 1.04-.34.73-.39.93-.74.45-.23.27-.44.37-.94.27-.31.82-.53.55-.25.6.05 1.08.5.59-.21.24-.23-.2-.35.08-.46.33-.74.55-.57.77-.4.93-.2h1.1l.73.22 1.07 1.12.09.38-.55.59-.4.59zm-16.65 2.01-.33.51-.19.16-1.18-.74-.89-.2.02-.36.18-.26 1.5.03.55.19.28.36zm-9.94.56-.69.24-.1-.22.1-.57.45-.31 1.23-.58.55.39.11.31-.14.34-.39.37-.37.12-.36-.13zm-35.53-5.25-4.65-1.29-.51-.66.76.07.84.21 1.92.06 2.27.3h1.86l1.56.13.68-.55-1.07-.86-.12-.38.71-.1.68-.29 1.36-.11.73 1.12.03.57-.32.53-.44.51-1.02-.06-.26.25.13 1.07-2.15.02zm19.58 4.09-.69-.04-.59-.46.59-.59.47-.26.78-.23.64.48.35.81zm-9.74-1.69 1.41 1.19 2.05.73.69.42-.05.16-1.38-.28-.41-.25-1.25-.14-.79-.25-1.64-.98-1.43-.35-.33-.22-.33-.42-.32-.62.08-.28.49.07 1.05.84.2-.14 1.15.06zm-21.08-6.62-.36.31-.62-.76-.14-.46.09-.37.48-.47.64.27.28.4.17.59-.01.32zm-5.47-.23-.15.46.97.35.2.36-.38.87-.23.19h-.17l-.26-.34-.58.28-2.23.32-.28-.85-1.45.5 1.81-2.15.99-.01.43-.15.25-.76.91-1.04.81.42.17.67-.16.32zm-5.43-.02-.31.07-.49-.06-1.18-.71-.78-.29-.89-.29-.74-.05.02-.38.14-.25 3.05.5.8-.1.6-.31.76-.74.41-.14.17.09.23.53-.34.41-.52.25-.28.33zm-6.39-1.8-.38.36-.19-.1-.76-1.22-.05-.32.8-.05.31-.18.08-.38-.26-.7-.6-1.02-.13-.6.34-.18.5.02 1.34.57.37 1.09.42.51 1.19.75-.8.03-.51.15-1.01 1zm16.31 4.62-.82-.01-.66-.98.38-.65.76 1zm-2.41-.71-.85.55-.23-.52.32-1.13.41-.15.47 1.12z"
     style="fill:#ccc;fill-opacity:1;stroke:#fff;stroke-width:.5;stroke-opacity:1"
     transform="translate(-127.95 -482.112)"
     id="path2" />
  <g
     id="layer1"
     inkscape:label="Vrstva 1"
     transform="matrix(0.11400924,0,0,0.11544743,223.91131,217.22132)">
    <circle
       transform="matrix(0.994318,0,0,0.994318,-275.5681,-427.0646)"
       id="path1306"
       style="fill:#ff1414;fill-opacity:0.78448277;stroke-width:10.19400024;stroke-miterlimit:4;stroke-dasharray:none"
       cx="340"
       cy="492.36218"
       r="62.857143" />
  </g>
</svg>
