<?xml version="1.0" encoding="UTF-8" standalone="no"?>
<svg
   xmlns:dc="http://purl.org/dc/elements/1.1/"
   xmlns:cc="http://creativecommons.org/ns#"
   xmlns:rdf="http://www.w3.org/1999/02/22-rdf-syntax-ns#"
   xmlns:svg="http://www.w3.org/2000/svg"
   xmlns="http://www.w3.org/2000/svg"
   xmlns:sodipodi="http://sodipodi.sourceforge.net/DTD/sodipodi-0.dtd"
   xmlns:inkscape="http://www.inkscape.org/namespaces/inkscape"
   viewBox="0 0 23.415073 16.84682"
   version="1.1"
   id="svg8"
   sodipodi:docname="KWAJL.svg"
   width="23.415073"
   height="16.846821"
   inkscape:version="0.92.4 (5da689c313, 2019-01-14)">
  <metadata
     id="metadata14">
    <rdf:RDF>
      <cc:Work
         rdf:about="">
        <dc:format>image/svg+xml</dc:format>
        <dc:type
           rdf:resource="http://purl.org/dc/dcmitype/StillImage" />
        <dc:title></dc:title>
      </cc:Work>
    </rdf:RDF>
  </metadata>
  <defs
     id="defs12" />
  <sodipodi:namedview
     pagecolor="#ffffff"
     bordercolor="#666666"
     borderopacity="1"
     objecttolerance="10"
     gridtolerance="10"
     guidetolerance="10"
     inkscape:pageopacity="0"
     inkscape:pageshadow="2"
     inkscape:window-width="1920"
     inkscape:window-height="1017"
     id="namedview10"
     showgrid="false"
     fit-margin-top="0"
     fit-margin-left="0"
     fit-margin-right="0"
     fit-margin-bottom="0"
     inkscape:zoom="39.375989"
     inkscape:cx="-7.7714338"
     inkscape:cy="5.9944542"
     inkscape:window-x="-8"
     inkscape:window-y="-8"
     inkscape:window-maximized="1"
     inkscape:current-layer="svg8" />
  <path
     d="m 21.883537,16.5973 c -0.075,-0.055 -0.08,-0.076 -0.026,-0.14 0.034,-0.04 0.13,-0.075 0.212,-0.075 0.16,0 0.223,-0.078 0.283,-0.35 0.02,-0.077 0.06,-0.156 0.09,-0.175 0.04,-0.02 0.02,-0.035 -0.05,-0.035 -0.08,0 -0.1,-0.036 -0.13,-0.22 -0.02,-0.135 -0.01,-0.248 0.02,-0.3 0.03,-0.047 0.04,-0.096 0.01,-0.11 -0.02,-0.013 -0.04,-0.106 -0.04,-0.205 0,-0.182 0,-0.182 0.19,-0.182 h 0.19 l -0.02,0.188 c -0.01,0.103 -0.05,0.205 -0.08,0.227 -0.04,0.03 -0.05,0.05 -0.01,0.075 0.03,0.02 0.08,0.15 0.1,0.29 0.04,0.2 0.04,0.276 -0.01,0.348 -0.03,0.05 -0.05,0.14 -0.03,0.2 0.07,0.27 -0.13,0.53 -0.4,0.53 -0.1,0 -0.22,-0.03 -0.26,-0.066 z m 0.235,-0.075 c -0.016,-0.026 -0.054,-0.046 -0.085,-0.046 -0.033,0 -0.028,0.01 0.015,0.04 0.09,0.06 0.106,0.06 0.07,0 z m 0.435,-0.866 c -0.014,-0.02 -0.04,0.01 -0.058,0.05 -0.026,0.06 -0.02,0.07 0.026,0.02 0.032,-0.03 0.046,-0.07 0.032,-0.09 z m 0.01,-0.68 c 0,-0.03 -0.023,-0.05 -0.05,-0.05 -0.028,0 -0.037,0.02 -0.02,0.04 0.015,0.02 0.037,0.04 0.048,0.04 0.012,0 0.02,-0.02 0.02,-0.05 z m -1.546,1.12 c -0.063,-0.06 -0.162,-0.14 -0.22,-0.17 -0.18,-0.12 -0.107,-0.34 0.112,-0.34 0.128,0 0.453,0.37 0.43,0.5 -0.024,0.12 -0.19,0.12 -0.322,0.01 z m 0.21,-0.09 c 0.015,-0.03 0.01,-0.06 -0.012,-0.07 -0.022,-0.02 -0.04,0 -0.04,0.04 0,0.07 0.015,0.08 0.053,0.02 z m -0.207,-0.31 c -0.07,-0.08 -0.15,-0.1 -0.15,-0.03 0,0.02 0.03,0.04 0.07,0.04 0.04,0 0.07,0.02 0.07,0.05 0,0.03 0.01,0.04 0.03,0.02 0.01,-0.02 0,-0.06 -0.03,-0.1 z m -1.27,-0.6 c -0.11,-0.11 -0.18,-0.23 -0.16,-0.26 0.01,-0.04 -0.01,-0.06 -0.05,-0.06 -0.08,0 -0.16,-0.18 -0.16,-0.34 0,-0.09 0.01,-0.09 0.04,-0.03 0.03,0.05 0.04,0.04 0.04,-0.06 0,-0.16 0.12,-0.17 0.16,-0.01 0.01,0.06 0.06,0.11 0.09,0.11 0.03,0 0.09,0.05 0.11,0.12 0.07,0.15 0.06,0.16 -0.01,0.14 -0.03,-0.01 -0.04,-0.01 -0.03,0 0.02,0.01 0.02,0.04 0,0.07 -0.02,0.03 0,0.02 0.05,-0.01 0.17,-0.14 0.42,0.29 0.25,0.45 -0.1,0.09 -0.18,0.06 -0.38,-0.14 z m 0.17,0.05 c -0.02,-0.03 -0.06,-0.05 -0.09,-0.05 -0.04,0 -0.03,0.02 0.01,0.04 0.09,0.05 0.1,0.05 0.07,0 z m 0.16,-0.22 c 0,-0.01 -0.03,-0.04 -0.06,-0.06 -0.05,-0.04 -0.06,-0.04 -0.06,0.01 0,0.03 0.02,0.06 0.06,0.06 0.04,0 0.06,-0.01 0.06,-0.01 z m -0.38,-0.28 c 0,-0.01 -0.02,-0.04 -0.05,-0.05 -0.03,-0.02 -0.05,-0.01 -0.05,0.02 0,0.03 0.02,0.05 0.04,0.05 0.02,0 0.04,-0.01 0.04,-0.02 z m 2.59,0.03 c -0.15,-0.11 -0.21,-0.45 -0.12,-0.69 0.03,-0.09 0.03,-0.12 -0.01,-0.09 -0.08,0.05 -0.01,-0.43 0.09,-0.64 0.04,-0.09 0.13,-0.19 0.18,-0.21 0.05,-0.03 0.1,-0.08 0.1,-0.12 0,-0.04 0.02,-0.1 0.05,-0.13 0.07,-0.07 0.19,-0.08 0.15,-0.01 -0.02,0.03 -0.01,0.04 0.03,0.03 0.03,-0.01 0.06,-0.06 0.06,-0.1 0,-0.05 0.03,-0.08 0.08,-0.08 0.06,0 0.09,0.03 0.09,0.13 0,0.19 -0.09,0.28 -0.29,0.29 -0.17,0.01 -0.26,0.08 -0.1,0.08 0.06,0 0.06,0.01 0,0.08 -0.04,0.04 -0.08,0.1 -0.08,0.14 0,0.03 -0.02,0.06 -0.04,0.06 -0.06,0 -0.03,0.73 0.04,0.98 0.03,0.11 0.04,0.2 0.04,0.21 -0.04,0.04 -0.26,0.06 -0.3,0.03 z m 0.12,-1.2 c 0,-0.01 -0.04,-0.05 -0.08,-0.08 -0.08,-0.06 -0.08,-0.06 -0.02,0.02 0.06,0.08 0.1,0.1 0.1,0.06 z m -3.36,0.65 c -0.05,-0.07 -0.11,-0.12 -0.14,-0.12 -0.04,0 -0.33,-0.28 -0.66,-0.63 -0.15,-0.16 -0.21,-0.32 -0.15,-0.39 0.03,-0.04 0.07,-0.07 0.1,-0.07 0.03,0 0.02,0.02 -0.02,0.04 -0.05,0.03 -0.03,0.04 0.09,0.04 0.13,0 0.21,0.05 0.44,0.26 0.16,0.14 0.35,0.29 0.44,0.33 0.1,0.04 0.15,0.08 0.13,0.13 -0.02,0.04 0,0.05 0.04,0.04 0.12,-0.05 0.14,0.11 0.02,0.21 l -0.11,0.09 0.11,-0.02 c 0.09,-0.03 0.11,-0.01 0.09,0.06 -0.03,0.14 -0.29,0.14 -0.41,0 z m -0.11,-0.41 -0.12,-0.08 c -0.09,-0.07 -0.09,-0.06 -0.03,0.01 0.04,0.04 0.09,0.08 0.11,0.08 0.02,0 0.04,-0.01 0.03,-0.01 z m -0.33,-0.43 c 0,-0.01 -0.04,-0.05 -0.1,-0.1 -0.11,-0.1 -0.13,-0.06 -0.02,0.04 0.07,0.07 0.11,0.09 0.11,0.05 z m -0.58,-0.7 c 0.01,-0.11 0.03,-0.27 0.05,-0.35 0.01,-0.09 0,-0.17 -0.03,-0.18 -0.12,-0.07 -0.02,-0.54 0.11,-0.54 0.02,0 0.01,0.03 -0.03,0.07 -0.04,0.05 -0.05,0.07 -0.01,0.07 0.03,0 0.05,-0.02 0.05,-0.05 0,-0.03 0.03,-0.05 0.07,-0.05 0.04,0 0.07,-0.02 0.07,-0.05 0,-0.03 -0.03,-0.05 -0.06,-0.04 -0.15,0.02 -0.18,-0.01 -0.18,-0.17 0,-0.2 0.07,-0.36 0.15,-0.32 0.03,0.02 0.04,0.01 0.02,-0.01 -0.02,-0.02 -0.01,-0.07 0.03,-0.11 0.04,-0.06 0.04,-0.07 0,-0.04 -0.04,0.02 -0.06,0.01 -0.06,-0.04 0,-0.08 0.05,-0.09 0.12,-0.02 0.03,0.03 0.06,0.03 0.08,-0.03 0.01,-0.05 0,-0.08 -0.04,-0.08 -0.05,0 -0.07,-0.05 -0.07,-0.14 0,-0.19 0.07,-0.32 0.18,-0.32 0.05,0 0.1,-0.03 0.11,-0.06 0.01,-0.04 -0.01,-0.06 -0.06,-0.06 -0.05,0 -0.08,0.01 -0.06,0.03 0.01,0.02 0,0.04 -0.03,0.04 -0.03,0 -0.06,-0.02 -0.06,-0.05 -0.01,-0.09 -0.02,-0.1200002 -0.08,-0.2300001 -0.05,-0.08 -0.05,-0.12 -0.01,-0.17 0.08,-0.09 0.17,-0.08 0.28,0.03 0.08,0.08 0.08,0.1 0.03,0.14 -0.04,0.02 -0.05,0.04 -0.01,0.04 0.08,0 0.07,0.4800001 -0.01,0.7700001 -0.04,0.12 -0.07,0.3 -0.07,0.38 0,0.08 -0.02,0.15 -0.05,0.15 -0.07,0 -0.14,0.2 -0.08,0.26 0.05,0.05 0.05,0.22 0.01,0.33 -0.03,0.08 -0.04,0.07 -0.07,-0.01 -0.03,-0.08 -0.04,-0.08 -0.04,0.02 -0.01,0.06 0.01,0.1 0.04,0.1 0.03,0 0.05,0.03 0.05,0.07 0,0.04 -0.02,0.07 -0.04,0.07 -0.02,0 -0.03,0.07 -0.02,0.14 0.01,0.12 0,0.14 -0.09,0.15 -0.08,0 -0.09,0.01 -0.03,0.02 0.06,0.01 0.07,0.05 0.05,0.14 -0.05,0.22 -0.06,0.24 -0.18,0.24 -0.11,0 -0.12,-0.01 -0.09,-0.2 z m 0.19,-1.35 c -0.02,-0.04 -0.03,-0.03 -0.03,0.03 0,0.05 0.01,0.07 0.02,0.06 0.01,-0.02 0.01,-0.06 0,-0.09 z m 0.17,-0.16 c 0.01,-0.04 0.01,-0.07 -0.02,-0.07 -0.02,0 -0.05,0.03 -0.07,0.07 -0.02,0.04 -0.01,0.07 0.01,0.07 0.02,0 0.05,-0.03 0.07,-0.07 z m 0.12,-0.1 c 0,-0.04 -0.02,-0.07 -0.05,-0.07 -0.03,0 -0.04,0.03 -0.02,0.07 0.01,0.04 0.03,0.07 0.04,0.07 0.01,0 0.02,-0.03 0.02,-0.07 z m -0.02,-0.61 c -0.02,-0.02 -0.06,-0.02 -0.09,-0.01 -0.04,0.01 -0.03,0.02 0.03,0.03 0.04,0 0.07,-0.01 0.06,-0.03 z m 4.55,2.06 c -0.05,-0.06 -0.06,-0.16 -0.03,-0.42 0.03,-0.31 0.02,-0.37 -0.07,-0.48 -0.05,-0.08 -0.11,-0.2 -0.13,-0.27 -0.02,-0.07 -0.1,-0.2 -0.18,-0.28 -0.16,-0.16 -0.4,-0.47 -0.4,-0.53 0,-0.02 -0.07,-0.12 -0.16,-0.23 -0.13,-0.16 -0.16,-0.2400002 -0.18,-0.5000001 -0.01,-0.17 -0.01,-0.26 0.01,-0.21 0.03,0.09 0.03,0.09 0.06,0 0.02,-0.05 0.01,-0.1 -0.03,-0.12 -0.05,-0.03 -0.05,-0.06 -0.01,-0.13 0.03,-0.06 0.04,-0.1 0.01,-0.11 -0.03,-0.01 0.01,-0.14 0.09,-0.29 0.1,-0.2 0.14,-0.34 0.14,-0.52 0,-0.32 -0.12,-0.67 -0.29,-0.84 -0.07,-0.07 -0.12,-0.16 -0.11,-0.2 0.01,-0.04 -0.01,-0.06 -0.07,-0.06 -0.05,0 -0.11,-0.02 -0.12,-0.05 -0.04,-0.06 0.02,-0.38 0.06,-0.35 0.02,0.01 0.03,-0.03 0.03,-0.09 0,-0.06 -0.01,-0.1 -0.03,-0.09 -0.01,0.01 -0.02,0.05 -0.02,0.08 0,0.08 -0.12,0.07 -0.18,-0.03 -0.04,-0.07 -0.04,-0.09 0.02,-0.13 0.14,-0.09 0.21,-0.05 0.46,0.26 0.07,0.09 0.11,0.18 0.09,0.26 -0.01,0.07 0,0.12 0.03,0.1 0.05,-0.03 0.15,0.1 0.32,0.44 0.14,0.29 0.14,0.42 0.01,0.37 -0.05,-0.02 -0.07,0.02 -0.07,0.11 0,0.08 -0.02,0.14 -0.04,0.14 -0.02,0 -0.05,0.09 -0.04,0.2 v 0.2 l 0.05,-0.2 c 0.03,-0.11 0.06,-0.2 0.08,-0.2 0.02,0 0.02,-0.04 0.01,-0.09 -0.02,-0.06 0,-0.09 0.05,-0.09 0.09,0 0.16,0.15 0.09,0.17 -0.03,0.01 -0.04,0.04 -0.03,0.08 0.02,0.07 -0.13,0.64 -0.24,0.85 -0.03,0.06 -0.1,0.12 -0.14,0.14 -0.07,0.02 -0.08,0.05 -0.06,0.16 0.01,0.08 0.03,0.16 0.03,0.18 0,0.02 0.02,0.04 0.05,0.04 0.03,0 0.04,-0.03 0.02,-0.08 -0.07,-0.17 -0.08,-0.24 -0.03,-0.24 0.03,0 0.05,0.01 0.04,0.03 -0.01,0.02 0.01,0.1 0.02,0.18 0.09,0.36 0.13,0.4900001 0.17,0.4900001 0.03,0 0.09,0.09 0.14,0.2 0.05,0.11 0.17,0.29 0.27,0.41 0.18,0.22 0.3,0.46 0.26,0.5 -0.01,0.01 -0.03,0 -0.03,-0.03 0,-0.03 -0.02,-0.05 -0.04,-0.05 -0.02,0 -0.03,0.03 -0.01,0.07 0.01,0.04 0.06,0.07 0.11,0.07 0.1,0 0.34,0.35 0.3,0.45 -0.01,0.04 -0.01,0.06 0.02,0.04 0.05,-0.03 0.1,0.19 0.06,0.28 -0.01,0.03 -0.05,0.06 -0.09,0.06 -0.05,0 -0.06,0.03 -0.04,0.11 0.05,0.2 -0.17,0.33 -0.3,0.18 z m 0.05,-0.21 c -0.02,-0.05 -0.04,-0.09 -0.05,-0.07 -0.03,0.02 0.02,0.17 0.05,0.17 0.01,0 0.01,-0.05 -0.01,-0.1 z m 0.17,-0.49 c 0,-0.01 -0.03,-0.03 -0.05,-0.05 -0.03,-0.02 -0.05,-0.01 -0.05,0.02 0,0.03 0.02,0.05 0.05,0.05 0.03,0 0.04,-0.01 0.04,-0.02 z m -0.45,-0.81 c -0.01,-0.04 -0.05,-0.08 -0.09,-0.08 -0.06,-0.01 -0.07,0 -0.03,0.04 0.03,0.03 0.04,0.07 0.02,0.08 -0.02,0.01 0,0.02 0.04,0.02 0.04,0 0.06,-0.03 0.05,-0.07 z m -0.19,-0.25 c 0.01,-0.02 -0.01,-0.03 -0.05,-0.02 -0.04,0 -0.09,0.02 -0.1,0.04 -0.02,0.01 0,0.02 0.04,0.02 0.04,-0.01 0.08,-0.03 0.1,-0.04 z m -0.31,-0.38 c -0.07,-0.08 -0.21,-0.09 -0.15,-0.01 0.02,0.03 0.08,0.06 0.12,0.06 0.05,0 0.06,-0.02 0.02,-0.05 z m -0.47,-3.2600001 c 0,-0.03 -0.02,-0.04 -0.05,-0.02 -0.03,0.01 -0.05,0.05 -0.05,0.07 0,0.02 0.02,0.03 0.05,0.01 0.02,-0.01 0.04,-0.05 0.04,-0.07 z m -0.03,-0.14 c 0.01,-0.02 0.01,-0.06 -0.01,-0.07 -0.02,-0.02 -0.04,0 -0.04,0.04 0,0.08 0.01,0.09 0.05,0.03 z m -3.749,2.471 c -0.01,-0.02 -0.02,-0.114 -0.013,-0.21 0,-0.105 -0.02,-0.184 -0.05,-0.2 -0.08,-0.03 -0.08,-0.072 0.01,-0.18 0.09,-0.124 0.27,-0.03 0.23,0.12 -0.02,0.073 -0.02,0.083 0.02,0.037 0.02,-0.035 0.06,-0.05 0.09,-0.032 0.06,0.04 0.07,0.26 0,0.26 -0.03,0 -0.05,0.057 -0.05,0.12 0,0.094 -0.03,0.12 -0.12,0.12 -0.06,0 -0.12,-0.02 -0.13,-0.04 z m 0.295,-0.293 c 0,-0.022 -0.02,-0.043 -0.048,-0.043 -0.028,0 -0.05,0.02 -0.05,0.046 0,0.026 0.02,0.05 0.04,0.05 0.02,0 0.04,-0.025 0.04,-0.05 z m -0.796,-0.31 c -0.06,-0.01 -0.18,-0.07 -0.26,-0.133 -0.08,-0.06 -0.22,-0.123 -0.32,-0.135 -0.18,-0.02 -0.28,-0.11 -0.33,-0.29 -0.07,-0.28 0.31,-0.33 0.58,-0.08 0.11,0.1 0.22,0.16 0.29,0.16 0.2,0 0.45,0.26 0.4,0.41 -0.03,0.1 -0.1,0.11 -0.35,0.06 z m -0.3,-0.386 c -0.01,-0.03 -0.05,-0.05 -0.08,-0.05 -0.04,0 -0.03,0.02 0.01,0.05 0.09,0.06 0.11,0.06 0.07,0 z m -0.09,-0.13 c 0.02,-0.02 0,-0.04 -0.04,-0.04 -0.03,0 -0.05,0.02 -0.04,0.04 0.01,0.02 0.03,0.04 0.04,0.04 0.01,0 0.03,-0.02 0.05,-0.04 z m -0.89,-0.13 c -0.06,-0.04 -0.1,-0.12 -0.1,-0.18 0,-0.1 -0.01,-0.11 -0.11,-0.09 -0.16,0.05 -0.36,-0.01 -0.33,-0.09 0.02,-0.04 0,-0.05 -0.04,-0.04 -0.04,0.01 -0.08,-0.01 -0.09,-0.05 -0.01,-0.04 -0.06,-0.07 -0.1,-0.07 -0.04,0 -0.1,-0.03 -0.13,-0.08 -0.09,-0.11 -0.34,-0.24 -0.48,-0.24 -0.07,0 -0.15,-0.03 -0.19,-0.07 -0.08,-0.08 -0.1,-0.23 -0.03,-0.18 0.03,0.01 0.04,0 0.02,-0.05 -0.03,-0.08 -0.21,-0.1 -0.21,-0.03 0,0.03 0.04,0.03 0.08,0.02 0.05,-0.02 0.07,-0.01 0.05,0.03 -0.02,0.03 -0.08,0.05 -0.13,0.05 -0.05,0 -0.08,-0.02 -0.07,-0.05 0.01,-0.03 -0.02,-0.05 -0.07,-0.05 -0.05,0 -0.1,-0.02 -0.12,-0.05 -0.01,-0.02 -0.09,-0.05 -0.17,-0.05 -0.11,0 -0.13,-0.02 -0.11,-0.07 0.01,-0.04 0,-0.06 -0.02,-0.04 -0.02,0.02 -0.05,0.06 -0.05,0.1 0,0.07 -0.1,0.09 -0.17,0.02 -0.03,-0.03 -0.05,-0.03 -0.05,0.02 0,0.04 0.02,0.06 0.04,0.05 0.02,-0.01 0.04,-0.01 0.04,0.01 0,0.02 -0.08,0.1 -0.17,0.17 -0.13,0.1 -0.18,0.12 -0.21,0.07 -0.03,-0.04 -0.05,-0.03 -0.07,0.05 -0.02,0.05 -0.05,0.09 -0.07,0.08 -0.02,-0.01 -0.07,0.01 -0.1,0.05 -0.05,0.06 -0.05,0.06 0.02,0.04 0.16,-0.06 0.07,0.03 -0.1,0.1 -0.12,0.05 -0.19,0.05 -0.22,0.02 -0.03,-0.03 -0.03,-0.05 0.01,-0.05 0.04,0 0.05,-0.01 0.04,-0.03 -0.02,-0.01 -0.06,0 -0.1,0.03 -0.06,0.05 -0.1,0.04 -0.22,-0.07 -0.08,-0.08 -0.13,-0.1 -0.12,-0.06 0.037,0.09 -0.04,0.16 -0.23,0.2 -0.073,0.01 -0.19,0.07 -0.26,0.12 -0.127,0.09 -0.257,0.12 -0.215,0.06 0.01,-0.02 -0.04,-0.03 -0.12,-0.04 -0.11,0 -0.13,0 -0.06,0.03 0.15,0.06 0.02,0.09 -0.21,0.06 -0.17,-0.02 -0.21,-0.04 -0.2,-0.12 0.01,-0.05 0,-0.06 -0.01,-0.03 -0.03,0.06 -0.11,0.05 -0.43,-0.01 -0.06,-0.01 -0.12,-0.06 -0.13,-0.12 -0.02,-0.05 -0.05,-0.08 -0.07,-0.07 -0.02,0.02 -0.093,0 -0.16,-0.03 -0.14,-0.06 -0.145,-0.19 -0.01,-0.21 0.05,-0.01 0.11,-0.04 0.14,-0.07 0.03,-0.03 0,-0.04 -0.09,-0.02 -0.08,0.02 -0.15,0.06 -0.16,0.08 -0.03,0.08 -0.2599996,0.05 -0.4199996,-0.06 -0.155,-0.11 -0.2,-0.29 -0.09,-0.37 0.04,-0.02 0.03,-0.03 0,-0.03 -0.03,0 -0.08,0.03 -0.11,0.07 -0.04,0.047 -0.105,0.06 -0.18,0.04 -0.11,-0.02 -0.116,-0.02 -0.04,0.03 0.05,0.03 0.125,0.05 0.174,0.03 0.05,-0.01 0.076,0 0.06,0.03 -0.05,0.077 -0.32,0.01 -0.48,-0.102 -0.08,-0.06 -0.244,-0.14 -0.37,-0.18 -0.13,-0.04 -0.22,-0.1 -0.22,-0.14 0,-0.04 0.03,-0.06 0.06,-0.06 0.05,0.01 0.05,-0.01 0.01,-0.08 -0.03,-0.06 -0.09,-0.09 -0.174,-0.09 h -0.1 l 0.13,0.02 c 0.07,0.01 0.12,0.047 0.11,0.077 -0.02,0.08 -0.36,0.12 -0.82,0.1 -0.46,-0.02 -0.76,-0.154 -1.28,-0.593 -0.18,-0.15 -0.42,-0.32 -0.53,-0.37 -0.144,-0.06 -0.23,-0.14 -0.295,-0.27 -0.05,-0.11 -0.173,-0.23 -0.3,-0.31 -0.12,-0.075 -0.28,-0.18 -0.35,-0.24 -0.08,-0.06 -0.2,-0.105 -0.29,-0.105 -0.23,0 -0.57,-0.11 -1.01,-0.33 -0.31,-0.16 -0.387,-0.21 -0.387,-0.3 0,-0.06 -0.03,-0.16 -0.06,-0.23 -0.045,-0.1 -0.04,-0.13 0.02,-0.19 0.1,-0.1 0.23,-0.02 0.36,0.22 0.072,0.13 0.082,0.19 0.04,0.23 -0.04,0.04 -0.04,0.053 0,0.053 0.03,0 0.06,-0.02 0.06,-0.05 0,-0.02 0.04,-0.04 0.09,-0.04 0.05,0 0.09,0.02 0.07,0.04 -0.01,0.02 0.02,0.03 0.08,0.02 0.07,-0.02 0.14,0.01 0.18,0.06 0.11,0.15 0.27,0.2 0.58,0.2 0.24,0 0.33,0.02 0.44,0.11 0.21,0.17 0.43,0.32 0.47,0.32 0.02,0 0.1,0.064 0.17,0.144 0.08,0.08 0.26,0.225 0.41,0.32 0.15,0.096 0.33,0.25 0.39,0.345 0.07,0.09 0.14,0.17 0.16,0.17 0.03,0 0.15,0.07 0.29,0.16 0.13,0.09 0.29,0.16 0.35,0.16 0.06,0 0.13,0.02 0.15,0.05 0.03,0.026 0.3,0.06 0.61,0.075 0.59,0.03 0.98,0.14 0.93,0.26 -0.02,0.06 0.17,0.18 0.3,0.18 0.04,0 0.05,0.02 0.04,0.04 -0.04,0.066 0.22,0.096 0.31,0.04 0.11,-0.07 0.2599996,0.01 0.23,0.13 -0.01,0.08 0.07,0.16 0.1599996,0.16 0.02,0 0,-0.03 -0.05,-0.07 -0.1299996,-0.107 0.02,-0.02 0.19,0.105 0.08,0.06 0.2,0.11 0.27,0.11 0.08,0 0.13,0.02 0.13,0.07 0,0.04 0.02,0.06 0.04,0.04 0.03,-0.01 0.13,0.01 0.22,0.06 0.1,0.05 0.24,0.11 0.31,0.12 0.07,0.01 0.13,0.07 0.13,0.1 0,0.08 0.07,0.1 0.12,0.03 0.02,-0.03 0.118,-0.05 0.22,-0.05 0.17,0 0.19,-0.01 0.19,-0.12 0,-0.09 0.02,-0.11 0.07,-0.09 0.04,0.02 0.07,0.01 0.07,-0.02 0,-0.02 0.03,-0.04 0.07,-0.04 0.04,0 0.07,-0.03 0.07,-0.06 0,-0.04 0.05,-0.04 0.14,-0.03 0.07,0.02 0.15,0.01 0.16,-0.02 0.044,-0.07 0.17,-0.05 0.23,0.03 0.095,0.13 0.34,0.04 0.5,-0.18 0.07,-0.1 0.13,-0.16 0.13,-0.13 0,0.04 0.03,0.04 0.11,-0.01 0.06,-0.04 0.1,-0.1 0.09,-0.13 -0.02,-0.09 0.09,-0.133 0.35,-0.14 0.32,0 0.66,0.14 0.7,0.3 0.03,0.11 0.05,0.12 0.23,0.12 0.11,0 0.22,0.03 0.25,0.06 0.09,0.11 0.64,0.36 0.76,0.35 0.09,-0.01 0.12,0.02 0.16,0.14 0.02,0.09 0.07,0.15 0.14,0.16 0.06,0.01 0.09,0.04 0.09,0.12 -0.01,0.06 0.01,0.09 0.04,0.06 0.08,-0.06 0.38,-0.04 0.36,0.028 -0.003,0.03 0.02,0.04 0.06,0.03 0.13,-0.05 0.076,0.15 -0.08,0.28 -0.173,0.15 -0.17,0.15 -0.305,0.05 z m -0.34,-0.34 c 0,-0.03 -0.01,-0.05 -0.02,-0.05 -0.01,0 -0.03,0.02 -0.05,0.05 -0.02,0.03 0,0.05 0.02,0.05 0.03,0 0.05,-0.02 0.05,-0.04 z m 0.55,0.02 c -0.01,-0.02 -0.05,-0.02 -0.09,0 -0.03,0.01 -0.02,0.02 0.03,0.03 0.05,0.01 0.08,-0.01 0.06,-0.02 z m -0.64,-0.33 c -0.03,-0.03 -0.07,-0.05 -0.09,-0.04 -0.02,0.01 -0.09,0 -0.16,-0.02 -0.08,-0.03 -0.12,-0.03 -0.1,0 0.02,0.03 0.06,0.05 0.09,0.05 0.04,0 0.09,0.03 0.12,0.07 0.03,0.04 0.09,0.06 0.13,0.04 0.06,-0.02 0.06,-0.04 0.02,-0.09 z m -4.76,0.06 c 0,-0.04 -0.18,-0.06 -0.24,-0.02 -0.05,0.03 -0.02,0.04 0.09,0.04 0.08,0 0.15,-0.01 0.15,-0.02 z m 0.77,-0.07 c 0.02,-0.03 -0.04,-0.04 -0.13,-0.04 -0.13,0 -0.14,0.01 -0.06,0.04 0.13,0.06 0.15,0.06 0.19,0 z m -0.82,-0.11 c -0.14,-0.13 -0.17,-0.13 -0.08,0.01 0.03,0.05 0.09,0.1 0.12,0.1 0.04,0 0.03,-0.03 -0.05,-0.11 z m 0.28,0.06 c 0,-0.03 -0.03,-0.05 -0.05,-0.05 -0.03,0 -0.04,0.02 -0.02,0.05 0.01,0.03 0.04,0.05 0.05,0.05 0.01,0 0.02,-0.02 0.02,-0.05 z m -0.5,-0.24 c -0.03,-0.02 -0.09,-0.03 -0.14,-0.01 -0.08,0.03 -0.08,0.04 0.02,0.07 0.14,0.04 0.18,0.02 0.11,-0.05 z m 1.71,-0.09 c 0,-0.02 -0.03,-0.03 -0.06,-0.01 -0.04,0.02 -0.06,0.06 -0.06,0.09 0,0.05 0.01,0.06 0.06,0.02 0.03,-0.03 0.06,-0.07 0.06,-0.09 z m 0.35,0.1 c -0.02,-0.02 -0.07,-0.04 -0.11,-0.04 -0.06,0 -0.06,0.01 0.02,0.04 0.12,0.05 0.13,0.05 0.09,0 z m 2.19,0.01 c 0.03,-0.04 -0.14,-0.04 -0.19,0.01 -0.02,0.02 0.01,0.04 0.07,0.04 0.06,0 0.11,-0.01 0.12,-0.04 z m -1.98,-0.1 c 0,-0.02 -0.03,-0.03 -0.07,-0.02 -0.04,0.01 -0.06,0.05 -0.05,0.07 0.03,0.05 0.12,0.01 0.12,-0.06 z m 1.92,-0.1 c -0.04,-0.03 -0.06,-0.04 -0.06,-0.01 0,0.06 0.05,0.12 0.08,0.09 0.01,-0.01 0,-0.05 -0.03,-0.08 z m -4.85,0 c -0.02,-0.02 -0.06,-0.02 -0.09,-0.01 -0.1,0.04 -0.09,0.06 0.02,0.05 0.05,0 0.08,-0.02 0.07,-0.04 z m 4.75,-0.04 c 0,-0.03 -0.04,-0.05 -0.08,-0.05 -0.04,0 -0.06,0.02 -0.05,0.05 0.02,0.03 0.05,0.05 0.07,0.05 0.02,0 0.04,-0.02 0.04,-0.05 z m -0.7,-0.22 c 0.06,-0.08 0.05,-0.08 -0.03,-0.01 -0.05,0.04 -0.11,0.08 -0.12,0.08 -0.01,0.01 0,0.01 0.03,0.01 0.03,0 0.08,-0.04 0.12,-0.08 z m -0.2,-0.23 c 0,-0.01 -0.08,-0.02 -0.17,-0.01 -0.14,0.01 -0.16,0.02 -0.09,0.04 0.08,0.04 0.26,0.02 0.26,-0.02 z m -5.0199996,-0.22 c 0.02,-0.03 0.02,-0.04 0,-0.02 -0.02,0.02 -0.07,0 -0.1,-0.03 -0.04,-0.03 -0.09,-0.06 -0.12,-0.06 -0.03,0 0,0.05 0.06,0.1 0.13,0.11 0.12,0.11 0.16,0.04 z m -1.039,-0.071 c -0.324,-0.02 -0.81,-0.18 -1.004,-0.333 -0.2,-0.153 -0.283,-0.203 -0.283,-0.172 0,0.014 0.134,0.12 0.297,0.236 0.333,0.24 0.532,0.3 0.942,0.3 0.268,0 0.27,0 0.047,-0.02 z m 0.058,-0.09 c -0.013,-0.013 -0.054,-0.015 -0.087,0 -0.03,0.014 -0.02,0.026 0.03,0.03 0.05,0 0.08,-0.01 0.06,-0.027 z m -1.536,-0.66 c -0.03,-0.05 -0.142,-0.136 -0.246,-0.193 -0.104,-0.057 -0.293,-0.2 -0.42,-0.32 -0.164,-0.153 -0.195,-0.17 -0.11,-0.063 0.068,0.087 0.136,0.19 0.15,0.24 0.016,0.05 0.134,0.137 0.263,0.197 0.13,0.06 0.26,0.14 0.28,0.17 0.08,0.09 0.14,0.07 0.08,-0.03 z m -1.57,-1.02 c -0.03,-0.012 -0.094,-0.012 -0.14,0 -0.045,0.01 -0.02,0.022 0.058,0.023 0.077,0 0.114,-0.01 0.083,-0.022 z m -0.386,-0.035 c 0,-0.012 -0.02,-0.034 -0.047,-0.05 -0.027,-0.016 -0.05,-0.007 -0.05,0.02 0,0.028 0.02,0.05 0.04,0.05 0.02,0 0.05,-0.01 0.05,-0.02 z m 0.2,-0.057 c -0.033,-0.01 -0.086,-0.01 -0.118,0 -0.032,0.015 -0.006,0.026 0.058,0.026 0.065,0 0.09,-0.01 0.06,-0.023 z m -0.64,-0.24 c -0.014,-0.022 -0.073,-0.055 -0.132,-0.07 -0.103,-0.026 -0.103,-0.024 0.01,0.06 0.117,0.09 0.175,0.095 0.123,0.01 z m -0.53,-0.31 c -0.012,-0.063 -0.054,-0.142 -0.094,-0.175 -0.064,-0.052 -0.066,-0.048 -0.022,0.034 0.028,0.05 0.062,0.13 0.076,0.174 0.038,0.13 0.065,0.1 0.04,-0.03 z m 6.026,2.656 c 0.02,-0.102 0.156,-0.117 0.156,-0.016 0,0.037 -0.04,0.076 -0.086,0.085 -0.062,0.01 -0.082,-0.007 -0.07,-0.07 z m 11.4939996,-0.036 c -0.03,-0.038 -0.05,-0.128 -0.04,-0.2 0.01,-0.104 0.037,-0.13 0.13,-0.13 0.13,0 0.267,0.196 0.22,0.32 -0.036,0.094 -0.235,0.1 -0.31,0.01 z m -0.423,-0.31 c -0.182,-0.143 -0.653,-0.37 -0.72,-0.344 -0.03,0.012 -0.108,-0.022 -0.17,-0.075 -0.087,-0.08 -0.1,-0.12 -0.064,-0.18 0.1,-0.16 0.2,-0.18 0.38,-0.08 0.3,0.17 0.45,0.24 0.65,0.33 0.13,0.05 0.21,0.12 0.22,0.19 0.06,0.24 -0.1,0.32 -0.31,0.15 z m -0.18,-0.313 c 0.057,-0.074 0.055,-0.076 -0.02,-0.018 -0.077,0.06 -0.102,0.1 -0.063,0.1 0.01,0 0.046,-0.04 0.08,-0.084 z m -0.313,-0.195 c 0.014,-0.023 0.01,-0.054 -0.013,-0.067 -0.023,-0.014 -0.04,0.006 -0.04,0.043 0,0.08 0.014,0.086 0.052,0.024 z m -0.166,-0.016 -0.102,-0.077 c -0.072,-0.055 -0.08,-0.053 -0.054,0.014 0.017,0.05 0.063,0.08 0.103,0.08 0.04,0 0.07,0 0.06,-0.01 z m -1.14,-0.506 c -0.206,-0.195 -0.346,-0.364 -0.332,-0.4 0.013,-0.034 -0.005,-0.062 -0.038,-0.062 -0.034,0 -0.137,-0.114 -0.23,-0.253 -0.092,-0.14 -0.262,-0.36 -0.376,-0.488 -0.115,-0.13 -0.223,-0.278 -0.24,-0.33 -0.02,-0.064 -0.07,-0.098 -0.144,-0.098 -0.062,0 -0.113,-0.023 -0.113,-0.052 0,-0.03 -0.09,-0.195 -0.21,-0.37 -0.11,-0.174 -0.25,-0.416 -0.29,-0.54 -0.04,-0.12 -0.17,-0.313 -0.28,-0.426 -0.11,-0.12 -0.2,-0.23 -0.2,-0.25 0,-0.07 0.16,-0.06 0.23,0.01 0.04,0.03 0.06,0.03 0.06,0.01 0,-0.03 -0.05,-0.08 -0.11,-0.12 -0.06,-0.04 -0.11,-0.1 -0.11,-0.15 0,-0.05 -0.01,-0.09 -0.03,-0.08 -0.12,0.01 -0.21,-0.03 -0.34,-0.15 -0.18,-0.18 -0.25,-0.35000002 -0.18,-0.47000004 0.07,-0.12 0.06,-0.16 -0.01,-0.1 -0.03,0.03 -0.16,0.04 -0.33,0.02 -0.23,-0.03 -0.27,-0.04 -0.25,-0.12 0.02,-0.07 0,-0.09 -0.06,-0.09 -0.06,0 -0.09,-0.03 -0.09,-0.12 0,-0.17 0.08,-0.29 0.24,-0.37 0.18,-0.09 0.29,-0.09 0.4,0.01 0.05,0.04 0.15,0.12 0.22,0.16 0.15,0.09 0.17,0.26 0.04,0.3 -0.05,0.01 -0.08,0.04 -0.07,0.06 0.01,0.02 0.07,0.01 0.12,-0.02 0.08,-0.05 0.11,-0.04 0.23,0.1 0.08,0.09 0.14,0.2 0.14,0.24 0,0.04 0.02,0.08 0.04,0.08 0.02,0 0.08,0.08 0.12,0.18000004 0.04,0.1 0.11,0.19 0.13,0.19 0.03,0 0.03,0.03 0.02,0.07 -0.02,0.04 0,0.06 0.04,0.04 0.09,-0.04 0.21,0.25 0.13,0.3 -0.04,0.03 -0.03,0.04 0.04,0.06 0.07,0.02 0.15,0.14 0.26,0.37 0.18,0.39 0.25,0.61 0.17,0.59 -0.04,-0.01 -0.06,0.01 -0.06,0.09 0,0.01 0.03,0 0.07,-0.03 0.09,-0.07 0.26,0.03 0.38,0.22 0.05,0.07 0.15,0.21 0.24,0.32 0.09,0.1 0.16,0.2 0.16,0.22 0,0.02 0.14,0.24 0.31,0.5 0.28,0.42 0.35,0.49 0.7,0.72 0.31,0.2 0.38,0.27 0.37,0.35 -0.01,0.08 -0.05,0.1 -0.19,0.11 -0.16,0.02 -0.2,-0.01 -0.53,-0.32 z m 0.443,0.128 c 0,-0.01 -0.06,-0.054 -0.13,-0.097 l -0.128,-0.08 0.11,0.09 c 0.1,0.09 0.14,0.11 0.14,0.08 z m -0.394,-0.285 c 0,-0.06 -0.01,-0.1 -0.02,-0.09 -0.012,0.01 -0.047,-0.01 -0.078,-0.05 -0.032,-0.04 -0.08,-0.06 -0.113,-0.04 -0.042,0.03 -0.022,0.07 0.07,0.17 0.073,0.08 0.133,0.14 0.136,0.14 0.004,0 0.007,-0.05 0.007,-0.11 z m -0.15,-0.08 -0.088,-0.1 0.105,0.09 c 0.1,0.08 0.127,0.12 0.09,0.12 -0.01,0 -0.057,-0.04 -0.106,-0.1 z m -0.228,-0.44 c -0.052,-0.04 -0.087,-0.09 -0.08,-0.12 0.01,-0.03 -0.016,-0.02 -0.06,0.01 -0.08,0.07 -0.063,0.11 0.058,0.13 0.044,0.01 0.088,0.04 0.097,0.07 0.01,0.03 0.03,0.04 0.048,0.02 0.018,-0.01 -0.01,-0.06 -0.062,-0.1 z m -0.377,-0.53 c 0.013,-0.01 -0.026,-0.02 -0.088,-0.02 -0.062,0 -0.103,0.02 -0.092,0.04 0.022,0.04 0.142,0.03 0.18,-0.01 z m -0.654,-0.74 c 0.015,-0.02 -0.005,-0.05 -0.04,-0.07 -0.046,-0.01 -0.06,0 -0.043,0.04 0.03,0.08 0.05,0.09 0.09,0.03 z m -0.348,-0.63 c -0.033,-0.04 -0.07,-0.06 -0.086,-0.04 -0.015,0.02 0.005,0.05 0.04,0.07 0.1,0.07 0.113,0.06 0.046,-0.02 z m -0.186,-0.331 c 0,-0.01 -0.02,-0.036 -0.047,-0.05 -0.026,-0.018 -0.047,-0.01 -0.047,0.02 0,0.03 0.02,0.05 0.047,0.05 0.026,0 0.047,-0.01 0.047,-0.02 z m -0.808,-1.1 c 0.005,-0.057 -0.022,-0.097 -0.06,-0.097 -0.082,0 -0.086,0.06 -0.01,0.13 0.03,0.03 0.057,0.06 0.06,0.06 0,0 0.006,-0.04 0.01,-0.09 z m -0.61,-0.62600004 c 0.016,-0.014 -0.002,-0.03 -0.044,-0.03 -0.04,0 -0.087,0.02 -0.1,0.04 -0.03,0.05 0.093,0.04 0.143,-0.01 z m 0.157,-0.144 c -0.07,-0.08 -0.24,-0.097 -0.24,-0.024 0,0.026 0.04,0.047 0.09,0.047 0.05,0 0.1,0.023 0.12,0.05 0.01,0.028 0.04,0.04 0.05,0.025 0.01,-0.012 0,-0.056 -0.04,-0.095 z M 1.9415374,3.3272999 c -0.047,-0.047 -0.094,-0.057 -0.137,-0.03 -0.103,0.066 -0.193,0.05 -0.37,-0.06 -0.09,-0.055 -0.22,-0.095 -0.292,-0.088 -0.13,0.012 -0.17999997,-0.104 -0.07,-0.152 0.05,-0.017 0.05,-0.024 0.01,-0.027 -0.03,-0.002 -0.07,0.018 -0.08,0.043 -0.01,0.026 -0.1,0.047 -0.17999995,0.047 -0.08,0 -0.17,-0.02 -0.18,-0.047 -0.041,-0.026 -0.161,-0.046 -0.281,-0.046 -0.19,0 -0.24,-0.02 -0.308,-0.115 -0.1,-0.15 -0.058,-0.35 0.11,-0.504 0.1,-0.09 0.17,-0.11 0.34,-0.11 0.185,0 0.23,0.02 0.292,0.13 0.094,0.16 0.097,0.28 0.006,0.28 -0.04,0 -0.07,0.02 -0.07,0.05 0,0.03 0.04,0.03 0.09,0.02 0.046,-0.01 0.1,0 0.12,0.03 0.044,0.08 0.24299995,0.06 0.27399995,-0.02 0.035,-0.09 0.165,-0.09 0.2,0 0.022,0.06 0.06,0.05 0.187,-0.07 0.13,-0.11 0.2,-0.14 0.4,-0.15 0.37,-0.01 0.42,-0.01 0.53,0.03 0.09,0.03 0.11,0.02 0.11,-0.08 v -0.13 l -0.391,0.029 c -0.21,0.018 -0.51,0.055 -0.67,0.08 -0.23,0.045 -0.33,0.04 -0.53,-0.014 -0.36999995,-0.1 -0.36299995,-0.2 0.01,-0.16 0.17,0.02 0.537,0.01 0.86,-0.03 0.417,-0.05 0.635,-0.052 0.837,-0.02 0.2,0.038 0.305,0.035 0.394,-0.005 0.21,-0.09 0.52,-0.13 0.7,-0.08 0.1,0.03 0.2,0.05 0.22,0.04 l 0.65,-0.02 c 0.52,-0.02 0.64,-0.04 0.82,-0.13 0.25,-0.12 0.74,-0.29 1.01,-0.33 0.11,-0.01 0.36,-0.08 0.58,-0.15 l 0.39,-0.12 0.21,0.18 c 0.12,0.1 0.2,0.19 0.19,0.21 -0.01,0.02 0.04,0.02 0.12,0.01 0.11,-0.02 0.13,0 0.13,0.09 0,0.08 -0.02,0.1 -0.08,0.08 -0.07,-0.02 -0.07,-0.02 0.01,0.04 0.14,0.11 0.17,0.09 0.14,-0.07 -0.03,-0.14 -0.03,-0.14 0.13,-0.11 0.29,0.07 0.47,0.25 0.37,0.38 -0.05,0.06 -0.04,0.07 0.04,0.07 0.11,0 0.18,0.09 0.12,0.14 -0.06,0.06 -0.56,-0.01 -0.55,-0.07 0.01,-0.03 -0.03,-0.04 -0.08,-0.03 -0.05,0.01 -0.09,0 -0.09,-0.02 0,-0.15 -1.06,-0.43 -1.14,-0.3 -0.02,0.03 -0.08,0.05 -0.15,0.05 -0.15,0 -0.15,-0.13 0,-0.16 0.07,-0.02 0.12,-0.05 0.12,-0.08 0,-0.02 -0.02,-0.03 -0.03,-0.02 -0.02,0.01 -0.19,0.05 -0.38,0.08 -0.21,0.04 -0.34,0.08 -0.34,0.12 0,0.05 0.04,0.05 0.18,0 0.24,-0.09 0.29,-0.08 0.29,0.02 0,0.06 -0.04,0.1 -0.16,0.12 -0.09,0.02 -0.22,0.08 -0.3,0.14 -0.14,0.12 -0.24,0.15 -0.24,0.06 0,-0.03 -0.01,-0.04 -0.05,0 -0.12,0.09 -0.57,0.19 -0.89,0.19 -0.18,0 -0.39,0.03 -0.49,0.07 -0.15,0.07 -0.21,0.07 -0.44,0.02 -0.2,-0.05 -0.26,-0.08 -0.24,-0.13 0.02,-0.05 0.01,-0.04 -0.04,0.02 -0.04,0.06 -0.11,0.08 -0.2,0.07 -0.07,-0.01 -0.16,0 -0.19,0.02 -0.03,0.02 -0.11,0.02 -0.17,0.01 -0.06,-0.02 -0.12,-0.01 -0.12,0.02 0,0.09 -0.42,0.16 -0.82,0.12 -0.36,-0.03 -0.4,-0.02 -0.55,0.08 -0.09,0.06 -0.16,0.13 -0.16,0.15 0,0.02 0.06,0.08 0.14,0.13 0.11,0.08 0.15,0.09 0.23,0.05 0.06,-0.02 0.15,-0.04 0.2,-0.04 0.06,0.01 0.14,0 0.19,-0.02 0.05,-0.02 0.14,-0.01 0.2,0.01 0.08,0.04 0.11,0.04 0.09,-0.01 -0.01,-0.03 0.04,-0.09 0.12,-0.12 0.21,-0.09 0.27,-0.02 0.17,0.2 -0.1,0.21 -0.14,0.23 -0.42,0.24 -0.13,0 -0.3,0.02 -0.38,0.04 -0.1,0.02 -0.16,0.01 -0.21,-0.04 z m -1.03499995,-0.343 c -0.015,-0.014 -0.055,-0.017 -0.09,-0.002 -0.036,0.015 -0.025,0.026 0.03,0.028 0.05,0.002 0.077,-0.01 0.06,-0.024 z m 0.52599995,-0.077 c 0,-0.08 -0.01,-0.09 -0.04,-0.036 -0.02,0.037 -0.03,0.085 -0.02,0.105 0.04,0.06 0.07,0.04 0.06,-0.07 z m -0.93999995,-0.015 c -0.021,-0.015 -0.061,-0.018 -0.091,-0.003 -0.04,0.014 -0.028,0.026 0.03,0.028 0.05,0.002 0.073,-0.01 0.06,-0.025 z m 0.09,-0.253 c 0,-0.113 -0.19,-0.113 -0.26,0 -0.05,0.094 -0.04,0.1 0.11,0.085 0.1,-0.01 0.16,-0.04 0.16,-0.085 z m 1.50999995,-0.075 c -0.01,-0.015 -0.05,-0.017 -0.09,-0.003 -0.03,0.015 -0.02,0.026 0.03,0.03 0.05,0 0.08,-0.01 0.06,-0.026 z m 2.45,-0.11 c 0,-0.025 -0.03,-0.033 -0.07,-0.02 -0.04,0.016 -0.07,0.037 -0.07,0.047 0,0.01 0.03,0.018 0.07,0.018 0.04,0 0.07,-0.02 0.07,-0.045 z m -4.22999995,-0.08 c 0,-0.045 -0.01,-0.047 -0.06,-0.01 -0.03,0.03 -0.06,0.057 -0.06,0.063 0,0.006 0.03,0.01 0.07,0.01 0.04,0 0.06,-0.028 0.06,-0.062 z m 2.73999995,0.043 c 0.01,-0.03 -0.02,-0.04 -0.07,-0.04 -0.05,0 -0.09,0.01 -0.09,0.03 0,0.02 0.03,0.03 0.07,0.03 0.04,0 0.08,-0.02 0.09,-0.04 z m 1.28,-0.1 c 0.05,-0.08 0.04,-0.08 -0.11,-0.04 -0.13,0.04 -0.14,0.05 -0.08,0.08 0.12,0.04 0.12,0.04 0.18,-0.05 z m 0.61,0.05 c -0.05,-0.01 -0.12,-0.01 -0.17,0 -0.04,0.01 -0.01,0.02 0.08,0.02 0.09,0 0.13,-0.01 0.09,-0.02 z m 0.009,-0.09 c 0,-0.01 -0.09,-0.02 -0.19,-0.02 -0.1,0 -0.19,0.01 -0.19,0.03 0,0.02 0.08,0.03 0.184,0.02 0.104,-0.01 0.19,-0.03 0.19,-0.04 z m -2.96,0 c -0.05,-0.02 -0.13,-0.02 -0.19,0 -0.06,0.01 -0.02,0.02 0.08,0.02 0.102,0 0.15,-0.01 0.105,-0.02 z m 1.65,-0.01 c 0,-0.03 -0.05,-0.04 -0.1,-0.02 -0.05,0.01 -0.095,0.03 -0.095,0.04 0,0.01 0.05,0.02 0.1,0.02 0.05,0 0.09,-0.02 0.09,-0.04 z m 1.92,-0.04 c 0.16,-0.05 0.27,-0.11 0.27,-0.14 0,-0.09 -0.01,-0.09 -0.21,0.03 -0.11,0.06 -0.25,0.1 -0.41,0.1 -0.185,0 -0.217,0.01 -0.13,0.033 0.17,0.05 0.18,0.05 0.474,-0.03 z m -2.827,0 c -0.05,-0.02 -0.12,-0.02 -0.167,0 -0.044,0.01 -0.01,0.02 0.08,0.02 0.09,0 0.13,-0.01 0.084,-0.02 z m 3.19,-0.02 c 0,-0.026 -0.03,-0.034 -0.07,-0.02 -0.04,0.015 -0.07,0.035 -0.07,0.045 0,0.01 0.03,0.02 0.07,0.02 0.04,0 0.07,-0.02 0.07,-0.046 z m -1.16,-0.03 c -0.03,-0.014 -0.09,-0.014 -0.12,0 -0.03,0.014 -0.005,0.023 0.06,0.023 0.065,0 0.09,-0.01 0.06,-0.023 z m 1.48,-0.12 c 0,-0.03 -0.03,-0.018 -0.063,0.03 -0.033,0.048 -0.08,0.063 -0.1,0.044 -0.02,-0.018 -0.02,-0.006 0,0.027 0.03,0.05 0.05,0.05 0.1,0.01 0.036,-0.03 0.065,-0.08 0.064,-0.11 z m -2.39,0.09 c -0.015,-0.015 -0.055,-0.017 -0.09,-0.003 -0.036,0.015 -0.025,0.026 0.03,0.03 0.05,0 0.077,-0.01 0.06,-0.026 z m 4.795,-0.065 c 0.014,-0.05 0.002,-0.107 -0.025,-0.124 -0.03,-0.02 -0.038,-0.01 -0.018,0.02 0.04,0.06 -0.03,0.07 -0.092,0.01 -0.027,-0.03 -0.043,-0.01 -0.043,0.07 0,0.14 0.14,0.15 0.176,0.02 z m -2.728,-0.167 c 0.05,-0.06 0.048,-0.066 -0.016,-0.04 -0.043,0.015 -0.077,0.047 -0.077,0.07 0,0.06 0.027,0.052 0.094,-0.03 z m 1.53,-0.1 c -0.044,-0.012 -0.117,-0.012 -0.162,0 -0.045,0.01 -0.008,0.02 0.08,0.02 0.092,0 0.128,-0.01 0.083,-0.02 z m 0.27,-0.062 c -0.016,-0.026 -0.064,-0.046 -0.108,-0.046 -0.068,0 -0.07,0.007 -0.01,0.046 0.093,0.06 0.155,0.06 0.118,0 z m -1.133,-0.03 c -0.033,-0.014 -0.085,-0.014 -0.117,0 -0.032,0.012 -0.006,0.023 0.058,0.023 0.064,0 0.09,-0.02 0.06,-0.03 z m 5.2819996,1.448 c -0.09,-0.035 -0.08,-0.178 0.03,-0.27 0.19,-0.173 0.7,-0.135 0.7,0.052 0,0.105 -0.18,0.25 -0.31,0.25 -0.12,0 -0.16,-0.128 -0.06,-0.225 0.07,-0.07 -0.02,-0.06 -0.12,0.02 -0.06,0.05 -0.07,0.07 -0.03,0.09 0.03,0.01 0.04,0.05 0.02,0.08 -0.04,0.06 -0.15,0.07 -0.25,0.03 z m 0.88,0 c -0.14,-0.055 -0.04,-0.257 0.18,-0.402 0.15,-0.095 0.27,-0.104 0.35,-0.025 0.07,0.074 0.07,0.27 0,0.27 -0.04,0 -0.09,0.043 -0.12,0.095 -0.08,0.118 -0.22,0.128 -0.18,0.01 0.03,-0.077 0.02,-0.077 -0.04,0 -0.07,0.085 -0.1,0.094 -0.21,0.052 z m 0.44,-0.418 c -0.02,-0.016 -0.06,-0.017 -0.09,-0.003 -0.04,0.015 -0.03,0.026 0.02,0.028 0.05,0.01 0.07,0 0.06,-0.02 z m -3.2689996,0.204 c -0.082,-0.116 -0.095,-0.25 -0.03,-0.29 0.025,-0.016 0.067,0.01 0.095,0.055 0.04,0.068 0.045,0.06 0.02,-0.046 -0.025,-0.12 -0.015,-0.13 0.09,-0.13 0.126,0 0.266,0.15 0.266,0.28 0,0.1 -0.14,0.23 -0.27,0.23 -0.05,0 -0.1299988,-0.05 -0.1699988,-0.11 z m 0.1449996,-0.01 c 0,-0.038 -0.018,-0.057 -0.04,-0.044 -0.022,0.014 -0.027,0.044 -0.012,0.068 0.037,0.06 0.052,0.055 0.052,-0.024 z m 0.156,-0.026 c 0,-0.026 0,-0.047 -0.02,-0.047 -0.01,0 -0.03,0.022 -0.05,0.047 -0.01,0.026 0,0.047 0.02,0.047 0.03,0 0.05,-0.02 0.05,-0.04 z m 0.8,0.06 c -0.23,-0.043 -0.31,-0.218 -0.16,-0.343 0.06,-0.05 0.08,-0.05 0.12,0.01 0.03,0.05 0.04,0.05 0.05,0.01 0,-0.04 0.07,-0.05 0.2,-0.04 0.24,0.02 0.32,0.06 0.32,0.17 0,0.05 -0.02,0.11 -0.06,0.14 -0.07,0.06 -0.3,0.1 -0.45,0.07 z m 0.08,-0.088 c -0.01,-0.016 -0.05,-0.017 -0.09,-0.003 -0.04,0.015 -0.02,0.026 0.03,0.028 0.05,0.01 0.08,0 0.06,-0.02 z m 0.19,-0.094 c -0.01,-0.015 -0.05,-0.017 -0.09,-0.003 -0.03,0.01 -0.02,0.02 0.03,0.02 0.05,0 0.08,-0.01 0.06,-0.03 z m 2.08,-0.38 c 0.01,-0.136 0.04,-0.22 0.07,-0.212 0.03,0.006 0.05,-0.027 0.04,-0.07 -0.02,-0.1 0.1,-0.264 0.17,-0.223 0.08,0.048 0.06,0.14 -0.05,0.288 -0.09,0.12 -0.09,0.126 0,0.053 0.12,-0.103 0.21,-0.105 0.21,-0.006 0,0.08 -0.3,0.39 -0.38,0.39 -0.02,0 -0.04,-0.097 -0.03,-0.22 z m -4.2099996,0.14 c -0.15,-0.06 -0.25,-0.246 -0.14,-0.246 0.03,0 0.04,0.025 0.02,0.054 -0.02,0.034 -0.01,0.042 0.02,0.02 0.04,-0.023 0.04,-0.058 0.01,-0.127 -0.1,-0.19 0.07,-0.296 0.29,-0.18 0.1,0.055 0.13,0.273 0.05,0.424 -0.05,0.09 -0.11,0.105 -0.23,0.055 z m 4.5499996,-0.618 c -0.07,-0.122 -0.02,-0.366 0.1,-0.428 0.05,-0.028 0.16,-0.04 0.24,-0.03 0.08,0.013 0.18,0.006 0.22,-0.015 0.04,-0.02 0.13,-0.04 0.19,-0.06 0.07,-0.01 0.17,-0.06 0.22,-0.12 0.18,-0.16 0.28,-0.1 0.2,0.12 -0.03,0.09 -0.07,0.12 -0.12,0.1 -0.04,-0.02 -0.06,0.01 -0.06,0.07 0,0.1 -0.15,0.21 -0.21,0.15 -0.02,-0.01 -0.05,0 -0.08,0.04 -0.03,0.06 -0.05,0.06 -0.12,0 -0.07,-0.07 -0.09,-0.06 -0.26,0.11 -0.21,0.21 -0.23,0.21 -0.31,0.09 z m 1.14,-0.77 c -0.12,-0.092 -0.09,-0.33400004 0.04,-0.32000004 0.05,0.006 0.07,0 0.04,-0.015 -0.09,-0.05 -0.07,-0.12 0.03,-0.12 0.07,0 0.11,0.05 0.15,0.19 0.05,0.17000004 0.04,0.20000004 -0.03,0.25000004 -0.1,0.07 -0.11,0.07 -0.22,-0.01 z m 0.23,-0.11 c -0.01,-0.015 -0.05,0 -0.08,0.03 -0.04,0.047 -0.04,0.053 0.03,0.027 0.05,-0.01 0.07,-0.04 0.06,-0.05 z"
     id="path2"
     inkscape:connector-curvature="0"
     style="fill:#cccccc;stroke:#ffffff;stroke-width:0" />
  <g
     id="layer1"
     inkscape:label="Vrstva 1"
     transform="matrix(0.00877402,0,0,0.0082661,21.748621,15.813559)">
    <circle
       transform="matrix(0.994318,0,0,0.994318,-275.5681,-427.0646)"
       id="path1306"
       style="fill:#ff1414;fill-opacity:0.78448277;stroke-width:10.19400024;stroke-miterlimit:4;stroke-dasharray:none"
       cx="340"
       cy="492.36218"
       r="62.857143" />
  </g>
</svg>
