<?xml version="1.0" encoding="UTF-8" standalone="no"?>
<svg
   xmlns:dc="http://purl.org/dc/elements/1.1/"
   xmlns:cc="http://creativecommons.org/ns#"
   xmlns:rdf="http://www.w3.org/1999/02/22-rdf-syntax-ns#"
   xmlns:svg="http://www.w3.org/2000/svg"
   xmlns="http://www.w3.org/2000/svg"
   xmlns:sodipodi="http://sodipodi.sourceforge.net/DTD/sodipodi-0.dtd"
   xmlns:inkscape="http://www.inkscape.org/namespaces/inkscape"
   version="1.1"
   id="svg23"
   sodipodi:docname="NSC.svg"
   width="396.81894"
   height="525.88422"
   inkscape:version="0.92.4 (5da689c313, 2019-01-14)">
  <metadata
     id="metadata27">
    <rdf:RDF>
      <cc:Work
         rdf:about="">
        <dc:format>image/svg+xml</dc:format>
        <dc:type
           rdf:resource="http://purl.org/dc/dcmitype/StillImage" />
        <dc:title />
      </cc:Work>
    </rdf:RDF>
  </metadata>
  <sodipodi:namedview
     pagecolor="#ffffff"
     bordercolor="#666666"
     borderopacity="1"
     objecttolerance="10"
     gridtolerance="10"
     guidetolerance="10"
     inkscape:pageopacity="0"
     inkscape:pageshadow="2"
     inkscape:window-width="958"
     inkscape:window-height="1008"
     id="namedview25"
     showgrid="false"
     fit-margin-top="0"
     fit-margin-left="0"
     fit-margin-right="0"
     fit-margin-bottom="0"
     inkscape:zoom="4.72"
     inkscape:cx="187.10255"
     inkscape:cy="79.643211"
     inkscape:window-x="953"
     inkscape:window-y="0"
     inkscape:window-maximized="0"
     inkscape:current-layer="svg23" />
  <defs
     id="defs4">
    <style
       id="style2">.land{fill:#ccc;fill-opacity:1;stroke:#fff;stroke-opacity:1;stroke-width:.5}</style>
  </defs>
  <path
     id="KR-11"
     class="land"
     d="m 132.97015,127.36568 0.575,0.33 3.8,3.816 -0.104,1.775 0.55,0.526 0.314,3.092 0.576,0.525 0.55,-0.098 2.41,-1.25 2.569,5.686 0.524,0.132 1.806,-0.722 1.206,0.492 2.386,-0.099 4.166,-2.301 3.065,-0.295 v 1.709 l 0.681,1.216 3.642,-2.072 2.987,-0.261 1.678,-1.577 -0.448,-0.56 0.421,-0.59 0.629,0.164 0.629,-0.462 1.284,-1.709 v -0.593 l -1.179,-0.493 0.393,-2.498 0.995,-0.988 1.756,-0.625 0.444,-0.526 -0.655,-2.403 -0.785,-1.152 -1.155,0.824 -2.459,0.593 -1.181,0.756 -1.178,0.164 -0.368,-0.591 -0.025,-1.185 1.44,-4.149 -1.101,-1.712 -0.078,-1.845 -0.891,-1.152 -0.106,-4.516 -0.917,-1.087 -1.178,-0.198 -2.621,0.329 -2.331,-0.526 -0.917,0.988 -1.257,0.528 -0.552,0.527 0.028,1.186 -1.101,1.055 -0.078,2.998 -1.102,0.791 -5.135,0.395 -0.838,1.054 -0.158,3.094 -0.627,0.364 -3.618,1.611 -2.409,-1.151 -1.389,-1.712 -1.259,-0.329 -1.021,2.469 -1.153,0.988 z"
     inkscape:connector-curvature="0"
     style="fill:#cccccc;fill-opacity:1;stroke:#ffffff;stroke-width:0.5;stroke-opacity:1" />
  <path
     id="KR-26"
     class="land"
     d="m 361.43015,381.68968 0.044,0.762 h 3.965 l 1.338,1.338 1.002,1.671 -0.167,1.506 -0.898,0.319 -0.603,0.768 -0.367,1.022 0.262,1.663 -0.732,2.332 -0.866,-0.063 -0.104,0.924 -0.89,0.129 0.575,0.544 1.024,-0.352 0.313,1.628 -1.415,3.034 -0.629,-0.032 -0.341,-0.479 -0.603,1.406 0.786,1.372 -0.078,0.479 h -0.446 l -0.026,1.244 -0.498,0.256 -0.313,-0.448 -0.525,0.735 -0.996,0.127 -0.575,2.203 -0.76,0.159 -0.367,0.543 -1.651,-0.607 -0.604,0.096 -0.681,0.829 -1.651,-1.083 0.105,0.797 -1.624,0.224 -0.235,0.541 0.288,0.862 -0.655,0.67 1.021,0.158 0.523,1.501 -0.13,2.614 -1.179,-0.638 h -0.708 l -0.287,0.509 -0.918,-0.19 -0.104,-1.021 -0.21,0.638 -1.938,-0.255 0.209,-1.977 -0.707,-0.447 -0.576,0.797 -1.207,0.511 -0.313,0.573 0.235,0.383 -1.625,1.722 -0.21,1.785 -0.813,0.098 0.681,1.433 -0.706,1.146 -0.917,-2.038 -0.184,-1.531 -1.074,0.191 0.916,3.855 -0.34,0.542 -0.603,-0.127 -0.158,-1.467 -0.968,-0.349 -0.289,0.668 0.629,0.16 -0.131,0.828 -1.154,-0.128 0.683,0.924 h -0.445 l -0.733,0.828 0.104,-1.752 -0.733,-0.382 -0.813,-3.314 0.551,-3.028 -0.577,-0.064 -0.341,1.722 -1.153,0.766 -0.131,-1.18 0.472,-1.594 -0.418,-0.097 -0.682,2.009 -1.258,0.734 -0.027,0.859 h -1.648 l 0.497,-3.793 0.524,-0.733 -1.05,-0.383 -0.97,4.909 -1.493,-0.51 h -2.935 l -1.493,-1.626 -0.236,0.701 -1.545,0.16 -1.152,1.308 -0.523,-0.064 -0.236,-0.828 0.76,-1.053 0.862,0.159 0.211,-0.637 -1.259,0.191 0.315,-2.32 0.2,-0.464 2.428,-1.001 4.286,-1.144 0.429,-4.998 2.286,-0.287 3.856,-2.428 4.143,-0.143 1.429,-1.572 0.857,-1.999 0.791,-0.198 0.977,-1.162 3.943,-2.476 1.832,0.316 1.029,-1.339 0.856,-2.714 1.714,-2.571 4.857,-0.571 0.572,-1.857 2.943,-2.706 z m -14.473,30.817 1.86,1.594 -0.289,1.626 1.939,1.626 -0.499,1.083 h -0.891 l -0.471,-1.18 -0.629,0.256 -0.498,-0.479 -0.078,-0.795 -1.311,-0.415 -1.808,-1.881 0.025,-0.477 0.813,-0.512 z"
     inkscape:connector-curvature="0"
     style="fill:#cccccc;fill-opacity:1;stroke:#ffffff;stroke-width:0.5;stroke-opacity:1" />
  <path
     id="KR-27"
     class="land"
     d="m 297.42815,350.38768 -0.778,1.001 -0.804,3.582 -1.077,0.593 -2.415,-0.891 -1.52,0.375 -3.483,2.491 -2.408,0.06 -0.732,-3.421 -4.049,-4.982 0.312,-2.802 1.868,0.622 1.557,1.246 h 2.179 l 0.623,-2.491 -3.113,-3.425 1.245,-3.114 1.245,-2.802 5.294,-0.934 -0.311,-1.869 -2.802,-2.179 -4.671,-0.312 0.311,-3.113 1.245,-2.803 2.18,-3.113 2.18,-0.623 1.868,-1.246 0.622,5.605 h 2.492 l 0.933,-3.113 2.492,-4.984 5.915,-1.244 2.804,-3.114 3.424,-0.935 3.113,0.312 3.738,3.114 v 4.359 l 0.623,3.113 1.868,4.048 -0.934,2.18 -3.425,1.246 -1.557,3.424 v 3.114 l -2.491,0.312 v 1.869 l 1.246,1.557 v 4.048 l -3.426,1.245 -1.557,1.868 -2.802,-0.312 -0.624,-2.801 h -3.113 l -2.179,1.245 -1.557,2.491 z"
     inkscape:connector-curvature="0"
     style="fill:#cccccc;fill-opacity:1;stroke:#ffffff;stroke-width:0.5;stroke-opacity:1" />
  <path
     id="KR-28"
     class="land"
     d="m 113.52815,124.16168 2.449,-1.982 1.688,-0.728 0.614,-1.573 1.495,-1.266 2.071,0.192 7.439,6.02 3.817,1.289 -0.132,1.251 0.576,0.33 -3.536,4.536 0.13,4.016 3.301,2.892 0.027,1.182 -0.709,0.79 -0.024,0.657 0.262,1.149 -0.943,0.821 -0.55,0.426 -0.29,1.074 -0.553,-0.164 -0.131,-0.197 -1.31,-0.229 0.472,-1.807 -0.682,-0.526 -0.262,0.065 0.603,0.493 -0.131,0.756 -0.603,0.36 -0.288,-2.2 -0.315,-0.132 0.052,2.267 0.419,0.23 -0.026,0.493 -1.965,2.266 -3.564,-0.493 -3.668,4.628 -3.197,0.033 h -0.131 l -1.258,0.098 -0.341,1.083 -0.996,-0.033 0.838,-0.263 0.524,-1.837 h 2.175 l -0.445,0.82 h 2.83 l 3.589,-4.497 -1.336,-0.427 -2.698,-2.726 -0.944,-4.271 -0.497,2.3 -1.467,-0.099 0.366,-0.821 -0.497,-0.723 0.681,-0.099 -0.472,-0.394 0.106,-0.559 -0.814,1.282 -0.969,-0.098 -0.236,-0.394 0.367,-1.38 -0.209,-0.888 0.603,-0.033 -0.34,-0.822 0.785,-1.512 2.988,-1.184 1.231,0.394 -0.76,-0.538 -0.158,-1.139 -1.048,0.987 -1.362,0.131 0.053,-1.316 -0.734,-0.394 -0.288,-0.691 0.969,0.099 -0.157,-1.25 h -0.577 l -0.051,-0.824 h -0.525 l -0.078,-0.428 0.682,-0.295 0.052,-1.415 -2.62,1.019 -0.158,0.625 -0.393,-0.395 -0.603,0.23 -2.306,2.012 2.201,-2.078 3.904,-1.613 -0.838,-1.054 -0.734,-0.131 z m -25.944002,1.613 1.756,0.89 0.078,0.362 0.865,-0.263 0.524,1.546 0.892,0.46 2.96,-0.427 -0.262,1.447 -2.044,-0.427 -1.861,0.625 -0.052,-0.559 h -0.341 l -1.021,0.954 0.367,-2.105 -1.939,-1.909 z m 19.599002,3.159 0.76,0.724 -0.026,0.461 3.564,0.986 0.55,0.921 0.838,0.394 0.42,1.842 -2.253,1.414 -1.39,-0.066 -0.602,-0.591 -0.996,1.249 -2.123,0.954 -1.729,2.235 -4.009,2.924 -1.546002,-0.197 -1.31,0.755 -0.053,-0.525 0.577,-0.328 -0.184,-1.117 -0.943,-0.657 -1.231,0.821 0.891,-0.92 -0.472,-0.723 -0.734,0.229 v 0.789 l -0.628,-0.526 -0.235,0.756 -0.524,-0.723 -1.101,-0.099 0.864,-0.624 -0.471,-0.165 0.131,-0.953 -0.551,0.065 -0.654,-0.724 -0.184,-0.689 0.418,-0.69 1.651,-0.033 3.931,-2.794 5.554002,-0.263 1.337,-0.954 0.681,-2.697 z m -9.826002,14.63 0.105,0.821 0.786,0.263 0.786,1.281 1.102002,0.525 -0.079,0.591 -0.629002,-0.066 0.577002,0.427 -0.708002,0.493 v 0.689 l -1.571,0.427 -0.944,-0.919 0.367,-1.248 -0.262,-0.689 -1.179,-0.296 0.813,-1.446 0.078,-0.985 z"
     inkscape:connector-curvature="0"
     style="fill:#cccccc;fill-opacity:1;stroke:#ffffff;stroke-width:0.5;stroke-opacity:1" />
  <path
     id="KR-29"
     class="land"
     d="m 151.04615,399.10868 -1.936,-2.335 -1.826,-0.868 -2.433,-0.086 -2.433,0.954 -1.999,1.044 -1.998,2.085 -1.478,0.087 -2.086,-0.697 -1.477,-1.389 -0.608,-2.172 -2.173,-0.087 -2.086,5.302 -2.346,-0.087 -1.738,2.085 -1.13,4.78 0.435,4.084 7.213,1.042 1.825,2.26 1.912,3.824 h 3.737 l 3.389,-1.999 h 3.823 l 1.478,-1.042 3.128,0.607 3.389,-2.346 1.39,-1.825 0.783,-1.651 0.087,-2.607 0.869,-1.826 v -1.39 l -2.086,-0.955 -2.607,-0.262 z"
     inkscape:connector-curvature="0"
     style="fill:#cccccc;fill-opacity:1;stroke:#ffffff;stroke-width:0.5;stroke-opacity:1" />
  <path
     id="KR-30"
     class="land"
     d="m 192.35215,260.44768 0.308,0.17 0.485,-0.088 0.977,-2.272 0.61,-0.646 1.383,0.18 -0.324,1.303 -0.068,0.637 0.006,0.258 2.852,-2.65 2.492,2.491 0.238,2.618 0.656,0.742 1.767,0.411 -0.317,1.624 0.77,0.209 1.245,2.181 -1.245,0.31 -1.557,1.558 -0.935,5.604 -1.245,6.228 1.166,3.738 -3.346,2.178 -2.178,2.803 -3.738,-2.18 -2.179,-3.737 v -1.869 l -0.623,-1.556 h -1.557 l 0.311,3.114 -0.623,4.981 -0.934,2.18 h -1.245 l -0.934,-3.113 -2.491,-0.935 -1.557,-2.179 -0.312,-3.425 -2.179,-1.868 -0.311,-4.048 2.18,-2.491 -0.313,-8.719 2.515,-0.579 0.911,-0.043 3.425,-1.557 0.934,-2.804 0.328,-3.278 -0.309,-0.035 -0.228,-0.318 3.946,-0.416 z"
     inkscape:connector-curvature="0"
     style="fill:#cccccc;fill-opacity:1;stroke:#ffffff;stroke-width:0.5;stroke-opacity:1" />
  <path
     id="KR-31"
     class="land"
     d="m 360.63115,345.96668 1.798,1.467 2.009,0.309 0.969,0.586 0.236,0.825 -0.424,2.836 0.286,0.771 0.73,0.334 1.971,0.649 1.423,-0.241 2.819,-1.84 1.113,-0.305 1.484,-0.011 4.878,1.729 1.758,0.423 2.89,0.409 0.694,1.45 -0.028,1.378 -0.733,0.192 -0.392,0.579 0.524,3.142 -0.603,1.057 -0.051,1.347 -0.107,0.352 -1.021,0.161 0.025,0.48 0.735,-0.385 -0.185,1.571 -1.204,0.514 0.025,0.288 0.84,-0.161 0.131,0.61 -1.259,0.607 0.183,0.449 0.945,-0.384 0.364,0.64 -0.468,-0.063 -0.552,1.249 -0.995,-0.416 0.078,0.352 -0.995,0.127 0.052,0.513 -0.525,0.48 -0.418,-0.19 -0.236,-1.476 0.392,-0.991 -0.629,-0.835 -0.523,-0.062 0.184,-1.378 -0.814,-1.571 -1.937,-2.118 -1.494,-0.479 v 0.674 l 1.388,0.481 0.917,1.186 -0.078,1.122 0.969,0.256 -0.078,0.832 0.419,0.61 -0.316,0.447 -0.523,-0.223 -1.021,0.351 -0.498,-0.446 0.524,0.703 0.968,-0.257 0.892,1.571 -0.629,0.449 -0.131,1.154 -0.655,0.223 -1.179,1.41 -0.681,-0.032 -0.498,-1.121 -1.049,-0.544 0.682,0.799 0.079,2.209 0.288,0.258 0.864,-0.321 -0.498,0.993 1.363,-0.736 -0.418,0.736 0.418,0.864 -0.314,0.385 -1.022,0.064 -0.235,0.767 0.391,1.152 h 0.708 l 0.027,0.577 -0.497,0.16 -0.289,1.408 -0.814,0.352 -0.21,0.992 0.107,0.736 0.968,0.287 0.708,1.472 -1.493,0.863 -0.552,-0.544 -0.627,0.064 -0.498,1.12 -0.603,-0.031 -0.104,0.671 -0.499,0.223 -0.313,1.088 -1.075,0.063 -0.263,1.182 -1.151,-0.127 -0.288,-0.798 -0.544,0.255 0.169,-1.507 -1.003,-1.67 -1.338,-1.338 h -3.965 l -0.044,-0.761 -1.54,-1.881 -3.082,-0.208 -2.225,-1.882 -3.424,-3.974 -3.252,-3.347 -2.396,-0.208 h -2.738 l -2.227,-1.047 -0.341,-4.815 2.225,-1.885 1.198,-1.047 v -1.465 l -1.466,-2.421 3.913,-3.082 1.657,-0.175 0.672,0.131 0.655,-0.863 -1.351,-2.475 -0.222,-1.06 0.593,-0.493 4.146,-2.574 3.107,-1.018 1.623,0.299 2.585,-0.656 z"
     inkscape:connector-curvature="0"
     style="fill:#cccccc;fill-opacity:1;stroke:#ffffff;stroke-width:0.5;stroke-opacity:1" />
  <path
     id="KR-41"
     class="land"
     d="m 79.409148,102.77068 -1.729,-1.485 -0.079,-0.595 0.838,-0.495 0.682,-1.155999 -0.158,-1.188 0.368,-1.089 1.571,-1.486 0.839,0.296 1.808,-0.296 3.039,1.75 h 1.546 l 0.839,-0.661 1.074,1.188 -1.703,2.773999 -1.965,1.188 -2.62,-0.33 -0.787,0.528 -1.441,0.066 -1.047,1.419 z m 10.585,58.152 -0.366,0.525 -0.341,-0.263 -0.209,0.426 -1.389,-0.885 -0.446,0.197 -1.518,-0.492 -0.08,-0.59 -0.812,0.165 0.209,0.753 -0.472,0.328 1.257,1.213 0.105,-0.426 0.498,0.492 0.891,-0.131 0.21,0.786 0.184,-0.426 0.418,0.033 0.419,0.557 2.07,-0.524 0.734,-1.212 -0.839,-0.525 h -0.523 z m -7.755,-43.776 -0.052,-0.988 0.498,-0.89 -0.263,-0.495 -1.52,0.066 -0.68,-0.396 -0.918,0.232 -0.079,0.593 1.389,1.482 1.861,1.021 0.551,0.758 0.34,-0.56 -0.471,-0.495 z m -11.45,45.677 -0.237,-0.557 -0.917,0.624 -0.079,-1.345 -0.393,-0.033 -0.289,-1.475 -0.603,-0.425 -0.498,0.262 0.183,0.459 -1.179,2.491 0.079,2.163 -0.603,0.884 1.257,-0.196 -0.209,-0.458 0.393,-0.329 0.394,1.278 1.152,-0.36 0.132,0.721 -0.655,0.328 0.367,0.393 1.755,-0.327 0.603,0.229 0.131,-0.524 0.892,0.098 0.052,-0.557 1.546,-1.31 -0.289,-0.295 z m 6.131,-52.103 -0.366,-0.132 -1.258,1.517 -1.047,-0.363 -1.337,0.396 0.104,0.494 1.179,0.726 1.153,-0.495 0.942,0.693 -0.078,0.791 0.472,-0.198 1.388,0.527 -0.288,-0.758 0.576,-0.692 -1.075,-1.055 z m 82.914002,-69.726999 -5.561,4.256 -1.001,1.827 -3.889,3.976 h -2.802 l -4.671,-1.869 -2.491,1.557 -2.802,1.869 -2.802,2.802 -3.425,4.982 1.868,0.934 1.869,3.737 6.295,0.289 3.358,1.89 0.623,3.114 -1.246,0.934 -0.312,1.869 -2.179,-0.623 h -2.802 l -0.312,3.736 -1.557,0.935 0.312,2.491 1.867,0.934 -0.311,6.54 -2.18,1.246 -1.557,-2.491 -1.557,-1.245 1.245,-4.36 -1.954,-2.464 -2.398,0.072 -0.318,2.703 -1.868,1.869 -3.467,-3.335 -0.74,0.107 -0.274,0.837 1.169,4.054 -0.485,1.865 3.486,0.83 1.246,0.934 3.425,4.983 -6.54,1.868 h -2.829 l -0.959,4.536 -2.997,0.176 -1.116,0.526 -1.952,1.932999 -3.555,-0.528 -2.017,-1.603999 -0.603,1.170999 -1.074,0.099 -0.681,0.693 1.1,1.749 -0.865,4.223 1.074,1.781 0.079,1.484 -0.577,1.615 1.153,0.527 -0.052,1.253 -0.708,0.461 1.677,3.031 0.969,3.294 2.362,3.095 2.449,-1.982 1.688,-0.728 0.614,-1.573 1.495,-1.266 2.071,0.192 7.439,6.02 3.816,1.29 1.152,-0.988 1.021,-2.469 1.259,0.329 1.389,1.711 2.41,1.152 3.617,-1.612 0.628,-0.363 0.158,-3.095 0.837,-1.054 5.136,-0.395 1.102,-0.791 0.077,-2.998 1.101,-1.056 -0.028,-1.186 0.552,-0.527 1.257,-0.527 0.917,-0.989 2.331,0.527 2.621,-0.33 1.178,0.198 0.917,1.087 0.106,4.516 0.891,1.152 0.078,1.845 1.102,1.712 -1.441,4.148 0.025,1.185 0.368,0.592 1.179,-0.164 1.18,-0.757 2.46,-0.593 1.154,-0.823 0.785,1.152 0.655,2.403 -0.444,0.526 -1.756,0.625 -0.995,0.988 -0.394,2.498 1.179,0.493 v 0.593 l -1.284,1.709 -0.629,0.461 -0.629,-0.164 -0.421,0.591 0.449,0.559 -1.678,1.577 -2.987,0.262 -3.642,2.071 -0.682,-1.216 v -1.708 l -3.064,0.295 -4.167,2.301 -2.385,0.099 -1.207,-0.492 -1.806,0.722 -0.524,-0.131 -2.569,-5.686 -2.41,1.25 -0.55,0.098 -0.576,-0.526 -0.314,-3.091 -0.55,-0.526 0.104,-1.775 -3.799,-3.816 -3.536,4.536 0.13,4.015 3.301,2.893 0.027,1.182 -0.709,0.79 -0.024,0.657 0.262,1.149 -0.943,0.821 -0.55,0.426 -0.29,1.074 h 0.81 l 0.418,0.591 -3.956,-0.755 -0.891,1.051 0.813,0.623 -0.393,1.511 -1.965,1.642 -0.76,-0.066 -0.471,0.689 -1.495,0.361 -0.261,0.951 0.524,0.131 0.027,0.427 -7.468,2.559 -2.934,2.231 -0.917,-0.263 0.472,0.983 -1.284,1.378 -0.577,-0.033 -0.027,-0.657 -2.279,-0.688 2.122,2.197 0.314,1.475 0.446,0.361 -0.342,2.065 -0.471,0.426 -1.101,-0.032 -0.236,0.721 0.105,0.655 1.101,0.065 0.236,0.753 h -1.206 l 0.288,0.853 -0.603,0.163 -0.471,0.917 0.393,0.263 0.55,-0.885 0.707,-0.065 1.022,1.572 0.708,-0.752 -0.209,-0.624 0.628,-1.343 0.708,-0.655 0.864,0.688 0.576,-0.065 0.498,0.852 0.368,-0.491 0.707,0.557 -0.209,-1.245 0.995,-2.064 0.262,1.638 1.992,1.245 -0.498,0.688 -0.026,1.016 0.576,0.622 0.367,-0.852 -0.184,-0.721 0.603,-0.753 -0.341,-1.638 -2.621,-1.343 -0.236,-1.441 -0.524,-0.427 0.131,-0.82 -0.942,-0.458 -1.258,0.065 -0.969,-1.344 -1.153,-0.656 1.101,-1.147 -0.078,-0.656 3.196,-2.23 6.472,-2.231 0.996,-0.066 3.511,2.789 4.848,1.804 3.092,-0.394 1.153,2.099 1.047,0.427 0.55,0.754 1.258,-0.426 -0.864,0.819 -0.131,0.95 -1.573,-2 -0.471,0.361 -1.441,-0.853 0.157,-0.918 -0.891,0.328 -0.34,0.787 0.76,0.557 0.183,0.722 -1.101,-0.557 -0.812,0.458 0.733,1.737 -0.917,0.853 0.655,0.196 -0.707,0.196 0.314,0.492 -1.834,2.653 -0.34,-0.589 -0.97,-0.295 0.577,-0.688 -0.473,-0.655 -0.131,-2.36 -2.646,0.853 -0.341,-1.082 -0.891,0.131 -2.673,-0.884 -0.891,1.114 0.158,0.721 -1.704,0.36 0.393,1.737 0.524,-0.197 0.394,0.787 -0.917,0.786 -0.026,0.951 0.969,1.539 -1.414,0.033 -1.153,1.474 1.179,2.587 -1.074,0.95 0.995,-0.033 0.499,-0.59 0.262,0.394 1.284,-0.394 0.105,0.655 0.786,-0.164 -1.337,1.833 -0.891,0.295 0.315,0.393 0.576,-0.164 0.393,0.589 0.341,1.243 -0.524,0.523 0.838,0.786 0.394,-1.604 0.89,-0.261 0.473,-0.916 0.55,-0.033 0.079,0.327 1.363,-1.014 2.069,-3.405 2.542,0.229 0.367,-0.59 0.446,0.033 0.577,-1.572 -0.027,1.212 0.682,0.196 -0.21,0.721 0.498,0.262 -2.149,1.309 4.665,0.066 0.052,0.36 -2.123,0.229 0.944,0.556 -0.026,0.459 -0.813,-0.36 -0.34,0.818 -1.021,0.491 -1.049,-0.72 -2.017,1.93 -0.184,0.916 0.708,1.8 -0.473,4.349 -0.366,0.459 -0.236,0.032 -0.944,1.438 -0.026,0.817 0.367,0.785 3.485,-0.033 0.812,0.36 0.288,2.09 -0.497,-0.196 -0.839,0.622 0.052,0.816 0.55,0.523 1.808,-0.197 1.545,0.491 1.494,2.581 0.288,1.012 -0.655,-0.359 0.498,0.915 1.912,0.783 0.446,1.861 1.939,-0.327 1.415,0.914 0.864,4.55 0.986,-0.056 0.827,-1.208 1.638,-0.809 7.535,1.758 0.832,-0.612 0.938,0.005 3.158,-1.162 3.004,-2.065 2.578,-0.084 2.982,1.423 1.335,1.794 1.945,1.582 5.085,0.697 2.758,-0.231 1.517,-0.909 1.557,-0.35 0.699,-0.44 1.701,-1.235 2.206,0.136 0.905,-1.351 0.886,-0.394 0.165,-2.104 -0.302,-1.083 1.99,-1.591 3.087,-1.411 -0.179,-0.447 0.927,-1.142 0.05,-1.035 2.334,-2.564 0.801,1.188 1.479,-0.022 -0.272,2.065 1.596,-3.218 4.293,0.78 4.048,-3.736 2.49,-0.312 0.624,-7.784 h 1.557 l 1.557,1.868 h 1.869 l 2.656,-6.632 2.643,-0.582 0.616,-7.42 -0.623,-3.425 1.557,-1.246 -0.312,-7.473 3.426,-8.095 0.311,-4.048 -1.949,-0.709 -0.785,-2.376 2.766,-3.131 0.365,-0.892 2.06,-0.701 0.793,-2.179 -1.269,-1.545 -0.38,-1.35 -2.239,0.167 -0.851,-0.786 -2.28,-0.624 -3.58,-0.12 -4.298,-3.687 -2.684,-0.324 -1.813,-1.454 -2.292,-1.02 -3.631,1.398 -1.281,-0.91 -1.354,-1.928 1.745,-3.505 0.31,-4.379 -1.552,0.552 -0.746,-0.138 -0.657,0.635 -0.627,-0.148 0.12,-2.019 2.152,-1.85 0.541,-1.222 -1.318,-3.498 0.007,-0.914 0.816,-1.042 -0.199,-1.746 -0.647,-1.195999 0.588,-1.521 2.257,-0.75 1.795,-2.061 2.613,-0.569 0.691,-0.5 0.998,-3.959 -0.816,-4.026 -1.441,-1.586 -2.009,-0.386 -2.187,-1.031 -0.083,-2.696 -0.879,-0.602 -3.212,0.341 -3.088,-1.525 -1.252,-1.59 -0.301,-1.426 -0.402,-7.5 -1.421,-1.968 -0.733,-0.092 -1.22,1.135 -0.696,-0.958 -1.393,-0.589 -1.483,0.195 -2.364,0.81 -1.213,1.404 -0.521,-0.286 -1.913,-2.173 -1.355,-0.213 -1.19,-1.191 -0.311,-1.967 0.543,-1.122 0.25,-2.223 1.09,-0.918 -1.967,-0.876 -0.566,0.04 -1.407,1.304 -1.681,2.392 -2.431,0.162 -1.64,-0.829 -0.508,-0.936 0.115,-2.247 -0.992,0.31 -0.179,-1.074 0.623,-1.868 -1.558,-1.246 -0.934,-5.294 h -4.67 v -1.868 l 1.246,-0.935 -4.728,-4.408 z m -65.699002,70.186999 -1.074,-0.791 0.026,-0.495 -2.489,-0.363 -2.097,-1.649 -0.026,-2.309 1.022,-2.079 -0.917,-0.561 -3.223,1.32 -0.079,3.399 -0.236,0.396 -1.022,-0.231 -0.262,0.396 1.861,1.714 2.725,1.45 1.022,1.451 -0.263,2.078 1.257,0.625 -0.183,0.429 h 0.734 l -0.21,-0.758 3.04,-1.978 z m 13.546002,3.594 0.21,-0.561 0.759,-0.197 -0.026,-0.461 -1.127,-0.462 -0.34,-0.89 0.786,-3.166 -0.864,-0.759 -0.289,-0.956 0.131,-1.221 0.97,-1.419 0.131,-1.088 -1.363,-1.683 0.158,-1.023 -0.498,-1.253999 -4.506,-2.939 -2.149002,-2.774 -0.995,-0.231 -0.577,0.792 -2.358,0.166 -0.838,2.014 -3.485,1.882 0.603,3.433999 -0.42,2.672 0.341,3.958 2.987,0.792 0.393,0.56 -0.235,0.792 1.362,1.318 0.446,1.912 -0.158,1.483 -0.707,0.89 -3.17,0.593 0.813,0.527 0.34,1.548 -0.708,0.461 0.131,0.33 0.418,-0.066 1.258,1.185 1.258,0.198 0.34,0.626 5.345002,0.362 0.027,-1.021 0.891,0.428 0.577,-0.922 2.2,0.988 0.943,-0.066 0.812,-1.647 1.364,-0.395 0.052,-0.56 z m -3.066,43.788 -0.917,0.131 -0.602,-0.754 -1.546,0.558 -0.393,-0.131 -0.341,0.59 0.157,0.689 -1.545002,-0.131 -0.158,1.246 -0.551,0.263 0.446,0.294 0.367,1.672 -0.498,0.164 0.158,1.705 1.885002,-0.033 0.315,0.393 -0.262,0.524 0.629,-0.065 0.445,-0.721 0.892,-0.393 -0.262,-0.853 1.519,-0.098 v -0.492 l -0.524,0.131 0.027,-0.525 -0.656,-0.426 0.734,-0.295 0.524,0.262 -0.209,-0.754 0.995,0.722 0.419,-0.426 0.262,-1.541 -0.472,-0.886 z"
     inkscape:connector-curvature="0"
     style="fill:#cccccc;fill-opacity:1;stroke:#ffffff;stroke-width:0.5;stroke-opacity:1" />
  <path
     id="KR-42"
     class="land"
     d="m 280.98115,0.35868078 1.414,2.80500002 2.149,2.737 0.576,-0.167 0.786,1.735 -0.026,0.734 -0.524,0.534 0.681,0.8 -0.078,0.5340002 1.153,1.001 -0.578,1.301 0.368,0.8 0.785,0.2 -0.156,1.467 0.995,0.767 -0.183,0.833 0.682,0.367 2.201,2.899 -0.446,0.567 -0.157,-0.301 -0.524,0.234 -0.052,1.699 3.772,5.794 1.73,1.797 -0.629,0.433 0.262,1.664 1.598,2.229 -0.027,1.464 2.307,1.995 -0.237,1.696 0.997,1.861 0.077,2.06 3.407,4.984 0.578,0.199 -0.735,0.398 -0.079,0.731 2.018,2.722 -0.917,0.996 0.498,1.858 -0.158,0.93 0.577,1.26 0.917,1.294 0.681,0.265 0.97,2.124 1.415,1.723 1.597,1.161 0.709,3.016 4.033,4.308 1.101,0.099 -0.497,1.887 3.746,6.158 1.68,1.19 -0.08,1.059 3.273,3.341 0.815,0.397 0.392,0.86 -0.471,1.62 1.86,2.644 2.515,2.379 0.236,1.454 9.484,10.003999 3.696,5.014 3.746,3.429 -0.287,2.472 -0.551,0.164 -0.524,1.055 0.158,0.956 2.383,3.228 4.482,3.688 0.366,1.81 -0.942,1.943 1.256,2.236 -0.314,0.691 1.388,1.973 -0.393,0.263 1.757,1.382 3.404,3.912 1.102,5.027 4.823,3.745 0.076,2.232 0.917,1.149 0.708,3.478 1.833,1.608 1.023,-0.098 0.472,2.525 0.629,-0.262 1.023,0.327 -0.055,0.657 0.866,0.426 -0.262,1.802 2.121,1.936 0.053,1.048 0.629,0.426 -1.468,1.114 0.708,1.769 -0.839,2.391 0.55,2.587 1.206,1.212 0.943,2.455 0.577,0.262 -0.314,1.177 0.812,0.835 -4.268,0.714 -1.867,2.179 -2.492,0.935 -2.802,2.491 -1.556,2.18 v 1.245 l 1.556,2.803 -6.521,0.161 -2.653,-2.267 -2.945,-1.029 -2.606,-0.397 -2.542,2.51 -1.006,-0.192 -3.066,-1.745 -3.341,-0.673 -1.164,-0.027 -2.176,0.742 -0.677,-1.321 -1.719,-0.682 -0.926,0.593 -1.975,3.704 -0.935,1.245 h -4.047 l -3.425,-2.803 -2.803,-1.556 -2.015,0.183 -0.646,2.311 0.104,2.396 -0.361,0.753 -0.749,0.363 -1.455,-0.952 -1.606,-0.418 -1.914,0.254 -3.076,-2.091 -1.167,-0.24 -1.734,-1.348 -0.639,-0.787 -2.13,0.26 -1.354,-0.049 -3.95,-1.274 -1.612,-0.711 -1.968,-2.197 -1.661,-0.522 -0.343,0.433 -0.936,0.422 -3.289,0.578 -0.815,-0.248 -0.313,0.593 -0.754,0.124 -0.816,-1.396 -0.179,-0.822 -1.148,-0.536 -0.466,-0.283 0.012,-1.948 0.093,-0.668 -0.962,-0.808 -1.454,0.326 -2.413,-0.187 -0.865,0.047 -1.188,1.252 -1.458,0.14 -0.504,0.518 -0.692,0.468 -2.31,-1.764 -0.66,-1.693 1.515,-1.262 1.742,-0.758 2.349,-2.723 0.105,-1.363 -0.578,-0.522 -0.975,-0.005 -1.362,0.831 -1.049,0.264 -1.709,-0.23 -1.47,-1.731 -2.12,-0.433 -1.978,-1.506 -2.451,0.588 -1.115,0.932 -0.671,1.511 -0.675,0.095 -2.969,-1.003 -1.586,1.772 -2.082,1.302 -2.129,0.367 -2.038,0.819 -0.899,-0.328 -0.337,-0.474 0.064,-3.367 -1.774,-3.299 -2.041,-0.517 -2.215,0.075 -1.495,0.942 -2.372,1.682 -0.465,0.999 0.276,2.693 0.717,1.987 -0.421,1.798 -2.039,0.792 -0.439,0.943 -0.669,0.362 -2.323,-1.151 -3.028,0.094 -1.446,1.872 -2.179,0.934 -4.048,-3.114 -0.617,-3.478 0.617,-7.42 -0.623,-3.425 1.557,-1.246 -0.311,-7.473 3.425,-8.095 0.311,-4.048 -1.948,-0.709 -0.785,-2.377 2.766,-3.13 0.364,-0.892 2.06,-0.701 0.793,-2.179 -1.269,-1.545 -0.38,-1.35 -2.239,0.167 -0.85,-0.787 -2.28,-0.623 -3.58,-0.12 -4.299,-3.686 -2.683,-0.324 -1.813,-1.454 -2.292,-1.02 -3.631,1.398 -1.281,-0.91 -1.353,-1.928 1.744,-3.505 0.31,-4.379 -1.552,0.552 -0.746,-0.138 -0.657,0.635 -0.627,-0.148 0.119,-2.019 2.153,-1.85 0.54,-1.222 -1.318,-3.498 0.007,-0.913 0.817,-1.043 -0.199,-1.746 -0.647,-1.195999 0.588,-1.522 2.257,-0.75 1.795,-2.061 2.612,-0.569 0.692,-0.501 0.997,-3.959 -0.815,-4.025 -1.441,-1.587 -2.009,-0.386 -2.187,-1.031 -0.083,-2.696 -0.88,-0.602 -3.212,0.342 -3.088,-1.525 -1.252,-1.591 -0.301,-1.426 -0.402,-7.5 -1.421,-1.968 -0.734,-0.092 -1.22,1.135 -0.696,-0.958 -1.392,-0.59 -1.483,0.196 -2.365,0.81 -1.213,1.404 -0.52,-0.286 -1.914,-2.173 -1.355,-0.213 -1.19,-1.191 -0.311,-1.966 0.544,-1.122 0.25,-2.223 1.09,-0.918 -1.967,-0.877 -0.566,0.04 -1.407,1.304 -1.681,2.391 -2.43,0.162 -1.641,-0.829 -0.507,-0.936 0.114,-2.246 -0.991,0.309 -0.179,-1.074 0.623,-1.868 -1.558,-1.246 -0.934,-5.294 h -4.67 v -1.867 l 1.245,-0.935 -4.728,-4.408 0.992,-1.17 3.042,-2.075 1.106,-0.232 2.252,0.612 3.699,-1.28 2.978,-1.774 3.409,0.524 1.598,1.191 1.498,-0.406 1.688,0.29 1.135,-0.941 2.085,0.004 1.881,-1.018 2.036,-0.107 1.967,0.824 1.245,1.068 1.57,-0.153 2.214,0.837 2.216,1.413 5.295,-3.201 2.927,-1.024 1.44,0.31 1.158,1.122 1.505,0.095 2.272,-0.503 2.658,0.669 1.953,-1.312 5.776,0.291 2.535,-1.393 0.615,0.357 0.714,1.79 2.328,2.443 2.128,-0.916 1.792,-0.191 0.817,-0.456 1.291,-1.779 6.279,1.837 1.777,-0.436 6.435,1.438 2.957,-0.459 2.974,-2.434 2.63,0.103 0.703,-0.378 2.921,-2.958 3.857,-2.443 1.287,-2.106 1.76,-1.148 3.759,-3.685 2.159,-4.593 -0.227,-1.444 1.04,-3.139 -0.526,-9.0620002 0.561,-0.742 z"
     inkscape:connector-curvature="0"
     style="fill:#cccccc;fill-opacity:1;stroke:#ffffff;stroke-width:0.5;stroke-opacity:1" />
  <path
     id="KR-43"
     class="land"
     d="m 214.14915,306.21768 -0.932,-2.795 -1.558,-3.113 -2.179,-1.868 -0.312,-2.803 1.246,-2.802 -0.311,-3.114 -1.869,-3.113 -2.793,0.265 -1.029,-0.846 -2.922,-1.073 -1.04,-3.64 1.245,-6.228 0.935,-5.604 1.556,-1.558 1.246,-0.31 -1.246,-2.181 -0.769,-0.209 0.316,-1.624 -1.766,-0.411 -0.656,-0.742 -0.238,-2.618 -2.492,-2.491 -2.852,2.65 -0.006,-0.258 0.068,-0.637 0.323,-1.303 -1.382,-0.18 -0.61,0.646 -0.977,2.272 -0.485,0.088 -0.308,-0.17 -1.243,-5.288 -3.946,0.416 -0.387,-0.541 -0.707,-0.145 -0.398,0.325 -0.578,0.781 1.862,-6.085 -1.079,-1.14 0.826,-1.819 0.093,-1.456 -3.332,-0.195 -0.45,-1.35 v -2.803 l -2.803,-3.425 2.18,-0.623 0.311,-2.802 -1.557,-2.18 4.983,-7.784 3.736,0.311 1.557,-1.868 -1.246,-3.736 -3.113,-2.18 h -2.875 l -1.077,-0.478 0.161,-1.99 -0.062,-0.42 -0.527,-0.066 -1.48,-0.707 -0.23,-2.654 -2.831,-1.914 -0.907,-2.415 2.759,-0.231 1.516,-0.909 1.557,-0.35 0.699,-0.44 1.701,-1.235 2.206,0.136 0.904,-1.351 0.886,-0.394 0.166,-2.103 -0.302,-1.083 1.99,-1.592 3.087,-1.411 -0.179,-0.446 0.927,-1.142 0.05,-1.035 2.334,-2.564 0.801,1.188 1.48,-0.021 -0.272,2.065 1.595,-3.219 4.294,0.781 4.048,-3.736 2.491,-0.312 0.623,-7.784 h 1.557 l 1.556,1.867 h 1.869 l 2.656,-6.631 2.643,-0.583 0.617,3.478 4.048,3.114 2.179,-0.934 1.445,-1.871 3.029,-0.094 1.916,1.08 1.076,-0.292 0.439,-0.942 2.038,-0.793 0.422,-1.798 -0.718,-1.987 -0.275,-2.693 0.465,-0.999 2.372,-1.682 1.495,-0.942 2.215,-0.075 2.041,0.517 1.774,3.299 -0.063,3.367 0.336,0.474 0.899,0.328 2.038,-0.819 2.129,-0.367 2.082,-1.302 1.586,-1.772 2.968,1.004 0.676,-0.095 0.67,-1.512 1.116,-0.932 2.451,-0.588 1.978,1.506 2.12,0.433 1.47,1.731 1.709,0.23 1.049,-0.264 1.362,-0.831 0.975,0.005 0.578,0.522 -0.105,1.363 -2.349,2.723 -1.742,0.758 -1.515,1.262 0.66,1.693 2.31,1.764 0.692,-0.468 0.504,-0.518 1.458,-0.14 1.188,-1.252 0.865,-0.047 2.413,0.187 1.453,-0.326 0.963,0.808 -0.093,0.668 -0.012,1.948 0.466,0.283 1.148,0.536 0.179,0.822 0.815,1.396 0.754,-0.123 0.313,-0.594 0.816,0.248 3.289,-0.578 0.936,-0.422 0.343,-0.433 1.661,0.522 1.967,2.197 1.613,0.711 3.95,1.274 1.354,0.049 2.13,-0.26 0.639,0.787 1.734,1.348 -1.271,1.28 -0.928,0.874 -0.466,-0.23 -0.927,-0.326 -0.748,0.31 -1.443,2.137 -0.829,0.47 -0.616,0.28 -3.283,3.243 -2.797,0.807 -0.784,1.24 -0.464,0.997 -3.075,1.745 -0.09,0.88 -1.482,1.47 -1.579,3.307 -0.832,1.562 -0.052,1.331 1.312,0.608 0.531,0.813 0.262,2.094 -2.838,3.89 -1.427,0.297 -2.106,0.151 -0.454,0.33 -0.923,1.028 -2.435,-0.051 -1.642,0.434 -0.546,-0.254 -1.034,-2.792 -1.454,-2.121 -3.231,-1.844 -1.179,-1.968 -1.081,1.274 -0.276,1.016 -0.308,0.751 -1.128,0.343 -0.242,2.584 -0.203,0.643 -0.365,0.565 -5.195,-1.294 -0.497,-0.441 -0.42,-0.629 -1.062,-0.376 -0.609,0.625 -1.382,1.147 -1.148,1.938 -1.375,0.189 -1.635,-1.744 -0.506,0.304 -2.704,6.328 -0.155,0.347 3.234,4.442 0.153,0.793 -1.188,0.105 -3.403,-1.013 -1.178,-0.664 -1.205,0.584 -2.186,-1.014 -1.122,-0.612 -1.166,2.334 -1.702,1.39 -1.6,1.042 -2,0.125 -0.643,0.253 -1.68,2.37 0.482,2.218 -0.446,0.698 -2.203,1.904 -0.578,0.729 -0.942,1.504 -0.812,0.045 -1.56,0.351 -0.818,1 -0.169,0.904 0.727,1.095 5.354,1.13 1.215,1.218 -0.142,0.928 0.386,1.555 0.578,0.41 1.637,0.679 0.366,0.681 -0.422,1.702 -0.124,0.559 -1.887,0.332 -0.43,1.333 0.294,3.591 -0.671,2.685 0.593,1.177 0.001,1.293 -1.28,2.012 1.313,3.247 0.494,0.306 -0.999,2.558 -2.655,2.303 -0.07,4.277 0.369,0.783 1.781,0.991 1.842,-1.07 1.158,-1.502 0.407,0.018 0.463,1.442 2.236,0.794 0.258,0.681 0.092,0.499 0.98,0.322 0.774,0.748 0.335,0.494 0.838,-0.098 1.983,-0.836 2.228,-0.787 2.016,0.695 0.619,1.068 -0.356,1.064 0.506,2.099 0.57,1.304 0.688,0.565 -0.091,0.794 -1.152,0.552 -2.466,-1.475 -2.403,1.424 -0.657,0.856 -0.523,0.88 0.081,1.186 1.093,1.767 -0.51,1.408 0.1,2.157 -1.752,1.46 0.182,0.918 -0.992,1.678 -0.226,2.034 -1.837,2.592 -0.75,0.331 -0.879,-0.665 -1.24,0.238 -3.816,3.633 -1.996,-2.217 -0.893,-0.06 -1.37,0.449 -2.724,1.613 -0.885,0.334 -0.359,0.901 -2.597,0.004 -0.154,-0.916 -1.7,-1.041 -1.171,-0.29 -2.257,-0.557 -0.662,-0.564 -1.051,-2.267 z"
     inkscape:connector-curvature="0"
     style="fill:#cccccc;fill-opacity:1;stroke:#ffffff;stroke-width:0.5;stroke-opacity:1" />
  <path
     id="KR-44"
     class="land"
     d="m 92.589148,269.97568 -0.106,0.906 -1.309,-0.615 -0.472,0.68 -0.235,-1.393 1.073,-0.745 0.026,-1.328 h 0.656 l 0.209,1.685 0.943,0.713 z m 7.257,-4.763 -0.733,0.778 1.153002,0.583 1.572,0.161 -0.157,0.939 -1.415,-0.129 -0.184,-0.615 -1.651002,-0.454 -1.624,0.032 -0.394,-0.583 -1.205,0.421 -0.655,-0.26 -0.026,-1.068 0.734,-0.551 1.44,0.486 1.075,0.906 -0.524,-1.425 0.943,-0.454 1.022,0.098 0.158,1.037 z m -5.738,-16.67 0.262,0.326 1.153,-0.034 0.812,0.941 0.21,1.104 -0.524,0.355 -0.026,0.553 1.1,-0.325 -0.156,1.818 0.863,1.427 -0.995,1.427 0.786,0.195 0.708,1.427 0.864,0.13 -0.209,0.973 0.472,1.167 -1.285,1.005 0.576,1.361 -0.838,0.13 0.209,-0.455 -0.34,-0.452 -0.498,0.291 -0.158,-1.167 h -1.206 l 0.367,-0.745 -1.913,-0.033 -0.052,0.584 -0.917,0.519 -0.498,-0.615 -0.419,0.065 -0.131,-1.006 -0.682,0.032 0.551,-1.881 -1.992,0.194 -0.445,-0.583 0.235,-0.649 -0.366,-0.973 0.759,-1.719 -1.363,0.389 0.105,-0.486 0.681,-0.292 0.288,-2.108 -0.052,-0.65 -0.603,-0.291 0.288,-0.909 -0.524,-0.195 0.315,-5.194 -1.441,-1.852 -0.209,-1.526 0.891,-0.846 0.053,-0.812 2.777,-2.112 0.42,-0.163 0.917,0.78 -0.052,1.138 0.787,0.617 -0.184,0.747 0.419,0.099 -0.053,1.136 -1.362,0.455 -0.156,0.521 1.467,0.682 0.34,1.754 -0.236,1.494 1.021,1.363 -0.104,0.584 z m 6.760002,-61.694 -2.804002,0.294 0.289,-0.981 -0.603,-1.079 0.262,-0.72 2.358002,0.393 0.524,0.817 z m 4.507,-2.55 2.018,0.719 1.546,2.256 2.201,0.36 6.787,4.051 1.599,0.392 4.742,-0.163 0.367,0.785 7.494,2.024 0.288,0.425 -0.367,0.947 1.572,2.677 -0.314,0.424 0.419,0.784 0.367,0.555 0.288,-0.327 0.471,0.163 0.525,3.362 0.942,1.076 0.027,0.555 3.563,0.652 1.704,-0.783 2.776,-0.279 0.986,-0.056 0.827,-1.208 1.638,-0.809 7.535,1.758 0.832,-0.612 0.938,0.005 3.158,-1.162 3.004,-2.065 2.578,-0.084 2.982,1.423 1.335,1.794 1.945,1.582 5.085,0.697 0.907,2.414 2.832,1.915 0.229,2.654 1.48,0.707 0.527,0.066 0.063,0.42 -0.161,1.99 1.077,0.478 h 2.875 l 3.114,2.18 1.245,3.736 -1.557,1.869 -3.737,-0.312 -4.982,7.785 -2.438,0.202 -2.555,-0.941 -2.69,-1.614 -1.48,-1.615 -2.556,-0.807 -2.69,1.076 -0.403,1.75 1.076,2.018 0.539,2.017 0.269,3.095 -0.672,2.421 0.269,3.363 0.135,3.498 v 3.094 l -1.076,2.421 0.134,2.018 1.883,2.557 2.691,1.479 1.345,3.901 0.269,2.825 -0.134,4.034 1.211,3.095 1.748,1.345 1.703,2.052 0.311,4.048 2.18,1.868 0.312,3.425 1.557,2.18 2.491,0.935 0.934,3.113 h 1.246 l 0.934,-2.18 0.623,-4.981 -0.312,-3.114 h 1.557 l 0.623,1.557 v 1.869 l 2.179,3.736 3.737,2.18 2.179,-2.803 3.345,-2.178 2.796,0.975 1.03,0.847 2.792,-0.266 1.869,3.113 0.311,3.114 -1.246,2.802 0.312,2.803 2.179,1.868 1.557,3.113 0.932,2.795 -0.309,0.329 v 2.48 l -2.803,2.804 -1.557,-1.246 -2.538,-1.202 -1.884,0.998 -1.026,0.182 -0.158,2.202 -0.934,1.868 -3.113,0.622 -3.425,-0.311 -0.623,-2.803 -0.073,-2.18 -0.605,-0.162 -3.058,1.719 h -1.245 l -1.868,-4.358 -0.347,-2.769 -2.958,-5.093 -1.131,-1.624 -2.414,2.012 -4.359,-0.311 0.624,2.49 -5.294,0.312 -1.726,-1.726 -1.116,-0.164 -1.895,1.148 -2.295,0.234 -1.472,0.718 -2.546,-0.183 -0.506,-0.806 -0.025,-1.21 -2.43,-0.192 -0.312,-3.737 -2.189,-2.006 -1.264,0.379 -3.756,-2.265 -3.677,-0.668 -2.674,2.006 -2.005,0.668 -0.003,8.425 -7.162,3.427 -4.359,1.557 -1.479,-1.356 -1.304,0.557 -0.682,-0.327 -0.314,1.032 -1.074,1.128 -4.271,-1.063 -1.127,0.612 -0.733,-0.742 0.419,-1.064 -0.472,-1.063 0.682,-0.064 0.078,-0.42 -2.253,-2.58 -1.048,0.096 -0.288,-2.807 -1.049,0.192 0.682,-1.032 0.732,0.419 1.101,-0.807 -0.079,-0.517 -1.179,0.319 0.026,-0.835 -1.048,-0.484 -0.813,0.71 -1.336,-2.939 -2.542,-2.196 -1.389,1.39 -0.131,-0.905 -0.785,-0.936 -2.621,-0.938 -1.179,0.323 -0.288,2.39 -1.075,-0.968 0.027,-2.746 0.812,0.452 1.546,-0.227 0.759,-0.97 -0.184,-2.229 1.102,-1.584 0.392,-0.033 -0.891,-4.494 0.655,-0.776 0.314,-1.747 0.708,-0.129 0.053,-0.484 -0.577,-0.972 -0.733,-0.29 0.497,-0.324 -1.179,-2.234 -0.917,0.131 -0.42,-1.619 -1.231,-1.585 0.445,-0.52 0.838,0.421 0.629,-0.81 2.227,-0.777 0.289,-0.68 0.917,-0.552 2.594,0.228 -3.249,-0.681 -4.717,-3.272 -1.781,-0.032 0.418,-3.208 0.917,-1.913 0.997,-0.228 1.388,-1.426 h 1.258 l 0.654,-1.199 0.682,0.097 0.184,-0.389 1.493,0.097 0.682,-2.757 1.258,0.714 1.441,-0.261 0.997,-1.232 -2.228,0.779 -1.441,-0.909 -0.498,0.487 -0.498,-0.585 -0.105,0.746 -2.096,1.363 -0.314,1.168 -0.787,0.064 -0.314,1.396 -2.62,1.329 0.263,-1.2 -1.232,-1.297 0.105,-1.784 -0.655,-1.006 0.235,-3.407 0.708,-0.261 0.263,-0.973 1.048,-0.876 2.148,0.811 1.284,1.526 0.76,-0.099 -1.65,-1.558 -1.755,-0.681 -0.734,-0.748 -1.494,1.267 -0.234,-1.006 -2.123,-1.884 0.654,-1.688 -0.733,-3.021 -0.996,-1.202 -3.458002,-1.397 -0.551,-0.943 -3.616,-0.584 -0.682,-0.651 -2.332,1.399 -1.573,1.526 -0.576,1.56 -0.603,-0.584 -1.572,1.852 -0.209,-0.909 -0.813,-0.813 0.656,-1.04 -0.105,-1.885 1.047,-0.748 -0.131,-3.153 -1.073,-2.31 -0.551,-0.422 -0.711,0.352 -0.917,-0.227 -0.079,-0.749 0.394,-0.358 -0.525,-0.326 -0.105,-0.715 0.105,-0.685 1.022,-0.683 -0.209,-1.433 0.289,-0.78 0.471,0.13 0.34,-0.423 -0.394,-0.749 -0.864,0.065 -0.996,1.465 -2.097,-0.098 -0.183,0.976 0.604,0.489 -0.105,0.358 -0.76,0.228 0.131,0.585 -2.306,0.23 0.132,0.652 -0.943,0.227 0.184,0.456 -0.445,0.976 -0.787,0.26 -0.315,-0.749 -0.89,0.391 -1.914,-0.292 -0.603,-2.017 0.341,-0.293 -0.551,-0.554 0.262,-0.422 1.18,-0.293 -0.288,-0.391 0.943,-0.781 1.284,0.357 1.467,1.107 0.812,0.065 0.97,-0.716 0.576,-1.205 -0.891,-0.651 -1.048,0.651 0.052,-0.651 1.207,-1.691 -1.232,0.585 -1.913,-1.074 1.022,-1.335 -0.865,0.195 -0.314,-0.423 -1.493,-0.065 -0.865,0.553 -1.546,-0.846 0.131,0.912 0.864,0.75 0.157,2.018 -2.672,2.669 h -0.419 l 0.131,-0.782 0.524,-0.292 -0.34,-1.172 1.127,-1.627 -0.393,-0.619 0.314,-0.423 -0.157,-0.293 -0.708,0.293 -0.34,-0.554 0.235,-0.684 -0.393,-0.065 0.184,-0.488 -0.813,-0.456 -0.079,-0.554 1.808,-0.358 -0.026,-1.271 0.419,0.521 1.049,-0.847 0.418,-1.565 h -0.497 l -0.237,-0.651 0.682,-0.39 -0.027,-0.554 0.656,-0.065 0.183,-1.174 -1.284,-1.206 0.917,-0.033 -0.577,-1.043 0.628,0.293 0.472,-0.75 0.079,1.076 1.022,0.064 -0.498,1.304 0.629,0.586 -0.184,1.825 0.236,0.195 0.445,-0.717 1.284,3.323 0.629,0.359 -0.525,-2.64 -0.838,-0.489 -0.262,-1.205 1.1,-0.097 -1.415,-1.565 1.127,-0.782 0.943,-1.956 -0.996,0.065 0.053,-1.207 h -0.655 l -0.079,-0.489 0.891,-0.685 -0.523,-0.685 -0.917,-0.163 0.104,-0.359 0.996,-0.293 0.446,0.522 0.419,-0.098 0.288,-0.554 -0.288,-0.327 0.681,-0.391 -0.183,-0.979 0.917,0.784 0.549,-0.816 1.546,-0.392 0.262,-0.685 0.499,0.261 0.969,-0.359 -0.445,0.686 2.673,1.305 1.022,-0.228 -0.368,-1.077 0.838,-1.306 -0.288,-3.688 -0.76,-1.437 0.419,-0.718 h 0.865 l 0.524,-0.98 0.523,-0.098 0.262,0.752 -0.445,0.816 -1.021,0.261 0.812,1.045 0.629,-0.359 0.367,0.26 -0.943,1.306 v 3.231 l 0.655,0.457 0.131,0.75 0.865,0.261 0.183,1.599 h 0.97 l -0.131,0.555 -1.231,0.032 -0.394,0.359 -0.026,0.815 -0.969,1.206 -0.031,1.012 -0.625,0.619 -0.079,1.174 2.096,0.456 -0.157,0.684 -1.912,0.946 -1.128,-0.032 -0.235,0.75 0.681,0.423 -0.209,1.303 0.498,0.62 0.524,-0.521 -0.13,-0.587 0.367,-0.259 0.262,0.521 0.314,-0.198 -0.314,-0.616 0.34,-0.424 0.76,0.424 0.864,-0.88 0.525,0.586 0.602,-0.032 0.079,-0.392 -0.943,-0.75 -0.105,-0.75 0.393,-0.424 -0.969,-0.75 1.126,-2.674 0.759,0.458 0.839,-0.164 -0.419,1.696 1.257,1.727 0.813,0.099 -0.891,-1.858 1.441,-1.239 0.026,-1.337 -0.629,-0.88 1.231,-0.717 1.939,0.26 -0.157,-1.533 0.707,0.293 0.105,-0.75 0.969,0.392 0.289,-0.489 1.101,-0.065 0.131,-0.358 -0.446,-0.556 -1.704,-0.26 0.21,-0.784 -0.551,-0.359 -0.078,-0.293 0.863,0.196 0.524,-0.523 -0.026,-1.501 -0.917,-0.425 0.051,0.458 -0.969,0.098 -0.759,0.783 -0.629,-0.554 -0.235,-1.273 -1.179,-0.261 -0.943,0.914 -0.262,-0.26 0.445,-1.078 -0.918,-0.163 -0.182,-1.143 -1.442,0.164 0.209,-1.077 h 2.464 l 0.707,1.109 0.446,-0.979 h 1.101 l 0.105,-0.36 -0.131,-0.327 -0.864,0.163 0.104,-0.718 -0.55,-0.522 -0.813,0.491 -0.183,-0.491 -2.961,-0.228 -0.314,-1.83 0.708,0.359 1.65,-0.882 0.314,-0.785 0.813,0.523 1.755,-0.359 0.341,-0.686 0.366,0.49 3.59,-0.099 2.673002,1.34 1.258,-0.653 -0.997,-1.895 0.419,0.097 2.175,-2.516 -0.525,-0.556 0.708,-1.373 h 0.498 z"
     inkscape:connector-curvature="0"
     style="fill:#cccccc;fill-opacity:1;stroke:#ffffff;stroke-width:0.5;stroke-opacity:1" />
  <path
     id="KR-45"
     class="land"
     d="m 128.85315,306.98368 1.304,-0.557 1.479,1.357 4.359,-1.557 7.162,-3.427 0.003,-8.425 2.005,-0.668 2.674,-2.006 3.677,0.668 3.756,2.265 1.264,-0.379 2.189,2.006 0.312,3.737 2.43,0.193 0.025,1.21 0.506,0.805 2.546,0.183 1.472,-0.718 2.296,-0.234 1.895,-1.149 1.116,0.164 1.726,1.726 5.294,-0.311 -0.623,-2.491 4.359,0.311 2.413,-2.012 1.132,1.624 2.959,5.093 0.346,2.768 1.869,4.359 h 1.245 l 3.058,-1.719 0.605,0.162 0.073,2.18 0.623,2.803 3.425,0.31 3.114,-0.622 0.934,-1.868 0.158,-2.201 1.025,-0.183 1.884,-0.998 2.538,1.202 1.557,1.246 2.803,-2.803 v -2.481 l 0.309,-0.329 0.785,-0.294 1.051,2.267 0.662,0.564 2.257,0.557 1.171,0.29 1.7,1.041 0.154,0.916 2.597,-0.004 0.359,-0.901 0.885,-0.334 2.724,-1.613 1.37,-0.449 0.893,0.06 1.996,2.217 2.735,-2.563 3.476,5.653 1.23,3.302 -0.272,2.761 -1.013,2.241 -2.319,1.511 -1.506,2.679 -0.537,1.933 -1.321,0.237 -1.778,1.644 -1.458,0.009 -1.822,1.146 -1.303,0.056 -0.709,-0.494 -0.442,-0.164 -0.207,0.636 -0.181,0.582 -0.668,1.205 -0.805,2.281 -3.26,3.585 -1.669,1.142 -0.78,4.811 -0.155,1.913 -0.891,0.796 -0.94,1.447 -1.901,4.932 -0.784,4.726 -1.586,3.274 0.17,2.311 2.073,0.668 0.695,0.701 -0.08,1.854 0.501,1.047 1.267,2.266 -0.685,3.334 0.69,1.924 1.629,0.427 0.099,0.544 -0.554,3.456 -3.695,3.559 -0.817,1.983 -0.337,1.157 0.55,2.863 -2.212,2.299 -0.229,0.204 -3.066,-2.639 -3.297,-1.814 -1.034,-0.917 -3.5,-1.156 -1.992,0.108 -1.751,0.983 -2.945,3.786 -0.623,0.441 -1.124,0.021 -3.187,-0.363 -2.378,0.696 -6.141,0.019 -1.124,-0.654 -1.437,-1.37 -1.927,1.12 -3.148,-1.351 -1.298,0.833 -0.962,0.897 -1.421,0.94 -1.606,0.146 -2.094,-0.538 -2.586,-1.972 0.418,-3.603 -1.008,-2.871 -1.587,0.014 -0.488,-0.681 -0.087,-0.934 1.146,-1.374 0.157,-2.503 -0.613,-1.9 -1.346,-1.038 -1.807,-0.395 -0.704,0.317 -0.979,1.784 -0.997,0.64 -0.531,2.077 -0.139,1.019 -1.021,0.694 -1.968,-0.568 -1.033,-0.895 -2.517,-4.76 -1.095,-1.128 -2.94,-1.856 -3.017,-0.605 -1.565,1.861 -1.082,-0.215 -1.524,-0.353 -2.262,0.978 -0.609,0.808 -0.183,1.178 0.149,3.09 -0.586,0.674 -1.447,0.945 -0.153,0.681 0.261,0.771 0.141,0.956 -0.765,2.009 -2.407,1.216 -3.134,0.962 -1.527,1.493 -2.07,0.708 -0.963,-0.427 -1.11,-0.24 -0.984,0.352 -1.448,1.54 -4.341,0.233 -0.375,-1.699 h -1.708 l -1.246,-4.046 -1.869,-2.18 -0.155,-2.954 -0.779,-2.651 -1.868,-1.557 -1.868,-0.622 -1.94,-0.182 0.025,-0.416 -0.445,-0.126 -0.733002,0.435 -0.734,-0.212 3.301002,-5.605 0.865,-2.563 0.629,-0.256 0.314,-1.378 0.314,-0.096 0.368,1.121 0.682,0.257 0.47,-0.448 -0.497,-0.162 0.261,-0.961 1.782,-1.154 0.996,-0.127 1.205,1.057 0.734,-1.186 1.494,-0.897 2.541,0.32 0.235,1.25 0.237,-0.994 0.837,-0.865 0.446,-1.699 0.551,0.16 -0.052,-1.221 0.497,0.355 0.943,-0.77 1.598,0.481 1.966,1.988 0.498,1.059 0.078,-0.705 -0.733,-1.668 0.34,-0.897 -0.969,-0.579 0.157,-0.673 0.445,0.385 0.551,-0.77 -1.389,0.032 v -0.513 l -0.681,-0.61 -0.681,0.096 -0.682,-0.674 -0.288,0.868 -0.707,0.191 -0.76,-0.416 -0.786,0.93 -0.681,-0.033 0.078,-0.481 -0.629,-0.448 -0.419,0.769 -1.756,-0.256 -2.331,0.545 -0.813,-0.32 -1.153,1.09 -0.917,-0.065 -0.341,-0.994 -0.575,1.059 -1.704,-0.738 -1.1,-2.021 -1.232,0.578 -0.733,-1.636 0.392,-1.379 0.656,-0.514 -0.106,-0.482 -0.732,-0.064 -0.42,-0.481 0.865,-0.323 0.025,-0.545 1.075,0.097 0.864,-1.092 1.468,-0.577 3.328,-3.565 1.834,-1.189 1.153,0.612 1.546,-1.671 0.942,-0.451 1.757,-2.89 1.309,-1.351 -0.131,-3.569 -0.577,-0.739 1.049,-1.609 1.86,0.933 4.612,-0.707 4.481,1.19 2.095,1.737 0.498,2.218 0.839,0.804 0.681,-0.643 -1.231,-0.355 0.026,-1.543 0.576,-0.739 -0.681,-2.895 -4.009,-2.122 -3.275,-2.574 -1.468,-0.29 1.442,-1.481 3.197,-1.223 3.616,0.643 0.55,-0.417 h 1.126 l 0.917,-1.127 -0.34,-0.965 0.419,-1.128 1.782,-0.547 1.126,-0.869 -0.235,-0.452 -1.39,0.515 -1.048,-0.257 -1.493,0.323 -1.651,1.642 -2.803,-0.29 -2.149,0.773 -3.249,-0.998 -1.362,1.223 -5.163,-0.29 -0.314,-3.768 0.498,-2.771 -2.069,-0.676 -2.464,0.193 -0.026,-1.096 -1.886,-1.481 0.734,-0.904 2.75,-0.161 0.656,0.388 1.492,-0.58 0.945,0.161 0.208,0.837 0.708,-0.837 0.604,0.321 5.108,-1.127 1.651,-1.225 2.882,1.127 1.1,-0.676 0.604,-1.193 0.314,-1.323 z"
     inkscape:connector-curvature="0"
     style="fill:#cccccc;fill-opacity:1;stroke:#ffffff;stroke-width:0.5;stroke-opacity:1" />
  <path
     id="KR-46"
     class="land"
     d="m 66.858148,505.80668 0.368,1.2 -0.603,-0.79 -1.231,-0.379 -0.682,1.199 -0.445,-0.41 0.236,-1.199 -0.419,0.347 -0.603,-0.283 0.472,1.041 -0.445,0.537 -0.472,-1.105 -0.472,0.221 -0.55,-0.473 -0.419,0.347 -1.022,-0.284 0.446,-0.567 -0.262,-0.537 -0.944,0.221 0.314,-0.852 0.341,-0.254 0.394,0.284 0.654,-0.758 -1.021,-0.313 0.156,-0.38 0.629,0.38 0.393,-0.38 -0.418,-0.379 0.865,-0.316 1.284,1.674 2.542,-0.38 0.786,-0.504 -0.21,1.578 0.708,1.104 z m 27.46,-23.61 -0.734,-0.474 0.052,-0.412 0.838,-0.253 -0.472,-1.14 -0.865,-0.317 -0.759,-1.266 -0.787,-0.128 0.183,-0.537 -0.785,-0.602 -0.079,-0.634 -0.917,0.318 0.629,-1.109 -1.441,0.349 -0.158,0.665 -0.838,-0.223 -1.337,-1.52 0.761,-0.664 -0.733,-1.079 -0.997,-0.093 v -0.506 l -3.17,-1.236 -1.598,0.033 -0.289,0.475 0.551,0.349 -0.394,1.648 0.996,0.22 v 0.317 l -1.493,2.913 -0.551,-0.031 -0.288,-0.634 -0.079,1.204 -0.628,-0.19 -0.604,0.603 1.101,1.201 -1.887,0.158 -0.367,1.044 0.734,0.824 -1.127,0.538 -0.498,-0.475 -0.026,-0.696 0.471,-0.887 -0.445,-0.221 -1.572,2.183 0.209,0.381 -0.367,0.79 -2.226,0.791 -0.524,0.759 -2.49,1.33 0.21,0.696 0.733,0.158 v 0.854 l -0.655,-0.569 -1.127,0.443 -1.074,1.044 0.131,0.632 -0.786,1.423 2.698,4.553 h 0.891 l 0.393,-0.824 1.049,0.033 0.289,0.791 -1.022,0.44 0.392,0.602 -0.943,1.231 h 1.651 l -0.131,-0.727 0.761,-0.221 0.917,1.611 1.31,-0.222 0.943,0.285 0.105,-0.506 2.541,-0.474 -0.655,-1.264 1.23,0.536 0.918,-0.884 0.603,0.663 0.891,-1.201 1.624,0.128 0.498,-0.603 -0.812,-0.314 0.445,-1.202 1.152,0.095 -0.025,0.696 h 0.367 l 1.571,-0.822 -0.812,-0.98 0.891,-0.379 0.104,0.601 0.707,0.096 -0.367,-1.202 1.153,0.854 -0.236,-1.804 1.389,1.74 -0.603,0.157 0.237,0.569 0.366,0.348 0.865,-0.316 -0.026,-1.675 1.179,-0.886 0.498,-1.392 1.126,-0.885 -0.708,-1.645 0.551,-0.823 0.603,-0.032 0.157,-0.822 -1.205,-0.349 0.025,-0.854 1.495,-0.411 0.576,0.854 0.315,-0.41 -0.524,-0.981 z m -41.582,-26.113 0.209,-0.506 -1.021,-0.699 0.131,-0.35 0.917,0.19 -1.258,-1.905 0.053,-1.461 1.127,0.064 0.21,-0.478 2.882,0.224 0.183,-0.666 0.629,0.19 0.341,-1.334 1.153,-0.159 0.209,-1.461 -0.472,-1.367 -0.34,-0.094 -0.183,0.445 -0.629,-0.224 -0.054,0.479 -0.813,-0.285 -0.445,0.413 0.052,0.666 -0.682,0.287 0.105,0.539 -1.231,-0.254 0.209,0.635 -1.206,0.73 -1.206,0.254 -0.969,-0.158 -0.053,-0.572 -1.022,-0.126 -0.445,0.316 -0.288,-0.316 -0.157,0.952 0.576,0.253 -0.813,0.383 -0.131,-0.541 -0.393,0.763 0.576,0.698 -0.445,0.128 v 1.048 l 0.393,-0.159 -0.707,1.079 0.025,1.175 0.603,-0.159 -0.131,0.665 0.734,0.16 0.314,0.698 1.336,0.443 0.708,-0.19 z m 77.557002,47.609 0.472,-0.096 0.471,-0.916 -0.628,-0.758 -1.441,0.031 -0.027,-1.01 -1.126,-1.454 0.026,-0.884 -0.682,-0.41 0.079,-2.813 -1.075,-1.202 -0.655,-0.095 -0.996,-1.199 -1.31,-0.096 -0.42,-0.442 -3.091,1.074 -0.97,0.886 -0.261,0.886 0.576,1.168 -0.367,0.41 0.367,2.021 -0.367,0.632 0.707,0.665 -0.498,0.883 1.965,0.412 0.524,0.915 0.655,0.094 0.445,0.79 -0.339,0.38 1.545,1.419 1.546,-0.599 2.489,1.264 -0.498,-1.77 0.314,-0.314 1.18,1.483 1.231,-0.095 0.76,0.632 0.786,-0.032 -0.471,-0.884 -0.76,-0.379 z m -70.640002,-44.91 -0.314,-0.604 -0.865,0.159 -1.467,-1.428 -1.258,-0.316 -0.471,-0.73 -0.053,-1.396 -0.446,-0.255 -0.157,1.81 -1.231,-0.063 0.261,1.396 -0.366,0.603 -0.97,-0.57 0.262,-0.604 -2.095,0.444 -0.21,2.951 0.603,1.649 0.733,-0.287 -0.078,-0.57 0.471,0.063 0.289,0.667 -0.34,0.443 0.838,0.508 v -0.476 l 0.733,0.095 0.027,-0.666 0.524,0.031 0.288,0.444 -0.524,0.604 0.13,0.506 0.97,0.317 1.494,-0.666 0.026,-1.078 1.493,-1.015 0.157,-1.047 1.074,0.285 0.132,-1.204 z m 62.780002,59.515 0.549,-0.724 -1.624,-1.576 -1.729,-0.569 -0.655,1.545 -0.891,-0.094 0.786,0.346 -0.576,0.411 0.576,0.409 0.446,-0.472 0.576,1.355 -1.127,0.945 -0.471,1.261 -0.471,-0.095 -0.236,0.503 0.55,0.475 -0.367,0.63 0.655,0.504 0.052,1.135 1.048,-1.009 0.315,0.221 -0.131,1.607 0.997,0.471 0.89,-1.038 -0.366,-0.663 0.602,-0.566 -0.367,-1.386 0.289,-0.222 0.813,0.6 0.262,-1.071 -0.419,-0.284 -0.891,0.251 -0.052,-1.417 -1.153,-0.378 0.131,-0.852 z m -5.948,-4.572 -0.786,-0.408 0.026,-0.601 -1.362,-0.348 -0.76,0.348 -0.628,-0.536 -0.524,0.726 -0.472,-1.388 -1.415,0.063 0.708,0.472 0.053,0.537 0.472,0.063 v 0.599 l -0.891,0.096 -0.263,0.756 0.314,0.222 0.289,-0.537 0.367,0.315 -0.472,0.632 -0.655,0.031 0.551,0.315 -0.604,0.599 0.445,0.347 -0.917,0.41 1.598,0.41 -0.053,1.166 2.568,0.536 -1.336,-1.544 0.314,-0.38 1.677,-0.125 -0.104,0.914 1.624,0.189 0.262,-0.222 -0.236,-0.724 -0.996,-1.198 h 1.809 l 0.262,-0.632 -0.577,-0.283 z m -0.551,6.086 -0.367,-0.535 -2.306,-0.411 -0.655,0.441 0.053,0.568 -0.393,-0.252 -0.105,-0.852 -1.389,0.284 -0.027,-0.725 -1.519,-0.884 -1.598,1.292 -0.577,0.032 -0.027,0.567 -1.074,0.599 0.472,0.851 -0.551,0.727 0.524,0.282 -0.524,0.599 0.839,1.954 0.629,-0.441 0.759,0.505 3.301,-1.607 0.394,-1.04 0.969,-0.031 -0.236,-0.504 0.655,-0.41 -0.183,-0.63 0.786,0.156 0.341,-0.756 1.152,2.019 0.054,-1.672 1.231,1.387 0.708,-0.945 -0.237,-0.914 z m -55.757002,-48.73 -0.445,0.539 0.104,0.728 0.603,0.508 -0.262,1.172 0.97,-0.126 -0.184,-0.855 0.577,0.095 0.158,-0.538 0.603,0.98 0.759,-0.569 0.603,0.539 -0.079,-0.349 0.524,-0.126 -0.184,-0.476 0.55,-0.697 -0.419,-1.109 -0.708,0.634 0.236,-1.996 -1.44,0.444 -0.315,-0.35 0.21,-0.602 -0.472,0.285 -0.262,-0.602 0.026,-0.918 0.655,-0.349 0.105,-0.857 -1.048,0.253 0.157,-0.791 -0.471,0.349 -0.943,-0.381 -0.446,0.476 0.603,1.428 -0.55,1.298 0.314,0.57 -0.289,0.667 0.813,-0.444 0.601,0.571 -0.261,0.696 z m 24.053,-31.291 -0.341,-1.018 -0.236,1.335 -0.523,0.479 -2.07,-0.383 -0.734,-0.509 -0.471,1.812 1.231,0.096 1.206,0.826 0.865,0.095 1.571,-1.875 1.337,0.064 0.34,0.412 1.467,-0.126 0.368,0.857 0.444,-0.604 0.839,0.031 0.628,0.731 -0.052,0.541 0.708,-0.287 0.104,0.922 -0.472,0.096 -0.235,0.763 -0.996,0.222 0.445,0.668 1.756,0.539 0.183,-0.952 0.314,0.413 1.18,-0.636 -0.445,-1.939 0.786,-0.159 -0.289,-1.589 -1.073,0.446 -0.42,-0.764 0.551,-0.19 -0.104,-0.317 -1.939,-0.096 -1.179,0.413 -0.969,-0.826 1.021,-0.478 -1.074,-0.73 0.367,-0.477 0.786,0.286 0.053,-1.241 0.681,0.541 0.367,-0.731 0.577,-0.159 0.576,0.858 0.209,-0.35 -0.026,-0.986 -1.048,-0.35 -0.393,-0.891 -1.231,-0.287 -0.289,0.542 -0.734,-0.063 -0.654,-1.399 -0.656,-0.255 -1.571,1.049 -0.131,0.319 1.309,0.985 0.892,1.654 -1.023,0.636 -0.654,-0.668 -0.524,0.063 -0.209,1.622 0.707,0.636 -0.289,0.571 z m -14.699,17.024 0.838,-1.334 1.415,-0.126 -0.315,0.729 0.813,0.412 0.131,1.874 0.76,-0.445 1.126,0.571 0.891,-0.697 -0.157,-1.206 0.445,-0.572 -0.628,-2.411 -1.258,-0.795 0.079,-0.856 -1.781,0.667 -0.997,-0.763 -0.708,-1.46 -1.729,0.538 -1.808,-0.92 0.052,0.89 -0.393,0.317 h -0.473 v -0.571 l -0.811,0.284 -0.63,-0.252 0.263,0.412 0.995,0.159 0.446,1.428 -0.708,0.509 -0.394,1.333 0.236,0.285 1.048,-1.079 0.997,-0.126 0.104,1.015 0.655,-0.285 -0.367,1.872 1.179,-0.158 -0.13,0.412 z m 7.782,8.245 -1.52,0.54 -0.183,-0.697 0.498,-0.824 -0.603,-0.73 -0.629,0.127 v -0.791 l -0.995,-0.065 -0.21,-0.665 -0.603,-0.222 -0.97,0.316 -0.629,1.554 -0.786,-0.57 -0.314,0.952 -1.179,0.095 0.262,1.015 0.996,-0.634 0.576,0.729 -0.445,1.204 -0.603,0.412 0.445,0.604 -0.367,0.76 0.629,0.254 0.786,-0.635 1.258,0.063 -0.053,-0.665 0.524,-0.285 h 0.97 l 0.21,0.603 0.498,-0.033 0.629,-1.044 1.52,-0.159 0.368,-0.412 z m -3.276,-50.385 -0.471,1.881 0.577,-0.796 0.131,0.7 0.969,-0.287 -0.549,0.765 1.886,0.383 -0.026,-0.478 0.445,-0.128 0.839,1.052 1.78,-0.159 0.97,0.605 -0.419,1.655 0.917,0.191 0.865,1.593 0.838,0.352 0.577,-0.225 0.969,-1.911 -1.152,-0.732 -0.394,-2.421 -1.414,-0.989 -0.052,-1.209 0.55,-1.53 -0.524,-0.64 -1.388,0.894 -0.394,-1.052 -0.734,-0.224 -1.231,0.574 0.105,-0.669 -1.101,-0.574 -0.367,0.351 -0.681,-0.127 -0.315,0.7 -0.838,-0.159 -1.127,0.829 -0.079,1.084 z m -7.965,25.624 -0.629,0.954 -1.572,0.286 1.678,2.542 1.362,1.303 0.523,1.017 -0.156,1.05 2.2,-0.351 0.498,-1.398 -0.917,-1.651 0.681,-0.541 0.105,-0.604 1.126,0.509 1.598,-1.239 -1.022,-1.081 -0.708,-0.031 -0.026,-0.795 0.551,-0.317 1.284,0.38 0.603,-0.793 -0.394,-0.511 -0.445,0.224 -0.551,-1.525 -0.471,0.764 -0.681,-0.604 -0.707,0.126 -0.813,-0.412 -0.577,0.381 0.551,0.795 -0.551,0.444 0.157,0.541 0.891,0.73 -0.498,0.923 -2.123,-0.636 -0.34,-0.636 z m 1.52,-16.225 0.708,0.509 1.44,-0.031 0.236,-0.478 0.944,-0.127 0.759,0.445 1.834,-0.031 0.708,-1.146 -0.524,-0.192 0.446,-0.54 -0.367,-0.415 -2.83,-0.987 -0.576,0.033 -0.236,0.986 -0.864,-0.063 -0.655,1.529 -0.55,-0.319 z m -10.848,15.303 -0.524,0.382 0.603,0.191 0.445,-0.35 0.577,0.444 0.366,-0.508 0.97,0.793 0.472,-0.603 1.755,0.571 1.048,1.845 0.367,-0.382 -0.55,-1.399 0.76,-0.222 0.209,0.762 1.44,-0.445 -0.524,-0.57 0.184,-0.224 1.966,0.096 -0.604,-1.431 1.914,-0.922 0.052,-0.572 -1.021,-0.127 -0.471,-0.796 1.518,-1.399 -1.414,-0.224 -0.079,-0.413 0.655,-0.285 0.131,-0.509 -1.231,0.286 -0.315,-0.51 0.42,-0.795 -2.097,-0.859 0.393,2.164 -0.576,0.954 -1.021,0.19 -0.419,-1.112 -0.55,0.031 0.313,0.478 -0.419,0.699 -1.101,0.159 -0.708,-0.509 -0.052,0.954 -0.89,1.622 -0.525,0.35 -0.497,-0.223 0.288,0.764 -0.524,0.729 -0.996,-0.286 -1.125,0.32 -0.027,0.476 1.101,-0.316 z m 6.236,-22.184 0.865,-0.382 -0.053,0.894 0.655,0.125 -0.419,-1.369 1.573,-0.256 -0.262,1.147 0.262,0.446 0.811,0.064 0.105,0.382 0.813,-0.127 0.079,0.573 0.549,0.063 -0.051,-0.51 h 0.471 l -0.393,-1.052 1.52,0.097 -0.681,-0.702 -0.131,-0.827 0.603,0.317 0.628,-0.542 -0.157,-0.478 -1.335,-0.51 -0.289,-0.767 0.315,-1.497 0.55,-0.383 0.628,0.352 -0.184,-1.467 0.499,-1.628 0.366,-0.541 1.729,-0.193 0.262,-0.636 1.468,-0.288 -1.284,-0.224 -2.777,0.733 -0.577,-0.285 0.236,0.541 -0.341,0.543 -2.804,2.966 -1.336,0.67 -1.86,-0.098 0.183,1.085 -0.865,1.18 1.572,0.924 -0.315,0.861 -1.677,-0.255 v 0.541 l 0.498,-0.159 z m -56.1240002,41.779 -0.839,0.381 -0.314,1.015 h -0.682 l -0.654,-0.729 1.283,-1.048 -2.489,0.128 -0.603,0.443 0.053,1.237 -1.075,1.017 -0.026,1.236 -0.96999999,0.665 0.235,0.73 0.83899999,0.284 -0.053,0.316 -1.17899999,0.285 0.94299999,1.65 1.572,0.568 -0.079,-1.679 0.603,-0.158 0.027,-0.444 0.995,-0.094 -0.55,-1.587 h 1.231 l 0.314,-0.285 0.34,-0.19 0.236,-2.061 0.97,-0.509 0.34,0.571 0.55,-0.697 -0.235,-0.762 -0.498,0.063 z m 138.2940022,57.94 -0.813,0.504 -0.394,-0.157 0.42,-0.347 0.079,-0.853 -0.787,-0.882 0.787,-0.441 -0.079,-0.758 -1.572,0.031 -0.315,-0.567 -0.68,0.063 -0.289,0.567 -0.891,0.221 -0.183,0.821 -1.179,0.313 0.472,0.442 -0.917,1.103 0.472,0.979 -0.786,-0.158 -0.209,0.504 0.34,0.695 0.445,-0.506 0.367,0.348 -0.996,0.882 0.576,0.189 -0.21,0.505 0.341,0.692 0.314,-1.292 0.865,-0.473 1.179,1.261 -0.079,0.598 1.782,-0.692 0.786,0.599 1.022,-0.913 0.603,-2.522 z m 79.915,-80.269 0.865,0.605 0.838,-0.034 -0.131,-3.434 -1.703,-1.686 -2.699,-0.064 0.262,-1.718 -0.786,-0.636 -1.441,1.559 -0.131,0.636 -0.995,0.383 0.053,2.004 5.345,1.208 0.497,0.699 0.157,-1.877 -0.445,-0.285 v -0.541 l 0.942,-0.35 0.789,1.533 0.153,2.377 -1.256,-0.315 z m -0.236,34.06 0.498,0.632 0.997,-0.157 0.891,0.539 1.546,-0.603 0.157,-0.855 -1.86,-1.236 0.393,-0.412 -0.078,-1.743 0.838,-0.348 -0.183,-2.886 0.786,-0.286 -0.052,-0.443 -1.022,0.127 -0.184,-0.507 0.733,-0.223 -0.576,-0.063 -0.235,-0.634 -0.734,0.317 -0.786,-1.237 0.445,-0.698 -0.157,-1.174 -0.445,-0.159 -0.839,0.508 -0.656,-1.077 0.577,-0.761 0.838,0.665 0.445,-0.794 0.184,0.445 -0.472,0.634 0.813,-0.127 0.104,0.443 h 0.393 l -0.235,-1.997 -4.035,-1.969 -0.472,0.032 -0.262,0.604 0.472,0.158 0.472,1.491 1.126,0.159 -0.419,1.776 0.236,0.762 1.441,0.697 -1.782,0.317 -0.524,0.73 0.027,0.729 -1.755,1.459 -0.524,0.032 -0.576,1.426 0.655,0.951 -1.336,1.521 0.89,0.952 1.651,0.221 -0.025,0.762 1.179,1.394 z m -6.051,-14.873 -1.31,-1.111 -0.787,-0.158 0.341,-0.667 -0.97,-0.95 -0.786,-0.129 0.052,-0.729 -0.603,0.159 0.183,1.015 -0.786,0.382 -1.047,2.729 -0.419,-0.063 0.708,1.441 -1.546,-0.553 v -0.825 l -0.34,0.223 -0.079,1.08 -0.262,-0.256 -0.472,0.256 0.052,0.506 1.258,0.763 -0.42,1.015 0.708,0.476 0.681,-0.127 -0.708,0.539 -0.838,-0.19 v 0.317 l 0.708,0.35 0.603,1.87 -0.655,0.508 0.628,0.665 0.314,-0.349 0.367,0.191 -0.209,0.791 -0.996,0.666 1.022,0.032 0.419,1.142 -0.813,0.159 -0.235,-0.762 -0.943,0.316 0.184,-0.349 -1.153,-1.269 -2.411,-0.981 -1.206,0.38 0.708,2.188 -0.262,-0.033 -1.441,-2.727 -0.577,-0.57 -0.551,0.063 -0.209,-0.855 0.341,-0.54 0.629,-0.03 0.208,-0.604 -1.1,-0.349 0.053,-1.587 0.629,-0.063 -0.289,-0.285 0.524,-0.413 1.336,0.19 0.158,-0.317 -0.498,-0.285 -0.785,0.222 v -0.825 l -1.022,0.953 0.366,-1.524 -0.759,0.382 -0.053,-0.286 0.236,-0.73 1.232,-0.539 -0.236,-0.92 0.629,0.475 1.047,-0.569 -0.079,-0.699 0.551,-0.032 -0.131,-0.697 1.913,0.063 -1.101,-0.698 -0.708,0.097 0.629,-0.826 -0.681,-1.334 -0.341,0.89 -0.654,0.189 -0.026,-1.587 -1.285,-0.381 1.206,-0.255 0.157,-0.477 -0.393,0.033 -0.209,-0.921 -0.761,-0.541 -0.131,-1.302 -1.1,-0.35 -0.21,0.54 -0.601,-0.032 -1.207,-0.382 0.184,-1.619 1.153,-0.985 0.445,-1.176 -0.97,0.127 -0.681,-0.382 -0.786,-4.005 -1.231,0.604 -1.31,0.097 0.184,3.051 -0.604,0.763 -1.78,-0.539 -0.525,0.477 -0.995,0.095 -0.158,0.478 -0.655,-0.128 -0.052,-1.398 -0.419,0.031 -0.42,1.367 -3.353,1.334 -1.284,-1.334 -2.332,-0.096 -0.052,0.349 0.76,0.414 1.52,0.414 0.917,1.46 0.524,-0.285 1.65,0.509 0.917,-0.413 0.262,0.222 -1.493,1.303 -1.598,0.699 -0.708,1.08 -0.079,0.92 -1.939,-0.095 0.314,0.317 2.227,0.128 0.891,0.793 -0.393,1.238 -1.651,0.794 -0.733,1.078 1.545,3.396 0.787,0.636 0.393,-0.159 0.523,0.382 v 0.539 l 1.573,0.888 0.209,0.952 0.602,0.381 -0.445,0.697 0.838,-0.443 0.996,0.475 -0.235,1.364 1.205,-0.824 -0.053,0.824 0.944,0.095 -0.471,-1.078 1.467,-0.126 -0.026,0.855 -0.419,0.064 0.052,1.078 1.545,0.507 -0.026,0.889 -1.179,-0.666 -0.341,0.823 -0.55,-0.127 -0.367,-0.824 -0.471,0.444 0.838,0.919 2.777,0.603 -0.262,0.698 0.419,0.665 -0.183,0.507 0.864,1.142 -0.026,1.235 -1.704,1.425 -0.052,0.982 -0.55,-0.538 -0.472,-0.126 -0.366,0.569 -1.049,-0.697 v -1.204 l -0.394,-0.063 -0.052,0.887 -1.179,0.792 -0.996,-0.57 v -0.736 l -1.466,0.634 -0.367,-0.222 0.131,-0.475 -0.682,-0.223 -1.415,0.54 -2.542,0.031 0.052,0.665 2.358,-0.189 0.236,0.95 1.31,-0.793 -0.393,1.363 -0.628,0.569 -1.572,-0.189 -0.183,1.077 1.965,-0.57 1.073,0.444 1.18,-0.065 -0.629,0.569 1.363,-0.314 0.629,0.569 -0.603,0.761 0.419,0.948 -0.63,-0.284 -0.235,0.761 -0.393,-0.033 0.733,1.204 -0.289,0.285 0.184,0.696 -1.257,-0.823 -0.813,-0.064 -0.471,0.634 0.367,0.127 -0.236,0.918 h -1.049 l -0.367,-0.602 -1.048,0.728 1.126,1.424 -0.236,0.918 -0.288,-0.379 -0.472,0.349 -0.131,-0.444 -0.445,0.855 -0.394,-0.064 -0.209,-0.728 -1.127,-0.57 -0.471,1.614 -0.314,-0.063 0.184,-0.631 -0.499,0.031 -1.074,0.917 -0.577,-0.095 1.127,1.012 -0.367,0.443 -0.838,-0.728 -0.472,0.474 1.232,0.761 v 0.378 l 0.445,-0.189 0.261,1.013 -1.125,0.822 -0.996,-0.063 -0.681,-0.917 -0.524,0.127 0.026,-0.633 1.1,0.03 -0.708,-0.979 -0.393,0.441 -0.105,-0.664 -0.682,0.189 0.341,-0.854 -0.812,-0.03 -0.577,-0.76 -1.65,-0.443 0.444,-1.297 0.97,-0.633 -2.751,-2.627 -0.969,0.031 -0.026,0.728 -1.179,-0.379 0.209,-0.792 -1.153,-0.982 -0.656,-0.063 -0.576,-1.044 0.08,2.596 -0.892,-0.475 -0.393,-0.855 -1.127,0.063 -0.105,-0.443 -0.786,0.917 -0.053,0.823 -0.498,-0.664 -2.934,0.35 -1.467,-0.793 0.078,-1.234 -0.943,-0.634 0.471,-1.932 1.126,-1.108 0.577,0.032 -0.183,-0.634 1.101,-0.697 -0.237,-0.664 0.577,-1.205 0.209,0.792 0.734,0.284 1.232,-0.379 -0.367,-0.92 0.419,-0.253 v -2.409 l 2.542,-2.535 2.673,-0.667 0.419,-2.473 1.101,-1.078 -0.708,-0.855 0.314,-0.795 1.153,-0.539 1.074,-1.428 0.681,0.538 0.42,-0.854 0.549,0.063 -0.078,2.251 0.499,0.032 0.078,0.477 -0.733,2.409 0.759,0.794 2.673,0.254 0.654,-1.142 -0.366,-0.824 0.942,-1.047 0.472,-1.903 1.126,-0.35 -0.104,-0.508 -1.048,-0.031 -0.629,-4.158 -1.257,-0.127 -0.786,0.38 -1.127,2.19 -0.446,-0.603 -1.52,-0.635 -0.76,1.143 -0.786,-0.761 -0.942,-2.541 -1.546,0.35 -1.729,2.158 -0.341,2.254 -0.786,1.364 -0.707,0.286 -0.681,1.174 -3.852,0.128 -0.681,-0.983 -0.628,-0.224 -1.363,1.237 -0.445,1.491 -1.127,0.919 -2.935,1.079 -0.419,0.475 0.157,0.699 -0.628,0.284 -0.891,1.49 -0.864,-0.064 -1.887,1.332 -3.327,-0.38 -1.992,0.316 0.839,0.539 0.654,-0.443 1.547,0.158 -0.027,0.952 1.39,0.759 -0.027,0.349 -0.996,0.096 0.131,0.761 -0.577,0.443 -0.209,1.362 -1.074,0.95 0.943,0.696 1.625,-0.316 -0.131,1.488 -0.262,0.286 -0.498,-0.888 -0.838,0.127 0.026,2.471 -1.546,-0.381 -1.153,1.299 0.236,0.729 1.415,1.298 -0.026,0.506 h -0.918 l -0.366,1.552 1.179,0.822 0.314,1.266 -0.733,0.285 -0.367,-0.317 -0.943,0.854 -1.389,-1.582 -0.576,0.823 0.367,1.581 0.604,0.729 -0.84,1.044 -1.047,-0.032 -0.603,-0.759 -4.717,-0.189 1.521,2.467 -0.158,1.453 -1.205,-1.802 -1.546,-0.506 -1.048,-1.075 -0.629,-0.189 -0.812,0.601 -1.101,-0.063 -1.284,-0.918 0.289,-1.392 -2.043,-0.063 0.078,-0.854 0.943,-0.379 -0.734,-3.134 0.263,-0.379 -0.472,-0.317 0.472,-1.584 -0.105,-1.582 0.683,-0.76 h -0.525 l -0.131,-0.507 -0.157,-0.887 0.576,-0.824 -0.864,-1.013 0.235,-1.172 -1.021,-0.919 0.367,-0.381 -0.367,-2.408 0.498,-1.584 0.655,-0.604 -0.314,-0.189 -0.681,1.966 -0.865,0.761 -0.603,9.406 0.55,0.635 -0.969,0.253 -0.079,0.412 0.262,2.215 0.419,0.412 -0.656,0.315 0.105,0.54 -0.682,-0.097 -1.31,0.791 0.786,1.551 -2.201,3.29 -0.55,-0.38 -0.839,0.791 -0.969,-0.127 -1.704,1.613 -0.628,-0.191 0.366,0.799 -0.445,0.151 -0.812,-0.822 -0.603,0.695 -0.76,-0.22 -0.524,1.485 -0.969,-0.254 -0.55,1.043 -0.55,-0.569 -0.602,0.791 0.496,0.568 -0.942,1.169 0.287,0.76 0.551,-0.031 -0.053,2.339 -1.703,1.072 0.603,0.507 -0.787,1.011 0.289,0.758 -0.209,1.104 0.445,0.505 -0.813,0.317 -0.996,-0.885 -2.462,-0.284 -1.494,2.21 -1.441,0.253 -0.341,1.01 -0.865,-0.315 0.262,-2.209 -0.655,-0.538 1.388,-1.674 -0.603,-1.138 v -1.926 l -1.44,-0.633 -0.551,0.728 h -0.838 l -1.126,1.137 -0.655,0.158 -0.001,-0.632 -0.602,-0.443 -0.079,-0.537 0.393,-0.125 0.917,0.853 0.21,-0.348 -0.42,-0.663 0.97,0.094 -0.838,-0.663 0.368,-0.694 -0.735,-0.127 -0.052,-0.728 2.384,-0.411 -1.127,-1.58 0.289,-0.474 -0.236,-0.38 1.52,0.475 0.157,0.442 1.074,-1.645 -0.734,-1.264 0.498,-0.854 -0.471,-0.696 -1.126,0.917 -0.472,-0.378 -0.813,0.094 v 0.98 l -0.707,-0.222 -0.656,-1.297 -1.258,-0.917 -0.104,-0.38 0.943,-0.474 0.602,0.759 0.524,-0.285 -0.76,-0.727 -0.052,-0.603 0.629,-0.347 -0.418,-0.697 -0.629,0.254 -0.735,-0.949 0.027,-0.569 0.969,-0.157 -0.917,-2.058 1.336,-0.823 -0.786,-1.361 -1.913,-0.157 0.131,-0.569 1.021,-0.191 1.049,-0.919 -0.315,-0.823 -0.97,0.191 -0.078,0.505 -0.995002,-0.063 -0.027,-1.583 -2.279,-0.792 0.209,1.204 -1.494,0.252 0.026,0.952 -1.441,0.695 -0.786,-0.792 0.917,-1.107 v -1.235 l -2.202,-0.095 -2.855,-1.426 -1.992,0.696 -0.943,-1.14 0.865,-1.014 -3.171,-1.173 0.524,-0.982 -0.446,-0.602 0.314,-1.015 -0.288,-0.349 1.231,-1.014 -0.419,-0.57 -0.446,0.633 -1.179,-0.285 -1.179,-1.142 -0.393,-2.789 0.393,-0.635 -0.445,-0.761 0.76,-0.697 -0.446,-1.079 0.289,-1.364 0.576,0.443 0.682,-1.109 v -1.747 l 1.056,-3.392 1.311,-0.54 1.048,0.984 -0.315,0.729 1.258,-0.126 -0.289,0.761 0.917,0.509 0.367,1.968 0.838,0.254 0.918,1.142 0.025,0.635 -1.572,0.667 -0.236,1.935 0.394,0.824 -0.708,0.984 0.209,0.571 2.332,0.855 -0.104,2.884 1.309,0.634 0.262,1.839 0.42,-1.301 0.602,-0.188 2.018,1.363 0.708,-0.191 -0.131,0.666 4.140002,2.218 -0.183,-0.887 2.882,-1.457 0.445,-1.142 -0.079,-0.539 h -0.786 l -0.654,0.634 -0.55,-0.285 -0.812,0.634 -0.446,-2.885 h -0.524 l -0.655002,1.174 -0.812,-2.441 -1.049,0.253 0.499,-1.837 -0.734,-0.064 0.052,-0.824 -0.864,0.031 -0.314,1.235 -0.602,-0.188 -0.787,1.107 -1.075,-0.949 1.646,-1.968 -0.178,-1.871 -0.524,-0.538 0.603,0.094 0.524,0.825 0.472,-0.412 -0.184,-0.761 -0.576,-0.223 0.026,-0.793 -1.048,-0.19 0.052,-0.54 0.655,0.317 0.341,-0.729 1.546,2.126 -0.105,0.888 0.367,0.477 0.943,-1.078 0.577,-0.063 0.131,-0.761 0.497,0.599 0.550002,-0.952 1.127,0.667 -0.158,0.634 -1.310002,0.889 -1.1,2.062 1.126,1.269 0.970002,-0.381 -0.026,0.889 0.891,0.125 0.733,1.079 3.931,0.506 1.572,1.364 0.997,-1.332 -1.311,-0.381 -0.236,-1.236 0.367,-0.158 2.201,0.223 0.313,0.889 3.25,1.395 3.092,0.284 0.444,-0.443 -0.89,-0.761 -1.913,-0.096 -1.415,-1.395 -1.598,-0.825 -0.367,-1.362 0.602,-1.301 -1.257,-0.381 -1.127,0.253 -1.179,-2.918 -2.672,-3.173 -0.944,-0.382 -1.52,0.127 -0.733,0.191 -0.707,0.92 -0.499,-0.253 -0.236,-1.396 -1.257002,0.031 -0.445,0.507 -0.236,-0.666 -0.891,0.253 -0.446,-0.665 -0.655,0.38 -0.053,0.604 -1.1,-0.128 0.184,0.636 -0.786,0.349 -2.333,-0.856 -0.052,-0.477 1.677,-1.079 -0.262,-0.761 0.55,-0.477 -0.498,-0.319 1.153,-0.442 -0.079,-1.335 -1.991,0.128 -0.708,-2.167 0.865,-1.042 v -0.794 l 0.471,-0.667 0.603,0.19 0.184,-0.921 0.341,-0.445 0.393,0.127 0.131,-0.698 0.786,-0.604 1.021,-0.096 -0.707,-0.54 -0.131,-1.971 -0.76,-0.381 0.628,-1.304 -0.733,-0.254 -0.55,-0.097 0.445,-1.239 -0.157,-0.731 0.419,0.254 0.419,-0.254 0.445,-1.272 -1.283,-1.209 -0.184,-0.668 0.655,-0.731 -0.786,-1.21 0.524,-2.228 -1.153,-0.764 -0.105,-1.91 -0.812,-1.336 -0.446,0.571 0.131,2.197 -0.864,0.7 0.079,0.764 0.786,-0.127 0.629,0.732 -0.892,1.432 0.76,0.509 -0.708,0.859 0.394,0.923 -0.236,0.413 -1.52,-0.127 -0.105,0.542 -0.629,0.222 -1.362,-0.159 -0.236,-1.622 -0.943,-0.223 -0.498,0.699 -0.472,-0.222 -0.183,-0.732 0.445,0.19 1.048,-1.241 -1.074,-0.477 -0.236,-0.892 -1.126,-1.146 0.208,-1.178 0.499,-0.096 0.208,-0.892 0.708,-0.382 -0.288,1.401 0.681,0.032 0.262,-0.701 0.812,1.688 1.887,-0.957 0.34,-0.892 0.629,-0.157 -0.027,-0.988 -1.86,-0.414 4.9,-3.152 -0.079,-1.497 -0.891,-1.116 -0.969,0.034 -1.651,0.795 -0.419,-1.02 0.419,-0.444 -0.262,-0.574 -1.651,-0.415 0.813,-0.255 0.445,-0.701 -1.153,-2.168 -1.336,-0.03 -0.132,0.732 -1.363,-0.956 1.206,2.23 -1.363,1.051 1.048,0.288 0.21,0.604 -1.284,1.211 -0.707,-1.719 -0.76,-0.352 -0.787,0.893 -1.284,0.096 0.079,-1.052 -0.682,-1.944 -1.021,-0.669 0.419,-1.276 1.651,-0.128 -2.202,-2.424 0.813,-1.912 0.393,0.479 0.367,-0.169 -0.472,-0.756 0.209,-0.541 1.468,-0.894 0.708,1.913 0.996,-0.223 -0.314,-0.512 0.367,-0.095 1.362,0.414 0.079,1.245 1.284,-0.064 0.917,-1.627 -0.682,-0.446 0.079,-0.32 0.368,-0.383 0.602,0.383 1.075,-1.276 0.052,2.554 -0.786,1.625 0.288,0.191 -0.184,0.512 -0.76,0.223 -0.183,0.893 0.524,0.383 0.053,0.828 -0.524,0.353 1.205,0.224 0.891,-1.021 -0.079,1.625 -0.681,0.446 0.052,0.574 0.367,0.255 0.235,-0.446 0.629,0.605 0.734,-0.573 0.209,1.942 0.419,-0.095 0.76,-2.104 1.048,-0.542 -0.655,2.264 0.472,0.159 0.655,-1.339 0.997,1.529 0.026,0.415 -1.572,1.848 0.97,-0.032 0.104,1.849 2.228,-0.064 -0.603,-0.987 0.025,-0.765 0.42,-0.605 1.677002,-0.796 1.441,-2.296 -2.069002,-0.954 2.096002,-0.67 0.655,-1.18 -1.704,-0.638 -2.358002,-0.096 -1.624,-3.158 -1.205,-0.51 -0.812,-1.403 0.026,-0.733 -0.917,-0.129 -0.604,-1.054 -0.654,-0.062 0.289,-1.341 -0.996,-0.479 1.624,-0.543 -0.183,-1.116 0.577,-0.287 0.288,-1.149 -1.782,0.895 -0.026,-0.416 -0.996,-0.224 -1.284,0.607 -0.393,-0.607 -1.179,-0.191 0.184,-0.766 -0.445,-0.958 -0.576,-0.543 -0.787,-0.064 v -0.511 l 1.101,-2.076 0.656,1.533 0.654,0.543 0.026,0.767 0.629,-1.15 0.734,-0.223 -0.551,-0.99 1.599,-2.172 -0.288,-0.704 -1.284,0.448 -0.472,-0.416 0.734,-1.31 3.118,0.032 0.629,-2.365 0.104,-2.91 1.755,-4.444 1.467,0.575 0.682,-0.19 0.942,0.99 1.599002,0.191 -0.235,-0.671 -1.048002,0.191 -0.315,-0.735 -1.86,-1.151 -0.759,-2.399 0.733,-1.793 -0.289,-0.544 1.468,-1.409 2.227002,0.162 0.315,-0.578 1.939,0.182 1.869,0.622 1.868,1.557 0.779,2.652 0.155,2.953 1.869,2.181 1.246,4.046 h 1.708 l 0.375,1.698 4.341,-0.232 1.448,-1.54 0.983,-0.353 1.11,0.24 0.963,0.428 2.07,-0.709 1.527,-1.492 3.134,-0.962 2.408,-1.217 0.764,-2.01 -0.141,-0.955 -0.261,-0.771 0.152,-0.682 1.448,-0.944 0.585,-0.674 -0.149,-3.091 0.183,-1.178 0.609,-0.808 2.262,-0.979 1.524,0.354 1.083,0.215 1.564,-1.861 3.018,0.604 2.939,1.855 1.095,1.129 2.517,4.761 1.033,0.895 1.968,0.567 1.021,-0.693 0.138,-1.019 0.532,-2.077 0.997,-0.641 0.979,-1.783 0.704,-0.317 1.806,0.394 1.347,1.039 0.613,1.9 -0.157,2.503 -1.146,1.374 0.087,0.934 0.488,0.682 1.587,-0.015 1.009,2.871 -0.419,3.604 2.586,1.972 2.093,0.538 1.607,-0.146 1.42,-0.939 0.962,-0.897 1.298,-0.834 3.148,1.353 1.927,-1.12 1.437,1.37 1.125,0.654 6.141,-0.02 2.377,-0.696 3.187,0.363 1.125,-0.021 0.622,-0.441 2.945,-3.787 1.751,-0.981 1.992,-0.108 3.5,1.155 1.033,0.918 3.297,1.813 3.066,2.64 -0.783,0.695 -0.016,1.56 2.654,2.981 0.905,9.198 1.296,1.686 2.219,1.127 3.036,3.633 0.193,2.896 1.09,1.043 0.766,1.236 1.613,0.686 1.176,1.869 1.741,1.326 1.573,4.103 -0.037,2.928 0.695,0.322 0.001,0.864 -1.834,0.286 -0.944,-0.379 -1.362,-2.962 -0.576,-0.031 -0.63,1.145 -1.755,0.542 -0.053,-2.897 -1.415,-2.037 0.079,1.624 0.681,0.542 0.367,3.023 -1.546,1.177 -0.236,0.923 -0.629,-0.191 -0.682,0.892 -0.707,0.063 -0.183,0.478 0.472,0.955 -1.625,1.112 -1.572,0.413 0.21,0.477 -1.153,0.892 -0.944,-1.21 0.446,-0.571 -2.07,0.222 -0.472,-1.304 -1.048,-0.954 0.158,-2.45 -0.708,-0.668 0.288,1.21 -0.419,1.781 -1.152,0.19 -0.315,-0.287 -0.499,0.637 1.154,0.287 1.284,1.59 -0.498,0.795 0.604,1.019 -0.499,0.19 -0.498,-1.019 -0.733,0.701 -0.603,-0.541 -0.577,0.636 1.101,0.128 0.34,0.413 0.079,1.367 1.39,1.366 -0.262,0.414 0.366,0.604 0.367,0.222 0.42,-0.413 0.681,1.019 1.415,-0.159 -0.078,0.763 h -0.813 l -0.052,0.54 0.235,0.699 0.917,0.73 0.026,-1.112 h 0.838 l 1.467,0.794 1.206,-1.303 1.336,-0.476 0.917,-1.526 -0.551,-0.445 0.052,-0.762 0.604,0.921 0.104,-0.381 1.494,0.095 1.572,-0.668 -0.943,0.859 1.756,0.699 -0.13,-0.764 2.305,-0.826 1.336,1.336 -0.838,0.19 0.313,0.856 -0.708,2.318 0.656,0.193 -0.682,0.349 0.131,2.161 -0.891,-0.064 -0.288,1.525 -1.049,1.081 0.76,1.396 -0.34,1.175 0.524,0.382 -0.577,0.412 0.786,0.571 -0.184,0.603 -0.419,0.286 -1.572,-0.286 -0.262,1.111 -2.516,0.952 -0.654,-0.031 z m -64.107,-51.929 -2.607,-0.262 -1.018,-4.53 -1.937,-2.335 -1.826,-0.868 -2.433,-0.086 -2.433,0.954 -2,1.044 -1.998,2.085 -1.478,0.087 -2.086,-0.696 -1.478,-1.39 -0.608,-2.172 -2.173,-0.087 -2.085,5.302 -2.346,-0.087 -1.738,2.085 -1.13,4.78 0.435,4.084 7.213,1.042 1.825,2.26 1.912,3.824 h 3.737 l 3.389,-1.999 h 3.823 l 1.478,-1.042 3.128,0.607 3.389,-2.347 1.39,-1.824 0.782,-1.651 0.087,-2.607 0.869,-1.825 v -1.391 z m 48.751,83.295 -1.598,-0.602 0.079,-0.411 -1.494,-1.866 -0.052,1.14 -0.419,0.189 -0.263,-0.602 -0.445,1.012 -0.917,-0.031 0.655,-0.822 -1.676,0.158 -0.524,-0.791 -0.918,-0.568 -0.314,0.189 v 1.929 l 0.393,0.633 -0.812,0.476 0.157,0.284 1.074,-0.76 0.524,0.253 0.445,-0.285 0.996,0.603 -0.21,0.632 -1.466,-0.602 -0.394,0.381 1.205,1.265 0.891,-0.506 0.209,0.506 h 0.576 l 0.21,0.822 -0.76,0.917 0.053,0.475 0.445,0.221 2.384,-1.202 0.314,-0.505 0.995,0.474 0.76,-0.948 -0.235,-0.695 z m 24.631,-5.536 -0.55,0.03 0.026,-0.663 -2.463,-0.855 1.389,-0.063 v -0.444 l -0.13,-0.634 -1.704,-1.614 0.184,-0.569 -0.734,-1.583 -1.704,0.031 -2.541,1.741 -0.682,-0.316 -0.734,0.191 0.393,0.728 1.101,0.348 0.681,0.697 1.258,-0.412 -0.734,1.171 0.184,0.38 1.311,0.317 -0.734,0.538 0.131,0.349 0.655,0.221 1.179,-0.411 -0.026,0.633 1.65,0.284 -0.209,0.475 -0.656,0.096 0.812,0.381 1.887,0.125 0.131,-0.506 z m -5.215,-45.175 -1.494,0.095 -0.943,-0.828 -1.755,0.67 -0.682,1.177 0.944,0.73 -0.472,0.445 1.782,0.095 0.471,0.477 0.917,-1.906 1.573,-0.383 z m -93.698,58.615 0.604,-0.443 2.148,0.127 -0.708,0.79 -0.602,1.802 1.388,0.821 -0.315,-0.506 0.472,-0.633 -0.131,-0.757 1.075,-1.453 1.021,-0.443 1.519,0.347 0.42,-0.536 -0.367,-0.442 0.498,-0.98 1.808,0.507 0.498,0.727 0.445,-0.412 1.101,0.316 0.079,-0.821 h -0.708 l 0.236,-0.411 -0.393,-0.948 -0.812,0.127 0.472,-0.602 -0.262,-0.632 -1.1,0.822 -1.415,-1.013 1.782,-0.095 0.288,-0.979 -0.577,-0.57 -0.55,0.284 -0.08,-1.392 -3.038,1.392 -1.206,-0.158 -2.227,2.561 0.341,1.361 -0.786,0.378 -0.891,1.296 z m 67.103,-11.321 -0.105,-0.568 0.813,-0.348 1.441,0.316 0.393,-0.697 0.131,0.697 h 0.446 l 1.126,-0.823 -1.388,-1.962 -2.883,-0.223 -0.236,-0.57 0.393,-0.221 1.206,0.38 -0.498,-1.141 -1.074,-0.189 0.053,-0.443 1.388,-0.094 0.445,-0.697 -0.47,-0.918 -1.521,-0.159 -0.445,0.286 -1.782,2.596 0.551,0.538 0.838,-0.158 0.655,0.665 -0.419,0.537 0.655,0.063 v 0.382 l -1.677,1.043 0.812,0.76 0.131,0.792 z m 32.752,3.353 -0.603,-0.412 0.314,-1.011 -1.074,0.569 0.289,0.886 -1.153,2.215 1.493,-0.255 0.026,0.316 -1.125,0.253 -0.367,1.075 0.262,0.538 0.865,-0.475 0.104,0.821 0.707,0.032 -0.288,-0.632 0.498,-0.158 -0.184,-1.328 0.943,-2.909 z m -76.404,12.517 -0.576,0.349 -0.786,-0.57 -1.415,0.222 -1.153,1.359 0.262,2.115 0.55,-0.379 0.262,0.947 0.55,0.315 0.393,-0.6 2.333,-0.885 0.209,-0.885 1.075,-0.22 -0.13,-0.916 -0.604,0.063 z m -13.547,3.379 1.101,-0.505 -0.393,-0.789 0.341,-0.157 0.786,0.946 -0.262,0.505 1.074,-0.029 0.314,-1.58 -0.551,-0.315 v -0.443 l 0.656,-0.348 0.838,0.19 0.104,-1.516 -1.677,0.915 -0.708,-1.452 -1.441,0.41 -0.131,-0.663 -0.681,0.852 -0.55,-0.504 0.078,-0.411 -1.021,-0.694 -1.363,1.294 0.131,1.042 -1.231,0.506 -0.445,0.031 -1.153,-1.452 -1.388,1.263 -1.179,-0.41 -0.995,0.285 0.445,0.473 2.279,0.505 1.205,1.391 1.441,-1.391 1.861,0.128 0.497,0.441 0.131,0.885 0.42,0.094 -0.314,0.822 0.472,0.883 0.838,-0.252 z m 21.433,-4.926 0.314,-0.569 h -0.916 l 0.025,-0.475 -0.995,0.128 -0.603,0.852 -1.31,0.285 -0.235,-0.758 0.366,-0.159 -0.393,-0.506 0.314,-0.536 -0.55,-0.063 -0.996,-1.391 -0.21,0.884 -1.153,-0.505 -0.471,0.505 0.629,0.633 -0.183,0.315 -0.368,-0.474 -0.34,0.221 0.419,0.348 -0.419,0.79 -2.122,-0.315 2.122,1.232 0.708,-0.729 1.336,0.854 0.34,0.79 -1.415,0.314 0.812,0.158 0.341,0.506 0.445,0.031 0.367,-0.947 1.231,-0.032 0.13,0.727 -1.572,1.105 0.419,1.831 0.943,-1.862 0.498,0.158 0.21,-1.073 2.017,-0.506 -1.702,-0.284 0.55,-0.884 0.576,0.44 1.311,0.128 0.183,0.6 0.759,0.252 0.473,-0.283 -0.656,-0.632 z m -14.149,-4.329 -0.969,-0.474 -0.838,0.41 -0.603,-1.327 -0.655,0.6 -0.472,-0.695 0.131,0.822 -0.288,0.095 -0.996,-1.266 -0.053,0.538 -0.708,0.253 -0.366,-0.316 0.314,-0.568 -0.866,-0.411 -0.314,0.632 0.759,0.633 0.183,0.727 -0.785,2.37 0.68,0.569 1.336,-0.6 0.315,1.611 0.969,0.094 0.813,0.601 0.209,-0.664 0.786,0.38 0.629,-0.505 0.393,-1.169 0.891,0.504 0.918,-0.157 0.209,-0.79 -0.865,-1.169 0.289,-1.2 0.733,-0.917 -0.549,-1.107 z m 30.736,15.851 -1.441,0.316 -0.026,1.167 -0.917,0.095 -0.707,2.776 0.367,-0.283 0.917,0.03 0.184,-0.408 0.366,0.472 1.31,0.38 -0.052,-0.884 -0.76,-0.316 1.1,-0.283 -0.288,-1.104 z m -2.201,-25.561 -0.289,-1.106 -1.546,-1.109 -1.389,0.857 -0.393,-0.033 -0.052,-0.475 -1.572,0.222 -1.573,1.266 -1.362,-0.126 -0.549,0.886 -0.576,-0.032 0.025,-0.695 -0.786,0.094 -0.419,-1.424 -0.472,0.443 -0.314,-0.379 -0.157,1.612 -0.681,0.128 -0.42,0.728 -0.549,-0.602 -0.342,0.411 1.258,1.739 -0.655,0.508 0.263,0.442 -0.263,0.442 0.865,0.095 0.027,-0.602 0.733,-0.125 -0.079,1.075 0.813,0.221 0.052,0.696 1.127,0.221 0.523,0.98 0.053,-0.822 0.524,-0.411 1.468,0.285 -0.157,-0.538 0.365,-0.221 1.992,0.568 2.043,0.063 0.838,-0.821 0.445,-2.118 z m -17.949,1.772 -0.97,0.537 -1.1,0.033 0.21,0.506 0.89,0.158 0.341,3.193 0.812,0.791 0.603,-0.316 -0.262,-1.265 0.472,-0.222 0.576,0.475 -0.236,0.822 0.367,1.96 1.021,-1.676 -0.629,-0.506 0.813,-0.253 -0.026,-0.694 -0.917,-2.531 -0.969,-0.823 0.184,0.442 -0.577,0.317 z"
     inkscape:connector-curvature="0"
     style="fill:#cccccc;fill-opacity:1;stroke:#ffffff;stroke-width:0.5;stroke-opacity:1" />
  <path
     id="KR-47"
     style="fill:#cccccc;fill-opacity:1;stroke:#ffffff;stroke-width:0.5;stroke-opacity:1"
     d="m 377.22461,177.99414 -4.26758,0.71484 -1.86719,2.17969 -2.49218,0.9336 -2.80274,2.49218 -1.55664,2.17969 v 1.24609 l 1.55664,2.80079 -6.52148,0.1621 -2.65039,-2.26757 -2.94532,-1.0293 -2.60742,-0.39648 -2.54101,2.50976 -1.00586,-0.19141 -3.06446,-1.74609 -3.34375,-0.67187 -1.16211,-0.0273 -2.17773,0.74219 -0.67578,-1.32031 -1.71875,-0.68164 -0.92774,0.59375 -1.9746,3.70312 -0.93555,1.24414 h -4.04688 l -3.42578,-2.80078 -2.80273,-1.55664 -2.01563,0.18359 -0.64648,2.31055 0.10547,2.39649 -0.36133,0.75195 -0.75,0.36328 -1.45508,-0.95117 -1.60351,-0.41797 -1.91407,0.25391 -3.07617,-2.08985 -1.16797,-0.24023 -1.27148,1.27929 -0.92774,0.875 -0.46484,-0.23046 -0.92578,-0.32618 -0.75,0.31055 -1.44141,2.13672 -0.83008,0.4707 -0.61718,0.2793 -3.28125,3.24414 -2.79883,0.80664 -0.7832,1.24023 -0.4629,0.99805 -3.07421,1.74414 -0.0899,0.87891 -1.48242,1.46875 -1.57812,3.30859 -0.83399,1.5625 -0.0508,1.33008 1.31055,0.60938 0.53125,0.8125 0.26172,2.0957 -2.83789,3.88867 -1.42774,0.29688 -2.10352,0.15234 -0.45507,0.33008 -0.92383,1.02734 -2.43555,-0.0508 -1.64062,0.43359 -0.54688,-0.2539 -1.0332,-2.79297 -1.45508,-2.12109 -3.23047,-1.8418 -1.17969,-1.96875 -1.08007,1.27344 -0.27735,1.01757 -0.30859,0.75 -1.12695,0.34375 -0.24219,2.58203 -0.20313,0.64454 -0.36523,0.56445 -5.19336,-1.29492 -0.49805,-0.44141 -0.41992,-0.62695 -1.0625,-0.37695 -0.60937,0.625 -1.38282,1.14648 -1.14648,1.9375 -1.375,0.18945 -1.63477,-1.74414 -0.50586,0.30469 -2.70507,6.32812 -0.15625,0.34766 3.23632,4.44141 0.15039,0.79101 -1.1875,0.10547 -3.40234,-1.01367 -1.17773,-0.66406 -1.20703,0.58398 -2.18555,-1.01367 -1.12305,-0.61328 -1.16601,2.33398 -1.70118,1.39063 -1.59961,1.04297 -2,0.125 -0.64257,0.25195 -1.68164,2.37109 0.48242,2.21875 -0.44531,0.69727 -2.20313,1.90234 -0.57813,0.73047 -0.9414,1.50391 -0.8125,0.0449 -1.56055,0.35156 -0.8164,1 -0.16993,0.90235 0.72657,1.0957 5.35351,1.13086 1.21485,1.21875 -0.14258,0.92773 0.38672,1.55469 0.57812,0.41016 1.63672,0.67968 0.36719,0.68164 -0.42188,1.70118 -0.125,0.56054 -1.88672,0.33203 -0.42968,1.33204 0.29492,3.59179 -0.67383,2.68555 0.59375,1.17773 0.002,1.29297 -1.28125,2.01172 1.3125,3.2461 0.49414,0.30664 -0.99804,2.55859 -2.6543,2.30273 -0.0703,4.27735 0.36914,0.7832 1.78125,0.99023 1.8418,-1.07031 1.1582,-1.50195 0.40625,0.0176 0.46094,1.4414 2.23632,0.79493 0.25782,0.68164 0.0918,0.5 0.98047,0.32031 0.77539,0.74805 0.33399,0.49414 0.83789,-0.0977 1.98242,-0.83594 2.22852,-0.78711 2.01562,0.69532 0.61914,1.0664 -0.35547,1.06446 0.50586,2.0996 0.56836,1.30469 0.68945,0.56445 -0.0898,0.79297 -1.15234,0.55274 -2.4668,-1.47656 -2.40234,1.42382 -1.17969,1.73633 0.082,1.1875 1.09375,1.76758 -0.51172,1.40625 0.10156,2.1582 -1.75195,1.45899 0.18164,0.91797 -0.99219,1.67968 -0.22656,2.03321 -1.83594,2.59179 -0.75,0.33008 -0.8789,-0.66406 -1.24024,0.23828 -1.08203,1.06836 3.47852,5.6543 1.22851,3.30078 -0.27148,2.76172 -1.01172,2.24023 0.12891,1.9336 0.57031,0.86523 1.13672,0.89453 1.55859,-0.0117 0.70703,0.36524 0.30664,2.60156 0.94336,0.5625 2.13672,0.32812 1.77344,0.2168 0.58398,1.125 1.14844,0.63477 4.43359,0.78125 2.54688,-0.26563 1.48828,0.75195 1.54102,0.7461 0.49023,0.73633 0.77734,2.86914 0.66016,0.49414 2.06055,0.98633 0.66015,1.14843 -0.23242,0.60938 2.51563,1.49023 0.9414,1.78711 -0.24609,2.20313 -1.8125,3.96679 -0.26563,1.6543 0.88282,1.63281 3.79492,1.48828 2.23828,-0.30468 1.18945,-0.31055 2.95117,-1.08789 2.19336,1.08398 2.28907,0.26954 2.23437,2.17773 1.70703,1.24414 -0.73242,-3.42187 -4.04687,-4.98047 0.31054,-2.80274 1.86914,0.6211 1.55664,1.24609 h 2.17969 l 0.62305,-2.49024 -3.11328,-3.42578 1.24414,-3.11328 1.24609,-2.80273 5.29492,-0.9336 -0.3125,-1.86914 -2.80273,-2.17968 -4.66992,-0.3125 0.31054,-3.11133 1.2461,-2.80469 2.17968,-3.11133 2.17969,-0.62304 1.86914,-1.2461 0.62305,5.60352 h 2.49023 l 0.93555,-3.11133 2.49219,-4.98438 5.91406,-1.24414 2.80274,-3.11328 3.42382,-0.93554 3.11329,0.3125 3.73632,3.11328 v 4.35937 l 0.62305,3.11133 1.86914,4.04883 -0.93359,2.18164 -3.42578,1.24414 -1.5586,3.42578 v 3.11328 l -2.49023,0.3125 v 1.86914 l 1.24609,1.55664 v 4.04883 l -3.42578,1.24414 -1.55664,1.86719 -2.80274,-0.3125 -0.62304,-2.80078 h -3.11328 l -2.17969,1.24414 -1.55859,2.49219 0.45117,1.50195 0.30078,-0.2168 0.96875,0.0195 0.6914,1.27539 -0.46679,3.04493 0.78711,2.36718 0.89453,1.29102 2.11523,1.6875 0.9375,1.08203 1.38282,0.69922 5.86718,-1.10352 3.43555,0.76954 3.99219,1.9707 1.91797,0.57226 1.5625,-0.56054 3.9375,-3.26563 1.01171,0.29883 1.13477,-0.43945 1.80273,-2.28907 2.01563,-1.41406 2.10156,0.043 1.33399,0.10352 1.58984,0.76757 1.28125,0.70313 2.41406,0.86523 0.95899,-0.35351 0.76953,-0.78906 3.91211,-3.08204 1.65625,-0.17578 0.66992,0.13086 0.65625,-0.86328 -1.34961,-2.47461 -0.22461,-1.06054 0.5957,-0.49219 4.14454,-2.57422 3.10742,-1.01953 1.62304,0.29883 2.58399,-0.65235 1.0918,0.42188 1.79687,1.46679 2.00781,0.3086 0.96875,0.58593 0.23828,0.82618 -0.42382,2.83593 0.28711,0.76954 0.72851,0.33398 1.97266,0.65039 1.42383,-0.24219 2.8164,-1.83789 1.11328,-0.30664 1.48438,-0.0117 4.87695,1.72852 1.75781,0.42383 3.00782,0.2207 -0.8125,-0.25781 v -0.54492 l -0.62891,-0.57618 -0.23633,-2.3125 0.75977,-0.38476 0.49804,-1.99024 1.04883,-0.0976 v -1.60352 l 0.52344,0.0625 0.62891,-1.34765 -0.44727,-1.83204 1.23438,-2.79687 -0.13282,-1.47656 0.97071,-0.9961 -0.3418,-0.80468 0.26367,-1.25586 0.36719,-0.18946 -0.63086,-1.89843 0.9707,-0.76954 -0.26367,-0.58007 0.89063,-0.90039 0.34179,0.19336 0.23633,-1.35157 -0.52539,-0.77148 1.12891,-1.51367 -0.1836,-1.35157 0.67969,-0.54687 0.0547,-1.09375 0.78515,-0.99805 -1.59961,-0.32226 0.20899,-0.80469 0.89258,-0.25977 -0.44532,-1.31836 0.86524,-0.74023 -1.46875,-2.35156 -0.0527,-0.86914 1.44141,-0.77539 0.68164,-1.67383 0.81055,-0.19336 -0.1836,-0.51563 0.78711,-1.45117 -0.36718,-1.19141 1.39062,-1.22656 -0.0273,-0.86914 1.70312,-2.25781 -0.67969,-0.93555 0.4961,-0.41992 0.0527,-0.41992 -0.54883,-0.35352 0.39258,-0.16211 0.23633,-1.12695 -1.3125,-2.58398 0.10547,-1.16211 -0.9707,-0.29102 -0.21094,-0.77344 -1.22852,0.29102 -0.0273,0.93555 -0.89062,1.35546 -3.06446,3.32227 -0.0527,1.32422 -4.16602,2.48242 -0.23437,1.22656 -0.81446,0.25586 -2.53906,-0.99804 -0.42187,-0.77344 0.70898,-0.83789 -0.54883,-0.51758 -2.33398,0.61328 0.18359,-0.74219 0.73438,-0.35351 0.44336,-0.8086 1.39062,0.32227 0.89063,-0.0977 -0.0254,-0.41797 -2.59375,-0.9375 -1.67969,1.16211 -0.99414,-1.64648 0.65429,-2.32227 h 1.31055 l 0.49805,-0.77343 1.65234,-0.58203 -0.18554,-1.45118 1.20703,-1.06445 0.10351,-0.58203 0.0781,-0.96875 -3.01172,-2.48633 -0.47266,-1.13086 0.62695,-1.68164 -0.0234,-1.22851 -0.60352,-1.97071 -0.18359,-0.38867 -1.20703,-0.22656 -0.83789,-1.58399 0.21093,-0.71093 0.83789,-0.22657 0.33985,-1.29296 -0.44531,-1.29493 0.44531,-1.00195 -1.23047,-1.45508 0.28906,-1.9414 0.52344,-0.55079 -0.68359,-1.58593 0.44726,-0.25782 0.28711,-3.66015 -0.26172,-1.22852 0.89063,-1.8457 -0.0801,-0.97266 1.67969,-2.88281 0.20898,-1.03711 h 0.4707 l 1.65039,-2.39844 0.57618,-1.91211 -0.28907,-1.6875 0.42188,-2.75586 -0.36914,-1.8496 1.07617,-0.97461 0.10547,-1.78516 0.60156,-0.22656 -0.4707,-0.7793 h -0.39453 l -0.28711,-4.60937 -2.12305,-2.4043 -0.57617,-1.23438 -0.1836,-1.78711 0.60352,-0.29296 -0.39258,-2.50196 0.47071,-1.85351 1.07421,-1.20313 0.8379,-2.59961 1.17968,-0.97851 1.31055,0.0664 0.39453,-1.75781 0.86524,-0.65234 -0.55274,-2.57032 0.55274,-0.51953 -0.0293,-0.91211 -0.81055,-1.53125 -0.10547,-1.30078 1.04688,-1.10742 -1.4375,-2.37891 -0.57813,-3.2246 -0.89062,-1.04297 -0.10352,-1.00977 -1.67773,-1.85937 -0.83985,-2.41407 0.23438,-0.61914 -0.62695,-1.27148 -0.0781,-0.75 0.54883,-0.55469 -0.52149,-1.33594 0.54883,-4.24414 -1.17773,-3.95117 1.04687,-1.86133 -0.0508,-1.40429 -0.91992,-2.77735 0.68359,-0.52344 -0.39257,-1.27539 0.20703,-1.24023 0.63086,-0.42578 0.55078,0.35937 0.41797,-0.29492 -0.60352,-1.04492 -2.85547,-2.09375 -0.10547,-0.62109 -1.67578,-1.47266 -0.18359,-1.17774 z"
     inkscape:connector-curvature="0" />
  <path
     id="KR-48"
     class="land"
     d="m 239.60915,324.72668 1.135,0.895 1.561,-0.012 0.706,0.364 0.308,2.603 0.942,0.563 2.138,0.328 1.773,0.215 0.583,1.127 1.149,0.633 4.434,0.782 2.547,-0.265 1.488,0.751 1.539,0.746 0.492,0.738 0.778,2.868 0.659,0.494 2.06,0.987 0.661,1.147 -0.232,0.611 2.516,1.49 0.94,1.787 -0.245,2.204 -1.812,3.965 -0.267,1.655 0.884,1.632 3.794,1.488 2.239,-0.304 1.19,-0.311 2.95,-1.087 2.193,1.084 2.289,0.27 2.235,2.177 1.661,1.234 2.454,-0.049 3.483,-2.492 1.52,-0.375 2.416,0.891 1.076,-0.593 0.805,-3.582 0.777,-1.001 0.3,-0.217 0.972,0.013 0.691,1.275 -0.467,3.045 0.787,2.369 0.895,1.29 2.114,1.687 0.939,1.081 1.382,0.7 5.868,-1.104 3.434,0.771 3.992,1.97 1.917,0.572 1.563,-0.56 3.938,-3.265 1.011,0.297 1.135,-0.438 1.802,-2.29 2.017,-1.413 2.101,0.042 1.333,0.103 1.591,0.768 1.282,0.704 2.414,0.864 0.958,-0.353 0.769,-0.789 1.466,2.421 v 1.465 l -1.198,1.047 -2.226,1.886 0.342,4.814 2.226,1.047 h 2.739 l 2.396,0.208 3.253,3.348 3.423,3.974 2.226,1.882 3.082,0.208 1.264,1.544 -2.943,2.706 -0.572,1.857 -4.857,0.571 -1.714,2.571 -0.856,2.714 -1.029,1.339 -1.832,-0.316 -3.943,2.476 -0.977,1.162 -0.791,0.198 -0.857,1.999 -1.429,1.572 -4.143,0.143 -3.856,2.428 -2.286,0.287 -0.429,4.998 -4.286,1.144 -2.428,1.001 -0.2,0.464 -1.807,2.223 -0.971,-0.733 0.157,1.245 -1.205,0.096 -1.048,-0.765 -0.654,1.05 h -0.473 l -0.367,-0.732 -0.865,0.191 -0.052,-0.925 -1.231,-0.031 0.105,0.511 -0.707,0.318 -0.708,-0.733 -0.211,-0.479 0.892,-0.414 0.813,-1.308 -0.654,-0.765 0.052,-1.054 -0.864,-0.287 0.209,-0.988 -1.676,0.798 0.523,1.754 -1.18,0.957 -0.341,-1.532 -1.781,-0.732 -0.156,-0.765 0.444,-0.575 -1.834,0.319 -0.42,1.723 -0.627,-0.829 -0.839,0.255 0.76,-1.085 -0.655,-1.021 0.185,-0.861 -0.552,0.225 -0.969,-1.309 -0.21,-3.225 1.625,-1.213 1.441,-0.159 0.865,-0.989 -1.232,0.733 -2.96,0.607 -2.201,2.585 0.472,1.245 0.917,0.351 -0.628,0.605 0.341,0.702 0.577,-0.319 0.549,0.448 0.943,2.105 -0.34,0.541 -1.022,0.287 -0.812,-0.287 -0.13,0.702 1.021,0.351 0.812,-0.511 0.68,0.096 -0.313,0.927 0.366,2.455 2.438,1.944 0.025,0.286 -2.28,0.351 0.786,0.957 1.363,-0.319 0.837,0.319 0.028,0.381 -2.804,1.148 -3.119,0.605 0.551,-0.892 0.866,-0.255 0.338,-1.053 -0.338,-0.064 -0.42,0.893 -0.314,-0.414 -1.65,0.224 0.575,1.369 -0.47,0.319 -0.734,-0.16 -1.283,-1.815 2.227,-0.158 -0.314,-1.212 0.968,-0.67 0.892,-0.063 v -0.384 l -3.772,-1.146 0.603,-0.733 -0.367,-0.351 -0.499,0.319 -0.079,-1.436 -1.022,1.818 -0.524,-0.16 -1.021,0.796 -0.629,0.033 -0.863,-0.926 -1.022,-0.285 0.104,0.828 -1.022,0.414 -1.416,-0.828 -0.863,-0.064 -0.21,1.053 2.96,1.72 v 0.385 l -0.418,0.352 -0.655,-0.736 -0.418,0.958 -2.098,0.191 -1.31,1.942 h -1.153 l 0.052,-0.828 -0.394,-0.064 -1.099,0.99 -1.545,0.381 -0.08,0.542 -0.759,-0.413 0.708,1.593 -0.839,0.669 -0.392,-0.191 0.131,0.892 -1.127,0.859 0.026,0.668 0.839,-0.731 1.887,-0.351 0.105,-1.752 1.493,-0.892 4.061,-1.02 -0.577,-0.987 0.393,-1.021 0.788,-0.191 0.393,0.828 0.891,-0.509 0.078,-0.925 1.258,1.307 -0.445,0.861 0.393,0.349 -0.262,0.894 -1.338,-0.35 -0.444,0.284 0.707,0.511 1.31,0.16 0.394,0.573 -0.419,0.827 1.861,0.893 0.105,0.605 -0.918,1.242 -0.365,-0.637 -0.472,0.096 0.13,1.177 -0.708,0.097 -0.026,0.668 -1.284,-0.508 0.342,0.891 -0.394,0.127 -2.175,-0.731 -3.013,-0.064 0.026,1.434 0.865,-0.51 1.075,0.095 1.205,0.383 0.236,1.05 -0.997,1.4 -0.943,0.541 0.576,0.254 0.08,1.084 -0.498,0.604 0.996,0.891 -0.654,0.447 0.077,1.304 -1.1,0.763 0.787,0.763 -0.603,0.765 0.393,1.526 -0.21,1.238 0.918,-0.667 0.262,-0.508 -0.341,-0.129 0.079,-0.508 1.441,-1.431 -0.131,-0.699 -0.629,-0.445 0.158,-0.318 1.232,-0.096 0.655,1.112 -0.08,0.573 h 0.447 l 0.078,0.827 0.812,-0.097 0.157,0.352 -0.76,2.287 -0.681,-0.221 -0.368,-1.113 -0.314,0.921 0.314,1.019 -0.864,-0.128 0.628,0.859 -0.131,1.398 -1.676,1.017 -0.813,-0.286 -1.441,0.636 2.751,0.635 0.237,0.922 -0.262,0.572 0.234,1.493 -0.891,-0.286 -0.103,0.444 0.812,0.858 -0.578,0.539 -1.31,-0.254 1.52,1.208 -1.022,1.333 -0.13,0.89 -1.678,-0.095 -0.235,-0.637 -0.576,0.35 -0.079,-1.684 -0.211,-0.19 -0.601,0.572 -0.211,-0.539 0.498,-0.636 -0.839,-1.208 -0.627,0.954 -0.184,-0.604 -0.943,-0.16 0.787,-0.888 0.706,-0.064 -0.365,-0.539 0.314,-0.731 -2.986,-1.207 -1.049,0.952 -0.576,-1.048 v -0.444 l 0.342,0.35 0.575,-0.318 -0.236,-1.429 0.498,0.094 0.157,1.018 0.498,-0.286 -0.157,-0.731 0.604,-0.158 0.47,0.35 -0.13,0.571 0.734,0.509 0.629,-0.54 1.232,2.511 -0.184,-1.748 0.995,0.317 0.943,-0.762 -0.47,-0.287 -0.629,0.605 -0.237,-0.637 -0.549,0.063 0.418,-0.858 -1.31,0.095 0.314,-0.476 -0.682,-0.668 0.76,-0.096 0.969,-1.271 2.254,0.476 0.655,-0.35 -0.341,-0.604 h -2.804 l -0.497,-0.667 0.314,-1.018 -0.367,-0.668 -0.289,0.7 -0.786,-0.415 0.629,1.463 -0.341,0.414 -1.572,-0.318 -0.473,-1.685 -0.209,1.558 -0.655,-0.19 v -0.826 l -0.76,-0.097 0.367,0.605 -0.891,0.19 -0.026,-1.24 -1.074,0.795 -0.629,-1.463 -1.152,-0.858 v -0.382 l 1.389,-0.7 h 2.489 l 0.785,0.478 0.787,-0.35 -0.313,-0.509 0.288,-0.668 -0.681,-0.064 -0.156,-0.254 0.365,-0.159 -0.601,-0.572 0.182,-0.859 -0.471,-1.527 -0.472,0.445 -0.55,-0.255 0.208,-1.081 -0.339,0.159 -0.971,-0.797 0.183,1.178 -0.34,0.127 0.445,0.7 -0.419,0.065 -0.182,0.604 -1.417,0.223 0.473,2.068 -1.415,1.019 -0.707,-0.733 0.026,1.4 -0.577,-0.031 -0.026,-0.669 -0.942,-0.224 0.236,-0.667 -0.629,-0.509 0.732,-1.368 -0.314,-0.668 -0.628,-0.096 -0.367,0.446 -0.655,-0.604 -0.288,0.699 -0.025,-0.859 -0.578,-0.189 -1.048,0.508 -0.578,-0.604 -0.418,0.826 -0.524,-0.412 -0.183,0.444 -0.315,-0.285 -0.997,0.443 0.788,1.273 -0.498,1.241 0.314,2.449 -1.887,-0.159 -0.655,-1.399 -0.208,1.209 h -0.735 l -0.68,-1.209 -1.6,0.572 -0.865,1.559 -0.994,-1.846 -1.049,0.255 -0.733,-1.018 0.602,-0.891 0.657,-0.159 0.183,0.54 0.237,-0.795 -4.14,-0.445 -0.104,0.382 -2.07,-0.699 -1.363,-1.241 -0.026,-0.699 -0.917,-1.338 1.808,-1.369 0.367,-0.953 -0.76,-0.384 -0.578,-1.688 1.022,-2.323 -0.419,-0.797 -0.733,0.638 -0.158,-0.51 0.604,-1.02 -0.262,-1.211 0.942,-3.218 1.153,-0.988 -0.629,-0.32 -2.018,1.53 0.21,0.607 -0.917,0.859 0.393,1.052 -0.315,1.529 -0.549,0.605 -1.074,-0.256 -0.341,-0.477 1.178,-0.639 -0.235,-0.7 -0.026,0.446 -0.706,0.414 -0.316,-0.605 -1.729,-0.318 -0.498,1.243 -0.393,0.095 -0.026,0.286 h 0.865 l 0.236,-0.796 0.838,0.158 -0.157,0.67 1.284,1.052 -0.131,1.083 1.127,0.254 -0.394,2.229 -0.706,-0.414 0.051,1.527 -0.444,-0.19 0.183,-0.508 -0.708,-0.893 -0.446,0.16 0.131,1.146 -0.419,-0.573 -0.419,0.19 0.551,0.733 -0.865,0.444 -1.127,-2.165 -0.785,0.192 -0.472,1.178 -0.445,-0.224 -0.472,0.318 0.497,0.859 -1.493,-0.54 0.367,-0.827 -0.604,0.221 -0.262,-0.636 0.314,-0.51 0.445,0.287 0.079,-1.242 -0.707,-0.19 -0.839,-1.242 -0.472,0.699 0.288,0.733 -0.629,1.401 0.21,0.986 h -0.918 l 0.394,1.242 -0.996,0.127 -0.499,0.986 0.184,0.351 -0.733,0.573 h -0.734 l -0.366,0.764 -1.442,0.191 -0.445,-0.447 -1.048,0.447 -0.236,-1.528 -0.419,-0.254 -0.157,0.636 -0.551,-0.859 -0.418,2.101 -0.499,0.318 -0.471,-0.731 -0.749,0.158 -0.091,-0.451 -0.694,-0.321 0.036,-2.928 -1.572,-4.104 -1.741,-1.326 -1.177,-1.868 -1.613,-0.686 -0.765,-1.237 -1.09,-1.043 -0.194,-2.896 -3.036,-3.632 -2.219,-1.127 -1.296,-1.687 -0.905,-9.198 -2.654,-2.981 0.016,-1.559 0.783,-0.696 0.229,-0.204 2.211,-2.3 -0.549,-2.862 0.337,-1.157 0.817,-1.982 3.695,-3.56 0.554,-3.456 -0.099,-0.544 -1.629,-0.427 -0.69,-1.924 0.685,-3.334 -1.267,-2.267 -0.501,-1.046 0.08,-1.854 -0.694,-0.701 -2.073,-0.668 -0.17,-2.312 1.585,-3.273 0.784,-4.727 1.901,-4.932 0.94,-1.447 0.891,-0.796 0.155,-1.913 0.78,-4.811 1.669,-1.143 3.26,-3.585 0.806,-2.281 0.668,-1.204 0.181,-0.582 0.206,-0.637 0.443,0.164 0.709,0.494 1.303,-0.056 1.822,-1.146 1.458,-0.009 1.778,-1.644 1.321,-0.237 0.537,-1.933 1.506,-2.68 2.32,-1.511 0.128,1.934 z m 85.757,91.766 0.395,0.063 0.104,1.369 1.021,-0.285 0.471,1.752 -1.624,3.408 0.655,0.795 -0.576,1.434 -0.733,0.413 0.262,-0.603 h -0.76 v -0.766 l -0.342,-0.191 0.131,-0.795 0.684,-0.414 -2.045,-0.893 -0.078,-0.383 0.653,0.064 0.368,-0.478 -0.761,-0.605 0.446,-0.191 -0.054,-0.67 -0.522,-0.701 -0.762,-0.126 -0.13,-0.702 0.865,-0.284 0.026,-0.384 1.57,-0.095 0.132,-0.67 z m -14.28,2.995 0.732,0.287 0.446,0.859 0.76,-0.096 -0.053,-0.542 0.525,0.51 h 0.785 l 0.893,1.466 -0.865,1.656 -0.55,-0.446 -0.498,0.35 -0.104,0.383 0.523,0.19 0.079,0.478 -1.362,0.064 0.183,0.604 0.604,-0.095 -0.524,1.146 0.131,1.083 h 0.654 l 0.395,0.891 0.89,0.032 -0.183,0.827 0.367,0.765 0.654,0.19 0.131,1.146 -0.419,0.223 -0.445,-0.317 0.025,2.162 0.524,0.765 -0.367,0.508 -0.891,-0.287 0.629,1.305 -0.969,0.158 -0.342,0.701 -0.681,0.287 -0.054,1.048 1.442,0.287 -0.445,0.636 0.341,0.255 0.76,-1.464 1.1,-0.762 0.97,0.57 1.179,-1.048 -0.864,1.207 0.158,0.479 -0.577,0.095 0.446,1.24 -0.655,0.698 -0.944,-0.539 -0.262,0.254 1.152,2.385 -1.126,0.284 -0.576,-0.984 -1.599,1.049 0.026,0.89 0.629,0.541 0.864,-1.018 0.734,0.541 0.104,0.572 -0.708,0.508 1.992,3.366 0.025,0.763 -0.497,0.097 -0.498,-0.764 -1.888,-0.19 -0.025,-0.413 0.577,-0.381 -0.76,-1.365 -0.97,0.634 0.105,1.207 -0.289,0.064 -0.682,-0.19 0.341,-0.483 -0.131,-0.756 -2.069,-0.445 -0.235,2.288 0.707,0.857 -1.441,1.271 -1.18,-0.445 -0.732,1.777 1.387,2.382 1.967,-0.253 0.732,0.444 0.13,0.412 -0.627,0.127 0.026,0.857 -0.524,-0.826 -1.415,-0.508 -0.392,0.635 -1.182,-0.189 -0.917,0.571 -0.182,-0.699 -0.472,0.762 0.838,1.207 0.813,0.221 0.235,0.54 -0.394,0.381 -0.629,0.032 -0.576,-0.508 -1.493,1.459 -1.808,-0.92 -1.284,0.761 -0.159,-0.54 0.499,-0.981 0.734,-0.096 -0.289,-0.667 1.754,-0.477 0.315,-0.507 -0.578,-0.698 -1.361,0.063 -0.892,-0.477 0.027,-1.269 0.445,-0.509 -0.262,-0.667 2.043,-0.158 -0.051,-0.444 -0.812,-0.317 0.497,-0.858 -1.415,0.287 -0.707,-0.351 -1.232,1.398 -0.76,-0.19 -0.078,-0.891 1.415,-1.396 -0.996,-0.159 -1.39,1.556 0.237,-1.047 -0.656,-0.382 0.969,-0.159 0.237,-0.539 1.991,0.032 1.179,-0.509 0.025,-2.287 1.049,-0.858 -0.079,-0.762 -0.708,0.189 -0.183,-0.856 -0.656,-0.191 -0.156,-0.479 1.048,0.318 0.026,-0.698 -1.441,-0.825 -0.97,1.334 0.157,1.144 -2.332,-0.285 -0.21,0.698 -0.758,-0.444 -0.472,0.634 0.366,0.731 -0.759,-0.253 0.366,0.92 -0.655,0.764 -0.603,-0.032 -0.13,-0.984 -0.812,-0.699 0.68,-0.858 -1.206,-0.158 -1.257,-0.922 -0.367,-0.89 0.262,-0.35 -0.629,-0.383 0.367,-0.35 -0.524,-1.747 0.419,-1.271 0.76,-0.541 0.707,-1.336 0.813,-0.063 -0.393,-0.699 0.812,0.35 -0.471,-0.795 0.603,0.413 0.837,-0.222 -0.026,-0.637 0.945,-0.923 0.917,0.19 0.968,0.859 0.028,0.54 1.938,1.21 0.917,-0.159 0.052,-0.414 -0.602,-0.509 1.441,-0.764 0.523,0.827 0.532,-0.258 0.209,0.669 0.787,-0.382 0.68,1.43 0.997,0.318 0.052,-0.731 -0.892,-1.462 0.262,-0.636 -0.995,0.286 0.262,-1.051 -0.708,-0.096 -0.786,-1.877 -0.917,-0.287 0.342,-1.048 0.417,0.413 0.524,-0.573 -0.13,-1.368 0.733,-0.511 0.471,0.287 -0.499,1.082 1.127,-0.637 1.469,0.287 -0.027,-0.636 0.891,0.891 0.733,0.158 0.288,-0.317 -0.55,-0.224 0.105,-1.113 0.498,-0.892 0.575,-0.224 -0.498,-0.063 -0.051,-0.668 1.048,-0.255 -0.499,-0.796 0.734,0.352 0.341,-0.479 0.394,0.987 0.602,0.031 -0.732,-1.306 0.838,-0.159 -0.105,-0.573 -0.419,0.414 -0.891,-0.286 0.392,-1.656 0.395,-0.063 -0.025,-1.274 0.892,-0.128 -0.866,-0.572 z m -2.803,2.165 0.473,1.243 -0.656,1.241 -0.053,0.414 0.578,0.159 -0.63,0.063 -0.053,1.72 -1.728,0.383 0.288,-0.415 -0.788,-0.285 -0.392,0.891 -0.76,0.19 0.209,-1.4 0.446,-0.223 0.183,0.317 0.734,-0.923 -0.079,-0.286 -0.918,0.031 0.105,-0.51 1.572,-0.031 -0.235,-1.114 0.629,-0.765 0.523,0.383 z m -71.296,8.628 0.55,0.542 0.891,-0.031 0.078,0.444 0.472,-0.35 0.21,0.667 0.183,-0.795 0.629,0.286 -0.393,0.638 0.707,2.13 -0.471,1.56 0.157,1.24 -0.577,-0.031 -0.944,0.954 -0.707,-0.096 -0.34,1.493 0.996,2.226 0.628,0.445 -0.577,0.922 1.468,1.048 0.708,-0.285 0.996,0.668 0.157,2.128 0.917,0.444 0.786,-0.189 0.339,-0.319 -0.68,-0.54 1.808,-0.698 -0.104,-0.667 1.231,-0.699 2.673,0.19 0.052,-0.317 0.995,-0.159 0.394,0.827 1.074,0.571 0.235,-0.382 1.179,0.477 0.551,0.954 -0.472,0.92 0.392,0.445 -0.446,0.316 -0.733,-0.253 -0.13,0.636 0.602,0.317 -0.761,1.207 0.866,3.523 -0.262,0.699 -0.654,0.189 -1.232,1.303 -0.182,0.825 2.488,1.776 -0.655,-0.316 -0.025,0.443 -0.604,0.064 -0.393,0.633 -0.733,-0.127 0.131,-0.477 -0.865,-0.029 -0.236,0.792 -0.498,-0.159 0.654,-1.936 -0.942,-0.603 -0.786,0.286 0.313,0.699 -0.235,0.38 h -0.471 l -0.262,-0.508 -0.787,0.317 -0.34,-0.825 -0.472,0.286 0.393,0.697 -0.393,0.444 -1.101,-0.317 -1.468,0.254 -0.393,-0.856 0.472,-0.19 -0.052,-0.477 -0.655,-0.222 -0.604,-2.538 0.393,-2.097 0.656,-0.889 -0.419,-0.539 -2.097,0.189 -2.253,1.144 0.707,3.683 -0.498,0.73 -1.624,0.602 -2.988,-0.635 0.419,-0.729 -1.074,-0.412 0.524,-0.54 -0.34,-0.666 -1.494,-0.095 -0.157,-0.858 0.577,-0.127 0.209,-0.604 -0.262,-0.538 1.074,-0.255 -0.602,-1.999 -0.734,-0.256 -0.366,-0.699 0.235,-1.429 -0.838,-0.317 0.053,-0.73 -1.389,-1.843 -0.576,-2.83 0.97,-0.89 -0.21,-0.73 0.289,-0.349 0.97,-0.064 -0.184,-0.89 0.602,-0.923 -0.34,-0.318 0.996,-0.542 0.184,-0.856 0.393,0.604 1.65,-0.223 -0.969,-1.271 v -0.86 h 0.523 l -0.419,-0.699 1.075,-0.382 -0.08,-0.572 0.498,-0.668 z m 12.917,2.768 0.236,0.7 -0.707,1.686 -0.89,0.827 -0.551,3.147 1.284,0.286 -0.13,-2.067 1.311,-1.749 0.994,0.129 0.211,1.59 0.603,-0.256 1.074,1.306 -0.131,1.397 -0.76,0.254 -0.339,0.795 0.758,-0.317 0.263,0.73 -0.394,0.445 h 1.443 l 0.026,0.699 0.891,0.254 0.157,0.985 h -0.865 l -0.498,-0.857 -0.733,0.604 -0.97,-0.954 -0.785,0.318 -2.28,-1.525 -0.314,1.207 -1.389,0.318 -1.624,-0.063 -1.651,-0.826 0.261,-0.35 -0.759,-0.731 -0.237,-1.176 0.184,-0.954 1.31,-0.826 0.105,-0.826 1.152,-0.924 0.052,-1.049 0.682,-0.954 1.756,-1.05 0.576,0.19 z m 16.037,7.124 2.305,0.984 0.759,0.795 -0.261,0.317 -2.227,-0.095 -0.576,0.413 -0.473,1.239 -0.969,0.381 -0.55,-0.763 0.418,-0.54 -1.284,-0.317 -0.288,-1.335 z m 3.457,2.192 1.258,1.971 1.493,0.89 -0.55,0.794 -2.017,-0.189 0.576,1.143 -0.313,0.731 -0.474,-0.763 -1.256,0.03 -0.026,-0.793 -1.257,0.063 -0.131,-0.382 0.683,-0.159 -0.186,-0.317 -1.361,-0.381 0.157,-0.795 0.393,0.413 0.812,-0.03 -0.654,-0.604 0.865,-1.24 z m 23.347,2.67 0.104,0.318 -0.707,0.381 0.367,0.413 0.104,-0.445 0.419,0.032 -0.235,0.54 0.68,0.763 0.105,2.128 1.207,-0.254 0.55,0.825 -0.315,1.175 -1.885,1.111 -0.656,-0.508 -1.337,0.063 0.367,-0.254 -0.367,-0.635 0.577,-0.254 -1.337,-1.779 0.315,-0.539 -0.079,-1.748 0.523,0.572 -0.051,1.207 0.759,-0.381 -0.158,-1.048 1.127,0.635 -0.682,-1.016 -0.865,0.253 -0.288,-0.73 0.288,-0.826 h 1.47 z m -22.559,18.853 1.204,0.951 0.655,-0.222 0.996,0.824 -0.237,0.571 -0.759,0.126 0.681,0.316 0.263,0.635 0.943,-1.648 1.335,-0.032 -0.549,0.54 0.288,0.379 -0.812,0.445 0.157,0.919 -1.651,-0.096 -0.078,-0.476 -0.761,-0.284 -0.683,0.886 -1.073,0.033 -0.158,0.919 -0.891,-0.159 -0.262,-0.57 1.075,-0.189 0.053,-0.507 -0.788,-0.571 0.262,-0.762 -0.864,0.509 -0.446,-0.73 1.102,-0.38 -0.681,-0.983 0.549,-0.412 z"
     inkscape:connector-curvature="0"
     style="fill:#cccccc;fill-opacity:1;stroke:#ffffff;stroke-width:0.5;stroke-opacity:1" />
  <path
     id="KR-50"
     class="land"
     d="m 181.14415,232.11768 1.557,2.18 -0.311,2.802 -2.18,0.623 2.803,3.425 v 2.803 l 0.45,1.349 3.332,0.195 -0.093,1.456 -0.825,1.82 1.078,1.14 -1.862,6.085 0.578,-0.781 0.399,-0.325 0.706,0.145 0.615,0.859 0.309,0.035 -0.328,3.278 -0.934,2.804 -3.425,1.557 -0.911,0.043 -2.515,0.579 0.313,8.719 -2.18,2.491 -1.703,-2.052 -1.748,-1.345 -1.211,-3.094 0.134,-4.035 -0.269,-2.825 -1.345,-3.901 -2.691,-1.479 -1.883,-2.556 -0.134,-2.018 1.076,-2.421 v -3.094 l -0.135,-3.498 -0.268,-3.363 0.672,-2.421 -0.269,-3.095 -0.538,-2.016 -1.076,-2.018 0.403,-1.75 2.691,-1.076 2.555,0.807 1.48,1.615 2.691,1.614 2.555,0.941 z"
     inkscape:connector-curvature="0"
     style="fill:#cccccc;fill-opacity:1;stroke:#ffffff;stroke-width:0.5;stroke-opacity:1" />
  <g
     id="layer1"
     inkscape:label="Vrstva 1"
     transform="matrix(0.2041212,0,0,0.19953289,186.28903,472.62951)">
    <circle
       transform="matrix(0.994318,0,0,0.994318,-275.5681,-427.0646)"
       id="path1306"
       style="fill:#ff1414;fill-opacity:0.78448277;stroke-width:10.19400024;stroke-miterlimit:4;stroke-dasharray:none"
       cx="340"
       cy="492.36218"
       r="62.857143" />
  </g>
</svg>
