<?xml version="1.0" encoding="UTF-8" standalone="no"?>
<svg
   xmlns:dc="http://purl.org/dc/elements/1.1/"
   xmlns:cc="http://creativecommons.org/ns#"
   xmlns:rdf="http://www.w3.org/1999/02/22-rdf-syntax-ns#"
   xmlns:svg="http://www.w3.org/2000/svg"
   xmlns="http://www.w3.org/2000/svg"
   xmlns:sodipodi="http://sodipodi.sourceforge.net/DTD/sodipodi-0.dtd"
   xmlns:inkscape="http://www.inkscape.org/namespaces/inkscape"
   version="1.1"
   id="svg23"
   sodipodi:docname="RLLC.svg"
   width="473.11993"
   height="666.32172"
   inkscape:version="0.92.4 (5da689c313, 2019-01-14)">
  <metadata
     id="metadata27">
    <rdf:RDF>
      <cc:Work
         rdf:about="">
        <dc:format>image/svg+xml</dc:format>
        <dc:type
           rdf:resource="http://purl.org/dc/dcmitype/StillImage" />
        <dc:title />
      </cc:Work>
    </rdf:RDF>
  </metadata>
  <sodipodi:namedview
     pagecolor="#ffffff"
     bordercolor="#666666"
     borderopacity="1"
     objecttolerance="10"
     gridtolerance="10"
     guidetolerance="10"
     inkscape:pageopacity="0"
     inkscape:pageshadow="2"
     inkscape:window-width="1920"
     inkscape:window-height="1017"
     id="namedview25"
     showgrid="false"
     fit-margin-top="0"
     fit-margin-left="0"
     fit-margin-right="0"
     fit-margin-bottom="0"
     inkscape:zoom="13.350176"
     inkscape:cx="434.0187"
     inkscape:cy="425.64959"
     inkscape:window-x="-8"
     inkscape:window-y="-8"
     inkscape:window-maximized="1"
     inkscape:current-layer="svg23" />
  <defs
     id="defs4">
    <style
       id="style2">.land{fill:#ccc;fill-opacity:1;stroke:#fff;stroke-opacity:1;stroke-width:.5}</style>
  </defs>
  <path
     id="NZ-AUK"
     class="land"
     d="m 341.75359,117.0217 1.04,-0.08 -0.69,0.82 0.41,1.36 -0.51,1.07 -1.66,-1.94 0.92,-0.08 -0.11,-1.2 z m -0.7,-4.24 0.89,0.08 0.42,0.66 -0.41,0.71 -0.5,-0.28 -1,0.67 0.46,1.46 -0.87,1.5 h -0.68 l -0.55,-0.03 -0.59,-0.31 -1.01,-0.21 -0.48,-0.36 0.35,-0.51 -1.4,-0.04 0.37,-0.59 -1.06,-0.77 -1.06,1.04 -0.05,-1.98 1.13,-0.2 0.09,0.84 1.68,-0.91 0.29,0.98 1.23,0.03 0.23,-1.08 1.64,0.06 z m -9.92,-0.98 0.76,0.58 -0.25,2.1 -0.64,0.65 -0.42,-0.6 -0.48,0.83 -1.97,0.14 -0.49,-0.82 0.44,-0.94 2.02,-0.07 1,-1.04 z m -2.95,-16.320001 1.48,1.16 -0.18,1.92 -0.41,-0.67 -1.19,0.45 0.22,-0.4 -0.92,-0.56 z m 9.88,-10.69 0.88,0.64 -0.65,2.39 -1.94,-0.57 0.05,-1.68 z m -17.87,-1.16 3.26,4.8 4,1.46 -0.03,0.72 -1.01,0.64 0.2,0.85 -0.63,-0.04 -0.19,0.03 0.39,1.45 0.63,-0.17 1.33,1.08 1.14,-0.2 -0.84,0.73 -0.97,-0.2 -1.24,0.65 -1.84,0.35 -0.52,-0.48 0.09,1.74 0.69,0.68 1.2,-0.05 -0.12,0.37 -1.24,1.44 -0.75,0.920001 0.2,-1.980001 -0.7,-0.38 -0.48,1.02 -0.53,0.77 1.24,0.660001 0.15,2.4 -0.88,-0.26 0.41,1.08 -0.6,0.03 -0.13,0.63 1.57,2.27 1.27,0.18 0.32,-0.96 2.55,-0.67 -0.19,1.31 -2.37,0.23 -0.54,0.85 -1.24,0.2 1.4,2.42 -0.54,0.93 1.01,3.51 1.46,2.04 -1.3,-0.13 0.52,-0.42 -1.11,-0.95 -0.95,0.9 -1.66,0.34 -1.38,-2.51 0.53,-1.05 -1.23,1.18 0.01,0.6 0.11,0.95 0.44,0.45 -0.09,1.82 1.38,1.4 0.46,-1.52 0.89,0.09 0.65,-0.9 1.66,0.28 0.23,1.03 0.62,0.12 0.44,-0.88 2.21,0.03 0.53,1.21 -1.14,1.84 1.81,-1.62 0.37,-0.08 1.87,1.87 1.16,-0.19 -0.3,-1.32 2.1,-0.35 1.25,1.49 0.41,0.41 0.94,1.57 1.47,-0.89 0.69,1.12 1.22,-1 2.25,1.33 1.36,2.22 -0.45,1.06 -2.59,0.74 -1.33,-1.09 -0.76,0.28 -0.07,1.88 -2.73,-0.31 -0.55,-0.86 -1.73,2.22 -0.81,2.68 -1.29,-0.05 -0.8,-0.77 -0.49,0.71 0.29,0.96 0.38,-0.4 0.94,0.98 0.97,2.03 -0.73,1.33 -2.34,-0.2 0.54,0.86 -0.63,0.5 -0.09,1.36 -2.61,-0.64 -0.09,1.36 -1.61,0.96 -1.89,1 -0.24,-0.43 -0.51,0.51 0.15,1.18 -0.65,0.57 -1.58,-1.47 -5.77,-13.3 -0.02,-1.26 0.98,-0.43 1.68,0.31 0.8,-0.64 1.24,0.4 0.23,1.21 -0.61,0.81 0.77,1.02 -0.27,1.62 1.09,0.38 0.74,4.16 1.08,0.2 -1.28,-3.88 0.9,0.35 0.83,0.23 1.72,-0.27 -3.39,-0.58 -0.61,-0.71 1.97,-0.58 1.39,-1.79 0.71,0.13 -0.14,0.92 2.39,-2.63 1,0.6 0.73,-0.37 0.21,0.76 1.09,-0.89 -0.94,-0.69 -0.69,0.72 -0.58,-0.17 -0.57,-0.2 -1.64,-1.99 -1.97,0.43 0.32,-0.49 -1.24,-0.8 1.29,-1.16 -0.72,-1.36 1.3,-0.27 1.11,0.67 0.44,-0.73 -1.51,-0.26 -0.71,-0.19 -1.65,0.71 -0.91,-0.61 -0.99,0.37 -1.88,2.19 -0.54,-0.33 -0.62,1.4 0.32,0.94 -1.49,-0.47 -0.25,-0.57 -0.38,1.1 -1.78,1.3 -1,0.06 -0.74,-4.9 -1.49,-3.39 -0.47,-3.38 -5,-8.68 -4.92,-7.06 0.27,-1.730001 1.26,-0.66 1.34,-0.32 2.6,4.800001 2.93,1.79 -0.48,1.78 0.43,0.23 1.04,0.96 1.28,-0.74 0.17,-0.65 -1.23,-0.62 0.44,-0.99 0.93,-0.43 -1.48,-3.780001 0.87,-2.79 -1.4,-1.3 -0.33,0.68 -1.04,0.28 -1.24,-1.32 -0.43,0.49 -1.35,-0.11 -1.13,-0.74 0.64,-3.13 0.6,-0.37 2.3,1.06 2,-0.81 0.25,-1.03 2.15,-1.76 0.54,0.38 0.39,-1.41 2.02,-0.75 0.12,-1.34 2,-0.76 0.1,-1.34 1.32,-1.02 z m 29.76,-4.42 0.64,0.44 -0.35,1.48 0.64,-0.37 0.13,0.99 0.8,0.08 -0.82,0.48 0.15,1.1 0.34,0.07 2.66,1.48 -0.85,0.94 0.14,1.56 -0.68,0.33 0.8,1.59 0.74,-0.01 1.33,1.38 0.29,1.08 -1.08,1.67 -1.97,-0.87 0.22,-0.63 0.58,0.15 -0.24,-0.96 -1.09,0.55 -1.06,-0.2 0.24,-2.31 -1.45,0.38 -0.27,-0.78 -0.55,0.07 -1.88,-1.55 -0.5,0.68 -0.4,-1.12 -0.03,-1.28 0.71,0.13 0.42,0.86 0.83,0.01 -0.45,-1 0.18,-0.81 -0.49,-0.52 0.62,-0.39 -1.78,-0.56 0.19,-0.67 0.52,0.47 1.84,-0.69 -1.37,-1.16 0.07,-1.25 z"
     inkscape:connector-curvature="0"
     style="fill:#cccccc;fill-opacity:1;stroke:#ffffff;stroke-width:0.5;stroke-opacity:1" />
  <path
     id="NZ-BOP"
     class="land"
     d="m 372.95359,148.0517 0.9,0.49 2.87,4.25 2.97,3.18 -0.36,0.44 -2.61,-2.4 -0.34,1.2 -1.67,-0.92 -0.09,-1.52 1.61,0.48 -3.42,-3.94 z m 9.66,80.28 0.99,-0.93 0.92,-0.09 0.04,-1.37 -0.73,-1.07 0.84,-1.15 -0.88,-1.28 -0.18,-2.64 -1.06,-0.12 -0.33,0.94 -1.47,-0.24 -2.01,-2.46 -0.76,-1.6 0.66,0.01 -0.99,-0.97 -0.47,-1.17 0.51,-0.2 0.26,-2 4.02,1.13 1.61,-1.44 -3.28,-3.85 1.29,-2.39 0.04,-1.36 0.51,-0.2 -3.24,-1.44 -0.77,0.3 -0.47,-1.17 -2.08,0.27 -0.32,-0.95 0.63,-0.51 -0.21,-1.26 1.06,0.13 2.31,-2.78 0.65,1.9 0.8,0.23 0.07,1.05 1.97,0.04 1.9,-1.01 -0.03,-0.52 1.17,-0.18 0.73,1.06 -0.92,1.97 2.29,0.99 1.25,-2.91 3.49,1.33 -0.32,-0.95 1.32,-5.63 -1.56,-1.81 -2.25,-0.47 -1.41,-1.6 -1.16,0.18 -1.49,-0.76 -0.07,-1.05 -0.43,-0.64 -0.51,0.2 -1.11,-3.06 0.51,-0.2 -1.14,-3.58 0.48,-0.72 -0.57,-0.85 -0.51,0.2 0.08,-0.83 -1.91,-1.4 -2.61,-0.06 -1.91,-1.41 -0.21,-1.26 -1.37,-1.08 -1.71,-0.15 -0.06,-1.04 -0.8,-0.23 -0.49,-1.68 1.39,-0.79 -0.68,-0.54 0.23,-0.62 -0.94,-0.44 0.23,-0.62 -0.71,-1.06 0.51,-0.19 -1.33,-0.56 0.76,-2.68 -0.94,-2.83 -2.54,-3.83 0.17,-1.66 -1.29,-2.45 1,-0.9 -1.01,-2.03 0.98,-1.42 0.98,1.51 1.56,-0.04 -0.59,-1.38 -0.51,0.19 -0.42,-0.65 0.86,-1.1 0.54,0.34 0.73,-0.79 -0.48,-1.16 0.63,0.04 0.33,-0.92 -0.54,-0.34 0.98,-0.35 -0.01,1.21 2.02,3.23 -0.54,0.12 -0.34,-0.88 -0.98,0.54 -0.53,1.69 0.76,0.04 0.01,-0.6 1.1,1.45 -2.26,0.97 1.3,0.99 -0.92,0.28 -0.24,0.91 0.75,-0.47 0.43,1.11 0.71,-0.85 0.28,0.89 -0.77,0.38 1.25,0.55 -0.42,0.62 0.35,0.77 1,-0.75 0.8,0.7 0.69,-0.58 -0.67,1.56 2.16,0.25 0.13,1.14 1.62,-1.28 0.69,0.46 -0.1,1.28 0.63,-1.32 0.28,0.97 -0.89,1.34 0.29,0.6 0.99,-1 1.78,0.25 0.21,-0.74 -0.85,-0.46 -1.36,-1.03 0.04,-1.42 -0.57,-0.38 0.33,-0.33 3.21,2.9 6.83,3.88 0.87,-0.24 0.57,-0.97 0.56,1.05 7.02,4.74 3.37,1.38 7.21,1.66 3.24,0.99 0.66,1.26 4.2,1.14 -2.89,-0.29 0.04,0.84 1.53,0.25 0.42,0.77 0.73,0.14 0.89,-0.6 -0.14,-0.98 9.13,-0.14 3.7,-1.74 -0.04,-0.74 2.38,-1.36 0.29,-1.17 1.17,-0.98 0.15,-1.3 0.95,-1.28 1.35,-1.16 1.44,-1.45 -0.61,-0.98 1.51,-0.82 0.79,-2.17 2.19,-0.16 1.25,-0.89 1.35,0.15 1.31,-1.08 0.75,-1.67 0.44,0.75 1.45,-0.13 1.53,-1.96 -0.32,-1.95 0.96,0.79 1.14,-0.56 1.67,0.11 1.02,2.64 -2.58,-0.04 -2.41,0.74 -0.21,0.62 1.05,3.28 -0.62,0.52 0.33,0.93 -0.73,0.84 0.89,1.24 1.61,-1.47 1.44,1.54 -4.04,4.1 -4.21,13 -0.51,0.21 -4.89,-4.41 -0.92,0.11 -0.45,-0.61 -0.77,0.32 1.25,2.16 -0.98,0.94 0.56,0.31 0.09,1.03 -1.28,0.52 -0.42,1.24 0.45,0.62 -2.19,0.63 -0.06,0.83 -1.81,1.14 -2.51,0.61 0.3,0.42 -0.61,0.52 0.74,1.04 -1.43,3.52 -8.89,4.6 0.7,4.29 h -0.66 l -0.58,1.04 -0.95,-0.43 -0.65,1.88 -0.77,0.31 0.29,0.42 -1.68,0.41 -0.8,1.68 -0.91,0.1 -0.04,-0.53 -1.52,0.61 -0.94,1.46 0.29,0.43 -1.55,1.97 -2.35,-0.15 -1.41,-1.6 -1.12,0.71 -0.55,-0.33 -0.98,0.93 -1.09,-0.65 -0.76,0.3 -0.44,1.25 -0.65,-0.01 0.18,0.74 -1.31,-0.03 -0.43,3.14 0.4,0.11 -0.73,0.82 0.3,2.32 -4.15,4.32 0.74,2.96 -6.44,0.09 -1.24,2.93 1.15,3.08 -1.21,-0.34 -1.8,0.71 1.03,1.5 -2.2,0.6 z"
     inkscape:connector-curvature="0"
     style="fill:#cccccc;fill-opacity:1;stroke:#ffffff;stroke-width:0.5;stroke-opacity:1" />
  <path
     id="NZ-CAN"
     class="land"
     d="m 245.93359,381.9817 0.4,1.58 -0.33,0.99 0.62,0.92 1.11,0.16 0.91,-0.63 0.57,0.36 0.09,1.12 1.06,-0.4 0.31,0.46 -0.75,0.86 0.13,1.69 0.47,0.69 1.1,0.16 0.04,0.56 -0.81,1.76 1.04,1.05 1.59,-0.61 0.62,0.92 -0.33,1 1.15,0.72 -0.33,1 1.31,0.95 1.37,0.06 -0.53,0.2 -1.03,2.43 1.1,0.16 0.79,-0.31 0.89,0.82 -0.33,1 0.73,0.59 0.79,-0.31 0.17,-1.23 3.22,-0.66 0.28,-1.56 1.32,-0.5 0.96,-1.53 -0.09,-1.12 0.94,-0.07 -2.61,-0.45 0.22,-0.66 0.94,-0.07 0.06,-0.89 3.58,-2.52 -0.2,-0.79 1.72,-0.37 0.22,-0.66 0.05,0.56 0.68,0.03 0.06,-0.89 2.09,-0.8 0.57,0.36 0.21,-0.66 1.04,-0.4 -0.2,-0.79 0.94,-0.07 -0.9,-2.84 0.89,-0.64 -0.09,-1.12 1,-0.97 1.35,0.05 0.91,-2.1 1.3,-0.51 0.06,-0.9 1.5,0.28 0.69,-1.44 2.18,-1.17 -0.2,-0.79 0.79,-1.78 1.08,0.14 1.1,2.17 1.1,-1.33 5.27,-1.05 0.76,1.14 3.25,-0.21 -0.41,1.89 -4.38,6.34 -0.56,1.99 0.45,2.29 -1.81,1.07 -3.23,3.98 -1.64,0.9 -0.63,0.84 0.04,1.14 -2.21,2.09 -0.34,2.41 1.49,1.05 -1.28,0.63 -0.73,-1.23 -2.06,0.41 -3.49,3.02 -1.11,3.46 0.82,0.45 -1.69,2.13 -4.28,10.86 -2.12,2.75 0.2,1.78 -3,3.68 -4.01,1.89 -2.27,3.29 -1.51,-0.21 -1.91,1.35 -4.16,1.39 -1.67,1.79 -0.97,0.04 -1.61,2.35 -1.97,4.59 -0.63,6.93 0.33,4.1 1.29,4.63 -0.24,0.28 -0.72,-1.9 -0.96,1.49 1.31,0.08 0.31,0.56 1.24,0.18 0.07,0.75 1.2,0.24 -3.32,1.22 -1.75,-0.13 -1.06,0.79 0.34,1.76 0.43,0.4 0.48,-1.45 0.25,1.03 0.63,-0.18 0.48,-1.48 0.96,-0.12 0.4,0.82 0.89,-1.19 0.22,0.37 1.75,-1.01 -0.58,2.92 0.4,0.27 1.52,-3.28 0.88,0.89 0.37,-0.25 0.76,0.51 -1.01,2.61 0.26,0.84 1.52,-3.5 0.62,0.88 0.56,-0.27 0.62,-0.06 0.64,0.42 -0.13,1.04 0.09,0.84 1.08,-1.18 1.03,-0.09 -0.48,0.5 1.16,0.9 -0.29,0.79 0.76,0.36 0.41,-0.83 0.89,0.91 -0.45,1.06 0.83,0.39 0.4,1.08 -0.05,1.61 -0.62,1.21 -0.65,0.35 0.25,1.46 -0.8,0.15 -0.16,0.91 -0.83,-0.83 -0.73,1.92 -2.72,0.79 -0.02,-0.72 -1.15,-1.12 0.24,-1.84 0.95,-0.97 -0.79,-0.06 -0.27,-0.67 0.93,-0.25 -0.12,-0.96 -0.79,-0.09 -0.34,-0.7 -0.88,0.67 0.35,2.42 -0.64,0.81 0.25,1.83 1.28,1.39 0.03,0.94 -1.4,-0.52 -0.93,0.45 -1.05,-0.58 -1.26,0.1 -0.52,-0.54 -0.39,-0.91 -0.8,0.33 -0.91,-0.93 -0.69,-1.08 -1.37,-0.27 -15.39,2.23 -12.13,5.49 -13.99,8.12 -7.87,5.62 -4.2,3.91 -3.29,4.53 0.68,0.69 -0.25,2.99 -2.3,4.16 -1.33,4.12 0.41,12.6 -1.02,5.87 -1.19,-0.46 -1.5,0.29 -2.28,-0.95 -0.8,0.33 -0.9,-0.88 -1.65,0.06 -1.59,-0.9 -1.23,0.19 -0.05,-0.6 -2.67,-0.48 -7.61,-3.46 -1.79,1.95 -0.51,2.37 -0.43,-0.14 -0.6,1.17 -2.15,0.85 -0.76,0.92 -0.58,-0.39 -1.46,0.88 -0.9,-0.88 0.02,-1.56 -1.12,-0.18 -0.76,0.92 -1.51,0.28 -0.32,-0.49 -1.3,1.13 -4.85,0.34 -0.2,-0.85 -0.86,-0.28 0.65,-0.56 -0.52,-1.34 -1.6,-0.92 -1.31,-2.58 0.18,-1.3 -2.15,-8.1 -1.99,-0.46 -2.12,1.43 -2.89,-1.35 -1.17,-4.46 -0.66,0.56 -0.02,1.54 -2.96,-0.4 0.75,-3.04 -0.95,-1.48 0.73,-1.5 -0.2,-0.84 -1.99,-0.47 -0.81,0.31 -1.33,-1.02 0.66,-0.55 -0.47,-0.74 0.89,-1.25 -0.63,-0.98 0.66,-0.55 -0.2,-0.84 0.66,-0.55 -0.31,-0.49 -0.36,-1.08 0.54,-0.2 0.05,-3.06 -1.57,-2.44 0.81,-0.3 0.3,-1.63 1.47,-0.85 -0.31,-0.49 0.93,-0.65 -0.2,-0.83 0.97,-0.06 -0.09,-1.17 0.81,-0.3 -0.2,-0.83 0.81,-0.3 0.3,-1.62 1.24,-0.16 -0.58,-3.99 0.81,-0.3 0.72,-1.47 0.7,0.04 0.41,-1.95 2.65,-1.6 0.83,-1.81 1.39,0.07 -0.09,-1.16 1.61,-0.61 0.22,-0.68 1.12,0.17 -0.09,-1.16 0.65,-0.55 -0.47,-0.72 1.23,-0.17 1.02,-0.99 -0.04,-2.09 2.24,-1.17 0.44,-1.37 -0.46,-2.22 2.02,-0.48 0.44,-1.36 1.22,-0.17 1.72,-2.45 1.65,-0.04 2.2,-1.73 0.95,1.42 1.88,-0.72 0.98,-1.56 1.23,-0.18 0.44,-1.36 1.88,-0.72 0.49,-0.78 0.48,0.71 1.24,-0.18 0.21,0.81 1.24,-0.18 0.06,-0.92 1.68,-1.54 -0.63,-0.94 1.03,-0.99 1.78,-0.39 -0.52,-1.28 2.1,0.09 1.58,-1.2 0.32,0.47 0.81,-0.31 0.07,-0.92 1.78,-0.39 0.02,-1.49 0.81,-0.31 1.38,-2.01 0.86,0.27 -0.07,0.92 1.51,-0.28 1.26,-1.67 0.07,-0.91 1.35,-0.52 -0.63,-0.94 1.19,-0.75 -0.2,-0.81 0.81,-0.31 -0.31,-0.47 1.01,0.5 0.65,-0.55 -0.2,-0.81 0.81,-0.31 0.31,0.47 1.58,-1.2 0.58,0.37 1.08,-0.41 -0.09,-1.15 0.92,-0.65 -0.4,-1.62 3.04,-2.05 -0.43,-0.13 0.23,-0.68 1.39,0.06 0.92,-0.65 1.28,0.39 -0.22,0.68 0.54,-0.21 1.3,-1.09 -0.31,-0.47 0.5,-0.78 0.85,0.26 1.03,-0.99 0.9,0.84 2.84,-0.81 1.01,0.5 1.99,-1.07 1.05,1.07 0.81,-0.31 1.41,-1.43 -0.74,-0.6 0.23,-0.68 1.07,-0.42 -0.06,-2.63 2.19,-0.26 1.19,-0.75 0.34,-1.02 1.23,-0.18 -0.13,-1.72 1.3,-1.09 0.29,-1.59 2.14,-0.83 -0.2,-0.81 1.76,-0.39 0.58,0.36 2.67,-1.03 -0.31,-0.47 0.53,-0.21 -0.31,-0.47 0.82,-1.79 2.25,-1.16 0.02,-1.48 1.94,-1.63 0.18,-1.24 2.02,-0.49 2.38,-2.96 2.13,-0.82 0.58,0.36 1.18,-0.74 0.09,-2.37 0.69,0.03 -0.09,-1.13 0.87,-1.2 -0.31,-0.46 1.75,-0.38 1.46,-2.3 1.86,-0.71 0.49,-0.76 -0.29,-1.92 1.28,-1.06 -0.4,-1.58 1.86,-0.7 0.2,0.79 z"
     inkscape:connector-curvature="0"
     style="fill:#cccccc;fill-opacity:1;stroke:#ffffff;stroke-width:0.5;stroke-opacity:1" />
  <path
     id="NZ-GIS"
     class="land"
     d="m 458.09359,150.9417 5.74,1.16 -0.97,1.09 0.26,0.83 0.68,0.29 0.93,0.94 1.2,0.59 4.19,0.34 2.25,1.66 0.46,0.94 -4.04,6.31 0.3,0.68 -1.79,1.54 -0.77,2.64 0.14,2.07 -2.18,2.45 -0.02,1.26 1.44,0.65 -0.39,0.9 0.43,1.22 -0.57,0.84 -1.44,0.51 -0.21,1.07 1.51,1.76 -0.7,0.74 -0.05,1.36 -1.03,0.75 0.96,1.23 0.03,1.07 -0.25,1.01 0.03,2.52 0.41,1.28 0.27,1.86 -1.36,0.85 -1.14,1.93 0.42,2.83 -3.4,2.74 -0.25,1.03 -1.57,1.27 -0.46,1.08 -0.8,-0.08 -1.81,1.37 -0.47,1.51 -2.18,-1.88 -1.61,0.57 -1.25,1.44 -0.23,1.89 1.51,0.35 -1.74,1.65 -0.6,1.92 0.32,1.78 -0.7,1.22 0.34,0.91 -0.47,3.29 -2.14,-0.68 -0.45,-0.63 0.59,-1.04 -0.46,-0.63 -0.63,0.52 -0.72,-0.52 0.07,-0.83 -1,0.94 -1.02,-0.95 -0.84,1.15 -0.35,-0.94 -0.37,0.42 -2.17,-0.22 0.31,-2.83 -0.73,0.84 -1.01,-0.94 -0.78,0.31 -0.3,-2.3 -1.08,-0.11 -0.89,0.63 -1.07,-1.98 -0.77,0.31 -1.03,-1.46 0.48,-0.73 -0.37,-1.46 -1.47,-0.21 -0.04,-0.52 -0.77,0.31 1.51,-3.03 -2.17,-0.74 -1.58,0.1 -1.8,-1.16 0.07,2.93 -7.09,-3.6 1.68,-0.41 -0.29,-0.42 0.77,-0.31 0.66,-1.88 0.95,0.43 0.58,-1.04 0.66,0.01 -0.7,-4.29 8.9,-4.6 1.43,-3.52 -0.74,-1.04 0.62,-0.52 -0.3,-0.41 2.51,-0.61 1.81,-1.14 0.06,-0.83 2.19,-0.63 -0.45,-0.62 0.42,-1.24 1.28,-0.52 -0.09,-1.03 -0.56,-0.31 0.98,-0.94 -1.25,-2.16 0.77,-0.31 0.45,0.62 0.92,-0.11 4.89,4.41 0.51,-0.21 4.21,-13 4.04,-4.1 -1.44,-1.54 -1.61,1.47 -0.89,-1.24 0.73,-0.84 -0.33,-0.93 0.62,-0.52 -1.05,-3.28 0.21,-0.62 2.41,-0.74 2.58,0.04 -1.02,-2.64 3.29,0.44 z"
     inkscape:connector-curvature="0"
     style="fill:#cccccc;fill-opacity:1;stroke:#ffffff;stroke-width:0.5;stroke-opacity:1" />
  <path
     id="NZ-HKB"
     class="land"
     d="m 397.71359,295.5617 -1.33,-0.08 -1.03,-0.97 -0.47,0.75 -2.11,-1.1 -0.21,0.65 -1.91,-0.35 -0.36,-0.98 -1.66,-0.45 0.21,-0.65 -0.98,-0.45 1.52,-1.17 -0.88,-0.77 0.53,-1.62 -0.87,-0.77 0.32,-0.97 -1.05,-2.94 0.8,-1.72 -1.28,-0.88 -0.5,-1.2 -0.82,-0.23 0.54,-1.61 -0.98,-0.44 -0.04,-0.54 -1.34,-0.01 0.22,-0.64 -1.17,-1.2 -1.08,-0.12 -0.04,-0.54 -2.16,-0.24 -0.74,0.85 -1.62,-1.85 1.17,-2.14 -0.71,-0.54 0.48,-0.75 -0.3,-0.43 0.85,-1.17 -0.56,-0.33 2.24,-7.25 -0.23,-1.28 0.52,-0.21 0.03,-1.39 0.89,-0.63 -1.56,-1.3 0.65,-1.91 -1.56,-1.3 1.7,-0.4 0.91,-2.01 1.18,-0.2 0.48,-0.74 2.06,-0.82 0.81,0.22 -0.8,-3.51 0.48,-0.74 -0.41,-0.11 0.99,-0.94 -0.45,-0.64 0.66,0.01 -0.04,-0.53 -1.26,-0.86 -1.33,-0.02 -0.19,-0.74 0.52,-0.2 0.03,-1.38 1.14,-0.72 -0.41,-2.02 -1.81,-1.19 -1.58,0.08 -1.1,-2.56 v -1.9 l 0.07,-0.84 2.17,-1.13 -0.29,-0.43 4.23,3.77 2.2,-0.6 -1.03,-1.49 1.8,-0.71 1.21,0.34 -1.15,-3.08 1.24,-2.93 6.44,-0.09 -0.74,-2.96 4.15,-4.32 -0.3,-2.32 0.73,-0.82 -0.4,-0.11 0.43,-3.14 1.31,0.03 -0.18,-0.74 0.65,0.01 0.44,-1.25 0.76,-0.3 1.09,0.65 0.98,-0.92 0.55,0.33 1.12,-0.71 1.41,1.61 2.35,0.15 1.55,-1.97 -0.29,-0.43 0.94,-1.46 1.52,-0.61 0.04,0.53 0.91,-0.1 0.8,-1.67 7.09,3.61 -0.07,-2.93 1.8,1.16 1.58,-0.1 2.17,0.74 -1.51,3.03 0.77,-0.31 0.04,0.52 1.48,0.21 0.37,1.46 -0.48,0.73 1.03,1.46 0.78,-0.31 1.07,1.98 0.89,-0.62 1.08,0.11 0.31,2.3 0.78,-0.31 1.01,0.95 0.74,-0.84 -0.3,2.83 2.17,0.22 0.37,-0.42 0.35,0.94 0.85,-1.15 1.02,0.95 1,-0.93 -0.06,0.83 0.72,0.53 0.63,-0.52 0.46,0.63 -0.59,1.04 0.45,0.63 2.14,0.69 -0.54,2.26 0.6,2.72 0.57,0.67 1.25,0.46 0.51,-0.33 1.67,1.06 -3.04,2.98 -0.72,3.08 -1.7,1.94 -0.84,-4.15 -0.84,-1.28 0.64,-0.33 1.39,-3.46 -1.2,-1.22 -0.72,0.92 -2.98,-1.08 -3.1,-0.28 -9.95,0.65 -8.38,3.06 -4.31,2.23 -1.82,1.56 -0.87,3.16 -2.97,3.64 -1.11,0.56 -1.18,2.5 -0.41,2.72 0.6,1.42 1.41,-0.35 -0.04,3.96 1.76,3.69 2.42,1.26 1.85,-0.8 0.74,0.5 -3.11,4.45 -0.88,3.43 0.47,2.13 -2.86,4.74 -1.73,4.58 -0.33,1.5 0.58,1.1 -0.89,1.19 0.04,1.53 -1.03,0.62 -2.27,4.14 -0.31,-0.38 -1.59,0.57 -2.37,1.92 -0.2,2.93 z"
     inkscape:connector-curvature="0"
     style="fill:#cccccc;fill-opacity:1;stroke:#ffffff;stroke-width:0.5;stroke-opacity:1" />
  <path
     id="NZ-MBH"
     class="land"
     d="m 310.29359,329.4317 0.46,0.29 -0.06,1.28 -0.98,4.39 -0.91,-0.59 -0.72,1.03 -0.59,-0.55 -1.05,0.39 -1.13,1.44 h -0.84 l -0.14,-0.76 -0.72,0.75 -1.86,0.33 1.25,-1.74 1.44,0.33 0.9,-0.66 0.41,-0.34 -0.58,-0.18 0.32,-0.58 1.19,0.02 0.08,-0.79 1.17,-0.34 -0.34,0.86 1.13,-0.04 -0.31,-0.43 1.21,-0.64 0.37,-1.54 -1.15,1.05 -0.61,0.05 -1.64,-0.26 0.68,-0.78 1.13,0.15 0.96,-0.64 z m -11.69,-7.59 0.24,1.51 -1.07,1.33 -0.42,-0.85 0.99,-1.12 -0.95,-0.3 z m -3.41,-1.56 1.15,0.04 -0.35,1.33 -0.69,0.56 -0.42,-1.8 -0.59,0.05 -0.48,0.49 0.6,0.06 -0.3,0.65 -0.62,0.39 0.25,1.13 -0.38,0.33 -0.84,-0.55 -1,0.79 0.15,0.56 1.04,-0.28 -0.42,0.67 -1.13,0.63 -0.5,-0.31 -0.57,0.98 -1.76,-0.07 0.4,-1.57 -0.93,1.28 -0.71,-0.37 -0.49,0.69 1.47,0.63 -1.63,1.06 0.71,0.18 -0.3,1.53 -0.27,0.39 0.02,0.58 0.53,0.29 -0.25,-0.65 0.55,-0.26 0.56,-0.05 0.84,-2.02 1.06,0.54 0.4,-0.52 0.62,0.45 1.15,-0.36 1.51,0.38 -1.71,0.36 -0.2,0.77 -1.31,-0.26 -0.39,0.95 1.14,0.16 -0.18,1.08 -1.48,-0.38 0.32,0.93 -0.84,0.19 0.19,0.47 -2.29,0.46 0.3,1.07 2.43,-1.15 -0.75,1.08 1.12,-0.23 0.29,1.16 -0.85,1.4 0.22,1.22 -1.07,0.45 -1.1,-0.76 0.42,0.94 -1.74,0.49 0.47,1.06 0.29,-1.11 1.07,1.24 1.36,0.24 0.28,-0.53 -0.87,0.26 -0.66,-1.06 2.28,-0.46 2.31,-1.65 -1.76,0.29 -0.86,-0.14 0.08,-0.42 3.27,-0.96 0.04,0.56 0.88,0.31 1.72,-0.99 0.73,0.15 -0.5,-0.77 2.08,0.43 1.89,-1.16 -2.7,0.37 -0.47,-0.22 0.19,-0.83 -2.25,1.18 -0.63,0.58 -0.1,-1.05 -1.55,1.3 -1.19,-0.06 -0.98,0.65 0.31,-1.62 0.62,-0.5 -0.74,-0.06 -0.38,-1.36 2.07,-0.83 -0.79,-0.18 0.27,-0.6 0.86,0.24 0.14,-1.56 0.39,0.3 1.25,-0.62 -0.96,1.9 0.61,1.86 0.29,-1.16 0.77,0.4 0.03,-1.73 0.65,-0.39 1.04,0.95 0.32,-0.34 -1.04,-2.02 0.23,-0.59 0.85,-0.1 0.08,-1.68 -0.56,0.31 -0.99,-0.5 -0.71,1.05 -1.06,0.35 -1.16,-0.27 0.76,-0.46 -0.68,-0.63 2.03,-0.16 -0.91,-1.21 0.27,-0.43 0.96,0.53 -0.06,-1.27 0.79,-0.2 0.31,0.57 -0.39,0.54 0.38,1.5 0.52,-0.33 0.42,0.43 0.79,-1.1 -0.05,0.92 0.68,0.2 0.94,1.77 -0.41,-2.96 1.76,1.28 0.04,-1.16 0.76,-0.71 0.72,1.41 1.96,-1.32 -0.54,1.22 -0.84,0.16 0.14,1.45 -0.39,0.13 -0.19,-0.67 -0.65,0.72 2,1.43 0.88,-1.6 0.73,0.15 0.4,-0.74 1.1,0.3 -0.99,0.49 -0.05,1.26 -1.46,1.22 0.58,0.66 -0.11,0.91 -0.87,-0.56 -0.59,0.35 -0.04,0.75 -0.86,0.32 0.39,-0.77 -0.55,-0.05 -0.07,-1.79 -0.64,1.43 -0.67,-0.38 0.07,0.93 0.72,0.47 -0.21,0.71 1.53,0.2 -0.6,1.04 0.6,-0.08 0.11,0.61 -1.31,0.93 0.08,-0.87 -0.73,-0.6 0.15,2.08 -1.16,-0.48 -0.05,-0.6 -0.47,0.64 0.26,0.77 -0.56,0.1 -0.43,-1.02 -0.69,1.43 -0.5,-0.37 0.26,-0.87 -0.59,0.53 -0.31,-0.31 -0.65,0.06 -0.56,0.83 -0.63,-0.48 -0.05,1.35 -1.05,-0.91 0.06,1.39 -2.31,0.58 -0.31,0.71 4.07,-1.02 -0.01,1.43 1.03,-1.65 1.15,-0.13 0.67,-0.27 2.46,-0.76 -0.45,1.32 0.62,-0.47 0.34,0.72 0.67,-0.64 0.96,1.35 0.34,-0.51 -0.98,-0.74 0.47,-0.41 0.55,0.57 1.41,-0.55 1.08,-0.05 -0.04,-0.58 1.42,-0.93 -0.86,1.06 0.3,0.78 -0.8,0.43 0.33,0.59 -1.04,-0.04 -1.25,1.19 0.79,0.85 -0.31,0.6 -0.92,0.28 -0.45,-0.74 -0.38,1.37 -1.47,0.1 0.16,0.64 -1.05,0.06 -0.25,-0.5 0.83,-0.49 -0.27,-0.47 0.76,0.13 1.18,-1.75 -1.12,-0.28 0.11,0.59 -0.95,0.78 0.41,-1.55 -1.26,0.73 -0.32,1.79 -1.58,2.85 -0.62,0.1 -0.81,2.52 0.13,2.04 2.18,2.57 -1.16,0.43 -0.05,0.81 1.19,0.37 1.38,-0.6 0.95,0.54 0.72,2.43 -0.33,3.32 0.84,2.14 1.25,0.96 0.4,-0.31 1.42,0.65 0.72,-0.37 -0.11,0.98 -2.24,2.42 -0.11,1.02 -2.02,3.16 -4.36,4.88 0.41,-1.89 -3.25,0.21 -0.76,-1.14 -5.27,1.05 -1.1,1.33 -1.1,-2.17 -1.08,-0.14 -0.79,1.78 0.2,0.79 -2.18,1.17 -0.69,1.44 -1.49,-0.28 -0.06,0.9 -1.3,0.51 -0.9,2.1 -1.35,-0.05 -1,0.97 0.09,1.13 -0.89,0.64 0.9,2.84 -0.93,0.07 0.2,0.79 -1.04,0.4 -0.21,0.66 -0.57,-0.36 -2.09,0.8 -0.06,0.89 -0.68,-0.03 -0.05,-0.56 -0.21,0.66 -1.72,0.37 0.2,0.79 -3.58,2.52 -0.06,0.89 -0.94,0.07 -0.22,0.66 2.62,0.45 -0.94,0.07 0.09,1.12 -0.96,1.53 -1.32,0.51 -0.28,1.56 -3.21,0.66 -0.17,1.23 -0.79,0.31 -0.73,-0.59 0.33,-1 -0.88,-0.82 -0.79,0.31 -1.1,-0.16 1.03,-2.43 0.53,-0.2 -1.37,-0.05 -1.3,-0.95 0.33,-1 -1.15,-0.72 0.33,-1 -0.62,-0.92 -1.59,0.61 -1.04,-1.05 0.82,-1.76 -0.04,-0.56 -1.1,-0.16 -0.46,-0.69 -0.13,-1.69 0.75,-0.86 -0.31,-0.46 -1.06,0.4 -0.09,-1.12 -0.57,-0.36 -0.91,0.63 -1.1,-0.16 -0.62,-0.92 0.33,-0.99 -0.4,-1.58 0.53,-0.2 -0.35,-1.02 0.51,-2.21 0.95,-0.07 1.02,-0.96 -0.35,-1.02 1.17,-0.73 0.29,-1.55 1.32,-0.5 0.07,-0.89 0.53,-0.2 0.22,-0.66 -1.03,-1.05 0.33,-0.98 0.79,-0.3 -0.09,-1.11 2.88,-3.09 -0.81,-1.7 0.37,-0.43 0.72,0.59 2.06,-1.35 2.19,-3.12 -0.02,-1.99 2.63,-1.01 0.07,-0.88 0.68,0.03 0.7,-1.41 -0.04,-0.56 0.29,-1.54 0.57,0.35 1.57,-0.61 0.98,0.48 1.98,-0.49 -0.5,-1.24 -1.59,-1.38 0.96,-1.52 0.78,-0.31 -0.39,-1.56 2.09,-0.83 0.8,-1.75 2.29,-1.5 -0.14,-1.67 2.09,-2.3 0.43,-1.33 1.19,-0.2 0.32,-1 1.97,-0.52 0.49,-2.21 -0.35,-1.01 0.93,-3.53 1.25,1.06 -0.84,1.18 1.23,-0.72 0.21,1.06 0.5,0.1 0.38,-0.49 -0.45,-1.23 2.3,-0.5 0.05,-0.48 1.51,-0.64 -0.88,0.06 0.2,-0.72 -2.17,1.2 -0.71,-1.06 1.12,-1.12 0.73,-0.54 0.28,0.48 0.36,-0.87 0.5,0.46 0.67,-1.63 0.54,0.84 0.7,-0.28 -0.44,-0.94 0.9,0.12 -0.14,-0.81 0.97,-0.39 0.22,-1.11 0.78,0.32 -0.88,2.7 1.07,0.27 0.88,-1.61 0.57,0.18 0.79,-0.91 -0.44,-0.78 1,-0.12 1.81,-1.88 z m -1.44,-11.18 0.44,0.8 -0.31,2.88 -0.68,0.53 0.13,1.07 -1.56,3.32 -1.28,0.61 -1.49,2.46 -2.3,1.08 0.86,-2.59 -1.08,0.44 0.44,-3.32 0.45,1.21 1.54,0.56 0.47,-0.3 -1.32,-0.69 -0.32,-1.94 1.26,-2.11 -0.36,-0.79 1.28,-0.56 0.5,-0.88 0.5,0.52 -0.87,1.61 0.51,0.37 -0.3,1.57 1.04,-1.48 1.26,0.31 0.21,-0.82 -1.86,0.03 2,-1.53 0.06,-0.59 0.51,0.06 z"
     inkscape:connector-curvature="0"
     style="fill:#cccccc;fill-opacity:1;stroke:#ffffff;stroke-width:0.5;stroke-opacity:1" />
  <path
     id="NZ-MWT"
     class="land"
     d="m 396.38359,295.4717 1.33,0.09 0.42,1.29 -0.41,1.91 -2.28,0.28 -3.2,2.26 -0.41,1.67 -2.15,1.64 -1.55,3.24 -2.56,2.53 -1.72,3.29 -0.25,-0.82 0.47,-0.75 -0.99,-0.46 -0.57,-1.76 -2.34,-0.48 -0.79,-1.1 -0.78,0.31 -1.67,-0.46 -0.1,1.74 -0.42,-0.11 0.31,0.43 -1.62,0.09 -1.15,-0.66 -0.58,1.08 -1.1,-0.12 0.21,0.76 -1.2,0.21 -0.42,1.3 -0.89,-0.77 -1.52,1.18 -0.88,-0.77 -0.37,0.43 -0.58,-0.34 -0.73,0.87 -1.67,-0.46 1,-2.38 -0.58,-0.34 0.37,-0.43 -0.73,-0.55 -0.37,0.43 -0.73,-0.55 -1.88,0.19 -0.31,0.98 0.05,0.54 -0.84,-0.23 -0.32,0.98 -1.3,0.53 -5.84,-3.02 -1.26,2.48 -1.77,-0.14 -0.88,-0.78 -0.78,0.32 -0.16,1.19 -1.51,-0.24 -1.67,0.94 -1.14,-0.67 -0.62,0.53 -1.24,-0.36 -0.21,-0.76 0.94,-0.09 -0.05,-0.54 -1.4,-0.58 -0.06,-0.54 -1.3,-0.14 1.06,-2.22 2.18,-9.44 0.31,-8.91 -1.18,-6.88 -1.88,-4.02 -4.61,-5.98 -5.08,-4.35 -3.85,-1.32 -0.78,0.18 -0.66,-0.44 1.68,-2.44 1.5,-0.24 0.36,-0.94 1.44,-0.81 -0.04,-0.54 1.72,-0.39 -0.29,-0.44 0.63,-0.52 -0.6,-0.88 0.49,-0.74 -0.3,-0.44 2.58,-1.02 -0.99,-0.99 0.52,-0.21 -0.54,-2.27 1.15,-2.67 -1.13,-1.2 -0.39,-2.05 -0.92,0.08 -1.87,-2.3 0.23,-0.63 -1.02,-1.53 0.66,0.02 -0.03,-0.54 0.34,-0.96 -1.54,-1.32 -1.07,-0.13 -0.32,-0.98 1.83,-2.63 0.05,-1.39 0.95,0.45 0.49,-0.73 0.81,0.23 -0.29,-0.43 1.6,-1.99 -0.55,-0.34 0.77,-0.3 -0.54,-0.33 1.69,-0.39 -0.58,-0.87 0.92,-0.08 -0.29,-0.44 0.66,0.02 -0.29,-0.43 0.74,-0.84 2.13,0.27 -1.27,-1.42 0.23,-0.63 -3.31,-0.09 0.08,-0.85 0.52,-0.2 -0.93,-2.37 -0.92,0.09 -0.23,0.63 -0.46,-1.18 -1.17,0.18 -0.29,-0.44 0.48,-0.73 -0.54,-0.33 0.48,-0.74 -0.58,-0.86 0.46,-1.27 -0.83,-0.77 -1.26,1.03 -1.01,-1.52 -0.34,-1.5 0.37,-0.41 -0.72,-1.09 0.92,-0.08 0.31,-1.48 1.8,-0.69 1.51,-1.12 1.58,-0.06 -0.32,-0.97 0.82,-1.67 0.41,0.11 -0.5,-1.71 1.98,0.06 1.54,-0.59 1.11,-1.24 0.95,0.45 0.74,-0.82 0.95,0.45 1.43,-0.28 1.09,0.67 1.28,-0.5 0.23,-0.62 0.91,-0.09 0.71,-1.35 0.95,0.45 -0.2,-1.27 0.85,-1.14 0.49,1.7 1.55,-0.59 0.22,-0.63 1.43,-0.28 1.09,0.67 2.09,-0.27 1.55,1.84 2.72,-0.78 0.99,-0.92 -0.39,2.31 -1.99,1.85 0.32,0.96 -0.45,1.25 -2.04,3.23 0.9,1.82 0.52,-0.2 1.01,1.5 -1.45,2.19 1.6,2.37 -1.19,2.09 0.36,1.49 2.61,-0.47 2.12,0.26 -1.47,1.66 -0.05,1.38 -1.29,0.51 0.55,0.33 -0.45,1.26 1.39,1.09 -0.75,2.75 -2.93,5.8 4.3,1.04 1.44,-0.3 1.62,0.46 0.23,-0.64 2.17,0.79 1.22,-1.58 1.18,-0.19 -0.59,-0.86 1.51,-1.14 0.22,-0.63 -0.55,-0.33 3.09,-1.22 0.3,-1.48 4.38,0.18 2.42,-1.23 1.36,0.55 v 1.91 l 1.11,2.56 1.58,-0.08 1.81,1.19 0.41,2.01 -1.14,0.73 -0.03,1.38 -0.52,0.2 0.19,0.75 1.33,0.01 1.25,0.87 0.04,0.53 -0.66,-0.01 0.45,0.64 -1,0.95 0.41,0.11 -0.48,0.73 0.8,3.52 -0.81,-0.23 -2.07,0.83 -0.47,0.74 -1.19,0.2 -0.91,2.01 -1.7,0.4 1.56,1.3 -0.65,1.91 1.57,1.3 -0.89,0.63 -0.02,1.38 -0.52,0.21 0.23,1.28 -2.24,7.25 0.56,0.33 -0.85,1.17 0.31,0.43 -0.48,0.75 0.71,0.54 -1.17,2.14 1.62,1.84 0.74,-0.85 2.16,0.24 0.04,0.54 1.09,0.12 1.17,1.2 -0.22,0.64 1.34,0.02 0.05,0.54 0.97,0.44 -0.53,1.61 0.82,0.23 0.5,1.19 1.29,0.89 -0.63,0.53 -0.17,1.19 1.06,2.94 -0.33,0.97 0.88,0.77 -0.54,1.62 0.88,0.77 -1.51,1.18 0.98,0.44 -0.21,0.65 1.66,0.45 0.36,0.98 1.91,0.35 0.21,-0.64 2.11,1.1 0.47,-0.74 z"
     inkscape:connector-curvature="0"
     style="fill:#cccccc;fill-opacity:1;stroke:#ffffff;stroke-width:0.5;stroke-opacity:1" />
  <path
     id="NZ-NSN"
     class="land"
     d="m 268.66359,337.7117 -1.27,0.88 -0.13,-0.53 -2.77,2.22 0.56,0.32 -0.66,1.25 1.07,0.98 3.02,-1.74 -0.57,-2.04 0.42,-0.67 0.67,0.46 0.81,-1.11 -0.77,-1.31 z"
     inkscape:connector-curvature="0"
     style="fill:#cccccc;fill-opacity:1;stroke:#ffffff;stroke-width:0.5;stroke-opacity:1" />
  <path
     id="NZ-NTL"
     class="land"
     d="m 256.88359,0.32169892 1.62,1.07999998 -1.71,0.56 0.01,3.83 -1.62,0.63 0.19,-1.31 -1.87,-0.14 -0.65,0.48 0.63,0.67 -1.85,-0.03 0.79,0.66 -0.85,0.65 1.63,0.04 1.17,-0.75 -0.46,1.27 1.09,0.12 0.39,0.8 0.03,0.38 -0.5,0.7500001 0.63,0.21 0.42,-1.3900001 -1.24,-1.82 1.26,-0.23 1.93,6.8000001 1.58,2.11 1.53,0.87 2.27,3.11 -0.26,1.09 -0.52,-0.09 -0.9,-0.77 -0.33,-1.35 -0.79,-0.44 0.71,2.24 0.99,0.21 1.87,2.25 3.33,1.04 -0.45,1.45 -1.16,0.67 0.14,2.8 0.83,-0.98 0.14,1.13 1.52,0.29 -0.13,-0.58 -0.81,0.07 0.26,-1.18 0.94,-0.74 0.25,0.93 0.61,-0.84 -1.92,-4.36 2.36,-0.33 1.61,-0.91 0.39,-2.6 0.64,0.75 -0.06,1.69 1.45,-0.44 -0.3,0.56 1.13,0.66 -2.23,1.52 -1.35,-0.22 -0.37,0.93 0.57,2.24 1.18,1.49 0.74,0.5 3.21,0.2 0.9,-1 -0.53,-0.91 1.22,-1 0.07,-0.76 1.02,1.26 1.4,-0.07 0.96,1.38 1.81,-0.89 0.6,0.32 0.28,1.95 0.6,0.42 0.81,0.48 -0.41,1.15 -1.27,0.61 0.59,1.08 1.01,-0.03 0.03,-1.72 0.7,0.62 0.44,-0.62 -0.2,-0.88 -0.65,-0.18 0.26,-0.41 1.49,-0.23 0.67,-0.75 0.41,0.74 1,0.02 0.27,0.81 0.91,0.14 0.51,-0.62 0.93,0.87 -0.28,0.49 1.06,0.75 -0.53,0.34 0.5,1.73 1.07,1.07 4.16,-0.4 0.94,1.86 1.09,0.26 -0.13,0.76 h -1.37 l -0.8,1.06 -1.1,-1.24 -1.19,-1.33 -0.99,0.77 0.82,0.07 0.58,1.14 -0.13,0.35 -1.59,0.88 3.76,0.19 -0.5,0.83 0.93,0.67 -0.06,1.51 0.89,0.46 -0.02,0.89 1.19,0.58 0.36,0.24 1.42,-0.46 1.48,0.75 -1.12,-1.17 -2.46,0.19 -0.58,-1.03 1.36,0.04 -1.25,-1.24 0.14,-0.86 2,1.72 0.74,-0.22 0.81,0.54 0.16,-1.46 1.29,-0.8 0.29,-0.86 1.19,0.43 0.41,-1.92 1.21,-0.16 0.37,-0.57 0.2,1.04 -0.76,0.12 -0.48,0.63 0.55,0.17 -0.23,0.4 -0.97,0.59 1.27,0.98 -1.07,0.12 -0.01,0.71 1.68,2.57 1.53,-0.35 -0.19,0.72 -0.9,0.05 1.03,0.52 0.22,0.73 -0.43,0.96 -0.57,-0.37 -0.09,-1.17 -0.62,0.1 -0.27,-0.64 -0.4,1.07 0.78,0.23 0.62,2.38 0.64,-0.07 -0.4,1.1 1.2,-0.3 0.54,0.64 0.57,-0.37 -0.21,-0.52 0.61,0.17 -0.18,1.28 1,0.58 0.07,1.07 0.56,-0.21 0.46,1.23 -0.14,0.4 -0.49,-0.53 -0.32,0.5 0.69,1.75 1.44,0.01 1.01,1.13 -0.02,2.94 -0.89,-0.5 -0.39,1.92 0.78,2.05 1.74,0.14 -0.65,0.55 0.45,0.73 -0.1,0.93 -0.49,1.14 1.7,3.2 -1.43,0.34 -1.23,-0.48 0.47,-0.32 -0.43,-0.91 -1.12,0.12 0.28,-0.76 -0.57,-1.17 -0.44,-0.73 -1.8,0.37 -1.78,-0.9 -0.98,0.71 -0.37,-1.3 -0.91,0.78 0.55,1.98 -0.49,0.39 0.61,0.38 0.88,-1.66 0.36,1.34 2.15,0.56 0.88,-0.45 0.75,0.87 1.15,0.05 -1.15,1.49 -0.36,3.87 1.56,3.68 1.3,1.05 1.84,-0.27 0.74,1.89 -0.05,0.63 0.66,1.3 -1.32,1.02 -0.1,1.34 -2,0.76 -0.12,1.34 -2.01,0.75 -0.14,0.56 -0.25,0.85 -0.54,-0.37 -2.15,1.76 -0.69,-0.22 -0.26,-0.36 -1.29,1.96 -1.04,-0.13 -0.52,-1.06 -1.17,-0.29 -0.02,-1.18 1.44,-0.89 0.64,1.1 1.35,0.38 -1.45,-1.8 2.15,-1.53 0.45,-3.3 -0.96,3.19 -2.01,1.11 0.07,-1.04 -0.75,0.36 -1.22,-1.34 1.09,-0.29 -1.22,-0.25 -0.3,0.54 -0.74,-0.57 -0.04,-1.22 0.68,-1.19 -0.8,0.57 -0.4,-0.31 -0.96,0.09 -0.03,1.82 0.59,-0.41 1,1.12 -1.07,-0.27 -0.19,0.52 0.99,0.84 1.29,-0.54 1.24,2.14 -0.73,-0.19 -1,0.68 0.04,0.54 -0.9,0.24 -1.14,-1.51 -0.56,0.19 -1.18,-1.08 -1.27,-2.1 -2.36,0.13 -2.9,-2.49 1.96,3.06 1.38,0.84 1.01,2.1 2.31,1.49 0.94,2.83 0.05,1.36 -1.48,1.26 -3.83,0.27 -1.31,-2.46 -0.48,-3.42 -3.66,-6.44 -21.14,-28.34 0.12,-0.7 0.79,0.02 0.15,-1.36 0.79,-0.93 -0.36,-0.61 0.59,-0.14 0.24,-2.37 1.78,-0.77 1.06,0.74 0.36,-1.32 0.56,0.75 1.44,-1.66 0.04,-0.76 1.04,0.12 0.22,-0.62 -1.73,-0.51 -0.69,2.44 -1.01,-0.55 -0.8,1.24 -2.48,-0.14 -0.69,0.67 0.33,0.91 -0.78,0.09 -0.51,3.97 -0.69,0.35 -5.64,-6.89 -2.28,-3.74 0.35,-0.33 -4.17,-4.66 0.37,-1.42 2.66,0.6 1.34,-1.9 0.25,-3.52 -1.14,-3.62 -3.16,-5.38 -8.34,-11.61 -4.6,-4.6300001 -1.06,-0.21 -0.61,-1.65 -1.31,-0.66 0.94,-2.64 5.13,1.58 1.55,-0.9 0.22,-0.97 4.36,0.54 z"
     inkscape:connector-curvature="0"
     style="fill:#cccccc;fill-opacity:1;stroke:#ffffff;stroke-width:0.5;stroke-opacity:1" />
  <path
     id="NZ-OTA"
     style="fill:#cccccc;fill-opacity:1;stroke:#ffffff;stroke-width:0.5;stroke-opacity:1"
     d="m 127.73356,480.60156 -2.05079,0.46094 -1.54882,-0.32031 -0.45118,1.36914 0.63086,0.9707 -0.57031,1.70899 -1.93945,0.12109 -1.15039,1.33008 -1.66992,0.01 -0.46094,1.36914 -2.78906,1.94141 -1.60938,-0.91992 -0.88086,-2.40039 -1.08984,0.40039 0.32031,0.48828 -0.55078,0.20117 -0.18945,1.2793 -0.82032,0.30078 -3.78906,-0.13086 -0.67969,-1.57031 -2.57031,1.24023 0.0391,0.58985 -2.5,0.30078 0.20117,0.83984 -1.64062,0.59961 0.51953,1.33008 -1.20898,0.75 0.35937,1.08984 -3.71094,1.05078 -0.0684,0.93946 -0.82031,0.30078 0.24024,1.43945 -1.04102,3.13086 0.32031,0.48828 -1.27929,1.70117 -0.94141,0.65039 -1.59961,1.19922 0.20117,0.83985 -1.73047,-0.58985 -0.4707,-0.74023 -1.09961,0.40039 -2.89062,2.91016 -0.85938,-0.29102 -2.18945,0.81055 -1.44141,1.46093 -3.330076,0.61914 -1.019532,-0.53906 -0.820312,0.3086 -1.808594,0.13086 -2.230468,2.35937 0.279296,2.04102 -0.548828,0.19921 0.199219,0.84961 -0.820313,0.31055 -0.548828,2.34961 0.03906,0.59961 -0.509766,0.80078 0.589844,0.40039 -1.060547,1.00977 0.310547,0.5 -0.390625,0.44922 0.669922,1.60156 0.550781,-0.20117 0.310547,0.5 -0.550781,0.20117 -0.03906,1.54883 -0.240234,0.70117 -0.791016,0.9082 0.201172,0.85156 -1.691406,0.01 v 2.16016 l -0.548828,0.19921 1.138672,2.35938 -0.46875,1.41016 1.458984,0.70117 0.669922,1.60937 1.070312,1.15039 1.230469,1.40039 2.208985,-0.82031 0.470703,0.75 -0.789063,0.91016 0.429688,0.15039 -0.429688,2.01953 -0.990234,0.0606 0.03906,0.60937 -0.548828,0.19922 0.31836,0.5 -0.548829,0.21094 -0.240234,0.70898 -0.910156,1.27149 1.029297,0.54882 -0.398438,0.46094 1.06836,1.16016 -0.388672,0.45898 0.320312,0.5 1.779297,1.19922 -0.509766,0.81055 0.789063,1.25976 -0.308594,1.67969 0.830078,1.8711 5.369146,-0.14063 3.19922,-0.88867 0.90039,-1.28125 1.81054,-0.36914 1.28907,-1.74024 1.10156,-0.41992 0.58984,0.40039 -0.39062,0.45899 0.83984,1.87109 0.13086,1.81836 -0.50977,0.82031 1.29883,0.44141 1.07032,1.1582 0.99023,-0.0586 0.14062,4.00976 0.83008,-0.31054 1.18946,0.80078 -0.041,-0.61133 0.83008,-0.30859 0.58984,0.40039 -0.0684,0.96875 0.86914,0.29101 0.93946,-0.66992 4.08984,-8.12109 2.27148,-1.79883 0.94922,1.50976 0.0899,1.21875 2.05078,1.08985 0.55859,1.9707 0.64063,1.00977 0.55078,-0.20899 0.67969,1.60938 -0.50977,0.82031 -1.81055,0.37891 -0.50976,0.82031 -0.45117,3.62109 -1.15821,3.58008 -1.06054,1.03906 -0.18946,1.33008 -0.62109,1.17969 -1.09961,0.41992 -0.14063,1.94141 -0.66992,0.56836 -0.41992,2.06054 0.43945,0.15039 -0.0586,3.17969 0.95898,1.51953 -0.66992,0.57031 -0.31054,1.70118 1.70117,-0.0312 0.23047,-0.71875 1.02929,0.54882 -0.39062,0.47071 0.91992,0.91015 -0.96875,2.2793 0.91992,0.91016 -0.34961,1.08984 -0.79101,0.93945 0.0898,1.24024 1.29102,2.04101 1.91015,0.83985 0.20899,0.86914 -0.78907,0.93945 1.03907,0.55078 0.0898,1.24024 -1.5,0.91015 -0.0703,0.98047 1.16015,0.17969 0.58008,2.00977 1.20117,0.80078 -0.74023,1.56836 0.49023,0.77148 -0.81054,2.55859 0.65039,1.02149 -0.79102,0.94922 0.59961,0.40039 -1.89844,1.38867 -0.34179,1.10156 1.93164,0.83985 0.66015,1.02929 -0.0605,0.99024 -0.56055,0.2207 0.0996,1.25 -1.10937,0.43945 0.0508,0.62891 0.83007,1.29102 2.71875,1.5 -1.10937,2.08984 -1.2793,0.19922 -0.2207,0.75 1.17969,0.85156 -0.16016,1.35938 -0.66992,-0.0293 -0.30078,2.11914 0.37109,0.42969 0.75,-0.23047 0.75977,-1.20899 0.57031,-0.21093 1.07031,-0.63868 2.83008,0.96875 0.47852,-0.39843 -0.41993,-0.70118 0.82032,-0.65039 1.08984,0.30079 1.60156,-0.59961 -0.36133,-0.19141 0.3711,-1.08984 0.85937,0.23046 0.39063,-1.33007 1.68945,-0.26953 0.81055,0.56054 0.38867,-0.37109 1.25,1.14062 0.19141,-0.75 0.89843,-0.41015 -0.01,-0.93946 1.4414,-0.11132 1.92969,-1.09961 -0.16015,-0.58985 1.1289,-1.07031 -0.76953,-0.74023 -0.70898,0.36132 -0.81055,-0.74023 -1.35938,1.07031 -0.56054,-0.58984 1.54883,-0.70117 3.84179,0.91015 0.88867,-0.78906 0.13086,-0.86133 0.84961,-0.47851 -0.0703,-1.91016 -0.73047,-0.79102 0.6211,-2.90039 3.73046,-1.74023 1.58008,-1.67969 1.57813,-0.72851 1.11133,-1.69141 6.58007,-4.91016 1.07032,-2.79882 0.0684,-2.77149 3.77148,-5.23828 1.68945,-1.10156 5.94922,-1.72852 3.53125,-0.45117 -0.0312,1.01953 0.3711,-0.0195 -0.01,-1 0.58008,-0.35937 2.18945,0.41992 0.92969,-0.67969 -1.12891,-1.4707 0.11914,-0.79883 1.00977,0.66992 -0.0996,0.95898 2.40039,-0.33984 0.0898,-1.64062 -2.13086,0.54101 -0.49023,-0.48047 0.53125,-0.4707 1.39844,0.32031 0.0508,-1.24023 0.76953,-1.03906 -0.91992,-1.68946 -0.26953,1.41016 -2.06055,0.97851 0.0898,1.02149 -0.79882,0.33984 -1.83985,0.31836 -0.75,1.64063 -3,0.65039 2.37891,-1.35938 1.4707,-2.28125 0.87891,-0.0488 0.0117,-1.32031 3.10937,-0.98047 -0.64062,-1.34961 -1.09961,0.34961 -0.95899,-1.27929 -0.4707,0.15039 -1.12109,-0.47071 -1.11914,0.69922 0.0195,-1.15039 3.24023,-2.91992 0.0898,-1.35938 0.17969,-0.50976 0.38086,-1.24024 0.65039,-0.33984 0.28906,0.57031 1.22071,-1.39062 0.11914,-1.56055 1.07031,-1.8789 2.99024,-3.30079 -0.91993,-1 0.0996,-0.88867 1.00977,-2.08984 0.75,-0.66016 0.48047,0.37891 0.0801,-1.37891 -0.28907,-0.89062 -1.28125,-0.10938 -0.23047,-1.64062 1.44141,-3.04102 0.0391,-1.55859 2.32032,-4.80078 2.33984,-1.74024 -0.39063,-0.85937 0.32032,-0.85938 4.16992,-4.16015 2.36133,-4.33985 -1.19141,-0.46094 -1.5,0.29102 -2.2793,-0.95117 -0.80078,0.32031 -0.89844,-0.88086 -1.65039,0.0605 -1.58984,-0.90039 -1.23047,0.1914 -0.0508,-0.60156 -2.66992,-0.47851 -7.60938,-3.46094 -1.79101,1.95117 -0.50977,2.36914 -0.42969,-0.14062 -0.5996,1.16992 -2.1504,0.85156 -0.75976,0.91992 -0.58984,-0.39062 -1.46094,0.88086 -0.89844,-0.89063 0.0195,-1.56055 -1.13086,-0.17968 -0.75976,0.91992 -1.50977,0.2793 -0.32031,-0.5 -1.29883,1.13086 -4.85156,0.33984 -0.20899,-0.84961 -0.85937,-0.28125 0.64844,-0.55859 -0.51954,-1.33985 -1.5996,-0.91992 -1.31055,-2.58008 0.17969,-1.30078 -2.14844,-8.09961 -1.99024,-0.46094 -2.12109,1.42969 -2.88867,-1.34961 -1.16992,-4.45898 -0.66016,0.55859 -0.0215,1.54102 -2.95899,-0.40039 0.75,-3.03907 -0.94922,-1.48046 0.72852,-1.5 -0.19922,-0.83985 -1.99023,-0.4707 -0.81055,0.31055 -1.33008,-1.01954 0.66016,-0.55078 -0.25,-1.43945 0.66015,-0.55078 -0.6289,-0.98047 0.66015,-0.54883 -0.20117,-0.83984 0.66016,-0.55078 -0.32032,-0.49024 -0.35937,-1.08008 0.53906,-0.19921 0.0508,-3.06055 -1.58007,-2.43945 0.81054,-0.31055 0.29883,-1.62891 1.4707,-0.85156 -0.31054,-0.48828 0.91992,-0.65039 -0.19922,-0.83008 0.9707,-0.0605 -0.0918,-1.17968 0.81054,-0.30079 -0.19922,-0.83007 0.8086,-0.29883 0.29101,-1.6211 1.24024,-0.16015 -0.58008,-3.98828 z"
     inkscape:connector-curvature="0" />
  <path
     id="NZ-STL"
     style="fill:#cccccc;fill-opacity:1;stroke:#ffffff;stroke-width:0.5;stroke-opacity:1"
     d="m 70.883946,497.03125 -3.38086,1.59961 -2.21875,-0.64844 0.759766,0.85938 -0.980469,2.13086 -3.830078,-0.15039 2.490234,4.61914 0.769532,5.71093 -0.789063,-0.37109 -0.140625,-2.74023 -1.380859,-4.81836 -0.660156,-0.42188 -1.029297,1.17188 -0.669922,-0.32032 -1.039063,0.53907 -2.25,2.43945 -1.15039,2.76172 -1.070313,0.55859 0.539063,0.86133 -0.138672,5.09961 -0.78125,-0.12109 -0.888672,-1.70899 -1.271484,0.46875 -0.488282,1.30078 -1.169922,0.0508 -1.810546,1.71875 -1.13086,0.30079 1.179688,2.35937 -1.908204,-1.42969 -1.910156,1.43946 -0.201172,1.78125 1.240235,1.22851 -2.390625,-0.55859 -1.410156,1.25976 2.101562,2.68946 -1.880859,2.81054 1.189453,1.53907 -1.449219,-0.95899 -0.169922,-0.92969 1.929688,-2.54101 -1.910157,-1.32031 -1.638672,-0.17969 -1.93164,1.46094 -0.689453,0.43945 -0.958985,0.84961 0.04883,1.31055 1.84961,4.4707 -0.529297,-0.18164 -0.279297,0.54101 2.269531,2.65039 -1.160156,-0.58007 -1.179687,1.33007 0.820312,-2.04101 -0.361328,-0.56055 -1,-0.34961 0.351562,-1.83984 -1.18164,-1.93945 -0.21875,-1.60938 -0.580078,-0.0606 -1.009766,1.04883 -1.191406,0.29102 -0.958984,1.9707 -0.859376,0.42969 -0.43164,0.77929 -0.919922,1.23047 -0.478516,0.41016 -1.560546,1.56055 0.529296,1.3789 1.111328,-0.16992 2.398438,1.16992 2.451172,0.79102 0.109375,0.45898 -6.380859,-1.83008 -0.238282,-0.82031 -1.710937,1.25 -0.0098,0.70117 0.640625,1.75977 1.169922,1.35937 2.388672,0.0703 0.75,0.68945 -3.029297,-0.30859 0.109375,1.69922 0.941406,0.4707 -0.05078,0.46875 -1.300781,-1.16016 -0.01953,-1.61914 -2.070312,-2.75 -2.009766,2.89063 0.919922,0.17968 0.810547,0.95899 1.339844,2.90039 1.130859,-0.35938 0.509766,0.39844 -1.740234,0.40039 -2.300782,-3.75 -1.21875,-0.69922 -0.460937,1.12891 -1.089844,0.78125 0.779297,1.45898 -0.419922,0.15039 -0.289062,2.76954 1.189453,1.64062 0.230468,1.79102 0.628907,0.33984 3.220703,-0.52148 0.570312,-0.81836 0.810547,0.22851 -0.130859,0.54102 0.07031,0.66992 -0.871093,-0.33008 -3.419922,0.59961 -1.058594,1.30078 1.410156,1.66016 1.580078,0.70898 3.109375,5.84961 -1.130859,-1.22851 -1.779297,1.54882 -1.169922,1.92969 0.539063,-1.60937 1.669922,-1.63086 -0.328126,-1.89844 -1.490234,-2.80078 -1.259766,-0.44922 -0.710937,0.64844 0.400391,-0.7793 -2.330078,-1.73047 -2.791016,1.20117 2.070312,-1.38086 -4.138672,-2.35937 -0.550781,1.38867 -1.460937,1.38086 -1.019532,1.96094 0.189454,1.0293 1.261718,0.18945 1.949219,1.75976 0.419922,-1.72851 0.279297,1.92969 0.740234,1.01953 -3.439453,-2.30078 -2,0.33984 -1.580078,3.86133 -0.08984,0.77929 0.640625,0.68946 -0.28125,0.38086 -1.019531,-0.2793 -0.779297,4.20898 0.859375,0.5 1.800781,-0.26953 1.388672,-1.13086 3.759766,-0.91015 0.101562,-0.73828 3.779297,-1.61133 0.539063,0.50976 -1.388672,1.02149 -2.371094,0.72851 -0.04883,0.70118 1.208984,0.33007 1.84961,-0.58984 1.361328,0.59961 -0.550781,0.38867 -1.009766,-0.66992 -1.720703,0.68164 -1.609375,-0.69141 -3.289063,1.41016 -0.740234,0.91992 -1.490234,0.0996 0.179687,3.86133 4.699219,-1.95117 2.861328,-0.18946 1.589844,-1.20898 -1.220703,1.43945 -7.25,2.03907 -0.910157,3.33007 3.611328,-1.27929 4.31836,1.23047 0.880859,-1.72071 0.369141,0.0899 -0.619141,1.30078 1.25,-0.20117 -1.179687,0.91015 -2.691406,0.32031 -1.679688,1.33985 -2.058594,-0.11914 -6.351562,1.66015 -1.039063,0.19922 -2.830078,-0.0391 -1.5,0.51953 -0.449219,0.73047 -0.941406,-0.0215 0.02148,0.82031 -0.77148397,0.50976 0.361328,1.24024 -0.521484,2.37109 0.99999997,2.0586 -0.119141,3.20117 0.919922,0.78906 1.029297,-0.57031 2.25,-1.54883 1.570312,-0.23047 3.460938,-5.63086 0.820312,-0.0996 -0.701171,0.5 -1.59961,3.97071 2.300781,0.50976 2.279297,-0.68945 0.240235,0.25976 -0.640625,0.19922 0.669922,0.81055 -3.109375,0.0508 -2.730469,0.97852 -1.130859,2.45117 -0.398438,1.86914 -0.679688,0.4707 0.128907,1.14063 0.859375,-0.18164 -0.119141,-0.51954 1.060547,-1.0996 1.169922,0.64062 0.03906,0.67969 1.560547,-1.76953 1.240235,-1.69141 0.08984,0.56055 -0.880859,1.33008 0.650391,1.25 0.621093,-1.18946 1.408204,-0.29101 -1.078126,-1.92969 0.669922,-1.17969 1.21875,-0.49023 -0.458984,-0.47071 2.96875,-0.53906 0.740234,-1.14062 1.88086,-1.07032 -2.451172,2.90039 -3.179688,1.1504 0.300782,2.51953 -0.519532,0.71093 -1.201172,0.25 -0.480468,0.43946 -0.648438,1.09961 0.199219,1.21093 -1.039063,0.0391 -3.101562,2.41015 0.740234,0.23047 1.701172,2.76953 1.910156,-0.26953 0.419922,0.5 1.398438,0.0195 0.570312,1.04102 1.189454,-1.0918 2.441406,-0.19922 3.25,1.1211 2.449218,-0.14063 3.410157,1.68945 0.910156,-0.41015 3.369141,0.70117 2.300781,-0.98047 2.650391,0.36914 0.810546,-1.29883 -0.43164,-1.95117 1.560547,-0.91992 0.419921,-1.46875 3.859376,0.14844 4.421874,2.23047 3.878907,3.76953 0.560547,2 -1.550782,0.78125 -0.0293,1.04883 1.570312,0.28125 0.160156,1.75976 0.798828,0.11914 1.09961,1.31055 1.701172,-1.25977 2.240234,1.35938 -0.201172,-1.29883 1.330078,-0.70117 4.88086,1.55078 -0.660157,-1.25977 1.199219,-1.14062 2.960938,0.25 2.949218,2.96094 2.75,5.71875 1.230469,-0.31055 -0.390625,-1.34961 -0.548828,-0.53906 1.859375,-0.53125 -0.189453,-1.58985 0.419922,-0.24023 0.539062,0.75 -0.11914,2.26172 1.128906,0.16992 -0.01953,0.58984 -2.070313,1.25977 h -1.099609 l -2.740235,0.49023 0.53125,1.33008 -0.28125,0.66016 1.470704,0.19922 0.269531,1.58984 1.390625,0.5293 0.769531,1.79101 1.199219,-0.75 -1.109375,-1.32031 -0.589844,-0.16016 -0.619141,-1.99023 0.949219,-0.35937 0.320313,0.41015 0.65039,-0.90039 0.830078,0.71094 -0.361328,0.4082 0.580078,1.07031 1.330078,-0.78906 1.480469,0.0293 2.57031,0.82031 0.42969,0.91016 -0.59961,0.38086 -2.4414,-0.90039 -0.38868,0.27929 -2.419919,-0.25 -0.650391,0.91016 0.310547,0.2207 0.628906,-0.46094 1.880857,0.72071 3.40039,-0.0508 2.53907,-1.24024 -1.34961,-1.47851 1.75976,-0.33008 1.69922,0.88867 -0.66015,0.41016 -0.87891,-0.41993 -0.25,1 4.70898,-0.99023 3.03125,0.70117 0.42969,0.67969 1.12891,0.92969 -0.37891,0.90039 0.93945,2.00976 3.75,-0.23047 1,0.91993 0.82032,-0.41016 0.5,0.57031 1.08008,-0.40039 1.55078,0.20117 1.45898,-0.48046 0.25977,-1.08008 0.59961,-2.25977 1.57031,1.09961 -1.26953,1.30078 2.10937,0.41992 0.29102,-2.12109 0.66992,0.0195 0.16016,-1.35937 -1.18946,-0.84961 0.21875,-0.75 1.28125,-0.19922 1.10938,-2.0918 -2.72071,-1.5 -0.83007,-1.28906 -0.0488,-0.63086 1.10937,-0.43945 -0.0996,-1.25 0.5586,-0.21875 0.0605,-0.99024 -0.66015,-1.03125 -1.92969,-0.83984 0.33984,-1.09961 1.9004,-1.40039 -0.59961,-0.40039 0.78906,-0.94922 -0.65039,-1.01953 0.81054,-2.56055 -0.49023,-0.76953 0.74023,-1.57031 -1.19921,-0.80078 -0.58008,-2.00977 -1.16016,-0.17969 0.0703,-0.98047 1.5,-0.91015 -0.0898,-1.23828 -1.04102,-0.55078 0.79102,-0.94922 -0.21094,-0.8711 -1.91992,-0.83984 -1.28906,-2.03906 -0.0898,-1.24024 0.78907,-0.9414 0.34961,-1.08985 -0.91993,-0.91015 0.97071,-2.2793 -0.91992,-0.91016 0.38867,-0.4707 -1.0293,-0.54883 -0.23047,0.71875 -1.69922,0.0312 0.30078,-1.70117 0.66993,-0.56836 -0.96094,-1.52148 0.0606,-3.17969 -0.43946,-0.15039 0.41992,-2.0586 0.66993,-0.57031 0.13867,-1.95117 1.09961,-0.42969 0.62109,-1.18945 0.18945,-1.33008 1.06055,-1.03906 1.16016,-3.58008 0.43945,-3.62109 0.50977,-0.82032 1.81054,-0.3789 0.5,-0.82031 -0.67968,-1.6211 -0.55079,0.21094 -0.63867,-1.00977 -0.56054,-1.9707 -2.05079,-1.08984 -0.0898,-1.21875 -0.95898,-1.51172 -2.27149,1.80078 -4.08984,8.11914 -0.93945,0.66992 -0.86915,-0.29883 0.0684,-0.9707 -0.58984,-0.40039 -0.83008,0.31055 0.041,0.60937 -1.18946,-0.79883 -0.83007,0.31055 -0.14063,-4.01172 -0.99023,0.0605 -1.07032,-1.16016 -1.29882,-0.43945 0.50976,-0.82031 -0.13086,-1.83008 -0.83984,-1.86914 0.39062,-0.46094 -0.58984,-0.40039 -1.10156,0.41016 -1.28906,1.73046 -1.81055,0.3711 -0.90039,1.2793 -3.19922,0.89062 -5.378909,0.13867 -0.830078,-1.86914 0.308594,-1.67969 -0.789062,-1.25976 0.509765,-0.81055 -1.779297,-1.20117 -0.320312,-0.50977 0.388672,-0.45898 -1.06836,-1.16016 0.388672,-0.46093 -1.029297,-0.54883 0.910157,-1.26953 0.240234,-0.71094 0.548828,-0.21094 -0.320312,-0.5 0.550781,-0.20898 -0.03906,-0.60938 0.988282,-0.0605 0.43164,-2.01954 -0.43164,-0.15039 0.791015,-0.91015 -0.480469,-0.75 -2.208984,0.82031 -1.230469,-1.40039 -1.070312,-1.15039 -0.669922,-1.60938 -1.460937,-0.70117 0.470703,-1.4082 -1.140625,-2.36133 0.550781,-0.19922 v -2.16015 l 1.689453,-0.01 -0.199219,-0.84961 0.789063,-0.91016 0.230468,-0.70117 0.04102,-1.54883 0.548828,-0.20117 -0.320312,-0.5 -0.548828,0.20117 -0.669922,-1.60156 0.388672,-0.44922 -0.31836,-0.5 1.058594,-1.00976 -0.589844,-0.40039 0.509766,-0.79883 -0.03906,-0.60156 0.548829,-2.34961 0.820312,-0.31055 -0.199219,-0.84961 0.550781,-0.20898 -0.28125,-2.04102 2.230469,-2.35937 1.958985,-0.1211 -0.308594,-0.5 0.820312,-2.44922 0.228516,-0.69922 0.390625,-0.45117 -0.900391,-0.88867 1.480469,-0.86133 -0.04102,-0.59961 0.980468,-0.0605 0.230469,-0.69922 -1.720703,-0.57032 0.230469,-0.69921 -1.330079,-1.02149 0.390626,-0.44922 -0.390626,-1.67968 -1.40039,-0.0703 -1.048828,-1.10937 z m -49.759766,48.73047 -0.621094,0.0801 -1.708984,2.10937 -1.441406,2.83008 4.261718,3.40039 1.058594,-0.31055 -2.089844,-5.17968 0.800782,-2.04883 z m -11.050781,24.73047 -0.439453,0.63867 -0.34961,-0.60938 -1.089844,0.75977 -0.890624,-0.5 -2.150391,1.62109 -0.480469,-0.54101 -0.90039,1.08008 0.01172,1.13086 -0.300781,-0.20118 -0.570313,1.3711 -1.849609,1.88867 -0.14062497,1.56055 4.29101597,-4.31055 -0.05078,0.90039 0.800782,0.41016 0.289062,0.34961 -0.839844,0.46093 -0.730468,0.25 1.810547,0.66993 -0.529297,1.00976 0.65039,0.31055 -0.130859,0.50976 2.189453,-0.74023 0.710938,0.59961 0.919922,-0.26953 1.208984,-1.22071 0.25,-1.51953 -0.298828,-4.05078 z m 6.130859,6.83008 -1.230469,0.0703 -0.710937,0.64844 0.08984,0.71093 1.291015,0.32032 2.449219,-0.86133 -0.468746,-0.67968 z m -11.589844,1.25 -0.640625,0.0488 0.119141,0.53125 -1.548828,-0.11132 -0.210938,1 1.460938,0.39062 0.01953,-0.5 1.810548,-0.6992 z m 9.080078,0.0293 -4.800781,0.93946 -0.490234,0.66992 -1,0.0215 0.06055,0.5586 3.589844,-0.56836 2.878906,-1.3418 z m -9.910156,16.21094 -0.53125,1.22852 1.080078,0.64062 0.03125,-0.86914 0.56836,-0.33008 z m 4.339844,3.47851 -1.121094,0.95117 0.259766,1.58984 1.830078,-1.51953 0.07031,-0.58984 z m 48.289062,33.12109 -1.339843,1.24023 -1.779297,-0.96093 -2.679688,1.58007 0.279297,0.7793 -0.871093,1.54102 0.591796,1.80078 -0.691406,0.46875 1.970703,2.99023 0.279297,1.13086 -0.490234,0.37891 0.791015,0.66015 0.03906,1.59961 -1.548828,2.58008 -1.820313,0.25 -0.349609,-0.84961 0.429687,-0.61914 -0.640625,0.35938 0.07031,1.89062 0.640625,0.0586 -0.220703,1.05078 0.820312,0.33008 -0.621093,0.61914 0.25,1.08984 0.541015,-0.0293 0.199219,0.66992 -0.728516,0.33008 -1.570312,-0.81054 -1.210938,0.29101 -1.580078,2.43945 -0.820312,0.38086 0.341796,1.2793 0.808594,0.0703 -1.330078,2.29883 0.25,0.39063 0.451172,-0.74024 0.09961,1 -0.300781,0.59961 -1.589844,0.53125 -0.310546,0.92969 -0.779297,-0.33008 -1.25,1.10938 -0.548829,3.58007 0.699219,0.25 0.769531,-0.67968 0.05078,0.83984 1.859375,0.28125 1.330078,-0.68164 0.689453,-1.0293 -0.429688,-0.23047 1.451172,-0.52929 -0.240234,1.39062 1.279297,-0.40039 0.75,-1.99023 -0.320313,-0.41992 -0.638672,-0.0606 0.0098,0.71094 -2.890625,0.42968 -0.349609,-0.66992 0.86914,0.40039 1.220704,-0.6914 -0.169922,-0.76954 1.029296,0.0801 0.410157,-0.91992 0.419922,0.41992 0.849609,-0.57031 -0.259766,-1.53906 0.720704,0.20898 0.419921,-1.1289 0.958985,1.77929 1.410156,-0.61914 0.320312,0.75 0.890626,-0.21094 1.199218,0.6504 1.019532,-0.73047 0.630859,0.16992 0.189453,-0.76953 1.191406,0.0605 2,-2.40039 0.488282,0.65039 1.960937,-1.21093 1.210937,0.62109 0.648438,-0.30078 0.0098,-0.91992 0.541015,-0.16992 1.919922,1.14062 0.470703,-0.49023 h 0.689453 l -0.40039,-1.44141 1.060547,-0.72852 0.949218,0.41993 0.189454,0.76953 0.851562,-0.0996 -0.521484,-1.08985 -0.939454,0.18946 -0.708984,-1.22071 0.308594,-0.82031 0.970703,0.38086 0.509766,-0.55078 -0.378907,-0.88867 1.089844,-0.70117 h -0.800781 l -0.259766,-0.56836 0.539063,-0.68164 -1.509766,-1.10938 0.210938,-1.98047 0.708984,-0.59961 -0.269531,-0.49023 -1.080078,1.07031 0.279297,1.83984 -1.189454,-0.15039 -0.230468,1.15039 -0.519532,0.21094 -2.009765,-0.43164 2.240234,-1.54883 -1.25,0.12891 -1.400391,-0.7793 -1.539062,0.25 0.208984,-0.67968 -0.560546,-0.83985 -1.039063,0.2793 -0.929687,1.41015 -2.060547,1.18946 1.580078,-2.0586 1.089843,-0.49023 -0.46875,-1.26953 0.519532,-0.96094 0.980468,0.19922 -0.310546,-1.5 1.359375,1.66992 -0.769532,0.30078 1.310547,0.99024 0.648438,-0.0801 -0.109375,-0.5293 0.210937,-0.74023 2.949219,0.91015 0.929687,-0.95117 -0.529296,-0.91992 -0.240235,-0.51953 -0.0098,-0.55078 -2.390625,-0.33008 0.310547,-1.28906 -1.980469,-0.79102 -0.269531,-1.06836 -1.041016,-0.41015 -1.138698,-4.0507 z"
     inkscape:connector-curvature="0" />
  <path
     id="NZ-TAS"
     class="land"
     d="m 262.01359,339.3817 2.08,0.26 -3.19,-1.77 -0.39,0.64 z m 17.59,-11.8 -1.83,2.23 -1.28,0.48 -0.29,1.55 -0.89,1.07 -2.01,1 -1.14,-0.97 -3.09,2.4 -0.02,1.1 0.77,1.3 -0.8,1.12 -0.68,-0.46 -0.41,0.67 0.56,2.04 -3.02,1.74 -1.07,-0.97 -1.48,-0.68 -0.4,-1.38 -2.65,-0.18 -0.38,-0.48 -0.23,-0.7 1.07,-0.05 0.32,-0.53 -0.92,-1.17 0.03,-0.94 -3.14,-3.3 0.76,-0.45 0.41,-2.01 -1.3,-1.82 0.86,-0.88 0.02,-0.49 -0.09,-0.99 -0.96,-0.1 0.42,-1.22 1.09,-0.11 0.27,-0.83 1.04,-0.62 -0.09,-0.76 -0.33,0.5 -0.61,-0.46 0.76,-0.51 0.06,-1.63 -0.66,-0.87 0.73,-0.52 -0.29,-1.13 -0.56,-0.25 -1.49,1.05 -0.13,-0.53 0.84,-0.34 -0.97,-3.74 -1.78,0.36 -0.21,1.75 -1.04,-1.25 -0.28,0.98 -2.22,1.28 -4.79,-3.62 -1.74,-2.9 -0.1,-1.92 -1.31,-1.07 0.93,-0.43 0.54,-2.73 -0.48,-0.48 2.98,-3.62 5.25,0.26 4.98,1.62 -0.77,-0.68 -2.64,-0.98 -5.11,-0.81 -1.28,0.35 -3.05,-0.68 -2.05,0.7 -3.33,3.05 -0.11,0.67 0.96,-0.05 0.13,-0.8 1.48,0.07 0.41,-0.75 0.26,1.56 -1.89,0.2 -0.55,0.4 0.46,0.81 -0.87,-0.34 -1.81,1.25 -0.11,-0.5 1.41,-1.31 -0.54,-0.55 -3.43,2.4 -2.87,3.47 -4.27,3.35 -1.64,0.58 1.1,1.8 -0.48,3.29 1.16,-0.72 0.18,0.78 0.96,0.49 -0.49,0.76 1.03,1.6 0.53,-0.2 0.44,0.69 1.87,-0.14 0.44,0.69 -1.36,1.94 -0.94,0.07 -0.72,1.41 1,1.05 -0.61,1.09 0.3,0.46 0.94,-0.07 1.22,-2.17 1.12,0.72 1.17,-0.73 2.02,0.09 -0.31,1.55 1.27,0.95 0.22,1.35 1.09,0.16 0.34,1.02 2.3,2 0.69,2.03 1.74,-0.36 0.72,0.59 -1.35,1.93 -2.27,0.56 -1.32,0.49 1.22,1.83 -0.56,1.63 0.31,0.46 -0.64,0.52 0.39,1.56 -2.98,1.96 -1.94,-0.42 -0.04,-0.55 -1.7,0.92 0.61,0.91 -0.52,2.18 -1.06,0.39 0.04,0.55 -0.95,0.07 -1.14,1.27 0.28,1.88 -0.8,0.29 0.5,1.24 -0.38,0.42 -0.07,0.88 -1.33,0.49 -0.07,0.88 -0.99,-0.49 -1.18,0.72 0.77,1.14 -0.25,2.09 -1.3,-0.95 -0.22,0.65 -2.06,-0.1 -1.67,1.47 0.46,0.69 -1.25,1.61 0.35,1.02 0.53,-0.2 -0.08,4.35 -0.8,0.3 -0.07,0.89 -0.95,0.07 0.51,1.25 -1.25,1.62 0.89,0.83 0.44,2.15 1.69,0.53 -0.83,1.76 1.44,2.65 2.6,-0.11 0.82,1.72 0.96,-0.07 0.09,1.13 3.29,-0.08 0.68,3.52 -0.75,0.87 1.09,1.62 -0.07,0.9 0.53,-0.2 2.31,1.45 0.53,-0.2 -0.31,-0.46 0.49,-0.77 1.07,-0.41 1.75,-0.38 1.46,-2.3 1.86,-0.71 0.49,-0.76 -0.29,-1.92 1.28,-1.06 -0.4,-1.58 1.86,-0.7 0.2,0.79 1.22,-0.17 0.53,-0.2 -0.35,-1.02 0.51,-2.21 0.95,-0.07 1.02,-0.96 -0.35,-1.02 1.17,-0.73 0.29,-1.55 1.32,-0.5 0.07,-0.89 0.53,-0.2 0.22,-0.66 -1.03,-1.05 0.33,-0.98 0.79,-0.3 -0.09,-1.11 2.88,-3.09 -0.81,-1.7 0.37,-0.43 0.72,0.59 2.06,-1.35 2.19,-3.12 -0.02,-1.99 2.63,-1.01 0.07,-0.88 0.68,0.03 0.7,-1.41 -0.04,-0.56 0.29,-1.54 0.57,0.35 1.57,-0.61 0.98,0.48 1.98,-0.49 -0.5,-1.24 -1.59,-1.38 0.96,-1.52 0.78,-0.31 -0.39,-1.56 2.09,-0.83 0.8,-1.75 2.29,-1.5 -0.14,-1.67 2.09,-2.3 0.43,-1.33 1.19,-0.2 0.32,-1 1.97,-0.52 0.49,-2.21 -0.35,-1.01 0.93,-3.53 z"
     inkscape:connector-curvature="0"
     style="fill:#cccccc;fill-opacity:1;stroke:#ffffff;stroke-width:0.5;stroke-opacity:1" />
  <path
     id="NZ-TKI"
     class="land"
     d="m 319.33359,208.8417 0.14,0.05 0.36,0.85 0.91,-0.08 0.43,0.66 2.88,-0.01 1.09,0.67 1.8,-0.69 1,1.52 1.35,0.57 -1.8,0.69 -0.31,1.48 -0.91,0.08 0.72,1.09 -0.37,0.42 0.35,1.5 1.01,1.52 1.26,-1.03 0.83,0.77 -0.45,1.26 0.58,0.87 -0.48,0.73 0.55,0.33 -0.48,0.73 0.29,0.43 1.18,-0.18 0.46,1.18 0.23,-0.63 0.92,-0.08 0.93,2.37 -0.52,0.2 -0.08,0.85 3.31,0.08 -0.23,0.63 1.27,1.42 -2.13,-0.27 -0.74,0.84 0.29,0.43 -0.66,-0.02 0.29,0.43 -0.92,0.08 0.58,0.87 -1.69,0.39 0.55,0.33 -0.77,0.3 0.55,0.33 -1.6,1.99 0.29,0.44 -0.81,-0.23 -0.48,0.74 -0.95,-0.45 -0.05,1.39 -1.83,2.63 0.32,0.97 1.07,0.13 1.54,1.32 -0.34,0.96 0.03,0.54 -0.66,-0.02 1.02,1.53 -0.23,0.64 1.87,2.3 0.92,-0.09 0.39,2.05 1.13,1.21 -1.15,2.66 0.54,2.27 -0.52,0.21 0.99,0.99 -2.58,1.02 0.3,0.44 -0.48,0.74 0.59,0.88 -0.63,0.52 0.3,0.44 -1.72,0.39 0.04,0.54 -1.44,0.81 -0.35,0.95 -1.5,0.24 -1.68,2.44 0.66,0.44 -2.33,0.32 -4.18,-2.11 -2.13,-0.46 -1.77,-1.91 -1.88,-0.76 -1.87,-1.63 -3.11,-4.22 -4.72,-2.75 -5.46,-0.82 -1.41,-0.91 -2.09,-0.27 -2.98,-1.76 -1.75,-2.7 -2.92,-2.73 -1.57,-6.59 1.56,-4.42 4.72,-3.64 1.37,-0.18 2.17,-1.5 0.98,-1.53 2.36,-0.25 4.34,-3.14 4.35,-0.25 2.05,0.51 2.91,-1.41 2.32,-3.41 2.4,-2.05 z"
     inkscape:connector-curvature="0"
     style="fill:#cccccc;fill-opacity:1;stroke:#ffffff;stroke-width:0.5;stroke-opacity:1" />
  <path
     id="NZ-WKO"
     class="land"
     d="m 348.78359,99.131699 0.83,0.44 0.93,-0.35 0.36,2.070001 0.78,-0.48 0.55,1.17 0.66,-1.03 0.62,0.18 1.75,1.57 -0.56,0.73 0.3,1.41 -0.55,0.4 0.92,0.56 0.75,-0.36 0.92,1.09 -0.28,1.37 0.44,0.79 -1.18,-0.04 0.16,1.16 1.03,-0.48 0.85,0.27 0.06,1.21 0.78,0.47 -0.71,1.79 2.11,-0.58 -0.76,-0.8 2.42,0.05 2.97,-1.73 0.62,1.29 0.93,-0.03 0.16,1.1 -1.36,0.07 -1.37,0.83 -0.26,1.55 -1.87,0.81 0.26,1.4 -1.16,0.27 -0.11,1.31 0.71,0.66 1.2,-2.46 0.61,0.22 1.08,-0.82 2.25,1.55 -0.32,1.29 1.71,2.58 -0.73,1.54 1.18,1.81 -0.61,-0.24 -1,2.05 0.19,0.63 1.09,-1.98 0.85,1.01 0.25,1.65 -0.09,2.4 -0.44,1.6 0.55,2.42 -0.41,0.38 -0.81,-1.77 -0.12,1.22 1,1.24 0.62,2.94 1.73,3.29 -0.19,1.44 -0.98,0.35 0.54,0.34 -0.33,0.92 -0.63,-0.04 0.48,1.16 -0.73,0.79 -0.54,-0.34 -0.86,1.11 0.42,0.65 0.51,-0.18 0.59,1.38 -1.56,0.04 -0.98,-1.51 -0.97,1.43 1.01,2.03 -0.99,0.9 1.3,2.46 -0.17,1.66 2.54,3.83 0.94,2.83 -0.76,2.68 1.34,0.56 -0.51,0.19 0.71,1.06 -0.22,0.62 0.94,0.44 -0.22,0.62 0.68,0.54 -1.39,0.79 0.49,1.68 0.8,0.23 0.06,1.05 1.71,0.15 1.37,1.08 0.21,1.26 1.91,1.41 2.61,0.07 1.91,1.4 -0.08,0.83 0.51,-0.2 0.57,0.85 -0.48,0.72 1.14,3.58 -0.51,0.2 1.11,3.06 0.51,-0.2 0.43,0.64 0.07,1.05 1.49,0.77 1.16,-0.18 1.41,1.6 2.25,0.47 1.56,1.81 -1.32,5.63 0.33,0.95 -3.49,-1.33 -1.25,2.91 -2.29,-0.99 0.92,-1.97 -0.72,-1.06 -1.17,0.19 0.03,0.53 -1.9,1.01 -1.97,-0.04 -0.07,-1.05 -0.8,-0.23 -0.65,-1.9 -2.31,2.78 -1.06,-0.13 0.21,1.26 -0.62,0.51 0.32,0.95 2.08,-0.27 0.47,1.17 0.77,-0.3 3.24,1.44 -0.51,0.2 -0.04,1.36 -1.29,2.39 3.28,3.85 -1.61,1.44 -4.02,-1.13 -0.26,2 -0.51,0.2 0.47,1.17 0.99,0.97 -0.66,-0.01 0.76,1.6 2.01,2.46 1.47,0.24 0.33,-0.94 1.06,0.13 0.18,2.64 0.88,1.28 -0.84,1.15 0.73,1.07 -0.04,1.37 -0.92,0.09 -0.99,0.94 0.29,0.43 -2.17,1.13 -0.07,0.85 -1.36,-0.55 -2.43,1.23 -4.38,-0.18 -0.3,1.48 -3.09,1.22 0.55,0.33 -0.22,0.63 -1.51,1.14 0.59,0.86 -1.18,0.19 -1.22,1.57 -2.17,-0.78 -0.22,0.64 -1.62,-0.46 -1.44,0.29 -4.3,-1.04 2.94,-5.8 0.75,-2.75 -1.39,-1.09 0.45,-1.26 -0.55,-0.33 1.29,-0.5 0.04,-1.38 1.48,-1.66 -2.13,-0.26 -2.61,0.47 -0.36,-1.49 1.19,-2.09 -1.6,-2.37 1.45,-2.19 -1.01,-1.5 -0.51,0.2 -0.9,-1.82 2.04,-3.22 0.45,-1.25 -0.32,-0.96 1.99,-1.85 0.39,-2.31 -1,0.92 -2.71,0.77 -1.55,-1.83 -2.09,0.26 -1.09,-0.66 -1.43,0.28 -0.23,0.63 -1.54,0.59 -0.49,-1.7 -0.85,1.14 0.21,1.27 -0.95,-0.45 -0.71,1.35 -0.92,0.08 -0.23,0.63 -1.29,0.49 -1.09,-0.67 -1.43,0.28 -0.95,-0.45 -0.74,0.83 -0.95,-0.45 -1.11,1.24 -1.54,0.59 -1.97,-0.06 0.49,1.71 -0.4,-0.12 -0.83,1.67 0.32,0.97 -1.57,0.06 -1.51,1.12 -1.34,-0.57 -1,-1.52 -1.8,0.69 -1.09,-0.67 -2.88,0.02 -0.43,-0.66 -0.91,0.08 -0.36,-0.85 0.54,-10.02 0.58,-2.41 -0.43,-3.48 0.81,-0.08 0.18,-1.03 2.14,-2.83 -0.06,-5.16 -1.4,-4.37 0.29,-0.33 0.28,0.55 1.65,0.29 1.59,-1.82 -0.53,1.17 0.14,0.36 0.52,-0.41 v 1.13 l 0.7,0.1 0.35,-0.78 0.44,1.38 1.19,-0.59 0.26,-0.28 -1.36,-0.04 0.37,-1 3.41,-1.62 -0.98,-0.53 -0.11,-0.82 -1.21,0.17 -0.37,0.51 -0.29,-0.99 -1.1,1.84 -1.15,0.15 0.61,-3.08 1.08,-0.66 -0.09,0.59 1,0.26 -0.08,-0.68 1.66,-2.46 -0.79,-0.58 -1.67,0.33 -0.32,1.35 0.57,0.49 -1.47,0.72 -1.49,-7.06 0.78,-1.65 1.88,-0.4 0.75,-0.91 1.33,-0.45 1.41,0.74 0.51,-0.1 -0.3,-0.54 0.61,-0.01 0.5,0.58 0.8,-0.97 -0.68,-0.41 -1.5,0.33 0.57,-0.77 1.5,0.1 -0.62,-1.16 -1.68,0.48 -0.21,1.58 -1.41,-0.81 0.22,0.71 -1.24,0.52 -1.73,-8.04 -0.96,-1.66 -0.03,-1.89 -2.62,-6.17 0.04,-3.11 0.45,0.78 1.04,-0.21 1.68,-2.58 0.92,-0.5 1.61,-0.96 0.09,-1.36 2.61,0.64 0.09,-1.36 0.63,-0.5 -0.54,-0.86 2.34,0.2 0.74,-1.33 -0.97,-2.03 -0.94,-0.98 -0.37,0.4 -0.29,-0.95 0.49,-0.71 0.8,0.77 1.29,0.06 0.82,-2.68 1.73,-2.22 0.55,0.86 2.73,0.31 0.07,-1.87 0.76,-0.28 1.33,1.09 2.59,-0.74 0.45,-1.06 0.76,2.49 -0.13,4.04 1.38,3.04 2.64,0.66 4.62,-2.3 0.63,0.25 -0.9,-2.9 0.32,-2.41 -0.97,-4.23 -2.76,-3.57 -0.88,-2.32 1.12,-0.42 -0.26,-0.77 -0.18,-0.47 0.69,-0.62 2.15,-0.08 0.34,-0.82 -0.97,-1.7 -0.29,-0.74 -1.65,-1.02 0.67,-2.58 -0.39,-1.75 -0.05,-0.75 -1.18,-1.46 -2.36,-1.29 -0.71,-1.54 0.02,-2.040001 0.57,0.160001 0.11,-0.600001 z"
     inkscape:connector-curvature="0"
     style="fill:#cccccc;fill-opacity:1;stroke:#ffffff;stroke-width:0.5;stroke-opacity:1" />
  <path
     id="NZ-WGN"
     class="land"
     d="m 332.30359,315.7617 0.34,0.35 -0.77,1.29 -1.84,1.81 -0.7,-0.13 1.94,-3.32 z m 7.33,-5.98 1.31,0.14 0.05,0.54 1.4,0.57 0.05,0.54 -0.93,0.09 0.21,0.76 1.24,0.35 0.62,-0.53 1.14,0.67 1.67,-0.94 1.51,0.24 0.16,-1.19 0.78,-0.31 0.88,0.78 1.77,0.14 1.26,-2.48 5.84,3.02 1.31,-0.53 0.32,-0.97 0.84,0.23 -0.05,-0.55 0.32,-0.98 1.88,-0.19 0.73,0.55 0.37,-0.43 0.73,0.55 -0.37,0.43 0.57,0.33 -1,2.38 1.67,0.46 0.73,-0.86 0.57,0.33 0.37,-0.43 0.89,0.77 1.52,-1.18 0.89,0.77 0.42,-1.3 1.2,-0.2 -0.21,-0.76 1.1,0.12 0.58,-1.08 1.15,0.67 1.62,-0.09 -0.31,-0.44 0.42,0.11 0.11,-1.74 1.67,0.46 0.78,-0.31 0.78,1.1 2.34,0.48 0.57,1.76 0.99,0.46 -0.46,0.75 0.25,0.82 -0.34,2.19 -1.44,2.85 0.23,1.23 -3.28,2.9 -0.69,2.33 -0.74,0.56 -0.23,2.12 -1.16,1.9 -0.05,1.48 -2.83,2.87 -1.3,3.44 -3.25,1.62 -0.7,2.1 -2.01,2.3 -5.27,2.74 -3.52,3.81 -3.04,1.19 -0.38,0.94 -2.57,2.3 -2.52,-0.02 -1.75,1.92 -1.24,0.25 -1.37,-0.59 -0.81,0.25 -0.66,-3.5 -0.92,-0.73 1.07,-3.76 -0.19,-1.09 -2.81,-1.76 0.01,-1.56 -1.46,0.75 -2.55,-0.48 -2.07,1.04 -2.76,2.39 -0.65,-1.09 -1.33,-0.43 0.33,-1.18 -1.09,-1.48 2.51,-5.21 -0.97,-1.39 -1.25,-0.3 -2.67,2.16 -0.27,1.03 0.96,-0.05 -0.12,1.51 0.93,-1.58 0.45,0.53 -0.34,1.03 0.44,0.92 -0.73,0.7 -0.77,-0.94 -1.29,1.16 -0.9,-0.19 -1.12,0.88 -0.84,-0.89 -1.42,-0.2 -1.78,-2.93 1.22,-2.51 2.7,-0.93 1.03,-2.45 0.83,-0.29 1.71,-2.85 1.17,-0.2 0.58,-0.96 0.57,0.59 -0.91,0.92 0.09,0.68 0.68,-0.78 0.29,-1.54 -1.11,-1.14 0.31,-0.76 3.63,-2.53 1.15,-2.28 0.58,-3.75 2.97,-2.92 z"
     inkscape:connector-curvature="0"
     style="fill:#cccccc;fill-opacity:1;stroke:#ffffff;stroke-width:0.5;stroke-opacity:1" />
  <path
     id="NZ-WTC"
     class="land"
     d="m 225.92359,313.3317 1.1,1.8 -0.48,3.29 1.16,-0.72 0.18,0.78 0.96,0.49 -0.49,0.76 1.03,1.6 0.53,-0.2 0.44,0.69 1.87,-0.14 0.44,0.69 -1.36,1.94 -0.94,0.07 -0.72,1.41 1,1.05 -0.61,1.09 0.3,0.46 0.94,-0.07 1.22,-2.17 1.12,0.72 1.17,-0.73 2.02,0.09 -0.31,1.55 1.27,0.95 0.22,1.35 1.09,0.16 0.34,1.02 2.3,2 0.69,2.03 1.74,-0.36 0.72,0.59 -1.35,1.93 -2.27,0.56 -1.32,0.49 1.22,1.83 -0.56,1.63 0.31,0.46 -0.64,0.52 0.39,1.56 -2.98,1.96 -1.94,-0.42 -0.04,-0.55 -1.7,0.92 0.61,0.91 -0.52,2.18 -1.06,0.39 0.04,0.55 -0.95,0.07 -1.14,1.27 0.28,1.88 -0.8,0.29 0.5,1.24 -0.38,0.42 -0.07,0.88 -1.33,0.49 -0.07,0.88 -0.99,-0.49 -1.18,0.72 0.77,1.14 -0.25,2.09 -1.3,-0.95 -0.22,0.65 -2.06,-0.1 -1.67,1.47 0.46,0.69 -1.25,1.61 0.35,1.02 0.53,-0.2 -0.08,4.35 -0.8,0.3 -0.07,0.89 -0.95,0.07 0.51,1.25 -1.25,1.62 0.89,0.83 0.44,2.15 1.69,0.53 -0.83,1.76 1.44,2.65 2.6,-0.11 0.82,1.72 0.96,-0.07 0.09,1.13 3.29,-0.08 0.68,3.52 -0.75,0.87 1.09,1.62 -0.07,0.9 0.53,-0.2 2.31,1.45 0.53,-0.2 -0.31,-0.46 0.49,-0.77 1.07,-0.41 0.31,0.46 -0.86,1.2 0.09,1.13 -0.69,-0.03 -0.09,2.37 -1.18,0.74 -0.58,-0.36 -2.13,0.82 -2.38,2.96 -2.02,0.49 -0.18,1.24 -1.93,1.63 -0.02,1.48 -2.25,1.16 -0.82,1.79 0.31,0.47 -0.53,0.21 0.31,0.47 -2.67,1.03 -0.58,-0.36 -1.76,0.39 0.2,0.81 -2.14,0.83 -0.29,1.59 -1.29,1.09 0.13,1.72 -1.23,0.18 -0.34,1.02 -1.18,0.75 -2.19,0.26 0.06,2.63 -1.07,0.42 -0.22,0.68 0.74,0.6 -1.41,1.44 -0.81,0.31 -1.05,-1.07 -1.99,1.07 -1.01,-0.5 -2.84,0.81 -0.89,-0.83 -1.03,0.99 -0.85,-0.26 -0.49,0.78 0.31,0.47 -1.3,1.09 -0.54,0.21 0.23,-0.68 -1.28,-0.39 -0.92,0.65 -1.39,-0.06 -0.23,0.68 0.43,0.13 -3.03,2.05 0.4,1.62 -0.92,0.65 0.09,1.15 -1.22,0.34 -0.58,-0.37 -1.57,1.2 -0.31,-0.47 -0.81,0.31 0.2,0.81 -0.65,0.55 -1.01,-0.5 0.31,0.47 -0.81,0.31 0.2,0.81 -1.19,0.75 0.63,0.94 -1.35,0.52 -0.07,0.92 -1.26,1.67 -1.51,0.28 0.07,-0.91 -0.85,-0.26 -1.38,2.01 -0.81,0.31 -0.02,1.49 -1.78,0.39 -0.07,0.92 -0.81,0.31 -0.31,-0.47 -1.58,1.2 -2.1,-0.09 0.52,1.29 -1.78,0.39 -1.03,0.99 0.63,0.95 -1.68,1.54 -0.06,0.92 -1.24,0.18 -0.2,-0.81 -1.24,0.18 -0.47,-0.71 -0.49,0.78 -1.88,0.72 -0.44,1.36 -1.23,0.18 -0.98,1.56 -1.87,0.72 -0.95,-1.42 -2.2,1.74 -1.65,0.04 -1.72,2.45 -1.22,0.17 -0.44,1.36 -2.02,0.48 0.46,2.22 -0.44,1.37 -2.24,1.17 0.04,2.09 -1.02,1 -1.23,0.17 0.47,0.72 -0.65,0.55 0.09,1.17 -1.12,-0.17 -0.22,0.69 -1.61,0.61 0.09,1.17 -1.39,-0.07 -0.83,1.81 -2.65,1.6 -0.41,1.95 -0.7,-0.04 -0.72,1.47 -0.81,0.3 -0.74,-0.62 -2.05,0.46 -1.55,-0.32 -0.45,1.37 0.63,0.97 -0.57,1.71 -1.94,0.12 -1.15,1.33 -1.67,0.02 -0.46,1.37 -2.79,1.94 -1.6,-0.92 -0.87,-2.4 -1.09,0.4 0.32,0.49 -0.55,0.2 -0.19,1.28 -0.82,0.3 -3.79,-0.13 -0.68,-1.57 -2.57,1.24 0.04,0.59 -2.5,0.3 0.2,0.84 -1.64,0.6 0.52,1.34 -1.21,0.75 0.36,1.09 -3.71,1.05 -0.07,0.94 -0.82,0.3 0.24,1.44 -1.04,3.14 0.32,0.5 -1.28,1.7 -0.94,0.65 -1.6,1.2 0.2,0.85 -1.73,-0.59 -0.47,-0.74 -1.09,0.4 -2.88,2.91 -0.86,-0.29 -2.19,0.81 -1.44,1.46 -3.329997,0.63 -1.02,-0.54 -0.82,0.31 -0.31,-0.49 0.82,-2.45 0.23,-0.7 0.39,-0.45 -0.9,-0.88 1.49,-0.86 -0.04,-0.6 0.98,-0.06 0.23,-0.7 -1.72,-0.57 0.23,-0.7 -1.33,-1.02 0.39,-0.45 -0.39,-1.68 -1.4,-0.07 -1.05,-1.11 -1.82,-0.21 -3.38,1.6 -2.22,-0.65 -1.77,-0.99 2.07,-0.84 1.92,-2.24 2.77,-2.32 1.1,-0.31 0.74,-2.12 2.1,-1.65 0.08,-1.86 1.49,-1.32 -0.07,-0.92 5.759997,-0.29 0.7,-0.63 0.67,0.15 1.18,-1.42 1.83,-0.56 -0.31,1.11 1.09,0.95 2.32,0.02 3.24,-1.11 1.97,-1.09 3.04,-3.36 2.83,-1.29 4.03,-3.44 2.39,-2.9 4.48,-3.06 3.03,-1.22 1.13,-1.64 2.07,-0.89 1.5,-0.07 1.45,0.25 1.97,-2.18 0.43,0.83 0.91,-0.03 2.35,-2.54 1.54,-0.27 4.12,-6.83 1.91,-1.38 3.02,-0.31 2.36,-1.65 2.68,-3.97 1.25,-0.47 3.63,-3.44 3.34,-5.47 4.96,0.06 -0.07,-1.09 -0.97,0.02 1.83,-2.47 3.3,-1.45 1.18,0.16 1.86,-0.68 6.02,-4.08 5.62,-5.52 3.01,-5.25 4.34,-4.34 3.15,-4.92 2.74,-6.81 0.32,-2.05 1.03,-0.53 2.4,-5.39 1.11,-8.23 1.46,-4.07 0.89,-0.78 0.92,-5.29 1.48,-1.49 0.37,-1.51 0.3,-2.11 -0.51,-0.72 -0.06,-2.82 0.46,-0.39 3.05,0.29 1.6,-1.2 3.4,0.62 1.66,-0.92 6.16,-5.94 4.23,-8.42 3.12,-3.09 1.64,-11.33 -0.3,-3.1 0.51,-3.83 -0.53,-6.83 1.19,-1.25 0.09,-1.27 z"
     inkscape:connector-curvature="0"
     style="fill:#cccccc;fill-opacity:1;stroke:#ffffff;stroke-width:0.5;stroke-opacity:1" />
  <g
     id="layer1"
     inkscape:label="Vrstva 1"
     transform="matrix(0.25305654,0,0,0.2430574,431.18182,214.84425)">
    <circle
       transform="matrix(0.994318,0,0,0.994318,-275.5681,-427.0646)"
       id="path1306"
       style="fill:#ff1414;fill-opacity:0.78448277;stroke-width:10.19400024;stroke-miterlimit:4;stroke-dasharray:none"
       cx="340"
       cy="492.36218"
       r="62.857143" />
  </g>
</svg>
