<?xml version="1.0" encoding="UTF-8" standalone="no"?>
<svg
   xmlns:dc="http://purl.org/dc/elements/1.1/"
   xmlns:cc="http://creativecommons.org/ns#"
   xmlns:rdf="http://www.w3.org/1999/02/22-rdf-syntax-ns#"
   xmlns:svg="http://www.w3.org/2000/svg"
   xmlns="http://www.w3.org/2000/svg"
   xmlns:sodipodi="http://sodipodi.sourceforge.net/DTD/sodipodi-0.dtd"
   xmlns:inkscape="http://www.inkscape.org/namespaces/inkscape"
   version="1.1"
   id="svg37"
   sodipodi:docname="SEM.svg"
   width="799.66205"
   height="725.39954"
   inkscape:version="0.92.4 (5da689c313, 2019-01-14)">
  <metadata
     id="metadata41">
    <rdf:RDF>
      <cc:Work
         rdf:about="">
        <dc:format>image/svg+xml</dc:format>
        <dc:type
           rdf:resource="http://purl.org/dc/dcmitype/StillImage" />
        <dc:title />
      </cc:Work>
    </rdf:RDF>
  </metadata>
  <sodipodi:namedview
     pagecolor="#ffffff"
     bordercolor="#666666"
     borderopacity="1"
     objecttolerance="10"
     gridtolerance="10"
     guidetolerance="10"
     inkscape:pageopacity="0"
     inkscape:pageshadow="2"
     inkscape:window-width="958"
     inkscape:window-height="1008"
     id="namedview39"
     showgrid="false"
     fit-margin-top="0"
     fit-margin-left="0"
     fit-margin-right="0"
     fit-margin-bottom="0"
     inkscape:zoom="1.18"
     inkscape:cx="329.98254"
     inkscape:cy="430.78408"
     inkscape:window-x="953"
     inkscape:window-y="0"
     inkscape:window-maximized="0"
     inkscape:current-layer="svg37" />
  <defs
     id="defs4">
    <style
       id="style2">.land{fill:#ccc;fill-opacity:1;stroke:#fff;stroke-opacity:1;stroke-width:.5}</style>
  </defs>
  <path
     id="IR-32"
     class="land"
     d="m 281.11138,181.77387 -9.84,-1.05 -4.69,0.39 -1.2,1.81 2.11,2.91 1.53,1.31 2.94,0.88 1.91,1.65 -1.31,4.43 -1.98,4.13 -0.49,1.88 -1.42,1.36 -8.38,4.1 -2.28,2.2 -0.51,1.99 0.34,1.57 1.05,2.35 0.89,1.48 1.79,0.42 4.17,0.26 4.06,1.2 2.38,2.15 1.05,0.61 0.42,-0.76 v -0.85 l -1.6,-2.22 0.53,-1.38 2.33,0.03 1.6,1.9 -0.02,2.82 0.3,1.69 1.18,-0.23 1.15,-2.35 1.9,-0.18 1.09,-2.52 2.67,-1.65 2.17,-2.67 1.17,-3.09 3.67,-0.2 0.51,-2.47 0.16,-3.3 2.51,-2.89 3.34,-1.24 3.33,0.42 2.34,-1.45 v -2.89 l 0.14,-2.16 -2.69,-3.17 -6.78,-1.51 -1.74,-0.76 -1.57,-1.45 -0.75,-1.09 -2.64,-1.05 z"
     inkscape:connector-curvature="0"
     style="fill:#cccccc;fill-opacity:1;stroke:#ffffff;stroke-width:0.5;stroke-opacity:1" />
  <path
     id="IR-15"
     class="land"
     d="m 572.20138,415.52387 -44.41,-19.13 -5.28,-0.94 -0.9,1.37 -1.9,2.06 -8.61,4.87 -2.92,3.12 -21.98,11.62 -1.84,3.93 -0.53,15.25 -0.62,3.36 -7.01,3.1 -7.81,1.07 -3.39,-0.7 -5.3,-0.2 -23.26,4.13 -3.64,4.07 -1.91,3.64 -0.92,3.51 0.11,2.38 2.31,4.38 2.45,6.44 0.98,4.79 1.33,1.63 1.34,0.92 -0.52,15.52 0.44,2.72 0.57,1.9 0.04,1.35 -1.3,0.94 -4.18,0.51 -0.41,0.35 -1.83,0.81 v 0.94 l 1.12,3.77 3.37,6.99 0.47,1.82 0.9,1.6 0.98,1 1.86,1.19 9.48,0.87 2.4,1.03 8.37,20.8 3.52,0.26 7.47,2.13 3.71,2.9 1.8,2.37 1.82,1.27 1.85,0.92 2.12,-0.55 8.28,-6.29 4.87,-2.28 1.23,-0.16 1.17,1.73 0.79,17.97 -1.02,3.48 0.86,4.6 3.7,4.78 3.55,3.27 4.25,2.58 4.93,0.75 2.65,-0.47 4.87,-2.41 4.47,-4.26 1.27,-1.55 1.9,-1.51 2.25,0.09 4.32,2.12 0.33,0.75 -0.37,4.81 1.51,7.29 0.6,0.99 0.82,0.69 1.27,0.17 2.15,1.17 1.65,2.15 0.97,1.86 1.89,2.06 1.87,2.85 0.27,2.35 -1.14,0.96 -0.73,1.44 0.94,1.36 1.11,0.57 1.12,2.29 1.26,3.66 1.3,17.42 0.84,2.7 12.78,6.79 2.81,2.07 1.25,0.38 1.94,-1.83 1,-1.38 1.69,-1.15 2.73,0.07 2.85,1.71 3.09,2.6 2.43,2.82 1.19,2.57 -0.35,0.89 -2.6,-1.59 -0.89,-0.04 -0.04,0.92 1,2.97 0.05,1.18 -0.23,0.77 -0.75,0.93 -0.58,1.43 -0.96,9.02 0.24,1.34 v 1.33 l -0.49,2.58 -0.84,1.04 0.07,0.94 5.49,-0.39 3.39,0.61 2.24,-0.21 1.43,-0.68 1.46,0.34 1.58,0.72 2.59,0.4 0.77,0.5 -0.06,0.5 -0.39,0.84 0.1,0.9 0.42,1.02 0.12,1.44 0.7,1.24 1.7,0.39 2.06,0.07 1.77,-0.22 1.22,-1.29 1.21,-0.3 1.61,0.63 1.12,-0.01 0.6,0.5 1.69,2.55 0.82,-2.01 0.25,-1.71 -0.03,-2.85 0.51,-1.2 0.56,-0.74 -0.08,-1.5 0.78,-0.95 0.67,-1.78 -0.36,-1.77 -1.43,-1.7 -0.77,-2.69 1.03,-2.13 1.32,-1.58 -0.03,-1.58 -1.33,-1.21 -0.67,-1.06 1.16,-2 1.17,-3.52 -2.18,-4.43 -3.15,-3.63 -0.85,-3.16 0.13,-2.99 -0.16,-1.74 -0.99,-3.9 -0.02,-4.61 4.77,-18.71 0.55,-5.35 -0.28,-16.23 4.77,-6.24 1.28,-4.25 -1.47,-2.39 -3.4,-2.58 -1.54,-2.38 2.4,-1.28 4.7,-1.6 9.63,-5.61 1.87,-1.48 1.21,-1.32 0.07,-1.74 -0.43,-1.84 -1.21,-2.54 -0.06,-3.88 -0.59,-3.14 0.59,-3.05 3.47,-5.31 1.27,-4.69 0.12,-4.14 -1.43,-10.04 -1.65,-4.18 -1.87,-1.23 -0.98,-1.04 0.37,-3.96 8.49,-39.5 -16.52,-24.09 -5.94,-4.43 z"
     inkscape:connector-curvature="0"
     style="fill:#cccccc;fill-opacity:1;stroke:#ffffff;stroke-width:0.5;stroke-opacity:1" />
  <path
     id="IR-13"
     class="land"
     d="m 720.22138,725.10387 0.97,-1.29 -0.6,-0.42 2.26,-0.68 0.59,-0.32 0.33,-0.31 0.05,-0.18 v -0.24 l 0.19,-0.48 0.64,-0.84 0.23,-0.44 -0.34,-0.4 -0.41,-0.23 -0.97,-0.31 0.89,-0.69 0.69,0.01 0.67,0.27 0.88,0.1 -0.23,-0.21 -0.41,-0.48 -0.23,-0.22 0.13,-0.28 0.06,-0.74 0.12,-0.26 0.4,-0.26 0.2,0.14 0.13,0.28 0.72,0.52 0.08,0.77 0.27,0.67 v -0.01 l 1.31,-3.81 0.25,-3.86 0.29,-4.56 0.25,-3.93 0.17,-2.67 0.14,-0.66 0.25,-0.44 0.6,-0.61 0.27,-0.36 0.12,-1.58 -0.46,-1.82 -0.21,-1.69 0.87,-1.21 0.88,-0.21 0.8,0.02 0.72,-0.17 0.63,-0.77 0.23,-0.81 0.44,-3.21 0.52,-3.83 0.39,-2.86 0.33,-2.48 0.38,-2.8 0.35,-1.43 0.6,-1.25 1.01,-0.78 4.99,-1.42 1.48,-0.99 0.77,-0.38 0.85,-0.27 1.72,-0.28 0.37,-0.48 0.15,-1.14 0.7,-1.12 1.56,0.21 1.84,0.65 1.55,0.22 0.9,-0.48 -0.04,-0.65 -0.4,-0.85 -0.23,-1.06 0.3,-0.57 1.3,-1.29 0.43,-0.8 -0.04,-0.29 -0.16,-0.26 -0.13,-0.3 0.08,-0.41 0.26,-0.35 0.36,-0.22 0.81,-0.33 0.34,-0.19 0.53,-0.39 0.34,-0.15 0.39,-0.04 0.88,0.04 0.42,-0.12 0.24,-0.22 0.34,-0.6 0.33,-0.25 0.39,-0.12 6.93,-0.73 0.84,-0.3 0.35,-0.27 0.32,-0.34 0.36,-0.22 0.44,0.09 0.47,0.22 0.35,0.03 1.28,-0.29 0.35,-0.14 0.31,-0.16 0.28,-0.22 0.43,-0.79 0.31,-0.42 0.45,-0.13 2.82,0.07 3.24,0.08 3.75,0.09 1.61,0.25 1.63,0.05 1.21,-0.27 0.39,0.03 0.36,0.17 0.3,0.21 0.32,0.17 0.42,0.02 0.93,-0.91 0.44,-1.85 0.32,-6.73 0.31,-0.73 0.68,-0.36 1.68,-0.27 0.62,-0.57 0.13,-0.85 -0.34,-0.75 -0.52,-0.75 -0.37,-0.87 -0.21,-5.24 0.06,-0.55 0.17,-0.47 0.44,-0.63 0.16,-0.47 0.45,-0.74 0.81,-0.36 h 0.91 l 0.71,0.28 -1.41,-3.13 -0.59,-0.88 -0.44,-0.48 -0.38,-0.24 -1.02,-0.37 -0.47,-0.3 -1.07,-0.98 -0.52,-0.19 -0.42,-0.01 -2.26,0.72 -0.53,0.02 -0.69,-0.07 -1.1,0.05 -2.17,0.67 -1.08,0.17 -2.41,0.48 -1.12,0.06 -1.31,-0.28 -0.97,-0.54 -0.33,-0.11 -0.29,0.05 -0.57,0.33 -0.33,0.01 -0.62,-0.34 -1.79,-1.6 0.66,-0.04 0.4,-0.31 0.25,-0.52 0.2,-0.67 0.07,-0.75 -0.2,-0.51 -0.81,-0.98 2.17,-4.91 0.25,-1.94 -0.22,-2.43 -0.4,-4.31 -0.2,-2.34 -0.35,-3.78 -0.25,-2.78 -1.08,-4.5 -0.77,-3.24 0.67,-5.34 0.6,-4.82 -0.2,-1.64 -0.92,-0.56 -6.77,1.38 -0.84,-0.53 -2.61,-2.84 -0.6,-1.02 -0.27,-0.81 -0.29,-0.48 -0.43,-0.28 -0.69,-0.22 -0.67,-0.38 -0.42,-0.57 -0.36,-0.63 -0.48,-0.57 -1.15,-0.6 -5.46,-1.11 -3.45,-1.54 -1.32,-0.29 -2.75,-0.23 -1.25,-0.4 -1.98,-1.14 -2.47,-0.7 -0.77,-0.41 -1.31,-1.52 -2.62,-2.44 -1.72,-2.24 -4.27,-3.88 -1.2,-1.48 -1.19,-2.6 -1.19,-1.34 -0.22,-0.7 -0.09,-0.8 -0.24,-0.92 -1.75,-4.03 -0.37,-0.49 -0.46,-0.36 -0.53,-0.25 -0.32,-0.25 -0.1,-0.27 0.12,-0.29 0.3,-0.31 0.38,-0.41 0.14,-0.43 -0.12,-0.41 -0.4,-0.32 -0.71,-0.3 -0.32,-0.69 -0.22,-0.81 -0.42,-0.67 -0.45,-0.24 -0.38,-0.05 -0.38,-0.13 -0.44,-0.5 -0.21,-0.54 -0.11,-1.18 -0.13,-0.54 -0.53,-0.81 -1.32,-1.46 -0.39,-0.96 v -0.93 l 0.49,-1.67 0.08,-0.92 -0.38,-1.21 -0.73,-0.52 -0.87,-0.34 -0.81,-0.67 -3.41,-4.07 -3.23,-3.88 -3.12,-3.74 -2.71,-3.25 -2.19,-2.59 -3.34,-3.97 2.4,-2.8 3.14,-3.69 0.01,-0.01 6.4,-7.65 3.42,-4.09 2.34,-2.8 4.48,-5.37 3.36,-4.05 4.74,-5.73 5.23,-6.34 3.42,-4.14 0.7,-0.75 -0.1,-0.26 -0.05,-0.05 0.06,-0.87 0.1,-0.34 0.25,-0.14 -0.16,-3.29 -0.18,-0.57 0.79,-1.56 0.3,-1.02 -0.01,-0.95 -0.2,-0.96 -0.5,-1.58 -0.73,-1.53 -0.1,-0.51 -0.07,-1.41 -0.35,-1.09 -1.11,-1.84 -0.4,-0.99 -0.02,-0.96 0.29,-2.08 -0.29,-0.9 -1.48,-1.88 -0.81,-0.65 -1.06,-0.42 -2.28,-0.33 -4.77,-0.7 -8.12,-1.19 -7.02,-1.03 0.75,2.82 -0.57,5.83 -2.65,6.39 -1.96,7.08 -0.86,12.6 0.17,3.67 2.1,9.33 -0.07,1.5 -0.65,0.99 -1.4,0.56 -5.63,0.2 -3.39,-2.92 -6.51,-9.3 -5.1,-3.76 -3.83,-1.05 -0.95,-0.76 -1.46,-1.54 -2.25,-0.41 -31.05,8.82 -1.3,0.63 -8.49,39.5 -0.37,3.96 0.98,1.04 1.87,1.23 1.65,4.18 1.43,10.04 -0.12,4.14 -1.27,4.69 -3.47,5.31 -0.59,3.05 0.59,3.14 0.06,3.88 1.21,2.54 0.43,1.84 -0.07,1.74 -1.21,1.32 -1.87,1.48 -9.63,5.61 -4.7,1.6 -2.4,1.28 1.54,2.38 3.4,2.58 1.47,2.39 -1.28,4.25 -4.77,6.24 0.28,16.23 -0.55,5.35 -4.77,18.71 0.02,4.61 0.99,3.9 0.16,1.74 -0.13,2.99 0.85,3.16 3.15,3.63 2.18,4.43 -1.17,3.52 -1.16,2 0.67,1.06 1.33,1.21 0.03,1.58 -1.32,1.58 -1.03,2.13 0.77,2.69 1.43,1.7 0.36,1.77 -0.67,1.78 -0.78,0.95 0.08,1.5 -0.56,0.74 -0.51,1.2 0.03,2.85 -0.25,1.71 -0.82,2.01 -0.49,0.27 -0.75,1.14 -0.2,1.47 0.16,0.84 0.57,0.24 1.47,0.93 7.84,6.95 1.34,2.19 0.22,1.66 0.91,0.93 1.25,0.48 0.68,0.84 0.27,0.94 0.57,0.73 0.69,0.68 1.46,2.5 0.34,0.46 0.77,0.38 -0.11,0.74 -0.02,0.69 -1.09,0.47 0.18,1.09 1.16,-0.18 4.89,-0.79 2.34,-0.45 1.51,0.84 1.97,2 3.15,0.73 1.87,0.02 4.78,-0.3 1.87,0.49 1.73,1.66 1.74,0.6 1.53,-1.15 2.22,-0.09 2.11,-0.32 1.52,-0.09 0.65,0.35 0.46,0.6 0.32,0.24 1.42,0.21 0.45,0.15 0.83,0.56 1.13,0.01 0.28,-0.86 -0.87,-0.59 -0.1,-0.22 v -0.27 l 0.37,-0.42 0.24,-0.09 1.15,-0.23 1.5,-0.07 0.75,0.11 0.6,0.28 -0.18,0.18 -0.39,0.73 1.2,0.98 1.8,-0.03 0.83,0.47 1.69,0.7 1.33,0.56 0.48,0.11 0.11,-0.58 -1.19,-0.62 v -0.1 l 0.46,0.06 -0.44,-0.47 -0.17,-0.29 -0.17,-0.11 h -0.36 l -0.46,-0.22 -0.28,-0.03 -0.2,-0.13 -0.16,-0.93 -0.13,-0.29 0.01,-0.3 0.33,-0.5 0.65,-0.79 0.39,-0.62 0.71,-0.39 2.84,-0.88 0.74,-0.07 0.73,0.09 0.64,0.38 1.51,1.49 0.13,0.41 0.01,2.57 0.13,0.61 1,1.45 -0.64,0.59 0.69,0.37 3.9,0.49 5.75,1.36 6.78,1.13 5.78,2.08 0.63,1.13 -0.02,0.75 2.42,0.52 z"
     inkscape:connector-curvature="0"
     style="fill:#cccccc;fill-opacity:1;stroke:#ffffff;stroke-width:0.5;stroke-opacity:1" />
  <path
     id="IR-31"
     class="land"
     d="m 558.19138,98.543868 -5.96,-2.37 -1.04,-1.4 0.81,-2.77 0.11,-0.88 -0.21,-0.92 -0.88,-1.26 -0.48,-1.58 -1.36,-1.47 -0.48,-0.73 -0.75,-1.82 -0.96,-1.63 -0.17,-0.46 -0.02,-0.39 -0.11,-0.34 -0.46,-0.3 -0.89,-0.31 -0.45,-0.05 -0.45,0.05 -0.72,0.36 -0.36,0.39 -0.13,0.14 -0.83,1.45 -0.49,0.53 -1.34,0.9 -0.58,0.51 -0.75,0.42 -0.84,-0.13 -1.64,-0.68 -6.23,-1.17 -0.64,-0.21 -1.42,-0.82 -1.62,-1.32 -0.4,-0.08 -1.98,0.34 -3.32,1.46 -0.66,0.12 -0.56,-0.26 -0.52,-0.41 -0.58,-0.36 -0.71,-0.17 -3.79,0.12 -1.5,0.58 -1.4,0.98 -2.61,2.43 -0.26,0.72 1.13,1.29 0.19,0.92 -0.14,0.97 -0.42,0.83 -0.65,0.49 -3.54,0.59 -0.68,-0.09 -1.28,-0.53 0.28,3.68 -0.27,1.49 0.11,1.9 0.49,2.21 -0.04,1.240002 -0.84,3.38 0.09,2.38 1.41,1.67 1.95,0.97 1.69,1.3 0.77,3.19 -2.28,3.17 -4.85,1.68 -1.1,0.17 -1.25,0.57 -1.26,1.16 -3.01,1.25 -3.03,5.37 -1.25,1.22 6.26,8.35 2.94,2.08 1.63,-0.29 2.02,0.85 -0.44,1.19 -2.41,0.72 -1.07,0.86 -0.26,0.76 0.27,0.41 0.27,0.56 0.2,1.37 -0.21,3.51 -0.78,3.1 -0.15,1.04 0.78,1.63 4.9,5.52 4.69,4.05 2.34,0.77 3.94,0.68 2.06,0.79 6.3,-1.07 0.13,-1.4 -0.32,-1.83 0.33,-2.35 2.39,-3.19 9.96,-8.1 6.61,0.32 27.4,15.24 11.46,1.76 3.14,-0.78 1.55,-1.46 1.38,-4.03 -0.34,-1.62 -1.48,-0.88 -0.54,-0.82 0.27,-1.44 2.45,-2.64 -0.15,-1.2 -1.37,-0.67 -0.83,-1.27 -0.35,-1.33 -0.54,0.24 -0.6,1.57 -1.11,0.17 -0.74,-1.46 -1.15,-1.26 -2.02,-1.41 -0.2,-1.81 1.68,-2.09 2.49,-7.34 1.49,-2.09 0.41,-1.55 0.04,-1.03 0.38,-0.9 1.09,-1.35 0.91,-1.67 -0.25,-2.1 -1.14,-2.33 -3.75,-3.52 -0.96,-2.17 -0.52,-1.78 -0.78,-0.98 -18.56,-0.88 -1.58,-1.14 0.68,-1.81 0.46,-1.94 v -2.28 l 1.56,-1.6 5.02,-3.100002 -0.2,-0.02 -0.53,-0.34 -0.52,-0.45 -0.56,-0.34 -0.62,-0.01 -0.62,0.16 -2.02,0.04 -2.11,-0.61 -0.69,-0.09 -0.7,0.11 -0.65,0.2 z"
     inkscape:connector-curvature="0"
     style="fill:#cccccc;fill-opacity:1;stroke:#ffffff;stroke-width:0.5;stroke-opacity:1" />
  <path
     id="IR-30"
     class="land"
     d="m 570.76138,101.41387 -0.62,-0.26 -0.25,-0.33 -0.37,-0.79 -0.29,-0.290002 -0.35,-0.08 -0.67,0.15 -0.15,-0.01 -5.02,3.100002 -1.56,1.6 v 2.28 l -0.46,1.94 -0.68,1.81 1.58,1.14 18.56,0.88 0.78,0.98 0.52,1.78 0.96,2.17 3.75,3.52 1.14,2.33 0.25,2.1 -0.91,1.67 -1.09,1.35 -0.38,0.9 -0.04,1.03 -0.41,1.55 -1.49,2.09 -2.49,7.34 -1.68,2.09 0.2,1.81 2.02,1.41 1.15,1.26 0.74,1.46 1.11,-0.17 0.6,-1.57 0.54,-0.24 0.35,1.33 0.83,1.27 1.37,0.67 0.15,1.2 -2.45,2.64 -0.27,1.44 0.54,0.82 1.48,0.88 0.34,1.62 -1.38,4.03 -1.55,1.46 -3.14,0.78 -11.46,-1.76 -27.4,-15.24 -6.61,-0.32 -9.96,8.1 -2.39,3.19 -0.33,2.35 0.32,1.83 -0.13,1.4 0.81,-0.23 1.32,0.05 1.68,1.01 1.02,4.05 -1.12,4.81 -1.67,3.2 -0.61,5.59 0.78,9.62 1.34,6.19 1.13,2.86 9.81,8.04 2.71,3.12 -0.63,3.56 -7.2,12.4 -1.76,4.09 -1.26,0.99 -8.74,3.3 -4.7,2.8 -5.34,4.89 -6.65,8.24 16.91,-4.42 16.45,-7.82 10.42,-2.68 4.6,1.21 12.07,9.28 1.42,3.18 -0.56,3.23 -4.01,3.94 -16.4,11.63 -2.82,5.09 -5.21,15.72 -0.34,8.44 2.58,14.36 1.94,3.07 8.22,0.98 10.57,-2.46 1.77,2.26 1.64,3.17 3.09,20.92 2.7,6.16 3.51,2.02 0.99,0.78 2.68,1.2 3.52,2.2 3.34,5.26 1.09,0.77 1.04,-1.24 1.77,-3.04 1.37,-5.84 5.74,-8.72 13.01,-8.64 1.84,-1.89 2.06,-3.31 0.25,-1.42 1.24,-2.28 -6.28,-4.59 -0.35,-1.43 -0.43,-1.17 -0.97,-0.7 -1.16,-1.14 -0.19,-2.11 0.62,-2.83 1.06,-2.56 0.16,-1.97 -0.44,-2.2 0.87,-3.68 0.39,-3.3 -1.62,-2.61 -0.23,-1.31 0.61,-1.43 2.22,-0.85 6.59,0.83 4.24,1.3 1.13,-0.82 1.18,-1.31 12.29,-1.83 3.84,-2.21 4.31,-1.61 2.23,1.91 4.06,6.64 5.42,1.93 25.75,-0.08 3.23,-0.54 h 0.02 l -0.07,-0.67 0.24,-2.24 1.17,-2.35 1.3,-1.7 1.45,-1.51 1.97,-1.05 0.64,-0.71 -0.28,-1.07 2.92,-0.17 4.21,-0.26 3.08,-0.18 -0.47,-0.94 -3.07,-4 -0.65,-1.31 -0.41,-0.58 -0.5,-0.45 -1.01,-0.47 -0.37,-0.35 -0.35,-1.2 -0.27,-0.34 -0.35,-0.2 -0.44,-0.07 0.6,-1.05 1.03,-0.54 2.27,-0.3 1.03,-0.29 0.81,-0.56 1.88,-2.15 0.21,-0.4 0.27,-0.33 0.55,-0.32 0.58,-0.1 0.54,0.05 0.48,-0.12 0.44,-0.57 0.16,-1.23 -0.13,-1.3 0.05,-1.19 0.74,-0.87 1.31,-1.03 0.81,-1.45 0.23,-0.83 1.27,-0.43 0.33,-1.66 0.18,-1.78 -0.03,-0.44 -0.18,-0.94 -0.04,-0.52 0.13,-0.63 0.58,-0.95 0.13,-0.48 0.14,-0.99 0.6,-1.89 0.25,-2.09 0.3,-0.73 1,-1.41 -0.44,-0.46 -0.06,-0.41 0.11,-0.45 0.08,-0.58 -0.11,-0.21 -1.47,-2 -0.22,-0.5 0.25,-0.23 0.42,-0.22 0.01,-0.48 -0.2,-0.49 -0.23,-0.22 -0.03,-0.49 0.03,-1.08 0.25,-1.08 0.59,-0.5 0.88,-0.02 0.99,-0.17 0.8,-0.45 0.33,-0.9 -0.2,-2.61 0.2,-1.04 0.24,-0.56 0.86,-1.18 0.23,-0.52 0.36,-1.59 0.46,-0.98 0.97,-1.18 0.55,-0.96 0.26,-1.06 -0.11,-1.03 -0.43,-2.08 -0.31,-0.47 -1,-1.57 -0.56,-1.15 -0.11,-1.36 0.16,-0.31 0.57,-0.55 0.12,-0.36 -0.03,-0.9 0.03,-0.29 0.27,-1.21 -0.01,-0.5 -0.26,-0.38 0.26,-1.14 -0.02,-0.83 -0.15,-0.77 -0.19,-1.82 -0.26,-0.91 -0.37,-0.86 -0.43,-0.7 -0.66,-0.82 -0.72,-0.67 -0.84,-0.45 -1.01,-0.16 -0.57,-0.25 0.48,-0.61 0.84,-0.69 0.5,-0.54 0.03,-0.48 -0.15,-1.03 0.12,-0.62 0.27,-0.24 0.38,-0.16 0.36,-0.25 0.15,-0.56 0.02,-0.46 0.07,-0.51 0.13,-0.45 0.21,-0.36 0.43,-0.57 0.08,-0.31 -0.06,-0.27 -0.11,-1.54 -0.62,-3.19 -0.6,-1 -0.14,-0.5 -0.02,-1.19 -0.07,-0.53 -0.17,-0.54 -0.17,-0.31 -0.26,-0.31 -0.32,-0.26 -0.4,-0.17 0.11,-0.36 0.06,-0.14 0.14,-0.21 -0.59,-1.47 0.23,-2.52 0.89,-4.14 -0.24,-0.77 -0.07,-0.62 0.18,-0.55 0.25,-0.39 0.23,-0.49 0.16,-0.58 0.06,-0.63 -0.07,-0.65 -0.15,-0.48 -0.35,-0.79 -0.33,-1.75 -1.68,-0.23 -2.06,-0.37 -4.24,0.08 -4.91,0.09 -8.83,0.16 -5.79,0.1 -6.57,0.12 -1.37,-0.76 -0.85,-1.5 -1.21,-3.17 -0.87,-1.41 -4.38,-5.36 -1.91,-2.93 -1.56,-3.31 -1.22,-1.65 -1.56,-0.68 -3.4,-0.6 -1.52,-0.9 -2.71,-2.3 -5.96,-1.95 -0.44,-0.03 -0.39,0.21 -0.48,0.77 -0.29,0.31 -0.4,0.08 -0.55,-0.44 -0.29,-0.86 -0.2,-0.98 -0.29,-0.81 -0.69,-0.75 -0.62,-0.1 -1.31,0.52 -0.34,-0.02 -0.35,-0.18 -0.33,-0.27 -0.27,-0.28 -0.68,-0.18 -0.12,-0.37 0.12,-0.43 0.05,-0.35 0.06,-0.14 0.15,-0.17 0.05,-0.26 -0.24,-0.35 -0.78,-0.87 -2.59,-2.16 -0.49,-0.71 -0.81,-3.59 -0.1,-1.09 0.14,-0.58 0.26,-0.51 0.17,-0.47 -0.12,-0.43 -0.25,-0.57 0.13,-1.16 -0.19,-0.69 -0.8,-1.11 -0.83,-0.79 -0.95,-0.25 -2.33,1.06 -0.88,-0.08 -5.52,-3.99 -1.35,-1.4 -0.46,-0.26 -1.2,-0.18 -0.56,-0.18 -0.58,-0.42 -1.63,-0.76 -3.21,-0.74 -2.48,-1.39 -0.23,0.37 -0.1,0.77 -0.55,0.69 -0.44,0.15 -0.42,0.04 -0.89,-0.17 h -0.47 l -0.29,0.24 -0.26,0.31 -0.36,0.22 -0.93,0.1 -0.94,-0.14 -1.79,-0.74 -2.08,-1.85 -0.67,-0.35 -0.81,0.06 -0.64,0.47 -0.5,0.74 -0.38,0.87 -0.56,0.87 -0.71,0.34 -3.75,0.37 -0.58,-0.15 -1.09,-0.78 -0.52,-0.25 -3.23,-0.49 -0.7,-0.26 -0.71,-0.59 -0.2,-0.6 v -0.72 l -0.11,-0.96 -0.14,-0.39 -0.66,-1.22 -0.03,-0.41 0.09,-0.37 -0.01,-0.36 -0.31,-0.36 -0.7,-0.34 -0.67,-0.15 -1.39,-0.13 -2.73,-0.64 -6.49,-3.12 -1.43,-0.39 -0.67,0.05 -0.7,0.16 z"
     inkscape:connector-curvature="0"
     style="fill:#cccccc;fill-opacity:1;stroke:#ffffff;stroke-width:0.5;stroke-opacity:1" />
  <path
     id="IR-29"
     class="land"
     d="m 653.02138,295.74387 -5.42,-1.93 -4.06,-6.64 -2.23,-1.91 -4.31,1.61 -3.84,2.21 -12.29,1.83 -1.18,1.31 -1.13,0.82 -4.24,-1.3 -6.59,-0.83 -2.22,0.85 -0.61,1.43 0.23,1.31 1.62,2.61 -0.39,3.3 -0.87,3.68 0.44,2.2 -0.16,1.97 -1.06,2.56 -0.62,2.83 0.19,2.11 1.16,1.14 0.97,0.7 0.43,1.17 0.35,1.43 6.28,4.59 -1.24,2.28 -0.25,1.42 -2.06,3.31 -1.84,1.89 -13.01,8.64 -5.74,8.72 -1.37,5.84 -1.77,3.04 -1.04,1.24 0.2,3.78 -0.34,1.51 -1.12,1.82 -0.7,1.76 0.3,1.09 0.63,1.13 1.21,1.38 0.07,1.49 1.26,2.74 1.66,2.75 -0.09,2.69 -0.94,2.73 -0.38,2.4 -0.68,2.28 -5.51,7.4 -1.52,4.26 -4.25,6.61 -2.17,5.58 -0.58,0.95 47.09,21.31 5.94,4.43 16.52,24.09 1.3,-0.63 31.05,-8.82 2.25,0.41 1.46,1.54 0.95,0.76 3.83,1.05 5.1,3.76 6.51,9.3 3.39,2.92 5.63,-0.2 1.4,-0.56 0.65,-0.99 0.07,-1.5 -2.1,-9.33 -0.17,-3.67 0.86,-12.6 1.96,-7.08 2.65,-6.39 0.57,-5.83 -0.75,-2.82 -0.06,-0.01 -6.94,-1.02 -4.17,-0.61 -1.38,-0.58 -0.49,-4.55 -0.62,-2.35 -0.1,-1.14 0.53,-3.59 -0.58,-4.51 -0.09,-2.36 0.31,-3.01 -0.07,-1.06 -0.16,-0.52 -0.21,-0.48 -0.08,-0.5 0.35,-1.07 -0.24,-0.28 -0.35,-0.2 -0.14,-0.3 0.32,-0.75 1.08,-1.4 0.25,-0.81 0.56,-3.89 0.08,-3.99 -1.4,-5.24 -1.83,-6.79 -1.68,-5.69 -1.52,-5.17 -1.44,-4.92 -1.4,-4.77 -1.19,-4.04 -0.6,-3.16 -0.06,-3.9 0.25,-0.69 2,-2.72 2.25,-3.04 2.02,-2.74 1.57,-2.15 1.19,-1.06 1.36,-0.85 0.43,-0.56 0.23,-0.99 -0.07,-0.86 -0.15,-0.82 0.12,-0.72 0.73,-0.49 1.96,-0.13 0.62,-0.22 0.32,-0.55 0.04,-0.08 -0.37,-0.71 -0.7,-0.63 -0.64,-0.37 -1.39,-0.36 -1.6,-0.11 -3.04,0.16 -3.24,-0.25 -3.34,-1.39 -2.61,-2.51 -1.03,-3.63 0.33,-1.63 1.28,-2.89 0.09,-1.95 -1.18,-7.63 -0.45,-4.32 h -0.02 l -3.23,0.54 z"
     inkscape:connector-curvature="0"
     style="fill:#cccccc;fill-opacity:1;stroke:#ffffff;stroke-width:0.5;stroke-opacity:1" />
  <path
     id="IR-16"
     class="land"
     d="m 174.54138,213.92387 -0.36,-1.09 -0.82,-1.4 -0.76,-0.7 -11.39,-6.95 -0.57,-1.35 0.68,-1.85 1.63,-1.71 0.91,-3.75 0.01,-5.21 -0.78,-2.89 -0.72,-0.09 -0.17,-0.07 -0.05,-0.38 0.13,-0.34 0.17,-0.33 0.06,-0.35 -0.26,-1.24 0.08,-0.46 0.43,-0.4 -0.39,-0.57 -0.46,-1 -0.4,-1.15 -0.16,-0.99 -0.29,-0.55 -1.3,-1.45 -0.14,-0.23 -20.85,-4.16 -1.2,-1.21 -1.01,0.32 -1.22,0.75 -0.18,1.01 0.3,0.86 -0.22,0.8 -0.72,1.41 -1.75,2.03 -3.12,1.38 -4.69,-0.41 -4.3,-1.19 -1.58,-1.1 -0.71,-0.78 -0.83,-0.7 -0.58,-0.78 -0.31,-0.62 -0.48,-0.41 -21.409999,1.99 -10.41,-1.49 -3.62,1.44 -0.92,1.18 -0.06,2.48 -1.99,3.03 -6.73,2.17 -1.24,1.37 -0.49,0.82 -0.9,0.93 -0.58,2.5 -2.29,2.62 -0.68,1.67 -1.62,1.62 -1.41,0.85 -0.02,0.03 1.6,0.59 1.53,1.42 0.53,0.33 1.12,0.22 1.24,1.13 1.92,2.73 1.05,2.63 0.51,0.67 0.75,0.21 1.56,-0.47 0.46,0.1 0.67,0.46 0.85,-0.06 0.8,-0.4 1.01,-0.86 0.42,0.02 0.42,0.13 0.43,0.05 1.33,-0.46 2.64,0.12 0.83,-0.27 0.8,-0.46 0.66,-0.26 0.69,0.02 1.27,0.49 0.3,0.05 0.2,0.18 0.21,1.04 0.18,0.35 0.25,0.28 0.34,0.28 0.83,0.36 0.89,-0.03 1.76,-0.39 0.78,-0.29 0.71,-0.49 0.74,-0.37 0.89,0.09 0.69,0.49 0.31,0.69 -0.09,0.8 -0.48,0.83 -0.65,0.59 -1.26,0.81 -0.57,0.83 -0.64,0.62 -0.87,0.1 -1.62,-0.09 -2.08,1.11 -0.85,0.19 -2.89,-0.09 -0.85,0.3 -0.53,0.59 -0.33,0.8 -0.14,0.9 -0.01,0.84 0.41,1.95 -0.12,0.71 -1.26,-0.39 h -0.2 l -0.19,0.05 0.36,1.03 0.46,0.97 0.16,0.21 0.06,0.21 -0.05,0.21 -0.17,0.2 -0.32,0.26 -0.22,0.33 -0.1,0.41 0.01,0.47 0.54,1.47 2.65,4.25 2.29,2.05 0.99,1.15 0.29,1.49 -0.08,0.21 1.14,0.38 7.86,6.21 9.949999,13.62 1.77,1.23 0.95,-0.07 0.17,1.07 -0.33,1.48 0.06,1.98 1.37,1.51 2.48,-0.27 3.73,0.44 2.8,-0.41 1.59,-0.84 0.19,-1.66 0.81,-1.09 1.35,-0.22 0.88,-1.01 0.01,-1.46 0.53,-1.1 1.74,-0.59 2.5,-2.61 2.57,-0.26 1.62,0.12 0.84,-0.49 0.25,-3.27 0.43,-0.98 5.92,-0.4 1.42,-1.3 0.14,-1.72 -0.75,-1.5 0.45,-0.97 1.2,0.1 1.63,1.4 4.74,2.16 6.36,7.19 1.78,0.26 1.28,-0.04 1.26,-0.69 2.54,-0.72 1.5,-0.82 0.47,-1.42 0.77,-0.2 1.33,3.28 0.9,0.49 1.37,-1.22 1.46,-2.33 0.82,-3.78 -1.14,-4.68 -2.36,-2.35 -1.7,-1.06 -2.02,-2.48 -4.47,-9.98 -2.88,-4.28 0.64,-1.29 2.18,-2.43 0.95,-0.1 1.95,4.08 1.28,0.34 1.36,-0.6 1.19,-1.16 2.95,-1 v -1.29 l -0.49,-1.09 -1.21,-1.58 -0.74,-2.04 1.49,-0.42 z"
     inkscape:connector-curvature="0"
     style="fill:#cccccc;fill-opacity:1;stroke:#ffffff;stroke-width:0.5;stroke-opacity:1" />
  <path
     id="IR-19"
     class="land"
     d="m 201.38138,71.603868 -2.67,-0.56 -1.33,-0.01 -0.92,0.51 -0.82,0.82 -1.05,0.66 -1.12,0.48 -0.99,0.29 -1.91,-0.16 0.24,0.54 1.32,1.18 0.86,1.12 0.23,0.99 1,0.41 1.56,0.36 0.64,0.68 -0.37,0.96 -9.35,11.13 -0.85,2.03 -0.36,2.78 -1.32,2.06 -0.1,2.870002 3.81,10.55 6.87,10.83 2.28,2.36 2.64,2.08 1.39,1.78 0.04,1.48 -0.18,2.28 0.35,2.73 0.45,1.27 6.24,3.99 4.59,4.86 1.76,2.84 2.45,8.51 3.91,1.88 0.08,0.88 0.52,1.64 2.34,2.97 2.52,2.37 5.68,1.7 2.12,-0.08 1.26,0.21 0.9,0.63 3.82,0.76 2.05,-0.37 7.78,-4.22 0.86,-0.3 0.91,-0.49 3.44,-0.76 5.62,0.55 2.15,-1.39 2.53,-4.55 0.91,-4.28 1.66,-1.66 2.16,-1.15 1.41,-1.96 0.4,-1.32 0.02,-0.17 h 0.01 l -2.61,-1.77 -0.8,-0.23 -0.63,-0.38 -2.04,-2.49 -2.99,-2.26 -1.45,-1.38 -1.24,-2.06 -0.97,-2.81 -0.6,-0.93 -0.38,-0.75 -0.54,-1.88 -0.36,-0.73 0.16,-1.88 -1.31,-1.24 -1.94,-0.76 -5.38,-1.24 -3.45,-1.35 0.32,-0.42 0.24,0.04 0.46,0.13 0.39,-0.07 -1.47,-0.77 -1.34,0.25 -1.41,0.58 -1.71,0.26 -15.91,-2.15 -3.09,-1.05 -6.68,-3.48 -3.02,-2.18 -2.79,-2.9 -2.1,-3.15 -0.86,-1.97 -0.43,-2.06 0.06,-0.37 0.13,-0.47 -0.01,-0.54 -1.47,-2.39 -0.31,-0.810002 -0.18,-1.13 0.04,-1.19 0.33,-1.01 -1.72,-6.13 -0.57,-6.43 -0.79,-1.95 -0.08,-2.78 -0.29,-1.13 0.47,-1.54 z"
     inkscape:connector-curvature="0"
     style="fill:#cccccc;fill-opacity:1;stroke:#ffffff;stroke-width:0.5;stroke-opacity:1" />
  <path
     id="IR-17"
     class="land"
     d="m 108.34138,255.96387 -1.77,-1.23 -9.949999,-13.62 -7.86,-6.21 -1.14,-0.38 -0.22,0.51 -0.51,0.62 -0.37,0.64 0.11,0.8 0.58,0.4 1.6,-0.01 0.63,0.52 -0.16,1.33 -0.89,1.54 -0.56,1.43 0.85,1 -0.32,0.61 -0.45,0.24 -0.51,0.1 -1.06,0.35 -0.74,-0.19 -0.41,0.04 -1.11,0.67 -0.61,0.57 -0.66,0.17 -1.24,-0.53 -0.53,0.04 -0.43,-0.18 -0.87,-0.57 -0.61,-0.21 -0.29,0.12 -0.57,0.94 -0.04,0.24 0.11,0.62 -0.08,0.24 -0.25,0.13 -0.58,0.06 -0.27,0.09 -0.44,0.43 -0.2,0.59 -0.01,0.67 0.12,0.68 v 0.01 l 0.38,1.31 -0.11,0.95 -0.35,0.92 -0.32,1.24 -0.62,0.84 -1.12,-0.39 -0.49,-0.26 -0.74,-0.4 -0.96,0.05 -0.27,0.97 0.08,1.28 -0.21,1.23 -1.15,0.8 -1.18,0.12 -0.52,0.22 -0.41,0.57 -0.13,0.61 0.1,1.02 -0.13,0.58 -1.15,1.32 -0.32,0.81 0.62,0.7 0.34,0.2 0.37,0.29 0.31,0.36 0.14,0.42 0.13,0.53 0.2,0.31 0.21,0.24 0.18,0.35 0.13,0.95 0.02,0.95 0.13,0.85 0.46,0.66 0.12,0.32 -0.01,0.54 -0.11,0.54 -0.17,0.32 -0.24,0.05 -0.92,-0.32 -2.84,-0.23 -1.28,-0.31 -1.42,-0.75 -1.61,-0.47 -0.17,1.38 0.34,2.03 -0.06,1.49 -0.19,0.4 -0.24,0.36 -0.27,0.31 -0.3,0.28 -2.17,0.49 -0.4,0.66 1.28,4.12 0.53,1.09 0.76,0.57 0.83,-0.67 h 0.92 l 0.86,0.54 0.63,0.99 0.23,1.13 -0.08,1.24 -0.56,2.41 -0.2,0.45 -0.58,0.95 -0.09,0.46 0.2,0.57 0.31,0.43 0.23,0.43 v 0.56 l -0.42,0.56 -1.67,1.38 -0.61,0.65 -1.01,0.89 -0.46,1.11 -0.35,1.27 -0.63,1.39 h -0.01 l -0.34,0.36 -0.4,0.28 -0.89,0.4 0.86,1.2 0.93,0.53 1.08,0.07 1.22,-0.19 0.11,0.02 0.09,0.04 0.07,0.07 3.69,6.71 0.55,0.62 0.64,0.54 0.54,0.6 0.3,0.83 0.18,1 0.28,0.88 0.42,0.81 0.56,0.81 0.63,0.63 1.95,1.4 0.15,0.39 0.94,-0.79 0.87,-7.21 1.58,-4.97 0.45,-3.2 -0.58,-1.91 0.77,-0.89 2.43,0.07 6.42,-0.81 6.2,2.55 3.34,0.24 3.34,0.76 2.78,1.71 3.039999,2.65 10.39,3.36 4.83,0.39 7.05,-1.8 6.48,0.3 0.87,-1.7 0.57,-3.23 -0.61,-1.25 -1.14,-1.71 v -1.52 l 6.65,-1.54 1.4,0.12 0.69,0.21 0.72,-0.51 0.59,-0.97 -0.16,-0.38 -0.04,-0.54 0.12,-0.93 -0.08,-0.58 -0.21,-0.4 -0.28,-0.3 -0.25,-0.33 -0.1,-0.49 0.25,-0.71 2.38,-1.18 2.96,-0.15 2.01,-1.04 0.24,-2.8 -0.38,-2.71 0.12,-1.12 0.8,-0.53 1.2,-0.32 2.85,0.39 0.71,-1.42 1.53,-2.31 4.1,-0.3 4.65,1 1.26,-1.05 -0.11,-2.33 0.46,-3.32 -0.42,-2.05 -0.79,-1.2 -0.95,0.21 -1.91,0.84 -3.53,3.69 -1.06,-1.61 -0.61,-2.08 -1.12,-0.59 -1.36,-0.27 -3.04,-1.67 -2.1,-1.7 -0.4,-2 0.59,-0.79 1.32,-0.52 4.14,-0.48 1.95,-2.87 1.64,-3.69 1.36,-1.58 0.22,-1.41 -0.02,-0.76 -1.28,0.04 -1.78,-0.26 -6.36,-7.19 -4.74,-2.16 -1.63,-1.4 -1.2,-0.1 -0.45,0.97 0.75,1.5 -0.14,1.72 -1.42,1.3 -5.92,0.4 -0.43,0.98 -0.25,3.27 -0.84,0.49 -1.62,-0.12 -2.57,0.26 -2.5,2.61 -1.74,0.59 -0.53,1.1 -0.01,1.46 -0.88,1.01 -1.35,0.22 -0.81,1.09 -0.19,1.66 -1.59,0.84 -2.8,0.41 -3.73,-0.44 -2.48,0.27 -1.37,-1.51 -0.06,-1.98 0.33,-1.48 -0.17,-1.07 z"
     inkscape:connector-curvature="0"
     style="fill:#cccccc;fill-opacity:1;stroke:#ffffff;stroke-width:0.5;stroke-opacity:1" />
  <path
     id="IR-01"
     class="land"
     d="m 117.19138,46.253868 1.82,-0.34 1.66,-0.97 2.57,-0.34 3.59,-2.48 0.86,-1.17 0.27,-0.97 0.16,-1.05 -0.76,-3.26 -0.62,-1.08 -1.27,-0.62 -0.57,-0.65 -0.05,-0.55 -0.15,-0.1 -0.32,-1.06 -2.48,1.41 -0.5,0.09 -0.62,-0.17 -1.16,-0.52 -0.65,0.02 -0.68,0.32 -0.01,0.01 -0.63,0.52 -0.56,0.66 -1.07,1.85 -0.23,0.32 -0.33,0.27 -0.69,0.38 -0.32,0.26 -0.5,0.79 -0.69,1.62 -0.68,0.65 -2.4,1.23 -0.76,0.64 -0.55,0.71 -1.17,2.42 -0.47,0.77 -0.57,0.63 -0.64,0.53 -0.67,0.42 -0.9,0.37 -0.74,0.04 -0.75,-0.21 -4.309999,-1.93 -0.56,-0.12 -0.45,0.06 -1,0.32 -1.6,0.07 -0.55,0.12 -0.8,0.39 -2.15,1.57 -0.73,0.35 -2.75,0.36 -0.41,0.06 -2.4,-0.61 -2.74,-1.24 -8.72,-1.84 -0.95,-0.38 -2.12,-0.83 -3.69,-0.04 -2.36,-0.58 -1.14,-0.04 -0.32,-0.07 -0.19,-0.04 -0.85,-0.5 -0.66,-0.18 -0.26,0.27 -4.56,4.88 -0.92,2.22 -1.2,5.63 0.57,3.03 1.06,2.8 -0.02,2.63 -1.55,2.8 -7.1,7.37 -2.33,3.95 -0.45,2.29 0.55,1.76 2.62,3.56 h 0.28 v 0.73 l 0.24,0.39 0.34,0.28 0.27,0.43 0.25,0.94 0.07,0.57 -0.17,0.26 -0.13,0.27 -0.02,1.75 1.45,14.150002 0.83,1.12 0.19,0.42 0.05,0.21 0.33,3.15 -0.18,0.28 -0.39,0.22 -0.38,0.32 -0.18,0.59 0.31,0.82 0.57,1.05 0.27,0.95 2.78,3.34 1.02,2.38 -0.47,6.48 0.57,2.81 1.56,2.35 12.08,7.94 5.39,0.96 4.42,0.07 5.73,5.23 0.7,1.39 5.15,2.91 1.78,1.66 1.92,0.81 1.22,-0.84 0.68,-1.08 0.13,-0.46 0.61,-1.45 1.36,-1.7 2.479999,-1.62 2.05,-0.43 1,0.11 1.14,-1.08 1.74,-1.15 1.91,0.31 1.32,1.33 1.64,1.03 2.11,0.47 1.3,1.12 0.19,1.1 -0.55,0.77 1.65,4.79 -0.04,3.44 1.49,2.18 4.03,0.55 9.83,-1.14 -0.25,-1.68 -0.01,-2.5 0.79,-1.63 6.27,-6.38 1.74,-2.9 1.24,-0.9 2.73,-1.31 2.26,-2.45 1.43,-0.86 1.46,-0.62 13.02,-1.51 3.92,0.61 2.69,-0.45 9.9,1.03 3.09,-1.22 1.44,-1.15 0.48,-0.28 -0.57,-0.21 -0.57,-0.31 -0.38,0.06 -0.58,-1.19 -0.59,-0.32 -1.42,0.07 -0.62,0.22 -0.37,0.46 h -0.31 l 0.21,-0.78 0.1,-0.29 -1.88,-1.54 -0.88,-0.9 -2.54,-1.68 -1.07,-2.55 -0.34,-3.78 -1.09,-0.96 -3.04,-1.59 -0.93,-0.18 -0.26,0.15 -4.04,-2.5 -1.24,-5.72 0.37,-4.76 0.93,-2 0.43,-1.44 -0.44,-0.95 -2.76,-2.560002 -3.27,-4.46 -2.09,-5.19 -0.26,-4.18 -1.23,-3.86 -2.89,-1.44 -9.3,1.36 -1.21,-0.22 -0.57,-0.42 -1.31,-1.28 -2.64,0.32 -1.99,0.79 -0.49,-1.63 0.19,-2.71 0.85,-1.93 1.05,-1.37 1.31,-2.45 3.31,-2.43 1.73,-1.88 2.82,-0.83 2.97,0.47 2.02,-1.37 -0.79,-2.6 -2.17,-1.23 -0.03,-1.48 1.53,-2.06 0.43,-3.55 -2.39,-5.99 -0.1,-4 -0.65,-0.94 0.58,-6.05 -1.64,-0.61 -2.67,2.39 -2.79,1.68 -1.68,-0.15 -3.12,2.11 -4.74,8.28 0.56,0.86 0.62,0.24 -0.51,0.67 -2.59,1.96 -1.57,2.14 -1.73,1.4 -6.19,-1.76 -2.72,0.77 -2.84,1.53 -2.82,1.03 -2.12,-1.17 -1.18,-2.9 0.67,-3.31 1.66,-2.19 1.11,-0.65 0.42,-0.76 1.54,-0.17 2.2,0.53 0.57,-0.5 0.28,-1.47 0.02,-1.56 0.11,-0.81 0.86,-0.05 z"
     inkscape:connector-curvature="0"
     style="fill:#cccccc;fill-opacity:1;stroke:#ffffff;stroke-width:0.5;stroke-opacity:1" />
  <path
     id="IR-02"
     class="land"
     d="m 24.101381,0.27386777 -1.02,0.3 -4.4,3.63000003 -0.18,0.61 0.21,1.76 -0.08,0.64 -0.03,0.2 -0.24,0.7 -1.37,2.7600002 -0.19,0.72 -0.08,0.89 0.08,0.75 0.14,0.69 -0.03,0.64 -0.41,0.64 -0.21,1.2 0.15,1.01 -0.02,0.97 -0.7,1.06 -0.79,0.59 -2.15,0.98 -0.91,0.22 -1.05,-0.09 -2.8600002,-1.43 -0.99,-0.11 -2.24,0.6 -0.96,0.1 -0.92,-0.11 -0.64,0.02 -0.62,0.22 -0.85000002,0.53 -0.46,0.65 0.25,0.65 1.09000002,1.28 0.01,0.03 0.18,0.5 0.24,1.14 0.49,1.06 -0.01,0.39 -0.1,0.36 0.02,0.48 0.14,0.45 0.5,1.06 0.03,0.47 -0.29,0.97 0.05,0.46 1.07,0.83 1.84,0.97 1.6,1.13 0.34,1.32 -0.82,1.61 -0.21,0.85 0.38,2.1 -0.4,0.63 -0.67,0.56 -0.58,0.99 v 0.01 l 0.22,0.37 0.13,0.36 0.17,0.82 0.25,0.39 0.38,0.29 0.31,0.33 0.03,0.48 -0.02,0.44 0.14,0.41 0.18,0.4 0.4,1.19 0.56,0.81 0.67,0.65 2.2000002,1.05 0.2,1.56 -1.13,3.84 -0.1600002,1.07 0.07,0.66 0.21,0.64 0.21,0.95 -0.19,0.39 -0.3600002,0.36 -0.12,0.33 0.5100002,0.27 0.75,0.24 0.32,0.21 0.3,0.34 0.3,0.88 -0.01,1.1 -0.19,2.09 0.38,2.69 -0.05,0.91 -0.53,2.13 v 0.62 l 0.13,1.34 -0.03,0.49 -0.13,0.86 0.12,0.46 0.38,0.27 0.61,0.29 2.06,0.38 1.37,-0.8 0.52,-0.11 0.65,0.25 0.59,0.5 0.5,0.71 0.32,0.83 0.02,0.84 -0.93,1.35 -1.5,1.17 -1.16,1.33 0.18,2.52 -0.15,1.03 -0.25,1.03 -0.27,0.77 -0.31,0.41 -0.74,0.31 -0.34,0.3 -0.06,0.46 0.34,0.99 -0.23,0.33 -0.8,0.39 -0.54,0.43 -0.38,0.67 -0.35,1.1 -0.36,0.81 -1.0000002,1.13 -0.38,0.76 h -0.01 v 0.01 l -0.35,0.67 -0.25,0.64 -0.07,0.67 0.2,0.74 0.04,0.66 -0.37,0.56 -0.42,0.54 -0.06,0.19 -0.12,0.4 0.72,1.140002 1.4500002,0.24 2.68,-0.32 0.49,0.15 1.49,0.73 0.45,0.31 0.24,0.48 0.15,0.61 0.24,0.65 0.46,0.59 0.32,0.11 0.28,-0.11 0.27,-0.05 0.32,0.24 0.03,0.26 -0.17,0.84 -0.03,0.31 0.31,0.6 0.58,0.06 0.66,-0.24 0.53,-0.3 1.13,-0.13 1.15,0.53 1.03,0.9 1.53,1.87 0.09,0.49 -0.42,0.68 -1.44,1.16 -0.34,0.46 -0.18,1.58 0.83,0.95 0.93,0.7 0.17,0.9 -0.38,1.05 -0.27,1.29 -0.08,1.29 0.22,1.06 v 0.01 l 0.17,0.88 -0.55,1.56 0.25,0.85 0.56,0.32 1.54,0.14 0.64,0.49 0.58,1.49 0.39,0.43 1.5,-0.23 0.38,0.48 0.24,0.73 0.35,0.71 2.38,1.53 0.94,1.1 -0.13,1.68 -0.49,0.64 -0.57,0.33 -0.51,0.44 -0.29,0.93 0.13,1.05 0.39,0.88 0.26,0.88 -0.26,1 -0.56,1.5 0.01,0.51 0.32,0.92 0.25,0.34 0.29,0.14 0.31,0.09 0.3,0.22 0.16,0.34 0.21,0.79 0.19,0.26 0.39,0.08 0.81,-0.25 0.4,-0.02 0.29,0.16 0.47,0.52 0.9,0.47 0.28,0.47 -0.07,0.56 -0.45,0.58 -0.23,1.38 0.23,0.91 0.38,0.85 0.2,1.16 -0.22,1.24 -0.58,0.93 -1.46,1.81 -0.45,1.27 0.33,0.9 0.82,0.56 1.08,0.24 1.28,-0.07 0.6,0.1 0.52,0.46 0.38,0.45 0.43,0.31 0.48,0.15 0.54,0.02 0.69,0.38 0.61,0.83 1.01,1.86 0.44,1.11 -0.07,0.96 -0.8,1.87 -0.44,1.76 -0.04,1.09 -0.13,0.1 -0.51,0.2 -0.18,0.12 -0.09,0.82 0.6,0.78 0.15,0.13 0.66,0.56 0.53,0.58 0.04,0.73 0.26,0.42 0.36,0.34 0.33,0.5 0.2,0.67 0.07,0.5 0.15,0.47 0.47,0.55 1.13,0.52 1.2,-0.09 2.32,-0.93 1.05,0.08 0.72,0.92 0.45,1.29 0.2,1.19 0.11,2.21 0.28,0.9 0.78,0.99 -1,0.65 0.23,0.62 0.77,0.6 0.61,0.6 0.19,0.99 -0.1,2.36 0.21,1.08 1.28,1.67 0.52,1.04 -0.17,1.03 -0.51,0.81 -0.5,1.05 -0.25,1.06 0.27,0.82 v 0.01 h 0.01 v 0.01 l 0.73,0.75 0.89,0.12 0.92,-0.31 0.82,-0.56 v -0.01 h 0.01 l 0.01,-0.01 0.74,-0.2 1.37,-0.69 1.08,-0.02 0.92,0.34 0.02,-0.03 1.41,-0.85 1.62,-1.62 0.68,-1.67 2.29,-2.62 0.58,-2.5 0.9,-0.93 0.49,-0.82 1.24,-1.37 6.73,-2.17 1.99,-3.03 0.06,-2.48 0.92,-1.18 3.62,-1.44 10.41,1.49 21.409999,-1.99 0.48,0.41 0.31,0.62 0.58,0.78 0.83,0.7 0.71,0.78 1.58,1.1 4.3,1.19 4.69,0.41 3.12,-1.38 1.75,-2.03 0.72,-1.41 0.22,-0.8 -0.3,-0.86 0.18,-1.01 1.22,-0.75 1.01,-0.32 -5.73,-12.84 -9.83,1.14 -4.03,-0.55 -1.49,-2.18 0.04,-3.44 -1.65,-4.79 0.55,-0.77 -0.19,-1.1 -1.3,-1.12 -2.11,-0.47 -1.64,-1.03 -1.32,-1.33 -1.91,-0.31 -1.74,1.15 -1.14,1.08 -1,-0.11 -2.05,0.43 -2.479999,1.62 -1.36,1.7 -0.61,1.45 -0.13,0.46 -0.68,1.08 -1.22,0.84 -1.92,-0.81 -1.78,-1.66 -5.15,-2.91 -0.7,-1.39 -5.73,-5.23 -4.42,-0.07 -5.39,-0.96 -12.08,-7.94 -1.56,-2.35 -0.57,-2.81 0.47,-6.48 -1.02,-2.38 -2.78,-3.34 -0.27,-0.95 -0.57,-1.05 -0.31,-0.82 0.18,-0.59 0.38,-0.32 0.39,-0.22 0.18,-0.28 -0.33,-3.15 -0.05,-0.21 -0.19,-0.42 -0.83,-1.12 -1.45,-14.150002 0.02,-1.75 0.13,-0.27 0.17,-0.26 -0.07,-0.57 -0.25,-0.94 -0.27,-0.43 -0.34,-0.28 -0.24,-0.39 v -0.73 h -0.28 l -2.62,-3.56 -0.55,-1.76 0.45,-2.29 2.33,-3.95 7.1,-7.37 1.55,-2.8 0.02,-2.63 -1.06,-2.8 -0.57,-3.03 1.2,-5.63 0.92,-2.22 4.56,-4.88 0.26,-0.27 -0.49,-0.13 -0.94,-0.46 -0.88,-0.59 -0.48,-0.57 -0.07,-0.57 0.12,-0.46 0.17,-0.44 0.09,-0.55 -0.2,-0.36 -0.99,-0.44 -0.39,-0.3 -0.21,-0.44 -0.32,-1.15 -0.17,-0.42 -0.39,-0.42 -0.39,-0.23 -0.36,-0.27 -0.27,-0.54 0.36,-0.79 -0.24,-0.57 -0.55,-0.35 -0.58,-0.11 -0.41,-0.2 0.01,-0.45 0.11,-0.51 -0.12,-0.33 -0.38,-0.05 -0.38,0.15 -0.29,0.2 -0.1,0.1 -4.32,-1.43 -1.08,0.33 -0.27,-0.81 -0.43,-2.66 -0.29,-0.57 -0.35,-0.52 -0.25,-0.56 -0.76,-1.7 -0.33,-0.51 -0.38,-0.22 -0.42,-0.5 -0.34,-0.56 -0.13,-0.38 -0.23,-0.28 -0.02,-0.01 -1.47,-1.01 -0.15,-0.19 -0.09,-0.24 -0.15,-0.21 -0.32,-0.09 -0.45,0.01 -0.21,-0.04 -1.06,-0.77 -0.15,-0.38 0.34,-0.65 -0.86,-0.77 -0.51,-1.08 -1.24,-5.16 -0.5,-1.1600002 -0.87,-0.62 0.16,-0.16 0.12,-0.24 -0.95,-0.03 -0.89,-0.17 -0.16,-0.1 -0.59,-0.34 -0.11,-0.16 -3.36,-2.44 -0.81,-0.69 -2.47,-1.15 -0.57,-0.65 -1.11,-1.70000003 z"
     inkscape:connector-curvature="0"
     style="fill:#cccccc;fill-opacity:1;stroke:#ffffff;stroke-width:0.5;stroke-opacity:1" />
  <path
     id="IR-28"
     class="land"
     d="m 231.81138,167.74387 -5.68,-1.7 -2.52,-2.37 -2.34,-2.97 -0.52,-1.64 -0.08,-0.88 -3.91,-1.88 -3.37,1.16 -4.51,3 -1.68,3.91 0.86,3.27 2.22,2.77 1.33,3.35 1.38,2.09 2.05,1.03 1.26,0.08 0.8,0.44 0.78,0.85 1.08,0.61 0.77,1.4 0.67,2.54 1.31,2.15 0.95,2.12 0.65,5.44 -0.95,1.4 -7.55,2.04 -4.17,2.37 -2.54,2.88 -0.22,2.02 0.06,0.57 -3.78,-1.75 -2.71,-0.19 -3.75,1.05 -2.31,1.7 -1.5,0.31 -1.77,0.06 -1.3,0.29 -0.86,0.58 0.12,1.59 5.25,4.73 3.08,4.54 1.93,-0.85 4.53,0.08 3.45,1.98 1.57,1.98 -1.26,1.92 2.83,2.16 5.29,0.91 1.16,-0.32 5.88,1.5 1.02,0.71 7.26,-0.2 1.24,-2.86 1.74,-1.29 7.28,-2.22 2.15,-1.07 2.27,-0.66 1.91,-0.11 7.42,-3.24 2.47,-0.14 1.23,0.18 -0.89,-1.48 -1.05,-2.35 -0.34,-1.57 0.51,-1.99 2.28,-2.2 8.38,-4.1 1.42,-1.36 0.49,-1.88 1.98,-4.13 1.31,-4.43 -1.91,-1.65 -2.94,-0.88 -1.53,-1.31 -2.11,-2.91 1.2,-1.81 4.69,-0.39 9.84,1.05 -0.04,-1.02 -0.48,-1.4 -6.7,-5.12 -2.29,-1.24 -11.03,-9.32 -5.62,-0.55 -3.44,0.76 -0.91,0.49 -0.86,0.3 -7.78,4.22 -2.05,0.37 -3.82,-0.76 -0.9,-0.63 -1.26,-0.21 z"
     inkscape:connector-curvature="0"
     style="fill:#cccccc;fill-opacity:1;stroke:#ffffff;stroke-width:0.5;stroke-opacity:1" />
  <path
     id="IR-11"
     class="land"
     d="m 201.72138,136.10387 -2.79,-1.49 -1.45,0.45 -1.63,1.12 -1.49,-0.2 -1.18,-0.66 -0.8,0.31 -0.5,0.89 v 0.88 l -0.56,0.93 -1.28,0.27 -3.09,-3.3 -1.7,-0.63 -1.21,0.34 -0.48,0.28 -1.44,1.15 -3.09,1.22 -9.9,-1.03 -2.69,0.45 -3.92,-0.61 -13.02,1.51 -1.46,0.62 -1.43,0.86 -2.26,2.45 -2.73,1.31 -1.24,0.9 -1.74,2.9 -6.27,6.38 -0.79,1.63 0.01,2.5 0.25,1.68 5.73,12.84 1.2,1.21 20.85,4.16 0.14,0.23 1.3,1.45 0.29,0.55 0.16,0.99 0.4,1.15 0.46,1 0.39,0.57 -0.43,0.4 -0.08,0.46 0.26,1.24 -0.06,0.35 -0.17,0.33 -0.13,0.34 0.05,0.38 0.17,0.07 0.72,0.09 0.78,2.89 -0.01,5.21 -0.91,3.75 -1.63,1.71 -0.68,1.85 0.57,1.35 11.39,6.95 0.76,0.7 0.82,1.4 0.36,1.09 1.4,2.55 1.86,1.16 8.88,0.3 3.63,1.98 3.48,0.86 3.13,-1.1 1.52,-2.07 -0.03,-0.9 -3.08,-4.54 -5.25,-4.73 -0.12,-1.59 0.86,-0.58 1.3,-0.29 1.77,-0.06 1.5,-0.31 2.31,-1.7 3.75,-1.05 2.71,0.19 3.78,1.75 -0.06,-0.57 0.22,-2.02 2.54,-2.88 4.17,-2.37 7.55,-2.04 0.95,-1.4 -0.65,-5.44 -0.95,-2.12 -1.31,-2.15 -0.67,-2.54 -0.77,-1.4 -1.08,-0.61 -0.78,-0.85 -0.8,-0.44 -1.26,-0.08 -2.05,-1.03 -1.38,-2.09 -1.33,-3.35 -2.22,-2.77 -0.86,-3.27 1.68,-3.91 4.51,-3 3.37,-1.16 -2.45,-8.51 -1.76,-2.84 -4.59,-4.86 z"
     inkscape:connector-curvature="0"
     style="fill:#cccccc;fill-opacity:1;stroke:#ffffff;stroke-width:0.5;stroke-opacity:1" />
  <path
     id="IR-24"
     class="land"
     d="m 174.54138,213.92387 -6.09,-3.33 -1.49,0.42 0.74,2.04 1.21,1.58 0.49,1.09 v 1.29 l -2.95,1 -1.19,1.16 -1.36,0.6 -1.28,-0.34 -1.95,-4.08 -0.95,0.1 -2.18,2.43 -0.64,1.29 2.88,4.28 4.47,9.98 2.02,2.48 1.7,1.06 2.36,2.35 1.14,4.68 -0.82,3.78 -1.46,2.33 -1.37,1.22 -0.9,-0.49 -1.33,-3.28 -0.77,0.2 -0.47,1.42 -1.5,0.82 -2.54,0.72 -1.26,0.69 0.02,0.76 -0.22,1.41 -1.36,1.58 -1.64,3.69 -1.95,2.87 -4.14,0.48 -1.32,0.52 -0.59,0.79 0.4,2 2.1,1.7 3.04,1.67 1.36,0.27 1.12,0.59 0.61,2.08 1.06,1.61 3.53,-3.69 1.91,-0.84 0.95,-0.21 0.79,1.2 0.42,2.05 -0.46,3.32 0.11,2.33 -1.26,1.05 -4.65,-1 -4.1,0.3 -1.53,2.31 -0.71,1.42 1.03,0.46 1.78,1.15 0.85,1.24 17.77,11.7 9.19,1.11 1.53,0.58 1.23,-0.33 2.17,-2.24 1.08,-0.3 2.2,0.13 2.72,-0.3 11.29,4.83 4.31,-3.88 0.73,-1.01 0.13,-1.17 -0.76,-3.23 -0.24,-2.73 -0.65,-2.74 -2.94,-5.79 -0.33,-5.28 -0.7,-3.17 -2.09,-0.83 -0.6,-1.41 1.44,-0.58 4.27,0.44 1.91,0.92 0.93,-0.21 -0.71,-3.89 0.15,-3.53 1.1,-1.8 0.49,-1.78 -0.46,-2.94 1.03,-1.57 7.54,-0.4 3.57,0.62 1,1.45 -0.88,1.88 0.63,2.29 1.63,1.94 1.34,1.23 1.81,0.18 1.01,-2.04 -0.89,-5.43 -1.04,-2.51 -1.99,-2.36 -2.12,-1.02 -4.44,-1.22 -1.86,-0.95 -0.95,-0.93 -0.11,-0.72 0.74,-0.85 1.25,-0.13 2.39,-0.74 2,-2.35 -0.52,-2.32 -1.85,-3.08 -0.78,-3.4 1.3,-1.65 1.12,-0.09 0.09,0.95 -0.04,1.28 0.81,1.17 1.41,0.26 1.4,-1.55 0.15,-1.95 -0.98,-1.29 -0.35,-1.81 0.03,-1.21 -1.02,-0.71 -5.88,-1.5 -1.16,0.32 -5.29,-0.91 -2.83,-2.16 1.26,-1.92 -1.57,-1.98 -3.45,-1.98 -4.53,-0.08 -1.93,0.85 0.03,0.9 -1.52,2.07 -3.13,1.1 -3.48,-0.86 -3.63,-1.98 -8.88,-0.3 -1.86,-1.16 z"
     inkscape:connector-curvature="0"
     style="fill:#cccccc;fill-opacity:1;stroke:#ffffff;stroke-width:0.5;stroke-opacity:1" />
  <path
     id="IR-26"
     class="land"
     d="m 325.86138,255.23387 -23.58,-14.07 -9.94,-3.01 -11.89,-0.13 -0.01,-0.13 -1.17,1.65 -1.38,3.95 -0.72,7.76 -0.5,1.94 -0.76,0.45 -4.29,1.45 -5.13,0.81 -2.46,1.63 -3.6,1.03 -3.73,-0.5 -2.36,1.91 -0.06,3.29 0.86,1.21 -0.44,1.01 -3.86,2.18 -0.39,2.59 2.24,2.62 1.83,1.65 1.5,0.69 1.65,-0.15 1.23,0.75 1.21,1.43 0.63,1.48 -0.17,2.06 1,2.48 1.92,2.38 2.73,2.28 10.68,1 4.26,2.35 9.56,2.6 -1.18,-0.63 -0.86,-2.16 1.24,-9.83 0.49,-1.46 1.55,-1.56 3.94,-1.72 8.94,-1.03 3.2,0.16 13.96,-3.62 1.37,-1.98 1.82,-4.28 1.12,-4.41 0.11,-4.11 z"
     inkscape:connector-curvature="0"
     style="fill:#cccccc;fill-opacity:1;stroke:#ffffff;stroke-width:0.5;stroke-opacity:1" />
  <path
     id="IR-22"
     class="land"
     d="m 276.79138,221.03387 -0.3,-1.69 0.02,-2.82 -1.6,-1.9 -2.33,-0.03 -0.53,1.38 1.6,2.22 v 0.85 l -0.42,0.76 -1.05,-0.61 -2.38,-2.15 -4.06,-1.2 -4.17,-0.26 -1.79,-0.42 -1.23,-0.18 -2.47,0.14 -7.42,3.24 -1.91,0.11 -2.27,0.66 -2.15,1.07 -7.28,2.22 -1.74,1.29 -1.24,2.86 -7.26,0.2 -0.03,1.21 0.35,1.81 0.98,1.29 -0.15,1.95 -1.4,1.55 -1.41,-0.26 -0.81,-1.17 0.04,-1.28 -0.09,-0.95 -1.12,0.09 -1.3,1.65 0.78,3.4 1.85,3.08 0.52,2.32 -2,2.35 -2.39,0.74 -1.25,0.13 -0.74,0.85 0.11,0.72 0.95,0.93 1.86,0.95 4.44,1.22 2.12,1.02 1.99,2.36 1.04,2.51 0.89,5.43 -1.01,2.04 -1.81,-0.18 -1.34,-1.23 -1.63,-1.94 -0.63,-2.29 0.88,-1.88 -1,-1.45 -3.57,-0.62 -7.54,0.4 -1.03,1.57 0.46,2.94 -0.49,1.78 -1.1,1.8 -0.15,3.53 0.71,3.89 -0.93,0.21 -1.91,-0.92 -4.27,-0.44 -1.44,0.58 0.6,1.41 2.09,0.83 0.7,3.17 0.33,5.28 2.94,5.79 0.65,2.74 0.24,2.73 0.76,3.23 -0.13,1.17 -0.73,1.01 -4.31,3.88 -0.65,1.06 -0.3,1.62 0.52,1.35 0.14,1.14 -1.65,3.83 -0.35,1.1 -0.21,1.2 0.54,1.04 2.1,1.23 2.74,1 4.67,0.41 1.14,0.42 3.31,-2.1 0.78,-0.82 1.41,-4.35 1.84,-1.05 2.28,-0.78 2.08,-1.19 2.27,0.73 1.82,2.2 1.13,1.93 0.04,1.33 -0.66,1.42 -0.45,1.48 0.4,1.16 1.35,1.16 3.11,1.57 1.42,1.5 1.28,1.01 0.97,-0.65 0.27,-1.29 0.81,-1.61 1.45,-1.04 0.93,0.56 0.65,1.18 1.34,1.04 0.89,0.92 -0.06,1.46 0.29,1.41 2.65,1.43 0.36,0.4 3.43,-2.85 6.57,-3.91 17.25,-4.55 2.59,-1.6 2.32,-1.97 2.61,-0.83 2.37,-0.01 1.1,-1.96 3.95,-9.58 0.5,-2.98 -9.56,-2.6 -4.26,-2.35 -10.68,-1 -2.73,-2.28 -1.92,-2.38 -1,-2.48 0.17,-2.06 -0.63,-1.48 -1.21,-1.43 -1.23,-0.75 -1.65,0.15 -1.5,-0.69 -1.83,-1.65 -2.24,-2.62 0.39,-2.59 3.86,-2.18 0.44,-1.01 -0.86,-1.21 0.06,-3.29 2.36,-1.91 3.73,0.5 3.6,-1.03 2.46,-1.63 5.13,-0.81 4.29,-1.45 0.76,-0.45 0.5,-1.94 0.72,-7.76 1.38,-3.95 1.17,-1.65 3.58,-11.6 -0.02,-3.55 -1.06,-2.07 -1.92,-2.4 -1.9,0.18 -1.15,2.35 z"
     inkscape:connector-curvature="0"
     style="fill:#cccccc;fill-opacity:1;stroke:#ffffff;stroke-width:0.5;stroke-opacity:1" />
  <path
     id="IR-03"
     class="land"
     d="m 163.45138,3.7338678 -0.02,-0.01 -0.48,0.72 -0.43,0.4 -0.51,0.13 -3.15,-0.06 -0.98,0.27 -0.8,0.56 -0.64,0.66 -1.78,1.82 -4.98,2.8100002 -0.74,0.42 -2.19,2.23 -0.54,0.37 -0.93,0.1 -2.89,1 -1.73,0.95 -1.36,1.14 -2.05,2.66 -0.01,0.01 -1.37,1.4 -1.24,0.71 -0.48,0.27 -4.12,1.62 -1.98,1.21 -0.41,0.46 -0.14,0.53 -1.49,2.41 -0.7,2.02 -0.21,0.4 -0.44,0.51 -0.28,0.16 0.32,1.06 0.15,0.1 0.05,0.55 0.57,0.65 1.27,0.62 0.62,1.08 0.76,3.26 -0.16,1.05 -0.27,0.97 -0.86,1.17 -3.59,2.48 -2.57,0.34 -1.66,0.97 -1.82,0.34 -1.91,-1.57 -0.86,0.05 -0.11,0.81 -0.02,1.56 -0.28,1.47 -0.57,0.5 -2.2,-0.53 -1.54,0.17 -0.42,0.76 -1.11,0.65 -1.66,2.19 -0.67,3.31 1.18,2.9 2.12,1.17 2.82,-1.03 2.84,-1.53 2.72,-0.77 6.19,1.76 1.73,-1.4 1.57,-2.14 2.59,-1.96 0.51,-0.67 -0.62,-0.24 -0.56,-0.86 4.74,-8.28 3.12,-2.11 1.68,0.15 2.79,-1.68 2.67,-2.39 1.64,0.61 -0.58,6.05 0.65,0.94 0.1,4 2.39,5.99 -0.43,3.55 -1.53,2.06 0.03,1.48 2.17,1.23 0.79,2.6 -2.02,1.37 -2.97,-0.47 -2.82,0.83 -1.73,1.88 -3.31,2.43 -1.31,2.45 -1.05,1.37 -0.85,1.93 -0.19,2.71 0.49,1.63 1.99,-0.79 2.64,-0.32 1.31,1.28 0.57,0.42 1.21,0.22 9.3,-1.36 2.89,1.44 1.23,3.86 0.26,4.18 2.09,5.19 3.27,4.46 2.76,2.560002 0.44,0.95 -0.43,1.44 -0.93,2 -0.37,4.76 1.24,5.72 4.04,2.5 0.26,-0.15 0.93,0.18 3.04,1.59 1.09,0.96 0.34,3.78 1.07,2.55 2.54,1.68 0.88,0.9 1.88,1.54 -0.1,0.29 -0.21,0.78 h 0.31 l 0.37,-0.46 0.62,-0.22 1.42,-0.07 0.59,0.32 0.58,1.19 0.38,-0.06 0.57,0.31 0.57,0.21 1.21,-0.34 1.7,0.63 3.09,3.3 1.28,-0.27 0.56,-0.93 v -0.88 l 0.5,-0.89 0.8,-0.31 1.18,0.66 1.49,0.2 1.63,-1.12 1.45,-0.45 2.79,1.49 -0.45,-1.27 -0.35,-2.73 0.18,-2.28 -0.04,-1.48 -1.39,-1.78 -2.64,-2.08 -2.28,-2.36 -6.87,-10.83 -3.81,-10.55 0.1,-2.870002 1.32,-2.06 0.36,-2.78 0.85,-2.03 9.35,-11.13 0.37,-0.96 -0.64,-0.68 -1.56,-0.36 -1,-0.41 -0.23,-0.99 -0.86,-1.12 -1.32,-1.18 -0.24,-0.54 -0.21,-0.02 -1.33,-1.29 -1.13,-1.89 -0.53,-0.69 -1.03,-1.3 -0.62,-0.87 -0.69,-0.77 -0.68,-1.06 -0.67,-0.61 -0.53,-0.72 -0.29,-1.4 -0.48,-1.15 h -0.97 l -2.1,0.98 -1.27,-0.03 -0.75,-0.71 -0.65,-0.96 -2,-1.61 -0.08,-0.9 0.17,-1.03 -0.19,-0.78 -0.11,-0.44 -0.52,-0.44 -5.48,-2.71 -2.69,-2.16 -0.82,-1.51 -0.1,-2.19 0.38,-0.61 2.17,-1.34 0.12,-0.35 -0.01,-0.4 0.14,-0.34 7.64,-1.36 1.71,-1.06 v -0.01 h 0.01 l 0.37,-0.56 0.32,-0.69 0.01,-0.02 0.19,-0.72 0.03,-0.75 -0.22,-0.67 -1.25,-2.68 -0.63,-0.61 -2.36,-0.99 -2.36,-2.29 -1.01,-1.43 -0.55,-1.44 0.07,-1.83 0.77,-1.52 1.19,-1.15 1.4,-0.72 2.59,-0.52 2.18,-1.48 1.07,-0.34 0.44,-0.14 -0.92,-1.94 -1.17,-1.6 -2.83,-2.63 -6.96,-8.3800002 -2.53,-2.37 -0.8,-0.56 z"
     inkscape:connector-curvature="0"
     style="fill:#cccccc;fill-opacity:1;stroke:#ffffff;stroke-width:0.5;stroke-opacity:1" />
  <path
     id="IR-23"
     class="land"
     d="m 457.13138,688.19387 -0.18,-0.53 -0.05,-0.44 -0.21,-0.33 -0.71,0.19 -0.6,0.33 0.15,0.45 0.14,0.28 -0.02,0.28 0.19,-0.15 0.39,0.38 0.24,-0.14 0.34,-0.03 z m -20.73,-1.62 -0.07,-0.82 -0.21,-0.41 -0.98,0.3 -0.54,0.29 0.16,0.51 0.66,0.31 0.56,0.13 z m -1.12,-16.22 0.87,-1.78 -0.15,-0.32 -0.2,-0.25 -0.23,-0.18 -0.29,-0.13 -0.41,-0.46 -0.39,-0.08 -0.35,0.18 -0.26,0.36 -0.17,0.53 0.02,0.43 0.1,0.46 0.05,0.61 0.22,0.27 0.49,0.25 0.48,0.15 z m -19.79,-11.18 0.09,-0.27 0.09,-0.28 -0.04,-0.29 -0.04,-0.26 -0.11,-0.09 -0.17,-0.16 -0.29,-0.16 -0.01,-0.01 -0.04,-0.32 v -0.05 l 0.01,-0.42 v -0.01 l -0.03,-0.09 -0.08,-0.2 v -0.01 l -0.59,-0.23 -1.54,-0.15 -0.69,-0.25 -0.81,-0.04 -0.74,0.23 -0.61,0.46 -0.41,0.65 0.84,1.37 1.34,0.64 0.31,0.02 3.06,0.17 z m 76.21,-6.01 0.59,-0.99 -0.08,-1.09 -0.32,-0.49 -0.4,0.08 -0.67,0.52 -0.53,1.03 -0.1,1.07 0.67,0.37 z m -92.3,-2.08 -0.33,-0.7 -0.49,-0.23 -0.43,-0.1 -0.82,0.02 -0.33,0.51 0.41,0.57 0.72,0.37 0.73,0.1 z m -11.47,-6.23 -0.34,-0.31 -0.55,-0.49 -0.96,-0.38 -3.1,-0.23 -3.49,-1.08 -0.4,0.03 -0.33,0.12 -0.3,0.07 -0.16,0.2 0.37,0.43 1.3,1.09 0.55,0.35 0.09,0.06 0.73,0.31 2.36,0.41 h 0.79 l 0.75,-0.43 0.5,-0.12 1.59,0.14 z m 124.03,-1.65 1.24,-1.09 -0.21,-1.43 -1.55,0.15 -1.05,0.49 -0.6,0.85 -0.19,1.23 0.78,0.32 z m -8.6,-3.16 0.92,-0.82 2.55,-0.66 0.67,-0.38 0.66,-0.38 -0.33,-0.87 -0.24,-0.18 -0.66,-0.51 -1.06,-0.46 -0.81,-0.2 -1.63,0.03 -5.46,1.24 -4.37,2.82 -1.57,0.37 -5.78,-2.19 -1.05,0.61 0.28,0.37 0.69,0.54 0.71,0.68 0.33,0.79 0.19,2.07 -0.15,0.88 -0.63,0.72 0.18,0.32 0.12,0.31 -0.4,0.14 -0.43,0.36 -0.3,0.13 -0.41,0.04 -0.86,-0.07 -0.43,0.03 -2.7,1.06 -0.83,0.67 -1.91,1.17 -0.01,0.01 -0.15,0.06 -0.52,0.2 -0.8,0.09 -5.53,1.81 -2.19,1.23 -0.12,-0.04 -0.26,-0.07 -0.45,0.21 -1.96,-0.69 -0.45,0.48 0.43,1.43 0.21,0.24 -0.07,0.53 -0.28,0.81 0.2,1.15 0.21,0.53 0.15,0.1 0.17,0.12 0.38,-0.06 0.51,-0.15 0.45,-0.25 0.19,-0.32 0.18,-0.39 h 0.42 l 0.47,0.15 0.22,0.05 0.12,0.02 h 0.01 l 0.38,-0.14 0.77,-0.49 1.81,-0.5 2.56,-0.29 0.72,-0.39 1.41,-1.03 2.31,-0.99 2.23,-1.6 0.88,-0.42 0.84,-0.18 1.89,0.27 0.88,0.01 0.77,-0.44 0.77,-0.66 2.76,-1.42 1.06,0.83 0.9,0.92 0.96,0.41 1.21,-0.71 2.04,-1.97 0.35,-0.23 0.36,-0.42 1.57,-0.8 0.36,-0.38 0.27,-0.62 1.71,-1.75 0.47,-0.81 z m 12.85,-6.47 0.26,-0.13 0.29,-0.15 0.39,-0.44 0.16,-0.59 -0.14,-0.58 -0.02,-0.09 -0.39,-0.32 -0.48,-0.19 -0.44,-0.29 -0.73,0.15 -0.76,1.06 -0.1,1.17 1.31,0.51 z m -37.64,-80.34 -1.82,-1.27 -1.8,-2.37 -3.71,-2.9 -7.47,-2.13 -3.52,-0.26 2.39,7.2 0.01,1.33 -1.36,0.98 0.22,2.24 12.44,12.07 1.1,2.97 -0.49,5.28 -2.09,7.65 -0.2,1.96 0.2,1.51 3.5,2.87 1.98,3.24 -0.25,2.65 -0.71,1.14 -0.95,0.68 -1.25,0.55 -2.38,-0.14 -3.8,0.98 -5.65,3.05 -1.61,2.56 -1.36,4.15 -2.39,2.27 -5.17,1.59 -11.03,-1.56 -3.78,0.87 -2.05,0.88 -1.96,-0.69 -2.52,-0.32 -11.04,1.01 -4.28,1.49 -1.83,2.24 -0.6,3.7 -0.88,2.55 -0.01,0.51 0.47,1.37 -1.12,1.82 -4.31,2.29 -12.66,-2.25 h -1.07 l -3.01,0.77 -0.72,-0.1 -0.7,-0.34 -3.49,-2.86 -1.53,-0.62 -9.23,-0.82 -3.04,-2.89 -1.13,-2.19 -1.79,1.04 -0.56,0.2 -1.93,-0.08 -2.04,-0.52 -0.68,-0.04 -2.7,0.28 -0.45,-0.03 -0.85,0.36 -0.18,-0.01 -0.23,0.28 -0.67,1.3 2.2,0.98 1.48,1.01 3.33,3 1.9,0.57 0.85,0.51 0.36,1.02 0.38,0.46 2.46,0.62 0.52,0.64 0.44,0.74 0.55,0.61 0.89,0.26 0.91,0.08 14.07,4.8 1.33,0.83 0.7,0.86 0.33,0.92 0.1,2.21 0.24,0.91 0.59,0.73 4.02,3.04 3.11,1.84 2.16,1.88 0.51,0.17 0.97,-0.52 1.01,0.08 1.85,0.6 0.9,-0.03 1.69,-0.48 1.9,-0.26 2.72,-1.28 0.85,-0.18 0.44,0.02 0.34,0.17 0.79,0.64 0.45,0.14 0.71,0.11 2.84,0.83 0.87,0.1 3.16,-0.22 0.79,-0.23 0.83,-0.13 0.88,0.17 1.23,1 0.78,1.41 0.61,1.49 0.75,1.19 1.49,0.73 3.77,-0.15 1.85,0.36 1.21,1.15 0.51,1.34 0.71,1.05 1.81,0.29 3.56,-0.32 0.49,0.09 0.7,0.42 0.52,0.09 0.43,-0.11 0.31,-0.26 0.26,-0.3 0.28,-0.25 4.5,-2.63 3.98,-3.24 0.45,-0.29 2.71,-2.43 0.61,-0.29 1.82,-0.53 0.81,-0.1 1,-0.24 0.41,-0.61 0.22,-0.83 0.49,-0.88 1.57,-0.75 1.9,0.26 3.34,1.15 1.86,0.11 1.73,-0.36 1.56,-0.79 1.35,-1.2 0.58,-0.94 0.49,-1.31 0.25,-1.39 -0.17,-1.14 -0.3,0.3 -0.25,0.14 -0.6,0.2 2.24,-2.5 0.46,-0.36 0.52,-0.28 1.39,-1.3 0.78,-0.35 0.42,0.01 1.3,0.31 h 1.55 l 0.36,-0.1 0.61,-0.44 0.46,-0.09 1.39,0.04 0.44,-0.04 1.71,-0.42 1.84,-0.22 0.46,-0.15 0.75,-0.66 0.22,-0.14 0.01,-0.19 1,-0.85 2.78,-1.69 0.72,-0.61 0.36,-0.23 0.32,-0.07 0.22,-0.16 0.08,-0.49 0.14,-0.23 0.69,-0.68 0.34,-0.23 1.09,-0.22 2.69,-0.11 0.89,-0.43 0.95,-0.66 1.31,-0.34 2.56,-0.14 1.28,0.19 2.17,0.86 1.23,0.25 2.58,0.13 1.24,0.26 1.01,0.56 0.28,-0.35 0.94,0.3 4.29,0.05 0.4,0.2 0.3,0.45 0.39,0.45 0.62,0.2 1.12,-0.01 0.53,-0.18 0.48,-0.48 0.26,1.05 0.67,0.97 0.99,0.67 1.22,0.17 v 0.35 l -0.36,0.29 -0.73,0.78 -0.2,0.17 -0.39,0.17 -0.01,0.34 0.28,0.24 0.53,-0.12 -0.02,0.48 0.1,0.38 0.25,0.16 0.81,-0.4 0.28,0.18 0.22,0.31 0.21,0.16 0.2,0.1 0.18,0.22 0.24,0.22 0.38,0.09 0.42,-0.08 1.28,-0.55 -0.26,0.38 -0.15,0.45 0.06,0.44 0.35,0.32 -0.51,0.23 -0.42,0.26 -0.45,0.18 -0.6,-0.04 0.42,0.45 1.27,0.85 -0.05,0.74 0.5,0.74 1.41,1.22 0.56,0.83 2.7,10.76 0.14,2.16 -0.71,5.77 0.01,0.43 0.16,1.05 0.11,0.41 0.2,0.35 0.79,0.77 0.46,0.83 0.29,1.04 0.24,2.09 0.31,0.28 -0.22,1.23 2.74,3.03 0.56,1.47 -0.45,0.92 -1.29,1.41 -0.26,0.96 0.09,0.55 0.41,0.89 0.16,0.77 0.56,1.66 0.11,0.54 0.08,0.19 0.17,0.05 0.52,-0.09 0.18,0.04 0.93,1.11 0.06,0.18 0.42,0.37 0.34,0.88 0.52,1.86 1,2.33 0.24,2.25 0.29,0.72 0.61,0.33 5.54,0.37 -0.31,0.28 2.82,0.89 1.03,0.08 0.42,-0.05 0.83,-0.22 0.47,-0.04 0.48,0.09 0.86,0.44 0.51,0.09 2.29,-0.53 0.93,-0.09 1.04,0.03 0.86,0.23 0.65,0.57 0.42,1.05 0.07,0.36 -0.03,0.16 -0.11,0.23 -0.16,0.53 -0.17,2.02 0.65,0.01 0.91,-0.57 1.41,-1.15 1.68,-0.86 1.7,-0.44 1.57,0.37 1.29,1.56 1.24,2.63 0.91,1.24 1.11,0.52 1.37,0.21 1.31,0.42 1.35,0.26 1.52,-0.24 1.46,-1.01 0.24,-0.11 0.15,0.32 0.37,0.05 0.42,-0.14 0.33,-0.23 0.48,-0.46 h 0.21 l 0.14,0.18 0.28,0.12 0.63,-0.16 0.95,-0.8 0.56,-0.29 1.33,-0.27 1.21,-0.07 -0.29,0.73 0.77,0.37 2.22,0.15 2.58,-0.41 7.51,1.38 h 3.55 l 0.47,0.15 0.23,0.36 0.14,0.46 0.26,0.44 0.38,0.18 1.45,-0.03 1.61,0.74 1.02,1.23 1.91,3.07 0.54,0.45 0.7,0.3 0.82,0.17 0.95,0.05 0.38,-0.11 0.38,-0.17 0.36,-0.09 0.3,0.19 0.31,0.3 0.35,0.07 0.87,-0.19 2.36,-1.12 2.31,-0.36 -0.18,-1.09 1.09,-0.47 0.02,-0.69 0.11,-0.74 -0.77,-0.38 -0.34,-0.46 -1.46,-2.5 -0.69,-0.68 -0.57,-0.73 -0.27,-0.94 -0.68,-0.84 -1.25,-0.48 -0.91,-0.93 -0.22,-1.66 -1.34,-2.19 -7.84,-6.95 -1.47,-0.93 -0.57,-0.24 -0.16,-0.84 0.2,-1.47 0.75,-1.14 0.49,-0.27 -1.69,-2.55 -0.6,-0.5 -1.12,0.01 -1.61,-0.63 -1.21,0.3 -1.22,1.29 -1.77,0.22 -2.06,-0.07 -1.7,-0.39 -0.7,-1.24 -0.12,-1.44 -0.42,-1.02 -0.1,-0.9 0.39,-0.84 0.06,-0.5 -0.77,-0.5 -2.59,-0.4 -1.58,-0.72 -1.46,-0.34 -1.43,0.68 -2.24,0.21 -3.39,-0.61 -5.49,0.39 -0.07,-0.94 0.84,-1.04 0.49,-2.58 v -1.33 l -0.24,-1.34 0.96,-9.02 0.58,-1.43 0.75,-0.93 0.23,-0.77 -0.05,-1.18 -1,-2.97 0.04,-0.92 0.89,0.04 2.6,1.59 0.35,-0.89 -1.19,-2.57 -2.43,-2.82 -3.09,-2.6 -2.85,-1.71 -2.73,-0.07 -1.69,1.15 -1,1.38 -1.94,1.83 -1.25,-0.38 -2.81,-2.07 -12.78,-6.79 -0.84,-2.7 -1.3,-17.42 -1.26,-3.66 -1.12,-2.29 -1.11,-0.57 -0.94,-1.36 0.73,-1.44 1.14,-0.96 -0.27,-2.35 -1.87,-2.85 -1.89,-2.06 -0.97,-1.86 -1.65,-2.15 -2.15,-1.17 -1.27,-0.17 -0.82,-0.69 -0.6,-0.99 -1.51,-7.29 0.37,-4.81 -0.33,-0.75 -4.32,-2.12 -2.25,-0.09 -1.9,1.51 -1.27,1.55 -4.47,4.26 -4.87,2.41 -2.65,0.47 -4.93,-0.75 -4.25,-2.58 -3.55,-3.27 -3.7,-4.78 -0.86,-4.6 1.02,-3.48 -0.79,-17.97 -1.17,-1.73 -1.23,0.16 -4.87,2.28 -8.28,6.29 -2.12,0.55 z"
     inkscape:connector-curvature="0"
     style="fill:#cccccc;fill-opacity:1;stroke:#ffffff;stroke-width:0.5;stroke-opacity:1" />
  <path
     id="IR-05"
     class="land"
     d="m 139.80138,297.27387 -0.69,-0.21 -1.4,-0.12 -6.65,1.54 v 1.52 l 1.14,1.71 0.61,1.25 -0.57,3.23 -0.87,1.7 -6.48,-0.3 -7.05,1.8 -4.83,-0.39 -10.39,-3.36 -3.039999,-2.65 -2.78,-1.71 -3.34,-0.76 -3.34,-0.24 -6.2,-2.55 -6.42,0.81 -2.43,-0.07 -0.77,0.89 0.58,1.91 -0.45,3.2 -1.58,4.97 -0.87,7.21 -0.94,0.79 0.14,0.36 -0.01,1.77 0.28,0.35 0.72,-0.18 0.68,-0.46 1.2,-1.16 0.76,-0.32 2.01,-0.03 0.89,-0.23 -0.16,1.53 0.73,0.75 0.88,0.6 0.29,1.1 -0.51,0.75 -1.96,1.2 -0.65,0.85 0.71,0.61 1.23,0.29 1.25,-0.16 0.77,-0.73 0.2,-0.12 0.21,-0.04 0.21,0.04 0.05,0.03 0.16,0.09 0.13,0.07 0.12,0.1 1.39,1.74 0.48,0.86 0.33,0.94 0.13,1 0.02,0.83 0.21,0.72 1.39,1.34 1.65,2.34 1.31,1.07 0.58,0.59 0.37,0.83 0.01,0.51 -0.25,0.95 -0.03,0.41 0.18,0.46 0.48,0.3 0.03,0.45 -0.3,0.63 -0.57,0.7 -1.11,1.11 -0.88,0.66 -0.67,0.13 -0.69,-0.05 -0.91,0.08 -0.83,0.47 -0.04,0.6 0.57,0.5 1.82,0.21 0.78,0.33 0.6,0.53 0.23,0.68 -0.27,0.84 -0.62,0.64 -0.68,0.55 -0.51,0.61 v 0.01 l 0.88,1.97 2.42,0.29 4.88,-0.54 4.39,1.36 4.129999,1.97 1.16,1.17 3.86,2.24 0.16,0.1 1.9,1.54 2.71,1.64 1.71,1.96 12.46,10.89 h 0.01 l 1.33,0.98 1.26,0.66 1.3,0.29 1.46,-0.16 0.73,-0.28 1.89,-1.05 0.59,0.04 2.34,0.81 0.89,0.47 0.52,0.61 0.47,0.76 0.69,0.89 1.11,0.84 0.23,0.36 0.06,0.57 -0.15,0.32 -0.23,0.27 -0.36,0.91 -0.17,0.19 v 0.24 l 0.27,0.66 0.19,0.28 1.24,1.18 0.19,0.27 0.16,0.27 0.73,1.02 0.26,0.28 0.41,0.2 0.22,0.62 0.8,0.62 0.22,0.63 -0.06,0.68 -0.22,0.48 -0.25,0.43 -0.16,0.53 -0.09,0.68 0.04,0.39 0.28,0.22 0.65,0.18 0.53,0.34 0.34,0.5 0.36,0.42 0.63,0.08 0.8,0.33 0.09,0.13 1.11,-0.44 4.32,-2.84 1.48,-2.42 -0.49,-3.13 -0.07,-2.49 3.03,-4.19 3.8,-8.88 -0.51,-0.48 -0.81,-1.19 -6.66,-14.05 -4.87,-6.42 -1.36,-1.5 -0.61,-0.31 -0.78,-0.23 -0.54,-0.6 -0.81,-1.56 -0.99,-1.16 -0.45,-0.21 -0.62,-0.03 -0.53,-0.17 -0.23,-0.62 -0.44,-0.52 -5.09,-2.55 -1.76,-0.44 -1.06,-0.64 -0.75,-0.77 v -0.65 l -0.73,-0.34 -2.05,-1.57 -0.19,-0.24 -0.24,-0.18 -0.32,-0.07 -0.27,0.05 -0.21,0.23 -0.23,0.06 -0.29,-0.11 -0.14,-0.23 -0.06,-0.24 -0.07,-0.13 -1.56,-0.5 -0.75,-0.34 -0.54,-0.48 -0.54,-0.66 -0.12,-0.42 0.48,-0.87 0.06,-0.5 -0.16,-0.42 -0.43,-0.18 -2.26,-1.38 -0.87,-0.32 -1.08,-1.38 -1.3,-0.68 -0.93,-1.66 -0.65,-0.37 -0.05,-0.38 0.64,-1.93 0.12,-0.74 0.71,-0.31 0.72,-0.08 0.91,-2.26 2.57,-2.44 14.49,-4.09 0.82,-1.16 2.31,-1.55 0.98,-1.05 0.56,-1.12 0.21,-1.58 -0.37,-2.45 -0.94,-2.19 z"
     inkscape:connector-curvature="0"
     style="fill:#cccccc;fill-opacity:1;stroke:#ffffff;stroke-width:0.5;stroke-opacity:1" />
  <path
     id="IR-20"
     class="land"
     d="m 152.54138,281.67387 -2.85,-0.39 -1.2,0.32 -0.8,0.53 -0.12,1.12 0.38,2.71 -0.24,2.8 -2.01,1.04 -2.96,0.15 -2.38,1.18 -0.25,0.71 0.1,0.49 0.25,0.33 0.28,0.3 0.21,0.4 0.08,0.58 -0.12,0.93 0.04,0.54 0.16,0.38 -0.59,0.97 -0.72,0.51 0.57,0.78 0.94,2.19 0.37,2.45 -0.21,1.58 -0.56,1.12 -0.98,1.05 -2.31,1.55 -0.82,1.16 -14.49,4.09 -2.57,2.44 -0.91,2.26 -0.72,0.08 -0.71,0.31 -0.12,0.74 -0.64,1.93 0.05,0.38 0.65,0.37 0.93,1.66 1.3,0.68 1.08,1.38 0.87,0.32 2.26,1.38 0.43,0.18 0.16,0.42 -0.06,0.5 -0.48,0.87 0.12,0.42 0.54,0.66 0.54,0.48 0.75,0.34 1.56,0.5 0.07,0.13 0.06,0.24 0.14,0.23 0.29,0.11 0.23,-0.06 0.21,-0.23 0.27,-0.05 0.32,0.07 0.24,0.18 0.19,0.24 2.05,1.57 0.73,0.34 v 0.65 l 0.75,0.77 1.06,0.64 1.76,0.44 5.09,2.55 0.44,0.52 0.23,0.62 0.53,0.17 0.62,0.03 0.45,0.21 0.99,1.16 0.81,1.56 0.54,0.6 0.78,0.23 0.61,0.31 1.36,1.5 4.87,6.42 6.66,14.05 0.81,1.19 0.51,0.48 2.26,-3.32 5.66,-14.89 2.24,-1.71 10.21,-0.68 2.9,-0.9 4.4,-0.33 4.3,1.28 2.12,2.07 2.58,0.79 9.17,0.93 9.64,6.65 5.81,0.55 3.04,-0.64 -0.03,-0.48 0.26,-1.18 0.55,-1 0.95,-0.61 3.3,-1.1 1.89,-1.43 0.75,-5.85 2.38,-2.8 6.15,-1.74 0.99,-0.59 0.09,-0.92 0.23,-1.16 4.18,-8.43 -0.1,-2.13 0.17,-2.7 0.93,-1.98 -0.36,-0.4 -2.65,-1.43 -0.29,-1.41 0.06,-1.46 -0.89,-0.92 -1.34,-1.04 -0.65,-1.18 -0.93,-0.56 -1.45,1.04 -0.81,1.61 -0.27,1.29 -0.97,0.65 -1.28,-1.01 -1.42,-1.5 -3.11,-1.57 -1.35,-1.16 -0.4,-1.16 0.45,-1.48 0.66,-1.42 -0.04,-1.33 -1.13,-1.93 -1.82,-2.2 -2.27,-0.73 -2.08,1.19 -2.28,0.78 -1.84,1.05 -1.41,4.35 -0.78,0.82 -3.31,2.1 -1.14,-0.42 -4.67,-0.41 -2.74,-1 -2.1,-1.23 -0.54,-1.04 0.21,-1.2 0.35,-1.1 1.65,-3.83 -0.14,-1.14 -0.52,-1.35 0.3,-1.62 0.65,-1.06 -11.29,-4.83 -2.72,0.3 -2.2,-0.13 -1.08,0.3 -2.17,2.24 -1.23,0.33 -1.53,-0.58 -9.19,-1.11 -17.77,-11.7 -0.85,-1.24 -1.78,-1.15 z"
     inkscape:connector-curvature="0"
     style="fill:#cccccc;fill-opacity:1;stroke:#ffffff;stroke-width:0.5;stroke-opacity:1" />
  <path
     id="IR-10"
     class="land"
     d="m 222.30138,358.85387 -5.81,-0.55 -9.64,-6.65 -9.17,-0.93 -2.58,-0.79 -2.12,-2.07 -4.3,-1.28 -4.4,0.33 -2.9,0.9 -10.21,0.68 -2.24,1.71 -5.66,14.89 -2.26,3.32 -3.8,8.88 -3.03,4.19 0.07,2.49 0.49,3.13 -1.48,2.42 -4.32,2.84 -1.11,0.44 0.61,0.88 0.94,2.13 0.64,0.73 1.44,0.71 0.41,0.86 v 0.01 l 0.2,0.86 1.48,2.66 0.28,0.39 0.75,0.5 0.31,0.29 0.23,0.44 0.22,0.85 0.15,0.37 0.66,0.74 1.63,1.24 0.57,0.87 0.12,1.03 -0.25,1.1 -6.31,17.2 -0.1,8.3 -0.15,11.69 h 13.6 l 0.45,0.27 0.13,0.62 -0.14,23.19 0.06,1.47 4.38,0.63 0.46,0.16 0.43,0.27 0.69,0.75 0.53,0.94 0.38,1.05 0.34,2.11 0.18,0.46 0.33,0.35 0.46,0.2 0.49,0.08 0.5,-0.02 1.51,-0.26 0.52,0.03 0.5,0.17 0.39,0.33 0.84,1.41 1.33,1.51 1.61,1.48 0.27,0.41 0.21,0.48 0.08,0.52 -0.1,0.51 -0.31,0.41 -0.39,0.36 -0.33,0.4 -0.09,0.53 0.08,0.33 0.52,1.11 0.83,0.94 0.23,0.49 0.11,0.08 0.76,2.38 0.08,0.62 0.37,0.93 0.19,0.32 0.27,0.27 0.58,0.46 0.61,0.37 1.28,0.37 0.3,0.13 0.04,-0.12 0.22,-0.29 v 0.33 l 3.04,0.29 0.95,-0.29 0.35,-0.24 0.38,-0.33 0.3,-0.42 0.12,-0.47 -0.11,-0.65 -0.56,-0.91 -0.2,-0.57 0.11,-0.83 0.67,0.16 1.76,0.97 2.9,-0.02 0.8,0.37 0.72,-0.33 2.81,0.33 0.85,-0.23 0.75,-0.61 0.55,-0.86 0.26,-0.94 -0.03,-0.54 -0.23,-0.91 -0.03,-0.51 0.12,-0.54 0.37,-0.98 0.08,-0.6 -0.23,-2.16 -0.27,-1.08 -0.35,-0.85 -0.68,-0.75 -0.84,-0.64 -0.72,-0.73 -0.31,-1.03 0.15,-0.26 0.27,-0.38 0.17,-0.34 -0.47,-0.43 0.2,-0.6 0.37,-0.58 0.16,-0.21 2.27,-2.12 0.48,-0.14 2.23,0.31 0.7,0.01 0.83,-0.84 -0.33,-0.85 -1.03,-0.66 -1.32,-0.26 -1.12,-0.5 0.31,-0.98 1.18,-0.74 1.48,0.21 0.7,-0.39 0.71,0.05 0.74,0.22 0.83,0.12 0.21,-0.05 0.39,-0.22 0.26,-0.05 0.28,0.14 0.46,0.67 0.25,0.17 0.58,-0.14 0.42,-0.32 0.35,-0.08 0.35,0.54 -0.16,0.21 -0.06,0.16 -0.07,0.61 0.65,-0.48 0.64,-0.7 0.49,-0.23 0.33,1.76 0.38,0.74 0.62,0.4 0.85,-0.17 -0.04,0.82 -0.23,0.51 -1.22,1.57 -0.79,1.39 -0.24,0.65 -0.54,-0.75 -0.55,-0.5 -0.7,-0.3 -0.92,-0.09 -0.58,-0.2 -1.7,-0.9 -0.84,-0.21 -0.76,0.12 -1.36,0.46 -0.88,0.05 -1.69,-0.29 -0.7,0.19 -0.44,0.78 1.33,0.35 1.09,0.56 0.72,0.97 0.28,1.54 0.56,0.54 2.74,1.6 0.96,0.34 0.72,0.06 0.44,0.49 0.35,0.61 0.75,0.47 0.71,-0.1 0.6,-0.57 0.43,-0.8 0.24,-0.82 0.5,0.33 0.02,0.31 -0.17,0.31 -0.07,0.36 -0.02,0.72 0.02,0.26 0.18,0.28 0.57,0.4 0.12,0.15 -0.05,1.98 0.39,0.41 1.08,0.08 0.85,-0.18 1.55,-0.66 0.86,-0.14 0.35,0.1 0.59,0.45 0.46,0.1 0.5,-0.05 0.9,-0.23 0.44,-0.05 0.89,0.07 0.39,0.09 0.41,0.17 0.44,0.27 0.16,0.2 0.1,0.26 0.3,0.43 0.33,0.83 0.01,2.16 0.1,0.78 1.17,1.71 1.33,0.29 1.5,-0.64 12.99,-8.31 1.51,-0.53 1.54,-0.24 1.48,0.18 1.1,0.42 2.66,-1.32 4.26,-0.72 2.39,1.16 6.38,0.34 -0.71,-7.54 -0.77,-3.18 -1.32,-1.5 -0.29,-2.5 2.39,-5.63 -0.71,-2.54 -2.34,-1.7 -3.94,-2.11 -3.23,-3.21 -1.68,-2.15 -7.05,0.94 -0.28,-1.18 0.41,-1.58 0.19,-1.44 0.21,-0.73 -0.13,-1.95 -1.88,-6.82 -0.04,-2.84 0.69,-1.56 1.04,-1.4 1.41,-1.07 3.19,-1.35 4.96,-4.45 2.75,-3.69 1.48,-2.86 2.25,-2.83 0.12,-2.25 -1.21,-2.7 -3.52,-3.8 -0.8,-1.41 -2.06,-1.88 -1.27,-2.02 -1.24,-2.92 -1.12,-4.08 -0.56,-1.29 -0.68,-0.69 -1.96,-0.63 -0.6,-0.69 -1.03,-0.75 -1,-1.31 -1.3,-3.29 -6.24,-9.89 -0.68,-2.97 -0.15,-1.44 1.1,-3.66 0.89,-1.37 -1.72,-2.33 -4.14,-1.58 -3.61,0.24 -2.23,-1.2 -2,-4.97 z"
     inkscape:connector-curvature="0"
     style="fill:#cccccc;fill-opacity:1;stroke:#ffffff;stroke-width:0.5;stroke-opacity:1" />
  <path
     id="IR-08"
     class="land"
     d="m 302.21138,438.47387 0.42,-1.67 0.11,-3.76 -3.78,-12.54 -0.92,-5.52 0.24,-2.61 1.41,-1.01 1.75,-0.76 -0.09,-1.49 -1.25,-1.59 -0.82,-1.49 0.18,-1.51 1.65,-1.14 1.31,-2.58 -0.76,-5.08 -2.16,-3.94 -4.81,-3.63 -2.18,-2.21 -5.26,-4.09 -0.41,-3.84 0.24,-3.56 -0.91,-1.42 -0.35,-1.43 -0.63,-0.71 -1.09,-0.28 -0.41,-1.2 -0.4,-2.23 -1.62,-1.41 -1.79,0.31 -0.91,1 -1.71,0.58 -5.44,0.17 -1.62,0.29 -4.62,3.01 -1.88,0.41 -1.27,-0.43 -2.03,0.45 -2.7,-0.33 -2.52,-2.1 -2.54,-1.39 -1.84,0.39 -1.29,0.65 -1.49,0.26 -2.82,-0.37 -8.15,4.41 0.15,1.44 0.68,2.97 6.24,9.89 1.3,3.29 1,1.31 1.03,0.75 0.6,0.69 1.96,0.63 0.68,0.69 0.56,1.29 1.12,4.08 1.24,2.92 1.27,2.02 2.06,1.88 0.8,1.41 3.52,3.8 1.21,2.7 -0.12,2.25 -2.25,2.83 -1.48,2.86 2.93,1.8 7.26,2.92 2.18,-0.12 1.27,0.16 15.4,13.71 1.41,-0.02 4.75,0.63 2.24,-1.17 2.05,-1.81 2.69,-0.51 z"
     inkscape:connector-curvature="0"
     style="fill:#cccccc;fill-opacity:1;stroke:#ffffff;stroke-width:0.5;stroke-opacity:1" />
  <path
     id="IR-25"
     class="land"
     d="m 550.25138,318.89387 -8.22,-0.98 -1.94,-3.07 -2.58,-14.36 0.34,-8.44 5.21,-15.72 2.82,-5.09 16.4,-11.63 4.01,-3.94 0.56,-3.23 -1.42,-3.18 -12.07,-9.28 -4.6,-1.21 -10.42,2.68 -16.45,7.82 -16.91,4.42 -14.88,25.1 -4.55,2.35 -10.61,-0.24 -3.8,0.71 -0.73,0.33 v 0.13 l 0.47,33.76 -1.1,3.52 -3.53,6.16 -2.38,1.66 -3.22,0.34 -4.11,2.21 -2.22,2.76 -1.88,8.28 -1.35,3.68 -1.59,3.01 -2.29,2.79 -4.37,2.5 -43.79,15.12 -13.11,-3.01 -3.02,0.1 -3.99,1.56 -2.49,1.59 -1.83,1.53 -2.68,1.53 -2.98,0.88 -1.64,1.1 -0.32,1.63 1.19,15.06 -0.37,3.13 -1.74,6.87 -0.79,5.9 -0.44,1.21 0.12,3.38 1.81,7.15 10.53,4.05 6.26,5.77 5.31,6.47 9.67,24.45 6.87,12.31 6.6,8.12 1.8,3.2 1.48,10.48 1.18,2.86 6.43,4.85 8.4,4.27 1.83,-0.81 0.41,-0.35 4.18,-0.51 1.3,-0.94 -0.04,-1.35 -0.57,-1.9 -0.44,-2.72 0.52,-15.52 -1.34,-0.92 -1.33,-1.63 -0.98,-4.79 -2.45,-6.44 -2.31,-4.38 -0.11,-2.38 0.92,-3.51 1.91,-3.64 3.64,-4.07 23.26,-4.13 5.3,0.2 3.39,0.7 7.81,-1.07 7.01,-3.1 0.62,-3.36 0.53,-15.25 1.84,-3.93 21.98,-11.62 2.92,-3.12 8.61,-4.87 1.9,-2.06 0.9,-1.37 5.28,0.94 44.41,19.13 0.58,-0.95 2.17,-5.58 4.25,-6.61 1.52,-4.26 5.51,-7.4 0.68,-2.28 0.38,-2.4 0.94,-2.73 0.09,-2.69 -1.66,-2.75 -1.26,-2.74 -0.07,-1.49 -1.21,-1.38 -0.63,-1.13 -0.3,-1.09 0.7,-1.76 1.12,-1.82 0.34,-1.51 -0.2,-3.78 -1.09,-0.77 -3.34,-5.26 -3.52,-2.2 -2.68,-1.2 -0.99,-0.78 -3.51,-2.02 -2.7,-6.16 -3.09,-20.92 -1.64,-3.17 -1.77,-2.26 z"
     inkscape:connector-curvature="0"
     style="fill:#cccccc;fill-opacity:1;stroke:#ffffff;stroke-width:0.5;stroke-opacity:1" />
  <path
     id="IR-07"
     class="land"
     d="m 335.21138,210.00387 -3.27,-0.19 -2.03,-0.73 -1.24,-0.74 -1.48,-1.71 -2.39,-4.51 -4.23,-4.57 -5.63,-2.21 -6.35,-0.54 -4.47,-2.64 -0.14,2.16 v 2.89 l -2.34,1.45 -3.33,-0.42 -3.34,1.24 -2.51,2.89 -0.16,3.3 -0.51,2.47 -3.67,0.2 -1.17,3.09 -2.17,2.67 -2.67,1.65 -1.09,2.52 1.92,2.4 1.06,2.07 0.02,3.55 -3.58,11.6 0.01,0.13 11.89,0.13 9.94,3.01 23.58,14.07 0.17,-2.17 1.26,-4.05 2.12,-3.29 0.52,-3.11 -1.87,-3.41 -4.67,-6.22 -0.32,-2.16 0.26,-2.31 0.78,-3.05 0.56,-4.68 0.69,-0.73 0.77,0.35 0.5,0.51 0.89,0.31 2.47,0.13 2.29,2 7.54,4.61 3.03,1.05 3.15,0.07 9.32,2.71 3.35,0.13 4.71,-1.55 4.11,-2.2 6.58,-6.01 1.33,-4.57 -0.54,-5.13 -1.31,-5.72 -3.72,-2.58 -1.79,-0.41 -1.33,0.8 -2.19,0.29 -3.15,-0.65 -4.74,-2.57 -3.72,-0.69 -2.94,-1.25 -2.75,-0.35 -3.79,3 -5.37,6.51 z"
     inkscape:connector-curvature="0"
     style="fill:#cccccc;fill-opacity:1;stroke:#ffffff;stroke-width:0.5;stroke-opacity:1" />
  <path
     id="IR-12"
     class="land"
     d="m 499.98138,138.65387 -2.94,-2.08 -6.26,-8.35 -1.71,1.41 -7.7,11.89 -3.42,7.62 -0.82,5.66 -1.37,3.58 -2.1,0.98 -14.79,-2.03 -3.52,0.42 -7.24,4.16 -7.02,5.51 -2.55,2.78 -5.85,2.76 -2.88,0.65 -3.23,-0.52 -8.11,0.14 -4.17,1.25 -3.44,2.03 -3.11,3.12 -1.46,2.86 -0.92,3.1 -0.66,4.13 -1.63,1.89 -4.24,3.79 -0.96,1.4 -0.51,1.29 -0.98,1.37 -1.79,1.6 -2.93,1.58 -3.17,1.03 -2.07,0.29 -1.34,-0.75 -2.15,0.73 -2.62,1.52 -1.97,0.55 -4.19,0.46 -0.61,0.27 1.31,5.72 0.54,5.13 -1.33,4.57 -6.58,6.01 -4.11,2.2 -4.71,1.55 -3.35,-0.13 -9.32,-2.71 -3.15,-0.07 -3.03,-1.05 -7.54,-4.61 -2.29,-2 -2.47,-0.13 -0.89,-0.31 -0.5,-0.51 -0.77,-0.35 -0.69,0.73 -0.56,4.68 -0.78,3.05 -0.26,2.31 0.32,2.16 4.67,6.22 1.87,3.41 -0.52,3.11 -2.12,3.29 -1.26,4.05 -0.17,2.17 0.56,2.01 -0.11,4.11 -1.12,4.41 -1.82,4.28 -1.37,1.98 8,4.34 4.05,0.67 11.34,-0.72 2.82,0.44 17.62,5.82 2.15,0.34 98.77,-2.97 2.27,0.75 1.01,0.87 0.38,0.5 v -0.13 l 0.73,-0.33 3.8,-0.71 10.61,0.24 4.55,-2.35 14.88,-25.1 6.65,-8.24 5.34,-4.89 4.7,-2.8 8.74,-3.3 1.26,-0.99 1.76,-4.09 7.2,-12.4 0.63,-3.56 -2.71,-3.12 -9.81,-8.04 -1.13,-2.86 -1.34,-6.19 -0.78,-9.62 0.61,-5.59 1.67,-3.2 1.12,-4.81 -1.02,-4.05 -1.68,-1.01 -1.32,-0.05 -0.81,0.23 -6.3,1.07 -2.06,-0.79 -3.94,-0.68 -2.34,-0.77 -4.69,-4.05 -4.9,-5.52 -0.78,-1.63 0.15,-1.04 0.78,-3.1 0.21,-3.51 -0.2,-1.37 -0.27,-0.56 -0.27,-0.41 0.26,-0.76 1.07,-0.86 2.41,-0.72 0.44,-1.19 -2.02,-0.85 z"
     inkscape:connector-curvature="0"
     style="fill:#cccccc;fill-opacity:1;stroke:#ffffff;stroke-width:0.5;stroke-opacity:1" />
  <path
     id="IR-21"
     class="land"
     d="m 401.31138,156.13387 -0.18,-0.01 -1.69,-0.76 -1,-1.33 0.32,-0.04 0.83,-0.28 -1.36,0.06 -0.58,-0.19 -0.32,-0.58 h 2.12 l 2.42,0.32 0.64,-0.13 1.14,-0.45 0.63,-0.09 1.1,0.34 0.6,0.1 0.52,-0.27 1.89,-0.58 2.94,-0.37 2.35,-0.82 0.09,-1.97 -2.02,1.71 -2.97,0.71 -16.29,0.93 -1.85,0.31 -13.73,3.09 -6.84,2.11 -7.09,2.12 -7.06,1.44 -7.37,1.41 -7.12,1.76 -6.8,2.5 -7.66,1.02 -7.37,-2.14 -7.65,-1.38 -7.38,-2.15 -11.55,-2.29 -3.47,-1.58 -5.96,-4.24 -6.53,-3.56 -0.61,-0.53 -1.22,-1.33 -0.58,-0.26 -0.86,-0.2 -1.97,-1.34 h -0.01 l -0.02,0.17 -0.4,1.32 -1.41,1.96 -2.16,1.15 -1.66,1.66 -0.91,4.28 -2.53,4.55 -2.15,1.39 11.03,9.32 2.29,1.24 6.7,5.12 0.48,1.4 0.04,1.02 6.84,1.36 2.64,1.05 0.75,1.09 1.57,1.45 1.74,0.76 6.78,1.51 2.69,3.17 4.47,2.64 6.35,0.54 5.63,2.21 4.23,4.57 2.39,4.51 1.48,1.71 1.24,0.74 2.03,0.73 3.27,0.19 2.85,-1.16 5.37,-6.51 3.79,-3 2.75,0.35 2.94,1.25 3.72,0.69 4.74,2.57 3.15,0.65 2.19,-0.29 1.33,-0.8 1.79,0.41 3.72,2.58 0.61,-0.27 4.19,-0.46 1.97,-0.55 2.62,-1.52 2.15,-0.73 1.34,0.75 2.07,-0.29 3.17,-1.03 2.93,-1.58 1.79,-1.6 0.98,-1.37 0.51,-1.29 0.96,-1.4 4.24,-3.79 1.63,-1.89 0.66,-4.13 0.92,-3.1 1.46,-2.86 3.11,-3.12 3.44,-2.03 4.17,-1.25 -1.68,-2.57 -4.38,-4.53 -9.14,-5.54 -1.44,-2.5 -0.47,-1.28 -0.05,-0.67 z"
     inkscape:connector-curvature="0"
     style="fill:#cccccc;fill-opacity:1;stroke:#ffffff;stroke-width:0.5;stroke-opacity:1" />
  <path
     id="IR-27"
     class="land"
     d="m 495.37138,91.003868 -0.63,-0.03 -0.58,-0.19 -1.13,-0.6 -0.69,-0.22 -2.11,-0.02 -0.61,-0.2 -1.61,-0.94 -2.57,-0.57 h -1.23 l -8.18,1.72 -2.63,0.11 -1.01,0.41 -3.07,2.39 -0.86,0.44 -0.85,0.7 -0.47,0.06 -1.89,0.64 -0.9,0.51 -0.37,0.83 -0.51,0.2 -2.39,0.45 -0.8,0.28 -0.36,0.39 -0.45,0.96 -0.3,0.4 -0.45,0.17 -0.58,0.1 -0.5,0.28 -0.22,0.71 -0.32,0.550002 -1.93,2.16 -6.22,4.3 -1.24,1.35 -0.54,0.87 -0.23,0.83 -0.18,1.04 -0.68,1.62 0.04,1.1 0.15,0.29 0.49,0.44 0.18,0.34 0.06,0.37 -0.06,1.25 -0.12,0.75 -0.57,1.31 -0.13,0.8 -0.19,0.37 -1.05,0.88 -1.96,1.3 -0.52,0.49 -0.82,0.33 -1.02,1.1 -0.62,0.29 -0.91,0.01 -2.52,-0.55 -0.94,0.15 -7,4.07 -1.48,0.49 h -0.91 l -0.95,-0.13 -0.91,0.05 -0.76,0.51 -0.77,0.74 -0.75,0.32 -0.82,0.04 -11.29,-0.99 0.39,4.41 0.19,0.74 1.25,3.39 0.93,4.39 0.66,1.9 0.98,1.54 -0.94,1.76 -0.12,0.76 0.78,0.31 0.61,0.36 0.23,0.88 -0.02,5.35 -0.28,0.86 -0.5,0.41 -5.18,1.43 -0.7,-0.25 -0.65,-0.37 -6.25,-0.56 v 0.01 l 0.05,0.67 0.47,1.28 1.44,2.5 9.14,5.54 4.38,4.53 1.68,2.57 8.11,-0.14 3.23,0.52 2.88,-0.65 5.85,-2.76 2.55,-2.78 7.02,-5.51 7.24,-4.16 3.52,-0.42 14.79,2.03 2.1,-0.98 1.37,-3.58 0.82,-5.66 3.42,-7.62 7.7,-11.89 1.71,-1.41 1.25,-1.22 3.03,-5.37 3.01,-1.25 1.26,-1.16 1.25,-0.57 1.1,-0.17 4.85,-1.68 2.28,-3.17 -0.77,-3.19 -1.69,-1.3 -1.95,-0.97 -1.41,-1.67 -0.09,-2.38 0.84,-3.38 0.04,-1.240002 -0.49,-2.21 -0.11,-1.9 0.27,-1.49 -0.28,-3.68 -0.2,-0.09 -1.68,-0.21 z"
     inkscape:connector-curvature="0"
     style="fill:#cccccc;fill-opacity:1;stroke:#ffffff;stroke-width:0.5;stroke-opacity:1" />
  <path
     id="IR-14"
     class="land"
     d="m 349.50138,421.56387 -9.22,-2.04 -1.93,-1.74 -0.39,-4.49 -0.63,-1.32 -0.71,-0.11 -5.64,3.1 -0.8,1.09 -1.18,0.53 -5.58,3.78 -3.1,0.44 -4.02,-0.96 -0.15,1.44 0.97,2.28 1.27,1.3 1.63,0.62 1.82,0.35 2.38,1.82 1.2,3.26 -1,3.31 -0.84,4.94 -3.51,8.74 -0.32,4.21 0.42,2.86 0.02,1.55 -1.16,0.38 -3.15,0.48 1.23,6.01 0.02,2.29 -0.23,0.48 -1.06,1.06 -2.03,1.2 -2.3,0.63 -4.39,-1.14 -1.54,-0.94 -0.92,-1.18 -1.06,-0.22 -4.74,-2.32 -3.37,-0.84 -0.62,0.72 0.69,4.05 1.29,3.66 0.09,1.09 -0.57,1.03 0.3,1.05 1.02,1.69 -0.05,2.49 -0.88,1.84 -11.04,6.47 -1.76,0.27 -6.94,-0.41 -4.17,1.02 0.01,0.12 v 2.45 l 1.11,3.46 2.08,2.08 2.52,5.15 2.36,0.9 9.15,0.69 5.68,1.83 2.77,3.1 2.22,5.11 2.92,4.63 2.67,2.8 3.3,1.23 3.66,3.37 18.58,35.03 0.96,4.25 6.06,17.17 1.04,1.7 1.83,0.73 1.38,0.82 3.12,3.65 5.61,12.58 5.46,6.74 5.3,5.01 8.27,5.96 1.13,2.19 3.04,2.89 9.23,0.82 1.53,0.62 3.49,2.86 0.7,0.34 0.72,0.1 3.01,-0.77 h 1.07 l 12.66,2.25 4.31,-2.29 1.12,-1.82 -0.47,-1.37 0.01,-0.51 0.88,-2.55 0.6,-3.7 1.83,-2.24 4.28,-1.49 11.04,-1.01 2.52,0.32 1.96,0.69 2.05,-0.88 3.78,-0.87 11.03,1.56 5.17,-1.59 2.39,-2.27 1.36,-4.15 1.61,-2.56 5.65,-3.05 3.8,-0.98 2.38,0.14 1.25,-0.55 0.95,-0.68 0.71,-1.14 0.25,-2.65 -1.98,-3.24 -3.5,-2.87 -0.2,-1.51 0.2,-1.96 2.09,-7.65 0.49,-5.28 -1.1,-2.97 -12.44,-12.07 -0.22,-2.24 1.36,-0.98 -0.01,-1.33 -2.39,-7.2 -8.37,-20.8 -2.4,-1.03 -9.48,-0.87 -1.86,-1.19 -0.98,-1 -0.9,-1.6 -0.47,-1.82 -3.37,-6.99 -1.12,-3.77 v -0.94 l -8.4,-4.27 -6.43,-4.85 -1.18,-2.86 -1.48,-10.48 -1.8,-3.2 -6.6,-8.12 -6.87,-12.31 -9.67,-24.45 -5.31,-6.47 -6.26,-5.77 -10.53,-4.05 h -0.08 l -14.12,4.09 z"
     inkscape:connector-curvature="0"
     style="fill:#cccccc;fill-opacity:1;stroke:#ffffff;stroke-width:0.5;stroke-opacity:1" />
  <path
     id="IR-04"
     class="land"
     d="m 334.05138,277.03387 -4.05,-0.67 -8,-4.34 -13.96,3.62 -3.2,-0.16 -8.94,1.03 -3.94,1.72 -1.55,1.56 -0.49,1.46 -1.24,9.83 0.86,2.16 1.18,0.63 -0.5,2.98 -3.95,9.58 -1.1,1.96 -2.37,0.01 -2.61,0.83 -2.32,1.97 -2.59,1.6 -17.25,4.55 -6.57,3.91 -3.43,2.85 -0.93,1.98 -0.17,2.7 0.1,2.13 -4.18,8.43 -0.23,1.16 -0.09,0.92 -0.99,0.59 -6.15,1.74 -2.38,2.8 -0.75,5.85 -1.89,1.43 -3.3,1.1 -0.95,0.61 -0.55,1 -0.26,1.18 0.03,0.48 2,4.97 2.23,1.2 3.61,-0.24 4.14,1.58 1.72,2.33 -0.89,1.37 -1.1,3.66 8.15,-4.41 2.82,0.37 1.49,-0.26 1.29,-0.65 1.84,-0.39 2.54,1.39 2.52,2.1 2.7,0.33 2.03,-0.45 1.27,0.43 1.88,-0.41 4.62,-3.01 1.62,-0.29 5.44,-0.17 1.71,-0.58 0.91,-1 1.79,-0.31 1.62,1.41 0.4,2.23 0.41,1.2 1.09,0.28 0.63,0.71 0.35,1.43 0.91,1.42 -0.24,3.56 0.41,3.84 5.26,4.09 2.18,2.21 4.81,3.63 2.16,3.94 0.76,5.08 -1.31,2.58 -1.65,1.14 -0.18,1.51 0.82,1.49 1.25,1.59 0.09,1.49 -1.75,0.76 -1.41,1.01 -0.24,2.61 0.92,5.52 3.78,12.54 -0.11,3.76 -0.42,1.67 0.29,3.23 2.3,5.92 4.45,4.76 5.79,4.17 0.84,0.83 3.15,-0.48 1.16,-0.38 -0.02,-1.55 -0.42,-2.86 0.32,-4.21 3.51,-8.74 0.84,-4.94 1,-3.31 -1.2,-3.26 -2.38,-1.82 -1.82,-0.35 -1.63,-0.62 -1.27,-1.3 -0.97,-2.28 0.15,-1.44 4.02,0.96 3.1,-0.44 5.58,-3.78 1.18,-0.53 0.8,-1.09 5.64,-3.1 0.71,0.11 0.63,1.32 0.39,4.49 1.93,1.74 9.22,2.04 3.07,-0.01 14.12,-4.09 h 0.08 l -1.81,-7.15 -0.12,-3.38 0.44,-1.21 0.79,-5.9 1.74,-6.87 0.37,-3.13 -1.19,-15.06 0.32,-1.63 1.64,-1.1 2.98,-0.88 2.68,-1.53 1.83,-1.53 2.49,-1.59 3.99,-1.56 3.02,-0.1 13.11,3.01 43.79,-15.12 4.37,-2.5 2.29,-2.79 1.59,-3.01 1.35,-3.68 1.88,-8.28 2.22,-2.76 4.11,-2.21 3.22,-0.34 2.38,-1.66 3.53,-6.16 1.1,-3.52 -0.47,-33.76 -0.38,-0.5 -1.01,-0.87 -2.27,-0.75 -98.77,2.97 -2.15,-0.34 -17.62,-5.82 -2.82,-0.44 z"
     inkscape:connector-curvature="0"
     style="fill:#cccccc;fill-opacity:1;stroke:#ffffff;stroke-width:0.5;stroke-opacity:1" />
  <path
     id="IR-06"
     class="land"
     d="m 261.48138,532.08387 0.27,-0.72 -0.12,-0.82 0.19,-0.82 -0.45,-0.26 -0.75,-0.34 -0.45,-0.19 -0.48,0.3 0.3,0.56 0.26,0.93 0.41,1.05 0.41,0.37 z m 42.19,-15.18 -2.92,-4.63 -2.22,-5.11 -2.77,-3.1 -5.68,-1.83 -9.15,-0.69 -2.36,-0.9 -2.52,-5.15 -2.08,-2.08 -1.11,-3.46 v -2.45 l -0.72,-0.68 -1.55,-1.12 -4.84,-1.74 -6.38,-0.34 -2.39,-1.16 -4.26,0.72 -2.66,1.32 0.34,0.14 0.6,0.42 0.25,0.5 0.22,0.79 0.55,0.97 0.65,0.87 0.58,0.46 -0.24,1.25 0.95,2.71 -0.45,1.62 0.56,0.28 0.24,0.34 -0.15,0.28 -0.65,0.08 0.15,0.5 0.04,0.88 0.12,0.58 0.14,0.21 1.61,1.67 1.71,1.05 0.78,0.68 0.99,1.46 1.88,3.45 1.11,1.6 1.12,1.25 0.6,0.91 0.26,0.95 0.38,0.49 2.44,0.99 1.35,1.36 0.66,0.92 0.28,0.82 0.36,0.61 2.18,1.81 1.17,1.78 0.24,0.52 0.02,-1.42 0.64,0.31 0.8,1.1 0.54,0.98 0.33,1.3 0.21,1.88 0.02,1.85 -0.3,1.16 0.5,0.91 0.26,0.29 0.4,0.13 -0.1,0.33 -0.18,1.94 -0.63,-0.68 -0.38,0.35 -0.27,0.79 -0.29,0.64 -0.37,0.57 -0.11,0.58 0.07,1.15 0.37,1.32 0.91,0.81 1.15,0.14 1.1,-0.65 0.75,-0.14 3.23,-0.2 0.99,0.17 0.15,0.26 0.09,0.4 0.05,0.8 0.15,0.21 0.34,-0.11 0.38,-0.2 0.25,-0.06 0.51,0.43 0.28,0.49 0.34,1.37 0.77,-0.2 0.4,0.69 0.1,1.09 -0.14,1.03 -0.28,0.5 -0.83,0.75 -0.3,0.34 -0.06,0.53 0.19,0.39 0.05,0.34 -0.44,0.38 -0.4,-0.78 -0.68,-0.86 -0.82,-0.69 -0.8,-0.28 -0.86,0.51 -0.15,1.17 0.24,1.3 0.34,0.9 1.95,2.47 0.31,0.93 0.35,0.5 0.83,0.22 1.67,0.1 1.75,0.41 1.33,0.83 1.06,1.25 0.93,1.73 0.52,2.04 0.04,6.01 0.34,1.47 2.53,6.27 0.31,0.48 1.37,1.45 1.46,2.27 0.51,0.62 1.44,1.31 0.85,1.39 0.06,1.25 -0.91,2.52 0.2,0.94 0.86,0.89 0.71,0.68 1.56,2.55 0.63,1.7 0.82,1.17 0.81,2.8 0.85,-0.07 0.32,-1.31 0.99,0.64 0.95,1.6 0.88,0.95 1.77,0.54 1.29,0.18 0.22,0.23 0.14,0.35 0.05,0.45 0.21,0.3 0.48,0.12 3.58,0.76 1.63,0.25 2.59,-0.48 1.59,-0.38 1.48,-0.11 0.78,0.49 0.66,0.21 2.87,-0.35 1.97,0.27 1.71,0.71 1.52,1.03 4.88,4.55 1.56,0.78 7.37,1.63 1.52,0.65 1.36,1.08 3.1,3.21 0.29,0.48 0.66,1.53 0.33,0.55 0.62,0.52 1.68,0.65 0.66,0.57 0.37,1.09 -0.51,0.46 -0.9,0.1 -0.77,-0.03 -0.87,0.08 -0.69,0.31 -0.39,0.59 0.07,0.96 0.85,0.9 3.2,1.42 h 0.01 l 0.67,-1.3 0.23,-0.28 0.18,0.01 0.85,-0.36 0.45,0.03 2.7,-0.28 0.68,0.04 2.04,0.52 1.93,0.08 0.56,-0.2 1.79,-1.04 -8.27,-5.96 -5.3,-5.01 -5.46,-6.74 -5.61,-12.58 -3.12,-3.65 -1.38,-0.82 -1.83,-0.73 -1.04,-1.7 -6.06,-17.17 -0.96,-4.25 -18.58,-35.03 -3.66,-3.37 -3.3,-1.23 z"
     inkscape:connector-curvature="0"
     style="fill:#cccccc;fill-opacity:1;stroke:#ffffff;stroke-width:0.5;stroke-opacity:1" />
  <path
     id="IR-18"
     class="land"
     d="m 268.81138,427.50387 -7.26,-2.92 -2.93,-1.8 -2.75,3.69 -4.96,4.45 -3.19,1.35 -1.41,1.07 -1.04,1.4 -0.69,1.56 0.04,2.84 1.88,6.82 0.13,1.95 -0.21,0.73 -0.19,1.44 -0.41,1.58 0.28,1.18 7.05,-0.94 1.68,2.15 3.23,3.21 3.94,2.11 2.34,1.7 0.71,2.54 -2.39,5.63 0.29,2.5 1.32,1.5 0.77,3.18 0.71,7.54 4.84,1.74 1.55,1.12 0.72,0.68 -0.01,-0.12 4.17,-1.02 6.94,0.41 1.76,-0.27 11.04,-6.47 0.88,-1.84 0.05,-2.49 -1.02,-1.69 -0.3,-1.05 0.57,-1.03 -0.09,-1.09 -1.29,-3.66 -0.69,-4.05 0.62,-0.72 3.37,0.84 4.74,2.32 1.06,0.22 0.92,1.18 1.54,0.94 4.39,1.14 2.3,-0.63 2.03,-1.2 1.06,-1.06 0.23,-0.48 -0.02,-2.29 -1.23,-6.01 -0.84,-0.83 -5.79,-4.17 -4.45,-4.76 -2.3,-5.92 -0.29,-3.23 -1.41,-0.1 -2.69,0.51 -2.05,1.81 -2.24,1.17 -4.75,-0.63 -1.41,0.02 -15.4,-13.71 -1.27,-0.16 z"
     inkscape:connector-curvature="0"
     style="fill:#cccccc;fill-opacity:1;stroke:#ffffff;stroke-width:0.5;stroke-opacity:1" />
  <g
     id="layer1"
     inkscape:label="Vrstva 1"
     transform="matrix(0.41694906,0,0,0.41694905,383.26271,213.74701)">
    <circle
       transform="matrix(0.994318,0,0,0.994318,-275.5681,-427.0646)"
       id="path1306"
       style="fill:#ff1414;fill-opacity:0.78448277;stroke-width:10.19400024;stroke-miterlimit:4;stroke-dasharray:none"
       cx="340"
       cy="492.36218"
       r="62.857143" />
  </g>
</svg>
