<?xml version="1.0" encoding="UTF-8" standalone="no"?>
<svg
   xmlns:dc="http://purl.org/dc/elements/1.1/"
   xmlns:cc="http://creativecommons.org/ns#"
   xmlns:rdf="http://www.w3.org/1999/02/22-rdf-syntax-ns#"
   xmlns:svg="http://www.w3.org/2000/svg"
   xmlns="http://www.w3.org/2000/svg"
   xmlns:sodipodi="http://sodipodi.sourceforge.net/DTD/sodipodi-0.dtd"
   xmlns:inkscape="http://www.inkscape.org/namespaces/inkscape"
   version="1.1"
   id="svg53"
   sodipodi:docname="TNSTA.svg"
   width="340.04172"
   height="381.19827"
   inkscape:version="0.92.4 (5da689c313, 2019-01-14)">
  <metadata
     id="metadata57">
    <rdf:RDF>
      <cc:Work
         rdf:about="">
        <dc:format>image/svg+xml</dc:format>
        <dc:type
           rdf:resource="http://purl.org/dc/dcmitype/StillImage" />
        <dc:title />
      </cc:Work>
    </rdf:RDF>
  </metadata>
  <sodipodi:namedview
     pagecolor="#ffffff"
     bordercolor="#666666"
     borderopacity="1"
     objecttolerance="10"
     gridtolerance="10"
     guidetolerance="10"
     inkscape:pageopacity="0"
     inkscape:pageshadow="2"
     inkscape:window-width="1920"
     inkscape:window-height="1017"
     id="namedview55"
     showgrid="false"
     fit-margin-top="0"
     fit-margin-left="0"
     fit-margin-right="0"
     fit-margin-bottom="0"
     inkscape:zoom="6.675088"
     inkscape:cx="-8.4787653"
     inkscape:cy="39.585798"
     inkscape:window-x="-8"
     inkscape:window-y="-8"
     inkscape:window-maximized="1"
     inkscape:current-layer="svg53" />
  <defs
     id="defs4">
    <style
       id="style2">.land{fill:#ccc;fill-opacity:1;stroke:#fff;stroke-opacity:1;stroke-width:.5}</style>
  </defs>
  <path
     id="JP-23"
     class="land"
     d="m 162.94731,277.87889 -0.17,-0.35 0.5,-1.77 -0.86,-1.4 0.11,-1.46 0.46,-1.37 -0.25,-0.32 -0.89,0.36 -1.14,-0.35 -0.97,-1.57 -0.32,-1.21 0.22,-2.19 1.69,-2.97 1.28,0.15 1.66,-0.5 1.48,-1.13 -0.02,0.57 1.18,0.87 -0.03,0.65 0.5,0.21 -0.09,0.48 0.27,0.32 0.32,0.15 0.3,-0.21 0.94,0.39 0.52,0.71 0.85,-0.17 0.92,-0.73 0.63,-0.01 0.75,0.47 -0.07,0.24 0.84,0.05 -0.02,0.31 0.99,0.5 1.72,-1.4 0.8,-0.08 -0.32,0.83 0.64,0.81 -0.01,0.51 1.26,-0.26 0.85,-0.55 1.56,0.3 0.22,0.39 0.84,-0.27 -0.31,0.98 0.52,0.5 -0.58,0.57 0.08,0.47 -0.46,0.24 -1.46,2 -0.03,1.06 -1.28,1.93 -2.75,1.53 -0.43,1.23 0.16,2.32 -3.41,0.79 -3.43,1.23 -2.03,0.27 -0.26,-0.21 0.8,-1.71 0.49,0.05 0.25,0.57 2.36,-1.02 0.86,-0.53 -0.1,-0.44 0.45,-0.36 0.48,0.15 0.22,-0.19 0.21,-1.14 -0.57,-0.7 -1.69,-0.31 -0.52,0.46 -0.24,0.93 -0.81,-0.57 -2.13,0.25 -1.42,-1.37 0.31,-1.08 -0.44,-0.19 -0.42,0.59 -0.27,2.22 1.02,0.93 0.15,0.88 -1.69,-0.6 z"
     inkscape:connector-curvature="0"
     style="fill:#cccccc;fill-opacity:1;stroke:#ffffff;stroke-width:0.5;stroke-opacity:1" />
  <path
     id="JP-05"
     class="land"
     d="m 226.19731,155.40889 -0.69,-2.75 -1.39,-1.62 0.51,-0.81 0.74,0.23 0.6,0.89 0.19,-1.14 -0.26,-0.41 0.4,-0.61 0.19,-1.4 -0.34,-1.41 -1.07,-0.44 -0.45,0.43 -0.54,0.81 -0.61,2.06 0.54,0.42 -0.08,1.26 -0.75,-0.29 -0.89,0.15 -0.19,0.25 0.17,0.85 -2.1,-0.09 -0.96,-1.84 -0.22,-1.3 0.14,-0.73 1.93,1.32 0.67,-0.21 1.48,-1.46 0.87,-1.57 0.8,-2.39 0.6,-3 0.03,-1.67 -1.72,-1.81 0.51,-0.11 1.13,0.35 0.26,-0.87 0.77,-0.35 0.54,0.32 0.21,0.49 1.48,-0.13 0.81,0.28 1.35,-0.38 0.86,0.18 0.5,-1 1.31,-0.11 0.27,0.84 h 0.8 l 1.15,1.19 1,-0.84 1.25,0.84 0.79,-0.63 0.76,-0.05 0.72,-0.62 0.71,0.1 0.24,-1.08 1.23,-0.49 -0.16,2.35 2.13,-0.23 0.28,1.84 -0.41,0.27 -0.5,1.22 0.14,1.31 -0.4,0.57 -0.61,0.22 -0.81,1.11 0.4,0.49 -0.15,1.56 -0.52,0.46 -0.05,2.68 0.62,2.5 -0.56,0.18 -0.49,-0.48 -0.82,0.45 0.07,1.06 1.12,0.66 -0.82,1.47 -0.39,0.14 0.66,1.17 0.13,1.08 -0.51,1.19 -0.27,-0.03 -0.61,0.86 -0.42,0.11 0.21,0.72 -0.43,1.34 -0.78,0.85 0.05,0.81 -0.45,0.12 -0.05,0.65 0.39,0.09 0.6,1.25 -0.15,0.92 0.53,0.75 1.12,0.77 -0.33,1.06 0.85,0.44 -0.6,0.3 -0.47,0.83 0.27,0.22 -0.28,0.97 0.97,0.38 0.14,0.4 -0.79,1.37 0.08,1.15 -0.71,0.17 -1.64,1.57 -1.76,0.36 -0.27,-0.18 -0.24,-0.45 -1.52,-0.53 -0.58,-1.8 -1.06,-0.08 -0.35,-0.77 -1.08,0.27 -3.08,-0.94 -0.79,-0.7 -0.71,-0.18 -0.2,-1.17 -0.98,0.24 -0.37,0.46 -2.51,-0.41 0.68,-1.47 -0.23,-0.93 0.39,-0.78 -0.04,-0.53 0.39,-0.61 0.7,-0.11 0.94,-2.39 0.8,-4.19 z"
     inkscape:connector-curvature="0"
     style="fill:#cccccc;fill-opacity:1;stroke:#ffffff;stroke-width:0.5;stroke-opacity:1" />
  <path
     id="JP-02"
     class="land"
     d="m 247.32731,125.64889 0.92,-0.83 0.58,-1.05 0.57,-1.85 0.23,-2.45 0.59,-1.14 -0.72,-2.06 -0.86,-1.04 -0.79,-0.08 -0.85,1.61 -1.13,0.81 -1.52,-0.42 -0.67,0.65 -1.81,0.34 -0.85,0.87 -0.93,-0.47 0.69,-4.59 0.42,-0.66 0.31,-1.84 1.43,-2.03 -0.22,-0.82 0.3,-0.55 1.72,1.57 1.32,0.11 0.89,0.5 1.57,1.97 1.46,0.85 0.89,0.11 1,-0.37 2.04,-1.67 -1.49,6.85 -0.1,5.09 0.55,5.55 1.37,4.86 1.18,1.09 0.67,-0.39 0.23,0.55 1.91,1.89 -0.47,0.54 -1.39,0.62 -0.11,0.83 -0.89,0.69 -1.24,-0.77 -0.68,0.09 -1.72,1.1 -0.68,-1.08 -1.96,1.49 -1.52,0.38 -0.74,0.5 -0.04,0.72 -0.46,0.02 -1,0.78 -0.94,-0.01 -0.46,-0.68 -0.14,-1.31 0.5,-1.22 0.41,-0.27 -0.28,-1.84 -2.13,0.23 0.16,-2.35 -1.23,0.49 -0.24,1.08 -0.71,-0.1 -0.72,0.62 -0.76,0.05 -0.79,0.63 -1.25,-0.84 -1,0.84 -1.15,-1.19 h -0.8 l -0.27,-0.84 -1.31,0.11 -0.5,1 -0.86,-0.18 -1.35,0.38 -0.81,-0.28 -1.48,0.13 -0.21,-0.49 -0.54,-0.32 -0.77,0.35 -0.26,0.87 -1.13,-0.35 -0.51,0.11 0.26,-1.78 -0.19,-1.44 -0.45,-0.86 -0.96,0.05 -0.15,-0.82 1.78,-1.42 1.02,-1.8 0.65,-0.44 0.61,-0.25 1.23,0.69 1.43,-1.07 0.81,-0.1 0.42,-0.61 1.02,-3.61 0.07,-3.8 -0.69,-0.75 -0.7,-0.08 0.17,-0.39 0.88,0.23 0.38,-0.43 0.4,-2.95 1.09,0.69 0.67,0.99 0.64,0.36 0.67,-0.19 1,-1.01 1.09,0.38 0.65,0.72 -0.11,2.27 0.39,2.52 0.73,3.28 0.93,1.19 1.33,-0.11 1.19,-1.28 0.22,-0.56 -0.22,-1.24 0.33,-1.45 1.49,0.54 0.68,0.96 -0.18,0.55 0.73,-0.01 0.92,0.45 0.53,0.88 z"
     inkscape:connector-curvature="0"
     style="fill:#cccccc;fill-opacity:1;stroke:#ffffff;stroke-width:0.5;stroke-opacity:1" />
  <path
     id="JP-12"
     class="land"
     d="m 221.85731,263.11889 0.14,-0.21 0.96,0.42 0.39,-0.47 -0.3,-0.72 0.09,-0.58 1.35,-0.38 -0.12,-0.51 0.28,-0.13 0.24,0.38 1.51,-2.16 0.57,0.45 0.23,-0.35 -0.54,-1.29 -0.76,-0.83 -1.21,-1.19 -0.69,0.29 -0.35,-0.76 -1.08,-2.26 0.34,-0.26 0.22,-1.33 -1.68,-3.22 -0.05,-1.04 -0.71,-1.41 0.42,0.03 0.33,0.84 1.63,2.01 0.72,0.24 0.2,0.71 1.04,0.7 2.46,0.86 0.58,0.72 1.02,-0.41 0.86,0.11 0.59,-0.4 0.8,0.23 0.86,-0.82 2.01,-0.52 1.08,0.52 0.91,-0.04 1.13,0.97 1.23,0.26 1.11,1.53 2.5,1.54 -0.11,0.65 -0.76,-0.51 -1.5,0.5 -0.8,-0.22 -0.75,0.19 -2.72,2.07 -1.39,1.57 -1.12,2.16 -0.29,2.32 0.47,1.23 -0.61,2.85 -0.67,0.14 -0.47,1.02 -0.28,0.1 -2.15,0.62 -0.23,-0.44 -1.28,0.19 -0.81,1.1 -1.97,1.36 -0.51,1.21 0.1,0.58 -0.45,0.61 -1.04,0.43 -1.17,-0.21 -0.19,-0.72 -1.31,-0.67 0.03,-0.29 0.8,0.11 1.25,-0.56 -0.78,-1.66 0.46,-0.5 -0.36,-0.36 0.29,-0.7 -0.41,-0.57 0.01,-0.83 0.92,-0.71 0.08,-0.52 -0.44,-0.75 0.06,-0.39 -0.75,-0.46 z"
     inkscape:connector-curvature="0"
     style="fill:#cccccc;fill-opacity:1;stroke:#ffffff;stroke-width:0.5;stroke-opacity:1" />
  <path
     id="JP-38"
     class="land"
     d="m 76.777307,312.76889 0.23,-0.43 0.35,-0.26 0.35,0.04 0.02,-0.2 -0.29,-0.13 -0.38,-0.16 -0.47,0.16 -0.28,0.23 -0.44,-0.25 -0.2,0.38 -0.4,-0.13 -0.14,-0.23 h -0.46 l 0.13,-0.45 0.17,-0.13 0.14,-0.1 0.31,-0.12 -0.03,-0.17 -0.04,-0.25 -0.3,0.03 -0.22,-0.37 0.35,-0.29 -0.07,-0.36 -0.27,-0.07 0.35,-0.32 0.16,-0.04 0.22,-0.27 0.09,-0.46 -0.23,0.13 -0.4,-0.05 0.17,-0.41 -0.51,0.1 -0.33,-0.36 -0.23,0.06 -0.35,0.29 -0.86,0.6 -0.52,0.14 -0.33,0.37 -1.1,0.33 -0.57,0.53 -0.16,0.31 -0.31,0.28 -0.51,0.06 -0.03,-0.24 0.35,-0.22 0.01,-0.17 -0.51,0.02 -0.85,0.71 -0.51,0.31 -0.25,0.01 2.15,-1.81 0.51,-0.3 0.66,-0.36 0.57,0.08 0.31,-0.33 0.31,-0.14 0.46,-0.04 0.24,-0.14 0.1,-0.18 1.16,-0.52 0.86,-0.64 0.75,-0.4 0.21,-0.5 0.83,-0.99 0.63,-0.46 1.55,-0.56 1.22,-0.91 0.21,-0.24 0.37,-0.98 0.45,-0.4 -0.23,-0.72 -0.01,-0.99 0.2,-1.04 0.24,-0.66 0.43,0.17 0.43,-0.29 0.34,-1.22 0.07,-0.62 1.77,-1.67 1.11,-0.17 -0.06,-0.45 0.26,-0.17 -0.15,-0.56 0.36,-0.6 0.75,0.87 0.98,1.41 0.72,1.48 0.38,0.6 0.13,0.43 0.5,0.36 0.95,-0.32 1.38,-0.34 0.37,-0.1 -0.12,-0.46 1.2,-0.2 0.24,-0.26 0.38,0.05 0.37,0.33 0.7,-0.3 0.68,0.1 0.48,0.1 0.73,0.33 0.5,-0.07 0.69,-0.5 0.2,-0.34 0.14,-0.44 0.16,-0.08 0.4,-0.27 0.33,0.27 0.950003,0.13 0.61,0.34 -0.29,0.68 0.27,0.49 v 1.04 l -0.22,0.61 -0.34,0.29 -0.410003,0.01 -0.65,-0.01 -0.47,0.33 -0.51,-0.34 -0.21,0.04 -0.56,0.77 -0.21,0.27 -0.2,0.16 -2.07,0.07 -0.8,-0.13 -1.47,0.02 -0.2,0.17 -0.22,0.73 -0.18,0.11 -0.52,0.19 -0.34,-0.34 -0.2,0.02 -0.26,0.69 -0.39,0.79 -0.4,0.4 -0.35,0.5 -0.06,0.55 -0.22,0.28 -0.61,0.1 -0.18,0.65 -0.25,0.73 -0.19,0.46 0.29,0.29 0.04,0.52 -0.36,0.27 -0.57,0.88 -0.01,0.27 -1.2,0.34 -0.21,-0.13 -0.66,0.08 -1.3,-0.21 -0.41,0.11 -0.32,0.3 0.35,0.32 0.15,0.94 0.15,0.2 h 0.2 l 0.23,0.72 0.45,0.14 0.27,0.36 0.04,0.57 -0.08,0.22 -0.8,0.46 -1.21,0.42 -0.31,0.52 -0.18,1.14 -0.43,0.03 -0.17,0.15 -0.14,0.47 -0.71,0.9 -0.19,0.07 -0.95,-0.92 -0.11,-0.27 -0.2,0.07 -0.14,0.29 0.29,0.62 -0.03,0.26 0.47,0.51 0.21,0.05 0.09,0.3 -0.2,0.92 0.3,0.31 0.21,0.94 -0.01,1.33 -0.41,0.1 -0.05,0.38 -0.32,-0.12 -0.94,0.35 -0.14,-0.27 -0.25,-0.34 -0.09,-0.18 -0.46,0.16 -0.19,0.09 -0.26,0.06 -0.02,0.29 0.02,0.13 -0.19,0.26 -0.35,-0.03 -0.27,0.01 -0.25,-0.04 0.08,-0.37 -0.32,-0.38 0.1,-0.12 0.36,-0.04 0.35,-0.26 -0.63,-0.34 0.28,-0.23 0.24,0.14 0.15,0.04 0.14,-0.1 -0.21,-0.39 0.1,-0.26 -0.3,-0.14 -0.12,-0.04 -0.01,-0.83 -0.28,-0.04 -0.35,0.33 -0.42,-0.24 -0.38,0.17 -0.13,0.08 -0.09,0.21 -0.05,0.29 -0.36,-0.18 0.33,-0.4 0.02,-0.38 0.15,-0.35 0.22,-0.05 0.2,0.11 0.14,0.34 0.33,-0.06 0.57,-0.22 0.13,-0.27 -0.3,-0.12 0.21,-0.39 0.38,-0.6 -0.02,-0.33 -0.39,-0.09 -0.15,0.01 -0.22,0.08 -0.15,0.13 -0.22,-0.14 0.05,-0.25 -0.36,-0.17 0.15,-0.33 0.29,-0.35 -0.52,-0.56 0.51,0.2 0.69,0.34 0.29,0.33 0.35,0.02 -0.08,-0.37 -0.2,-0.41 0.31,-0.27 0.56,0.04 0.23,-0.03 0.09,-0.16 -0.14,-0.34 -0.28,0.04 -0.38,-0.34 0.39,-0.21 0.04,-0.31 -0.8,0.05 z"
     inkscape:connector-curvature="0"
     style="fill:#cccccc;fill-opacity:1;stroke:#ffffff;stroke-width:0.5;stroke-opacity:1" />
  <path
     id="JP-18"
     class="land"
     d="m 140.96731,258.18889 1.16,0.72 0.07,0.38 0.31,-0.04 0.42,-0.26 -0.65,-0.81 0.2,-0.13 0.54,0.36 0.37,-0.65 -0.58,-0.45 -0.25,-0.84 0.59,0.15 0.43,0.69 0.76,-0.4 0.15,0.35 1.22,-0.36 0.23,-0.43 -0.25,-0.32 0.06,-0.95 -0.43,-0.68 1.24,-0.99 0.39,0.6 -0.23,1.43 0.36,0.54 0.6,-0.11 0.48,-1.52 0.02,-1.28 -0.57,-1.13 -1.52,-1.52 0.08,-1.1 -0.79,-1.19 1.06,-1.27 0.35,-1.49 2.1,-3.09 -0.24,-0.66 h 0.85 l 1.53,-1.09 1.68,1.59 0.25,1.25 0.41,0.38 0.9,-0.13 0.65,0.76 0.47,0.05 1.75,-0.42 1.86,1.46 0.24,0.62 1.89,-0.48 0.21,0.49 -0.49,0.37 -0.25,1.39 0.5,0.37 -0.05,0.53 0.79,0.28 -0.13,0.49 0.64,0.53 0.3,1.22 -0.63,0.46 -0.17,0.78 -1.34,-0.02 -1.13,0.49 -0.42,-0.52 -0.46,0.45 -0.52,-0.17 -0.49,0.44 -0.82,-0.21 -0.56,0.77 -0.3,-0.51 -1.06,0.02 -1.17,-0.42 -0.9,0.48 -0.01,0.97 -0.99,1.64 -1.81,-0.94 -0.67,0.13 -0.31,0.67 0.83,1.76 -0.13,0.75 -1.1,-0.32 -0.35,1.07 -1.29,0.13 -0.45,0.87 -0.46,0.1 -0.77,-0.77 -1.04,2.77 -0.57,0.28 -0.35,-0.4 -0.66,-0.01 -0.05,0.5 -0.37,0.1 -0.45,0.74 -1.37,0.26 -1.51,-0.59 -1.73,-0.19 -0.13,-0.87 -1.31,-1.21 0.29,-1 -0.52,-0.42 0.41,-0.9 0.88,0.17 -0.21,1.09 0.18,0.25 2.58,0.39 1.78,-0.38 0.27,-0.88 -0.65,0.27 -0.03,-0.5 -0.57,-0.11 0.52,-0.59 z"
     inkscape:connector-curvature="0"
     style="fill:#cccccc;fill-opacity:1;stroke:#ffffff;stroke-width:0.5;stroke-opacity:1" />
  <path
     id="JP-40"
     class="land"
     d="m 35.847307,303.07889 1.24,-1.35 0.14,-0.6 -0.12,-0.36 -0.33,0.01 -0.06,-0.68 0.56,-0.05 0.25,-0.81 0.85,-0.52 -0.08,-0.39 0.78,-0.03 0.25,0.3 1.04,-0.11 0.68,-0.4 0.71,-0.94 1.1,0.45 0.45,-0.34 1.79,0.39 0.43,0.58 0.74,-0.28 0.32,-0.77 1.16,-0.76 0.4,0.31 -0.72,1.35 0.17,0.96 -0.79,0.7 0.22,0.46 0.66,-0.13 0.55,2.53 1.4,2.1 0.56,-0.28 1.08,0.76 -0.15,0.37 0.3,0.8 -0.39,0.52 0.13,0.46 -1.91,0.11 -0.97,-0.27 -0.93,0.23 -1.61,1.38 -0.3,1.65 -0.49,0.13 -0.47,0.69 0.3,0.16 0.29,0.95 -0.14,0.64 -0.52,0.26 -0.12,0.38 0.36,0.19 -0.03,0.62 0.84,0.73 -0.48,1.38 -0.35,0.25 -1.53,-0.52 -0.67,-0.61 -0.81,0.04 -0.16,-0.4 -0.53,1.44 -1.5,-0.17 -1.62,1.49 0.18,1.07 -2.14,-0.08 0.48,-1.1 -0.32,-0.8 -0.74,-0.78 0.03,-0.41 -0.37,-0.19 0.17,-1.23 0.59,-1.04 1.85,-1.42 0.51,-0.86 0.51,0.03 0.02,-2.25 -0.41,-0.21 -0.74,0.25 -0.99,0.95 -0.62,-0.71 -0.77,-0.17 -1.7,-1.07 -0.48,0.22 -0.86,-0.24 -0.69,0.32 -2.63,-0.08 0.15,-0.68 1.61,-0.32 0.54,-0.64 0.19,-0.55 -0.42,0.3 -0.15,-0.45 -0.27,-0.16 -0.45,0.24 -0.22,-0.4 1.19,-0.35 0.29,-0.38 -0.12,-0.38 0.85,-0.3 0.15,-0.61 0.59,0.4 -0.25,0.37 0.18,0.42 0.82,0.14 0.11,0.7 0.48,-0.08 0.16,-0.34 0.66,0.07 1.04,-0.49 0.12,-0.84 0.57,-0.23 -0.08,-0.6 z"
     inkscape:connector-curvature="0"
     style="fill:#cccccc;fill-opacity:1;stroke:#ffffff;stroke-width:0.5;stroke-opacity:1" />
  <path
     id="JP-07"
     class="land"
     d="m 244.11731,223.74889 -0.62,0.81 -2.49,1.19 -0.39,0.66 0.04,0.48 -3.43,-1.04 -0.57,-1.03 -0.34,0.46 0.46,1.3 -1.12,0.49 -1.46,1.4 -0.43,-0.57 -1.14,-0.42 -0.33,-1.16 -0.82,-0.25 -0.76,-1.02 -0.55,-0.03 -0.33,-0.33 0.16,-1.86 -0.85,0.05 -0.23,-0.94 -1.02,-0.98 -2.39,-1 -2.41,-0.28 -1.36,0.59 -0.18,0.91 -2.79,0.87 -0.26,0.42 -0.79,0.19 -0.23,0.44 -0.63,0.09 -0.92,0.74 -1.36,0.24 -0.71,1.02 -0.94,0.43 -2.3,-0.72 -0.52,0.2 -0.01,-0.37 0.24,-0.42 -0.11,-1.34 0.22,-0.78 -0.42,-1.39 0.35,-1.28 -0.47,-0.93 -0.68,-0.16 -0.59,-0.8 0.97,-1.4 0.2,-1.16 0.14,-1.19 -0.67,-0.56 0.57,-0.92 2.15,-0.24 0.55,-0.29 0.68,0.24 0.32,-1.19 0.41,-0.16 0.47,-0.04 0.39,0.32 0.37,-0.24 1.26,0.22 0.48,-0.23 -0.38,-0.82 0.09,-0.81 -0.42,-1.03 0.03,-0.73 1.53,-1.04 -0.13,-0.24 0.71,-1.3 1.58,-1.71 0.79,-0.18 0.63,0.68 0.94,-0.58 0.61,0.39 0.63,-0.07 0.33,-0.35 0.97,1.68 1.23,-0.46 1.47,1.12 0.74,-0.56 1.3,0.26 1.33,-1.61 -0.55,-0.41 -0.04,-2.01 0.3,-1.71 1.39,0.66 1.13,-0.57 1.14,0.69 0.37,1.09 2.65,-0.27 0.82,0.28 0.56,0.46 -0.18,1.14 0.28,0.75 0.63,0.5 1.21,0.27 0.15,-0.16 -0.47,-0.39 1.58,0.06 0.13,-0.22 -0.03,-2.17 0.72,-0.27 0.69,0.18 0.38,1.28 0.71,0.43 0.05,1.28 0.44,0.75 0.55,6.03 v 3.31 z m -3.43,3.16 0.03,0.01 z"
     inkscape:connector-curvature="0"
     style="fill:#cccccc;fill-opacity:1;stroke:#ffffff;stroke-width:0.5;stroke-opacity:1" />
  <path
     id="JP-21"
     class="land"
     d="m 154.43731,266.75889 -0.72,-0.69 0.32,-0.21 0.02,-0.93 0.32,-0.52 0.04,-1.34 0.55,-0.44 -0.53,-0.85 0.09,-1 -0.63,-0.64 0.24,-0.89 -0.55,-0.71 -0.31,0.5 -0.78,-0.29 0.12,-1.6 -0.66,-0.07 -0.26,-1.07 0.98,-1.64 0.01,-0.97 0.9,-0.48 1.17,0.42 1.06,-0.01 0.3,0.51 0.56,-0.77 0.82,0.22 0.48,-0.44 0.52,0.17 0.46,-0.44 0.41,0.52 1.13,-0.49 1.35,0.02 0.17,-0.78 0.62,-0.46 -0.3,-1.22 -0.64,-0.52 0.12,-0.49 -0.79,-0.28 0.05,-0.53 -0.49,-0.37 0.24,-1.39 0.5,-0.37 -0.21,-0.49 0.5,-1.09 -0.23,-0.74 0.61,-0.23 0.94,-1.67 -0.04,-0.39 -0.76,-0.43 -0.25,-0.58 0.58,-0.08 0.29,-1.06 0.77,-0.56 0.25,0.59 0.35,-0.36 0.92,0.51 0.34,0.77 -0.26,0.73 0.34,0.08 1.39,-1.22 0.25,-1.15 2.08,-2.02 0.55,-0.02 0.25,0.44 1.46,-0.69 0.59,0.05 0.04,0.88 0.21,0.04 1.35,-0.8 0.28,0.78 1.13,0.35 0.71,-0.34 0.84,0.82 0.94,0.07 0.13,0.51 1.03,0.66 0.09,0.53 -0.09,0.78 -1.39,1.81 0.38,0.55 -0.05,0.52 -0.75,0.71 -0.01,0.81 0.46,0.5 0.72,0.25 -0.39,1.57 -1,0.76 -0.37,0.92 -0.44,0.1 -0.52,1.06 -0.42,0.07 -0.33,-0.33 -1.15,0.35 -0.35,1.06 -0.59,0.25 -0.11,0.54 0.29,0.39 1.04,0.01 0.05,0.51 1.23,0.37 0.8,1.79 0.78,0.7 -0.43,1.28 0.39,0.45 -0.07,1.1 0.31,0.55 1.07,-0.32 0.57,0.54 v 0.91 l -0.65,0.7 0.71,0.98 -0.87,0.29 0.26,1.27 -0.84,0.65 0.01,0.53 -0.8,0.08 -1.72,1.4 -0.99,-0.49 0.02,-0.32 -0.84,-0.04 0.07,-0.24 -0.75,-0.48 -0.63,0.02 -0.92,0.73 -0.85,0.17 -0.52,-0.71 -0.94,-0.39 -0.3,0.21 -0.32,-0.15 -0.27,-0.32 0.09,-0.49 -0.49,-0.2 0.03,-0.65 -1.18,-0.87 0.02,-0.56 -1.49,1.12 -1.66,0.5 -1.27,-0.15 -1.69,2.98 -0.22,2.19 -1.08,-0.12 -1.69,-2.5 z"
     inkscape:connector-curvature="0"
     style="fill:#cccccc;fill-opacity:1;stroke:#ffffff;stroke-width:0.5;stroke-opacity:1" />
  <path
     id="JP-10"
     class="land"
     d="m 218.37731,242.52889 -0.31,0.58 -0.49,0.18 -0.52,-0.48 -2.54,0.48 -1.81,-1.34 -0.86,0.21 -0.97,-0.29 -0.6,0.15 -1.69,-0.86 -0.7,-0.05 -1.23,1.97 -0.02,0.93 -0.42,0.76 -1.53,0.07 -0.46,0.78 -1.52,0.4 -0.92,1.01 -1.23,0.02 -0.75,1.01 -0.36,0.09 -0.36,-0.52 -0.61,-0.19 -0.38,-1.77 0.33,-0.35 -0.28,-0.67 -0.65,-0.08 -0.44,-0.76 0.16,-0.17 0.46,0.33 0.45,-0.48 0.03,-0.81 -0.42,-0.44 -0.23,-1.11 1.03,-0.68 0.07,-1.48 -0.29,-1.15 -0.83,-0.25 -0.7,0.1 -0.44,0.4 -0.88,-0.25 -0.21,0.31 -0.43,-0.07 -1.25,-0.74 -0.06,-1.3 0.6,-1.66 -0.02,-0.99 0.96,-1.18 0.96,-0.16 0.01,-1.09 1.79,-0.36 1.55,-0.83 0.25,0.17 0.36,-0.63 1.2,0.44 0.79,-0.67 -0.1,-1 0.64,0.03 1.49,-0.62 -0.25,-0.44 0.29,-0.95 0.85,0.11 0.09,-0.26 -0.27,-1.93 1.64,-0.28 0.82,-0.73 0.12,-0.95 1.54,1.55 0.11,0.76 0.92,0.07 0.23,0.34 0.01,0.37 0.52,-0.2 2.3,0.71 -0.58,1.54 1.02,0.44 -1.02,1.41 0.28,1.17 -0.59,0.89 -0.18,1.37 1.47,0.74 1.23,-0.07 0.34,0.68 -0.82,0.65 -0.4,1.2 0.33,0.76 -1.19,1.55 -0.18,0.96 1.05,0.78 -0.04,0.58 1.11,0.97 1.01,-0.29 0.71,0.43 1.11,-0.18 0.38,0.24 -0.09,0.28 z"
     inkscape:connector-curvature="0"
     style="fill:#cccccc;fill-opacity:1;stroke:#ffffff;stroke-width:0.5;stroke-opacity:1" />
  <path
     id="JP-28"
     class="land"
     d="m 115.92731,277.54889 -1.09,0.9 -1.21,-0.22 -0.54,-1.37 -1.08,-0.96 -0.18,-0.47 0.7,-1.31 -0.68,-0.85 0.35,-0.32 0.15,-0.91 -0.2,-0.59 0.92,-0.54 0.06,-0.93 0.59,-0.25 0.24,-1.1 0.24,-0.26 0.67,0.07 0.08,-0.78 -0.63,-0.66 0.44,-0.8 0.58,0.26 1.64,-1.15 -0.26,-1.16 0.15,-0.43 -0.73,-0.96 0.09,-1.08 -0.73,-0.34 -0.49,-1.88 0.12,-1.02 -0.38,-0.77 -0.69,-0.52 2.13,-0.66 1.22,-0.74 1.2,0.31 0.42,0.47 0.82,-0.67 1.38,0.2 1.28,-0.29 0.45,0.33 0.98,-0.06 0.02,2.02 0.86,0.8 0.21,0.61 0.72,0.18 1.33,-0.66 0.32,0.54 v 2.63 l -0.91,0.52 -1.14,-0.55 -0.37,1 0.02,1.27 1.49,0.61 1.32,1.13 0.76,-0.46 1.02,0.02 0.02,0.78 0.86,0.82 -0.25,0.55 0.55,0.24 0.43,-0.36 0.81,0.04 0.22,0.06 0.04,0.73 0.85,-0.18 0.97,0.49 0.29,1.26 -0.38,0.21 -0.17,0.54 -0.43,-0.05 -0.29,0.31 0.4,0.24 0.08,0.97 -0.24,0.36 1.4,0.81 0.96,0.14 -0.91,0.51 0.43,0.25 -0.47,2.04 0.74,1.24 0.15,1.43 -0.54,1.21 -0.44,-0.33 0.14,-0.47 -0.25,-0.52 -0.92,0.32 -0.42,-0.6 -0.97,-0.13 -1.98,0.94 -0.1,0.68 -2.58,0.64 -4.27,-1.72 -1.67,-1.65 z m 9.4,11.08 0.22,0.77 -2.06,0.84 -0.98,0.82 -1.34,0.19 -0.01,-0.45 -0.59,-0.31 0.06,-0.5 -0.43,-0.16 -0.54,-1.01 0.67,-0.96 0.38,0.24 0.47,-0.24 1.33,-2.82 0.4,-0.46 0.41,0.01 0.95,-1.5 0.95,-0.43 0.77,-1.12 0.55,-0.29 0.44,0.83 -0.6,0.72 -0.15,0.77 -1.78,2.33 -0.01,1.54 z"
     inkscape:connector-curvature="0"
     style="fill:#cccccc;fill-opacity:1;stroke:#ffffff;stroke-width:0.5;stroke-opacity:1" />
  <path
     id="JP-01"
     class="land"
     d="m 232.71731,71.568887 2.71,-2.13 0.04,-0.59 -1.96,-3.17 -1.38,-0.99 -0.7,-1.16 0.68,-2.54 -0.27,-0.48 1.64,0.11 0.6,-0.42 0.21,-0.54 0.53,-0.21 2.75,2.66 1.93,0.87 1.13,1.28 2.48,-0.47 0.17,-0.42 1.02,-0.32 0.72,0.02 -0.14,1.17 3.04,1.39 2.2,-1.22 1.97,-2.15 0.99,-1.6 0.1,-2.35 -1.38,-2.76 0.54,-1.94 -0.66,-1.44 -0.45,-2.27 1.02,-2.1 1.47,-0.89 0.76,-0.05 2.03,-1.32 0.93,-1.89 0.41,-1.95 -0.35,-7.86 0.5,-0.32 1.64,-3.44 0.21,-2.86 0.38,-0.79 0.13,-1.6 -0.3,-3.27 -0.77,-3.84 -3.04,-7.32 -0.31,-1.1600002 0.07,-0.99 0.86,-1.27 0.79,-1.95 -0.41,-1.4 0.15,-1.28 0.75,0.77 0.13,0.52 0.39,0.16 1.76,-0.28 1.35,-0.94 0.55,-1.98999998 0.87,-0.31 0.47,0.33 0.56,1.28999998 0.59,0.34 0.63,1.47 2.32,1.7 2.21,3.12 4.95,5.5600002 3.91,7.23 2.58,2.55 2.44,3.1 5.58,4.4 1.57,0.89 0.33,0.95 1.26,0.96 3.7,1.94 3.24,1.28 5.88,1.69 2.79,0.53 0.44,-0.31 0.29,0.77 -0.06,1.28 0.87,1.55 0.58,0.48 3.21,1.01 3.41,0.21 2.57,-0.32 2.28,-1.99 1.54,-1.92 2.18,-2.04 1.83,-1.26 0.66,-1.45 1.1,-1.16 0.78,-1.38 0.46,0.03 0.45,2.23 -1.21,2.49 -0.91,0.92 -0.6,2.4 -1.73,2.13 -0.94,2.12 0.1,0.83 -0.77,2.05 0.22,1.06 1.35,2.58 1.49,1.97 1.52,5.23 1.49,1.96 -1.16,-0.53 -0.19,-0.53 -1.14,-0.22 -0.24,0.37 0.21,1.26 0.86,-0.67 0.47,0.4 -0.29,0.55 0.37,0.39 0.4,-0.28 2.55,0.62 2.09,-1.7 0.32,-0.6 1.11,-0.71 0.24,-0.5 3.28,0.2 -0.19,0.5 -1.17,0.91 -1.73,0.31 -1.87,1.03 -0.8,2.93 -0.77,-0.36 -1.24,-0.05 -2.71,0.51 -1.51,0.9 -1.26,-0.21 -0.62,0.6 -0.14,1.15 -1.6,2.15 -1.02,0.49 -1.9,-0.1 -0.9,-0.79 0.03,-0.53 0.33,-0.31 -0.55,-0.37 -0.73,0.1 -1.19,1.73 -0.02,0.41 1.15,1.13 -2.01,-0.12 -1.15,-0.35 -3.58,-0.02 -0.69,-0.15 -1.58,-1.27 -3.06,0.54 -2.43,1.18 -3.4,2.53 -5.27,5.27 -4.08,5.8 -1.53,3.31 -0.28,1.67 0.55,1.44 -0.82,3.88 -0.91,1.53 v 1.61 l -3.7,-3.72 -4.85,-2.02 -8.09,-4.45 -2.38,-1.67 -1.84,-2.05 -3.21,-0.94 -2.21,-2.05 -1.82,-1.2 -1.83,-0.53 -2.38,-0.04 -3.17,1.04 -2.08,1.29 -2.68,2.28 -1.59,0.89 -2.12,2.45 -0.34,0.75 -1.07,-0.4 -0.33,-0.55 0.38,-0.29 0.59,0.64 0.12,-0.81 -1.35,-0.41 -0.87,-2.37 -0.79,-0.4 -1.07,-1.12 -0.12,-0.58 -1.27,-1.23 -1.24,-0.09 -1.25,0.53 -0.97,-0.59 -1.21,0.03 -1.68,1.81 -1.44,2.75 -0.71,2.55 0.28,1.94 2.32,1.2 2.74,2.35 0.75,0.14 1.37,-0.53 2.04,0.31 1.23,2.21 1.63,1.22 1.08,1.88 3.15,1.36 0.55,0.890003 0.79,0.59 -0.61,0.61 -0.95,0.01 -1.1,1.3 -1.66,0.66 -0.86,-0.79 -2.78,-0.91 -0.93,0.16 -0.28,0.62 -0.41,0.1 -0.18,-0.61 0.68,-0.45 -0.2,-0.67 -0.59,-0.37 -0.86,0.08 -0.41,0.33 -0.43,1.68 -1.44,1.06 -1.29,0.1 -0.35,0.33 -0.31,3.94 -0.4,0.48 -0.94,0.03 -1.96,0.87 -0.9,1.89 -0.39,0.32 -1.02,-0.8 -1.14,0.22 -0.9,-0.71 -1.08,-2.72 -0.09,-0.86 0.41,-1.77 1.35,-3.03 v -1.05 l 0.77,0.08 0.29,-0.59 0.31,-2.700003 -0.4,-1.98 -1.9,-2.94 -0.67,-0.36 -1.3,-0.12 -0.51,-1.33 -0.85,-0.88 -1.14,-0.41 -0.39,-0.73 -0.19,-1.39 0.31,-1.12 0.94,-1.03 0.33,-0.95 0.03,-2.65 -0.49,-2.23 0.92,-1.45 1.12,-0.62 2.28,-0.06 0.61,-0.91 1.39,-0.73 0.85,-1.92 0.82,0.57 0.56,0.97 0.89,-0.23 0.09,-1.39 0.82,-0.84 z m 14.72,-61.43 -0.09,-1.2300002 1.28,-1.25 2.07,1.21 0.51,1.8100002 -1.81,1.49 -1.37,-1.07 z m -31.88,81.17 -0.29,2.22 -0.39,0.63 -0.65,0.23 -0.02,0.36 -0.61,-0.54 0.06,-1.71 -0.42,-1.11 0.74,-1.09 1.91,-0.38 0.46,-0.52 0.03,0.64 z m 30.35,-86.7800002 -0.26,2.59 -0.39,0.13 -0.88,-2.97 0.22,-1.31 -0.61,-0.34 0.09,-0.73 0.65,0.85 0.66,-0.15 -0.02,-0.59 0.34,0.27 0.35,0.78 z"
     inkscape:connector-curvature="0"
     style="fill:#cccccc;fill-opacity:1;stroke:#ffffff;stroke-width:0.5;stroke-opacity:1" />
  <path
     id="JP-34"
     class="land"
     d="m 79.887307,290.93889 -0.78,-0.7 -1.45,1.75 0.31,0.9 0.76,-0.2 0.32,0.31 -0.15,0.21 -0.7,0.53 -0.28,-0.28 -1.54,0.26 -0.18,-0.59 1.14,-0.63 -0.25,-0.46 0.14,-0.63 0.53,-0.44 0.08,-0.97 -0.71,-1.73 0.15,-0.97 -1.31,-0.65 -2.28,1.04 -0.02,0.37 -1.73,1.61 -0.21,0.51 0.27,0.15 -0.33,0.19 -1.28,-0.31 -0.5,-1.46 0.08,-0.63 -0.92,-0.78 -0.24,-1.36 0.17,-0.81 -0.3,-0.68 -0.49,-0.63 0.3,-0.64 0.6,-0.18 0.63,-0.68 0.21,-1.78 0.7,-1.03 -0.55,-0.34 0.3,-0.48 1.45,-0.86 0.31,-1.14 0.79,0.11 0.4,0.48 0.21,-0.44 1.24,-0.13 0.52,0.42 0.51,-0.43 -0.07,-0.25 0.41,-0.14 0.25,0.41 1.63,0.13 1.47,-1.06 1.76,-0.14 -0.01,-0.87 -0.69,-0.21 -0.38,-0.47 0.85,-1 1.19,-0.25 2.4,-3.33 0.4,-0.07 1.15,0.7 0.79,-0.62 0.98,0.79 1.42,-0.42 0.58,0.22 v 0.26 l 2.1,-0.32 0.42,0.5 1.01,1.22 -0.46,1.21 -0.01,1.6 1.6,2 -0.29,1.12 0.41,1.9 -0.01,1.38 1.21,1.65 0.12,1.74 -0.45,1.24 -0.88,0.09 -0.04,0.9 -0.33,0.31 -2.4,-0.51 -0.04,-0.21 0.57,-0.19 -0.04,-0.6 -0.56,-0.21 0.07,0.43 -0.66,0.3 -1.65,0.67 -0.74,-0.09 -0.23,0.98 -1.26,0.39 -1.28,-0.21 -1.15,0.26 -0.35,0.57 -0.55,0.26 -0.25,-0.56 -0.71,0.08 -0.26,0.86 -0.45,-0.15 -0.04,0.98 -1.16,0.08 z"
     inkscape:connector-curvature="0"
     style="fill:#cccccc;fill-opacity:1;stroke:#ffffff;stroke-width:0.5;stroke-opacity:1" />
  <path
     id="JP-08"
     class="land"
     d="m 236.22731,240.30889 -0.1,2.12 0.89,3.27 2.68,5.5 1.63,2.49 0.82,0.47 0.04,0.45 -2.5,-1.54 -1.11,-1.53 -1.23,-0.26 -1.13,-0.97 -0.91,0.04 -1.08,-0.52 -2.01,0.52 -0.86,0.82 -0.8,-0.23 -0.59,0.4 -0.86,-0.11 -1.02,0.41 -0.58,-0.72 -2.46,-0.86 -1.04,-0.7 -0.2,-0.71 -0.72,-0.24 -1.63,-2.01 -0.33,-0.84 -0.42,-0.03 -0.39,0.35 -0.39,-0.1 -0.87,-1.96 0.17,-0.89 0.73,-0.06 1.65,-0.87 0.55,-1.69 1.13,0.28 0.12,-0.88 1,-0.47 0.13,-0.45 1.56,-0.08 0.26,-0.13 0.05,-0.52 0.67,0.24 0.41,-0.46 0.44,-0.02 0.28,0.39 0.67,-0.21 0.21,-1.17 0.92,-1.85 -0.02,-1.81 -0.57,-1.95 0.28,-0.38 0.95,-0.21 0.1,-0.31 -0.63,-1 0.22,-1.3 -0.28,-0.99 0.09,-1.99 0.55,0.03 0.76,1.02 0.82,0.25 0.33,1.16 1.14,0.42 0.43,0.57 1.46,-1.4 1.12,-0.49 -0.46,-1.3 0.34,-0.46 0.57,1.03 3.43,1.04 0.04,0.02 0.03,0.01 0.18,0.64 -0.63,0.17 -0.49,0.95 -1.18,4 -0.7,1.17 -0.78,2.27 0.16,2.88 z"
     inkscape:connector-curvature="0"
     style="fill:#cccccc;fill-opacity:1;stroke:#ffffff;stroke-width:0.5;stroke-opacity:1" />
  <path
     id="JP-17"
     class="land"
     d="m 160.43731,221.14889 -0.06,-1.29 -0.32,-0.14 -0.36,0.34 -0.3,-0.28 0.61,-2.33 0.4,-0.35 v -1.67 l 0.35,-0.38 1.44,-1.17 1.13,-0.51 1.13,0.28 2.9,-1.48 0.42,-0.58 0.98,-0.48 1.27,-0.17 1.32,-0.71 1.03,0.13 0.47,0.66 -0.24,0.47 0.41,0.81 -0.61,0.29 -1.01,-0.04 -0.53,0.36 -0.28,1.17 0.6,1.05 -0.66,0.98 -1.79,-0.05 -0.89,0.5 -0.57,1.49 -1.16,0.86 -0.56,-0.53 -0.49,-0.08 0.17,-0.61 h -0.35 l -1.46,2.17 0.54,0.23 -0.17,0.62 -0.51,0.12 0.12,0.43 -0.26,0.39 0.56,0.09 0.56,-0.57 1.13,1.11 0.75,-0.65 0.2,-0.68 h 0.56 l 0.04,3.49 -1.24,-0.1 -0.72,0.26 -1.4,1.37 -0.6,3.49 -0.55,0.65 -0.16,0.98 0.23,0.46 -0.76,1.23 0.19,1.13 0.46,0.58 -0.75,2.96 0.45,1.88 -0.32,0.42 0.14,0.88 0.25,0.58 0.76,0.43 0.04,0.39 -0.94,1.68 -0.6,0.23 0.22,0.73 -0.5,1.09 -1.89,0.48 -0.24,-0.62 -1.86,-1.46 -1.75,0.42 -0.47,-0.05 -0.65,-0.76 -0.9,0.13 -0.41,-0.38 -0.25,-1.25 -1.68,-1.59 1.1,-1.4 0.92,-0.32 1.41,-1.36 4.47,-6.03 1.09,-1.97 1.33,-3.8 0.04,-2.3 -0.95,-1.48 z"
     inkscape:connector-curvature="0"
     style="fill:#cccccc;fill-opacity:1;stroke:#ffffff;stroke-width:0.5;stroke-opacity:1" />
  <path
     id="JP-03"
     class="land"
     d="m 262.56731,166.19889 0.42,0.16 0.05,0.45 -0.83,-0.04 0.53,0.53 0.5,-0.01 0.33,0.68 -1.03,0.43 -0.73,-0.03 0.01,0.36 0.49,0.27 0.55,-0.12 0.01,0.24 -0.66,0.53 -0.74,-0.03 -0.26,0.27 1.67,1.04 -0.86,0.3 -1.26,-0.53 0.21,0.97 1.02,0.26 -1.22,0.18 0.74,0.57 -0.27,0.28 -1.09,-0.08 -0.47,0.25 -0.42,-0.47 0.04,-0.57 -0.35,-0.17 0.06,0.61 -0.3,0.44 0.69,0.86 -0.43,0.06 0.11,0.91 -0.47,0.34 -0.72,-0.96 0.25,-0.53 -0.2,-0.19 -0.92,0.09 0.16,0.75 -1.17,-0.49 -1.44,-0.13 -0.24,0.52 0.11,1.78 -0.68,0.7 0.1,0.51 -0.5,1.94 -2.45,-1 -0.9,0.87 -0.17,0.7 -0.52,0.18 -1.77,-1.01 -0.47,-1.09 0.59,-0.55 -0.25,-0.5 -0.72,-0.2 -2.21,0.25 -0.55,-0.81 -1.44,-0.48 -1.22,-0.91 -0.95,0.14 -0.08,-1.15 0.79,-1.37 -0.14,-0.4 -0.97,-0.38 0.28,-0.97 -0.27,-0.22 0.47,-0.83 0.6,-0.3 -0.85,-0.44 0.33,-1.06 -1.12,-0.77 -0.53,-0.75 0.15,-0.92 -0.6,-1.25 -0.39,-0.09 0.05,-0.65 0.45,-0.12 -0.05,-0.81 0.78,-0.85 0.43,-1.34 -0.21,-0.72 0.42,-0.11 0.61,-0.86 0.27,0.03 0.51,-1.19 -0.13,-1.08 -0.66,-1.17 0.39,-0.14 0.82,-1.47 -1.12,-0.66 -0.07,-1.06 0.82,-0.45 0.49,0.48 0.56,-0.18 -0.62,-2.5 0.05,-2.68 0.52,-0.46 0.15,-1.56 -0.4,-0.49 0.81,-1.11 0.61,-0.22 0.4,-0.57 0.46,0.68 0.94,0.01 1,-0.78 0.46,-0.02 0.04,-0.72 0.74,-0.5 1.52,-0.38 1.96,-1.49 0.68,1.08 1.72,-1.1 0.68,-0.09 1.24,0.77 0.89,-0.69 0.11,-0.83 1.39,-0.62 0.47,-0.54 1.37,2.04 1.54,3.46 -0.98,1.08 1.39,0.6 0.46,0.64 -0.12,0.25 -0.49,0.01 -0.36,0.54 0.11,0.98 0.33,0.48 0.51,0.17 0.49,0.89 0.69,0.12 0.4,0.7 -0.32,1.6 0.72,1.21 0.23,2.98 -0.42,1.69 0.44,0.07 -0.85,2.57 h 0.25 l 1.33,-1.8 0.02,2.02 0.6,0.08 0.29,0.7 -0.15,0.36 -0.62,0.08 -0.86,1.17 -0.7,0.25 0.43,0.88 1.16,-1.13 0.31,-0.05 0.2,0.37 -0.43,1.33 -1.12,0.26 -0.89,0.6 -0.81,1.19 0.34,0.35 0.79,-0.42 0.44,0.54 -1.7,0.29 z"
     inkscape:connector-curvature="0"
     style="fill:#cccccc;fill-opacity:1;stroke:#ffffff;stroke-width:0.5;stroke-opacity:1" />
  <path
     id="JP-39"
     class="land"
     d="m 89.217307,317.65889 -0.24,1.03 -1.01,-0.35 -0.6,0.44 -0.44,1.59 0.34,1.66 -1.14,0.48 -0.02,1.1 1.03,0.63 0.33,1.48 -0.31,0.05 -1.68,-1.5 -0.77,-0.11 h -0.35 l -1.21,1.04 -0.59,-0.36 -0.28,0.2 -0.91,-1.06 -1.59,0.88 -0.09,-0.84 0.68,-1.01 -0.05,-0.36 1.16,-1.26 -0.24,-0.38 -0.83,0.07 0.05,-0.38 0.41,-0.1 0.01,-1.33 -0.51,-1.25 0.2,-0.92 -0.76,-0.86 -0.27,-0.88 0.34,-0.37 1.05,1.18 0.19,-0.07 0.85,-1.38 0.6,-0.17 0.49,-1.66 1.21,-0.42 0.89,-0.67 -0.04,-0.57 -0.71,-0.51 -1.08,-2.18 0.73,-0.41 2.17,0.26 1.2,-0.34 0.94,-1.42 -0.32,-0.8 0.62,-1.84 0.83,-0.38 0.06,-0.55 0.75,-0.9 0.65,-1.48 0.54,0.33 0.52,-0.19 0.59,-1.01 4.34,0.04 0.97,-1.2 0.71,0.3 0.47,-0.33 h 1.060003 l 0.37,0.54 1.34,0.52 1.81,-0.17 0.65,0.9 0.79,0.32 0.61,-0.2 0.42,-0.81 0.39,-0.13 0.25,0.46 0.7,-0.17 0.51,1.26 0.1,2 1.97,0.05 0.23,0.8 -0.47,0.54 0.1,0.47 0.78,1.19 2.11,0.22 -1.88,3.58 -0.65,3.57 -0.74,-1.21 h -0.61 l -0.12,-0.73 -0.98,-1 -0.43,-1.03 -1.41,-0.68 -0.51,-1.08 -3.23,-0.6 -0.45,-0.55 -3.150003,0.5 -0.25,0.47 -2.33,1.17 0.02,0.64 -2.19,0.41 -0.55,1.07 -0.25,-0.58 -0.92,0.3 0.08,0.62 -0.27,0.28 0.21,0.44 -0.34,0.8 0.34,-0.09 0.07,0.53 -0.33,0.19 0.19,0.56 -0.9,0.94 0.25,0.73 -0.24,0.15 -0.07,-0.4 -0.44,0.03 z"
     inkscape:connector-curvature="0"
     style="fill:#cccccc;fill-opacity:1;stroke:#ffffff;stroke-width:0.5;stroke-opacity:1" />
  <path
     id="JP-37"
     class="land"
     d="m 102.38731,288.81889 2.14,-1.22 0.18,-0.96 2.08,0.7 1.61,0.07 1.07,-1.2 0.53,0.38 -0.19,0.96 0.18,0.37 0.36,0.06 0.13,-0.4 0.45,-0.09 1.11,0.23 -0.01,0.41 -0.39,0.31 0.19,0.48 1.13,0.26 0.82,0.63 0.39,-0.06 1.37,1.05 -0.16,0.96 -0.42,0.22 -1.09,-0.58 -0.28,0.3 -1.63,-0.26 -1.7,0.18 -0.74,0.58 0.06,0.42 -0.32,0.34 -1.24,0.14 -1.17,0.91 h -0.47 l -0.86,-0.97 -1.38,0.25 -0.76,0.29 -0.28,0.5 -0.58,-0.19 -1,0.84 -0.14,0.51 -0.62,0.22 -1.880003,-0.74 0.69,-0.5 0.33,-3.08 -1.51,-1.21 0.07,-0.33 0.31,-0.09 1.590003,0.8 0.55,-0.17 z"
     inkscape:connector-curvature="0"
     style="fill:#cccccc;fill-opacity:1;stroke:#ffffff;stroke-width:0.5;stroke-opacity:1" />
  <path
     id="JP-43"
     class="land"
     d="m 42.337307,340.21889 -1.25,-0.65 -0.26,-0.49 -0.57,-0.13 -0.4,-0.71 -0.54,0.76 -0.91,0.41 -0.84,-0.01 -0.6,0.55 -1.04,-0.16 -0.32,-0.62 -0.54,-0.26 0.18,-1.08 1.04,-1.13 1.25,-2.63 1.66,-1.67 -0.12,-0.96 -0.38,-0.03 -0.07,-0.45 0.67,0.03 0.13,-0.22 -0.9,-0.55 2.44,-2.42 -0.23,-0.2 -1.11,0.46 -2.62,0.1 0.01,-0.38 2.72,-1.83 -0.02,-1.52 0.23,-0.35 -0.85,-1.16 -0.77,-0.18 -0.13,-0.75 -1.46,-0.68 -0.32,-1.75 -0.57,-0.48 2.14,0.08 -0.18,-1.07 1.62,-1.49 1.5,0.17 0.53,-1.44 0.16,0.4 0.81,-0.04 0.67,0.61 1.53,0.52 -0.01,0.29 0.87,0.17 0.6,0.79 0.63,0.05 0.4,0.63 0.38,0.01 0.49,-0.63 0.18,-0.85 -0.83,-1.21 0.13,-0.74 1.02,-0.56 1.41,0.26 1.04,1.09 0.19,1.17 0.86,0.78 0.59,1.62 0.21,2.27 1.4,1.27 -1.26,0.16 -0.56,1 -0.03,0.9 -0.97,0.64 -0.2,0.93 h -0.59 l -0.36,0.54 -0.25,1.41 -0.46,0.34 -0.71,-0.21 -0.29,0.72 -0.4,0.17 -0.25,1.38 0.25,1.13 0.42,0.68 0.44,0.09 0.19,1.15 0.76,0.68 -0.63,1.03 -0.56,0.03 -0.2,0.59 1.15,1.34 0.17,0.91 -0.88,0.11 -1.11,-0.36 -0.7,1.19 -0.4,0.13 -0.85,-0.35 -1,0.71 z m -6.02,-9.78 0.47,-0.07 -0.23,1.28 -0.54,0.76 0.28,0.09 -0.56,0.85 -0.83,0.38 -1.19,-0.52 -0.9,0.08 -0.06,-0.38 -0.51,-0.17 -0.39,0.4 0.5,0.4 0.05,0.44 -0.43,0.99 -1.86,1.35 -0.23,0.86 -1.06,0.71 0.05,0.96 -0.47,0.17 -0.66,-1.1 0.25,-0.87 -0.73,-0.21 0.65,-1.42 -0.44,-0.58 -0.02,-0.72 1.19,-2.41 0.18,-1.13 1.39,-0.65 1.41,-0.15 0.24,0.28 -0.15,0.92 0.26,1.03 1.62,-0.81 0.6,-0.72 0.87,-0.27 0.57,0.37 z m -5.17,7.12 -0.08,-0.71 0.58,-0.59 -0.22,0.96 0.66,1.7 -0.46,0.28 -0.47,1.24 -1.02,-0.82 0.08,-0.75 -0.34,-0.36 0.14,-0.87 z m 5.67,-7.95 -0.53,0.27 -0.36,-0.16 -0.22,-0.87 0.96,-0.89 0.33,0.88 -0.32,0.42 z"
     inkscape:connector-curvature="0"
     style="fill:#cccccc;fill-opacity:1;stroke:#ffffff;stroke-width:0.5;stroke-opacity:1" />
  <path
     id="JP-14"
     class="land"
     d="m 203.73731,262.33889 0.41,-1.13 1.79,-0.83 0.46,-0.65 0.71,-0.1 0.49,-0.52 0.34,-0.7 0.02,-2.61 0.6,0.13 0.46,0.55 0.61,-0.03 0.59,0.99 0.86,-0.16 2.17,0.71 1.35,1.89 0.3,-0.03 0.19,-2.02 -0.79,-0.62 0.22,-0.23 0.49,0.47 0.76,-0.91 2.68,1.27 0.33,0.67 0.48,0.23 0.01,0.38 0.64,-0.19 h 0.06 l 0.42,0.73 -1.49,0.78 -0.74,-0.06 -0.41,0.41 0.38,0.45 0.4,-0.12 0.4,0.29 -0.41,0.88 -0.35,-0.25 -0.47,0.08 -0.1,0.39 0.49,0.26 0.27,1.32 -0.34,0.7 0.96,0.78 1.07,0.23 -0.43,1.06 -0.71,0.09 -0.65,0.55 0.12,0.59 0.34,0.09 -0.04,0.43 -1.34,-0.03 0.15,-1.18 -0.33,-1.18 -0.63,-0.68 0.06,-0.63 -2.54,-0.62 -2.45,0.34 -2.12,0.66 -1.16,0.93 -0.17,2.09 -0.64,0.35 -1.52,-0.21 -0.13,-0.68 -0.7,-0.54 -0.24,-1.51 0.57,-0.63 0.27,-0.96 -0.34,-1.53 -0.15,-0.24 z"
     inkscape:connector-curvature="0"
     style="fill:#cccccc;fill-opacity:1;stroke:#ffffff;stroke-width:0.5;stroke-opacity:1" />
  <path
     id="JP-46"
     style="fill:#cccccc;fill-opacity:1;stroke:#ffffff;stroke-width:0.5;stroke-opacity:1"
     d="m 39.877297,338.24805 -0.53906,0.76172 -0.91016,0.4082 -0.83984,-0.01 -0.60156,0.55078 -1.03907,-0.16015 -0.32031,-0.61914 -0.53906,-0.26172 -0.44141,0.96094 -1.08007,0.0996 -0.67969,-0.45899 -0.51953,-0.01 -0.83985,0.42968 -0.21093,0.53907 0.7207,0.58007 -0.57031,1.08008 0.73046,1.40039 0.17969,1.08985 -1.13086,2.69921 3.0918,3.19141 0.19922,1.07031 -0.26953,2.33985 -1.13086,1.88867 -0.75977,0.54102 -1.0293,-0.50977 -0.25976,-0.48047 -0.54102,0.66016 1.54102,1.48047 -0.7207,0.54882 0.64062,0.23047 0.17969,1.48047 1.85937,-0.41015 0.85938,0.36914 2.12109,-0.0195 0.95899,0.84961 -0.0586,0.82032 0.23828,0.28906 0.76172,-0.28906 0.61914,0.49023 1.0293,-0.74023 0.52148,-1.75977 -0.89062,-0.23047 -1.07031,-0.98047 -0.79883,-2.05859 -0.26172,-1.32031 0.16016,-0.98047 0.24023,0.0293 0.70117,-1.46874 -0.15039,-0.54102 0.92969,-1.33984 0.2207,-1.18946 0.83985,-0.66992 2.66992,0.7793 0.49023,1.09961 -1.13086,2.06054 -1.06054,-0.0898 0.11132,-0.83008 -0.74023,-0.61914 -1.05078,0.19922 -0.67969,0.91016 0.86914,0.82031 1.35156,-0.0312 -0.11132,1.94141 0.66992,0.27929 0.46094,0.59961 0.93945,2.06055 -0.26953,1.92969 -0.69922,0.89062 0.25,0.7207 -0.44141,1.11914 -1.79883,1.39063 0.50977,0.39844 -0.36133,1.36133 2.74024,-2.05079 1.4414,-0.25 1.75977,-0.98047 0.78906,-1.16992 0.21094,-0.83984 1.00976,-0.0293 1.26954,-1.13086 -0.11915,-0.25 -0.79101,0.28125 -0.17969,-0.17968 0.65039,-0.71094 -0.0195,-0.42969 -1.77148,-0.60937 0.0801,-0.80079 0.70117,-1.08984 0.99023,-0.7793 1.16992,0.41993 0.11914,-0.72071 0.61914,-0.66015 -0.18945,-0.83985 0.25,-0.62109 -0.29883,-0.91992 -0.4707,-0.28907 -0.96094,0.10938 -0.70898,-0.63867 -0.5,0.58008 -0.55078,-0.97071 -0.16016,-1.57031 -0.78906,-0.18945 0.17969,-0.61133 -1.08008,-0.12891 -0.29883,-0.35937 -0.65039,-0.10157 -0.16992,-0.8789 0.19922,-0.0703 0.12109,-1.25977 -0.74024,-0.84961 -1.08007,-0.35156 -0.41993,-1.41992 -0.82031,-0.78907 -0.65039,-0.23046 0.48047,-1 -1.25,-0.6504 -0.25977,-0.48828 -0.57031,-0.13086 z m -15.17969,6.98047 -0.34961,0.4707 0.31836,0.56055 0.1504,-0.30079 0.40039,0.33008 -0.0801,0.33008 0.50976,0.26953 0.91016,-0.29883 0.0312,-0.60156 -0.12109,-0.3789 -0.84961,0.18945 -0.38086,-0.49024 z m -0.99023,2.08984 -0.42969,1.24023 -1.32031,0.49024 -0.39062,1.11914 -0.36915,0.21094 0.12891,0.56054 0.41016,0.28907 0.77148,-0.46875 0.26953,-0.31055 -0.25976,-0.32031 0.3789,-0.41016 -0.10937,-0.41016 0.59961,-0.17968 0.63086,-1.15039 0.0488,-0.49024 z m 22.95312,28.27734 c -0.0741,-0.002 -0.21147,0.0121 -0.31445,0.0176 l -0.23047,0.39844 c 0.1392,-0.047 0.28258,-0.0796 0.41992,-0.13281 0.48673,-0.1887 0.46333,-0.27464 0.125,-0.28321 z m -15.89257,1.54297 0.22461,0.31836 c 0.0911,-0.0679 0.1543,-0.10688 0.2539,-0.18359 z m 6.99609,0.51563 c -0.01,0.0131 -0.0219,0.0239 -0.0312,0.0371 l -0.006,0.0195 c 0.0129,-0.0125 0.0262,-0.0246 0.0391,-0.0371 z m -0.36719,0.2832 c -0.0235,0.0458 -0.0789,0.12372 -0.084,0.14453 0.0491,-0.0437 0.1015,-0.0884 0.15234,-0.13281 z m -0.10547,0.67188 c -0.0224,0.009 -0.0461,0.0167 -0.0684,0.0254 -0.005,0.012 -0.0104,0.0269 -0.0156,0.0391 -0.0208,0.0752 -0.0792,0.22229 -0.10938,0.3164 0.0133,-0.0122 0.0277,-0.023 0.041,-0.0351 0.0254,-0.0402 0.047,-0.0827 0.0723,-0.12305 0.0293,-0.0734 0.0513,-0.14912 0.0801,-0.22265 z m -0.15234,0.3457 c -0.0207,0.0327 -0.0418,0.065 -0.0625,0.0976 -0.008,0.0251 -0.0187,0.056 -0.0273,0.082 0.0162,-0.0127 0.0376,-0.0314 0.0527,-0.043 0.005,-0.008 0.004,-0.007 0.01,-0.0156 0.0206,-0.0509 0.042,-0.10143 0.0625,-0.15234 -0.0116,0.0105 -0.0236,0.0207 -0.0352,0.0312 z m -0.0371,0.13672 c -0.0283,0.0441 -0.0241,0.0354 -0.0527,0.0801 0.0129,-0.0125 0.0261,-0.0247 0.0391,-0.0371 0.006,-0.0157 0.0132,-0.0312 0.0195,-0.0469 -0.002,0.001 -0.004,0.003 -0.006,0.004 z m -0.0527,0.0801 c -0.007,0.006 -0.0129,0.0131 -0.0195,0.0195 -0.003,0.008 -0.005,0.0158 -0.008,0.0234 0.0153,-0.0239 0.0121,-0.0192 0.0274,-0.043 z m -0.0274,0.043 c -0.0106,0.0165 -0.009,0.0127 -0.0195,0.0293 -0.007,0.0106 0.0133,-0.0401 0.01,-0.0371 -0.009,0.009 -0.0181,0.0184 -0.0273,0.0274 -0.0298,0.0784 -0.0603,0.14581 -0.0898,0.22656 0.0223,-0.0233 0.0443,-0.0469 0.0664,-0.0703 0.0212,-0.061 0.041,-0.11799 0.0605,-0.17578 z m -0.0371,0.0195 c 0.009,-0.0243 0.0181,-0.0463 0.0273,-0.0703 -0.006,0.004 -0.0119,0.009 -0.0176,0.0137 -0.0269,0.042 -0.055,0.0831 -0.082,0.125 0.0239,-0.023 0.0484,-0.0454 0.0723,-0.0684 z m -0.0723,0.0684 c -0.0993,0.0955 -0.19936,0.18994 -0.29883,0.28516 -0.0645,0.0909 -0.20758,0.26515 -0.36914,0.45703 0.16687,-0.13356 0.19466,-0.14614 0.31641,-0.23828 0.0209,-0.0208 0.0417,-0.0416 0.0625,-0.0625 0.0969,-0.1469 0.19381,-0.29343 0.28906,-0.44141 z m -0.35156,0.50391 c -0.20868,0.20734 -0.42057,0.41124 -0.63672,0.61133 -0.0303,0.0437 -0.0616,0.087 -0.0918,0.13086 0.14075,-0.11912 0.45862,-0.37224 0.57031,-0.46875 0.0669,-0.0996 0.13114,-0.2007 0.19727,-0.30078 -0.0139,0.0104 -0.0244,0.0163 -0.0391,0.0273 z m -0.63672,0.61133 c 0.006,-0.008 0.0117,-0.0169 0.0176,-0.0254 -0.0202,0.0227 -0.0422,0.0437 -0.0625,0.0664 0.0149,-0.0138 0.03,-0.0272 0.0449,-0.041 z m -0.0449,0.041 c -0.0173,0.0159 -0.0335,0.0329 -0.0508,0.0488 -0.003,0.005 -0.005,0.0103 -0.008,0.0156 0.0195,-0.0216 0.0392,-0.0428 0.0586,-0.0645 z m -0.0508,0.0488 c 0.0343,-0.07 0.058,-0.12412 0.0898,-0.1914 -0.0261,0.0214 -0.065,0.056 -0.0918,0.0781 -0.0358,0.0758 -0.0643,0.13497 -0.0977,0.20508 0.0334,-0.0304 0.0663,-0.0612 0.0996,-0.0918 z m -0.0996,0.0918 c -0.0487,0.0444 -0.0962,0.09 -0.14453,0.13477 l 0.004,0.0176 c 0.0321,-0.0259 0.0649,-0.0529 0.0879,-0.0723 0.0106,-0.0115 0.0206,-0.0236 0.0312,-0.0352 0.007,-0.0149 0.0142,-0.0295 0.0215,-0.0449 z m 0.0977,-0.20508 c 0.0208,-0.044 0.0359,-0.0753 0.0566,-0.11914 -0.0602,0.0564 -0.11932,0.11374 -0.17969,0.16992 -0.0156,0.0327 -0.0312,0.0607 -0.0469,0.0937 0.0519,-0.0432 0.12029,-0.10359 0.16992,-0.14453 z m -0.12305,0.0508 c -0.0513,0.0477 -0.10305,0.0949 -0.15429,0.14258 l 0.008,0.0352 c 0.0223,-0.0189 0.0476,-0.0393 0.0684,-0.0566 0.0247,-0.0422 0.0512,-0.0821 0.0781,-0.1211 z m 0.17969,-0.16992 c 0.0296,-0.0277 0.0603,-0.0542 0.0898,-0.082 0.0257,-0.0562 0.0466,-0.10531 0.0684,-0.15625 -0.0272,0.0292 -0.057,0.0567 -0.084,0.0859 -0.0252,0.053 -0.0476,0.096 -0.0742,0.15234 z m 0.0742,-0.15234 c 0.0183,-0.0385 0.0299,-0.0624 0.0469,-0.0977 -0.057,0.0511 -0.11143,0.097 -0.16797,0.14844 -0.0442,0.0893 -0.0865,0.17469 -0.13086,0.26758 0.0387,-0.0557 0.0675,-0.12552 0.11133,-0.17383 0.0448,-0.0494 0.0953,-0.0954 0.14062,-0.14453 z m -0.12109,0.0508 c 0.005,-0.01 0.0107,-0.0194 0.0156,-0.0293 -0.10035,0.0919 -0.14542,0.12296 -0.25586,0.22656 -0.004,0.006 -0.0209,0.0373 -0.0254,0.0449 0.0891,-0.083 0.17276,-0.15773 0.26563,-0.24219 z m 0.20507,-0.13672 c 0.10262,-0.11004 0.20901,-0.21777 0.31446,-0.32617 -0.0939,0.0819 -0.18666,0.16775 -0.28321,0.2539 -0.009,0.0222 -0.0212,0.0488 -0.0312,0.0723 z m 0.31446,-0.32617 c 0.0495,-0.0432 0.10239,-0.0915 0.15039,-0.13282 0.008,-0.0115 0.0154,-0.0236 0.0234,-0.0351 -0.0147,0.0111 -0.0574,0.0531 -0.0742,0.0664 -0.0334,0.0338 -0.0665,0.0675 -0.0996,0.10156 z m 0.17383,-0.16797 c 0.0494,-0.0371 0.12123,-0.0981 0.14453,-0.10742 0.13311,-0.11253 0.21624,-0.175 0.32031,-0.25782 0.0101,-0.0158 0.0211,-0.031 0.0312,-0.0469 0.009,-0.0239 0.0181,-0.0467 0.0273,-0.0703 0.006,-0.0197 0.004,-0.0179 0.0117,-0.041 -0.17316,0.15965 -0.34159,0.32037 -0.50781,0.48633 -0.009,0.0126 -0.0186,0.0245 -0.0273,0.0371 z m 0.53515,-0.52344 c 0.002,-0.002 0.005,-0.004 0.008,-0.006 0.0451,-0.11352 0.0895,-0.23423 0.13477,-0.33984 0.002,-0.009 0.009,-0.0287 0.0117,-0.0371 0.032,-0.12296 -0.075,0.15523 -0.1543,0.38281 z m -0.0391,0.11133 c -0.004,0.0114 -0.009,0.0218 -0.0137,0.0332 0.005,-0.004 0.0106,-0.01 0.0156,-0.0137 8.5e-4,-0.008 0.008,-0.0272 0.0117,-0.041 -0.005,0.007 -0.009,0.0143 -0.0137,0.0215 z m -1.05274,1.0625 c -0.0203,0.0443 -0.0326,0.0764 -0.0547,0.12305 0.0535,-0.0439 0.13699,-0.11918 0.1875,-0.16016 0.0589,-0.0843 0.11683,-0.16963 0.17578,-0.25391 -0.10258,0.0974 -0.20555,0.19411 -0.3086,0.29102 z m 4.9668,-0.67969 c -0.0534,0.0136 -0.10671,0.0276 -0.16015,0.041 -0.003,0.005 -0.005,0.0107 -0.008,0.0156 0.0667,-0.0193 0.12085,-0.0342 0.17383,-0.0488 z m -4.0332,0.0371 c -0.0121,0.008 -0.0463,0.0353 -0.0606,0.0449 -0.0143,0.0399 -0.0248,0.0808 -0.0391,0.1211 0.0179,-0.0164 0.0465,-0.0418 0.0625,-0.0566 0.0141,-0.0398 0.0233,-0.0702 0.0371,-0.10938 z m -1.32031,0.83008 c -0.0244,0.0229 -0.0464,0.0439 -0.0703,0.0664 l 0.004,0.0176 c 0.0133,-0.0125 0.0198,-0.0207 0.0332,-0.0332 10e-4,-0.002 0.033,-0.0506 0.0332,-0.0508 z"
     inkscape:connector-curvature="0" />
  <path
     id="JP-26"
     class="land"
     d="m 133.85731,270.89889 0.17,-0.53 0.37,-0.21 -0.29,-1.26 -0.97,-0.49 -0.86,0.18 -0.04,-0.74 -0.22,-0.06 -0.81,-0.04 -0.42,0.36 -0.56,-0.24 0.25,-0.55 -0.86,-0.83 -0.02,-0.77 -1.02,-0.03 -0.77,0.47 -1.32,-1.14 -1.49,-0.61 -0.02,-1.26 0.37,-1 1.14,0.55 0.91,-0.52 0.01,-2.63 -0.33,-0.54 -1.33,0.66 -0.72,-0.18 -0.21,-0.61 -0.86,-0.8 -0.02,-2.02 0.26,0.3 0.97,-0.02 0.59,-0.3 0.45,-0.78 0.81,0.06 1.92,-1.35 1.89,-0.6 1.08,0.68 0.66,1.2 -1.07,1.01 -0.19,0.74 -1.09,1.32 0.06,0.6 0.3,-0.01 0.59,-0.97 0.61,0.34 0.13,0.17 -0.64,0.55 1.35,0.61 0.25,-0.33 0.14,1.38 0.48,-0.48 0.84,0.21 0.05,-0.51 -1.26,-0.79 0.85,-0.68 0.93,-0.11 0.15,-0.58 0.35,-0.01 0.01,0.57 0.41,0.25 -0.41,0.89 0.52,0.42 -0.29,1.01 1.31,1.21 0.13,0.87 1.73,0.19 1.5,0.59 1.37,-0.26 1.18,1.84 0.42,-0.01 -0.38,1.44 0.43,2.11 -0.31,1.74 -0.34,0.25 0.29,1.17 0.89,1.51 -0.24,1.07 0.71,0.47 0.73,-0.38 0.13,0.88 0.31,-0.05 0.3,0.37 0.4,-0.15 0.61,0.6 -0.26,0.26 0.15,0.41 0.45,1.2 -0.34,0.75 -0.58,-0.08 -0.49,-0.67 -0.99,-0.01 0.08,-0.36 -0.74,1.13 -0.73,0.08 -1.92,-0.52 -0.52,-1.22 0.28,-0.62 -1.02,-1.15 -0.31,-1.06 -1.24,-1.15 v -0.62 l -0.75,-0.02 -0.26,0.68 0.38,0.42 -0.79,0.26 -0.69,-0.73 -0.25,0.11 -0.07,-1.16 -2.16,-0.6 z"
     inkscape:connector-curvature="0"
     style="fill:#cccccc;fill-opacity:1;stroke:#ffffff;stroke-width:0.5;stroke-opacity:1" />
  <path
     id="JP-24"
     class="land"
     d="m 159.94731,288.86889 -0.19,0.13 0.66,-1.2 -0.57,-0.33 -0.66,1.41 -1.1,0.74 -0.37,0.05 -0.27,-0.79 -0.28,0.09 -0.23,0.84 -0.09,-0.69 -0.7,-0.01 0.28,0.94 -0.22,0.24 -2.95,0.72 -0.41,-0.11 -0.64,0.55 -0.55,1.01 0.35,0.61 0.42,-0.06 -0.35,0.69 -0.61,0.1 -0.37,-0.54 -0.41,0.11 0.18,0.32 -0.7,0.24 0.18,0.32 0.68,-0.1 0.01,0.68 0.72,0.37 -0.17,1.2 -0.66,0.09 -0.78,1.13 -0.94,0.18 -0.41,0.66 -0.61,-0.03 -1.06,1.88 -0.72,2 -1.29,-0.27 -1.7,-1.94 0.07,-1.92 1.1,-1.72 1.21,-0.39 0.83,-1.12 1.62,0.25 -0.14,-1.33 0.24,-0.27 0.12,-1.75 -0.37,-0.68 0.73,-1.36 -0.69,-1.15 0.67,-0.36 -1.16,-1.85 0.5,-0.95 2.18,-0.32 0.39,-0.94 -0.29,-0.96 -0.65,0.26 -0.46,-1.01 -0.82,0.27 -1.04,-0.51 -0.26,-0.41 0.44,-1 -0.05,-0.6 0.38,-0.52 -0.8,-1.57 -0.45,-1.21 1.34,-0.55 -0.07,-0.51 0.77,-0.63 -0.08,-0.25 -0.62,-0.05 -0.07,-0.25 0.47,-0.39 0.32,0.38 1.02,-0.02 1.34,0.66 2.33,-1.13 0.21,-0.92 0.79,-1.1 0.04,-1.38 0.73,-2.5 -0.71,-0.73 -0.08,-0.85 2.21,-0.95 1.7,2.49 1.08,0.12 0.32,1.21 0.97,1.57 -0.76,0.2 -0.92,0.69 -0.36,1.02 0.26,1.12 -1.93,2.95 -0.56,1.63 0.06,0.66 0.67,0.29 -0.38,1.33 2.1,0.61 0.28,0.68 1.28,0.47 1.08,0.81 1.18,0.03 0.22,0.65 0.56,0.13 -0.21,0.28 0.16,0.28 0.71,-0.13 0.28,0.29 0.08,0.73 -1.13,0.67 0.11,0.33 0.63,0.14 -0.63,0.71 0.29,0.47 -0.46,1.27 -0.97,0.27 -1.37,-0.47 1.08,-0.16 0.54,0.27 0.07,-0.65 -0.48,-0.12 -0.27,0.2 -1.46,-0.34 z"
     inkscape:connector-curvature="0"
     style="fill:#cccccc;fill-opacity:1;stroke:#ffffff;stroke-width:0.5;stroke-opacity:1" />
  <path
     id="JP-04"
     class="land"
     d="m 245.99731,189.88889 -0.41,0.71 0.32,0.25 0.34,-0.15 0.18,0.65 -1.26,0.75 -1.71,3.62 -0.4,3.7 0.32,1.95 -0.69,-0.18 -0.72,0.27 0.03,2.17 -0.13,0.22 -1.58,-0.06 0.47,0.39 -0.15,0.16 -1.21,-0.27 -0.63,-0.5 -0.28,-0.75 0.18,-1.14 -0.56,-0.46 -0.82,-0.28 -2.65,0.27 -0.37,-1.09 -1.14,-0.69 -1.13,0.57 -1.39,-0.66 -0.06,-1.98 1.72,-0.01 0.99,-0.55 0.19,-1.02 1.11,-1.58 -0.23,-1.23 0.16,-1.02 1.05,-1.32 -0.16,-0.6 1.09,-1.14 0.61,-1.6 -0.2,-0.7 -0.6,-0.39 -0.27,-0.91 0.38,-0.65 -0.03,-0.54 -0.61,-1.37 0.1,-0.23 0.66,0.35 0.4,-0.1 0.43,-1.15 -0.22,-0.97 0.68,-1.1 -0.83,-0.45 -0.19,-1.06 -1.06,-1.02 0.23,-0.35 0.27,0.18 1.76,-0.36 1.64,-1.57 0.71,-0.17 0.95,-0.14 1.22,0.91 1.44,0.48 0.55,0.81 2.21,-0.25 0.72,0.2 0.25,0.5 -0.59,0.55 0.47,1.09 1.77,1.01 0.52,-0.18 0.17,-0.7 0.9,-0.87 2.45,1 0.5,-1.94 -0.1,-0.51 0.68,-0.7 -0.11,-1.78 0.24,-0.52 1.44,0.13 1.17,0.49 0.85,2.85 -0.38,-0.12 -0.51,-0.82 -0.69,0.2 -0.09,1.67 -1.36,0.84 -0.15,0.56 1.02,0.68 -0.05,1.21 -0.71,-0.64 -1.01,0.94 -0.6,0.18 -0.03,0.72 1.72,0.21 -0.12,0.68 -0.72,0.64 -0.47,0.05 0.03,0.49 0.45,0.2 0.16,0.54 0.48,-0.17 0.61,0.36 -0.29,0.95 -0.47,-0.65 -0.36,0.11 v 1.65 l -0.93,-0.02 0.36,0.32 0.12,0.94 1.33,-0.16 0.03,0.29 -0.66,0.12 0.69,1.8 -0.34,0.98 -1.46,-1.06 0.26,-0.52 -0.93,-0.27 0.26,-0.45 0.57,-0.22 -0.54,-0.64 -1.13,0.38 -0.17,-0.66 -0.27,-0.11 -0.97,-0.06 -1.56,0.45 -1.25,0.84 0.12,0.92 -0.54,0.17 -0.07,-1.38 -0.92,-0.12 -0.51,0.31 z"
     inkscape:connector-curvature="0"
     style="fill:#cccccc;fill-opacity:1;stroke:#ffffff;stroke-width:0.5;stroke-opacity:1" />
  <path
     id="JP-45"
     class="land"
     d="m 57.617307,341.45889 -1,3.38 -0.15,1.45 0.83,1.17 -0.56,1.56 0.06,2.02 -0.79,0.46 -0.9,2.09 0.24,0.8 -0.55,0.34 0.19,0.96 -0.78,0.73 0.34,0.71 -0.51,0.03 -0.52,-0.46 -0.88,0.08 -0.68,-1.51 -1.05,-0.26 0.12,-0.72 0.62,-0.66 -0.19,-0.84 0.25,-0.62 -0.3,-0.92 -0.47,-0.29 -0.96,0.11 -0.71,-0.64 -0.5,0.58 -0.55,-0.97 -0.16,-1.57 -0.79,-0.19 0.18,-0.61 -1.08,-0.13 -0.3,-0.36 -0.65,-0.1 -0.17,-0.88 0.2,-0.07 0.12,-1.26 -0.74,-0.85 -1.08,-0.35 -0.42,-1.42 -0.82,-0.79 -0.65,-0.23 0.48,-1 2.57,0.05 1,-0.71 0.85,0.35 0.4,-0.13 0.7,-1.19 1.11,0.36 0.88,-0.11 -0.17,-0.91 -1.15,-1.34 0.2,-0.59 0.56,-0.03 0.63,-1.03 -0.76,-0.68 -0.19,-1.15 -0.44,-0.09 -0.42,-0.68 -0.25,-1.13 0.25,-1.38 0.4,-0.17 0.29,-0.72 0.71,0.21 0.46,-0.34 0.25,-1.41 0.36,-0.54 h 0.59 l 0.2,-0.93 0.97,-0.64 0.03,-0.9 0.56,-1 1.26,-0.16 0.48,0.58 0.38,0.01 2.02,-0.7 0.83,0.86 -0.18,0.47 0.19,0.29 0.9,0.3 0.52,-0.44 2.23,0.02 0.49,-0.58 0.15,-0.74 0.8,-0.15 1.64,0.62 -0.26,1.56 0.56,0.01 -0.23,0.52 -1.56,0.97 -0.59,1.67 -1.08,0.53 -0.4,0.87 0.23,0.63 0.73,0.53 -0.66,0.54 -0.9,0.17 0.19,0.55 0.59,0.35 -0.92,0.36 -1.17,2.78 z"
     inkscape:connector-curvature="0"
     style="fill:#cccccc;fill-opacity:1;stroke:#ffffff;stroke-width:0.5;stroke-opacity:1" />
  <path
     id="JP-15"
     class="land"
     d="m 189.79731,219.25889 1.85,-1.22 2.56,-2.64 2.31,-1.3 2.29,-3.85 0.84,-0.58 0.68,-1.18 1.38,-4.61 0.91,-1.1 4.07,-2.93 2.38,-0.63 1.71,-1.11 1.75,-1.88 1.24,-2 0.41,-1.59 0.13,-3.88 1.85,-3.75 1.81,0.96 1.48,0.32 0.24,0.29 -0.4,1.99 0.8,1.13 1.84,0.48 1.15,1.23 -0.79,1.59 -1.37,0.86 -1.58,-0.22 -0.52,0.82 0.16,1.31 -0.34,0.82 0.35,0.76 -0.69,0.51 -0.59,3.17 0.66,1.16 0.66,0.32 0.45,-0.13 0.45,0.77 -1.58,1.71 -0.71,1.3 0.13,0.24 -1.53,1.04 -0.03,0.73 0.42,1.03 -0.09,0.81 0.38,0.82 -0.48,0.23 -1.26,-0.22 -0.37,0.24 -0.39,-0.32 -0.47,0.04 -0.41,0.16 -0.32,1.19 -0.68,-0.24 -0.55,0.29 -2.15,0.24 -0.57,0.92 0.67,0.56 -0.14,1.19 -0.2,1.16 -0.97,1.4 0.59,0.8 0.68,0.16 0.47,0.93 -0.35,1.28 0.42,1.39 -0.22,0.78 0.11,1.34 -0.24,0.42 -0.23,-0.34 -0.92,-0.07 -0.11,-0.76 -1.54,-1.55 -0.12,0.96 -0.82,0.73 -1.63,0.28 0.27,1.93 -0.1,0.25 -0.84,-0.1 -0.29,0.95 0.25,0.44 -1.49,0.62 -0.65,-0.03 0.11,1 -0.79,0.67 -1.2,-0.44 -0.36,0.63 -0.25,-0.16 -0.12,-0.48 -0.38,-0.25 0.52,-0.85 -0.23,-0.46 0.14,-0.73 -0.98,-0.45 -1.03,-1.09 -0.04,-1.55 -0.42,-0.94 -0.81,-0.23 -2.56,0.81 -0.73,1.56 -1.19,0.53 -0.26,1.65 -0.25,0.04 -0.29,-0.63 -0.85,-0.06 -1.01,0.66 -1.24,0.02 -0.93,1.06 -0.95,-0.69 0.55,-1.29 -0.37,-0.56 -1.86,-0.39 -1.01,0.09 0.08,1.29 -0.78,1.31 -1.37,1.05 -0.59,-1.68 v -0.77 l -0.39,-0.6 -0.03,-1.19 -0.82,-0.25 -0.7,-0.81 5.42,-1.98 1.81,-1.33 0.86,-0.3 0.92,-1.1 1.11,0.28 z m 5,-24.77 -0.59,1.26 0.19,1.07 0.7,0.3 1.61,-0.65 0.2,0.25 -1.42,3.93 -2.75,2.23 -1.1,0.06 -1.01,0.61 -0.74,-0.15 -0.21,-0.47 1.31,-0.57 0.34,-0.84 -0.1,-0.85 1.11,-1 0.23,-0.89 -0.25,0.41 -0.52,-0.58 -0.61,-0.1 -0.56,1.05 -0.41,-0.24 0.01,-0.88 -0.23,-0.15 0.35,-0.35 0.03,-1.37 0.98,-1.25 0.7,-1.59 0.78,-0.38 0.68,-0.99 0.71,-0.18 0.46,-1.54 1.09,-0.26 -0.44,3.21 z"
     inkscape:connector-curvature="0"
     style="fill:#cccccc;fill-opacity:1;stroke:#ffffff;stroke-width:0.5;stroke-opacity:1" />
  <path
     id="JP-20"
     class="land"
     d="m 177.03731,265.08889 -0.01,-0.53 0.84,-0.65 -0.26,-1.27 0.87,-0.29 -0.71,-0.98 0.65,-0.7 v -0.91 l -0.57,-0.54 -1.07,0.32 -0.31,-0.55 0.07,-1.1 -0.39,-0.45 0.43,-1.28 -0.78,-0.7 -0.8,-1.79 -1.23,-0.37 -0.05,-0.51 -1.04,-0.01 -0.29,-0.39 0.11,-0.54 0.59,-0.25 0.35,-1.06 1.15,-0.35 0.33,0.33 0.42,-0.07 0.52,-1.06 0.44,-0.1 0.37,-0.92 1,-0.76 0.39,-1.57 -0.72,-0.25 -0.46,-0.5 0.01,-0.81 0.75,-0.71 0.05,-0.52 -0.38,-0.55 1.39,-1.81 0.09,-0.78 -0.09,-0.53 -1.03,-0.66 -0.13,-0.51 0.9,-0.86 0.42,-0.81 -0.02,-0.75 0.39,-0.53 0.61,-0.17 -0.12,-0.49 -0.21,0.04 0.11,-0.77 1.18,-0.7 0.2,-4.18 1.37,-1.05 0.78,-1.31 -0.08,-1.29 1.01,-0.09 1.86,0.39 0.37,0.56 -0.55,1.3 0.95,0.69 0.93,-1.06 1.24,-0.03 1.01,-0.65 0.85,0.06 0.29,0.62 0.24,-0.04 0.26,-1.65 1.19,-0.53 0.73,-1.57 2.57,-0.81 0.81,0.23 0.42,0.94 0.04,1.55 1.03,1.09 0.98,0.45 -0.14,0.73 0.23,0.45 -0.52,0.86 0.38,0.24 0.12,0.48 -1.55,0.83 -1.79,0.36 -0.01,1.09 -0.96,0.16 -0.96,1.18 0.02,0.99 -0.6,1.66 0.06,1.3 1.25,0.74 0.43,0.07 0.21,-0.31 0.88,0.25 0.44,-0.4 0.7,-0.1 0.83,0.25 0.29,1.15 -0.07,1.48 -1.03,0.68 0.23,1.11 0.42,0.44 -0.03,0.81 -0.45,0.48 -0.46,-0.33 -0.16,0.17 0.44,0.76 0.65,0.08 0.28,0.67 -0.33,0.35 0.38,1.77 0.61,0.19 0.36,0.52 0.36,-0.09 -0.1,0.46 0.52,1.05 -0.2,0.52 -0.4,-0.01 -0.73,0.94 -0.97,0.01 -0.54,-1.14 -1.76,-0.03 -0.22,0.41 -0.48,0.09 -0.48,-0.53 0.01,-0.67 -1.43,-0.58 -1.77,2.71 -0.72,-0.62 -0.2,0.12 -0.97,1.97 0.88,0.86 -1,1.1 0.73,1.77 -0.58,1.64 -0.36,-0.14 -0.56,0.65 0.33,0.26 -0.41,0.56 0.42,1.31 -0.74,0.26 v 0.67 l 0.53,0.67 -0.14,0.72 -1.65,0.63 -1.21,1.01 -1.28,0.64 -0.21,0.43 -0.51,0.01 -0.46,0.93 -1.07,0.11 -0.84,0.26 -0.22,-0.39 -1.55,-0.3 -0.86,0.56 -1.25,0.26 v -0.51 l -0.63,-0.81 z"
     inkscape:connector-curvature="0"
     style="fill:#cccccc;fill-opacity:1;stroke:#ffffff;stroke-width:0.5;stroke-opacity:1" />
  <path
     id="JP-29"
     class="land"
     d="m 147.14731,278.17889 0.8,1.57 -0.38,0.52 0.05,0.59 -0.43,1.01 0.26,0.41 1.03,0.5 0.82,-0.27 0.47,1.01 0.65,-0.27 0.29,0.96 -0.39,0.95 -2.18,0.32 -0.5,0.95 1.15,1.85 -0.66,0.36 0.69,1.16 -0.72,1.36 0.37,0.68 -0.13,1.75 -0.24,0.27 0.14,1.33 -1.62,-0.25 -0.82,1.11 -1.21,0.39 -1.1,1.72 -2.01,0.34 -0.66,-0.41 -0.66,-0.01 -1.15,0.68 -0.22,-0.57 -0.37,-0.13 0.71,-1.83 -0.28,-0.51 -0.58,-0.21 0.06,-0.52 -1.14,-0.96 0.12,-0.54 1.5,-1.45 0.38,-0.58 -0.01,-0.71 0.54,-0.27 0.81,0.37 0.39,-0.6 -0.21,-0.65 -0.89,-0.5 -0.2,-1.72 -0.4,-0.68 0.61,-0.37 0.19,-1.1 -0.08,-1.17 -0.53,-1.25 0.57,-0.9 -0.21,-0.45 -0.38,-0.07 0.51,-2.37 0.51,-0.44 0.16,-1.36 0.35,0.06 0.52,1.22 1.92,0.52 0.73,-0.08 0.74,-1.13 -0.08,0.36 0.99,0.01 0.49,0.67 0.58,0.08 z"
     inkscape:connector-curvature="0"
     style="fill:#cccccc;fill-opacity:1;stroke:#ffffff;stroke-width:0.5;stroke-opacity:1" />
  <path
     id="JP-42"
     class="land"
     d="m 33.067307,322.23889 0.95,-0.14 0.49,0.36 0.88,1.71 v 1.1 l -0.61,0.8 0.23,0.31 -0.21,0.49 -1.61,0.6 -0.66,0.85 -1.27,0.47 0.03,-0.68 -0.8,-0.49 0.08,-0.87 1.41,-1.12 0.06,-0.61 -0.47,-0.25 0.19,-0.42 -0.26,-0.29 -1.86,-0.03 -1.08,0.71 -1.53,-0.09 -0.19,0.99 -0.94,1.49 -0.96,0.57 -0.84,1.1 -1.31,0.48 0.24,-0.54 0.59,-0.24 1.01,-3.05 -1.29,-1.53 0.19,-0.45 -0.56,-0.09 -0.18,0.41 -0.9,-0.87 -0.6,-1.76 -0.63,-0.82 -0.07,-0.57 0.46,-0.73 0.23,-1.58 0.97,-0.27 0.56,0.72 -0.15,1.17 0.39,0.09 0.25,-0.42 1.01,0.62 0.02,1.63 -0.38,-0.01 0.15,0.72 -0.32,0.66 0.59,0.06 0.59,0.76 0.97,-1.13 1.63,1.03 0.57,-0.25 -1.53,-1.8 0.39,-1.47 -0.38,-0.94 -1.4,-0.94 -1.56,0.12 -0.83,-0.39 -0.32,-2.01 -0.45,0.09 0.22,0.81 -0.88,0.59 -0.19,-0.72 0.64,-0.08 -0.23,-0.69 -0.82,-0.06 -0.34,-0.68 -0.73,-0.49 -0.55,0.01 0.13,-0.89 0.58,-0.42 -0.26,-1.42 0.4,-1.14 0.59,0.46 0.9,-0.88 0.29,0.27 -0.35,0.53 0.19,0.27 0.75,0.15 0.66,-0.46 0.34,0.32 0.33,-0.45 0.21,0.84 -0.59,0.99 1.05,1.38 0.03,1.26 1.38,0.58 1.02,-0.1 0.36,0.87 -0.1,0.42 -0.52,0.1 -0.05,0.36 1.15,0.77 1.55,1.65 2.8,0.68 -0.05,0.6 -0.68,0.34 -0.8,0.93 0.85,0.74 z m -18.32,-34.3 0.35,-1.14 -0.56,0.71 -1.32,-0.05 -0.5,-0.3 0.52,-0.14 0.28,-0.44 0.13,-1.99 0.67,-1.35 0.41,-0.18 -0.02,-0.42 -0.78,-0.11 -0.03,-0.37 0.37,-0.44 0.3,-1.43 1.44,-0.07 0.39,-0.96 0.71,-0.35 0.65,0.29 0.31,0.61 -0.55,1.46 0.07,1.24 -0.76,1.21 -1.3,1.23 0.57,0.97 -0.26,1.12 0.49,0.06 0.11,0.29 -0.88,0.74 0.03,0.4 0.38,0.16 -0.67,0.63 -0.61,-0.13 -0.91,3.46 -1.37,1.09 -0.2,-0.45 -0.72,0.01 0.76,-5.44 0.48,0.3 -0.12,0.61 0.85,-0.28 0.02,-0.39 z m -9.6299999,37.35 0.14,1.19 0.94,0.82 -0.08,0.33 -1.45,0.1 -0.22,-0.45 -0.74,0.25 -0.15,0.58 0.51,0.27 0.11,0.39 -0.43,0.44 -0.38,-0.13 -0.35,-0.67 -1.600004,0.39 -1.11000001,-0.51 0.27,-0.82 0.2,0.3 0.96000001,-0.41 -0.44,-0.67 -0.17,-1.9 0.33,-0.45 0.47,0.04 0.54,0.68 2.000004,-1.13 -0.01,0.47 z m 5.1799999,-7.19 -0.3099999,1.55 0.6499999,-0.04 0.87,-0.58 0.32,0.14 0.03,0.57 -1.71,1.49 0.08,1.28 -0.6899999,-0.06 -0.13,1.09 -0.32,-0.16 0.31,-1.54 -0.46,-1.31 -0.27,0.3 -0.6,-0.27 0.41,-0.77 0.7,0.02 -0.12,-1.21 1.1899999,-1.24 -0.16,-0.96 0.38,-0.99 0.16,1.34 z m 8.27,-7.75 0.31,0.1 0.06,-0.34 -0.55,0.01 0.15,-0.38 0.63,-0.08 0.16,0.66 -0.19,0.26 0.32,0.31 -0.47,0.21 -0.03,0.42 -0.45,0.1 0.22,0.36 -1.35,2.28 -1.85,1.04 -0.41,-0.28 0.07,-0.54 0.38,0.44 0.44,-0.03 -0.28,-0.88 0.92,-0.52 -0.45,-0.59 0.77,-1.26 1.29,-1.3 z m -13.1099999,12.54 0.83,0.52 -0.43,1.36 -0.75,-0.49 -0.08,-1.28 z m 2.94,-0.38 -0.53,-0.26 -0.4,-0.66 0.71,0.1 -0.37,-0.54 0.2,-0.33 0.9,0.82 -0.11,1.23 z m 2.6399999,-10.19 -0.02,0.42 0.32,0.14 -0.56,0.28 0.04,0.24 -1.1399999,-0.24 -0.06,-0.27 0.4399999,-0.38 0.58,-0.03 0.05,-0.32 z m -3.9799999,11.59 -0.16,-0.41 -0.35,-0.08 -0.02,-0.42 -0.82,-0.53 0.33,-0.36 0.57,0.16 0.26,0.74 0.37,-0.81 0.18,0.07 0.13,0.43 -0.44,0.54 0.2,0.29 z m 9.1999999,-13.4 0.55,-1.66 v 2.09 l -0.72,-0.1 z m 3.33,-2.56 -0.45,0.29 -1.1,-0.06 1.17,-0.93 0.54,0.35 z m -10.1399999,6.9 -0.23,0.13 -0.39,-0.31 0.32,-0.54 0.43,0.27 0.5899999,-0.18 -0.1799999,0.68 z"
     inkscape:connector-curvature="0"
     style="fill:#cccccc;fill-opacity:1;stroke:#ffffff;stroke-width:0.5;stroke-opacity:1" />
  <path
     id="JP-27"
     class="land"
     d="m 134.84731,283.27889 0.37,-0.8 -0.64,-0.14 -0.03,-0.81 0.3,-0.51 0.74,-0.43 -0.46,-0.23 0.54,-1.21 -0.15,-1.43 -0.74,-1.24 0.47,-2.04 -0.43,-0.25 0.91,-0.51 -0.96,-0.14 -1.4,-0.81 0.24,-0.36 -0.08,-0.97 -0.4,-0.24 0.29,-0.31 0.43,0.05 0.19,0.74 2.16,0.6 0.07,1.16 0.25,-0.11 0.69,0.73 0.79,-0.26 -0.38,-0.42 0.26,-0.68 0.75,0.02 v 0.61 l 1.24,1.15 0.3,1.06 1.03,1.16 -0.29,0.62 -0.35,-0.06 -0.15,1.36 -0.51,0.44 -0.51,2.37 0.38,0.08 0.21,0.45 -0.57,0.9 0.53,1.26 0.08,1.16 -0.19,1.1 -0.61,0.37 -1.29,0.18 -1.2,0.8 -1.62,-0.14 -2.06,0.74 -1.63,0.09 -1.23,0.79 -1.04,0.18 -0.43,-0.04 -0.13,-0.88 -0.27,-0.09 2.57,-0.85 1.84,-1.68 0.97,-1.49 z"
     inkscape:connector-curvature="0"
     style="fill:#cccccc;fill-opacity:1;stroke:#ffffff;stroke-width:0.5;stroke-opacity:1" />
  <path
     id="JP-33"
     class="land"
     d="m 107.37731,282.20889 -1.41,1.09 -0.47,1.72 -1.96,-0.54 -0.52,0.34 -1.84,-0.34 -0.62,-0.78 -1.600003,0.29 -0.27,0.31 0.24,0.22 -2.22,0.76 -0.69,-0.84 -0.12,-1.74 -1.21,-1.65 0.01,-1.38 -0.41,-1.9 0.29,-1.12 -1.6,-2 0.01,-1.6 0.46,-1.21 -1.01,-1.22 0.36,-0.25 0.24,-0.84 0.38,0.22 1.81,-0.63 -0.33,-1.19 0.27,-0.38 0.78,0.33 1.21,-0.49 0.21,-0.5 -0.21,-0.48 0.96,-0.25 0.78,-2.43 1.700003,0.63 1.27,0.01 1.07,0.74 0.52,0.91 0.66,-0.5 0.2,-0.54 1.16,-0.49 0.03,-0.48 1.5,-0.43 -0.15,0.89 0.19,0.17 0.79,0.21 0.94,-0.17 0.69,0.59 0.22,0.42 -0.12,0.61 0.49,0.31 -0.19,0.71 0.51,0.63 1.48,-0.92 0.54,0.27 0.69,-0.13 1.39,-1.16 0.3,0.23 -0.44,0.8 0.63,0.66 -0.08,0.78 -0.67,-0.07 -0.24,0.26 -0.24,1.1 -0.59,0.25 -0.06,0.93 -0.92,0.54 0.2,0.59 -0.15,0.91 -0.35,0.32 0.68,0.85 -0.7,1.31 0.18,0.47 1.08,0.96 0.54,1.37 -0.5,0.33 -0.2,-0.28 -0.66,-0.01 -1.76,1.98 -0.37,0.89 -0.98,0.59 -1.28,0.06 z m 5.26,2.84 -0.37,0.06 0.68,-0.71 -0.86,0.2 -0.67,1.29 -0.23,-0.59 0.37,-0.49 -0.11,-0.24 -0.5,-0.29 -1.17,0.5 -0.21,-0.25 0.45,-0.86 3.68,-1.35 -0.12,0.47 0.3,0.34 -0.4,2.25 -0.4,-0.52 z"
     inkscape:connector-curvature="0"
     style="fill:#cccccc;fill-opacity:1;stroke:#ffffff;stroke-width:0.5;stroke-opacity:1" />
  <path
     id="JP-44"
     class="land"
     d="m 44.617307,316.82889 0.35,-0.25 0.48,-1.38 -0.84,-0.73 0.03,-0.62 -0.36,-0.19 0.12,-0.38 0.52,-0.26 0.14,-0.64 -0.29,-0.95 -0.3,-0.16 0.47,-0.69 0.49,-0.13 0.3,-1.65 1.61,-1.38 0.93,-0.23 0.97,0.27 1.91,-0.11 -0.13,-0.46 0.39,-0.52 -0.3,-0.8 0.15,-0.37 0.32,-0.43 1.78,0.91 2.57,0.12 0.09,-0.45 1,-0.9 0.49,-0.96 1.68,-0.5 1.6,0.81 1.25,1.67 0.27,1.08 -0.09,1.79 -0.32,0.15 -0.4,1.21 -1.37,-0.4 -0.18,0.29 0.5,0.65 -0.12,0.22 -0.91,0.1 -0.21,0.59 -0.73,-0.11 -0.24,-0.42 -0.71,0.15 -0.12,0.71 0.35,1.5 1.5,0.51 1.88,-0.81 1.34,0.96 2.96,-0.67 -1.36,2.03 -0.5,1.26 0.7,0.31 1.08,-0.49 0.32,0.28 -0.69,0.34 -0.4,0.68 0.99,0.29 0.3,0.03 0.29,-0.71 0.59,0.84 0.36,-0.17 -0.03,-0.51 0.29,-0.14 0.07,0.8 -0.5,0.36 -1.03,-0.11 -0.75,1.38 0.12,0.28 0.58,0.19 0.25,0.46 0.72,-0.26 0.45,0.37 1.64,0.07 0.07,0.26 -2.11,0.27 0.17,0.77 0.61,-0.02 -0.81,0.76 0.66,0.7 -1.43,1.02 -0.92,-0.47 -0.25,1.53 -0.56,-0.01 0.26,-1.56 -1.64,-0.62 -0.8,0.15 -0.15,0.74 -0.49,0.58 -2.23,-0.02 -0.52,0.44 -0.9,-0.3 -0.19,-0.29 0.18,-0.47 -0.83,-0.86 -2.02,0.7 -0.38,-0.01 -0.48,-0.58 -1.4,-1.27 -0.21,-2.27 -0.59,-1.62 -0.86,-0.78 -0.19,-1.17 -1.04,-1.09 -1.41,-0.26 -1.02,0.56 -0.13,0.74 0.83,1.21 -0.18,0.85 -0.49,0.63 -0.38,-0.01 -0.4,-0.63 -0.63,-0.05 -0.6,-0.79 -0.87,-0.17 z"
     inkscape:connector-curvature="0"
     style="fill:#cccccc;fill-opacity:1;stroke:#ffffff;stroke-width:0.5;stroke-opacity:1" />
  <path
     id="JP-41"
     class="land"
     d="m 24.097307,311.53889 0.67,0.96 0.16,-0.92 -0.19,-0.19 0.67,-1.39 -1.75,-1.34 0.48,-0.15 -0.26,-0.34 0.27,-0.32 0.39,0.14 0.35,0.8 0.28,-0.22 -0.56,-1.18 -0.03,-0.32 0.54,-0.03 -0.2,-0.88 0.64,0.48 0.32,-0.04 0.02,-0.27 0.68,-0.03 0.03,0.34 0.74,0.63 -0.63,0.74 0.61,0.54 1.14,0.19 0.28,-0.16 -0.05,-0.33 2.63,0.08 0.69,-0.32 0.86,0.24 0.47,-0.21 1.7,1.07 0.77,0.17 0.62,0.71 0.99,-0.95 0.74,-0.25 0.41,0.21 -0.02,2.25 -0.51,-0.03 -0.51,0.86 -1.85,1.42 -0.59,1.04 -0.17,1.23 -1.31,-0.01 -0.2,-0.52 -0.88,-0.58 -0.19,0.66 -1.79,1.44 1.78,3.06 0.04,0.41 -0.42,0.03 -2.8,-0.68 -1.55,-1.65 -1.15,-0.77 0.05,-0.36 0.52,-0.1 0.1,-0.42 -0.36,-0.87 -1.02,0.1 -1.38,-0.58 -0.03,-1.26 -1.05,-1.38 0.59,-0.99 z m -1.61,-8.98 -0.61,-0.03 -0.39,-1.1 -0.37,0.5 -0.21,-0.74 0.34,-0.5 -0.19,-0.39 1.06,-1.34 1.37,0.5 -0.26,0.85 0.52,0.45 -0.57,0.29 0.78,0.27 -0.17,0.54 -1.09,0.05 z m 0.24,6.65 0.37,-1 0.78,0.95 -0.61,-0.06 -0.08,0.42 -0.48,0.23 -0.3,-0.3 z"
     inkscape:connector-curvature="0"
     style="fill:#cccccc;fill-opacity:1;stroke:#ffffff;stroke-width:0.5;stroke-opacity:1" />
  <path
     id="JP-25"
     class="land"
     d="m 154.43731,266.75889 0.07,0.85 0.71,0.73 -0.73,2.5 -0.04,1.38 -0.78,1.1 -0.21,0.92 -2.34,1.13 -1.33,-0.66 -1.02,0.01 -0.33,-0.38 -0.47,0.39 0.07,0.26 0.62,0.04 0.08,0.26 -0.77,0.62 0.07,0.52 -1.34,0.55 -0.15,-0.41 0.26,-0.26 -0.61,-0.6 -0.4,0.15 -0.3,-0.37 -0.31,0.05 -0.13,-0.88 -0.73,0.38 -0.71,-0.47 0.24,-1.07 -0.89,-1.51 -0.29,-1.17 0.34,-0.25 0.31,-1.74 -0.43,-2.11 0.38,-1.44 -0.42,0.01 -1.18,-1.84 0.45,-0.74 0.37,-0.1 0.06,-0.5 h 0.65 l 0.35,0.4 0.57,-0.28 1.04,-2.76 0.77,0.77 0.46,-0.1 0.46,-0.88 1.29,-0.12 0.35,-1.07 1.1,0.32 0.14,-0.75 -0.83,-1.76 0.31,-0.67 0.67,-0.13 1.81,0.93 0.26,1.07 0.66,0.07 -0.12,1.6 0.78,0.29 0.31,-0.5 0.55,0.71 -0.24,0.89 0.63,0.64 -0.09,1 0.53,0.85 -0.55,0.44 -0.04,1.34 -0.32,0.52 -0.02,0.93 -0.32,0.21 z"
     inkscape:connector-curvature="0"
     style="fill:#cccccc;fill-opacity:1;stroke:#ffffff;stroke-width:0.5;stroke-opacity:1" />
  <path
     id="JP-32"
     class="land"
     d="m 73.467307,270.55889 0.28,-0.79 1.23,-0.93 0.08,-0.67 0.5,-0.67 2.51,-1.8 1.42,-0.54 0.56,-0.51 0.41,-0.78 0.13,-1.61 -0.96,-0.39 0.1,-0.37 1.12,-0.46 0.5,0.3 0.85,-0.17 0.11,-0.21 -0.62,-0.35 1.44,-0.3 0.24,-0.32 2.13,-0.51 1,0.04 -0.07,-0.65 1.17,0.12 0.41,-0.96 0.93,-0.64 0.91,1.06 1.08,-0.17 0.41,-0.33 2.16,0.32 -1.21,0.3 -0.41,0.51 0.49,0.99 1.14,0.68 -0.16,2.44 -0.42,0.62 0.27,1.63 -3.1,1.38 0.02,0.29 0.61,0.13 0.23,0.69 -0.89,0.7 -0.17,1.54 -0.58,-0.22 -1.42,0.42 -0.98,-0.79 -0.79,0.62 -1.15,-0.7 -0.4,0.07 -2.4,3.33 -1.19,0.25 -0.85,1 0.38,0.47 0.69,0.21 0.01,0.87 -1.76,0.14 -1.47,1.06 -1.63,-0.13 -0.25,-0.41 -0.41,0.14 0.07,0.25 -0.51,0.43 -0.52,-0.42 -1.24,0.13 -0.21,0.44 -0.4,-0.48 -0.79,-0.11 -0.31,1.14 -1.45,0.86 -0.3,0.48 0.55,0.34 -0.7,1.03 -0.21,1.78 -0.63,0.68 -0.6,0.18 -0.3,0.64 0.49,0.63 -0.81,0.45 -0.48,0.71 -0.15,0.31 0.43,0.89 -1.12,1.58 -0.69,-0.63 -0.94,0.7 -1.05,0.1 -0.87,-0.86 -0.17,-0.77 0.55,-1.54 -1.87,0.04 -0.61,-1.65 0.66,-0.64 0.02,-0.82 0.43,-0.16 -0.83,-2.54 1.15,0.03 1.51,-0.45 1.33,-1.52 1.13,-0.82 0.23,-0.66 0.63,-0.2 1.16,-1.24 0.75,-1.24 2.86,-2.38 z m 18.1,-27.33 -0.39,-0.5 -0.48,-0.07 0.17,-0.81 -0.3,-0.17 0.08,-0.87 0.87,-0.99 1.08,-0.31 0.79,0.33 1.29,1.46 -0.3,1.5 -0.45,0.19 -0.1,-0.56 -0.14,0.45 -0.58,0.09 0.6,0.14 0.11,0.56 -0.26,0.07 -1.79,0.05 0.14,-0.43 z m -46.02,-33.19 0.32,-0.19 0.21,0.22 -0.22,0.32 0.1,0.97 -0.76,0.88 -1.29,-0.54 -0.34,-0.96 0.61,-0.41 z m 43.06,34.31 0.27,0.09 -0.09,0.33 -0.93,0.46 0.33,0.5 -0.22,0.63 -0.44,-0.06 -0.37,-0.71 -0.35,-0.03 -0.19,0.23 0.43,1.12 -1.03,-0.64 0.63,-1.24 0.71,-0.05 -0.02,-0.46 0.68,0.17 z m 1.14,1.38 -1.32,1.26 0.22,-0.83 -0.31,-0.8 0.26,-0.18 0.26,0.3 0.07,-0.5 0.37,-0.08 0.39,0.22 z m -2.59,1.29 1.35,0.53 -0.14,0.35 -1.18,-0.16 z"
     inkscape:connector-curvature="0"
     style="fill:#cccccc;fill-opacity:1;stroke:#ffffff;stroke-width:0.5;stroke-opacity:1" />
  <path
     id="JP-11"
     class="land"
     d="m 200.02731,250.08889 0.2,-0.52 -0.52,-1.05 0.1,-0.46 0.75,-1.01 1.23,-0.02 0.92,-1.01 1.52,-0.4 0.46,-0.78 1.53,-0.07 0.42,-0.76 0.02,-0.93 1.23,-1.97 0.7,0.05 1.69,0.86 0.6,-0.15 0.97,0.29 0.86,-0.21 1.81,1.34 2.54,-0.48 0.52,0.48 0.49,-0.18 0.31,-0.58 0.84,0.41 -0.17,0.89 0.86,1.96 0.39,0.1 0.39,-0.35 0.71,1.4 0.06,1.04 1.67,3.22 -0.22,1.33 -0.35,0.27 -0.92,0.07 -0.17,-0.42 -0.52,0.14 -0.45,-0.28 -0.41,0.74 -1.78,-0.31 -0.67,0.8 -0.55,-0.29 -0.91,0.37 -0.28,-0.87 -1.59,0.75 -1.25,0.03 -0.53,-0.6 -0.78,-0.15 -0.41,-0.87 -2.1,-0.15 -1.03,-0.56 -1.66,-0.28 -0.7,-0.54 -1.39,0.58 -0.18,0.44 -1.09,0.29 -0.69,-0.53 -1.16,-0.2 -0.29,-0.64 z"
     inkscape:connector-curvature="0"
     style="fill:#cccccc;fill-opacity:1;stroke:#ffffff;stroke-width:0.5;stroke-opacity:1" />
  <path
     id="JP-22"
     class="land"
     d="m 207.55731,274.99889 -1.07,2.05 -1.23,1.02 -0.48,1.26 0.29,0.76 -0.45,0.17 -0.48,-0.25 -0.41,0.19 -0.2,0.52 -1.26,0.74 -0.38,-0.14 -1.08,-1.02 0.23,-0.29 -0.14,-0.37 -0.73,-0.33 0.01,-0.81 0.74,-0.73 -0.48,-1.08 0.27,-0.2 -0.2,-1.79 0.67,-0.61 -0.54,-1.53 0.49,-1.23 2.05,0.16 0.27,-0.71 -1.78,-1.59 -2.32,-0.51 -2.74,0.82 -0.9,1.57 0.4,0.5 -0.22,0.6 -3.07,1.66 -0.8,1.34 0.18,1 -0.69,1.23 -1.52,1.15 -0.54,1.37 0.01,0.72 0.75,0.71 -0.09,0.22 -4.47,-1.58 -2.06,-0.07 -1.84,0.45 -2.66,-0.61 -3.56,-0.07 -0.16,-2.32 0.43,-1.23 2.75,-1.54 1.28,-1.92 0.03,-1.06 1.46,-2 0.47,-0.24 -0.08,-0.47 0.57,-0.58 -0.51,-0.5 0.31,-0.98 1.07,-0.11 0.46,-0.93 0.51,-0.01 0.21,-0.43 1.28,-0.64 1.21,-1.01 1.65,-0.63 0.14,-0.72 -0.53,-0.67 v -0.67 l 0.74,-0.26 -0.42,-1.31 0.41,-0.56 -0.33,-0.26 0.56,-0.65 0.36,0.14 0.58,-1.64 0.94,3.18 -0.38,1.18 0.23,1.07 -0.46,0.93 0.33,1.3 0.68,0.51 0.76,-0.52 0.76,0.36 0.69,2.69 0.69,0.5 1.24,0.12 0.72,-0.63 -0.4,-2.66 0.43,-0.61 -0.05,-1.71 0.99,-0.91 0.57,1.26 1.03,-0.12 0.45,0.97 2.8,-0.47 0.37,-0.27 0.7,0.07 0.67,-0.39 1.51,-0.03 0.15,0.24 0.35,1.52 -0.28,0.97 -0.57,0.62 0.24,1.52 0.7,0.54 0.13,0.68 1.52,0.21 -0.67,0.97 -0.14,1.01 0.63,0.25 -0.13,1.33 1.03,0.83 -0.11,1.53 z"
     inkscape:connector-curvature="0"
     style="fill:#cccccc;fill-opacity:1;stroke:#ffffff;stroke-width:0.5;stroke-opacity:1" />
  <path
     id="JP-09"
     class="land"
     d="m 230.16731,225.02889 -0.09,1.99 0.27,0.99 -0.22,1.3 0.62,1 -0.09,0.32 -0.95,0.21 -0.28,0.38 0.57,1.95 0.02,1.81 -0.92,1.86 -0.21,1.17 -0.67,0.2 -0.28,-0.39 -0.45,0.02 -0.41,0.47 -0.68,-0.24 -0.05,0.52 -0.26,0.13 -1.56,0.08 -0.13,0.45 -1,0.47 -0.12,0.88 -1.13,-0.28 -0.56,1.69 -1.64,0.87 -0.73,0.06 -0.84,-0.41 -0.51,-0.79 0.09,-0.28 -0.38,-0.24 -1.11,0.18 -0.71,-0.43 -1.01,0.29 -1.11,-0.97 0.04,-0.58 -1.05,-0.78 0.18,-0.96 1.19,-1.55 -0.33,-0.76 0.4,-1.2 0.82,-0.65 -0.34,-0.68 -1.23,0.07 -1.47,-0.74 0.18,-1.37 0.59,-0.89 -0.28,-1.17 1.02,-1.41 -1.02,-0.44 0.58,-1.54 0.94,-0.43 0.71,-1.02 1.35,-0.24 0.92,-0.75 0.63,-0.09 0.23,-0.43 0.79,-0.2 0.26,-0.41 2.8,-0.87 0.18,-0.91 1.36,-0.59 2.42,0.28 2.39,1 1.02,0.98 0.23,0.93 0.85,-0.05 -0.16,1.86 z"
     inkscape:connector-curvature="0"
     style="fill:#cccccc;fill-opacity:1;stroke:#ffffff;stroke-width:0.5;stroke-opacity:1" />
  <path
     id="JP-13"
     class="land"
     d="m 213.06731,279.40889 -0.68,-0.39 -0.14,-0.41 -0.06,-1.39 0.23,-0.5 1.22,0.43 0.52,0.92 -0.16,1.5 z m -2.11,6.15 -0.33,2.29 -0.49,-0.4 -0.06,-0.52 z m -1.42,2.19 0.25,0.27 -0.61,0.2 z m 12.32,-31.08 -0.82,-0.06 -0.2,-0.93 -0.5,0.44 -0.3,1.56 0.32,0.75 0.25,-0.15 0.44,0.71 -0.87,-0.2 -0.93,0.29 -0.01,-0.38 -0.48,-0.23 -0.33,-0.67 -2.68,-1.27 -0.76,0.91 -0.49,-0.47 -0.22,0.23 0.79,0.62 -0.19,2.02 -0.3,0.03 -1.35,-1.89 -2.15,-0.7 -0.86,0.16 -0.59,-0.99 -0.61,0.03 -0.46,-0.55 -0.6,-0.13 -2.1,-1.16 -1.58,-3.24 0.19,-0.44 1.38,-0.58 0.71,0.54 1.66,0.29 1.03,0.56 2.1,0.15 0.41,0.87 0.78,0.16 0.53,0.6 1.25,-0.04 1.59,-0.75 0.28,0.87 0.92,-0.37 0.55,0.29 0.67,-0.8 1.78,0.32 0.41,-0.75 0.45,0.28 0.52,-0.14 0.17,0.42 0.93,-0.07 1.08,2.26 0.35,0.76 -0.56,0.32 0.4,0.38 -0.83,0.57 z m -5.62,37.62 0.27,-0.46 -0.03,-0.53 -0.52,-0.53 -0.93,0.11 -0.4,1 0.18,0.63 0.69,0.09 z m 4.5,23.31 0.97,0.6 0.15,-0.7 0.39,-0.09 -0.25,-0.91 -0.55,-0.05 -0.88,-0.9 -0.48,0.01 -0.16,0.72 0.28,0.56 0.42,0.13 z m 0,0 0.97,0.6 0.15,-0.7 0.39,-0.09 -0.25,-0.91 -0.55,-0.05 -0.88,-0.9 -0.48,0.01 -0.16,0.72 0.28,0.56 0.42,0.13 z"
     inkscape:connector-curvature="0"
     style="fill:#cccccc;fill-opacity:1;stroke:#ffffff;stroke-width:0.5;stroke-opacity:1" />
  <path
     id="JP-36"
     class="land"
     d="m 121.09731,299.89889 -2.09,0.87 -0.89,0.77 -0.18,0.51 -1.25,0.91 -1.19,0.7 -0.92,0.19 -0.64,1.79 -0.89,-0.04 -0.21,0.47 0.26,0.14 -0.3,0.18 -2.11,-0.22 -0.78,-1.19 -0.1,-0.47 0.47,-0.54 -0.23,-0.8 -1.97,-0.05 -0.1,-2 -0.51,-1.26 -0.7,0.17 -0.25,-0.46 -0.39,0.13 -0.42,0.81 -0.61,0.2 -0.79,-0.32 -0.65,-0.9 -1.81,0.17 -1.34,-0.52 -0.37,-0.54 0.56,-0.9 v -1.04 l -0.27,-0.49 0.29,-0.68 0.62,-0.22 0.14,-0.51 1,-0.84 0.58,0.19 0.28,-0.5 0.76,-0.29 1.38,-0.25 0.86,0.97 h 0.47 l 1.17,-0.91 1.24,-0.14 0.32,-0.34 -0.06,-0.42 0.74,-0.58 1.7,-0.18 1.63,0.26 0.28,-0.3 1.09,0.58 0.42,-0.22 0.16,-0.96 2.81,-0.79 v 0.94 l 0.75,0.49 -0.72,2.96 0.09,1.1 0.48,0.53 0.36,-0.56 0.59,1.07 0.63,0.36 -0.52,0.39 0.7,0.19 -0.14,0.46 -1.29,0.94 -0.09,0.33 0.27,0.21 1.98,0.04 0.14,0.21 z"
     inkscape:connector-curvature="0"
     style="fill:#cccccc;fill-opacity:1;stroke:#ffffff;stroke-width:0.5;stroke-opacity:1" />
  <path
     id="JP-31"
     class="land"
     d="m 93.517307,260.73889 1.46,0.29 0.47,-0.16 0.47,-0.86 0.98,-0.5 1.8,-0.38 1.440003,0.58 1.8,0.17 3.37,-0.23 0.67,-0.37 1.4,0.17 1.85,-0.2 2.78,-0.74 0.56,-0.77 0.76,-0.05 0.13,-0.39 0.61,-0.13 0.69,0.52 0.38,0.77 -0.12,1.02 0.49,1.88 0.73,0.34 -0.09,1.08 0.73,0.96 -0.15,0.43 0.26,1.16 -1.64,1.15 -0.58,-0.26 -0.3,-0.23 -1.39,1.16 -0.69,0.13 -0.54,-0.27 -1.48,0.92 -0.51,-0.63 0.19,-0.71 -0.49,-0.31 0.12,-0.61 -0.22,-0.42 -0.69,-0.59 -0.94,0.17 -0.79,-0.21 -0.19,-0.17 0.15,-0.89 -1.5,0.43 -0.03,0.48 -1.16,0.49 -0.2,0.54 -0.66,0.5 -0.52,-0.91 -1.07,-0.74 -1.27,-0.01 -1.700003,-0.63 -0.78,2.43 -0.96,0.25 0.21,0.48 -0.21,0.5 -1.21,0.49 -0.78,-0.33 -0.27,0.38 0.33,1.19 -1.81,0.63 -0.38,-0.22 -0.24,0.84 -0.36,0.25 -0.42,-0.5 -2.1,0.32 v -0.26 l 0.17,-1.54 0.89,-0.7 -0.23,-0.69 -0.61,-0.13 -0.02,-0.29 3.1,-1.38 -0.27,-1.63 0.42,-0.62 z"
     inkscape:connector-curvature="0"
     style="fill:#cccccc;fill-opacity:1;stroke:#ffffff;stroke-width:0.5;stroke-opacity:1" />
  <path
     id="JP-16"
     class="land"
     d="m 168.24731,228.68889 1.31,0.68 0.98,-0.23 1.94,0.09 1.17,-1.11 0.36,-1.01 -0.03,-1.21 0.37,-0.71 1.34,-0.71 2.78,-0.6 0.7,0.81 0.82,0.25 0.03,1.2 0.39,0.6 v 0.77 l 0.59,1.68 -0.2,4.18 -1.18,0.7 -0.11,0.77 0.21,-0.04 0.12,0.49 -0.61,0.17 -0.39,0.53 0.02,0.75 -0.42,0.81 -0.9,0.86 -0.94,-0.07 -0.84,-0.82 -0.71,0.34 -1.13,-0.35 -0.28,-0.78 -1.35,0.8 -0.21,-0.04 -0.04,-0.88 -0.59,-0.05 -1.46,0.69 -0.25,-0.44 -0.55,0.02 -2.08,2.02 -0.25,1.15 -1.39,1.22 -0.34,-0.08 0.26,-0.73 -0.34,-0.77 -0.92,-0.51 -0.35,0.36 -0.25,-0.59 -0.77,0.56 -0.29,1.06 -0.58,0.08 -0.15,-0.89 0.32,-0.42 -0.45,-1.89 0.75,-2.95 -0.46,-0.58 -0.19,-1.13 0.77,-1.23 -0.23,-0.46 0.16,-0.97 0.55,-0.65 0.6,-3.49 1.4,-1.37 0.73,-0.26 1.24,0.1 -1.33,2.29 1.42,1.56 0.69,0.5 z"
     inkscape:connector-curvature="0"
     style="fill:#cccccc;fill-opacity:1;stroke:#ffffff;stroke-width:0.5;stroke-opacity:1" />
  <path
     id="JP-30"
     class="land"
     d="m 142.75731,307.16889 -0.54,0.38 -0.32,0.69 0.09,0.71 -0.48,0.08 -0.25,-0.35 0.32,-0.75 -0.79,0.11 -1.88,-0.75 -2.35,-0.38 -2.02,-1.21 -0.41,-0.74 0.15,-0.79 -1.27,-0.63 0.98,-0.53 0.25,-0.57 -1.44,-1.22 -2.62,-1.21 -0.68,-1.41 -0.77,-0.38 -1.11,0.32 0.21,-2.33 1.57,-0.64 0.49,-0.63 -0.73,-0.76 -1.12,-0.25 0.61,-0.64 0.3,-0.83 0.87,0.07 0.3,-0.35 -0.13,-0.75 -0.75,-0.2 -0.43,-1.22 -1,-1.08 0.13,-0.48 0.36,-0.14 0.27,0.09 0.13,0.88 0.43,0.04 1.04,-0.18 1.23,-0.79 1.63,-0.09 2.06,-0.74 1.62,0.14 1.2,-0.8 1.29,-0.18 0.4,0.68 0.2,1.72 0.89,0.5 0.21,0.66 -0.39,0.6 -0.81,-0.37 -0.55,0.27 0.01,0.71 -0.38,0.57 -1.49,1.45 -0.13,0.54 1.14,0.96 -0.06,0.53 0.58,0.21 0.28,0.51 -0.71,1.83 0.38,0.13 0.21,0.57 1.15,-0.68 0.66,0.01 0.66,0.41 2.01,-0.34 -0.07,1.92 1.7,1.94 1.29,0.27 -0.33,0.45 -0.15,1.15 -0.96,0.26 -0.23,0.85 0.72,0.28 -0.07,0.35 -2.08,1.46 z"
     inkscape:connector-curvature="0"
     style="fill:#cccccc;fill-opacity:1;stroke:#ffffff;stroke-width:0.5;stroke-opacity:1" />
  <path
     id="JP-35"
     class="land"
     d="m 57.707307,295.15889 -0.59,-0.41 -0.35,0.88 -0.74,0.35 -0.29,-0.2 0.15,-0.59 -0.44,-0.14 -0.77,1.46 -1.72,1.03 -2.18,-0.78 0.08,-0.79 -2.26,-1.28 -0.69,0.38 -0.32,0.88 -1.84,1.78 -0.19,-0.59 0.46,-0.87 -0.03,-1.68 -1.06,-1.52 0.12,-0.61 0.75,-0.13 0.55,-1.11 -0.24,-1.21 -1.07,-1.17 0.3,-0.16 0.38,-1.37 2.64,-0.41 -0.3,-0.48 -1.22,-0.38 0.28,-0.82 0.92,0.74 1.08,-0.34 0.52,0.15 1.09,1.11 2.96,-0.26 0.62,-0.83 1.02,0.03 1.44,-1.68 -0.27,-0.66 0.35,-0.56 0.7,0.14 0.7,-0.71 0.34,-0.42 0.03,-0.86 0.46,-0.11 0.38,-0.88 0.25,-0.23 0.97,0.29 0.47,-0.49 0.83,2.54 -0.43,0.16 -0.02,0.82 -0.66,0.64 0.61,1.65 1.87,-0.04 -0.55,1.54 0.17,0.77 0.87,0.86 1.05,-0.1 0.94,-0.7 0.69,0.63 1.12,-1.58 -0.43,-0.89 0.15,-0.31 0.48,-0.71 0.81,-0.45 0.3,0.68 -0.17,0.81 0.24,1.36 0.92,0.78 -0.08,0.63 0.5,1.46 1.28,0.31 0.33,-0.19 0.24,0.49 -0.29,0.52 0.37,0.47 -0.98,0.91 0.24,2.96 -0.57,0.96 -1.09,0.12 0.01,1.62 0.58,0.68 -0.33,0.63 -0.49,-1.07 -1.43,-0.73 -0.37,0.17 -3.61,-2.76 -0.47,0.6 -0.03,0.55 -0.91,-0.2 1.12,-1.18 -1.25,-0.71 -0.52,-0.08 -1.82,0.55 -2.1,0.96 z m 15.14,3.62 -0.9,-0.14 -0.52,0.46 -0.58,-0.87 -0.06,-0.79 1.18,-0.95 1.36,1.13 0.98,0.06 1.26,-0.85 1.1,0.06 -1.26,0.96 -0.71,-0.01 -0.19,0.31 0.19,0.83 -0.87,0.1 -0.1,-0.82 -0.44,-0.1 -0.54,0.09 z"
     inkscape:connector-curvature="0"
     style="fill:#cccccc;fill-opacity:1;stroke:#ffffff;stroke-width:0.5;stroke-opacity:1" />
  <path
     id="JP-19"
     class="land"
     d="m 207.94731,255.79889 -0.02,2.61 -0.34,0.7 -0.49,0.52 -0.71,0.1 -0.46,0.65 -1.79,0.83 -0.4,1.13 -0.67,0.39 -0.7,-0.07 -0.37,0.27 -2.8,0.47 -0.45,-0.97 -1.03,0.12 -0.57,-1.26 -0.99,0.91 0.05,1.71 -0.43,0.61 0.4,2.66 -0.72,0.63 -1.24,-0.12 -0.69,-0.5 -0.69,-2.69 -0.76,-0.36 -0.76,0.52 -0.68,-0.51 -0.33,-1.3 0.46,-0.93 -0.23,-1.07 0.38,-1.18 -0.94,-3.18 -0.73,-1.77 1,-1.1 -0.88,-0.86 0.97,-1.97 0.2,-0.12 0.72,0.62 1.77,-2.71 1.43,0.58 -0.01,0.67 0.48,0.53 0.48,-0.09 0.22,-0.41 1.76,0.03 0.54,1.14 0.97,-0.01 0.73,-0.94 0.4,0.01 1.02,0.23 0.29,0.64 1.16,0.2 0.69,0.53 1.09,-0.29 1.57,3.24 z"
     inkscape:connector-curvature="0"
     style="fill:#cccccc;fill-opacity:1;stroke:#ffffff;stroke-width:0.5;stroke-opacity:1" />
  <path
     id="JP-06"
     class="land"
     d="m 230.60731,199.31889 -0.3,1.71 0.04,2.01 0.55,0.41 -1.33,1.61 -1.3,-0.26 -0.74,0.56 -1.47,-1.12 -1.23,0.46 -0.97,-1.68 -0.33,0.35 -0.63,0.07 -0.61,-0.39 -0.94,0.58 -0.63,-0.68 -0.79,0.18 -0.45,-0.77 -0.45,0.13 -0.66,-0.32 -0.66,-1.16 0.59,-3.17 0.69,-0.51 -0.35,-0.76 0.34,-0.82 -0.16,-1.31 0.52,-0.82 1.58,0.22 1.37,-0.86 0.79,-1.59 -1.15,-1.23 -1.84,-0.48 -0.8,-1.13 0.4,-1.99 -0.24,-0.29 -1.48,-0.32 -1.81,-0.96 1.17,-3.08 1.74,-1.51 1.14,-1.5 1.13,-4.08 0.61,-1.04 0.7,-2.64 -0.18,-0.58 2.51,0.41 0.37,-0.46 0.98,-0.24 0.2,1.17 0.71,0.18 0.79,0.7 3.08,0.94 1.08,-0.27 0.35,0.77 1.06,0.08 0.58,1.8 1.52,0.53 0.24,0.45 -0.23,0.35 1.06,1.02 0.19,1.06 0.83,0.45 -0.68,1.1 0.22,0.97 -0.43,1.15 -0.4,0.1 -0.66,-0.35 -0.1,0.23 0.61,1.37 0.03,0.54 -0.38,0.65 0.27,0.91 0.6,0.39 0.2,0.7 -0.61,1.6 -1.09,1.14 0.16,0.6 -1.05,1.32 -0.16,1.02 0.23,1.23 -1.11,1.58 -0.19,1.02 -0.99,0.55 -1.72,0.01 z"
     inkscape:connector-curvature="0"
     style="fill:#cccccc;fill-opacity:1;stroke:#ffffff;stroke-width:0.5;stroke-opacity:1" />
  <g
     id="layer1"
     inkscape:label="Vrstva 1"
     transform="matrix(0.14818899,0,0,0.15377017,32.235765,357.80505)">
    <circle
       transform="matrix(0.994318,0,0,0.994318,-275.5681,-427.0646)"
       id="path1306"
       style="fill:#ff1414;fill-opacity:0.78448277;stroke-width:10.19400024;stroke-miterlimit:4;stroke-dasharray:none"
       cx="340"
       cy="492.36218"
       r="62.857143" />
  </g>
</svg>
