<?xml version="1.0" encoding="UTF-8" standalone="no"?>
<!-- (c) ammap.com | SVG map of Kazakhstan - Low -->

<svg
   xmlns:amcharts="http://amcharts.com/ammap"
   xmlns:dc="http://purl.org/dc/elements/1.1/"
   xmlns:cc="http://creativecommons.org/ns#"
   xmlns:rdf="http://www.w3.org/1999/02/22-rdf-syntax-ns#"
   xmlns:svg="http://www.w3.org/2000/svg"
   xmlns="http://www.w3.org/2000/svg"
   xmlns:sodipodi="http://sodipodi.sourceforge.net/DTD/sodipodi-0.dtd"
   xmlns:inkscape="http://www.inkscape.org/namespaces/inkscape"
   version="1.1"
   id="svg23"
   sodipodi:docname="TTMTR.svg"
   width="792.65601"
   height="434.95065"
   inkscape:version="0.92.4 (5da689c313, 2019-01-14)">
  <metadata
     id="metadata27">
    <rdf:RDF>
      <cc:Work
         rdf:about="">
        <dc:format>image/svg+xml</dc:format>
        <dc:type
           rdf:resource="http://purl.org/dc/dcmitype/StillImage" />
        <dc:title></dc:title>
      </cc:Work>
    </rdf:RDF>
  </metadata>
  <sodipodi:namedview
     pagecolor="#ffffff"
     bordercolor="#666666"
     borderopacity="1"
     objecttolerance="10"
     gridtolerance="10"
     guidetolerance="10"
     inkscape:pageopacity="0"
     inkscape:pageshadow="2"
     inkscape:window-width="958"
     inkscape:window-height="1008"
     id="namedview25"
     showgrid="false"
     fit-margin-top="0"
     fit-margin-left="0"
     fit-margin-right="0"
     fit-margin-bottom="0"
     inkscape:zoom="1.668772"
     inkscape:cx="406.92324"
     inkscape:cy="168.42469"
     inkscape:window-x="953"
     inkscape:window-y="0"
     inkscape:window-maximized="0"
     inkscape:current-layer="svg23" />
  <defs
     id="defs4">
    <style
       type="text/css"
       id="style2">
			.land
			{
				fill: #CCCCCC;
				fill-opacity: 1;
				stroke:white;
				stroke-opacity: 1;
				stroke-width:0.5;
			}
			.water
			{
				fill: #CCCCCC;
				fill-opacity: 1;
				stroke:white;
				stroke-opacity: 1;
				stroke-width:0.5;
			}
		</style>
    <amcharts:ammap
       projection="mercator"
       leftLongitude="46.488635"
       topLatitude="55.432742"
       rightLongitude="87.315881"
       bottomLatitude="40.549293" />
    <!-- All areas are listed in the line below. You can use this list in your script. -->
    <!--{id:"KZ-AKM"},{id:"KZ-AKT"},{id:"KZ-ALM"},{id:"KZ-ATY"},{id:"KZ-KAR"},{id:"KZ-KUS"},{id:"KZ-KZY"},{id:"KZ-MAN"},{id:"KZ-PAV"},{id:"KZ-SEV"},{id:"KZ-VOS"},{id:"KZ-YUZ"},{id:"KZ-ZAP"},{id:"KZ-ZHA"},{id:"KZ-AS"}-->
  </defs>
  <g
     id="g21"
     transform="translate(0.31744552,0.28115041)">
    <path
       id="KZ-AKM"
       title="Aqmola oblysy"
       class="land"
       d="m 379.52,99.63 3.13,0.19 1.65,3.46 2.9,-1.29 3.7,-0.57 0.14,3.08 h 6.23 l 1.97,1.06 2.15,0.27 1.24,-0.71 4.11,1.46 -0.22,-6.69 4.32,-0.12 1.14,1.42 2.77,1.12 2.58,2.18 1.13,-1.12 -0.5,-0.7 0.59,-1.03 0.77,0.59 2.43,-2.65 -0.22,-0.95 -1.19,-0.48 -0.43,-2.18 2.83,0.06 0.76,-1.69 0.83,-0.48 2.14,0.29 1.4,-3.53 2.2,-0.92 0.33,-1.19 3.72,-1.48 -1.65,-1.88 1.07,0.22 -0.92,-3.19 2.99,-2.76 -1.14,-1.58 0.69,-0.22 0.07,-1.36 -0.34,-1.11 -1.35,-0.11 0.25,-2.3 -2.17,-0.17 -0.61,-1.27 -1.07,-0.36 -0.09,-1.1 -1.4,-2.03 0.59,-0.91 1.38,-0.31 0.04,-0.82 0.99,-0.75 0.51,0.59 0.6,-1.19 -0.95,0.06 -0.06,-1.65 2.86,0.08 0.44,-0.52 -1,-2.14 1.5,0.11 0.17,-0.81 1.91,0.14 0.09,0.98 2.74,-0.2 -0.06,-1.67 1.91,0.15 0.06,1.39 1.22,0.24 0.23,0.84 0.81,0.21 0.4,2.65 1.34,0.38 0.63,-1.46 -1.08,-0.23 -0.33,-1.54 0.82,-0.08 0.36,-1.63 1.08,0.23 0.46,-0.93 0.95,-0.06 0.73,-0.78 4.22,0.07 0.19,1.54 1.07,0.37 0.22,3.33 -0.47,1.06 0.66,0.33 0.44,-0.65 2.41,0.61 1.39,-0.57 0.17,1.8 -0.84,0.48 0.22,0.85 -0.82,0.07 0.08,0.96 -0.58,0.51 3.8,-0.1 0.98,-0.47 2.08,3.06 0.29,1.54 1.89,-0.25 -0.36,-2.36 1.76,-0.26 0.47,-2.71 8.21,-0.23 -0.11,2.88 3.14,0.56 0.21,0.58 1.72,0.02 1.73,-1.49 1.21,-0.17 0.65,-1.31 1.98,0.05 -0.12,1.23 4.03,4.38 -1.41,3.45 0.62,1.71 -1.24,0.56 0.02,1.1 1.2,2.32 5.67,0.71 4.6,-0.35 0.91,-2.38 3.75,-0.83 0.83,0.78 1.81,-0.9 2.1,-0.02 0.63,-0.9 0.66,-0.06 0.42,3.4 0.82,0.93 0.54,5.75 2.49,-1.06 3.72,1.89 2.64,-0.06 0.24,1.28 1.45,-0.07 1.39,2.67 7.52,0.56 v 0 l 0.06,0.56 1.02,0.15 0.45,19.96 0.41,0.87 -1.19,0.23 -3.34,2.87 -0.1,5.89 3.56,-1.75 0.99,2.29 2.29,0.21 1.9,1.09 -2.28,1.79 -1.98,-0.56 -4.33,2.83 -0.29,2.22 -2.1,2.48 v 0 l -3.33,-0.99 -1.26,1.94 -0.56,-1.66 -0.53,0.19 0.31,0.57 -1.59,0.45 -0.53,-0.87 -0.94,0.4 -0.32,1.55 0.85,0.38 1.2,2.67 -0.2,0.63 0.7,0.49 1.04,-2.23 3.53,1.28 -2.89,2.76 -5.16,1.67 0.69,1.67 -2.75,0.68 -0.79,1.34 -3.14,-1.33 -1.14,2.08 -0.77,0.17 0.37,1.09 -1.31,1.53 -2.81,0.17 -0.12,1.03 -0.71,-0.35 -0.99,0.92 0.55,0.72 -1.41,1.25 2.11,1.43 -1.61,0.84 -2.23,-1.44 -0.77,1.2 -1.44,0.48 0.43,2.9 -1.3,0.36 0.27,0.94 -2.43,-1.85 -4.08,0.43 -0.48,0.98 -1.21,-0.4 1.78,-2.51 -0.35,-1.46 0.59,-0.84 -0.77,-1 1.33,-1.79 -2.2,-1.95 -1.4,0.1 -0.26,-1.07 -1.32,0.5 -0.28,-0.94 -0.9,0.16 0.04,0.78 -2.91,1.24 -0.55,2.92 -1.39,-0.02 -0.63,1.23 -1.74,-0.19 -1.52,1.26 0.41,0.94 -2.57,1.8 -2.96,0.72 -0.25,6.4 -1.4,-2.45 -4.19,1.88 1.21,3.07 -0.62,1.22 -2.15,0.29 -4.36,2.52 -1.2,-0.62 0.08,-2.17 1.73,-2.52 -0.41,-0.93 -0.91,0.3 -0.59,-1.72 -6.05,1.75 -3.54,0.32 0.47,-2.51 -1.13,-0.1 -1.3,-2.43 -1.1,1.06 -0.36,-1.7 -2.64,1.44 0.69,2.24 -1.6,1.01 -1.44,-0.76 0.13,2.95 -1.34,-0.62 -2.5,1.32 -2.52,-1.61 -1.13,-0.09 -0.32,-0.79 -1.56,0.51 -0.67,-1.2 1.39,-1.55 0.81,-3.78 0.86,-1.34 -0.43,-2.61 0.94,-0.57 0.27,-6.81 -6.03,0.17 -0.6,1.11 -2.37,0.85 -4.22,3.17 -1.83,-1.43 -3.9,0.37 1.3,1.76 0.14,1.69 v 0 l -2.31,1.76 -8.47,1.1 -4.58,2.91 -2.76,-4.27 2.16,-1.28 -1.27,-3.16 -1.67,-0.61 -4.81,1.4 -5.18,-1.84 -1.54,-1.11 -2.41,0.64 -1.01,-4.06 -1.49,0.7 -0.64,-0.55 -0.94,0.46 0.04,-1.16 -0.68,0.61 -0.17,-2.47 -3.64,-2.14 -1.21,3.95 -3.87,0.44 -0.74,-1.59 1.28,-6.04 -4.14,-4.01 1.1,-0.99 -1.67,-2.18 2.77,-2.47 -0.92,-0.71 1.64,-4.77 -1.77,-3.67 -2.43,-0.13 -0.98,-3.37 3.38,0.33 5.1,-2.62 1.66,-8.54 2.38,-1.99 z"
       inkscape:connector-curvature="0"
       style="fill:#cccccc;fill-opacity:1;stroke:#ffffff;stroke-width:0.5;stroke-opacity:1" />
    <path
       id="KZ-AKT"
       title="Aqtöbe oblysy"
       class="land"
       d="m 243.03,289.96 -4.65,1.95 -1.82,3.21 -0.86,4.06 -0.85,0.43 -0.69,1.9 -35.96,11.11 v 0 l -2.79,-20.57 -1.75,-4.85 v 0 l -1.6,-3.13 0.36,-1.18 -2.29,-2.96 -0.24,-3.7 -15.36,-5.04 -5.83,-5.87 -1.21,-4.7 -2.9,-3.66 2.27,-16.26 -1.32,-2.25 -0.43,-5.41 -3.03,-3.39 0.7,-2.66 -1.82,-5.9 0.64,-4.64 0.57,-0.45 -0.09,-4.69 -3.49,-0.3 -0.01,-1.24 -1.46,-1.06 -0.64,1.08 -1.27,-0.33 -0.42,4.28 -7.92,-1.29 0.78,-1.98 -0.83,-1.89 0.56,-1.7 -1.35,-6.85 -1.02,-0.24 -0.88,2.26 -1.19,-0.59 0.29,-0.79 -2.36,-1.07 -1.54,-1.42 v 0 l -0.18,-2.77 1.28,-4.37 -0.68,-1.56 1.21,0.6 0.79,-2.02 1.5,-1.35 1.9,0.01 0.35,-1.45 4.06,0.25 1.91,-1.13 -0.45,-0.83 1.76,-2.77 h 2.15 l -1.14,-1.39 1.87,-3.29 0.8,-2.65 -0.25,-1.52 -2.29,-1.67 0.29,-4.68 -1.46,-2.03 2.07,-2.2 -0.33,-0.87 2.45,-2.92 -0.3,-0.43 v 0 l 0.96,0.27 2.21,-2.8 -1.42,-5.38 0.99,-2.57 2.29,0.33 1.04,1.38 0.95,-1.13 1.22,-0.12 0.37,-1.21 0.83,-0.41 0.99,0.8 -0.81,2.25 0.7,0.88 5,4.4 2.53,-0.34 0.4,0.94 3.62,2.21 0.81,-1.26 4.64,-2.32 3.1,-2.3 0.03,-2.32 1.07,-2.96 3.21,0.7 0.76,-1.84 1.53,-0.19 -0.19,-2.71 0.65,-0.74 2.71,3.03 1.84,0.55 0.39,-1.03 -0.45,-2.25 2,-0.11 1.4,0.88 1.05,-0.67 1.26,0.72 3.12,-1.34 0.71,1.6 1.38,0.81 1.14,2.69 3.1,1.59 0.2,-1.24 1.61,-0.77 0.99,0.01 0.53,0.98 0.82,-0.36 0.59,-6.37 1.24,-0.3 1.05,1.14 1.05,-0.48 0.36,0.72 1.1,0.35 1.7,-1.32 0.32,1.45 1.46,0.34 0.79,-1.09 -0.14,-0.89 1.51,-0.88 0.66,0.27 0.88,2.27 2.6,-0.06 1.16,0.6 0.75,1.56 -0.73,2.13 0.63,3.5 1.05,0.33 2.45,-0.58 0.15,1.96 1.34,0.64 1.02,1.56 6,0.69 1.21,0.85 0.46,-0.39 1.67,0.4 1.7,-0.35 1.23,1.69 -0.47,0.61 0.28,2.13 5.85,-2.13 3.32,-7.48 1.26,-1.12 2.19,0.64 0.24,1.68 2.37,2.96 3.1,0.71 6.83,0.27 3.49,-0.77 8.13,-3.31 0.76,-1.2 2.34,-12.69 1.63,-0.55 v 0 l 1.29,0.63 1.43,-0.63 0.87,-1.52 1.36,2.1 1.13,5.2 1.58,0.62 1.55,-1.82 2.88,1.73 v 1.2 l -0.65,0.11 -0.65,2.25 3.5,3.41 -2.2,1.53 0.38,3.56 2.72,-0.85 1.78,9.06 2.57,4.09 0.39,1.56 4.23,6.32 0.38,1.56 -0.94,3.3 -3.08,-2.53 -3.1,2.75 -0.28,3.2 -3.07,1.87 0.63,3.45 0.63,0.9 -2.29,-0.79 -1.65,2.15 4.56,7.16 -0.64,0.49 -0.38,-0.38 -2.91,0.47 -0.5,1.39 2.52,-0.23 1.39,4.81 5.42,5.36 4.2,-2.29 2.02,1.8 0.12,1.12 -1.29,1.72 0.74,2.51 6.34,2.15 1.13,1.27 3.17,1.2 3.15,2.2 4.19,8 v 0 l 3.56,6.23 1.77,0.79 -4.31,4.75 -22.92,16.02 v 0 l -1.46,0.47 -0.85,-1.22 -5.59,-0.87 0.84,-1.94 -5.36,-6.82 -2.43,0.37 -4.92,-8.05 -11.81,2.72 -6.69,17.89 -8.13,-0.67 -0.56,6.16 -5.96,0.49 -7.83,7.27 z"
       inkscape:connector-curvature="0"
       style="fill:#cccccc;fill-opacity:1;stroke:#ffffff;stroke-width:0.5;stroke-opacity:1" />
    <path
       id="KZ-ALM"
       title="Almaty oblysy"
       class="land"
       d="m 620.48,254.8 3.29,2.65 2.45,0.22 0.95,2.44 8.65,-0.97 6.1,8.55 9.25,-3.23 4.15,1.72 -0.08,2 12.3,6.08 6.04,0.15 1.09,1.66 v 0 l 2.01,-0.74 v 0 l 1.2,2.16 0.87,-1.23 v 0 l 0.57,0.01 -0.73,1.14 0.65,0.14 v 0 l 1.36,0.54 1.09,-1.18 -0.36,0.98 v 0 l -0.98,0.73 1.12,0.13 -0.69,0.91 6.44,7.55 v 0 l 1.52,5.75 3.15,3.43 -0.36,5.78 0.71,0.62 2.01,-0.72 v 0 l 2.76,2.12 3.63,1.1 0.52,1.98 -0.74,3.53 -2.06,3.04 -3.49,-2.91 -1.04,-0.26 -5.79,2.18 -1.1,-1.44 -1.54,0.12 -0.59,-2.8 -1.91,-1.65 -1.23,0.35 -2.74,2.17 -0.96,0.16 -0.42,-0.51 -0.93,0.88 -0.82,-0.32 -0.59,0.56 -1.35,0.04 -1.15,0.96 -1.14,-0.23 -0.59,1.22 -2.4,0.2 -1.18,1.01 -3.14,-1.19 -0.63,1 -1.75,0.74 -2.64,-0.2 -1.73,2 -1.41,-0.6 -1.74,0.97 -2.65,-0.5 0.02,1.07 -0.58,-0.1 -4.12,3.33 2.32,0.36 0.57,1.69 0.79,0.43 4.83,-1.05 0.19,0.68 1,-0.15 0.46,0.91 2.29,1.47 0.1,0.72 -2.45,1.36 0.83,1.28 -1.19,3.47 1.45,9.5 1.99,7.94 4.38,10.03 -1.61,4.08 1.86,0.32 0.8,3.02 -0.44,0.82 -3.57,0.45 -3.97,2.44 0.3,1.41 1.53,1.21 1.66,0.43 0.38,0.87 -1.72,0.25 -1.97,1.43 -2.71,-0.03 -0.77,3.26 -0.99,1.79 0.82,2.34 1.32,0.83 -1.31,1.43 0.35,2.87 0.91,0.65 -0.23,0.79 0.47,0.65 -0.17,0.96 -0.64,0.37 -0.94,-0.27 -1.53,0.67 0.03,-1.75 -0.68,-1.46 -1.99,-1.23 -0.83,-1.57 -1.16,-0.08 -0.44,0.46 -0.29,-0.6 -3.46,-0.87 -0.94,0.66 -2.06,-0.12 -2.94,-3.48 -2.71,-1.71 -0.8,-1.4 v -2.01 l -1.51,0.35 -0.51,0.8 -0.94,-0.97 -1.87,0.04 -4.01,-1.46 -0.72,0.26 -0.55,-0.74 -1.99,-0.46 -1.19,-0.98 -1.69,0.7 -0.62,-0.23 -0.81,0.8 -2.97,-0.68 -0.4,0.62 -0.97,-0.17 -0.94,0.68 -0.73,-0.76 -1.03,0.46 -0.62,-0.67 -2.35,-0.27 -0.58,-0.66 -6.5,-0.67 -3.69,0.59 -1.63,-1.22 -4.79,-0.62 -1.61,0.02 -1.76,0.96 -0.63,1.08 -4.05,-0.36 -0.56,0.79 -2.68,0.62 -1.53,-1.42 -4.52,0.25 -2.1,-1.18 -2.2,0.59 v 0 l -0.35,-0.92 -1.01,0.44 -1.08,-0.68 -1.88,0.21 v 0 l -0.22,-0.43 1.12,-0.34 v 0 l 0.52,-1.06 -5.54,-2.12 -0.46,-1.9 -0.75,-0.33 0.27,-1.15 -0.74,-0.44 0.22,-2.26 2.58,-3.13 -0.7,-1.18 -2.91,0.36 0.29,-0.93 -1.76,0.31 -3.28,-1.15 -0.01,-1.72 4.99,-4.39 0.46,-1.25 -0.45,-1.93 1.3,-2.15 -0.09,-3.34 -2.02,-1.38 -1.1,-1.49 -1.21,-0.17 -2.19,-1.75 -4.34,-0.47 -3.71,-3.55 -0.63,-0.99 0.89,-3.28 -1.86,-3.21 -6.24,-4.37 -1.14,-2.1 -0.16,-3.34 -5.45,-0.14 -0.35,-5.11 5.87,0.43 -1.06,-2.79 -0.84,-10.2 1.85,-3.12 v 0 l 3.26,-6.22 v 0 l 11.65,-11.53 11.11,-6.39 4.63,0.93 5.94,-1.1 6.63,1.17 -0.02,0.82 v 0 l 1.12,0.3 1.33,-1.57 v 0 l 0.54,1.63 0.6,-0.73 1.77,0.64 0.61,-1.44 6,2.04 -2.1,-2.12 1.35,-0.25 2.05,1.05 1.93,-0.27 1.94,1.03 0.64,1.64 1.46,-0.22 -0.03,-1.78 5.89,-0.66 -0.84,-14.68 v 0 l 0.53,-0.98 5.02,1.12 2.85,-3.2 2.48,2.61 v 0 l 3.13,-3.99 z"
       inkscape:connector-curvature="0"
       style="fill:#cccccc;fill-opacity:1;stroke:#ffffff;stroke-width:0.5;stroke-opacity:1" />
    <path
       id="KZ-ATY"
       title="Atyraū oblysy"
       class="land"
       d="m 64.57,283.8 -0.45,0.05 -0.8,-1.36 -0.89,-3.06 1.36,0.31 0.96,1.08 0.33,1.24 z m 74.76,-85.62 1.53,1.43 2.36,1.06 -0.29,0.8 1.18,0.59 0.88,-2.26 1.02,0.24 1.35,6.85 -0.56,1.7 0.82,1.89 -0.77,1.98 7.92,1.29 0.42,-4.28 1.27,0.33 0.63,-1.08 1.47,1.06 v 1.24 l 3.49,0.3 0.09,4.69 -0.57,0.44 -0.64,4.64 1.82,5.9 -0.7,2.66 3.03,3.39 0.43,5.41 1.32,2.25 -2.27,16.26 2.9,3.67 1.21,4.7 5.83,5.86 15.36,5.05 0.24,3.7 2.29,2.95 -0.36,1.18 1.59,3.13 v 0 l -1.74,-1.04 -1.52,0.11 -0.91,-0.85 -1.34,0.69 -2.06,-0.62 -0.51,-1.56 -0.86,-0.38 -0.99,0.68 -2.44,-1.01 -0.01,-2.43 -0.67,-2.01 -0.95,-0.13 -1.43,0.98 -1.26,-0.78 -2.35,-3.33 -4.58,4.54 -2.15,-0.3 -7.68,0.8 -3.72,1.45 -2.94,0.07 -5.63,1.29 -0.39,0.64 -3,-0.37 0.27,1.24 -1.05,2.01 -4.42,3.29 2.04,1.2 -3.23,2.41 -5.04,2.06 -3,-0.4 -0.62,1.55 -7.07,-1.24 v 0 l 1.05,-0.27 -0.74,-0.26 -0.05,-0.92 0.54,-0.79 1.5,-0.15 -0.92,-0.87 1.05,-0.47 -1.29,-1.9 1.3,-0.71 -2.06,-1.79 1.1,-0.53 -1.04,-0.82 0.17,-0.73 1.4,-0.31 -0.49,-1.13 1.16,-1.17 0.39,0.45 0.07,-0.78 -0.58,-0.35 0.83,-2.38 1.74,-1.47 -0.55,-0.36 0.73,-0.24 -1.64,-1.6 0.05,-2.54 0.73,-0.71 -0.77,-0.29 -0.11,-2.05 -1.46,0.12 0.57,-0.57 -1,-0.67 0.29,-1.47 -0.52,-0.09 -1.42,1.34 -0.88,1.52 -0.26,-2.06 -1.17,0.18 0.21,-1 -1.32,-0.91 0.87,-0.54 -0.75,-1.41 -2.88,0.56 -1.2,1.04 -1.03,-0.9 -0.53,2.41 -0.81,0.51 -11.56,-3.56 0.12,1.08 1.23,1.15 -0.48,1.92 -0.17,-1.75 -1.25,-1.23 -0.47,-1.76 -2.12,1.41 1.01,-0.83 0.68,-2.06 -1.61,1.35 0.42,-1.14 -1.11,-1.28 -5.07,-0.92 -2.79,1.6 -0.15,0.73 -4.51,-0.48 -0.82,0.85 -0.64,-0.06 -1.41,2.16 -0.56,-0.17 0.11,-1.14 h -0.53 l -1.13,1.13 -0.9,2.69 -0.55,-0.38 0.12,-1.07 -0.94,0.52 -0.66,-1.89 -1.5,2.57 -0.21,-1.14 -0.77,0.32 -1.85,3.63 -0.33,-2.35 -1.89,1.8 -1.63,2.96 -2.03,-0.03 -0.77,1.22 0.1,0.95 -1.1,1.1 -1.37,-0.71 0.1,1.38 0.94,0.76 -0.94,-0.03 1.03,1.4 -2.19,-0.92 -0.51,0.83 -0.84,-0.28 -0.28,1.67 -1.25,-1.47 1.03,2.87 -3.33,-2.13 -0.4,0.35 -0.87,-1.95 0.83,-0.17 -0.86,-1.46 -1.44,-0.29 2.51,4.79 -0.87,0.83 -0.6,-0.46 -0.91,-3.59 -1.73,-1.46 -0.88,0.02 0.45,0.96 0.8,0.02 0.48,1.5 -1.28,-0.97 0.35,0.93 -0.46,0.18 -0.47,-1.91 -0.84,-0.24 1.28,2.68 -7.15,-3.47 -0.95,-1.69 -2,-0.74 -0.66,-1.31 -1.55,0.02 -0.29,-1.04 -1.22,-0.35 0.6,-2.13 1.35,-1.15 1.47,0.08 1.83,2.35 0.96,0.11 2.2,-0.26 1.77,-2.09 -0.67,-1.92 -3.68,-4.98 -0.93,-2.15 -1.75,-4.69 -0.69,-4.65 -4.41,-0.55 -3.85,-7.01 -2.52,-2.44 -7.08,0.51 -5.41,-2.02 -0.61,3.99 -3.5,-2.08 -1.58,-1.92 0.9,-0.61 -2.8,-4.71 2.75,-1.75 0.71,0.07 0.22,-0.58 -2.15,-0.77 0.19,-2.83 -1.75,-1.44 v 0 l 2.94,0.98 2.28,-0.12 27.03,3.46 5.38,1.51 9.52,3.77 -0.15,-3 6.05,0.33 1.06,-0.86 3.27,0.08 3.94,-4.04 10.68,-7.17 1.22,-0.03 1.82,-1.73 0.8,0.4 1.79,-1.1 1.08,-3.39 4.02,-0.28 2.31,-1.06 8.22,1.42 0.52,1.06 -0.67,0.47 -0.15,2.4 6.23,1.42 0.69,-1.22 0.85,-0.12 4.27,2.42 2.09,-0.05 1.37,-0.83 -0.44,-1.44 1.35,-5.73 2.35,-0.1 -0.3,-7.15 1.72,0.76 1.16,-2.7 1.2,0.58 6.75,0.01 3.01,-0.95 -0.51,-1.19 z"
       inkscape:connector-curvature="0"
       style="fill:#cccccc;fill-opacity:1;stroke:#ffffff;stroke-width:0.5;stroke-opacity:1" />
    <path
       id="KZ-KAR"
       title="Qaraghandy oblysy"
       class="land"
       d="m 528.16,135.5 6.7,2.43 0.08,2.26 0.85,1.31 -1.29,4.95 0.11,3.03 -1.04,0.24 -0.53,1.1 0.84,1.3 -1.44,1.36 2.86,3.15 5.67,-0.98 1.57,-1.32 0.26,0.82 3.18,0.62 1.07,1.34 -1.12,0.87 1.29,3.31 1.36,-3.41 2.72,2.9 1.12,0.05 1.5,2.58 -0.68,0.4 0.53,1.51 2.24,0.89 0.32,1.21 -0.66,0.28 0.29,0.56 -3.9,1.17 0.03,0.65 -1.24,0.83 0.67,2.29 1.25,-0.06 0.37,0.83 1.95,-0.58 4.02,-2.93 0.94,-1.26 5.7,0.19 0.96,-1.37 0.93,-0.36 0.86,0.92 6.83,-1.88 2.52,1.48 0.92,-0.22 0.9,-2.42 0.45,0.34 1.53,-0.88 2.19,-0.24 2.18,1.3 0.73,-1.28 -0.12,-2.99 1.21,-4.82 2,-1.95 3.75,-0.97 3.44,3.64 4.06,0.16 3.2,2.05 1.15,4.09 -1.55,2.13 2.24,1.6 v 0 l -0.44,1.71 -2.86,2.38 -1.53,2.13 -3.61,1.86 -1.77,0.05 -0.54,2.31 0.59,0.88 -0.45,1.82 0.51,1.37 -2.13,4.29 -9.65,4.07 -0.29,1.71 1.56,1.79 -0.05,1 1.64,0.54 2.92,2.41 0.05,1.88 3.45,2.87 -1.86,0.79 -0.4,-0.57 -1.62,0.84 -0.28,3.07 1.37,2.73 7.96,-1.31 0.8,2.38 -0.8,4.44 -3.58,3.68 -2.48,-0.43 -1.01,0.93 0.22,1.52 -1.54,0.47 0.72,1.48 1.68,0.78 0.27,1.28 3.96,0.2 -0.42,1.03 -1.71,0.07 -0.51,1.5 2.5,2.28 1.96,-0.15 1.38,1.1 -3.62,1.32 1.16,1.67 -1.33,0.01 -0.18,2.4 -0.96,-0.04 -2.13,6.68 0.84,1.35 1.23,5.88 -1.77,-0.78 -1.84,0.29 0.1,2.19 -0.83,2.02 -1.53,0.58 1.74,0.9 1.01,1.72 1.89,1.4 2.89,1.08 0.94,-2.59 1.21,-0.75 2.29,1.12 1.94,-0.87 v 0 l 0.84,14.68 -5.89,0.66 0.03,1.78 -1.46,0.22 -0.64,-1.64 -1.94,-1.03 -1.93,0.27 -2.05,-1.05 -1.35,0.25 2.1,2.12 -6,-2.04 -0.61,1.44 -1.77,-0.64 -0.6,0.73 -0.54,-1.63 v 0 l -1.33,1.57 -1.12,-0.3 v 0 l 0.02,-0.82 -6.63,-1.17 -5.94,1.1 -4.63,-0.93 -11.11,6.39 -11.65,11.53 v 0 l -1.7,2.81 v 0 l -32.12,-0.37 -18.61,0.69 -46.55,0.21 v 0 l -36.76,-0.58 v 0 l -0.31,-2.7 -0.94,-0.28 -7.71,0.43 -25.37,-6.89 -3.59,-2 -3.54,-4 -4.05,-0.35 -9.77,-5.26 -2,-0.06 -9.75,-3.81 -0.85,-0.86 -1.88,1.16 -5.76,-3.23 -2.58,0.2 -5.25,-4.16 -8.03,1.49 5.35,-4.18 v 0 l 22.92,-16.02 4.31,-4.75 -1.77,-0.79 -3.56,-6.23 v 0 l 5.49,-4.99 -1.08,-3.48 7.25,-1.6 -1.49,-1.91 0.67,-1.08 -0.73,-1.77 4.12,0.16 1,-7.53 14.99,2.48 1.44,-0.81 1.41,0.19 2.21,-0.78 1.29,-3.17 6.05,-0.22 5.84,-6.44 2.96,-0.35 1.26,-4.43 2.55,0.26 1.04,-2.58 2.97,-2.71 4.1,-2.4 10.79,-12.97 -0.91,-1.84 0.55,-0.6 -0.68,-1.32 0.69,-0.85 3.24,-0.42 3.57,-1.53 1.36,-1.18 1.73,-2.69 -0.33,-0.8 -2.1,-1.18 -0.09,-0.64 -1.11,-0.72 v 0 l -0.14,-1.69 -1.3,-1.76 3.9,-0.37 1.83,1.43 4.22,-3.17 2.37,-0.85 0.6,-1.11 6.03,-0.17 -0.27,6.81 -0.94,0.57 0.43,2.61 -0.86,1.34 -0.81,3.78 -1.39,1.55 0.67,1.2 1.56,-0.51 0.32,0.79 1.13,0.09 2.52,1.61 2.5,-1.32 1.34,0.62 -0.13,-2.95 1.44,0.76 1.6,-1.01 -0.69,-2.24 2.64,-1.44 0.36,1.7 1.1,-1.06 1.3,2.43 1.13,0.1 -0.47,2.51 3.54,-0.32 6.05,-1.75 0.59,1.72 0.91,-0.3 0.41,0.93 -1.73,2.52 -0.08,2.17 1.2,0.62 4.36,-2.52 2.15,-0.29 0.62,-1.22 -1.21,-3.07 4.19,-1.88 1.4,2.45 0.25,-6.4 2.96,-0.72 2.57,-1.8 -0.41,-0.94 1.52,-1.26 1.74,0.19 0.63,-1.23 1.39,0.02 0.55,-2.92 2.91,-1.24 -0.04,-0.78 0.9,-0.16 0.28,0.94 1.32,-0.5 0.26,1.07 1.4,-0.1 2.2,1.95 -1.33,1.79 0.77,1 -0.59,0.84 0.35,1.46 -1.78,2.51 1.21,0.4 0.48,-0.98 4.08,-0.43 2.43,1.85 -0.27,-0.94 1.3,-0.36 -0.43,-2.9 1.44,-0.48 0.77,-1.2 2.23,1.44 1.61,-0.84 -2.11,-1.43 1.41,-1.25 -0.55,-0.72 0.99,-0.92 0.71,0.35 0.12,-1.03 2.81,-0.17 1.31,-1.53 -0.37,-1.09 0.77,-0.17 1.14,-2.08 3.14,1.33 0.79,-1.34 2.75,-0.68 -0.69,-1.67 5.16,-1.67 2.89,-2.76 -3.53,-1.28 -1.04,2.23 -0.7,-0.49 0.2,-0.63 -1.2,-2.67 -0.85,-0.38 0.32,-1.55 0.94,-0.4 0.53,0.87 1.59,-0.45 -0.31,-0.57 0.53,-0.19 0.56,1.66 1.26,-1.94 z"
       inkscape:connector-curvature="0"
       style="fill:#cccccc;fill-opacity:1;stroke:#ffffff;stroke-width:0.5;stroke-opacity:1" />
    <path
       id="KZ-KUS"
       title="Qostanay oblysy"
       class="land"
       d="m 378.17,27.55 2.24,-0.61 v 0 l 1.41,4.39 -0.56,0.8 2.21,6.08 -3.73,1.33 3.67,2.3 1.36,0.13 1.06,2.81 -7.39,3.38 2.03,6.52 2.49,-0.54 0.04,5.26 -2.45,2.73 0.85,2.54 3.28,0.35 0.2,8.66 2.93,1.83 -0.49,2.16 -2.85,-0.6 -1.27,1.01 -2.05,-0.14 -0.86,1.04 0.7,3.18 0.96,0.06 0.16,3 -0.41,-0.03 0.13,3.67 -2.07,0.54 -0.24,10.23 v 0 l -0.14,7.48 -2.38,1.99 -1.66,8.54 -5.1,2.62 -3.38,-0.33 0.98,3.37 2.43,0.13 1.77,3.67 -1.64,4.77 0.92,0.71 -2.77,2.47 1.67,2.18 -1.1,0.99 4.14,4.01 -1.28,6.04 0.74,1.59 3.87,-0.44 1.21,-3.95 3.64,2.14 0.17,2.47 0.68,-0.61 -0.04,1.16 0.94,-0.46 0.64,0.55 1.49,-0.7 1.01,4.06 2.41,-0.64 1.54,1.11 5.18,1.84 4.81,-1.4 1.67,0.61 1.27,3.16 -2.16,1.28 2.76,4.27 4.58,-2.91 8.47,-1.1 2.31,-1.76 v 0 l 1.11,0.72 0.09,0.64 2.1,1.18 0.33,0.8 -1.73,2.69 -1.36,1.18 -3.57,1.53 -3.24,0.42 -0.69,0.85 0.68,1.32 -0.55,0.6 0.91,1.84 -10.79,12.97 -4.1,2.4 -2.97,2.71 -1.04,2.58 -2.55,-0.26 -1.26,4.43 -2.96,0.35 -5.84,6.44 -6.05,0.22 -1.29,3.17 -2.21,0.78 -1.41,-0.19 -1.44,0.81 -14.99,-2.48 -1,7.53 -4.12,-0.16 0.73,1.77 -0.67,1.08 1.49,1.91 -7.25,1.6 1.08,3.48 -5.49,4.99 v 0 l -4.19,-8 -3.15,-2.2 -3.17,-1.2 -1.13,-1.27 -6.34,-2.15 -0.74,-2.51 1.29,-1.72 -0.12,-1.12 -2.02,-1.8 -4.2,2.29 -5.42,-5.36 -1.39,-4.81 -2.52,0.23 0.5,-1.39 2.91,-0.47 0.38,0.38 0.64,-0.49 -4.56,-7.16 1.65,-2.15 2.29,0.79 -0.63,-0.9 -0.63,-3.45 3.07,-1.87 0.28,-3.2 3.1,-2.75 3.08,2.53 0.94,-3.3 -0.38,-1.56 -4.23,-6.32 -0.39,-1.56 -2.57,-4.09 -1.78,-9.06 -2.72,0.85 -0.38,-3.56 2.2,-1.53 -3.5,-3.41 0.65,-2.25 0.65,-0.11 v -1.2 l -2.88,-1.73 -1.55,1.82 -1.58,-0.62 -1.13,-5.2 -1.36,-2.1 -0.87,1.52 -1.43,0.63 -1.29,-0.63 v 0 l -2.29,-2.37 -1.35,-2.71 -0.62,-0.17 -1.94,1.04 -3.3,-1.77 -3.46,-0.26 -1.43,-2.44 -0.19,-2.09 -5.9,-0.11 -2.4,-0.76 -1.96,-1.86 2.32,-2.32 0.18,-0.82 -2.24,-0.46 -4.33,-2.83 0.05,1.21 -0.82,-0.05 -1.69,-2.04 0.23,-1.85 3.99,-0.67 4.49,-4.52 4.25,-0.42 1.42,-1.98 3.28,-1.33 2.09,-2.03 -1.8,-3.8 -0.1,-1.46 -2.42,-0.44 -0.16,-3.23 -2.45,-1.12 0.28,-3.12 2.43,-0.69 0.81,-1.44 3.45,-3.02 -0.95,-2.17 1.77,0.31 2.34,-1.98 2.61,1.45 1.71,-1.55 2.06,0.89 1.47,1.42 1.43,-1.1 2.19,0.06 0.95,-0.5 2.54,1.91 2.51,-1.74 -0.52,-3.58 -3.58,-0.44 -2.46,-0.98 -2.56,-2.94 -0.88,1.14 -2.02,0.09 -1.06,-0.32 -1.32,-1.4 -2.96,-0.2 -1.16,-0.74 -0.49,-2.93 1.51,-1.66 0.43,-2.14 2.33,0.33 0.34,0.87 0.96,0.28 2.61,-1.38 0.18,-0.8 -0.63,-1.63 -1.03,-0.54 -1.71,0.08 -1.15,0.97 -3.85,-0.32 -1.04,-0.98 -3.64,-0.57 0.06,-1.64 1.56,-0.09 0.8,0.93 0.13,-1.87 1.23,-0.58 2.09,-2.64 -0.22,-1.17 -1.37,-1.59 -2.84,-0.54 0.18,-1.12 0.73,-0.75 2.34,-0.24 0.57,1.24 1.35,0.21 0.4,-2.04 -0.62,-1.11 0.22,-0.69 0.97,-1.3 1.71,-0.52 1.29,0.17 0.67,2.13 1.67,0.79 0.61,1.36 0.88,-1.9 1.54,-0.58 1.05,1.49 1.21,-1.59 -0.07,0.76 1.11,0.04 -0.65,1.39 2.09,0.66 1.17,-0.3 -0.76,-2.42 1.36,-0.89 2.57,0.75 4.5,-0.73 1,0.95 -1.47,1.01 0.55,1.94 2.11,1.21 0.84,-2.8 3.99,-3.17 0.32,-1.15 5.92,0.27 0.79,-0.63 -0.03,-2.01 1.07,-0.52 3.81,0.32 7.75,-2.81 2.9,0.11 0.69,-1.19 0.67,0.98 0.94,-1.2 2.05,0.34 2.09,-0.77 2.75,0.06 0.8,-1.13 1.03,0.22 1.81,-1.31 2.34,-0.3 0.24,1.55 3.99,-2.1 2.93,2.7 2.15,-0.06 0.34,-0.86 -0.98,-2.79 0.22,-2.43 3.04,-1.88 2.41,0.27 -0.63,-1.46 0.36,-0.91 3.19,0.18 2.39,1.16 0.92,-0.86 0.72,-2.15 2.05,-0.64 0.5,0.41 -0.37,2.32 z"
       inkscape:connector-curvature="0"
       style="fill:#cccccc;fill-opacity:1;stroke:#ffffff;stroke-width:0.5;stroke-opacity:1" />
    <path
       id="KZ-KZY"
       title="Qyzylorda oblysy"
       class="land"
       d="m 244.03,301.63 1.36,-1.68 2.58,1 0.36,3.22 -0.59,1.63 1,2.81 1.31,1.04 0.34,1.63 -9.64,-6.98 0.73,-2.67 z m 15.81,-0.72 h -2.07 l 0.14,-3.51 4.89,-0.62 2.48,0.28 0.48,1.03 3.86,0.41 0.28,0.48 h -5.17 l -2.76,1.52 z m 40.91,-57.74 1.6,3.05 2.42,-0.37 5.36,6.82 -0.84,1.94 5.59,0.88 0.85,1.22 1.47,-0.47 -5.35,4.19 8.03,-1.5 5.24,4.17 2.59,-0.2 5.76,3.22 1.88,-1.16 0.85,0.86 9.75,3.82 2,0.05 9.77,5.26 4.05,0.35 3.54,4 3.59,1.99 25.38,6.89 8.64,-0.15 0.04,5.01 3.07,2.37 0.59,1.89 -1.73,2.91 -2.03,9.46 3.69,3.06 3.09,1.32 0.12,19.1 -0.61,2.22 2.07,2.03 1.18,-0.38 2.23,1.25 0.05,0.9 2.23,2.71 5.33,3.81 -1.37,1.36 -0.75,-0.61 -2.18,1.54 0.98,2.07 -0.23,2.88 -0.83,0.4 -1.92,-1.67 0.01,4.22 -1.85,1.89 -0.25,3.09 -1.97,0.56 0.58,2.57 0.83,-0.51 -0.31,-1.67 1.07,-0.61 -0.21,1.21 1.13,-0.05 -0.34,1.42 0.75,1.8 1.38,-0.37 -0.08,0.88 -8.35,4.44 -5.19,1.92 -4.86,3.66 -5.47,5.52 -2.73,-1.68 -7.85,8.15 -1.69,-0.41 -0.15,-15.78 -5.28,2.48 -3.42,-11.52 -6.93,-6.44 -2.4,-5.3 -1.08,-0.86 -2.02,0.23 -9.63,4.45 -21.97,-1.95 -26.24,4.99 -1.03,-0.69 -16.11,-19.3 -0.93,-2.96 -9.1,-6.57 1.56,-1.18 0.95,-3.9 -1.27,-4.76 -0.77,-0.95 -1.18,-0.09 -1.77,-3.67 0.45,-5.98 -0.45,-1.63 -0.91,-0.68 1.04,-4.3 -0.73,-2.9 -0.95,-1.04 -0.14,-1.95 1,-0.68 1.18,-4.37 2.76,-0.68 1,-2.17 1.81,-1.68 2.04,-0.36 1.4,-1.27 3.72,-1.81 1.22,-2.08 0.25,-4.99 -0.75,-0.11 -1.07,0.86 -5.67,-0.43 -1.92,-2.35 0.43,-4.7 -2.35,-1.28 -2.67,0.11 -0.11,0.96 3.31,1.6 v 1.28 l -1.5,1.28 -1.07,0.53 -2.78,-1.07 v 3.1 l -0.72,0.51 -0.13,-3.61 -0.53,-1.07 -0.94,-0.94 h -1.34 l -4.41,2.94 -0.8,1.07 -0.12,2 1.71,2.9 1.36,0.59 5.53,-0.95 0.54,1.04 2.04,1.09 3.08,-2.13 0.18,1.77 1.54,2.58 -0.45,3.44 -2.08,1.31 -3.67,0.5 -3.4,-2.22 -4.62,-0.82 -2.63,2.13 -1.36,0.09 -0.63,-0.36 0.36,-1.9 -0.5,-3.4 -0.77,-0.95 -4.44,-0.23 -0.63,0.14 0.05,1.09 2.63,4.53 -0.36,1.31 0.45,3.44 -0.77,2.27 -1.31,-0.05 -0.82,2.4 -0.72,0.59 -0.86,-0.32 -3.22,0.5 0.14,-2.76 2.31,-3.44 -0.82,-0.59 -0.95,-0.5 -1.9,1.54 -1.22,0.09 -2.11,-0.78 13.45,-17.94 7.83,-7.27 5.96,-0.49 0.56,-6.16 8.14,0.67 6.68,-17.89 11.81,-2.73 z"
       inkscape:connector-curvature="0"
       style="fill:#cccccc;fill-opacity:1;stroke:#ffffff;stroke-width:0.5;stroke-opacity:1" />
    <path
       id="KZ-MAN"
       title="Mangghystaū oblysy"
       class="land"
       d="m 79.57,322.29 0.86,-0.05 -1.35,1.43 -0.01,-2.48 z m 1.46,-3.45 0.84,-0.72 0.51,0.66 -0.03,1.64 0.88,0.45 -1.79,0.19 0.43,-0.61 -0.53,-0.2 0.23,-0.83 -1.48,-1.02 0.47,-0.68 -0.22,0.52 z m -12.15,-3.21 1.11,0.54 -1.02,0.14 -0.48,0.64 0.33,2.31 0.68,0.2 -0.24,0.75 0.48,0.69 1.16,0.58 1.2,-0.35 -0.32,0.97 -2.43,-0.88 -0.76,-1.21 -0.65,-2.19 z m 5.2,-0.4 0.78,0.13 0.28,1.98 -1.95,3.4 -0.17,-2.65 -0.78,-1.81 z m 44.97,-12.35 0.72,-0.15 0.53,1.42 0.26,2.14 -0.71,0.19 0.09,0.36 -0.87,-0.26 -1.65,-2.5 1.12,-1.03 -0.3,-0.68 z m 3.35,-7.15 7.07,1.24 0.62,-1.55 3,0.4 5.04,-2.06 3.23,-2.41 -2.04,-1.2 4.42,-3.29 1.05,-2.01 -0.27,-1.24 3,0.37 0.39,-0.64 5.63,-1.29 2.94,-0.07 3.72,-1.45 7.68,-0.8 2.15,0.3 4.58,-4.54 2.35,3.33 1.26,0.78 1.43,-0.98 0.95,0.13 0.67,2.01 0.01,2.43 2.44,1.01 0.99,-0.68 0.86,0.38 0.51,1.56 2.06,0.62 1.34,-0.69 0.91,0.85 1.52,-0.11 1.74,1.04 v 0 l 1.76,4.85 2.78,20.57 v 0 l -13.76,4.52 0.05,97.63 -2.58,-0.1 -1.14,1.14 -0.84,-0.49 -1.88,0.35 -1.16,1.11 -0.79,-1.12 -0.59,0.88 -1.39,-0.67 -4.42,-4.8 -3.24,-6.37 -2.29,-2.89 0.09,-2.32 -2.36,-2.93 -12.55,-8.32 -4.57,0.14 -7.13,1.14 -10.74,4.02 -11.47,9.7 0.96,-3.71 -1.4,-4.53 0.29,-2.04 2.61,-3.91 2.16,-6.49 -0.7,-2.13 -1.75,-2.21 0.37,-0.56 0.15,1.01 1.76,1.8 0.6,1.63 0.74,-1.21 -0.07,-2.75 -1.68,-0.7 -0.67,0.28 -0.13,-1.62 -2.68,-0.79 -2.35,0.1 -1.22,1.14 -1.07,-1.75 -0.98,-0.5 -2.12,0.09 -3.12,1.05 -2.8,-5.19 -2.24,-2.12 -0.1,-1.99 -7.35,0.77 0.9,-6.99 -0.59,-2.95 -1.39,-2.29 -1.12,-0.39 -2.56,-4.55 -0.73,-3.94 -2.36,-2.27 0.15,-1.78 -0.9,-2.83 -3.07,-1.9 -5.1,-0.65 -2.59,-1.47 -0.67,-1.3 -0.31,-5.04 0.79,1.06 0.95,-2.76 2.8,0.56 2.63,-0.26 0.71,0.57 2.02,0.17 1.51,-0.82 1.78,0.68 0.94,1.33 0.97,0.11 -0.01,1.02 1.74,1.2 2.07,0.04 1.66,-1.8 1.68,-0.44 0.08,0.8 0.75,0.52 0.66,-0.62 1.68,0.23 -0.05,-0.66 -1.9,-1.1 -3.18,0.23 0.28,-1.04 -0.59,0.25 0.04,-0.93 -1.63,-2.68 -3.61,-2.52 -0.49,0.57 -1.59,-0.37 -0.16,-1.89 1.83,-2.36 1.84,-0.25 2.26,-1.99 1.39,0.41 0.1,-3.91 1.28,-2.62 1.8,-1.93 0.94,0.48 2.3,-0.25 2.26,-1.35 0.85,-1.29 3.96,1.47 2.05,-0.52 4.47,0.12 3.17,-0.8 2.57,0.41 1.37,1.62 1.16,-0.21 1.94,0.64 -1.32,-0.88 0.35,-0.38 -0.77,-1.77 0.17,-1 2.99,1.33 1.75,1.62 -1.72,-2.43 -1.03,-0.05 -1.6,-1.19 0.72,-1.12 2.11,-0.34 -0.42,-1.23 -2.1,1.58 -0.17,-1.06 -0.6,-0.08 1.16,-1.54 1.75,0.72 -2.04,-2.23 0.87,-0.53 -0.39,-0.5 1.58,-0.35 z"
       inkscape:connector-curvature="0"
       style="fill:#cccccc;fill-opacity:1;stroke:#ffffff;stroke-width:0.5;stroke-opacity:1" />
    <path
       id="KZ-PAV"
       title="Pavlodar oblysy"
       class="land"
       d="m 587.72,35.77 1.3,0.19 0.4,1.8 -0.62,0.95 0.06,1.53 -1.65,1.38 -0.17,1.08 -1.83,1.13 -0.89,-1.14 -3.53,-0.25 0.09,1.21 1.29,1.74 0.96,2.85 4.17,4.05 15.68,12.69 6.62,6.57 10.34,16.9 9.48,18.17 4.42,7.29 3.69,8.06 v 0 l -1.46,0.17 -0.52,3.05 -2.98,0.76 0.52,1.7 -2.51,2.46 -0.54,-0.65 -3.89,0.57 0.09,1.86 1,-0.17 -0.12,2.73 -1.01,-0.35 -3.98,2.53 -2.46,0.77 -0.44,-1.01 -1.19,0.53 -0.25,1.12 -2.1,1.12 -0.45,-0.36 -1.66,1.61 2.33,3.37 0.53,3.1 1.48,0.45 2.48,2.6 5.32,3.34 -0.7,6.81 1.84,0.52 0.56,3.96 -1.33,1.38 -3.34,6.07 -2.68,1.23 -3.15,-0.78 -8.35,-3.48 -1.15,-2.02 -1.29,0.76 v 0 l -2.24,-1.6 1.55,-2.13 -1.15,-4.09 -3.2,-2.05 -4.06,-0.16 -3.44,-3.64 -3.75,0.97 -2,1.95 -1.21,4.82 0.12,2.99 -0.73,1.28 -2.18,-1.3 -2.19,0.24 -1.53,0.88 -0.45,-0.34 -0.9,2.42 -0.92,0.22 -2.52,-1.48 -6.83,1.88 -0.86,-0.92 -0.93,0.36 -0.96,1.37 -5.7,-0.19 -0.94,1.26 -4.02,2.93 -1.95,0.58 -0.37,-0.83 -1.25,0.06 -0.67,-2.29 1.24,-0.83 -0.03,-0.65 3.9,-1.17 -0.29,-0.56 0.66,-0.28 -0.32,-1.21 -2.24,-0.89 -0.53,-1.51 0.68,-0.4 -1.5,-2.58 -1.12,-0.05 -2.72,-2.9 -1.36,3.41 -1.29,-3.31 1.12,-0.87 -1.07,-1.34 -3.18,-0.62 -0.26,-0.82 -1.57,1.32 -5.67,0.98 -2.86,-3.15 1.44,-1.36 -0.84,-1.3 0.53,-1.1 1.04,-0.24 -0.11,-3.03 1.29,-4.95 -0.85,-1.31 -0.08,-2.26 -6.7,-2.43 v 0 l 2.1,-2.48 0.29,-2.22 4.33,-2.83 1.98,0.56 2.28,-1.79 -1.9,-1.09 -2.29,-0.21 -0.99,-2.29 -3.56,1.75 0.1,-5.89 3.34,-2.87 1.19,-0.23 -0.41,-0.87 -0.45,-19.96 -1.02,-0.15 -0.06,-0.56 v 0 l -0.11,-1.26 -3.63,-0.27 -0.99,-2.62 0.4,-1.19 0.9,1.24 1.42,0.21 0.83,1.78 0.96,-0.41 -0.27,-3.08 1.24,-0.5 -0.19,-1.69 0.99,-0.53 -1.09,-2.95 -1.92,0.67 -0.89,-0.28 -1.17,3.16 -2.63,0.04 -0.49,-2.57 1.38,-1.62 -0.64,-1.35 -2.15,1.51 -0.47,-0.49 1.16,-0.95 1.85,-3.51 -0.13,-1.15 2.06,-1.79 -0.91,-1.42 -1.01,0.68 -0.31,-0.75 -1.11,0.41 -0.07,0.7 -2.78,2.43 -0.48,-2.89 0.45,-3.07 1.64,0.8 0.74,-0.76 -2.61,-4.79 v 0 l 2.52,-2.47 0.33,-1.46 1,0.25 0.49,-2.12 1.36,0.16 1.72,1.08 1.35,-2.03 3.32,0.75 -0.2,2.26 1.7,0.16 0.36,-1.69 1.4,0.3 0.77,3.43 2.37,0.89 1.57,-3.87 -0.84,-0.49 0.58,-2.89 3.29,0.54 0.87,-2.93 1.66,-0.1 0.78,-1.98 3.29,0.22 0.69,0.95 8.48,-6.07 0.55,-1.36 -1.65,-2.36 2.58,-1.33 1.59,0.54 11.93,-5.56 -0.42,-1.1 0.55,-1.62 4.3,1.03 1.99,-0.74 1.82,0.04 1.62,-2.36 3.8,-1.3 0.05,1.01 z"
       inkscape:connector-curvature="0"
       style="fill:#cccccc;fill-opacity:1;stroke:#ffffff;stroke-width:0.5;stroke-opacity:1" />
    <path
       id="KZ-SEV"
       title="Soltüstik Qazaqstan oblysy"
       class="land"
       d="m 439.81,1.99 0.74,1.3 3.39,-1.05 2.25,0.85 3.47,-0.06 3.76,1.77 1.55,2.97 2.13,0.53 1.92,1.81 1.31,0.04 1.33,-1.3 2.13,-0.92 1.45,-2.78 3.05,0.76 1.43,-1.04 2.3,-0.31 0.65,2.31 3.12,5.32 0.11,4.35 -0.49,1.87 1,1.64 0.23,2.22 1.52,2.2 1.93,0.5 1.27,1.2 0.02,1.34 -2.02,1.07 -0.09,2.91 0.74,3.45 -0.57,2.36 -3.64,-0.57 0.15,1.57 1.56,0.86 -0.66,1.99 1.1,1.05 0.7,2 0.94,0.13 1.91,-2.22 0.87,-0.18 2.86,0.9 0.26,1.57 1.36,-0.26 1.37,0.46 1.77,-1.18 -0.41,-1.77 0.81,-1.87 4.97,0.86 1.43,1.61 -0.06,0.63 1.51,0.72 0.44,-1.72 -2.15,-1.48 0.85,-1.96 -1.73,-2.25 1.93,-0.23 2.43,1.45 0.25,2.12 0.9,0.57 -0.27,1.65 3.57,1.64 0.06,0.94 -1.19,-0.26 -1.26,0.46 -0.12,0.54 1.1,1.65 -0.82,2.81 2,1.43 1.43,-2.63 3.26,1.32 -1.11,-3.19 -2.8,-0.01 0.46,-2.07 1.1,-0.81 7.37,1.18 -0.06,1.47 1.26,0.2 0.52,1.7 4.26,1.41 2.18,-0.08 0.16,-1.13 2.28,1.33 -0.3,-1.86 2.32,-1.19 0.04,-1.07 2.27,0.67 -1.15,6.32 -4.39,-0.66 -0.65,1.21 0.48,1.05 -2.09,0.6 -0.37,3.51 -1.36,0.22 0.46,1.23 -0.7,2.31 2.98,1.34 -0.41,1.78 1.39,1 v 0 l 2.61,4.79 -0.74,0.76 -1.64,-0.8 -0.45,3.07 0.48,2.89 2.78,-2.43 0.07,-0.7 1.11,-0.41 0.31,0.75 1.01,-0.68 0.91,1.42 -2.06,1.79 0.13,1.15 -1.85,3.51 -1.16,0.95 0.47,0.49 2.15,-1.51 0.64,1.35 -1.38,1.62 0.49,2.57 2.63,-0.04 1.17,-3.16 0.89,0.28 1.92,-0.67 1.09,2.95 -0.99,0.53 0.19,1.69 -1.24,0.5 0.27,3.08 -0.96,0.41 -0.83,-1.78 -1.42,-0.21 -0.9,-1.24 -0.4,1.19 0.99,2.62 3.63,0.27 0.11,1.26 v 0 l -7.52,-0.56 -1.39,-2.67 -1.45,0.07 -0.24,-1.28 -2.64,0.06 -3.72,-1.89 -2.49,1.06 -0.54,-5.75 -0.82,-0.93 -0.42,-3.4 -0.66,0.06 -0.63,0.9 -2.1,0.02 -1.81,0.9 -0.83,-0.78 -3.75,0.83 -0.91,2.38 -4.6,0.35 -5.67,-0.71 -1.2,-2.32 -0.02,-1.1 1.24,-0.56 -0.62,-1.71 1.41,-3.45 -4.03,-4.38 0.12,-1.23 -1.98,-0.05 -0.65,1.31 -1.21,0.17 -1.73,1.49 -1.72,-0.02 -0.21,-0.58 -3.14,-0.56 0.11,-2.88 -8.21,0.23 -0.47,2.71 -1.76,0.26 0.36,2.36 -1.89,0.25 -0.29,-1.54 -2.08,-3.06 -0.98,0.47 -3.8,0.1 0.58,-0.51 -0.08,-0.96 0.82,-0.07 -0.22,-0.85 0.84,-0.48 -0.17,-1.8 -1.39,0.57 -2.41,-0.61 -0.44,0.65 -0.66,-0.33 0.47,-1.06 -0.22,-3.33 -1.07,-0.37 -0.19,-1.54 -4.22,-0.07 -0.73,0.78 -0.95,0.06 -0.46,0.93 -1.08,-0.23 -0.36,1.63 -0.82,0.08 0.33,1.54 1.08,0.23 -0.63,1.46 -1.34,-0.38 -0.4,-2.65 -0.81,-0.21 -0.23,-0.84 -1.22,-0.24 -0.06,-1.39 -1.91,-0.15 0.06,1.67 -2.74,0.2 -0.09,-0.98 -1.91,-0.14 -0.17,0.81 -1.5,-0.11 1,2.14 -0.44,0.52 -2.86,-0.08 0.06,1.65 0.95,-0.06 -0.6,1.19 -0.51,-0.59 -0.99,0.75 -0.04,0.82 -1.38,0.31 -0.59,0.91 1.4,2.03 0.09,1.1 1.07,0.36 0.61,1.27 2.17,0.17 -0.25,2.3 1.35,0.11 0.34,1.11 -0.07,1.36 -0.69,0.22 1.14,1.58 -2.99,2.76 0.92,3.19 -1.07,-0.22 1.65,1.88 -3.72,1.48 -0.33,1.19 -2.2,0.92 -1.4,3.53 -2.14,-0.29 -0.83,0.48 -0.76,1.69 -2.83,-0.06 0.43,2.18 1.19,0.48 0.22,0.95 -2.43,2.65 -0.77,-0.59 -0.59,1.03 0.5,0.7 -1.13,1.12 -2.58,-2.18 -2.77,-1.12 -1.14,-1.42 -4.32,0.12 0.22,6.69 -4.11,-1.46 -1.24,0.71 -2.15,-0.27 -1.97,-1.06 h -6.23 l -0.14,-3.08 -3.7,0.57 -2.9,1.29 -1.65,-3.46 -3.13,-0.19 v 0 l 0.24,-10.23 2.07,-0.54 -0.13,-3.67 0.41,0.03 -0.16,-3 -0.96,-0.06 -0.7,-3.18 0.86,-1.04 2.05,0.14 1.27,-1.01 2.85,0.6 0.49,-2.16 -2.93,-1.83 -0.2,-8.66 -3.28,-0.35 -0.85,-2.54 2.45,-2.73 -0.04,-5.26 -2.49,0.54 -2.03,-6.52 7.39,-3.38 -1.06,-2.81 -1.36,-0.13 -3.67,-2.3 3.73,-1.33 -2.21,-6.08 0.56,-0.8 -1.41,-4.39 v 0 l 4.77,-1.83 6.06,-1.49 1.52,0.28 1.21,-1.36 4.87,-0.29 0.79,-0.84 3.71,-0.72 0.65,-1.55 4.63,0.96 1.65,-0.49 2.43,-1.01 0.59,-2 1.44,-1.17 3.02,1.14 3.46,-0.5 0.34,-2.18 1.33,-1.57 -1.64,-1.95 -0.49,-2.05 2.2,-0.35 1.01,0.67 0.87,-0.63 3.7,-0.19 0.75,0.44 0.58,-2.1 1.1,-0.98 0.4,-2.06 0.8,-0.63 4.44,2.4 0.09,-1.81 -0.55,-0.62 -0.97,0.04 -0.09,-1.41 0.65,-1.09 2.06,0.43 z"
       inkscape:connector-curvature="0"
       style="fill:#cccccc;fill-opacity:1;stroke:#ffffff;stroke-width:0.5;stroke-opacity:1" />
    <path
       id="KZ-VOS"
       title="Shyghys Qazaqstan oblysy"
       class="land"
       d="m 641.39,130.1 10.26,20.76 -0.18,-2.83 0.44,0.55 1.95,-0.01 0.14,-2.27 0.99,-0.64 2.44,-0.28 1.03,-1.17 0.76,-0.01 0.18,-3.27 -0.82,-1.42 0.09,-2.44 3.53,-0.03 0.17,-1.83 0.78,-1.3 4.51,1.6 0.11,0.65 2.75,1.41 0.98,-1.12 0.44,0.16 0.4,1.78 -1.33,3.39 -0.3,2.88 1.88,0.06 3.19,-1.21 1.33,0.02 0.84,2.36 -0.42,0.57 1.26,2.07 -0.55,2.16 0.58,0.14 5.51,-0.42 0.22,-1.3 0.36,0.57 1.34,-0.78 2.43,0.35 2.98,1.86 1.08,-0.11 1.26,-1.02 5.2,0.62 3.16,-2.22 0.51,-3.26 0.78,-0.22 3.89,1.04 2.25,-2.25 0.34,-1.43 1.1,0.41 0.78,1.08 0.88,-0.67 2.85,0.3 0.54,-0.42 -0.25,0.88 3.18,0.78 2.49,1.71 2,0.36 2.94,3.16 0.51,2.24 5.1,6.15 -0.45,1.9 0.92,2.87 -0.43,1.69 1.73,2.36 1.67,0.08 1.3,-0.86 1.59,1.45 4.95,2.05 0.38,1.14 1.9,0.18 1.28,1.05 0.7,1.6 -0.89,0.22 -0.14,2.25 0.68,0.86 1.72,0.52 1.95,4.7 -0.12,2.26 1.54,1.57 2.76,0.78 0.63,-0.82 1.91,-0.37 2.39,1.39 1.53,-0.41 1.42,0.67 1.8,-0.18 0.46,0.35 -0.16,1.35 0.87,0.33 1.05,-0.8 1.39,-0.11 1.24,1.65 0.68,-0.6 -0.21,-0.96 0.87,-2.07 3.65,-1.66 3.53,-3.5 0.1,-1.43 3.68,0.01 -0.69,1.8 0.3,0.96 -1.64,1.09 -0.58,-0.18 -0.92,1.17 0.25,1.78 3.25,1.12 -0.33,0.52 0.75,0.62 -0.2,1.68 1.85,1.05 -0.13,1.89 0.78,1.4 1.14,0.17 0.71,1.22 2.95,0.26 1.78,1.31 0.61,3.07 -3.45,-1.51 -3.22,1.49 -1.88,-0.42 -0.83,1.9 -1.92,1.49 0.07,2.51 1.5,2.54 -1.15,1 0.22,2.33 -1.51,2.23 -1,0.41 -0.88,2.39 -3.01,1.42 -0.85,-0.45 -1.39,0.26 -2.01,1.91 -3.87,-0.4 -3.4,0.69 -2.11,1.73 -2.34,6.08 0.03,2.13 -1.36,4.16 1.54,9.55 -0.34,2.52 2.01,4.13 -0.2,4.12 -2.33,1.15 -0.91,3.73 -5.95,0.16 -0.64,1.33 -2.33,2.09 -1.83,0.53 -0.26,1.21 -3.03,1.27 -2.15,-0.37 1.76,-1.94 -1.94,-2.73 -3.47,0.76 -1.51,-0.92 -4.16,0.3 -3.43,0.98 -1.19,-0.86 -7.69,-1.78 -2.38,-2.09 -0.95,0.27 -1.12,-1.47 -2.07,-0.12 -1.36,-1.29 -2.78,0.33 -0.72,4.43 -1.12,1.24 -0.89,3.85 -1.61,3.59 -1.64,7.39 -3.33,7.16 -0.91,6.92 -3.81,8.66 -0.65,3.4 v 0 l -2.01,0.72 -0.71,-0.62 0.36,-5.78 -3.15,-3.43 -1.52,-5.75 v 0 l -6.44,-7.55 0.69,-0.91 -1.12,-0.13 0.98,-0.73 v 0 l 0.36,-0.98 -1.09,1.18 -1.36,-0.54 v 0 l -0.65,-0.14 0.73,-1.14 -0.57,-0.01 v 0 l -0.87,1.23 -1.2,-2.16 v 0 l -2.01,0.74 v 0 l -1.09,-1.66 -6.04,-0.15 -12.3,-6.08 0.08,-2 -4.15,-1.72 -9.25,3.23 -6.1,-8.55 -8.65,0.97 -0.95,-2.44 -2.45,-0.22 -3.29,-2.65 v 0 l -3.28,-2.76 -3.13,3.99 v 0 l -2.48,-2.61 -2.85,3.2 -5.02,-1.12 -0.53,0.98 v 0 l -1.94,0.87 -2.29,-1.12 -1.21,0.75 -0.94,2.59 -2.89,-1.08 -1.89,-1.4 -1.01,-1.72 -1.74,-0.9 1.53,-0.58 0.83,-2.02 -0.1,-2.19 1.84,-0.29 1.77,0.78 -1.23,-5.88 -0.84,-1.35 2.13,-6.68 0.96,0.04 0.18,-2.4 1.33,-0.01 -1.16,-1.67 3.62,-1.32 -1.38,-1.1 -1.96,0.15 -2.5,-2.28 0.51,-1.5 1.71,-0.07 0.42,-1.03 -3.96,-0.2 -0.27,-1.28 -1.68,-0.78 -0.72,-1.48 1.54,-0.47 -0.22,-1.52 1.01,-0.93 2.48,0.43 3.58,-3.68 0.8,-4.44 -0.8,-2.38 -7.96,1.31 -1.37,-2.73 0.28,-3.07 1.62,-0.84 0.4,0.57 1.86,-0.79 -3.45,-2.87 -0.05,-1.88 -2.92,-2.41 -1.64,-0.54 0.05,-1 -1.56,-1.79 0.29,-1.71 9.65,-4.07 2.13,-4.29 -0.51,-1.37 0.45,-1.82 -0.59,-0.88 0.54,-2.31 1.77,-0.05 3.61,-1.86 1.53,-2.13 2.86,-2.38 0.44,-1.71 v 0 l 1.29,-0.76 1.15,2.02 8.35,3.48 3.15,0.78 2.68,-1.23 3.34,-6.07 1.33,-1.38 -0.56,-3.96 -1.84,-0.52 0.7,-6.81 -5.32,-3.34 -2.48,-2.6 -1.48,-0.45 -0.53,-3.1 -2.33,-3.37 1.66,-1.61 0.45,0.36 2.1,-1.12 0.25,-1.12 1.19,-0.53 0.44,1.01 2.46,-0.77 3.98,-2.53 1.01,0.35 0.12,-2.73 -1,0.17 -0.09,-1.86 3.89,-0.57 0.54,0.65 2.51,-2.46 -0.52,-1.7 2.98,-0.76 0.52,-3.05 1.46,-0.17 v 0 z"
       inkscape:connector-curvature="0"
       style="fill:#cccccc;fill-opacity:1;stroke:#ffffff;stroke-width:0.5;stroke-opacity:1" />
    <path
       id="KZ-YUZ"
       title="Ongtüstik Qazaqstan oblysy"
       class="land"
       d="m 403.25,290.73 36.76,0.58 v 0 l 3.52,5.75 4.4,12.5 2.4,10.39 1.11,1.58 3.24,20.05 -0.73,0.49 -0.35,2.31 -1.35,2.11 -0.32,3.09 -2.39,6.65 -2.62,3.75 2.04,0.72 -0.54,0.84 0.84,2.6 1.49,-0.43 -0.22,0.97 1.35,-0.21 2.06,1.5 0.6,-1.48 0.44,0.04 0.38,1.57 1.75,0.16 0.48,0.7 0.69,-0.27 0.48,0.6 -0.35,1.17 0.99,0.96 0.72,-0.48 0.5,0.38 -0.7,1.24 1.24,0.77 -0.5,0.5 0.66,0.93 -0.2,3.46 0.38,0.47 -0.48,1.26 2.04,1.26 1.43,-0.08 0.22,0.88 1.15,0.43 0.11,0.86 0.63,0.17 0.8,1.45 1.06,0.2 1.32,2.31 1.55,-0.41 v 1.62 l 0.84,0.04 1.1,1.6 v 0 l -0.18,1.97 1.24,0.13 -1.95,1.69 -0.84,-0.41 -0.64,0.6 -1.66,2.02 -0.97,2.82 -1.32,-0.46 -0.25,-1.32 -2.63,-1.59 -0.38,1.24 -1.33,1.26 0.16,1.53 -1.76,0.9 -1.56,2.51 -1.9,1.07 -0.44,1.03 -0.95,-0.58 -0.8,1.8 -1.23,0.5 -1.02,-0.57 -4.11,1.58 -2.06,2.57 -1.82,0.93 -0.31,0.54 0.52,1.12 -4.31,0.03 -1.87,1.82 -0.48,1.2 -1.08,-0.06 -1.71,3.83 -1.6,1.13 -2.84,4.65 -1.37,0.8 -0.22,-0.68 0.75,-0.51 -1.17,-0.2 -0.21,-0.64 -0.99,0.62 -2.2,-0.38 0.01,0.54 1.52,0.1 0.37,0.58 -0.31,4.56 3.22,4.71 -1.81,0.72 -1.01,-0.07 -0.34,0.47 -2.05,-0.6 0.23,-0.48 -0.8,-0.66 -0.79,0.21 -1.72,-1.47 -1.59,-0.56 -1.51,-1.69 -3.45,-1.71 -0.6,-0.84 0.31,-0.96 1.71,-0.06 -0.04,-2.19 0.62,-0.62 -0.58,-1.45 1.63,-0.84 -1.16,-0.63 -2.25,0.88 -3.21,-2.98 -7.52,0.06 -14.41,-1.31 -1.46,-16.66 -10.13,-1.23 0.52,-11.11 3.08,0.61 7.85,-8.14 2.73,1.68 5.47,-5.52 4.86,-3.65 5.19,-1.92 8.35,-4.44 0.08,-0.88 -1.38,0.37 -0.75,-1.8 0.34,-1.42 -1.13,0.05 0.21,-1.2 -1.06,0.6 0.31,1.68 -0.83,0.51 -0.58,-2.57 1.97,-0.57 0.24,-3.08 1.85,-1.9 -0.01,-4.22 1.92,1.67 0.83,-0.4 0.22,-2.88 -0.98,-2.06 2.18,-1.54 0.75,0.6 1.37,-1.36 -5.34,-3.81 -2.23,-2.71 -0.05,-0.91 -2.23,-1.25 -1.18,0.38 -2.07,-2.02 0.62,-2.23 -0.12,-19.1 -3.09,-1.32 -3.69,-3.06 2.02,-9.46 1.74,-2.91 -0.59,-1.89 -3.07,-2.37 z"
       inkscape:connector-curvature="0"
       style="fill:#cccccc;fill-opacity:1;stroke:#ffffff;stroke-width:0.5;stroke-opacity:1" />
    <path
       id="KZ-ZAP"
       title="Batys Qazaqstan oblysy"
       class="land"
       d="m 85.32,122.33 2.58,-0.15 0.76,0.55 3.98,-0.68 0.55,0.83 1.23,0.3 0.14,1.23 -0.27,1.49 -2.13,0.32 0.65,1.73 2.98,0.55 1.75,-0.88 0.91,-1.56 0.39,0.84 0.8,-0.01 0.36,0.61 -0.54,1.07 0.6,0.36 2.83,-1.69 -0.75,-2.11 1.96,-2.88 1.8,0.12 1.5,0.85 1.56,-0.13 1.03,-0.93 0.25,-1.04 1.7,0.06 1.29,-1.52 0.67,0.39 0.4,3.02 2.35,3.42 0.19,1.19 0.78,0.53 -0.07,0.85 1.01,-0.32 -0.03,0.54 0.62,0.05 -0.2,-0.45 0.57,0.11 0.24,-0.79 0.56,1.02 -0.14,-0.62 1.28,-0.18 -0.1,-0.68 0.46,0.25 0.16,-0.83 0.77,0.85 1.54,-0.15 -0.47,0.87 1.12,-0.71 0.5,1.18 0.48,-0.78 0.55,0.26 1.33,-0.76 1.66,0.3 -0.31,-1.06 0.9,-0.33 0.04,0.73 1.33,0.14 0.32,0.66 1.88,-0.84 2.31,2.31 1.56,0.34 1.09,1.23 -0.05,0.58 -0.56,0.08 0.53,0.67 -0.43,1.23 1.34,2.46 1.41,0.72 1.15,-0.31 0.8,0.68 0.89,-0.33 2.66,1.22 0.5,0.85 1.57,0.76 0.03,1.78 0.4,-0.42 0.55,0.81 -0.48,0.61 0.3,0.73 2.25,3.43 2.83,0.39 1.35,0.73 -1.74,6.87 1.65,2.55 1.11,-0.35 v 0 l 0.3,0.43 -2.45,2.92 0.33,0.87 -2.07,2.2 1.46,2.03 -0.29,4.68 2.29,1.67 0.25,1.52 -0.8,2.65 -1.87,3.29 1.14,1.39 h -2.15 l -1.76,2.77 0.45,0.83 -1.91,1.13 -4.06,-0.25 -0.35,1.45 -1.9,-0.01 -1.5,1.35 -0.79,2.02 -1.21,-0.6 0.68,1.56 -1.28,4.37 0.18,2.77 v 0 l -4.4,4.16 0.51,1.19 -3.01,0.95 -6.75,-0.01 -1.2,-0.58 -1.15,2.7 -1.73,-0.75 0.3,7.14 -2.34,0.1 -1.36,5.72 0.44,1.44 -1.37,0.83 -2.09,0.05 -4.27,-2.42 -0.85,0.11 -0.69,1.22 -6.23,-1.42 0.15,-2.4 0.67,-0.47 -0.52,-1.06 -8.22,-1.42 -2.31,1.06 -4.02,0.28 -1.09,3.39 -1.79,1.1 -0.8,-0.4 -1.81,1.73 -1.22,0.03 -10.68,7.17 -3.94,4.04 -3.27,-0.08 -1.06,0.87 -6.05,-0.33 0.15,3 -9.51,-3.77 -5.39,-1.51 -27.03,-3.46 -2.28,0.12 -2.94,-0.98 v 0 L 8.4,223.03 6.09,222.74 0,219.96 l 5.56,-14.52 3.09,-1.92 1.96,-3.42 0.27,-1.35 -0.6,-1.3 -4.64,-3.67 0.72,-6.67 0.77,-1.53 0.93,-7.57 4.94,-1.95 3.32,-5.06 -1.4,-3.17 1.28,-1.31 -0.47,-0.53 0.33,-2.18 1.71,-0.24 0.02,-1.15 1.95,-2.38 0.82,-0.2 1.4,0.74 2.34,1.8 0.47,1.19 0.93,0.26 2.51,3.41 0.86,2.1 2.06,1.74 0.64,2.93 1.7,2.55 0.02,1.09 1.82,0.14 1.61,1.6 0.58,0.24 0.17,-0.93 5.85,-2.66 2.77,-2.91 -0.5,-1.88 -1.88,-0.75 0.47,-2.1 -1.53,-3.32 -1.25,-7.66 0.28,-0.93 -1.79,-2.31 1.45,-0.44 1.31,1.21 2.41,0.7 2.21,-1.78 3,-3.81 6.17,-2.3 0.02,-1.16 -1.72,-3.12 1.07,-1.79 -0.14,-1.26 0.95,-1.01 1.62,0.66 1.75,-0.5 2.75,0.3 3.85,-3.69 8.41,-3.28 -0.66,-1.35 0.75,-0.77 -0.44,-0.76 2.15,-0.19 0.06,-1.1 h 0.93 l -0.22,-3.06 1.31,-2.16 2.89,0.44 -0.99,1.77 2.16,-0.64 0.31,-2.16 -1.07,-0.81 0.1,-2.42 2.32,0.79 z"
       inkscape:connector-curvature="0"
       style="fill:#cccccc;fill-opacity:1;stroke:#ffffff;stroke-width:0.5;stroke-opacity:1" />
    <path
       id="KZ-ZHA"
       title="Zhambyl oblysy"
       class="land"
       d="m 537.29,290.78 -1.56,3.41 v 0 l -1.85,3.12 0.84,10.2 1.06,2.79 -5.87,-0.43 0.35,5.11 5.45,0.14 0.16,3.34 1.14,2.1 6.24,4.37 1.86,3.21 -0.89,3.28 0.63,0.99 3.71,3.55 4.34,0.47 2.19,1.75 1.21,0.17 1.1,1.49 2.02,1.38 0.09,3.34 -1.3,2.15 0.45,1.93 -0.46,1.25 -4.99,4.39 0.01,1.72 3.28,1.15 1.76,-0.31 -0.29,0.93 2.91,-0.36 0.7,1.18 -2.58,3.13 -0.22,2.26 0.74,0.44 -0.27,1.15 0.75,0.33 0.46,1.9 5.54,2.12 -0.52,1.06 v 0 l -1.12,0.34 0.22,0.43 v 0 l 1.88,-0.21 1.08,0.68 1.01,-0.44 0.35,0.92 v 0 l -0.83,2.52 -1.06,1.04 -1.99,-0.63 -3.61,-0.03 -2.05,-0.9 -2.33,0.39 -3.82,-2.59 -1.55,-0.44 -0.26,-0.7 -1.44,-0.61 -1.88,0.3 -2.48,-3.37 -2.1,-0.98 -0.37,-0.67 -2.78,-0.56 -0.93,-0.87 -2.42,0.01 -0.22,1.4 -2.06,0.71 -1.9,-0.9 -1.23,2.51 -2.18,-0.3 -4.27,2.27 0.06,0.84 -1.19,2.22 0.07,3.27 -1.55,4.12 0.29,3.05 1.46,1.88 -0.44,0.77 -2.82,-0.47 -0.7,-0.58 -0.23,-1.49 -3.71,-0.77 -3.8,0.01 -1.88,-0.86 -1.35,-1.87 -2.67,-1.12 -2.09,-0.09 -4.21,-1.95 -3.14,0.6 -4.98,-2.54 -4.58,1.79 -2.13,-1.17 -2.47,0.32 -0.47,0.53 -1.73,-0.09 -0.96,2.3 -1.03,0.55 -0.18,1.65 -2.41,0.28 -0.61,0.54 1.61,2.23 -0.65,0.77 -1.25,-0.82 -0.32,0.27 -1.81,3.81 v 0 l -1.1,-1.6 -0.84,-0.04 v -1.62 l -1.55,0.41 -1.32,-2.31 -1.06,-0.2 -0.8,-1.45 -0.63,-0.17 -0.11,-0.86 -1.15,-0.43 -0.22,-0.88 -1.43,0.08 -2.04,-1.26 0.48,-1.26 -0.38,-0.47 0.2,-3.46 -0.66,-0.93 0.5,-0.5 -1.24,-0.77 0.7,-1.24 -0.5,-0.38 -0.72,0.48 -0.99,-0.96 0.35,-1.17 -0.48,-0.6 -0.69,0.27 -0.48,-0.7 -1.75,-0.16 -0.38,-1.57 -0.44,-0.04 -0.6,1.48 -2.06,-1.5 -1.35,0.21 0.22,-0.97 -1.49,0.43 -0.84,-2.6 0.54,-0.84 -2.04,-0.72 2.62,-3.75 2.39,-6.65 0.32,-3.09 1.35,-2.11 0.35,-2.31 0.73,-0.49 -3.24,-20.05 -1.11,-1.58 -2.4,-10.39 -4.4,-12.5 -3.52,-5.75 v 0 l 46.55,-0.21 18.61,-0.69 z"
       inkscape:connector-curvature="0"
       style="fill:#cccccc;fill-opacity:1;stroke:#ffffff;stroke-width:0.5;stroke-opacity:1" />
    <path
       id="KZ-AS"
       title="Aral Sea"
       class="water"
       d="m 277.5,268.61 -0.32,2.99 -0.11,1.71 1.92,2.35 5.67,0.43 1.07,-0.86 0.75,0.11 -0.25,4.99 -1.22,2.08 -3.72,1.81 -1.4,1.27 -2.04,0.36 -1.81,1.68 v 0 l -1,2.17 v 0 l -1.54,0.32 -1.22,0.36 v 0 l -0.23,0.97 -0.95,3.4 -1,0.68 0.09,0.86 v 0 l 0.05,1.09 0.95,1.04 0.41,1.59 0.32,1.31 v 0 l -0.82,3.31 v 0 l -0.23,1 0.91,0.68 0.45,1.63 -0.45,5.98 1.77,3.67 1.18,0.09 0.77,0.95 1.27,4.76 -0.95,3.9 -1.56,1.18 -23.83,-17.2 -0.02,0.01 v 0 l -0.34,-1.63 -1.31,-1.04 -1,-2.81 0.59,-1.63 -0.36,-3.22 -2.58,-1 -1.36,1.68 v 0 h -2.54 l -0.73,2.67 v 0 l -4.81,-3.47 -1.79,0.69 v 0 l 0.69,-1.91 0.86,-0.43 0.85,-4.06 1.82,-3.21 4.62,-1.94 0.03,-0.01 v 0 l 2.08,0.79 v 0 l 1.22,-0.09 0.41,-0.36 1.5,-1.18 0.95,0.5 0.82,0.59 v 0 l -1.18,1.72 v 0 l -0.59,0.86 -0.54,0.86 -0.14,2.76 3.22,-0.5 v 0 l 0.86,0.32 0.72,-0.59 0.41,-1.09 0.41,-1.31 1.31,0.05 0.77,-2.27 -0.45,-3.44 0.36,-1.31 -2.63,-4.53 -0.05,-1.09 0.63,-0.14 4.44,0.23 0.77,0.95 v 0 l 0.5,3.4 v 0 l -0.36,1.9 0.63,0.36 v 0 l 1.36,-0.09 2.63,-2.13 4.62,0.82 3.4,2.22 3.67,-0.5 2.08,-1.31 0.45,-3.44 -1.54,-2.58 -0.18,-1.77 -1.59,1.09 -1.5,1.04 -2.04,-1.09 -0.54,-1.04 -5.53,0.95 -1.36,-0.59 -1.71,-2.9 0.12,-2 0.8,-1.07 4.41,-2.94 h 1.34 v 0 l 0.94,0.94 0.53,1.07 v 0 l 0.13,3.61 0.72,-0.51 v -3.1 l 2.78,1.07 1.07,-0.53 1.5,-1.28 V 270 l -2.25,-1.07 -1.07,-0.53 0.11,-0.96 1.71,-0.11 h 0.96 v 0 z m -15.53,31.89 2.76,-1.52 h 5.17 l -0.28,-0.48 -3.86,-0.41 -0.48,-1.03 -2.48,-0.28 -1.65,0.14 -3.24,0.48 -0.07,1.45 -0.07,2.07 h 2.07 z"
       inkscape:connector-curvature="0"
       style="fill:#cccccc;fill-opacity:1;stroke:#ffffff;stroke-width:0.5;stroke-opacity:1" />
  </g>
  <g
     id="layer1"
     inkscape:label="Vrstva 1"
     transform="matrix(0.21379299,0,0,0.22338089,310.22916,289.15588)">
    <circle
       transform="matrix(0.994318,0,0,0.994318,-275.5681,-427.0646)"
       id="path1306"
       style="fill:#ff1414;fill-opacity:0.78448277;stroke-width:10.19400024;stroke-miterlimit:4;stroke-dasharray:none"
       cx="340"
       cy="492.36218"
       r="62.857143" />
  </g>
</svg>
