<?xml version="1.0" encoding="UTF-8" standalone="no"?>
<svg
   xmlns:dc="http://purl.org/dc/elements/1.1/"
   xmlns:cc="http://creativecommons.org/ns#"
   xmlns:rdf="http://www.w3.org/1999/02/22-rdf-syntax-ns#"
   xmlns:svg="http://www.w3.org/2000/svg"
   xmlns="http://www.w3.org/2000/svg"
   xmlns:sodipodi="http://sodipodi.sourceforge.net/DTD/sodipodi-0.dtd"
   xmlns:inkscape="http://www.inkscape.org/namespaces/inkscape"
   version="1.1"
   id="svg57"
   sodipodi:docname="VOWAS.svg"
   width="142.3149"
   height="243.29694"
   inkscape:version="0.92.4 (5da689c313, 2019-01-14)">
  <metadata
     id="metadata61">
    <rdf:RDF>
      <cc:Work
         rdf:about="">
        <dc:format>image/svg+xml</dc:format>
        <dc:type
           rdf:resource="http://purl.org/dc/dcmitype/StillImage" />
        <dc:title></dc:title>
      </cc:Work>
    </rdf:RDF>
  </metadata>
  <sodipodi:namedview
     pagecolor="#ffffff"
     bordercolor="#666666"
     borderopacity="1"
     objecttolerance="10"
     gridtolerance="10"
     guidetolerance="10"
     inkscape:pageopacity="0"
     inkscape:pageshadow="2"
     inkscape:window-width="640"
     inkscape:window-height="480"
     id="namedview59"
     showgrid="false"
     fit-margin-top="0"
     fit-margin-left="0"
     fit-margin-right="0"
     fit-margin-bottom="0"
     inkscape:zoom="2.36"
     inkscape:cx="81.457961"
     inkscape:cy="347.316"
     inkscape:window-x="0"
     inkscape:window-y="0"
     inkscape:window-maximized="0"
     inkscape:current-layer="svg57" />
  <defs
     id="defs4">
    <style
       id="style2">.land{fill:#ccc;fill-opacity:1;stroke:#fff;stroke-opacity:1;stroke-width:.5}</style>
  </defs>
  <path
     id="US-CA"
     class="land"
     d="m 81.006941,20.260945 -1.09,4.03 -1.09,4.03 -1.09,4.03 -1.09,4.03 -1.09,4.03 -1.09,4.03 -1.09,4.03 -1.09,4.02 -1.09,4.03 -1.09,4.02 -1.09,4.02 -1.09,4.02 -1.09,4.02 -1.09,4.02 -1.09,4.02 -1.09,4.02 2.98,4.56 3,4.56 3.02,4.56 3.05,4.549995 3.07,4.54 3.09,4.54 3.11,4.53 3.13,4.53 2.41,3.75 2.42,3.75 2.44,3.75 2.45,3.74 2.459999,3.74 2.48,3.74 2.49,3.73 2.5,3.73 3.46,5.32 3.48,5.31 3.51,5.3 3.53,5.3 3.56,5.29 3.59,5.28 3.62,5.28 3.9,5.63 -0.39,1.82 0.45,2.66 1.95,5.06 0.13,1.14 0.03,0.03 -0.12,1.14 0.89,1.45 2.36,2.25 0.44,0.95 -0.01,0.07 -0.13,0.6 -0.83,0.59 -3.5,1.82 -2.02,1.65 -2.31,2.87 -0.28,2.66 -0.52,2.14 -0.76,1.62 -0.95,1.44 -1.15,1.26 -1.07,0.67 -0.98,0.09 -0.72,1.83 -0.46,3.58 0.59,2.36 1.64,1.14 0.86,1.39 0.08,1.64 -0.47,1.5 -1.03,1.37 -1.39,0.58 -2.61,-0.31 -0.11,0.19 -2.16,-0.21 -5.38,-0.65 -5.39,-0.67 -5.38,-0.69 -5.38,-0.7 -5.379999,-0.72 -5.38,-0.74 -5.38,-0.76 -5.38,-0.77 -0.01,-0.15 0.44,-2.41 -0.65,-1.04 -1.22,0.26 0.24,-3.21 0.62,-1.39 0.21,-1.45 -0.19,-3.74 -1.69,-4.89 -4.56,-6.68 -2.53,-2.49 -1.78,-2.8 -1.32,-0.98 -1.81,-0.63 -0.79,0.87 -1.93,-1.21 0.94,-2.39 -1.17,-3.95 -1.57,-0.8 -4.25,-0.84 -5.11,-3.34 -1.36,-1.55 -0.04,-2.16 -2.15,-2.43 -2.98,-2.62 -2.02,-0.11 -2.43,-0.93 -3.22,-2.19 -2.03,-0.72 -4.14,-0.74 -1.44,-0.67 -0.97,-1.94 -1.29,-1.19 0.85,-1.82 0.29,-1.78 0.6,-1.28 0.15,-3.13 1.28,-2.58 -0.18,-1.11 -0.63,-0.99 -2.33,-1.86 -0.09,-1.53 0.98,-1.82 -0.33,-1.47 -1.82,-1.8 -1.25,-3.28 -2.13,-2.21 -0.34,-2.78 -1.13,-1.98 -0.15,-1.51 -2.06,-5.84 -2.58,-4.85 0.07,-2.34 0.73,-3.02 1.97,-1.4 1.24,-1.37 0.35,-1.49 0.09,-1.14 -0.71,-2.24 -4.53,-2.54 -2.6,-5.86 0.82,-3.6 -0.46,-4.07 0.68,-2.35 0.53,-2.609995 1.33,-0.21 0.98,0.51 -0.41,0.979995 -0.19,1.92 0.81,1.73 0.99,0.94 0.67,1.64 0.68,0.64 0.8,0.34 -0.19,-0.98 -0.31,-0.68 -0.05,-1.93 -0.42,-2.57 -0.88,-1.609995 0.04,-2.45 -0.38,-0.69 -0.09,-0.94 1.5,-0.64 1.85,-0.22 2.25,0.46 6.14,2.16 1.5,-0.19 1.04,0.51 0.83,0.16 -1.52,-1.09 -1.01,-0.08 -1.08,-0.45 -2.26,-0.53 -0.83,-0.52 -0.78,-1 -0.63,-0.26 -2.42,0.63 -0.87,-0.42 -1.77,-1.99 -0.89,-0.47 -1.75,0.31 -1.18,3.25 -0.27,2.6 -0.99,-0.02 -0.76,-1.33 -1.45,-1.09 -1.06,-1.33 -1.37,-2.29 -0.8,-0.93 -1.56,1.08 0.16,-0.66 1.06,-1.48 0.69,-2.82 1.02,2.73 -0.05,-1.72 -0.79,-2.11 -0.82,-0.9 -0.31,-3.45 -2.24,-2.71 -1.33,-3.67 -3.05,-6.35 1.05,-4.41 0.06,-5.98 1.68,-2.88 0.6,-2.23 0.24,-3.58 -0.27,-2.07 -2.08,-6.11 -2.43000005,-4.46 0.29,-2.69 0.58000005,-2.62 1.49,-2.02 1.42,-2.17 0.68,-0.48 0.1,0.32 -0.3,0.47 0.44,0.31 0.52,-0.99 0.47,-0.45 -0.5,-0.24 0.16,-0.32 0.52,-0.56 2.08,-2.78 1.15,-3.98 2.69,-4.47 0.46,-1.61 0.37,-3.6700001 -0.06,-2.29 -0.82,-1.88 1.25,-1.95 0.61,-2.05000005 -0.15,-0.43 4.31,1.38000005 4.17,1.32 4.18,1.31 4.18,1.3 4.19,1.28 4.19,1.27 4.19,1.26 4.2,1.2500001 4.2,1.23 4.2,1.22 4.21,1.21 4.21,1.2 4.21,1.19 4.22,1.17 4.22,1.16 z m -43.87,170.629995 3.35,2.08 h 2.11 l 0.21,0.63 -0.36,0.4 -4.66,-0.35 -1.21,-0.95 0.09,-0.83 -0.25,-0.89 z m -7.91,-0.88 -0.97,-0.2 -1.4,-0.63 0.65,-0.36 0.91,-0.14 0.18,0.34 z m 4.09,3.56 -1.34,-0.04 -0.88,-0.55 -0.96,-2.47 3.3,0.61 1.15,1.27 0.12,0.3 z m 27.6,19.49 0.52,1.82 -1.27,-0.53 -1.4,-0.26 -0.2,-0.97 -0.11,-1.31 -0.2,-0.38 -0.92,-0.35 -0.04,-0.13 0.04,-0.61 0.34,-0.21 2.62,2.09 z m -20.72,-1.45 -0.82,-0.17 -1.06,-0.49 -0.26,-1.31 0.93,0.16 0.8,0.38 0.43,1.09 z m 17.64,13.52 -1.11,-0.07 -1.07,-0.74 -0.49,-2.35 -0.7,-1.92 0.72,-0.31 0.51,1.8 1.67,2.96 z"
     inkscape:connector-curvature="0"
     style="fill:#cccccc;fill-opacity:1;stroke:#ffffff;stroke-width:0.5;stroke-opacity:1" />
</svg>
