<?xml version="1.0" encoding="UTF-8" standalone="no"?>
<svg
   xmlns:dc="http://purl.org/dc/elements/1.1/"
   xmlns:cc="http://creativecommons.org/ns#"
   xmlns:rdf="http://www.w3.org/1999/02/22-rdf-syntax-ns#"
   xmlns:svg="http://www.w3.org/2000/svg"
   xmlns="http://www.w3.org/2000/svg"
   xmlns:sodipodi="http://sodipodi.sourceforge.net/DTD/sodipodi-0.dtd"
   xmlns:inkscape="http://www.inkscape.org/namespaces/inkscape"
   version="1.1"
   id="svg57"
   sodipodi:docname="WLPIS.svg"
   width="142.84038"
   height="78.559212"
   inkscape:version="0.92.4 (5da689c313, 2019-01-14)">
  <metadata
     id="metadata61">
    <rdf:RDF>
      <cc:Work
         rdf:about="">
        <dc:format>image/svg+xml</dc:format>
        <dc:type
           rdf:resource="http://purl.org/dc/dcmitype/StillImage" />
        <dc:title />
      </cc:Work>
    </rdf:RDF>
  </metadata>
  <sodipodi:namedview
     pagecolor="#ffffff"
     bordercolor="#666666"
     borderopacity="1"
     objecttolerance="10"
     gridtolerance="10"
     guidetolerance="10"
     inkscape:pageopacity="0"
     inkscape:pageshadow="2"
     inkscape:window-width="958"
     inkscape:window-height="1008"
     id="namedview59"
     showgrid="false"
     fit-margin-top="0"
     fit-margin-left="0"
     fit-margin-right="0"
     fit-margin-bottom="0"
     inkscape:zoom="4.72"
     inkscape:cx="139.07579"
     inkscape:cy="1.2345568"
     inkscape:window-x="953"
     inkscape:window-y="0"
     inkscape:window-maximized="0"
     inkscape:current-layer="svg57" />
  <defs
     id="defs4">
    <style
       id="style2">.land{fill:#ccc;fill-opacity:1;stroke:#fff;stroke-opacity:1;stroke-width:.5}</style>
  </defs>
  <path
     id="US-VA"
     class="land"
     d="m 93.720994,0.64119392 1.14,0.59999998 2.47,0.49 1.14,0.78 -0.2,1.08 0.09,0.72 0.57,0.56 3.319996,0.66 2.27,1.44 1.27,0.31 0.38,0.09 0.92,0.27 0.5,0.49 0.26,2.5200001 -0.53,1.39 -1.04,1.2 -1.28,2.01 -0.08,1.62 0.09,2.99 0.9,0.83 0.76,0.11 1.95,-1.09 1.14,0.06 3.14,2.96 4.78,0.41 1.82,0.5 1.73,1.52 2.24,0.6 1.89,1.17 0.26,0.98 -0.28,1.29 0.13,1.63 -0.45,1.14 -1.57,0.46 -1.02,-0.05 -6.38,-4.44 -0.73,-0.38 -2.54,-2.5 -2.57,-1.08 -0.69,0.18 3.81,2.21 1.74,1.74 2.91,2.33 1.91,0.84 1.62,1.6 1.32,0.63 3.36,0.57 -0.88,1.13 1.88,0.38 0.55,1.35 0.2,1.63 -2.52,-0.11 0.18,1.19 0.36,0.65 -0.93,0.8 -1.63,-0.46 -4.72,-3.44 0.15,0.56 0.45,0.59 2.8,2.27 2.33,1.22 1.83,0.38 1.59,1.09 0.64,0.73 0.58,1.2 -0.77,1.07 -0.99,0.71 -1.25,-0.62 -0.98,-0.73 -1.99,-1.17 -0.87,-1.61 -1.24,0.36 -5.74,-1.05 -4.29,0.64 0.5,0.35 0.6,0.18 3.49,-0.18 1.55,0.72 2.97,0.29 1.68,-0.11 1.25,2.58 2.66,1.39 0.59,1.33 1.57,-0.18 2.41,-1.96 1.85,0.09 2.61,-0.17 0.82,0.97 0.9,1.99 1.42,2.15 1.1,2.18 -0.55,0.13 -1.36,0.29 -4.36,0.94 -6.35,1.33 -6.36,1.3 -6.36,1.28 -6.37,1.25 -6.37,1.23 -6.379996,1.2 -6.38,1.18 -6.39,1.15 -6.39,1.13 -6.4,1.1 -6.4,1.07 -6.4,1.05 -6.41,1.02 -6.41,1 -6.41,0.97 -0.36,-0.29 -2.53,0.3 -1.87,0.22 -0.76,0.58 -3.72,0.56 -2.97,0.44 -5.01,0.73 -6.11,0.86 -8.6099996,1.18 -4.02999999,0.53 1.65999999,-1.29 2.56,-0.99 4.47,-2.46 1.6199996,-2.1 2.45,-1.72 0.87,-1.76 1.54,-1.77 0.4,-1.81 0.2,-0.3 2.67,-1.99 2.75,-2.39 5.8,-6.35 0.24,0.68 -0.12,0.8 0.7,0.8 0.68,1.33 0.79,0.76 0.92,0.55 1.45,0.4 1.78,0.82 1.31,0.1 0.42,-0.1 1.23,-1.26 1.07,-0.74 1.03,-1.32 2.41,1.19 0.86,-0.14 2.01,-1.02 1.96,-0.51 0.46,-0.29 0.63,-0.76 -0.2,-1.29 0.11,-0.36 0.3,-0.21 0.39,-0.1 0.97,0.32 0.88,-0.14 3.46,-2.12 0.3,0.06 0.59,0.6 1.48,-1.16 0.82,-0.98 0.21,-1.3 0.59,-1.34 -0.26,-0.51 -0.64,-0.6 0.4,-1.74 0.72,-1.78 2.89,-5.52 0.67,-3.16 1.21,-2.17 0.24,-1.6 0.91,-1.7 0.25,-3.21 0.39,-0.71 0.7,-0.23 0.8,0.25 0.63,0.47 0.51,0.86 2.02,0.46 1.59,-0.19 0.99,-0.79 0.44,-1.2 0.48,-2.18 0.6,-1.35 0.25,-1.61 0.35,-1.15 0.72,-0.82 2.11,-0.36 0.9,-1.13 0.63,-1.21 0.44,-0.44 0.6,-0.06 1.57,-2.05 1.8,-4.0100001 0.1,-2.33 0.33,-1.72 -0.07,-1.69 0.31,-0.98999998 2.54,1.33999998 1.47,0.78 3.34,1.75 2.22,1.16 0.39,-1.93 z m 48.299996,19.24000008 0.44,-0.17 -1.07,3.72 -0.7,0.53 z m -6.56,3.41 0.45,-1.13 2.5,-0.93 1.55,-0.59 -1.83,9.4 0.52,1.53 -0.65,0.68 -1.07,0.68 -0.96,1.21 -0.55,1.21 -0.1,2.95 -0.69,3.45 -1.16,-1.11 -0.47,-1.07 -0.27,-3.01 0.43,-5.12 0.98,-3.35 0.94,-1.69 z"
     inkscape:connector-curvature="0"
     style="fill:#cccccc;fill-opacity:1;stroke:#ffffff;stroke-width:0.5;stroke-opacity:1" />
  <g
     id="layer1"
     inkscape:label="Vrstva 1"
     transform="matrix(0.04576255,0,0,0.04576255,135.59322,23.686341)">
    <circle
       transform="matrix(0.994318,0,0,0.994318,-275.5681,-427.0646)"
       id="path1306"
       style="fill:#ff1414;fill-opacity:0.78448277;stroke-width:10.19400024;stroke-miterlimit:4;stroke-dasharray:none"
       cx="340"
       cy="492.36218"
       r="62.857143" />
  </g>
</svg>
