<?xml version="1.0" encoding="UTF-8" standalone="no"?>
<svg
   xmlns:dc="http://purl.org/dc/elements/1.1/"
   xmlns:cc="http://creativecommons.org/ns#"
   xmlns:rdf="http://www.w3.org/1999/02/22-rdf-syntax-ns#"
   xmlns:svg="http://www.w3.org/2000/svg"
   xmlns="http://www.w3.org/2000/svg"
   xmlns:sodipodi="http://sodipodi.sourceforge.net/DTD/sodipodi-0.dtd"
   xmlns:inkscape="http://www.inkscape.org/namespaces/inkscape"
   version="1.1"
   id="svg17"
   sodipodi:docname="YUN.svg"
   width="799.65039"
   height="863.26147"
   inkscape:version="0.92.4 (5da689c313, 2019-01-14)">
  <metadata
     id="metadata21">
    <rdf:RDF>
      <cc:Work
         rdf:about="">
        <dc:format>image/svg+xml</dc:format>
        <dc:type
           rdf:resource="http://purl.org/dc/dcmitype/StillImage" />
        <dc:title />
      </cc:Work>
    </rdf:RDF>
  </metadata>
  <sodipodi:namedview
     pagecolor="#ffffff"
     bordercolor="#666666"
     borderopacity="1"
     objecttolerance="10"
     gridtolerance="10"
     guidetolerance="10"
     inkscape:pageopacity="0"
     inkscape:pageshadow="2"
     inkscape:window-width="958"
     inkscape:window-height="1008"
     id="namedview19"
     showgrid="false"
     fit-margin-top="0"
     fit-margin-left="0"
     fit-margin-right="0"
     fit-margin-bottom="0"
     inkscape:zoom="2.36"
     inkscape:cx="57.526561"
     inkscape:cy="337.51988"
     inkscape:window-x="953"
     inkscape:window-y="0"
     inkscape:window-maximized="0"
     inkscape:current-layer="svg17" />
  <defs
     id="defs4">
    <style
       id="style2">.land{fill:#ccc;fill-opacity:1;stroke:#fff;stroke-opacity:1;stroke-width:.5}</style>
  </defs>
  <path
     id="KP-13"
     class="land"
     d="m 748.57131,142.98511 -0.34,-2.22 -1.38,-1.19 -1.25,1.65 -0.26,0.94 0.38,0.21 0.22,0.05 0.08,0.61 0.24,0.79 0.6,0.92 z m 28.53,-71.96 -0.37,-1.8 -1.85,-1.91 -2.13,0.13 -2.01,1.61 -1.57,2.55 1.96,2.57 -0.38,2.49 -1.89,0.93 -0.05,-0.04 -0.44,7.73 -1.92,8.45 -5.27,2.6 -9.11,2.6 -6.7,0.64 -0.48,4.55 2.87,3.24 -0.96,6.49 -6.71,8.42 -3.35,7.77 1.3,10.18 1.56,-0.18 1.73,-1.3 2.75,-3.8 5.28,-5.28 1.63,0.13 1.01,2.89 -0.92,3.54 -0.14,2.4 1.44,-0.26 1.47,-1.13 0.54,-3.73 2.02,-0.35 0.91,-2.19 1.35,-0.46 -1.13,-1.94 0.9,-2 1.26,-0.36 1.86,2.29 0.94,0.27 0.63,-1.18 -0.02,-1.87 -0.81,-0.39 -1.01,-0.16 -0.6,-1.09 0.01,-1.16 -0.26,-2.26 1.21,-1.46 1.46,-1.19 0.14,-1.44 0.05,-1.47 1.45,0.03 1.56,1.05 1.01,1.5 2.02,-0.44 1.59,-1.72 -0.46,-2.11 1.85,-0.83 3.64,0.66 1.09,1.36 2.64,1.54 3.55,0.52 1.57,1.22 1.59,1.62 0.33,1.04 0.1,1.83 -0.12,3.02 0.78,-0.08 1.57,-1.51 1.85,-0.34 4.37,-1.45 3.5,-0.98 0.55,-1.02 -3.34,-2.67 -1.25,-1.57 -0.3,-2.22 0.04,-4.22 -0.49,-4.01 -1.33,-2.93 -2.13,-2.33 -2.79,-0.97 -2.27,-1.9 -1.45,-2.29 -2.08,-6.17 -0.5,-0.82 -0.59,-0.46 -0.48,-0.82 -0.19,-1.84 -0.23,-0.71 -1.46,-3.33 -0.69,-3.14 z"
     inkscape:connector-curvature="0"
     style="fill:#cccccc;fill-opacity:1;stroke:#ffffff;stroke-width:0.5;stroke-opacity:1" />
  <path
     id="KP-10"
     class="land"
     d="m 575.59131,163.98511 -8.14,-2.23 -11.84,-0.62 -1.43,2.89 -3.3,0.73 -9.19,-0.73 -1.27,0.5 -1.21,1.18 -1.73,2.6 -1.15,0.59 -1.36,-0.97 -1.18,-0.24 -5.1,1.99 -1.73,-0.24 -4.22,-2.12 -5.72,0.33 -2.52,-2.05 -2.87,-0.96 -12.54,-1.06 -19.88,5.6 -5.65,0.13 -2.47,0.75 -1.62,2.31 -0.13,2.45 2.41,14.14 0.97,2.58 1.21,2.34 4.11,1.34 0.74,3.16 5.81,11.22 1.31,3.46 0.52,3.62 3.31,3.12 4.7,3.86 3.3,1.54 2.22,2.76 1.53,3.36 0.23,2.95 2.43,3.57 -1.89,6.37 -12.55,23.05 -4.88,4.62 -5.19,-0.46 1.75,-2.35 -1.75,-1.01 -1.95,1.76 -2.95,0.07 -2.13,-1.7 0.46,-3.6 -2.09,1.14 -1.21,0.38 -1.06,-0.3 -0.45,-1.82 0.19,-2.94 -0.09,-2.93 -1.35,-1.77 -1.07,1.6 -1.02,1.17 -1.26,0.6 -3.69,-3.37 -5,0.76 -2.73,0.88 -1.18,1.17 -0.83,2.69 -2,1 -2.47,-0.43 -2.28,-1.58 -3.16,1.09 -11.62,-0.34 -3.4,-1.31 -0.56,0.06 -1.37,2.24 -1.07,0.51 -0.94,-0.5 -4.09,-2.87 -4.76,-1.29 -1.74,-1.75 -0.22,-3.69 -2.1,1.15 -2.14,-0.63 -2.15,-1.19 -2.09,-0.56 -2.09,0.67 -1.73,1.1 -1.93,0.81 -2.74,-0.23 -0.47,-0.38 -0.66,-0.75 -0.92,-0.76 -1.17,-0.46 -0.97,0.12 -2.14,0.88 -1.17,0.23 -4.82,-0.55 -2.31,-0.72 -2.13,-0.97 0.75,-0.39 1.04,-0.8 0.76,-1.05 -0.1,-1.14 -0.92,-0.92 -0.83,0.11 -0.89,0.51 -1.13,0.3 -1.7,-0.41 -2.77,-2.1 -1.84,-0.85 -0.83,0.63 -1.61,3.39 -0.93,0.74 -0.66,-0.38 -0.49,-0.76 -0.65,-0.76 -1.13,-0.33 -1.67,1.09 -0.95,0.31 -0.79,-1.57 -0.91,-0.53 -1.09,-0.3 -0.9,-0.13 1.64,-3.02 2.28,-2.22 2.63,-1.54 2.69,-1.08 -1.68,-1.61 -6.42,-2.54 -2.06,-0.34 0.58,-1.63 0.34,-0.63 -3.77,-1.57 -1.86,-1.26 -1.17,-1.67 -0.49,-2.4 0.43,-1.6 1.31,-0.75 2.09,0.24 -1.01,-2.11 -2.66,-4.23 -0.51,-2.21 -1.17,0.17 -4.13,-3.37 -0.39,0.96 -2.24,4.21 -1.9,4.41 -0.83,5.04 0.12,3.89 0.53,3.66 0.69,2.4 0.22,1.17 -0.04,1.38 -1.08,2.47 -1.91,1.38 -2.17,1.07 -1.86,1.53 -1.27,2.25 -0.81,1.89 -1.11,1.34 -2.21,0.55 -3.56,-0.53 -1.57,0.37 -1.39,1.76 -0.32,2.06 0.33,2.63 0.74,2.53 0.86,1.76 2.26,1.87 2.16,-0.05 4.48,-2.06 1.1,-0.26 1.32,-0.04 1.17,0.48 0.64,1.32 -0.24,1.28 -1.65,1.79 -0.39,1.13 0.34,1.06 2.26,3.75 0.87,2.64 0.63,2.77 0.82,5.69 1.32,3.21 4.12,3.42 0.89,2.56 -0.34,1.6 -0.53,1.03 0.11,1.07 1.51,1.73 1.26,1.76 0.55,2.02 0.66,4.55 1.55,3.15 2.29,2.08 7.11,4.73 1.61,0.54 3.74,0.42 4.83,1.35 1.65,-0.21 2.52,-1.58 1.52,-2.16 1.23,-2.44 1.75,-2.4 2.76,-1.97 3.57,-1.3 3.56,0.02 2.67,1.94 1.08,3.06 0.62,4.2 0.22,4.35 -0.14,3.5 5.07,1.16 5.13,0.36 2.4,-0.83 1.38,-1.97 0.73,-2.77 0.53,-3.22 1.99,-4.86 3.24,-1.31 8.3,1.77 4.45,2.21 1.62,3.98 -0.14,5.32 -0.82,6.2 -0.53,2.32 -0.96,1.83 -1.38,1.26 -1.8,0.64 -3.69,0.31 -1.67,0.9 0.55,1.94 3.05,4.91 0.39,4.19 -2.05,3.73 -7.61,6.04 -1.7,1.69 -1,1.81 0.25,2.05 1.67,0.79 2.16,0.63 1.73,1.58 0.7,2.06 0.68,4.37 0.62,1.99 5,8.9 1.33,1.86 1.35,0.93 1.41,0.74 1.48,1.31 1.1,2.37 0.79,5.97 0.7,2.6 0.96,1.57 1.09,0.97 1.29,0.53 1.54,0.31 3.92,0.12 1.53,0.7 -0.79,1.74 -1.29,1.88 -0.01,1.6 0.51,1.76 0.29,2.33 -0.32,2.18 -0.74,1.34 -2.31,2.64 -1,1.95 -0.39,1.96 -0.11,4.4 0.16,3.07 0.78,1.63 1.45,0.4 2.17,-0.63 7.95,-4.56 11.22,-8.98 1.62,-2.13 1.07,-2.49 0.71,-2.55 0.85,-2.19 1.19,-1.83 1.74,-1.42 9.6,-3.43 1.88,-0.15 1.8,0.43 1.51,1.21 3.17,3.13 3.53,1.67 3.52,-0.44 3.2,-3.24 4.88,-7.54 1.87,-2.16 5.78,-4.98 1.45,-2.07 0.6,-1.91 0.68,-6.24 0.71,-1.96 1.91,-3.28 0.83,-1.9 0.7,-2.84 0.37,-2.8 0.33,-5.81 0.45,-2.86 1.54,-5.52 0.32,-2.68 -0.9,-4.33 -1.58,-5.07 -0.6,-4.4 2.01,-2.36 3.95,-0.18 4.48,0.33 4.37,-0.22 3.55,-1.81 1.51,-2.03 2.25,-4.6 1.38,-2.06 2.05,-1.33 5.05,-1.82 1.53,-1.73 0.48,-2.03 0.38,-2.76 0.18,-2.76 -0.13,-2.02 0.4,-2.02 1.87,-0.21 5.15,1.65 1.4,-0.03 3.03,-0.91 1.87,-0.17 1.82,0.5 12.89,5.98 4.65,2.91 3.41,4.01 1.65,-4.4 -1.28,-4.32 -2.02,-4.44 -0.55,-4.74 0.92,-2.26 2.68,-4.35 0.49,-2.6 -0.69,-2.49 -1.46,-1.87 -1.75,-1.62 -1.55,-1.73 -5.31,-8.89 -1.97,-5.15 -0.84,-5.51 1.35,-5.34 3.25,-3.35 3.61,-2.99 2.42,-4.26 -0.14,-4.58 -1.95,-4.73 -2.99,-3.96 -3.28,-2.25 -6.48,-0.64 -1.67,-0.99 -0.61,-1.9 0.98,-1.59 1.44,-1.69 0.83,-2.21 -0.28,-1.94 -1.83,-3.09 -0.68,-1.82 -0.28,-2.24 -0.07,-5.66 0.19,-2.25 0.74,-4.33 -0.12,-1.82 -0.96,-1.4 -1.13,-0.1 -2.97,1.02 -1.04,-0.23 -0.52,-1.14 -0.17,-1.46 -0.06,-2.85 -0.24,-1.52 -0.36,-1.39 -1.51,-4.39 -0.31,-1.56 -0.37,-3.58 1.69,-0.53 3.2,1.35 1.72,-0.12 1.22,-1.02 0.88,-1.47 1.46,-3.25 2.27,-2.59 5.46,-3.34 2.25,-2.44 1.49,-3.6 z"
     inkscape:connector-curvature="0"
     style="fill:#cccccc;fill-opacity:1;stroke:#ffffff;stroke-width:0.5;stroke-opacity:1" />
  <path
     id="KP-02"
     class="land"
     d="m 344.70131,523.33511 0.79,-0.38 0.75,-0.56 1.06,-1.38 0.72,-0.52 0.92,-0.24 4.92,-0.41 0.79,-0.39 0.73,-0.59 0.57,-0.78 0.43,-0.76 0.73,-1.59 0.29,-0.94 0.18,-1.05 -0.18,-1.63 -0.52,-1.51 -3.66,-6.7 -0.54,-1.43 -1.49,-6.34 -0.34,-2.08 -0.05,-0.9 0.09,-0.9 0.52,-0.72 0.77,-0.35 0.92,-0.24 0.73,-0.36 0.4,-0.83 -0.05,-1.11 -0.28,-1.64 v -1.19 l 0.27,-0.95 0.5,-0.69 0.49,-0.5 8.49,-6.84 1.26,-1.6 0.41,-0.82 0.24,-0.88 0.06,-0.96 -0.03,-0.97 -0.64,-1.15 -1.18,-1.23 -4.59,-2.9 -1.22,-1.05 -0.68,-1.58 -0.51,-2.31 -0.51,-4.57 0.01,-0.2 0.31,-1.04 0.7,-1.7 0.22,-0.86 0.08,-0.85 -0.11,-0.81 -0.27,-0.85 -0.62,-0.97 -5.9,-5.8 -1.04,-0.78 -1.66,-0.8 -2.27,-0.72 -1.66,-0.26 -11.21,0.29 -0.13,0.01 -2.91,6.43 -1.85,2.36 -4.63,3.91 -0.94,1.19 -0.6,0.9 -1.01,3.65 -0.8,2.12 -0.87,1.08 -0.95,0.53 -2.01,0.19 -1.8,0.4 -0.99,0.38 -1.03,0.57 -1.65,1.27 -1.21,1.35 -1.53,2.06 -1.03,1.03 -0.94,0.63 -2.75,0.57 -1.08,0.38 -1.14,0.65 -7.81,5.6 -1.41,1.24 -0.98,1.13 -0.36,0.85 -0.27,0.9 -0.44,3.12 -0.27,1.25 -0.74,1.62 -0.9,0.83 -0.92,0.47 -3.67,0.23 -1.41,0.64 -7.28,5.16 -1.55,0.68 -0.96,-0.05 -0.94,-0.18 -0.84,-0.31 -5.37,-3.7 -1.7,2.77 -0.07,0.19 -0.29,1.1 -0.27,1.87 -0.14,1.95 0.17,0.95 0.3,0.87 2.6,4.48 0.39,0.98 0.22,0.95 0.08,0.99 -0.03,0.98 -0.19,0.92 -0.73,0.88 -1.23,0.83 -2.81,1.09 -8.7,4.67 -19.55,5.17 -1.03,0.06 -0.91,-0.18 -0.88,-0.29 -0.84,-0.4 -1.71,-1.11 -0.74,-0.68 -2.95,-3.27 -0.7,-0.3 -0.74,0.02 -0.82,0.93 -0.47,0.9 -0.28,1 -0.13,0.84 -0.15,0.6 -0.31,0.3 -0.69,0.5 -1.65,0.85 -1.41,1.58 -1.46,2.56 -0.99,1.31 -2.39,2.06 -2.23,2.41 -0.86,0.78 -1.09,0.57 -3.94,0.78 -0.69,0.81 -0.23,0.57 -0.05,0.49 -0.02,0.41 -0.25,0.93 -0.59,1.06 -4.12,5.35 -5.8,4.11 -7.57,3.77 -2.14,0.66 -2.19,-0.05 -2.57,-0.47 -0.99,0.07 -0.96,0.4 -2.49,2.13 -6.28,3.69 -7.16,2.95 -6.49,0.97 -0.03,0.01 0.08,0.2 -0.18,2.13 -1.02,1.66 -3.49,1.41 -0.87,1.79 -0.49,2.19 -0.66,1.91 -2.2,2.48 -2.34,1.85 -1.77,2.4 -0.43,4.16 1.13,-0.62 1.25,-0.4 1.32,-0.17 1.35,0.11 -2.9,4.33 -0.36,2.3 2.39,0.99 7.64,1.2 2.55,-0.02 -0.62,1.72 -1.05,1.17 -2.62,1.57 -0.67,-0.55 -0.51,-0.23 -1.25,-0.42 1.08,1.62 0.59,0.56 -0.87,2.78 0.63,2.11 1.6,1.27 1.93,0.26 -1.6,1.58 -4.72,8.73 0.3,1.47 1.09,1.21 0.74,2.41 -2.69,-1.03 -2.95,-0.1 -2.65,1.28 -1.81,3.11 0.39,1.32 0.99,1.43 0.42,1.13 -1.41,0.46 -3.07,0.09 -1.28,0.62 -1.15,1.46 0.87,0.79 -0.14,0.6 -0.51,0.71 -0.22,1.15 0.1,1.32 -0.25,1.03 0.51,0.91 0.04,1.08 -0.48,1.18 -0.33,1.19 6.28,0.97 -2.34,0.62 -3.07,-0.15 -2.5,-0.02 -1.33,2.26 -0.99,2.65 -2.29,3.13 -2.61,4.5 -1.67,2.45 0.28,1.71 -1.34,2.65 -2.1,3.13 -1.15,3.69 -1.44,3.79 -0.15,2.68 -0.39,5.92 -0.52,2.65 -0.75,2.66 0.99,4.18 1.42,1.24 1.88,0.95 0.57,1.89 1.41,2 3.5,-0.18 1.71,-5.08 -0.65,-3.82 1.95,0.47 1.44,1.5 0.63,1.85 -0.3,0.77 -0.27,0.71 0.81,0.67 0.87,0.51 -2.45,2.89 -0.42,1.33 0.77,1.75 1.56,1.47 1.88,0.73 1.97,0.02 1.8,-0.65 v -0.98 l -0.6,-0.51 -0.68,-0.85 -0.25,-1 0.63,-0.97 h 0.66 l 0.48,0.76 0.3,0.93 0.23,0.47 3.26,0.54 1.14,-0.59 0.73,-2.11 h 0.84 l 1.24,2.22 1.98,0.49 3.71,-1.87 1.83,-1.18 -0.78,-1.16 -0.97,-0.96 -1.12,-0.77 1.68,-0.14 0.94,-1.13 0.46,-1.3 0.35,-0.67 1.11,-0.27 0.03,0.17 -0.12,0.73 3.19,5.88 0.76,1.04 1.46,0.77 2.93,0.01 1.58,0.3 1.99,1.54 5.57,7.07 1.31,0.64 2.5,0.13 1.25,0.39 -1.54,-4.65 -0.22,-4.06 -0.25,-1.19 -0.44,-0.87 -2.25,-2.3 -1.39,-1.79 -0.55,-1.28 -0.28,-0.98 0.15,-2.06 -0.91,-2.84 -0.73,-0.65 -1.14,-0.75 -1.57,-0.8 -0.85,-0.68 -0.63,-0.88 -0.34,-1.02 -0.34,-1.56 v -1.19 l 0.23,-1.02 0.39,-0.77 0.53,-0.59 0.65,-0.45 3.8,-1.34 1.3,-0.84 0.61,-1.01 0.61,-1.43 1.94,-7.16 0.07,-0.97 -0.04,-0.73 -0.83,-2.74 -0.65,-1.49 -0.87,-1.22 -0.62,-2.38 -0.61,-8.79 0.05,-0.62 0.18,-0.66 0.21,-0.48 0.48,-0.71 8.95,-7.22 0.23,-0.12 0.45,-0.32 0.5,-0.49 0.13,-0.27 0.05,-0.29 -0.05,-0.26 -0.09,-0.2 -0.12,-0.16 -0.44,-0.38 -0.97,-0.52 -1.88,-1.44 -0.21,-0.24 -0.17,-0.33 -0.05,-0.33 0.01,-0.34 0.16,-0.93 0.11,-0.28 0.49,-2.47 0.08,-0.67 -0.01,-0.83 -0.07,-0.52 -0.13,-0.57 -1.22,-3.44 -1.02,-1.87 -0.19,-0.54 -0.03,-0.62 0.06,-0.67 0.06,-0.28 0.1,-0.25 0.13,-0.24 0.63,-0.75 0.45,-0.37 5.08,-1.73 3.69,-2.47 0.91,-0.89 0.43,-0.3 0.52,-0.2 0.59,-0.12 0.76,0.37 1.09,0.72 3.81,3.39 0.15,0.19 0.5,0.92 0.13,0.23 0.91,1.62 0.45,0.62 0.38,0.4 0.43,0.27 0.75,0.32 3.75,1.07 0.38,0.28 0.42,0.43 0.71,0.98 0.32,0.53 0.22,0.44 0.38,1.07 0.66,2.37 0.27,1.66 0.15,0.57 0.3,0.77 0.26,0.22 0.38,0.1 0.73,-0.08 0.31,-0.22 0.18,-0.3 0.04,-0.31 -0.02,-1.03 -0.4,-2.44 -0.06,-0.66 0.02,-0.68 0.05,-0.32 0.31,-1.18 0.41,-1.06 0.26,-0.45 0.78,-1.03 0.89,-0.87 0.47,-0.35 0.5,-0.21 2.32,-0.55 0.62,-0.04 0.64,0.1 0.84,0.31 0.94,0.46 1.05,1.1 1.93,2.35 0.53,0.44 4.85,-0.92 1.37,-0.62 0.46,-0.46 0.33,-0.23 0.21,-0.29 0.14,-0.27 0.19,-0.61 0.26,-0.61 0.23,-0.29 0.27,-0.23 0.31,-0.1 0.31,-0.02 0.98,0.16 0.72,0.24 0.57,0.53 0.69,0.88 1.22,2.07 0.46,1.03 0.27,0.77 0.08,0.79 0.12,0.37 0.15,0.33 0.22,0.32 0.34,0.32 0.5,0.26 0.99,0.16 4.11,-0.23 0.63,0.43 2.66,2.73 1.43,1.16 0.27,0.04 0.75,0.01 3.71,-0.46 1.17,0.04 0.7,0.18 0.39,0.5 0.45,0.85 0.61,2.08 0.11,1.04 -0.04,0.91 -0.24,0.81 -0.11,0.72 0.06,0.96 0.1,0.52 0.16,0.51 0.35,0.97 1.38,1.84 3.06,3.11 0.81,0.55 5.27,0.97 0.82,0.3 0.36,0.26 0.53,0.92 3.16,6.97 0.08,0.12 0.66,1.16 0.78,1.73 0.31,1.88 0.31,6.29 8.68,2.93 1.41,0.12 1.99,-0.1 0.76,-0.65 0.57,-0.7 0.3,-0.67 0.12,-0.57 0.07,-0.52 v -0.62 l -0.12,-1.08 -0.26,-1.38 -0.54,-1.55 -0.81,-1.53 -0.13,-1.05 0.28,-1.2 1.46,-1.91 1.01,-0.68 0.91,-0.22 0.86,0.31 6.12,3.98 1.57,0.25 2.13,0.02 4.48,-0.49 1.76,-0.67 0.92,-0.78 -0.14,-0.79 -0.25,-0.69 -0.44,-0.83 -0.96,-1.1 -1.1,-1.62 -0.46,-0.89 -0.36,-0.83 -0.75,-2.54 -0.38,-0.79 -0.53,-0.77 -2.87,-2.89 -0.52,-0.81 -0.38,-0.82 -0.59,-1.69 -0.44,-0.88 -1.64,-2.52 -0.35,-0.81 -0.23,-0.88 -0.14,-0.91 0.03,-1.18 0.3,-1.35 0.83,-1.99 1.18,-1.08 1,-0.18 0.89,0.57 1.88,2.52 0.73,0.71 0.84,0.56 0.93,0.44 0.94,0.27 2,0.07 1.82,-0.26 5.88,-1.57 0.95,-0.01 0.98,0.16 0.94,0.38 1.43,0.85 1.86,1.65 0.84,0.53 0.84,0.34 3.92,0.68 1.79,0.77 1.83,1.04 6.36,5.3 1.68,1.1 2.64,0.43 6.89,-0.9 1.46,-6.6 2.47,-3.63 0.96,-0.66 4.15,-2.15 0.67,-0.67 0.34,-0.8 -0.3,-1.34 -0.45,-0.99 -3.94,-4.64 -2.65,-1.42 -0.55,-0.19 -0.67,-0.14 -1.8,-0.06 -3.5,0.7 -0.89,0.01 -0.89,-0.21 -0.85,-0.45 -0.61,-0.73 -0.15,-0.91 0.26,-1.21 0.58,-1.9 0.11,-1.06 -0.11,-1.25 -0.5,-1.64 -0.6,-1.09 -0.75,-0.8 -0.76,-0.44 -0.87,-0.25 -0.94,-0.09 -0.93,0.07 -0.89,0.27 -0.82,0.53 -1.33,1.43 -0.72,0.44 -0.7,-0.05 -0.53,-0.59 -0.32,-0.81 -0.42,-1.75 -0.28,-0.81 -0.35,-0.81 -0.53,-0.76 -0.61,-0.6 -0.57,-0.4 -0.37,-0.19 -0.53,-0.17 -0.44,-0.09 -1.71,-0.08 -0.93,0.17 -0.86,0.28 -4.03,1.97 -0.66,0.16 -0.79,0.07 -0.92,-0.1 -0.89,-0.34 -0.86,-0.55 -0.81,-0.8 -0.61,-0.84 -0.49,-0.9 -0.31,-0.85 0.01,-1.91 0.38,-2.72 2.58,-10.46 1.84,-4.91 0.19,-1 -0.04,-1.17 -0.53,-1.68 -0.69,-1.06 -0.81,-0.84 -0.87,-0.64 -3.04,-2.83 -1.27,-1.59 -0.49,-0.87 -0.31,-0.84 -0.03,-1.29 0.27,-1.64 1.09,-2.94 0.89,-1.47 0.92,-1.1 0.79,-0.67 0.65,-0.94 0.39,-1.19 0.07,-1.82 -0.12,-1.21 -0.27,-1.02 -0.95,-2.53 -0.08,-1.06 0.23,-1.19 0.88,-1.64 4.77,-5.17 0.33,-0.69 0.13,-0.83 -0.28,-1.08 -0.41,-0.43 -0.7,-0.23 -0.87,-0.12 -0.91,-0.23 -0.7,-0.44 -0.37,-0.95 0.23,-1.32 1.67,-3.38 2.06,-3.02 0.4,-0.84 0.37,-0.92 1.69,-5.86 0.6,-1.4 0.72,-1.08 0.75,-0.68 0.82,-0.58 0.88,-0.51 1.66,-0.64 6.84,-1.73 h 7.91 l 1.9,0.38 1.62,0.63 0.72,0.43 0.75,0.67 0.58,0.8 1.6,2.67 0.57,0.57 0.49,0.19 z"
     inkscape:connector-curvature="0"
     style="fill:#cccccc;fill-opacity:1;stroke:#ffffff;stroke-width:0.5;stroke-opacity:1" />
  <path
     id="KP-03"
     class="land"
     d="m 48.931309,586.98511 1.54,-0.8 -0.15,-1.79 -0.34,-0.52 -0.08,-0.27 -0.23,-1.26 -1.34,1.24 -1.09,0.4 0.03,1.24 0.36,1.4 0.74,0.46 z m 12.1,-12.88 0.36,-1.69 v -1.77 l -0.38,-1.06 -1.36,0.32 -0.73,1.26 -0.71,0.96 0.23,0.81 -0.45,1.33 0.55,0.72 1.62,0.1 z m -1.67,-9.72 -2.15,-0.16 -3.08,0.86 -1.7,0.21 -0.51,-0.19 -2.04,1.87 -1.19,0.66 -0.89,0.75 -0.19,1.07 0.55,0.27 0.39,-0.37 5.08,-1.46 2.08,1.48 1.71,-0.02 1.42,-1 1.06,-1.44 0.3,-1.45 z m 23.63,6.73 3.56,-2.13 2.65,-1.55 -1.64,-3.47 -1.3,-3.4 1.54,-0.76 0.56,-1.04 -3.4,-1.49 -2.3,0.27 0.16,1.37 -1.49,1.31 0.1,2.35 -1.97,1.15 -0.01,2.74 0.66,0.55 -0.34,0.78 -0.05,0.65 -1.43,0.16 -0.27,0.76 1.75,1.68 -0.89,1.82 -1.58,-0.7 -2.26,4.06 2.96,-1.55 2.34,-0.39 z m -80.7599995,-42.74 0.37,-0.58 0.6,-0.02 0.32,-0.41 0.47,-0.14 0.13,-0.45 0.01,-0.43 -0.4,-0.05 v -0.35 l 0.04,-0.45 -0.49,-0.14 -0.18,-0.66 -0.31,-0.25 -0.23,-0.32 -0.37,-0.02 -0.45,0.21 -0.3,0.16 0.27,0.35 -0.35,0.25 -0.34,0.06 0.21,0.63 -0.57000001,0.59 -0.25,0.52 -0.16,0.72 0.03,0.63 0.02,0.07 0.54,0.07 0.63000001,0.14 0.25,0.37 0.34,0.02 z m 146.2800005,-138.39 -0.03,0.12 0.27,2.05 -0.48,1.22 -2.75,-0.11 -0.78,-0.43 -1.49,-1.43 -1.09,-0.46 -0.93,0.11 -2.39,0.8 -1.66,-0.6 -1.85,-0.81 -1.83,0.2 -1.98,0.81 -0.77,1.81 -0.76,1.62 -1.07,1.2 -1.69,0.61 -3.2,1.41 -4.29,1.4 -3.51,1.62 -2.46,1.8 -2.28,1.42 -3.07,1.4 -1.98,1.21 -2.9,1.01 -3.07,1.2 -1.210001,2.01 v 2.22 l 1.530001,2.01 1.37,2.01 0.92,2.01 -0.62,1.61 -1.84,0.6 -2.430001,0.2 -2.46,-0.2 -3.33,0.61 -2.99,-0.31 -1.16,-0.38 -0.98,-0.52 -0.34,-0.77 -1.17,-1.72 -1.25,-1.16 -0.6,0.93 -0.84,2 -4.18,5.5 -6.04,6.06 -2.58,1.72 -2.84,0.69 -1.92,1.43 -1.22,3.33 -1.03,3.72 -1.29,2.65 -2.39,1.21 -6.21,1.38 -1.9,1.32 -1.97,2.25 -4.97,3.18 -1.97,1.78 -0.38,0.84 -0.19,1.85 -0.19,0.62 -0.7,0.52 -1.31,0.27 -0.51,0.3 -17.57,16.71 -1.92,1.96 1.28,2.51 0.49,2.86 0.88,2.67 2.31,1.95 2.79,0.55 5.71,0.32 2.51,1.33 -4.16,1.16 -3.91,-1.49 -3.49,-0.52 -2.8,4.04 -0.86,7.81 -0.75,2.26 -1.3,1.04 -1.69,0.53 -1.67,0.82 -1.3,2 0.79,0.47 0.84,0.67 0.86,0.9 0.87,1.15 1.69,3.38 3.34,0.62 0.85,0.37 0.32,0.92 0.54,2.94 0.45,0.63 0.31,0.26 0.48,1.3 0.5,0.53 0.6,0.05 0.47,-0.36 0.45,-0.46 0.54,-0.23 10.51,2.04 4.33,0.16 1.12,0.45 0.17,1.14 -0.47,3.28 0.54,1.25 2.31,1.27 0.54,0.82 -0.15,1.53 -0.57,2.52 -0.12,1.41 0.31,1.31 0.83,0.43 1.08,0.25 1.13,0.74 0.48,0.79 0.8,1.89 0.48,0.7 0.94,-0.05 1.04,-0.67 0.88,0.08 0.36,2.23 -0.6,2.27 -1.59,1.04 -0.44,2.91 -2.19,2.58 0.61,1.72 0.36,0.5 0.4,0.26 0.92,0.24 -0.5,1.03 -0.15,0.47 -0.04,0.68 1.68,1.2 0.39,-0.66 1.04,-2.8 3.19,-1.59 2.47,-2.48 2.64,-1.53 2.3,0.89 1.08,-0.45 -1.19,-1.7 -0.55,-1.64 1.33,-1.04 1.54,-0.11 0.5,-2.47 -1.54,-0.55 -0.05,-1.6 0.71,-1.37 0.03,-2 0.55,-1.82 -0.64,-1.81 -0.81,-1.27 -0.42,-1.46 0.09,-1.61 0.72,-1.73 1.27,1.97 0.49,3.63 1.26,0.99 3.52,0.32 0.48,1.5 1.01,0.33 2.75,0.38 1.91,0.72 2.11,1.22 1.89,1.55 1.36,1.96 1.1,4.78 1.42,0.93 1.65,0.53 1.39,1.14 1.17,-2.75 1.35,0.16 3.46,3.68 0.99,0.34 h 1.09 l 0.9,0.25 0.36,1.05 0.57,0.76 2.700001,2.47 0.94,0.7 1.56,0.48 1.2,-0.05 1.9,-0.43 1.48,0.23 0.51,0.64 0.26,1 0.73,1.29 0.47,1.09 0.09,1.06 0.33,0.81 1.21,0.32 h 5.48 l -0.42,-0.94 -0.85,-2.47 -0.42,-0.96 h 8.33 l -1.83,2.9 1.14,1.05 2.15,0.58 1.15,1.48 0.54,0.38 3.25,4.02 1.09,0.78 1.1,-0.3 1.06,-0.68 2.73,-0.94 12.81,-6.74 1.87,-1.44 0.76,1.9 0.03,-0.01 6.49,-0.97 7.16,-2.95 6.28,-3.69 2.49,-2.13 0.96,-0.4 0.99,-0.07 2.57,0.47 2.19,0.05 2.14,-0.66 7.57,-3.77 5.8,-4.11 4.12,-5.35 0.59,-1.06 0.25,-0.93 0.02,-0.41 0.05,-0.49 0.23,-0.57 0.69,-0.81 3.94,-0.78 1.09,-0.57 0.86,-0.78 2.23,-2.41 2.39,-2.06 0.99,-1.31 1.46,-2.56 1.41,-1.58 1.65,-0.85 0.69,-0.5 0.31,-0.3 0.15,-0.6 0.13,-0.84 0.28,-1 0.47,-0.9 0.82,-0.93 0.74,-0.02 0.7,0.3 2.95,3.27 0.74,0.68 1.71,1.11 0.84,0.4 0.88,0.29 0.91,0.18 1.03,-0.06 19.55,-5.17 8.7,-4.67 2.81,-1.09 1.23,-0.83 0.73,-0.88 0.19,-0.92 0.03,-0.98 -0.08,-0.99 -0.22,-0.95 -0.39,-0.98 -2.6,-4.48 -0.3,-0.87 -0.17,-0.95 0.14,-1.95 0.27,-1.87 0.29,-1.1 0.07,-0.19 1.7,-2.77 -4.72,-2.26 -2.44,-0.7 -11.37,-1.39 -2.6,-1.1 -5.44,-3.58 -1.75,-1.77 -5.25,-6.79 -8.14,-7.61 -3.31,-4.49 -2.16,-2.32 -0.99,-0.54 -0.82,-0.12 -1.63,0.11 -1.64,-0.43 -1.22,-0.79 -1.48,-1.18 -1.1,-0.48 -1.04,-0.15 -1.8,0.04 -1.77,0.32 -1.76,0.82 -1.69,1.07 -0.98,0.34 -1.2,0.08 -1.81,-0.28 -1.18,-0.52 -0.97,-0.64 -1.93,-1.85 -14.37,-9.59 -3.96,-3.73 -0.92,-1.16 -0.45,-1.03 0.15,-0.9 0.52,-0.81 0.62,-0.79 0.53,-0.82 0.16,-0.87 -0.16,-0.88 -0.54,-0.82 -5.14,-5.45 -0.41,-0.79 -0.27,-0.82 -0.15,-0.87 0.04,-0.92 0.26,-0.88 0.89,-1.81 0.26,-0.93 0.58,-4.56 0.06,-0.2 0.15,-0.42 1.4,-2.29 0.36,-0.86 0.29,-0.86 0.19,-0.85 v -0.92 l -0.25,-0.82 -0.93,-2.08 -0.18,-0.58 -0.74,-3.68 -0.52,-1.12 -0.76,-0.55 -0.93,-0.04 -2.01,0.57 -1.07,-0.05 -1.3,-0.48 -0.85,-0.74 -3.83,-4.98 -1.19,-1.18 -1.03,-0.79 z"
     inkscape:connector-curvature="0"
     style="fill:#cccccc;fill-opacity:1;stroke:#ffffff;stroke-width:0.5;stroke-opacity:1" />
  <path
     id="KP-08"
     class="land"
     d="m 551.46131,306.74511 -5.15,-1.65 -1.87,0.21 -0.4,2.02 0.13,2.02 -0.18,2.76 -0.38,2.76 -0.48,2.03 -1.53,1.73 -5.05,1.82 -2.05,1.33 -1.38,2.06 -2.25,4.6 -1.51,2.03 -3.55,1.81 -4.37,0.22 -4.48,-0.33 -3.95,0.18 -2.01,2.36 0.6,4.4 1.58,5.07 0.9,4.33 -0.32,2.68 -1.54,5.52 -0.45,2.86 -0.33,5.81 -0.37,2.8 -0.7,2.84 -0.83,1.9 -1.91,3.28 -0.71,1.96 -0.68,6.24 -0.6,1.91 -1.45,2.07 -5.78,4.98 -1.87,2.16 -4.88,7.54 -3.2,3.24 -3.52,0.44 -3.53,-1.67 -3.17,-3.13 -1.51,-1.21 -1.8,-0.43 -1.88,0.15 -9.6,3.43 -1.74,1.42 -1.19,1.83 -0.85,2.19 -0.71,2.55 -1.07,2.49 -1.62,2.13 -11.22,8.98 -7.95,4.56 -2.17,0.63 -1.45,-0.4 -0.78,-1.63 -0.16,-3.07 0.11,-4.4 0.39,-1.96 1,-1.95 2.31,-2.64 0.74,-1.34 0.32,-2.18 -0.29,-2.33 -0.51,-1.76 0.01,-1.6 1.29,-1.88 0.79,-1.74 -1.53,-0.7 -3.92,-0.12 -1.54,-0.31 -1.29,-0.53 -1.09,-0.97 -0.96,-1.57 -0.7,-2.6 -0.79,-5.97 -1.1,-2.37 -1.48,-1.31 -1.41,-0.74 -1.35,-0.93 -1.33,-1.86 -5,-8.9 -0.62,-1.99 -0.68,-4.37 -0.7,-2.06 -1.73,-1.58 -2.16,-0.63 -1.67,-0.79 -0.25,-2.05 1,-1.81 1.7,-1.69 7.61,-6.04 2.05,-3.73 -0.39,-4.19 -3.05,-4.91 -0.55,-1.94 1.67,-0.9 3.69,-0.31 1.8,-0.64 1.38,-1.26 0.96,-1.83 0.53,-2.32 0.82,-6.2 0.14,-5.32 -1.62,-3.98 -4.45,-2.21 -8.3,-1.77 -3.24,1.31 -1.99,4.86 -0.53,3.22 -0.73,2.77 -1.38,1.97 -2.4,0.83 -5.13,-0.36 -5.07,-1.16 -0.57,6.07 -1.76,3.94 -6.13,6.87 -2.04,4.3 -0.94,5.88 0.62,5.64 2.7,3.6 4.7,2.26 1.47,1.95 0.16,3.32 -0.59,2.16 -0.98,1.78 -1.3,1.39 -1.53,0.98 -5.33,1.67 -9.58,5.73 -2.61,3.73 -1.83,9.53 -2.27,3.7 -1.53,0.75 -5.46,0.74 -2.29,0.67 -1.81,0.98 -1.65,1.36 -1.87,1.85 -3.74,2.67 -3.03,1.63 -1.54,2.73 0.77,5.98 -0.11,4.55 -2.25,3.43 -2.99,3.19 -2.3,3.84 -0.73,2.69 -0.54,2.91 -0.25,2.96 0.05,2.22 11.21,-0.29 1.66,0.26 2.27,0.72 1.66,0.8 1.04,0.78 5.9,5.8 0.62,0.97 0.27,0.85 0.11,0.81 -0.08,0.85 -0.22,0.86 -0.7,1.7 -0.31,1.04 -0.01,0.2 0.51,4.57 0.51,2.31 0.68,1.58 1.22,1.05 4.59,2.9 1.18,1.23 0.64,1.15 0.03,0.97 -0.06,0.96 -0.24,0.88 -0.41,0.82 -1.26,1.6 -8.49,6.84 -0.49,0.5 -0.5,0.69 -0.27,0.95 v 1.19 l 0.28,1.64 0.05,1.11 -0.4,0.83 -0.73,0.36 -0.92,0.24 -0.77,0.35 -0.52,0.72 -0.09,0.9 0.05,0.9 0.34,2.08 1.49,6.34 0.54,1.43 3.66,6.7 0.52,1.51 0.18,1.63 -0.18,1.05 -0.29,0.94 -0.73,1.59 -0.43,0.76 -0.57,0.78 -0.73,0.59 -0.79,0.39 -4.92,0.41 -0.92,0.24 -0.72,0.52 -1.06,1.38 -0.75,0.56 -0.79,0.38 -0.76,-0.01 -0.49,-0.19 -0.57,-0.57 -1.6,-2.67 -0.58,-0.8 -0.75,-0.67 -0.72,-0.43 -1.62,-0.63 -1.9,-0.38 h -7.91 l -6.84,1.73 -1.66,0.64 -0.88,0.51 -0.82,0.58 -0.75,0.68 -0.72,1.08 -0.6,1.4 -1.69,5.86 -0.37,0.92 -0.4,0.84 -2.06,3.02 -1.67,3.38 -0.23,1.32 0.37,0.95 0.7,0.44 0.91,0.23 0.87,0.12 0.7,0.23 0.41,0.43 0.28,1.08 -0.13,0.83 -0.33,0.69 -4.77,5.17 -0.88,1.64 -0.23,1.19 0.08,1.06 0.95,2.53 0.27,1.02 0.12,1.21 -0.07,1.82 -0.39,1.19 -0.65,0.94 -0.79,0.67 -0.92,1.1 -0.89,1.47 -1.09,2.94 -0.27,1.64 0.03,1.29 0.31,0.84 0.49,0.87 1.27,1.59 3.04,2.83 0.87,0.64 0.81,0.84 0.69,1.06 0.53,1.68 0.04,1.17 -0.19,1 -1.84,4.91 -2.58,10.46 -0.38,2.72 -0.01,1.91 0.31,0.85 0.49,0.9 0.61,0.84 0.81,0.8 0.86,0.55 0.89,0.34 0.92,0.1 0.79,-0.07 0.66,-0.16 4.03,-1.97 0.86,-0.28 0.93,-0.17 1.71,0.08 0.44,0.09 0.53,0.17 0.37,0.19 0.57,0.4 0.61,0.6 0.53,0.76 0.35,0.81 0.28,0.81 0.42,1.75 0.32,0.81 0.53,0.59 0.7,0.05 0.72,-0.44 1.33,-1.43 0.82,-0.53 0.89,-0.27 0.93,-0.07 0.94,0.09 0.87,0.25 0.76,0.44 0.75,0.8 0.6,1.09 0.5,1.64 0.11,1.25 -0.11,1.06 -0.58,1.9 -0.26,1.21 0.15,0.91 0.61,0.73 0.85,0.45 0.89,0.21 0.89,-0.01 3.5,-0.7 1.8,0.06 0.67,0.14 0.55,0.19 2.65,1.42 1.51,-1.24 0.23,-1.09 -0.01,-0.96 -0.85,-2.7 -0.41,-2.53 0.32,-1.33 0.67,-0.86 3.63,-1.06 1.06,-0.53 1.31,-1.12 0.56,-1.06 0.24,-1.08 0.1,-2.07 0.13,-1.1 0.84,-3.37 0.63,-5.03 0.41,-1.35 0.62,-1.22 0.83,-0.92 1.16,-1.08 0.99,-0.69 0.91,-0.46 0.85,-0.21 0.92,-0.05 4.49,0.76 6.21,-0.99 4.07,0.22 6.11,1.14 5.93,-0.82 3.08,0.18 0.96,-0.19 h 0.83 l 0.82,0.12 1.69,0.74 0.29,-0.43 3.64,-3.49 1.59,-1.15 1.5,0.57 1.1,1.69 0.44,2.16 4.27,6.02 -1.89,4.34 -0.78,2.36 0.15,2.1 1.23,1.77 1.44,0.5 1.35,-0.64 0.94,-1.63 0.11,-4.38 -3.4,-15.94 -1.84,-10.64 2.01,-6.64 4.65,-6.87 -0.52,-3.65 -2.16,-3.02 -3.04,-1.45 -1.17,0.16 -0.78,-0.75 -0.45,-1.69 -0.27,-3.79 -0.58,-2.35 -0.05,-1.4 0.31,-1.33 1.07,-2.5 0.24,-1.2 0.79,-1.34 3.52,-2.25 1.53,-3.68 1.74,-1.97 2.1,-1.59 1.74,-0.65 2.04,-3.32 3.08,1.61 1.79,2.26 2.01,-1.54 1.99,-5.09 3.9,-1.45 4.31,0.59 3.89,-1.95 0.29,-1.6 -1.79,-1.56 11.43,-1.19 1.16,-1.49 0.89,-6.7 -0.03,-2.8 1.92,-3.65 2.91,1.93 1.2,-0.45 0.89,-1.11 2.03,-3.61 0.84,-0.76 1.14,-0.28 1.23,-0.69 0.99,-0.89 0.39,-0.89 0.16,-2.34 0.56,-0.75 16.33,2.86 0.51,0.72 0.4,0.74 1.02,0.32 1.13,-0.27 2.23,-1.31 1.35,-0.52 1.21,-0.04 2.7,0.33 1.14,-0.29 -0.8,-4.32 1.04,-1.88 3.34,-1.48 2.06,1.87 2.7,5.15 3.16,0.84 1.23,-6.24 3.33,-4.81 3.33,-0.43 2.41,0.51 2.9,-1.22 1.68,-0.89 2.18,-2.39 1.66,-1.67 3.75,-0.12 2.15,-1.28 1.04,-1.28 0.87,-2.48 4.24,-2.17 1.36,-1.04 2.4,0.15 1.67,0.8 0.88,0.08 0.72,-0.64 0.88,-1.04 1.12,-1.04 1.68,-0.66 -0.24,-3.9 0.63,-2.4 -0.88,-1.2 -0.48,-1.52 -3.44,-1.43 -1.52,-0.88 0.31,-4.17 2.16,-2.57 2.32,-1.12 0.16,1.52 h 1.61 l 2.23,-3.3 4.17,-1.26 3.74,0.63 1.48,-1.85 2.08,-0.08 4.02,-1.29 2.09,-2 3.69,-0.72 4.83,-4.26 9.37,-9.99 6.69,-2.27 5.84,0.22 4.62,-6.25 4.41,-5.62 0.54,-1.74 0.66,-1.3 -6.46,-0.46 -2.27,-0.61 -2.01,-1.24 -1.38,-2.16 -0.32,-2.9 0.42,-2.32 -0.1,-2.21 -1.87,-2.58 -4.91,-3.96 -2.33,-2.41 -1.52,-2.92 -0.38,-2.09 -0.11,-4.14 -0.28,-2.04 -0.69,-1.73 -1.03,-1.62 -2.27,-2.84 -1.58,-2.51 -0.81,-2.57 0.25,-2.52 1.62,-2.34 0.76,-2.25 -1.06,-2.61 -1.42,-2.74 -0.26,-2.65 1.23,-2.73 2.78,-4.72 0.75,-3.02 -0.07,-4.4 -0.89,-4.17 -3.02,-7.77 -3.41,-4.01 -4.65,-2.91 -12.89,-5.98 -1.82,-0.5 -1.87,0.17 -3.03,0.91 z"
     inkscape:connector-curvature="0"
     style="fill:#cccccc;fill-opacity:1;stroke:#ffffff;stroke-width:0.5;stroke-opacity:1" />
  <path
     id="KP-04"
     class="land"
     d="m 337.04131,207.69511 -0.67,-0.92 -0.13,-3.63 -1.21,-1.2 -2.62,0.8 -2.63,1.86 -1.19,1.88 -1.56,4.34 -6.89,2.87 -1.55,4.11 -0.94,1.49 -2.13,-1.41 -3.67,-4.08 -1.76,-1.27 -1.82,-0.72 h -1.96 l -2.1,0.87 0.94,1.97 1.54,1.26 1.79,1.07 1.7,1.43 -1.94,1.17 -3.96,3.67 -1.33,0.79 -4.35,-0.25 -1.98,0.44 -1.95,3.94 -4.31,4.6 -0.06,2.01 1.32,2.24 0.44,2.15 -0.44,2.21 -2.28,4.55 -2.04,7.43 -4.26,6.86 -0.78,2.12 0.86,4.14 1.71,5.17 v 4.22 l -4.25,1.24 v -1.22 l 0.75,-0.49 0.34,-0.53 0.21,-0.61 0.38,-0.71 -3.54,-0.07 -3.9,2.97 -6.08,7.38 -1.34,2.06 -2.87,6.79 -1.37,1.92 -3.1,3.08 -1.41,1.81 -3.1,7.15 -1.19,1.89 -1.73,1.54 -13.95,8.31 -2.91,2.74 1.77,3.03 -1.44,2.24 -1.84,1.77 -1.25,1.69 0.33,2.1 -1.31,0.48 -1.19,0.61 -1,0.89 -0.78,1.25 0.33,1.44 -0.76,1.95 -2.5,3.9 -2.08,1.54 -2.35,0.42 -2.15,0.71 -1.42,2.4 1.98,-0.21 1.65,0.16 0.66,0.78 -0.93,1.6 -1.57,0.84 -3.79,0.46 -1.81,1.43 -1.65,0.84 -1.5,-1.09 -1.44,-1.64 -1.33,-0.84 -2.01,0.29 -1.54,0.79 -5.05,3.56 -1.2,0.17 -5.27,-2.42 -1.03,-0.26 -1.21,0.09 -0.77,0.65 -0.49,1.13 -0.59,1.07 -1.1,0.48 -3.77,0.78 -0.28,0.2 -2.57,1.84 -4.73,6.08 3.51,4.31 1.15,2.47 -1.72,1.09 -7.24,0.14 -0.22,-0.47 -0.96,-1.38 -1.7,-1.49 -1.82,-0.5 -1.44,1.07 -0.58,3.19 -0.25,3.51 -0.84,1.82 -1.65,0.67 -5.1,0.14 -1.59,0.36 -1.2,0.94 -1.13,1.89 -0.36,1.24 -0.08,2.27 -0.4,1.03 -1.15,0.75 -2.14,-0.39 -0.92,0.74 -0.45,2.26 8.67,5.06 1.03,0.79 1.19,1.18 3.83,4.98 0.85,0.74 1.3,0.48 1.07,0.05 2.01,-0.57 0.93,0.04 0.76,0.55 0.52,1.12 0.74,3.68 0.18,0.58 0.93,2.08 0.25,0.82 v 0.92 l -0.19,0.85 -0.29,0.86 -0.36,0.86 -1.4,2.29 -0.15,0.42 -0.06,0.2 -0.58,4.56 -0.26,0.93 -0.89,1.81 -0.26,0.88 -0.04,0.92 0.15,0.87 0.27,0.82 0.41,0.79 5.14,5.45 0.54,0.82 0.16,0.88 -0.16,0.87 -0.53,0.82 -0.62,0.79 -0.52,0.81 -0.15,0.9 0.45,1.03 0.92,1.16 3.96,3.73 14.37,9.59 1.93,1.85 0.97,0.64 1.18,0.52 1.81,0.28 1.2,-0.08 0.98,-0.34 1.69,-1.07 1.76,-0.82 1.77,-0.32 1.8,-0.04 1.04,0.15 1.1,0.48 1.48,1.18 1.22,0.79 1.64,0.43 1.63,-0.11 0.82,0.12 0.99,0.54 2.16,2.32 3.31,4.49 8.14,7.61 5.25,6.79 1.75,1.77 5.44,3.58 2.6,1.1 11.37,1.39 2.44,0.7 4.72,2.26 5.37,3.7 0.84,0.31 0.94,0.18 0.96,0.05 1.55,-0.68 7.28,-5.16 1.41,-0.64 3.67,-0.23 0.92,-0.47 0.9,-0.83 0.74,-1.62 0.27,-1.25 0.44,-3.12 0.27,-0.9 0.36,-0.85 0.98,-1.13 1.41,-1.24 7.81,-5.6 1.14,-0.65 1.08,-0.38 2.75,-0.57 0.94,-0.63 1.03,-1.03 1.53,-2.06 1.21,-1.35 1.65,-1.27 1.03,-0.57 0.99,-0.38 1.8,-0.4 2.01,-0.19 0.95,-0.53 0.87,-1.08 0.8,-2.12 1.01,-3.65 0.6,-0.9 0.94,-1.19 4.63,-3.91 1.85,-2.36 2.91,-6.43 0.13,-0.01 -0.05,-2.22 0.25,-2.96 0.54,-2.91 0.73,-2.69 2.3,-3.84 2.99,-3.19 2.25,-3.43 0.11,-4.55 -0.77,-5.98 1.54,-2.73 3.03,-1.63 3.74,-2.67 1.87,-1.85 1.65,-1.36 1.81,-0.98 2.29,-0.67 5.46,-0.74 1.53,-0.75 2.27,-3.7 1.83,-9.53 2.61,-3.73 9.58,-5.73 5.33,-1.67 1.53,-0.98 1.3,-1.39 0.98,-1.78 0.59,-2.16 -0.16,-3.32 -1.47,-1.95 -4.7,-2.26 -2.7,-3.6 -0.62,-5.64 0.94,-5.88 2.04,-4.3 6.13,-6.87 1.76,-3.94 0.57,-6.07 0.14,-3.5 -0.22,-4.35 -0.62,-4.2 -1.08,-3.06 -2.67,-1.94 -3.56,-0.02 -3.57,1.3 -2.76,1.97 -1.75,2.4 -1.23,2.44 -1.52,2.16 -2.52,1.58 -1.65,0.21 -4.83,-1.35 -3.74,-0.42 -1.61,-0.54 -7.11,-4.73 -2.29,-2.08 -1.55,-3.15 -0.66,-4.55 -0.55,-2.02 -1.26,-1.76 -1.51,-1.73 -0.11,-1.07 0.53,-1.03 0.34,-1.6 -0.89,-2.56 -4.12,-3.42 -1.32,-3.21 -0.82,-5.69 -0.63,-2.77 -0.87,-2.64 -2.26,-3.75 -0.34,-1.06 0.39,-1.13 1.65,-1.79 0.24,-1.28 -0.64,-1.32 -1.17,-0.48 -1.32,0.04 -1.1,0.26 -4.48,2.06 -2.16,0.05 -2.26,-1.87 -0.86,-1.76 -0.74,-2.53 -0.33,-2.63 0.32,-2.06 1.39,-1.76 1.57,-0.37 3.56,0.53 2.21,-0.55 1.11,-1.34 0.81,-1.89 1.27,-2.25 1.86,-1.53 2.17,-1.07 1.91,-1.38 1.08,-2.47 0.04,-1.38 -0.22,-1.17 -0.69,-2.4 -0.53,-3.66 -0.12,-3.89 0.83,-5.04 1.9,-4.41 2.24,-4.21 0.39,-0.96 -2.27,-1.86 -2.78,-0.58 z"
     inkscape:connector-curvature="0"
     style="fill:#cccccc;fill-opacity:1;stroke:#ffffff;stroke-width:0.5;stroke-opacity:1" />
  <path
     id="KP-07"
     class="land"
     d="m 378.21131,589.45511 -4.07,-0.22 -6.21,0.99 -4.49,-0.76 -0.92,0.05 -0.85,0.21 -0.91,0.46 -0.99,0.69 -1.16,1.08 -0.83,0.92 -0.62,1.22 -0.41,1.35 -0.63,5.03 -0.84,3.37 -0.13,1.1 -0.1,2.07 -0.24,1.08 -0.56,1.06 -1.31,1.12 -1.06,0.53 -3.63,1.06 -0.67,0.86 -0.32,1.33 0.41,2.53 0.85,2.7 0.01,0.96 -0.23,1.09 -1.51,1.24 3.94,4.64 0.45,0.99 0.3,1.34 -0.34,0.8 -0.67,0.67 -4.15,2.15 -0.96,0.66 -2.47,3.63 -1.46,6.6 0.55,5.84 0.87,2.52 1.23,1.77 0.73,0.78 0.17,0.26 0.51,1.08 0.28,0.74 0.19,0.76 0.08,0.79 -0.14,1.11 -0.32,1.34 -0.84,2.21 -1.03,2.02 -2.08,2.67 -0.7,0.66 -0.75,0.49 -0.76,0.34 -0.77,0.19 -5.82,0.4 -0.74,0.21 -0.75,0.36 -0.78,0.55 -0.73,0.67 -0.7,0.75 -0.53,0.76 -0.42,0.82 -0.19,1.25 -0.01,1.57 0.31,2.98 0.04,4.18 -0.35,3.15 -0.33,1.69 -0.36,1.28 -1.78,3.27 -4.19,6.3 -2.25,4.9 -1.12,1.57 -0.73,0.74 -1.55,1.24 -1.55,0.9 -7.3,2.28 -0.79,0.43 -0.72,0.53 -0.63,0.73 -0.4,0.78 -0.25,1.29 -0.02,0.24 0.69,1.41 2.63,3.98 0.49,0.99 0.35,1.18 0.15,1.87 -0.19,1.16 -0.24,0.98 -0.3,0.8 -0.45,1.67 -0.31,1.61 -0.05,0.79 0.13,2.35 0.68,3.08 0.91,1.97 8.24,14.41 0.44,1.05 0.13,1.07 0.42,0.92 0.88,0.88 0.76,0.38 0.96,0.3 1.05,0.45 1.11,0.71 1.45,1.38 0.98,0.25 0.68,-0.12 1.32,-1.11 0.61,-0.35 0.69,-0.22 0.75,-0.04 0.46,0.68 0.1,1.1 -0.79,2.31 -0.71,1.1 -0.5,1.1 -0.15,0.83 0.37,1.15 0.3,0.61 0.97,1.39 0.15,0.83 -0.09,1.04 -0.72,1.66 -0.61,1.79 0.34,2.12 2.06,2.93 0.74,0.46 0.03,0.02 1.08,0.52 2.05,0.31 0.46,0.59 0.38,0.67 0.29,0.73 1.09,1.89 0.04,0.05 1.67,-4.15 1.52,-1.94 0.72,-0.92 6.75,-5.57 7.85,-4.93 8.25,-3.35 7.95,-0.86 3.92,0.42 15.18,-1.33 11.68,3.55 3.71,-0.34 7.23,-2.2 23.76,-2.09 1.01,0.69 1.57,2.28 1.52,1.53 1.69,0.44 8.14,-1.72 12.92,0.76 8.39,-0.67 8.45,-3.01 7.86,-5.1 6.56,-6.88 2.85,-4.09 2.38,-4.36 1.6,-4.85 0.54,-5.59 -1.05,-5.38 -0.26,-2.75 0.77,-2.04 3.36,-2.66 6.97,-3.63 -0.04,-0.06 -0.52,-2.84 0.12,-2.83 -0.17,-2.31 -0.04,-0.52 -1.48,-2.85 -1.17,-1.08 -2.1,-1.24 -0.97,-0.92 -3.74,-5.97 -1.54,0.54 -5.57,3.05 -1.83,0.72 -14.67,-18.32 -9.42,-2.28 -2.36,-2.72 -4.15,-6.74 -2.24,-1.34 -1.2,-0.36 -0.93,-0.92 -0.59,-1.24 -0.4,-2.45 -0.48,-1.01 -0.7,-0.48 -0.8,0.52 -1.14,1.02 -0.52,-0.62 -0.39,-2.03 -4.18,-4.31 -1.85,-2.71 -0.77,-2.28 -0.81,-1.61 -3.84,-5.47 -2.82,-5.03 -1.28,-1.24 -1.86,-0.25 -8.44,0.07 -1.75,-0.53 -1.19,-1.24 -1.07,-1.47 -1.4,-1.2 -3.05,-0.94 -9.26,0.94 -2.46,-1.64 -2.52,-6.1 -2.2,0.25 0.03,0.97 0.3,1.61 -0.51,1.39 -2.43,0.37 -1.35,-0.77 -2.6,-2.92 -1.43,-0.65 -1.86,-1.34 -1.3,-3.22 -1.34,-2.93 0.79,-4.54 1.02,-4.49 1.43,-4.22 -0.16,-0.95 -0.53,-1.07 -0.09,-0.87 1.16,-0.37 0.85,0.15 0.77,0.41 0.7,0.68 0.65,0.94 1.22,-0.69 3.87,-0.85 0.81,-1.18 -0.72,-2.59 -1.69,-0.66 -1.97,0.59 -1.52,1.14 -1.41,-0.75 -2.98,-0.83 -1.41,-0.71 v -1.17 l 5.8,-2.18 0.68,-0.76 0.87,-1.26 -1.69,-0.74 -0.82,-0.12 h -0.83 l -0.96,0.19 -3.08,-0.18 -5.93,0.82 z"
     inkscape:connector-curvature="0"
     style="fill:#cccccc;fill-opacity:1;stroke:#ffffff;stroke-width:0.5;stroke-opacity:1" />
  <path
     id="KP-09"
     class="land"
     d="m 703.36131,0.25510985 -1.41,0.31 -2.28,1.51999995 -1.35,0.57 0.53,1.26 0.74,0.96 0.94,0.69 1.15,0.44 -1.69,0.77 -3.72,0.43 -1.4,1.19 -0.51,1.7900002 -0.11,3.88 -0.64,1.75 -0.9,1.74 -4.33,11.9 -0.5,5.06 -0.67,2.35 -1.98,4.29 -1.5,3.5 -0.49,1.91 -0.21,2.08 0.24,3.12 0.84,1.14 1.25,0.59 1.48,1.44 0.13,1.32 -1.01,1.08 -0.88,1.47 0.55,2.42 -3.16,0.71 -1.17,2.33 0.57,2.26 2.08,0.52 v 1.03 l -3.27,3.53 -0.63,5.72 0.27,6.54 -0.58,6 -3.15,5.59 -3.96,0.75 -4.64,-1.25 -5.14,-0.43 0.48,2.06 -0.14,2.24 -0.84,1.81 -3.02,1.21 -0.35,1.22 -0.11,1.63 -0.64,1.69 -1.1,0.92 -1.25,0.3 -1.03,-0.59 -0.42,-1.72 -0.77,-1.26 -3.48,-1.93 -0.79,-1.37 -5.95,-5.06 h -1.89 l -1.55,0.85 -1.32,0.96 -1.14,0.35 -1.74,-0.74 -1.11,-2.08 -1.35,-0.49 -1.47,0.42 -0.19,1.18 0.63,1.53 1.03,1.43 -1.75,1.04 -1.4,-2.06 -1.37,0.74 -1.03,2.45 -0.4,3.01 -0.88,0.39 -6.6,1.42 -0.86,0.73 -0.61,1.12 -0.38,1.4 0.07,1.5 0.69,0.61 0.75,0.42 0.24,0.88 -0.74,2.48 -1.24,0.95 -3.97,-0.01 v 1.24 l 1.21,0.1 1.06,0.4 1.02,0.68 0.91,0.99 -1.47,1.11 -0.24,1.23 0.08,1.34 -0.45,1.44 -1.02,0.71 -1.32,0.48 -1.08,0.88 -0.32,1.9 0.75,1.18 2.76,0.23 0.61,1.49 -0.38,0.95 -0.85,0.94 -0.97,0.86 -2.3,2.61 -3.65,3.28 -3.48,4.05 -1.76,1.2 -2.1,-0.18 -2.92,-1.75 -0.16,2.93 -1.24,2.2 -3.3,3.48 -2.18,1.13 -2.94,0.36 -2.61,0.73 -1.1,2.2 -1.82,6.62 -4.51,1.5 -2.5,-0.68 -0.31,1.44 -1.49,3.6 -2.25,2.44 -5.46,3.34 -2.27,2.59 -1.46,3.25 -0.88,1.47 -1.22,1.02 -1.72,0.12 -3.2,-1.35 -1.69,0.53 0.37,3.58 0.31,1.56 1.51,4.39 0.36,1.39 0.24,1.52 0.06,2.85 0.17,1.46 0.52,1.14 1.04,0.23 2.97,-1.02 1.13,0.1 0.96,1.4 0.12,1.82 -0.74,4.33 -0.19,2.25 0.07,5.66 0.28,2.24 0.68,1.82 1.83,3.09 0.28,1.94 -0.83,2.21 -1.44,1.69 -0.98,1.59 0.61,1.9 1.67,0.99 6.48,0.64 3.28,2.25 2.99,3.96 1.95,4.73 0.14,4.58 -2.42,4.26 -3.61,2.99 -3.25,3.35 -1.35,5.34 0.84,5.51 1.97,5.15 5.31,8.89 1.55,1.73 1.75,1.62 1.46,1.87 0.69,2.49 -0.49,2.6 -2.68,4.35 -0.92,2.26 0.55,4.74 2.02,4.44 1.28,4.32 -1.65,4.4 3.02,7.77 0.89,4.17 0.07,4.4 -0.75,3.02 -2.78,4.72 -1.23,2.73 0.26,2.65 1.42,2.74 1.06,2.61 -0.76,2.25 -1.62,2.34 -0.25,2.52 0.81,2.57 1.58,2.51 2.27,2.84 1.03,1.62 0.69,1.73 0.28,2.04 0.11,4.14 0.38,2.09 1.52,2.92 2.33,2.41 4.91,3.96 1.87,2.58 0.1,2.21 -0.42,2.32 0.32,2.9 1.38,2.16 2.01,1.24 2.27,0.61 6.46,0.46 0.07,-0.15 1.41,-0.54 0.13,-3.98 0.1,-1.66 0.57,-0.96 0.97,-1.13 0.43,-0.97 0.35,-1.64 0.54,-0.87 0.32,-2.07 0.17,-0.89 0.65,-1.2 -0.08,-1.05 0.01,-0.89 0.73,-1.69 0.66,-1.68 1.94,-1.52 2.42,-0.56 2.09,0.19 0.96,1.61 1.08,2.35 1.17,1.19 0.87,0.42 0.98,-2.24 2.05,-4.98 1.47,-2.65 1.47,-1.77 4.62,-2.51 4.65,-3.34 6.1,-2.05 3.66,0.3 1.46,-0.56 1.71,-1.92 2.35,-0.46 0.35,-3.06 2.2,-1.76 3.23,0.2 1.45,-0.39 2.02,0.42 2.19,-0.54 2.33,0.47 2.67,-0.5 1.7,-0.61 0.95,1.61 1.29,0.18 1.07,-2.15 1.49,-3.85 -0.38,-3.2 2.31,-3.07 -0.47,-1.16 0.79,-3.57 1.14,-0.89 -1.73,-1.19 -2.25,-2.81 -0.53,-1.59 -0.92,-7.34 -0.12,-5.32 0.27,-2.55 0.77,-2.17 -2.01,-6.13 0.94,-7.24 4.87,-20.62 1.39,-3.65 1.94,-1.58 0.09,-0.87 0.96,-3.65 0.24,-0.52 0.4,-2.15 0.66,-0.69 0.12,-0.54 -1.18,-1.66 -0.68,-0.26 -1.9,0.38 -0.78,-0.12 -1.37,-1.05 -1.73,-2.36 -1,-2.35 -2.64,0.27 -1.59,-1.48 -2.46,-2.37 -2.75,-3.55 -0.82,-4.84 0.62,-2.49 0.36,-2.74 -1.46,-3.86 2.53,-4.37 1.7,-6.88 0.94,-5.27 2.98,-4.23 3.25,-1.43 1.03,-2.02 1.6,-5.73 1.48,-4.69 4.75,-3.02 1.63,-0.12 2,3.25 1.19,-1.02 0.33,-2.78 1.78,-1.6 1.84,-5.4 -0.14,-5.5 0.86,-4.23 0.78,-3.52 2.08,-1.15 2.93,1.21 1.15,1.48 0.95,0.48 1.26,-1.11 0.48,-3.09 0.3,-0.76 0.57,-1.98 0.32,-1.62 -0.42,0.36 1.32,-2.26 0.91,-0.75 1.2,-0.4 -1.05,-1.8 -0.63,-0.85 -0.85,-0.74 2.36,-1.29 0.19,-3.39 1.49,-0.58 1.46,3.6 0.87,-0.47 0.32,-2.67 1.04,-4.04 0.59,-1.04 0.31,-1.34 1.82,-0.26 0.12,-1.24 0.62,-3.16 2.43,-1.89 3.36,-0.04 1.62,0.89 2.08,1.76 1.15,0.21 0.88,-0.71 -0.37,-1.06 -0.41,-0.27 1.69,-2.26 1.4,-0.86 1.05,0.49 0.67,-0.05 0.61,-9.69 -0.24,-2.31 -1.3,-10.18 3.35,-7.77 6.71,-8.42 0.96,-6.49 -2.87,-3.24 0.48,-4.55 6.7,-0.64 9.11,-2.6 5.27,-2.6 1.92,-8.45 0.44,-7.73 -2.58,-2 -0.59,-1.77 0.44,-3.24 -0.28,-1.32 -0.89,-0.82 -0.95,-0.06 -1.09,0.1 -1.35,-0.37 -8.4,-7.37 -0.94,-2.87 -6.7,-6.9 -2.42,-5.83 -0.11,-6.48 1.76,-14.25 -2.15,-5.94 -5.56,-1.01 -6.58,0.19 -5.13,-2.42 1.58,-1.27 1.35,-2.4 0.98,-2.7200002 0.38,-2.23 -1.49,-1.53 -3.35,0.82 -5.79,2.53 -4.81,0.23 -1.54,-0.23 -1.77,-0.81 -1.18,-1.18 -3.72,-5.03 -0.92,-0.80999995 z"
     inkscape:connector-curvature="0"
     style="fill:#cccccc;fill-opacity:1;stroke:#ffffff;stroke-width:0.5;stroke-opacity:1" />
  <path
     id="KP-01"
     class="land"
     d="m 203.84131,629.59511 -0.38,-0.1 -0.26,-0.22 -0.3,-0.77 -0.15,-0.57 -0.27,-1.66 -0.66,-2.37 -0.38,-1.07 -0.22,-0.44 -0.32,-0.53 -0.71,-0.98 -0.42,-0.43 -0.38,-0.28 -3.75,-1.07 -0.75,-0.32 -0.43,-0.27 -0.38,-0.4 -0.45,-0.62 -0.91,-1.62 -0.13,-0.23 -0.5,-0.92 -0.15,-0.19 -3.81,-3.39 -1.09,-0.72 -0.76,-0.37 -0.59,0.12 -0.52,0.2 -0.43,0.3 -0.91,0.89 -3.69,2.47 -5.08,1.73 -0.45,0.37 -0.63,0.75 -0.13,0.24 -0.1,0.25 -0.06,0.28 -0.06,0.67 0.03,0.62 0.19,0.54 1.02,1.87 1.22,3.44 0.13,0.57 0.07,0.52 0.01,0.83 -0.08,0.67 -0.49,2.47 -0.11,0.28 -0.16,0.93 -0.01,0.34 0.05,0.33 0.17,0.33 0.21,0.24 1.88,1.44 0.97,0.52 0.44,0.38 0.12,0.16 0.09,0.2 0.05,0.26 -0.05,0.29 -0.13,0.27 -0.5,0.49 -0.45,0.32 -0.23,0.12 -8.95,7.22 -0.48,0.71 -0.21,0.48 -0.18,0.66 -0.05,0.62 0.61,8.79 0.62,2.38 0.87,1.22 0.65,1.49 0.83,2.74 0.04,0.73 -0.07,0.97 -1.94,7.16 -0.61,1.43 -0.61,1.01 -1.3,0.84 -3.8,1.34 -0.65,0.45 -0.53,0.59 -0.39,0.77 -0.23,1.02 v 1.19 l 0.34,1.56 0.34,1.02 0.63,0.88 0.85,0.68 1.57,0.8 1.14,0.75 0.73,0.65 0.91,2.84 3.63,-1.3 8.9,-5.93 3.98,-1.99 3.28,-0.38 8.09,0.45 1.89,0.47 12.43,6.5 0.7,0.55 0.65,0.66 0.52,0.73 0.29,0.78 0.13,0.8 -0.16,2.51 0.31,0.86 0.67,0.78 4.74,2.26 2.09,1.37 4.86,2.15 3.16,0.7 1.83,-0.17 2.59,-0.58 1.02,-0.43 0.88,-0.58 0.65,-0.72 2.14,-3.16 0.63,-0.76 1.01,-0.76 1.32,-0.63 4.78,-1.28 0.72,-0.41 0.7,-0.63 0.45,-0.73 0.32,-0.78 0.12,-0.8 -0.07,-5.17 -0.12,-0.81 -0.15,-0.75 -0.27,-0.77 -0.37,-0.76 -4.43,-6.52 -0.42,-0.45 -0.66,-0.53 -2.96,-1.58 -1.48,-1.01 -0.65,-0.69 -0.48,-0.75 -0.36,-0.78 -0.23,-0.81 -0.13,-0.79 -0.03,-0.83 0.35,-3.24 0.16,-0.81 0.26,-0.94 0.56,-0.98 1.06,-1.19 0.67,-0.26 0.84,0.83 1.02,0.12 1.36,-0.74 0.87,-1.01 1.08,-0.52 0.59,-0.86 0.99,-0.09 0.65,0.25 3.83,0.59 0.62,0.24 0.79,1.08 1.42,1.24 0.43,0.56 1.54,0.91 2.28,0.75 0.89,-0.47 0.81,-0.03 2.47,0.47 0.83,0.26 3.89,1.77 0.8,0.56 0.74,0.4 0.61,0.25 1.1,0.59 -0.31,-6.29 -0.31,-1.88 -0.78,-1.73 -0.66,-1.16 -0.08,-0.12 -3.16,-6.97 -0.53,-0.92 -0.36,-0.26 -0.82,-0.3 -5.27,-0.97 -0.81,-0.55 -3.06,-3.11 -1.38,-1.84 -0.35,-0.97 -0.16,-0.51 -0.1,-0.52 -0.06,-0.96 0.11,-0.72 0.24,-0.81 0.04,-0.91 -0.11,-1.04 -0.61,-2.08 -0.45,-0.85 -0.39,-0.5 -0.7,-0.18 -1.17,-0.04 -3.71,0.46 -0.75,-0.01 -0.27,-0.04 -1.43,-1.16 -2.66,-2.73 -0.63,-0.43 -4.11,0.23 -0.99,-0.16 -0.5,-0.26 -0.34,-0.32 -0.22,-0.32 -0.15,-0.33 -0.12,-0.37 -0.08,-0.79 -0.27,-0.77 -0.46,-1.03 -1.22,-2.07 -0.69,-0.88 -0.57,-0.53 -0.72,-0.24 -0.98,-0.16 -0.31,0.02 -0.31,0.1 -0.27,0.23 -0.23,0.29 -0.26,0.61 -0.19,0.61 -0.14,0.27 -0.21,0.29 -0.33,0.23 -0.46,0.46 -1.37,0.62 -4.85,0.92 -0.53,-0.44 -1.93,-2.35 -1.05,-1.1 -0.94,-0.46 -0.84,-0.31 -0.64,-0.1 -0.62,0.04 -2.32,0.55 -0.5,0.21 -0.47,0.35 -0.89,0.87 -0.78,1.03 -0.26,0.45 -0.41,1.06 -0.31,1.18 -0.05,0.32 -0.02,0.68 0.06,0.66 0.4,2.44 0.02,1.03 -0.04,0.31 -0.18,0.3 -0.31,0.22 z"
     inkscape:connector-curvature="0"
     style="fill:#cccccc;fill-opacity:1;stroke:#ffffff;stroke-width:0.5;stroke-opacity:1" />
  <path
     id="KP-05"
     class="land"
     d="m 135.89131,852.72511 3.08,-4.26 -1.1,0.32 -3.63,1.64 -0.81,0.11 -0.49,0.28 -0.16,0.46 -0.32,0.19 -0.66,0.01 -0.29,1.39 -0.32,1.04 -1.26,-0.53 -1.74,0.86 -3.65,4.35 0.71,1.15 2.53,-0.55 1.74,-1.17 1.03,-1.04 3.25,-2.11 z m -19.27,-7.06 1.91,-1.63 1.64,-1.72 0.64,-0.13 0.32,-0.32 -0.18,-0.69 -0.36,-0.56 -0.57,0.04 -2.17,0.8 -2.43,1.79 -0.63,0.42 0.18,0.84 0.6,1.33 z m -13.75,-5.91 -0.47,-1.53 -1.27,-0.27 -0.32,0.96 0.28,0.76 -0.08,0.33 -0.12,0.65 -0.38,0.15 -0.780001,-0.38 -0.88,-0.24 -0.63,0.4 -0.52,0.6 -0.59,0.37 -0.01,0.73 0.9,0.44 1.33,-0.01 1.210001,-0.42 1.32,-1.42 0.39,-0.03 0.27,0.05 z m -19.840001,-110.28 -0.77,-1.22 -1.42,-0.81 -2.01,-0.7 -0.63,-1.46 -1.48,0.34 -4.65,3.01 -0.52,2.6 1.14,1.4 2.77,-2.18 2.32,1.83 2.49,1.08 5.28,1.49 -0.44,-1.72 z m 57.140001,133.49 1.74,-0.7 1.36,-2.09 0.57,-2.59 0.98,-0.97 2.27,-0.41 4.32,-0.12 4.42,-1.77 2.01,-3.56 1.55,-3.86 2.96,-2.7 -0.87,2.49 1.03,1.19 1.6,0.32 0.83,-0.13 0.37,-1.78 0.98,-0.78 1.35,0.1 1.51,0.81 -0.29,0.48 -0.04,0.18 -0.09,0.15 -0.51,0.36 1.08,1.07 1.11,0.61 1.2,0.28 1.33,0.06 0.81,-0.61 0.03,-1.37 -0.42,-2.28 -0.72,-1.71 -0.24,-1.02 0.54,-0.45 2.46,-0.06 0.81,-0.6 0.49,-1.47 -0.78,-0.39 -1.81,-1.84 2.23,-3 -0.54,-3.48 -1.15,-3.67 0.39,-3.6 1.83,1.53 1.43,1.5 1.46,1.04 1.99,0.09 2.02,-0.61 1.7,-0.9 1.54,-1.19 1.47,-1.46 -0.84,-1.16 -0.95,0.81 -0.95,0.35 h -2.3 l 1.07,-2.27 1.45,-1.99 -1.29,-0.76 -1.21,-0.12 -1.25,0.33 -1.3,0.55 0.87,-3.06 -1.23,-0.86 -4.27,0.63 -2.37,-0.84 -3.07,-2.08 -2.25,-2.62 0.09,-2.51 2.21,-1.11 3.11,0.04 3.09,0.73 4.94,2.35 2.19,0.45 5.1,0.25 1.2,0.42 2.15,1.41 1.28,0.31 1.87,0.18 0.57,0.62 -0.27,2.93 0.09,1.76 0.33,1.15 0.75,0.62 2.92,0.63 0.75,1.13 0.54,1.53 6.16,9.63 1.99,2.19 1.23,0.92 0.66,0.14 0.78,-0.1 1.55,0.2 1.23,0.47 1.38,0.76 1.32,0.95 1.03,1.02 -0.31,-2.23 -1.14,-4.22 -0.24,-1.58 -0.97,-0.68 -1.73,-1.67 -0.8,-1.96 1.9,-1.6 1.27,0.55 1.99,1.6 1.82,2 0.81,1.76 0.67,3.12 1.65,0.1 3.65,-2.64 0.35,7.16 0.52,3.5 1.14,0.46 1.82,-0.17 1.24,2.96 1.65,6.3 5.89,1.16 0.37,-1.12 0.38,-2.17 0.13,-2.13 -0.7,-1.65 -0.84,-3.25 -0.38,-2.42 -0.25,-0.59 0.18,-0.49 1.11,-1.17 2.5,-1.69 2.64,-0.58 4.55,0.14 2.79,-0.33 2.47,-0.91 9.66,-5.16 2.54,-0.81 2.35,-0.34 0.48,0.43 0.01,-0.02 0.73,-1.31 0.24,-0.66 0.18,-0.91 -0.19,-0.82 -0.76,-0.84 -0.75,-0.58 -0.59,-1 -0.2,-1.55 0.48,-4.95 0.29,-1.14 0.32,-0.69 0.21,-0.92 -0.07,-1.25 -0.86,-1.75 -0.47,-2.5 0.98,-2.54 -1.37,-3.36 0.38,-4.01 -0.38,-1.17 -0.64,-0.64 -0.79,-1.02 -0.05,-1.14 0.42,-1.82 0.65,-0.99 1.57,-1.07 0.67,-0.64 0.59,-0.67 0.59,-0.44 0.55,0.09 0.32,0.49 0.66,2.26 0.32,0.74 0.48,0.61 0.36,0.2 0.55,-0.35 0.2,-0.87 0.03,-1.56 -0.39,-1.11 -0.9,-1.69 -0.92,-2.41 -0.8,-1.52 -1.14,-1.55 -0.69,-0.7 -0.73,-0.61 -0.75,-0.43 -6.32,-2.73 -3.54,-2 -2.83,-1.14 -1.6,-0.34 -2.75,0.07 -5.37,1.14 -0.64,0.3 -0.72,0.45 -3.86,3.19 -0.76,0.52 -0.77,0.19 -0.8,-0.11 -1.53,-0.46 h -0.78 l -0.78,0.26 -0.75,0.46 -0.65,0.66 -1.21,1.54 -1.04,0.49 -1.34,0.2 -3.88,-0.94 -1.17,-0.02 -0.81,0.33 -2.99,1.65 -4.57,1.15 -1.03,0.08 -1.23,-0.09 -1.92,-0.39 -1.07,-0.62 -0.73,-0.74 -0.34,-0.76 -0.26,-0.78 -1.1,-6.12 -0.46,-1.52 -0.7,-0.91 -3.41,-2.86 -0.93,-1.16 -0.65,-1.05 -0.1,-0.8 -0.24,-0.78 -1.52,-1.94 -0.61,-1.58 -0.61,-0.94 -0.74,-0.32 -0.72,0.09 -0.64,0.36 -0.64,0.47 -0.7,0.29 -2.76,-0.58 -0.97,0.09 -2.01,0.77 -1.79,-0.27 -0.31,-0.55 0.23,-0.56 0.56,-0.53 0.28,-0.38 0.14,-0.57 -0.21,-0.76 -0.74,-0.82 -1.53,-1.38 -2.48,-1.28 -0.86,-0.91 v -0.53 l 0.97,-0.63 0.59,-0.59 0.52,-0.7 0.36,-0.77 0.17,-0.66 -0.15,-0.62 -0.23,-0.49 -2.19,-2.78 -0.3,-0.5 -0.24,-0.56 -0.18,-0.69 -0.23,-1.52 -0.05,-2.51 0.05,-0.84 0.14,-0.85 0.28,-0.82 0.14,-0.82 -0.1,-0.79 -0.97,-2.1 -1.06,-1.79 -0.35,-1.33 -0.51,-1.28 -1.02,-1.63 -0.45,-1.07 -0.2,-1.01 0.17,-3.32 -0.04,-0.85 -0.22,-0.85 -0.66,-1.61 -0.15,-0.8 -0.05,-4.3 -0.39,-1.97 -0.63,-0.66 -1.15,0.34 -3.39,-0.74 -3.01,-1.71 -1.32,-2.18 -0.36,-1.03 -0.91,-1.23 -1.2,-1.04 -1.23,-0.43 -0.54,0.81 -0.35,1.68 -0.65,1.5 -1.47,0.23 -0.75,-0.82 -0.35,-2.97 -0.58,-1.51 -5.47,-3.32 -1.44,0.52 -0.6,1.15 -0.21,1.13 -0.31,0.52 -1.5,-0.2 -2.83,-0.84 -1.17,-0.13 -3.47,-0.17 -2.84,1.21 -1.9,1.31 -1.33,1.61 -1.04,0.56 -1.27,1.29 -2.84,-0.98 -1.31,-1.15 -0.95,0.09 -2.94,1.88 -1.89,0.28 -2.08,0.55 -1.23,-0.76 -0.56,-1.51 -1.13,-0.48 -0.2,2.08 0.66,2.27 -0.48,1.23 -2.84,0.46 -1.03,-2.27 -1.31,-2.56 -1.75,-0.63 -0.84,1.44 0.23,1.9 0.94,1.88 1.38,1.34 -0.39,2.32 0.06,2.96 -0.81,1.73 -3.1,-2.09 -2.84,1.5 -2.65,2.45 -1.88,-2.08 -0.66,-1.52 -1.03,0.28 -1.420001,0.95 -2.46,-1.42 -1.7,0.09 -0.38,1.23 1.83,1.59 0.17,1.24 -0.27,1.34 -0.23,1.85 0.47,1.58 2.2,1.72 0.78,1.58 -0.58,2.67 -1.76,3.83 -2.07,3.5 -1.55,1.72 0.27,-2.32 -0.33,-1.1 -0.69,-0.19 -0.93,0.39 -1.44,1.63 -1.51,4.7 -0.87,1.81 -5.43,8.45 -0.51,1.59 -1.24,9.9 0.06,2.61 0.27,1.23 1.75,2.05 3.51,2.43 6.47,-0.98 3.13,1.31 -7.64,5.33 -1.24,0.56 -3.16,-5.03 -1.98,-1.44 -2.86,0.58 -1.29,1.34 -2.02,3.86 -0.9,1.23 -5.14,1.15 -0.83,0.41 -1,3.12 -2.47,1.27 -5.83,0.47 -2.98,1.21 -0.78,1.8 1.21,1.62 14.37,2.75 5.71,-0.66 3.12,-0.79 1.36,-1.08 1.08,-2.77 2.41,1.07 4.06,4.23 9.32,5.54 1.710001,-1.03 5.95,-1.11 6.01,-2.98 1.99,-0.42 1.87,0.36 4.26,1.52 2.23,0.36 4.9,-0.05 2.04,0.92 1.08,2.43 -2.52,1.32 -0.84,5.29 -2.61,-0.21 -0.69,-0.99 -0.28,-1.47 -0.5,-1.33 -1.43,-0.58 -5.43,1.07 -5.09,0.1 -1.17,1.14 0.37,3.02 0.69,2.02 0.39,0.46 0.59,0.16 2.59,2.34 1.35,0.54 1.39,-0.2 1.35,-1.04 0.91,1.17 -1.17,1.64 -1.43,0.96 -1.71,0.47 -1.98,0.12 -2.2,-0.42 -3.25,-2.05 -1.71,-0.72 -1.68,0.29 -3.13,2.34 -1.53,0.56 -2.310001,0.25 -1.63,0.85 -1.05,1.66 -0.52,2.67 1.18,-0.34 3.01,-1.89 -0.85,3.29 0.81,1.95 2.000001,0.92 2.72,0.23 1.31,0.38 3.35,2.82 1.36,0.47 7.12,1.17 2.27,-0.01 2.03,-0.64 1.9,-1.47 1.36,-2.43 1.1,-2.89 1.43,-2.24 2.45,-0.48 -0.36,2.82 5.36,3.03 0.95,2.67 -1.65,2.85 -5.32,3.43 -1.5,2.34 h 7.57 l 0.54,0.41 0.33,0.73 0.12,0.69 -0.09,0.3 2.26,-0.59 2.37,-1.5 3.86,-3.24 -1.14,-0.51 -0.94,-0.69 -0.78,-0.93 -0.58,-1.16 2.77,-0.73 3.43,0.57 3.28,1.47 2.29,1.98 0.17,-2.6 -2.25,-2.26 -3.1,-1.73 -2.38,-0.96 1.36,-0.77 1.44,-0.3 h 3.16 l -0.23,-0.53 -0.31,-0.99 -0.39,-0.6 2.62,-1.28 1.16,0.9 1.09,1.64 2.37,0.86 3.32,0.67 -0.18,1.65 -3.64,4.07 0.93,1.65 1.31,1.15 1.67,0.31 2.06,-0.88 -0.42,3.98 -2.34,0.72 -6.08,-1.5 -2.57,0.59 -2.95,1.5 -2.59,2.07 -1.56,2.22 2.2,0.85 4.23,-0.8 1.9,1.12 -6.71,3.09 -3.28,-0.99 -1.87,3.57 -1.67,8.05 z"
     inkscape:connector-curvature="0"
     style="fill:#cccccc;fill-opacity:1;stroke:#ffffff;stroke-width:0.5;stroke-opacity:1" />
  <path
     id="KP-06"
     class="land"
     d="m 298.78131,633.49511 -0.94,-0.27 -0.93,-0.44 -0.84,-0.56 -0.73,-0.71 -1.88,-2.52 -0.89,-0.57 -1,0.18 -1.18,1.08 -0.83,1.99 -0.3,1.35 -0.03,1.18 0.14,0.91 0.23,0.88 0.35,0.81 1.64,2.52 0.44,0.88 0.59,1.69 0.38,0.82 0.52,0.81 2.87,2.89 0.53,0.77 0.38,0.79 0.75,2.54 0.36,0.83 0.46,0.89 1.1,1.62 0.96,1.1 0.44,0.83 0.25,0.69 0.14,0.79 -0.92,0.78 -1.76,0.67 -4.48,0.49 -2.13,-0.02 -1.57,-0.25 -6.12,-3.98 -0.86,-0.31 -0.91,0.22 -1.01,0.68 -1.46,1.91 -0.28,1.2 0.13,1.05 0.81,1.53 0.54,1.55 0.26,1.38 0.12,1.08 v 0.62 l -0.07,0.52 -0.12,0.57 -0.3,0.67 -0.57,0.7 -0.76,0.65 -1.99,0.1 -1.41,-0.12 -8.68,-2.93 -1.1,-0.59 -0.61,-0.25 -0.74,-0.4 -0.8,-0.56 -3.89,-1.77 -0.83,-0.26 -2.47,-0.47 -0.81,0.03 -0.89,0.47 -2.28,-0.75 -1.54,-0.91 -0.43,-0.56 -1.42,-1.24 -0.79,-1.08 -0.62,-0.24 -3.83,-0.59 -0.65,-0.25 -0.99,0.09 -0.59,0.86 -1.08,0.52 -0.87,1.01 -1.36,0.74 -1.02,-0.12 -0.84,-0.83 -0.67,0.26 -1.06,1.19 -0.56,0.98 -0.26,0.94 -0.16,0.81 -0.35,3.24 0.03,0.83 0.13,0.79 0.23,0.81 0.36,0.78 0.48,0.75 0.65,0.69 1.48,1.01 2.96,1.58 0.66,0.53 0.42,0.45 4.43,6.52 0.37,0.76 0.27,0.77 0.15,0.75 0.12,0.81 0.07,5.17 -0.12,0.8 -0.32,0.78 -0.45,0.73 -0.7,0.63 -0.72,0.41 -4.78,1.28 -1.32,0.63 -1.01,0.76 -0.63,0.76 -2.14,3.16 -0.65,0.72 -0.88,0.58 -1.02,0.43 -2.59,0.58 -1.83,0.17 -3.16,-0.7 -4.86,-2.15 -2.09,-1.37 -4.74,-2.26 -0.67,-0.78 -0.31,-0.86 0.16,-2.51 -0.13,-0.8 -0.29,-0.78 -0.52,-0.73 -0.65,-0.66 -0.7,-0.55 -12.43,-6.5 -1.89,-0.47 -8.09,-0.45 -3.28,0.38 -3.98,1.99 -8.9,5.93 -3.63,1.3 -0.15,2.06 0.28,0.98 0.55,1.28 1.39,1.79 2.25,2.3 0.44,0.87 0.25,1.19 0.22,4.06 1.54,4.65 0.07,0.02 0.76,0.77 1.45,2.44 1.14,1.18 -1.3,0.39 0.63,0.66 0.39,1.97 0.05,4.3 0.15,0.8 0.66,1.61 0.22,0.85 0.04,0.85 -0.17,3.32 0.2,1.01 0.45,1.07 1.02,1.63 0.51,1.28 0.35,1.33 1.06,1.79 0.97,2.1 0.1,0.79 -0.14,0.82 -0.28,0.82 -0.14,0.85 -0.05,0.84 0.05,2.51 0.23,1.52 0.18,0.69 0.24,0.56 0.3,0.5 2.19,2.78 0.23,0.49 0.15,0.62 -0.17,0.66 -0.36,0.77 -0.52,0.7 -0.59,0.59 -0.97,0.63 v 0.53 l 0.86,0.91 2.48,1.28 1.53,1.38 0.74,0.82 0.21,0.76 -0.14,0.57 -0.28,0.38 -0.56,0.53 -0.23,0.56 0.31,0.55 1.79,0.27 2.01,-0.77 0.97,-0.09 2.76,0.58 0.7,-0.29 0.64,-0.47 0.64,-0.36 0.72,-0.09 0.74,0.32 0.61,0.94 0.61,1.58 1.52,1.94 0.24,0.78 0.1,0.8 0.65,1.05 0.93,1.16 3.41,2.86 0.7,0.91 0.46,1.52 1.1,6.12 0.26,0.78 0.34,0.76 0.73,0.74 1.07,0.62 1.92,0.39 1.23,0.09 1.03,-0.08 4.57,-1.15 2.99,-1.65 0.81,-0.33 1.17,0.02 3.88,0.94 1.34,-0.2 1.04,-0.49 1.21,-1.54 0.65,-0.66 0.75,-0.46 0.78,-0.26 h 0.78 l 1.53,0.46 0.8,0.11 0.77,-0.19 0.76,-0.52 3.86,-3.19 0.72,-0.45 0.64,-0.3 5.37,-1.14 2.75,-0.07 1.6,0.34 2.83,1.14 3.54,2 6.32,2.73 0.75,0.43 0.73,0.61 0.69,0.7 1.14,1.55 0.8,1.52 0.92,2.41 0.9,1.69 0.39,1.11 -0.03,1.56 -0.2,0.87 -0.55,0.35 -0.36,-0.2 -0.48,-0.61 -0.32,-0.74 -0.66,-2.26 -0.32,-0.49 -0.55,-0.09 -0.59,0.44 -0.59,0.67 -0.67,0.64 -1.57,1.07 -0.65,0.99 -0.42,1.82 0.05,1.14 0.79,1.02 0.64,0.64 0.38,1.17 -0.38,4.01 1.37,3.36 -0.98,2.54 0.47,2.5 0.86,1.75 0.07,1.25 -0.21,0.92 -0.32,0.69 -0.29,1.14 -0.48,4.95 0.2,1.55 0.59,1 0.75,0.58 0.76,0.84 0.19,0.82 -0.18,0.91 -0.24,0.66 -0.73,1.31 -0.01,0.02 0.33,0.29 2.98,5.14 1,0.91 17.19,11.04 2.1,0.49 3.39,-2.08 2.62,-1.6 1.18,-0.2 0.51,-2.38 1.38,-2.03 0.06,-0.04 -0.86,-13.41 0.65,-3.72 1.48,-1.09 2.28,-0.25 3.18,-1.21 4.9,-3.91 10.52,-16.11 2.15,-2.19 4.75,-3.69 2.03,-2.35 2.5,-6.2 -0.04,-0.05 -1.09,-1.89 -0.29,-0.73 -0.38,-0.67 -0.46,-0.59 -2.05,-0.31 -1.08,-0.52 -0.03,-0.02 -0.74,-0.46 -2.06,-2.93 -0.34,-2.12 0.61,-1.79 0.72,-1.66 0.09,-1.04 -0.15,-0.83 -0.97,-1.39 -0.3,-0.61 -0.37,-1.15 0.15,-0.83 0.5,-1.1 0.71,-1.1 0.79,-2.31 -0.1,-1.1 -0.46,-0.68 -0.75,0.04 -0.69,0.22 -0.61,0.35 -1.32,1.11 -0.68,0.12 -0.98,-0.25 -1.45,-1.38 -1.11,-0.71 -1.05,-0.45 -0.96,-0.3 -0.76,-0.38 -0.88,-0.88 -0.42,-0.92 -0.13,-1.07 -0.44,-1.05 -8.24,-14.41 -0.91,-1.97 -0.68,-3.08 -0.13,-2.35 0.05,-0.79 0.31,-1.61 0.45,-1.67 0.3,-0.8 0.24,-0.98 0.19,-1.16 -0.15,-1.87 -0.35,-1.18 -0.49,-0.99 -2.63,-3.98 -0.69,-1.41 0.02,-0.24 0.25,-1.29 0.4,-0.78 0.63,-0.73 0.72,-0.53 0.79,-0.43 7.3,-2.28 1.55,-0.9 1.55,-1.24 0.73,-0.74 1.12,-1.57 2.25,-4.9 4.19,-6.3 1.78,-3.27 0.36,-1.28 0.33,-1.69 0.35,-3.15 -0.04,-4.18 -0.31,-2.98 0.01,-1.57 0.19,-1.25 0.42,-0.82 0.53,-0.76 0.7,-0.75 0.73,-0.67 0.78,-0.55 0.75,-0.36 0.74,-0.21 5.82,-0.4 0.77,-0.19 0.76,-0.34 0.75,-0.49 0.7,-0.66 2.08,-2.67 1.03,-2.02 0.84,-2.21 0.32,-1.34 0.14,-1.11 -0.08,-0.79 -0.19,-0.76 -0.28,-0.74 -0.51,-1.08 -0.17,-0.26 -0.73,-0.78 -1.23,-1.77 -0.87,-2.52 -0.55,-5.84 -6.89,0.9 -2.64,-0.43 -1.68,-1.1 -6.36,-5.3 -1.83,-1.04 -1.79,-0.77 -3.92,-0.68 -0.84,-0.34 -0.84,-0.53 -1.86,-1.65 -1.43,-0.85 -0.94,-0.38 -0.98,-0.16 -0.95,0.01 -5.88,1.57 -1.82,0.26 z"
     inkscape:connector-curvature="0"
     style="fill:#cccccc;fill-opacity:1;stroke:#ffffff;stroke-width:0.5;stroke-opacity:1" />
  <g
     id="layer1"
     inkscape:label="Vrstva 1"
     transform="matrix(0.41259582,0,0,0.4080075,39.46699,526.95593)">
    <circle
       transform="matrix(0.994318,0,0,0.994318,-275.5681,-427.0646)"
       id="path1306"
       style="fill:#ff1414;fill-opacity:0.78448277;stroke-width:10.19400024;stroke-miterlimit:4;stroke-dasharray:none"
       cx="340"
       cy="492.36218"
       r="62.857143" />
  </g>
</svg>
